<svg width="456" height="320" viewBox="0 0 456 320" fill="none" xmlns="http://www.w3.org/2000/svg">
<path d="M222 315C307.604 315 377 245.604 377 160C377 74.3959 307.604 5 222 5C136.396 5 67 74.3959 67 160C67 245.604 136.396 315 222 315Z" fill="#F8E3E6"/>
<path d="M228 148.155L379.052 148.155V40.8684L228 40.8684V148.155Z" fill="white"/>
<path d="M228.377 40.8684H378.676C378.884 40.8684 379.052 41.0368 379.052 41.2446V50.3895H228V41.2448C228 41.0368 228.169 40.8684 228.377 40.8684Z" fill="#593D6F"/>
<path d="M370.555 45.6953C370.555 46.8912 371.525 47.8607 372.721 47.8607C373.917 47.8607 374.886 46.8912 374.886 45.6953C374.886 44.4993 373.917 43.5298 372.721 43.5298C371.525 43.5298 370.555 44.4993 370.555 45.6953Z" fill="white"/>
<path d="M365.907 47.8477C367.099 47.749 367.985 46.7028 367.886 45.511C367.788 44.3191 366.742 43.4329 365.55 43.5316C364.358 43.6302 363.472 44.6764 363.57 45.8683C363.669 47.0601 364.715 47.9464 365.907 47.8477Z" fill="white"/>
<path d="M360.256 47.2281C361.102 46.3824 361.102 45.0114 360.256 44.1657C359.41 43.3201 358.039 43.3201 357.194 44.1657C356.348 45.0114 356.348 46.3824 357.194 47.2281C358.039 48.0737 359.41 48.0737 360.256 47.2281Z" fill="white"/>
<path d="M380.174 147.033H229.123C228.916 147.033 228.749 146.866 228.749 146.66V39.3735C228.749 39.1672 228.916 39 229.123 39H380.174C380.381 39 380.548 39.1672 380.548 39.3735V146.66C380.548 146.866 380.381 147.033 380.174 147.033ZM229.496 146.286H379.801V39.747H229.496V146.286Z" fill="#363E44"/>
<path d="M307.207 76.4744H239.25V79.4167H307.207V76.4744Z" fill="#B7A9C2"/>
<path d="M361.126 76.4744H315.634V79.4167H361.126V76.4744Z" fill="#B7A9C2"/>
<path d="M275.755 85.9807H239.25V88.9228H275.755V85.9807Z" fill="#B7A9C2"/>
<path d="M356.633 85.9807H284.182V88.9228H356.633V85.9807Z" fill="#B7A9C2"/>
<path d="M275.755 114.5H239.25V117.442H275.755V114.5Z" fill="#B7A9C2"/>
<path d="M356.633 114.5H284.182V117.442H356.633V114.5Z" fill="#B7A9C2"/>
<path d="M338.66 95.487H261.716V98.4291H338.66V95.487Z" fill="#B7A9C2"/>
<path d="M302.714 104.993H261.716V107.935H302.714V104.993Z" fill="#B7A9C2"/>
<path d="M245.815 69.8908C245.72 69.8908 245.624 69.8544 245.551 69.7813L239.141 63.371C238.995 63.2251 238.995 62.9886 239.141 62.8428L245.551 56.4322C245.697 56.2864 245.933 56.2864 246.079 56.4322C246.225 56.5781 246.225 56.8145 246.079 56.9604L239.933 63.1069L246.079 69.2532C246.225 69.399 246.225 69.6355 246.079 69.7813C246.006 69.8542 245.911 69.8908 245.815 69.8908Z" fill="#B7A9C2"/>
<path d="M256.316 69.8908C256.22 69.8908 256.125 69.8544 256.052 69.7813C255.906 69.6355 255.906 69.399 256.052 69.2532L262.198 63.1069L256.052 56.9604C255.906 56.8145 255.906 56.5781 256.052 56.4322C256.198 56.2864 256.434 56.2864 256.58 56.4322L262.99 62.8428C263.136 62.9886 263.136 63.2251 262.99 63.371L256.58 69.7813C256.507 69.8542 256.411 69.8908 256.316 69.8908Z" fill="#B7A9C2"/>
<path d="M248.322 69.496C248.27 69.496 248.217 69.4849 248.167 69.4619C247.979 69.3758 247.897 69.1543 247.983 68.9668L253.516 56.8906C253.602 56.7033 253.822 56.6206 254.011 56.7067C254.199 56.7927 254.281 57.0143 254.195 57.2018L248.662 69.2779C248.599 69.4152 248.463 69.496 248.322 69.496Z" fill="#B7A9C2"/>
<path d="M65.0002 237.035L253.71 237.035L253.71 94.0001L65.0002 94.0001L65.0002 237.035Z" fill="#A3A3A3"/>
<path d="M247.79 219.644L247.79 99.9206L70.9205 99.9206L70.9205 219.644L247.79 219.644Z" fill="white"/>
<path d="M155.803 227.636C155.803 229.598 157.394 231.189 159.355 231.189C161.317 231.189 162.908 229.598 162.908 227.636C162.908 225.674 161.317 224.084 159.355 224.084C157.394 224.084 155.803 225.675 155.803 227.636Z" fill="#FAFAFA"/>
<path d="M65 240.912C65 249.099 71.6367 255.736 79.8234 255.736H277.627C285.813 255.736 292.45 249.099 292.45 240.912H65Z" fill="#A3A3A3"/>
<path d="M114.671 254.509C108.021 254.509 102.61 249.099 102.61 242.448C102.61 242.277 102.749 242.138 102.92 242.138C103.091 242.138 103.23 242.277 103.23 242.448C103.23 248.757 108.363 253.89 114.672 253.89C114.843 253.89 114.982 254.028 114.982 254.2C114.981 254.371 114.843 254.509 114.671 254.509Z" fill="white"/>
<path d="M212.318 251.025H190.142C186.498 251.025 183.534 248.06 183.534 244.416C183.534 244.245 183.672 244.106 183.844 244.106H218.616C218.788 244.106 218.926 244.245 218.926 244.416C218.926 248.06 215.962 251.025 212.318 251.025ZM184.161 244.726C184.323 247.884 186.944 250.405 190.143 250.405H212.318C215.516 250.405 218.137 247.884 218.299 244.726H184.161Z" fill="white"/>
<path d="M247.747 99.0735H70.6548V106.62H247.747V99.0735Z" fill="#737373"/>
<path d="M234.649 250.523L253.002 240.534C294.224 218.096 319.931 174.591 319.931 127.265V79.4852C319.931 75.7657 317.015 72.6784 313.337 72.5774C269.965 71.3894 243.058 58.7338 234.202 53.8352C232.189 52.7216 229.742 52.7216 227.729 53.8352C218.873 58.7338 191.966 71.3889 148.594 72.5774C144.916 72.6784 142 75.7657 142 79.4852V127.265C142 174.591 167.707 218.096 208.929 240.534L227.282 250.523C229.582 251.775 232.349 251.775 234.649 250.523Z" fill="#FFF2F4"/>
<path d="M311.134 85.11V125.656C311.134 170.791 286.737 212.102 247.467 233.481L234.448 240.565C233.365 241.153 232.165 241.453 230.965 241.453C229.765 241.453 228.565 241.153 227.483 240.565L214.463 233.481C175.194 212.102 150.796 170.791 150.796 125.656V85.11C150.796 83.1923 152.314 81.6214 154.226 81.486C191.172 78.9739 216.539 69.1842 229.376 62.9132C229.888 62.6603 230.423 62.5368 230.965 62.5368C231.506 62.5368 232.041 62.6603 232.553 62.9132C245.39 69.1847 270.764 78.9739 307.704 81.486C309.616 81.6214 311.134 83.1923 311.134 85.11Z" fill="#E01236"/>
<path d="M311.134 85.11V125.656C311.134 170.791 286.737 212.102 247.467 233.481L234.448 240.565C233.365 241.153 232.165 241.453 230.965 241.453V62.5368C231.507 62.5368 232.042 62.6603 232.554 62.9132C245.391 69.1847 270.764 78.9739 307.704 81.486C309.616 81.6214 311.134 83.1923 311.134 85.11Z" fill="#B90827"/>
<path d="M261.452 135.952H200.479C196.849 135.952 193.902 138.899 193.902 142.529V191.147C193.902 194.777 196.849 197.724 200.479 197.724H261.452C265.082 197.724 268.029 194.777 268.029 191.147V142.529C268.029 138.899 265.081 135.952 261.452 135.952ZM236.849 169.921V174.78C236.849 178.027 234.213 180.663 230.965 180.663C227.718 180.663 225.082 178.028 225.082 174.78V169.921C222.582 168.109 220.964 165.161 220.964 161.837C220.964 156.313 225.441 151.836 230.965 151.836C236.489 151.836 240.966 156.313 240.966 161.837C240.967 165.161 239.349 168.109 236.849 169.921Z" fill="white"/>
<path d="M252.733 117.738V125.362C252.733 127.962 250.626 130.069 248.027 130.069C245.427 130.069 243.32 127.962 243.32 125.362V118.041C243.32 111.351 238.127 105.645 231.442 105.393C224.413 105.127 218.611 110.768 218.611 117.738V131.246H209.198V118.093C209.198 106.23 218.545 96.2762 230.404 95.9778C236.639 95.8209 242.292 98.2839 246.356 102.348C250.298 106.289 252.733 111.725 252.733 117.738Z" fill="white"/>
</svg>
