<svg width="457" height="320" viewBox="0 0 457 320" fill="none" xmlns="http://www.w3.org/2000/svg">
<path d="M228.77 310C311.612 310 378.77 242.843 378.77 160C378.77 77.1573 311.612 10 228.77 10C145.927 10 78.7695 77.1573 78.7695 160C78.7695 242.843 145.927 310 228.77 310Z" fill="#F8E3E6"/>
<path d="M276.788 259.481H131.351V50.217H292.767V245.851C292.767 253.379 285.613 259.481 276.788 259.481Z" fill="#F7F7F7"/>
<path d="M292.459 50.217H131.312V59.9325H292.459V50.217Z" fill="#3A1A53"/>
<path d="M252.062 165.304C254.236 165.304 254.236 162.847 252.062 162.847C225.1 162.847 198.138 162.847 171.176 162.847C169.003 162.847 169.003 165.304 171.176 165.304H252.062Z" fill="#B90827"/>
<path d="M208.375 66.6711C195.414 66.6711 183.814 72.4109 175.95 81.4803L208.375 109.576L240.799 81.4803C232.935 72.4109 221.335 66.6711 208.375 66.6711Z" fill="#D6CEDD"/>
<path d="M253.931 103.288L211.465 109.394V152.299C235.18 152.299 254.37 133.109 254.37 109.394C254.37 107.32 254.214 105.283 253.931 103.288Z" fill="#3A1A53"/>
<path d="M175.995 81.6218C160.71 99.7541 163.014 126.795 181.147 142.08C182.733 143.416 184.39 144.61 186.098 145.679L208.8 109.275L175.995 81.6218Z" fill="#DDDAE8"/>
<path d="M208.741 152.238C200.702 152.239 192.634 149.995 185.547 145.424L208.745 109.334L208.741 152.238Z" fill="#79618B"/>
<path d="M256.113 100.925C254.925 92.5755 251.338 85.0093 246.071 78.9351L213.646 107.031L256.113 100.925Z" fill="#230D34"/>
<g clip-path="url(#clip0_2948_15076)">
<path d="M166.09 203.195H150.328V221.036H166.09V203.195Z" fill="#EED5D5"/>
<path d="M166.09 221.036H150.328V259H166.09V221.036Z" fill="#B90827"/>
</g>
<g clip-path="url(#clip1_2948_15076)">
<path d="M201.09 182.14H185.09V205.14H201.09V182.14Z" fill="#EED5D5"/>
<path d="M200.851 205.14H185.09V259H200.851V205.14Z" fill="#B90827"/>
</g>
<g clip-path="url(#clip2_2948_15076)">
<path d="M235.851 192.277H220.09V218.895H235.851V192.277Z" fill="#EED5D5"/>
<path d="M235.851 218.895H220.09V259H235.851V218.895Z" fill="#B90827"/>
</g>
<g clip-path="url(#clip3_2948_15076)">
<path d="M270.715 177H254.851V212.181H270.715V177Z" fill="#EED5D5"/>
<path d="M270.612 212.181H254.851V259H270.612V212.181Z" fill="#B90827"/>
</g>
<path d="M137.469 57.8225C136.326 57.8225 135.396 56.8926 135.396 55.7498C135.396 54.6071 136.326 53.6772 137.469 53.6772C138.612 53.6772 139.542 54.6071 139.542 55.7498C139.542 56.8926 138.612 57.8225 137.469 57.8225Z" fill="white"/>
<path d="M143.872 57.8225C142.729 57.8225 141.8 56.8926 141.8 55.7498C141.8 54.6071 142.73 53.6772 143.872 53.6772C145.015 53.6772 145.945 54.6071 145.945 55.7498C145.945 56.8926 145.015 57.8225 143.872 57.8225Z" fill="white"/>
<path d="M150.274 57.8225C149.131 57.8225 148.201 56.8926 148.201 55.7498C148.201 54.6071 149.131 53.6772 150.274 53.6772C151.417 53.6772 152.346 54.6071 152.346 55.7498C152.346 56.8926 151.417 57.8225 150.274 57.8225Z" fill="white"/>
<path d="M260.658 109.809C260.443 109.809 260.256 109.65 260.226 109.431C260.145 108.841 260.091 108.242 260.068 107.648C260.058 107.407 260.246 107.204 260.487 107.194C260.729 107.185 260.931 107.373 260.941 107.614C260.963 108.179 261.014 108.75 261.091 109.312C261.124 109.551 260.957 109.772 260.718 109.804C260.698 109.807 260.678 109.809 260.658 109.809Z" fill="#B90827"/>
<path d="M260.701 104.594C260.679 104.594 260.657 104.592 260.635 104.589C260.397 104.553 260.233 104.33 260.269 104.091C260.443 102.944 260.726 101.783 261.111 100.639C261.188 100.411 261.436 100.288 261.665 100.365C261.893 100.442 262.016 100.69 261.939 100.918C261.57 102.014 261.299 103.125 261.133 104.223C261.1 104.439 260.913 104.594 260.701 104.594ZM262.887 98.0148C262.819 98.0148 262.751 97.9991 262.687 97.9662C262.472 97.8555 262.388 97.5922 262.499 97.3775C263.024 96.3591 263.638 95.3398 264.324 94.3485C264.462 94.1501 264.734 94.1006 264.932 94.2381C265.131 94.3753 265.18 94.6477 265.043 94.8461C264.378 95.8068 263.783 96.7931 263.275 97.7783C263.198 97.9283 263.045 98.0148 262.887 98.0148ZM266.826 92.289C266.724 92.289 266.621 92.2535 266.539 92.1815C266.357 92.0231 266.338 91.7469 266.496 91.5651C267.252 90.6985 268.075 89.8447 268.943 89.0273C269.119 88.8619 269.395 88.87 269.561 89.046C269.726 89.2216 269.718 89.4981 269.542 89.6635C268.695 90.4614 267.892 91.2945 267.155 92.1396C267.068 92.2383 266.947 92.289 266.826 92.289ZM271.884 87.512C271.755 87.512 271.626 87.4546 271.54 87.3448C271.391 87.1551 271.424 86.8802 271.614 86.7313C272.53 86.0121 273.492 85.3211 274.474 84.6776C274.676 84.5454 274.946 84.6019 275.079 84.8035C275.211 85.0053 275.154 85.276 274.953 85.4085C273.992 86.0383 273.05 86.7147 272.154 87.4185C272.074 87.4814 271.979 87.512 271.884 87.512ZM277.705 83.6922C277.55 83.6922 277.401 83.6103 277.321 83.4655C277.205 83.254 277.282 82.9884 277.494 82.8721C278.509 82.3143 279.561 81.7768 280.619 81.2752C280.837 81.1718 281.098 81.2647 281.201 81.4826C281.304 81.7008 281.211 81.9612 280.994 82.0647C279.951 82.5593 278.915 83.0886 277.915 83.638C277.848 83.6747 277.776 83.6922 277.705 83.6922ZM283.995 80.7057C283.822 80.7057 283.659 80.6026 283.59 80.4331C283.499 80.2094 283.607 79.9548 283.831 79.8639C284.899 79.4301 286.004 79.0165 287.114 78.6346C287.342 78.5559 287.591 78.6774 287.67 78.9058C287.748 79.1339 287.627 79.3826 287.398 79.461C286.303 79.8379 285.212 80.2461 284.159 80.6737C284.105 80.6952 284.05 80.7057 283.995 80.7057ZM290.578 78.438C290.388 78.438 290.213 78.3133 290.158 78.1216C290.091 77.8897 290.225 77.6477 290.457 77.5809C291.561 77.2634 292.702 76.9654 293.846 76.6954C294.082 76.6401 294.316 76.7854 294.372 77.0202C294.427 77.255 294.282 77.4904 294.047 77.546C292.916 77.8131 291.789 78.1073 290.699 78.4211C290.658 78.4324 290.618 78.438 290.578 78.438ZM346.29 77.1999L345.936 77.1988C345.694 77.197 345.5 76.9998 345.502 76.7586C345.504 76.5174 345.691 76.3202 345.942 76.3249L346.29 76.326C347.37 76.326 348.412 76.2879 349.385 76.2124C349.625 76.1946 349.836 76.3735 349.855 76.6144C349.873 76.855 349.693 77.0653 349.453 77.084C348.457 77.1609 347.393 77.1999 346.29 77.1999ZM342.458 77.0656C342.449 77.0656 342.439 77.0654 342.429 77.0648C341.39 76.9972 340.249 76.9013 338.944 76.7726C338.704 76.749 338.528 76.5349 338.552 76.2949C338.576 76.0548 338.789 75.8783 339.03 75.9031C340.326 76.0312 341.456 76.1259 342.486 76.1929C342.727 76.2086 342.91 76.4166 342.894 76.6572C342.879 76.8882 342.687 77.0656 342.458 77.0656ZM297.353 76.8343C297.147 76.8343 296.964 76.6884 296.924 76.4787C296.879 76.2415 297.035 76.0129 297.272 75.968C298.398 75.7548 299.559 75.5599 300.724 75.3889C300.963 75.3542 301.185 75.5191 301.22 75.7577C301.255 75.9966 301.09 76.2185 300.851 76.2535C299.698 76.4227 298.548 76.6156 297.435 76.8265C297.407 76.8317 297.38 76.8343 297.353 76.8343ZM352.87 76.6281C352.665 76.6281 352.482 76.483 352.442 76.2739C352.396 76.0371 352.55 75.8078 352.788 75.7621C353.938 75.5395 355.05 75.2441 356.091 74.8841C356.32 74.8051 356.568 74.9263 356.647 75.1541C356.726 75.3822 356.604 75.631 356.377 75.7099C355.296 76.0834 354.145 76.3895 352.954 76.62C352.926 76.6252 352.898 76.6281 352.87 76.6281ZM335.523 76.407C335.507 76.407 335.491 76.4061 335.475 76.4044L334.438 76.2914C333.633 76.2043 332.826 76.1212 332.016 76.0423C331.776 76.019 331.6 75.8052 331.624 75.5651C331.647 75.3251 331.86 75.1486 332.101 75.1725C332.913 75.2514 333.724 75.335 334.532 75.4224L335.571 75.5357C335.811 75.5619 335.984 75.7778 335.957 76.0175C335.933 76.2413 335.743 76.407 335.523 76.407ZM304.241 75.8186C304.021 75.8186 303.832 75.6525 303.808 75.4285C303.782 75.1885 303.955 74.9729 304.195 74.947C305.331 74.8241 306.503 74.7183 307.679 74.6324C307.92 74.6149 308.129 74.7958 308.146 75.0364C308.164 75.2771 307.983 75.4865 307.742 75.504C306.577 75.589 305.415 75.6939 304.289 75.8157C304.273 75.8177 304.257 75.8186 304.241 75.8186ZM328.589 75.7364C328.578 75.7364 328.566 75.7359 328.554 75.735C327.384 75.6415 326.218 75.5593 325.088 75.4909C324.847 75.4763 324.663 75.2692 324.678 75.0283C324.692 74.7874 324.9 74.6056 325.141 74.6184C326.277 74.6872 327.448 74.7696 328.624 74.8637C328.865 74.8829 329.044 75.0935 329.024 75.3341C329.006 75.5631 328.815 75.7364 328.589 75.7364ZM321.635 75.3184C321.629 75.3184 321.624 75.3184 321.618 75.3181C320.446 75.2727 319.278 75.2412 318.146 75.2243C317.905 75.2208 317.712 75.0222 317.716 74.781C317.719 74.5398 317.916 74.3394 318.159 74.3504C319.298 74.3673 320.473 74.3991 321.651 74.4448C321.892 74.4541 322.08 74.6572 322.071 74.8984C322.062 75.1337 321.869 75.3184 321.635 75.3184ZM311.187 75.3088C310.954 75.3088 310.76 75.1247 310.751 74.8896C310.741 74.6484 310.929 74.4451 311.17 74.4352C312.311 74.3886 313.487 74.358 314.664 74.3443C314.902 74.3478 315.104 74.5348 315.106 74.776C315.109 75.0172 314.916 75.2153 314.675 75.2182C313.505 75.2319 312.338 75.2622 311.206 75.3085C311.199 75.3085 311.193 75.3088 311.187 75.3088ZM359.422 74.3391C359.266 74.3391 359.116 74.2557 359.037 74.1092C358.922 73.8969 359.002 73.6318 359.215 73.5173C360.197 72.9883 361.162 72.3664 362.082 71.669C362.275 71.5231 362.549 71.5612 362.694 71.7535C362.84 71.9457 362.802 72.2198 362.61 72.3655C361.654 73.09 360.651 73.7364 359.628 74.2866C359.563 74.3222 359.492 74.3391 359.422 74.3391ZM364.967 70.165C364.855 70.165 364.743 70.1222 364.658 70.0368C364.487 69.8661 364.488 69.5894 364.658 69.419C365.443 68.6363 366.21 67.7737 366.937 66.8553C367.087 66.6662 367.362 66.6344 367.551 66.7842C367.74 66.9342 367.772 67.2089 367.622 67.3979C366.873 68.3426 366.084 69.2308 365.275 70.0374C365.191 70.1225 365.079 70.165 364.967 70.165ZM369.301 64.7288C369.22 64.7288 369.138 64.7063 369.065 64.6591C368.862 64.5286 368.803 64.2583 368.934 64.0553C369.536 63.1184 370.121 62.1175 370.672 61.0796C370.785 60.8664 371.05 60.7854 371.263 60.8984C371.476 61.0115 371.557 61.2763 371.444 61.4892C370.882 62.5484 370.284 63.5708 369.668 64.5278C369.585 64.6577 369.444 64.7288 369.301 64.7288Z" fill="#B90827"/>
<path d="M372.585 58.5684C372.527 58.5684 372.467 58.5565 372.409 58.5311C372.188 58.4335 372.088 58.1757 372.186 57.9549C372.415 57.4358 372.642 56.8984 372.859 56.3577C372.95 56.134 373.204 56.0257 373.428 56.1157C373.652 56.206 373.76 56.4606 373.67 56.6843C373.449 57.2337 373.218 57.7799 372.985 58.3077C372.913 58.4711 372.753 58.5684 372.585 58.5684Z" fill="#B90827"/>
<path d="M391.611 25.1939L389.785 66.6364L376.101 52.2706C376.101 52.2706 391.668 24.0319 391.777 24.4989L391.179 24.0005C391.64 23.8688 374.529 51.1995 374.529 51.1995L355.323 46.2232L390.653 24.4834L391.611 25.1939Z" fill="#B90827"/>
<path opacity="0.07" d="M150.312 124.79H69.5566V183.171H150.312V124.79Z" fill="#2E4661"/>
<path d="M148.304 122.168H67V180.723H148.304V122.168Z" fill="#9885A7"/>
<path d="M148.193 122.168H67V126.83H148.193V122.168Z" fill="#2F1344"/>
<path opacity="0.1" d="M148.133 136.893V136.713H138.153V126.919H137.973V136.713H126.008V126.919H125.828V136.713H113.863V126.919H113.683V136.713H101.718V126.919H101.538V136.713H89.5736V126.919H89.393V136.713H77.4286V126.919H77.248V136.713H67.2832V136.893H77.248V147.958H67.2832V148.139H77.248V159.204H67.2832V159.385H77.248V170.45H67.2832V170.631H77.248V180.927H77.4286V170.631H89.393V180.927H89.5736V170.631H101.538V180.927H101.718V170.631H113.683V180.927H113.863V170.631H125.828V180.927H126.008V170.631H137.973V180.927H138.153V170.631H148.133V170.45H138.153V159.385H148.133V159.204H138.153V148.139H148.133V147.958H138.153V136.893H148.133ZM125.827 136.893V147.958H113.863V136.893H125.827ZM101.718 148.139H113.683V159.204H101.718V148.139ZM101.538 159.204H89.5733V148.139H101.538V159.204ZM113.863 148.139H125.827V159.204H113.863V148.139ZM113.683 136.893V147.958H101.718V136.893H113.683ZM101.538 136.893V147.958H89.5733V136.893H101.538ZM77.4283 136.893H89.3927V147.958H77.4283V136.893ZM77.4283 148.139H89.3927V159.204H77.4283V148.139ZM77.4283 170.45V159.385H89.3927V170.45H77.4283ZM89.5733 170.45V159.385H101.538V170.45H89.5733ZM101.718 170.45V159.385H113.683V170.45H101.718ZM113.863 170.45V159.385H125.827V170.45H113.863ZM137.972 170.45H126.008V159.385H137.972V170.45ZM137.972 159.204H126.008V148.139H137.972V159.204ZM137.972 147.958H126.008V136.893H137.972V147.958Z" fill="white"/>
<path d="M139.555 134.336C138.185 134.336 137.074 135.447 137.074 136.817C137.074 137.508 137.358 138.133 137.814 138.583C134.937 141.06 132.061 143.537 129.184 146.014C128.965 146.203 128.746 146.391 128.528 146.58C128.102 146.237 127.563 146.031 126.974 146.031C125.604 146.031 124.493 147.142 124.493 148.512C124.493 149.384 124.944 150.149 125.625 150.592C124.994 152.109 124.364 153.626 123.734 155.143C123.465 155.79 123.197 156.437 122.928 157.084C122.747 157.042 122.56 157.017 122.367 157.017C121.451 157.017 120.654 157.515 120.224 158.253C117.445 156.496 114.666 154.74 111.887 152.983C109.828 151.682 107.768 150.38 105.71 149.079C105.824 148.794 105.888 148.484 105.888 148.158C105.888 146.788 104.777 145.677 103.407 145.677C102.037 145.677 100.927 146.788 100.927 148.158C100.927 148.331 100.945 148.501 100.979 148.664C97.0818 150.255 93.1844 151.846 89.2874 153.436C88.9052 153.593 88.523 153.748 88.1408 153.905C87.7592 153.026 86.8845 152.411 85.8652 152.411C84.4952 152.411 83.3845 153.522 83.3845 154.892C83.3845 155.603 83.6854 156.243 84.1652 156.695C83.5863 157.352 83.0075 158.008 82.429 158.666C79.6663 161.802 76.9036 164.938 74.1409 168.074C73.7447 167.806 73.2673 167.649 72.7532 167.649C71.3832 167.649 70.2725 168.76 70.2725 170.13C70.2725 171.5 71.3832 172.611 72.7532 172.611C74.1232 172.611 75.2339 171.5 75.2339 170.13C75.2339 169.6 75.0667 169.111 74.7841 168.708C77.1431 166.03 79.502 163.353 81.861 160.675C82.8846 159.513 83.9085 158.351 84.9322 157.189C85.2206 157.306 85.5354 157.372 85.8658 157.372C87.2358 157.372 88.3465 156.261 88.3465 154.891C88.3465 154.858 88.3427 154.825 88.3415 154.792C88.3978 154.769 88.4543 154.746 88.5105 154.723C92.7804 152.98 97.0503 151.237 101.32 149.495C101.762 150.182 102.531 150.639 103.408 150.639C104.127 150.639 104.773 150.331 105.226 149.841C107.094 151.022 108.961 152.202 110.829 153.383C113.858 155.298 116.888 157.213 119.918 159.127C119.899 159.249 119.887 159.372 119.887 159.498C119.887 160.868 120.998 161.979 122.368 161.979C123.738 161.979 124.849 160.868 124.849 159.498C124.849 158.641 124.413 157.885 123.752 157.44C124.653 155.272 125.553 153.104 126.453 150.937C126.622 150.973 126.796 150.993 126.975 150.993C128.345 150.993 129.456 149.882 129.456 148.512C129.456 148.056 129.33 147.63 129.116 147.263C129.625 146.825 130.134 146.387 130.643 145.949C132.822 144.072 135.002 142.195 137.181 140.318C137.652 139.913 138.122 139.509 138.592 139.104C138.888 139.229 139.214 139.298 139.556 139.298C140.926 139.298 142.037 138.188 142.037 136.818C142.036 135.447 140.925 134.336 139.555 134.336Z" fill="white"/>
<path d="M388.617 262.261L377.334 280.333L313.313 240.002L324.596 221.93L388.617 262.261Z" fill="#F7F7F7"/>
<path d="M410.669 288.443L410.538 288.651C406.98 294.352 400.629 296.809 396.353 294.14L347.211 263.976L360.125 242.257L409.371 273.287C413.647 275.957 414.228 282.742 410.669 288.443Z" fill="#3A1A53"/>
<path opacity="0.2" d="M317.792 242.696L320.891 244.953L348.944 237.671L325.571 222.757L317.792 242.696Z" fill="#BBBCBF"/>
<path d="M304.757 145.495C274.714 126.74 235.155 135.89 216.399 165.932C197.644 195.975 206.793 235.534 236.836 254.29C266.879 273.046 306.438 263.896 325.194 233.853C343.95 203.81 334.8 164.251 304.757 145.495ZM317.592 229.107C301.457 254.952 267.427 262.824 241.582 246.689C215.737 230.554 207.866 196.523 224.001 170.678C240.135 144.833 274.166 136.962 300.011 153.097C325.856 169.232 333.727 203.263 317.592 229.107Z" fill="#E93353"/>
<path opacity="0.5" d="M309.803 238.902C331.346 217.359 331.346 182.429 309.803 160.886C288.259 139.342 253.33 139.342 231.786 160.886C210.242 182.429 210.242 217.359 231.786 238.902C253.33 260.446 288.259 260.446 309.803 238.902Z" fill="#D1E7F5"/>
<g opacity="0.22">
<path d="M231.043 197.67C230.771 180.08 242.202 164.163 259.172 159.281C276.099 154.412 294.548 161.88 303.453 177.073C305.964 181.356 312.791 177.777 310.277 173.488C300.025 155.998 279.7 146.944 259.881 151.162C240.351 155.319 225.94 172.105 223.592 191.725C223.365 193.622 223.309 195.537 223.338 197.446C223.415 202.395 231.12 202.656 231.043 197.67Z" fill="white"/>
</g>
<path opacity="0.31" d="M314.969 184.61C317.347 186.095 318.071 189.226 316.587 191.604C315.102 193.982 311.971 194.706 309.594 193.222C307.216 191.737 306.491 188.606 307.976 186.228C309.46 183.85 312.592 183.126 314.969 184.61Z" fill="white"/>
<path d="M347.863 263.257L360.15 242.593C360.572 241.883 360.388 240.969 359.725 240.478L359.509 240.318C358.739 239.747 357.643 239.973 357.161 240.802L345.061 261.61C344.608 262.389 344.883 263.388 345.671 263.826L345.699 263.841C346.46 264.264 347.418 264.005 347.863 263.257Z" fill="#E93353"/>
<path d="M324.612 200.287C324.564 213.547 319.749 226.399 310.992 236.369C302.348 246.212 290.315 252.565 277.372 254.4C264.138 256.277 250.477 252.92 239.42 245.505C228.65 238.283 220.792 227.141 217.346 214.673C213.773 201.744 215.252 187.643 221.275 175.68C227.077 164.157 237.054 154.882 248.951 149.899C261.372 144.697 275.469 144.384 288.168 148.782C300.396 153.016 310.782 161.82 317.289 172.957C322.122 181.23 324.578 190.725 324.612 200.287C324.619 202.18 327.554 202.18 327.547 200.287C327.499 187.003 322.903 174.212 314.56 163.889C306.415 153.811 294.744 146.763 282.1 144.034C268.986 141.204 255.12 143.175 243.244 149.363C231.828 155.31 222.622 165.265 217.411 177.01C211.963 189.287 211.064 203.307 214.729 216.214C218.272 228.687 226.192 239.597 236.673 247.159C247.448 254.933 260.911 258.575 274.132 257.665C287.239 256.763 299.704 251.218 309.317 242.3C320.93 231.527 327.49 216.083 327.548 200.288C327.554 198.394 324.619 198.395 324.612 200.287Z" fill="#F7F7F7"/>
<defs>
<clipPath id="clip0_2948_15076">
<rect width="15.7614" height="55.8048" fill="white" transform="translate(150.328 203.195)"/>
</clipPath>
<clipPath id="clip1_2948_15076">
<rect width="16" height="76.8601" fill="white" transform="translate(185.09 182.14)"/>
</clipPath>
<clipPath id="clip2_2948_15076">
<rect width="15.7614" height="66.723" fill="white" transform="translate(220.09 192.277)"/>
</clipPath>
<clipPath id="clip3_2948_15076">
<rect width="16" height="82" fill="white" transform="translate(254.851 177)"/>
</clipPath>
</defs>
</svg>
