<svg width="456" height="320" viewBox="0 0 456 320" fill="none" xmlns="http://www.w3.org/2000/svg">
<path d="M227.924 310C310.767 310 377.924 242.843 377.924 160C377.924 77.1573 310.767 10 227.924 10C145.082 10 77.9243 77.1573 77.9243 160C77.9243 242.843 145.082 310 227.924 310Z" fill="#F8E3E6"/>
<path d="M275.942 259.481H130.505V50.217H291.921V245.851C291.921 253.379 284.767 259.481 275.942 259.481Z" fill="#F7F7F7"/>
<path d="M291.613 50.217H130.467V59.9325H291.613V50.217Z" fill="#3A1A53"/>
<path d="M251.319 217.704L162.99 215.51C160.905 215.458 159.11 217.101 158.983 219.18C158.856 221.259 160.447 222.982 162.532 223.028L250.875 225.002C252.837 225.046 254.525 223.449 254.648 221.437C254.771 219.424 253.281 217.753 251.319 217.704Z" fill="#D8DEE8"/>
<path d="M251.317 230.51L162.956 229.14C160.87 229.108 159.082 230.767 158.966 232.847C158.85 234.926 160.448 236.634 162.535 236.661L250.908 237.81C252.871 237.835 254.552 236.224 254.665 234.21C254.777 232.197 253.28 230.54 251.317 230.51Z" fill="#D8DEE8"/>
<path d="M251.37 244.174L163.01 241.927C160.925 241.874 159.113 243.515 158.966 245.592C158.82 247.67 160.395 249.393 162.481 249.441L250.857 251.467C252.819 251.512 254.524 249.918 254.665 247.906C254.807 245.895 253.333 244.224 251.37 244.174Z" fill="#D8DEE8"/>
<path d="M209.159 68.1195L164.727 68.5699C163.694 68.5803 162.888 69.4238 162.928 70.4539C162.967 71.4838 163.837 72.3094 164.87 72.2976L209.3 71.7923C210.302 71.7809 211.083 70.9501 211.044 69.9365C211.005 68.9228 210.161 68.1094 209.159 68.1195Z" fill="#D8DEE8"/>
<path d="M209.163 74.7323L164.733 75.1485C163.7 75.1582 162.892 76.0012 162.929 77.0313C162.965 78.0614 163.833 78.8876 164.866 78.8767L209.294 78.4055C210.296 78.3948 211.078 77.5645 211.042 76.5508C211.006 75.5371 210.165 74.723 209.163 74.7323Z" fill="#D8DEE8"/>
<path d="M209.182 81.5037L164.752 81.5684C163.719 81.5698 162.903 82.4064 162.929 83.4368C162.955 84.4672 163.814 85.3003 164.847 85.2976L209.275 85.1778C210.277 85.1751 211.068 84.3509 211.042 83.337C211.016 82.323 210.184 81.5022 209.182 81.5037Z" fill="#D8DEE8"/>
<path d="M192.108 152.387C194.991 146.932 200.389 143.056 206.713 142.334L207.154 115.376C189.13 115.847 173.603 126.96 166.647 142.89L192.108 152.387Z" fill="url(#paint0_linear_2948_15076)"/>
<path d="M227.461 164.646C225.922 173.603 218.233 180.477 208.927 180.563C206.176 180.588 203.558 180.018 201.19 178.97L187.064 202.191C193.594 205.659 201.046 207.554 208.927 207.41C232.362 206.98 251.344 188.642 253.484 165.63L227.461 164.646Z" fill="#7A5CE0"/>
<path d="M182.701 199.547L196.868 176.306C192.6 172.803 189.871 167.452 189.871 161.44C189.871 159.988 190.031 158.573 190.333 157.212L164.842 147.751C163.5 152.101 162.776 156.724 162.776 161.517C162.776 177.387 170.687 191.308 182.701 199.547Z" fill="url(#paint1_linear_2948_15076)"/>
<path d="M211.76 142.434C220.264 143.759 226.873 150.818 227.662 159.568L270.73 161.27C270.73 161.251 270.731 161.231 270.731 161.212C270.731 127.833 245.245 100.098 212.493 97.6342L211.76 142.434Z" fill="#E93353"/>
<path d="M136.624 57.8222C135.481 57.8222 134.551 56.8924 134.551 55.7496C134.551 54.6068 135.481 53.677 136.624 53.677C137.767 53.677 138.696 54.6068 138.696 55.7496C138.696 56.8924 137.767 57.8222 136.624 57.8222Z" fill="white"/>
<path d="M143.027 57.8222C141.884 57.8222 140.954 56.8924 140.954 55.7496C140.954 54.6068 141.884 53.677 143.027 53.677C144.17 53.677 145.099 54.6068 145.099 55.7496C145.099 56.8924 144.17 57.8222 143.027 57.8222Z" fill="white"/>
<path d="M149.428 57.8222C148.285 57.8222 147.356 56.8924 147.356 55.7496C147.356 54.6068 148.286 53.677 149.428 53.677C150.572 53.677 151.501 54.6068 151.501 55.7496C151.501 56.8924 150.572 57.8222 149.428 57.8222Z" fill="white"/>
<path d="M259.855 104.594C259.833 104.594 259.811 104.592 259.789 104.589C259.551 104.553 259.387 104.33 259.423 104.091C259.597 102.944 259.88 101.783 260.265 100.64C260.342 100.411 260.59 100.288 260.819 100.365C261.047 100.442 261.17 100.69 261.093 100.918C260.725 102.014 260.453 103.126 260.287 104.223C260.254 104.439 260.067 104.594 259.855 104.594ZM262.041 98.015C261.973 98.015 261.905 97.9992 261.841 97.9663C261.626 97.8556 261.542 97.5923 261.653 97.3776C262.178 96.3592 262.792 95.3399 263.478 94.3486C263.616 94.1503 263.888 94.1008 264.086 94.2382C264.285 94.3755 264.334 94.6478 264.197 94.8462C263.532 95.8069 262.937 96.7932 262.43 97.7784C262.352 97.9284 262.199 98.015 262.041 98.015ZM265.98 92.2891C265.878 92.2891 265.775 92.2536 265.693 92.1817C265.511 92.0232 265.492 91.747 265.65 91.5653C266.406 90.6986 267.229 89.8448 268.097 89.0274C268.273 88.862 268.549 88.8701 268.715 89.0461C268.88 89.2217 268.872 89.4982 268.696 89.6637C267.849 90.4615 267.046 91.2946 266.309 92.1397C266.223 92.2385 266.101 92.2891 265.98 92.2891ZM271.038 87.5121C270.909 87.5121 270.781 87.4547 270.694 87.3449C270.545 87.1553 270.578 86.8803 270.768 86.7314C271.684 86.0122 272.646 85.3212 273.628 84.6777C273.83 84.5455 274.1 84.602 274.233 84.8036C274.365 85.0055 274.308 85.2761 274.107 85.4086C273.146 86.0384 272.204 86.7148 271.308 87.4186C271.228 87.4815 271.133 87.5121 271.038 87.5121ZM276.859 83.6923C276.704 83.6923 276.555 83.6104 276.475 83.4656C276.359 83.2542 276.436 82.9885 276.648 82.8723C277.663 82.3144 278.715 81.777 279.773 81.2753C279.991 81.1719 280.252 81.2649 280.355 81.4828C280.458 81.7009 280.365 81.9614 280.148 82.0648C279.105 82.5594 278.069 83.0887 277.069 83.6381C277.002 83.6748 276.93 83.6923 276.859 83.6923ZM283.149 80.7059C282.976 80.7059 282.813 80.6027 282.744 80.4332C282.653 80.2095 282.761 79.9549 282.985 79.864C284.053 79.4302 285.158 79.0166 286.268 78.6347C286.496 78.5561 286.745 78.6775 286.824 78.9059C286.902 79.134 286.781 79.3828 286.552 79.4611C285.457 79.8381 284.367 80.2462 283.313 80.6738C283.259 80.6954 283.204 80.7059 283.149 80.7059ZM289.732 78.4381C289.542 78.4381 289.367 78.3134 289.312 78.1217C289.245 77.8899 289.379 77.6478 289.611 77.5811C290.715 77.2636 291.856 76.9656 293 76.6955C293.236 76.6402 293.471 76.7855 293.526 77.0203C293.582 77.2551 293.436 77.4905 293.201 77.5461C292.07 77.8132 290.944 78.1075 289.853 78.4212C289.812 78.4325 289.772 78.4381 289.732 78.4381ZM345.444 77.2001L345.09 77.1989C344.848 77.1971 344.654 76.9999 344.656 76.7587C344.658 76.5175 344.846 76.3203 345.096 76.325L345.444 76.3261C346.524 76.3261 347.566 76.288 348.54 76.2125C348.779 76.1948 348.99 76.3736 349.009 76.6145C349.027 76.8551 348.847 77.0655 348.607 77.0841C347.611 77.161 346.547 77.2001 345.444 77.2001ZM341.612 77.0658C341.603 77.0658 341.593 77.0655 341.584 77.0649C340.544 76.9973 339.403 76.9015 338.098 76.7727C337.858 76.7491 337.682 76.535 337.706 76.295C337.73 76.0549 337.943 75.8784 338.184 75.9032C339.48 76.0314 340.61 76.126 341.64 76.193C341.881 76.2088 342.064 76.4167 342.048 76.6574C342.033 76.8884 341.841 77.0658 341.612 77.0658ZM296.507 76.8345C296.301 76.8345 296.118 76.6885 296.078 76.4788C296.033 76.2417 296.189 76.013 296.426 75.9681C297.552 75.7549 298.713 75.56 299.878 75.389C300.117 75.3544 300.339 75.5192 300.374 75.7578C300.409 75.9967 300.244 76.2187 300.005 76.2536C298.852 76.4229 297.703 76.6157 296.589 76.8266C296.561 76.8318 296.534 76.8345 296.507 76.8345ZM352.024 76.6282C351.819 76.6282 351.636 76.4832 351.596 76.274C351.55 76.0372 351.705 75.8079 351.942 75.7622C353.092 75.5396 354.204 75.2443 355.245 74.8842C355.474 74.8053 355.722 74.9264 355.801 75.1542C355.88 75.3823 355.759 75.6311 355.531 75.7101C354.45 76.0835 353.299 76.3897 352.108 76.6201C352.08 76.6253 352.052 76.6282 352.024 76.6282ZM334.677 76.4071C334.661 76.4071 334.645 76.4063 334.629 76.4045L333.592 76.2915C332.787 76.2044 331.98 76.1214 331.17 76.0424C330.93 76.0191 330.754 75.8053 330.778 75.5653C330.801 75.3252 331.014 75.1487 331.255 75.1726C332.067 75.2515 332.878 75.3351 333.686 75.4225L334.725 75.5358C334.965 75.5621 335.138 75.7779 335.111 76.0177C335.087 76.2414 334.897 76.4071 334.677 76.4071ZM303.395 75.8187C303.175 75.8187 302.986 75.6527 302.962 75.4287C302.936 75.1886 303.109 74.9731 303.349 74.9471C304.485 74.8242 305.657 74.7185 306.833 74.6325C307.074 74.615 307.283 74.7959 307.3 75.0366C307.318 75.2772 307.137 75.4866 306.896 75.5041C305.731 75.5892 304.569 75.694 303.443 75.8158C303.427 75.8178 303.411 75.8187 303.395 75.8187ZM327.743 75.7366C327.732 75.7366 327.72 75.736 327.708 75.7351C326.538 75.6416 325.372 75.5594 324.242 75.491C324.001 75.4764 323.817 75.2693 323.832 75.0284C323.847 74.7875 324.054 74.6057 324.295 74.6185C325.431 74.6873 326.603 74.7697 327.778 74.8638C328.019 74.883 328.198 75.0937 328.178 75.3343C328.16 75.5632 327.969 75.7366 327.743 75.7366ZM320.789 75.3185C320.783 75.3185 320.778 75.3185 320.772 75.3183C319.6 75.2728 318.432 75.2413 317.3 75.2244C317.059 75.2209 316.866 75.0223 316.87 74.7811C316.873 74.5399 317.07 74.3395 317.313 74.3505C318.452 74.3674 319.627 74.3992 320.805 74.4449C321.047 74.4542 321.234 74.6573 321.225 74.8985C321.216 75.1339 321.023 75.3185 320.789 75.3185ZM310.341 75.3089C310.108 75.3089 309.914 75.1248 309.905 74.8897C309.895 74.6485 310.083 74.4452 310.324 74.4353C311.465 74.3887 312.641 74.3581 313.819 74.3444C314.056 74.3479 314.258 74.5349 314.26 74.7761C314.263 75.0173 314.07 75.2154 313.829 75.2183C312.659 75.232 311.492 75.2623 310.36 75.3086C310.353 75.3086 310.347 75.3089 310.341 75.3089ZM358.576 74.3392C358.42 74.3392 358.27 74.2559 358.191 74.1093C358.076 73.897 358.156 73.6319 358.369 73.5174C359.351 72.9884 360.316 72.3665 361.236 71.6691C361.429 71.5232 361.703 71.5613 361.848 71.7536C361.994 71.9459 361.957 72.22 361.764 72.3656C360.808 73.0901 359.805 73.7365 358.783 74.2867C358.717 74.3223 358.646 74.3392 358.576 74.3392ZM364.121 70.1651C364.009 70.1651 363.897 70.1223 363.812 70.037C363.641 69.8663 363.642 69.5895 363.812 69.4191C364.597 68.6364 365.364 67.7738 366.091 66.8554C366.241 66.6663 366.516 66.6346 366.705 66.7843C366.894 66.9343 366.926 67.209 366.776 67.3981C366.027 68.3428 365.238 69.2309 364.429 70.0375C364.345 70.1226 364.233 70.1651 364.121 70.1651ZM368.455 64.7289C368.374 64.7289 368.292 64.7064 368.219 64.6593C368.016 64.5288 367.957 64.2584 368.088 64.0554C368.69 63.1186 369.275 62.1177 369.826 61.0798C369.939 60.8665 370.204 60.7855 370.417 60.8986C370.63 61.0116 370.711 61.2764 370.598 61.4893C370.036 62.5485 369.438 63.571 368.823 64.5279C368.739 64.6578 368.599 64.7289 368.455 64.7289Z" fill="#737373"/>
<path d="M390.765 25.1939L388.939 66.6364L375.254 52.2706C375.254 52.2706 390.822 24.0319 390.931 24.4989L390.333 24.0005C390.794 23.8688 373.683 51.1995 373.683 51.1995L354.477 46.2232L389.807 24.4834L390.765 25.1939Z" fill="url(#paint2_linear_2948_15076)"/>
<path d="M377.837 250.384L366.555 268.456L302.534 228.125L313.817 210.053L377.837 250.384Z" fill="#F7F7F7"/>
<path d="M399.89 276.565L399.76 276.774C396.201 282.474 389.85 284.932 385.574 282.263L336.432 252.099L349.346 230.38L398.592 261.41C402.868 264.079 403.449 270.864 399.89 276.565Z" fill="#3A1A53"/>
<path opacity="0.2" d="M307.013 230.819L310.112 233.076L338.165 225.794L314.792 210.88L307.013 230.819Z" fill="#BBBCBF"/>
<path d="M293.978 133.618C263.936 114.863 224.377 124.012 205.621 154.055C186.865 184.098 196.015 223.657 226.058 242.413C256.101 261.168 295.66 252.019 314.415 221.976C333.171 191.933 324.021 152.374 293.978 133.618ZM306.814 217.23C290.679 243.075 256.648 250.946 230.803 234.811C204.959 218.676 197.087 184.645 213.222 158.801C229.357 132.956 263.388 125.085 289.233 141.22C315.077 157.354 322.949 191.386 306.814 217.23Z" fill="#E93353"/>
<path opacity="0.5" d="M299.024 227.025C320.567 205.482 320.567 170.552 299.024 149.008C277.48 127.465 242.551 127.465 221.007 149.008C199.463 170.552 199.463 205.482 221.007 227.025C242.55 248.569 277.48 248.569 299.024 227.025Z" fill="#D1E7F5"/>
<g opacity="0.22">
<path d="M220.264 185.793C219.992 168.203 231.423 152.286 248.393 147.404C265.32 142.534 283.769 150.003 292.674 165.196C295.185 169.478 302.012 165.9 299.498 161.611C289.246 144.121 268.921 135.066 249.103 139.284C229.572 143.441 215.161 160.227 212.813 179.847C212.586 181.744 212.53 183.659 212.559 185.568C212.636 190.518 220.341 190.778 220.264 185.793Z" fill="white"/>
</g>
<path opacity="0.31" d="M304.191 172.733C306.569 174.218 307.293 177.349 305.809 179.727C304.324 182.105 301.193 182.829 298.815 181.345C296.437 179.86 295.713 176.729 297.197 174.351C298.682 171.973 301.813 171.249 304.191 172.733Z" fill="white"/>
<path d="M337.086 251.38L349.373 230.716C349.795 230.006 349.611 229.092 348.948 228.6L348.732 228.441C347.962 227.87 346.866 228.096 346.384 228.925L334.284 249.733C333.831 250.512 334.106 251.511 334.894 251.948L334.922 251.964C335.683 252.386 336.641 252.128 337.086 251.38Z" fill="#E93353"/>
<path d="M313.835 188.41C313.788 201.669 308.972 214.522 300.215 224.492C291.571 234.334 279.538 240.688 266.595 242.523C253.361 244.399 239.701 241.042 228.643 233.627C217.873 226.405 210.015 215.264 206.569 202.795C202.996 189.866 204.475 175.766 210.498 163.803C216.3 152.279 226.277 143.005 238.174 138.022C250.595 132.819 264.692 132.507 277.391 136.904C289.619 141.139 300.005 149.942 306.512 161.08C311.346 169.352 313.801 178.847 313.835 188.41C313.842 190.302 316.777 190.303 316.77 188.41C316.722 175.126 312.126 162.334 303.783 152.012C295.638 141.933 283.967 134.886 271.323 132.157C258.21 129.327 244.343 131.298 232.467 137.485C221.052 143.433 211.845 153.387 206.634 165.133C201.186 177.41 200.287 191.429 203.953 204.337C207.495 216.809 215.415 227.719 225.896 235.281C236.671 243.055 250.134 246.697 263.355 245.788C276.463 244.885 288.927 239.341 298.54 230.422C310.153 219.649 316.714 204.206 316.771 188.41C316.777 186.517 313.843 186.517 313.835 188.41Z" fill="#F7F7F7"/>
<path d="M62 83.2067V133.039C62 134.693 63.34 136.034 64.9893 136.034H160.379C161.815 136.034 162.977 134.787 162.977 133.248V86.8881L62 83.2067Z" fill="url(#paint3_linear_2948_15076)"/>
<path d="M160.38 80.8968L64.9896 77.0025C63.3401 76.9352 62.0002 78.2216 62.0002 79.8761V84.9822L162.977 88.54V83.7896C162.977 82.2505 161.816 80.9554 160.38 80.8968Z" fill="url(#paint4_linear_2948_15076)"/>
<path d="M68.8504 81.1366C68.8504 81.8687 68.2595 82.4402 67.53 82.4131C66.7997 82.386 66.2072 81.7694 66.2072 81.0361C66.2072 80.3027 66.7997 79.7312 67.53 79.7597C68.2594 79.7882 68.8504 80.4046 68.8504 81.1366Z" fill="white"/>
<path d="M82.5146 129.579L75.0331 129.545V92.4805L82.5146 92.7074V129.579Z" fill="white"/>
<path d="M82.5145 129.579L75.033 129.545V111.948L82.5145 112.073V129.579Z" fill="url(#paint5_linear_2948_15076)"/>
<path d="M92.7948 129.626L85.4209 129.592V92.7955L92.7948 93.0192V129.626Z" fill="white"/>
<path d="M92.7948 129.626L85.4209 129.592V120.857L92.7948 120.936V129.626Z" fill="url(#paint6_linear_2948_15076)"/>
<path d="M102.928 129.671L95.6597 129.639V93.1062L102.928 93.3266V129.671Z" fill="white"/>
<path d="M102.928 129.671L95.6597 129.639V125.086L102.928 125.142V129.671Z" fill="url(#paint7_linear_2948_15076)"/>
<path d="M112.918 129.716L105.752 129.684V93.4121L112.918 93.6295V129.716Z" fill="white"/>
<path d="M112.918 129.716L105.752 129.684V101.269L112.918 101.447V129.716Z" fill="url(#paint8_linear_2948_15076)"/>
<path d="M122.767 129.761L115.702 129.729V93.7141L122.767 93.9284V129.761Z" fill="white"/>
<path d="M122.767 129.761L115.702 129.729V104.722L122.767 104.88V129.761Z" fill="url(#paint9_linear_2948_15076)"/>
<path d="M132.478 129.805L125.512 129.773V94.0116L132.478 94.2228V129.805Z" fill="white"/>
<path d="M132.478 129.805L125.512 129.773V99.2113L132.478 99.3965V129.805Z" fill="url(#paint10_linear_2948_15076)"/>
<path d="M142.054 129.848L135.184 129.817V94.3049L142.054 94.5132V129.848Z" fill="white"/>
<path d="M142.054 129.848L135.184 129.817V108.004L142.054 108.144V129.848Z" fill="url(#paint11_linear_2948_15076)"/>
<path d="M151.498 129.891L144.723 129.86V94.5942L151.498 94.7997V129.891Z" fill="white"/>
<path d="M151.498 129.891L144.723 129.86V117.617L151.498 117.708V129.891Z" fill="url(#paint12_linear_2948_15076)"/>
<defs>
<linearGradient id="paint0_linear_2948_15076" x1="184.91" y1="111.134" x2="194.518" y2="197.991" gradientUnits="userSpaceOnUse">
<stop stop-color="#FFC444"/>
<stop offset="0.9964" stop-color="#F36F56"/>
</linearGradient>
<linearGradient id="paint1_linear_2948_15076" x1="162.362" y1="149.08" x2="213.874" y2="215.31" gradientUnits="userSpaceOnUse">
<stop stop-color="#AA80F9"/>
<stop offset="0.9964" stop-color="#6165D7"/>
</linearGradient>
<linearGradient id="paint2_linear_2948_15076" x1="375.486" y1="2.5564" x2="321.639" y2="11.1576" gradientUnits="userSpaceOnUse">
<stop stop-color="#FF9085"/>
<stop offset="1" stop-color="#FB6FBB"/>
</linearGradient>
<linearGradient id="paint3_linear_2948_15076" x1="120.102" y1="75.502" x2="99.7255" y2="163.545" gradientUnits="userSpaceOnUse">
<stop stop-color="#D8DEE8"/>
<stop offset="1" stop-color="white"/>
</linearGradient>
<linearGradient id="paint4_linear_2948_15076" x1="120.195" y1="71.1961" x2="78.5448" y2="139.285" gradientUnits="userSpaceOnUse">
<stop stop-color="#FF9085"/>
<stop offset="1" stop-color="#FB6FBB"/>
</linearGradient>
<linearGradient id="paint5_linear_2948_15076" x1="82.7669" y1="108.302" x2="73.2751" y2="137.923" gradientUnits="userSpaceOnUse">
<stop stop-color="#FF9085"/>
<stop offset="1" stop-color="#FB6FBB"/>
</linearGradient>
<linearGradient id="paint6_linear_2948_15076" x1="91.3233" y1="118.328" x2="86.0592" y2="134.755" gradientUnits="userSpaceOnUse">
<stop stop-color="#FF9085"/>
<stop offset="1" stop-color="#FB6FBB"/>
</linearGradient>
<linearGradient id="paint7_linear_2948_15076" x1="100.667" y1="123.094" x2="97.4062" y2="133.27" gradientUnits="userSpaceOnUse">
<stop stop-color="#FF9085"/>
<stop offset="1" stop-color="#FB6FBB"/>
</linearGradient>
<linearGradient id="paint8_linear_2948_15076" x1="115.471" y1="96.3451" x2="100.885" y2="141.864" gradientUnits="userSpaceOnUse">
<stop stop-color="#FF9085"/>
<stop offset="1" stop-color="#FB6FBB"/>
</linearGradient>
<linearGradient id="paint9_linear_2948_15076" x1="124.683" y1="100.238" x2="111.731" y2="140.657" gradientUnits="userSpaceOnUse">
<stop stop-color="#FF9085"/>
<stop offset="1" stop-color="#FB6FBB"/>
</linearGradient>
<linearGradient id="paint10_linear_2948_15076" x1="135.548" y1="94.0583" x2="119.97" y2="142.671" gradientUnits="userSpaceOnUse">
<stop stop-color="#FF9085"/>
<stop offset="1" stop-color="#FB6FBB"/>
</linearGradient>
<linearGradient id="paint11_linear_2948_15076" x1="143.417" y1="103.952" x2="132.012" y2="139.544" gradientUnits="userSpaceOnUse">
<stop stop-color="#FF9085"/>
<stop offset="1" stop-color="#FB6FBB"/>
</linearGradient>
<linearGradient id="paint12_linear_2948_15076" x1="150.99" y1="114.768" x2="144.147" y2="136.121" gradientUnits="userSpaceOnUse">
<stop stop-color="#FF9085"/>
<stop offset="1" stop-color="#FB6FBB"/>
</linearGradient>
</defs>
</svg>
