<svg width="456" height="320" viewBox="0 0 456 320" fill="none" xmlns="http://www.w3.org/2000/svg">
<path d="M228 310C310.843 310 378 242.843 378 160C378 77.1573 310.843 10 228 10C145.157 10 78 77.1573 78 160C78 242.843 145.157 310 228 310Z" fill="#F8E3E6"/>
<path d="M171 148.617L171 116.026L256.691 116.026C257.861 116.026 258.809 116.707 258.809 117.547L258.809 147.649C258.809 148.489 257.861 149.17 256.691 149.17L171.77 149.17C171.345 149.17 171 148.922 171 148.617Z" fill="#E01236"/>
<path d="M258.97 110.243L283.623 132.617C283.992 132.974 283.962 133.57 283.559 133.889L258.481 155.439C257.916 155.885 257.08 155.482 257.087 154.767L257.512 110.843C257.519 110.095 258.429 109.721 258.97 110.243Z" fill="#E01236"/>
<path d="M171 201.991L171 169.4L256.691 169.4C257.861 169.4 258.809 170.081 258.809 170.92L258.809 201.023C258.809 201.863 257.861 202.543 256.691 202.543L171.77 202.543C171.345 202.543 171 202.296 171 201.991Z" fill="#E01236"/>
<path d="M258.97 163.617L283.623 185.991C283.992 186.348 283.962 186.944 283.559 187.263L258.481 208.813C257.916 209.259 257.08 208.856 257.087 208.141L257.512 164.217C257.519 163.469 258.429 163.095 258.97 163.617Z" fill="#E01236"/>
<rect x="288" y="82" width="156.75" height="156.75" rx="78.375" fill="white"/>
<g clip-path="url(#clip0_2944_9830)">
<path d="M409.277 120.528C412.51 127.204 402.685 127.918 403.188 130.899C404.112 136.274 403.482 144.251 402.769 152.103C401.551 165.414 411.502 197.283 390.76 210.089C386.855 212.525 377.576 213.868 368.422 214.078H368.38H368.338C359.185 213.868 348.645 212.525 344.741 210.089C324.04 197.283 333.992 165.414 332.816 152.103C332.06 144.251 331.43 136.274 332.396 130.899C332.9 127.918 323.075 127.246 326.308 120.528C329.079 114.776 335.923 119.856 337.645 118.051C346.42 108.939 357.085 106.504 365.483 106.294C366.323 106.294 370.102 106.294 370.102 106.294C378.457 106.714 389.122 108.981 397.94 118.051C399.661 119.856 406.464 114.776 409.277 120.528ZM363.803 155.42C363.425 155.588 362.796 159.703 364.727 159.913C366.029 160.039 369.598 160.459 370.437 159.913C372.075 158.863 371.907 156.344 370.983 155.714C369.43 154.707 364.223 155.21 363.803 155.42ZM353.138 124.601C348.813 124.097 341.549 128.128 340.458 136.694C339.282 145.595 349.779 154.413 359.856 145.595C365.273 140.85 367.162 126.238 353.138 124.601ZM382.362 124.601C368.338 126.238 370.228 140.85 375.644 145.595C385.721 154.413 396.218 145.595 395.043 136.694C393.993 128.128 386.729 124.097 382.362 124.601Z" fill="#8CC5E7"/>
<path d="M367.792 146.729C370.437 146.351 376.777 149.374 376.357 152.943C375.854 157.1 360.024 157.646 359.184 152.691C358.68 149.668 361.074 147.736 367.792 146.729ZM403.524 180.194C402.222 180.152 401.382 178.43 401.382 177.38C401.382 175.491 401.634 173.265 403.02 172.3C405.875 170.326 408.143 180.236 403.524 180.194ZM332.018 180.194C327.399 180.236 329.666 170.326 332.521 172.3C333.907 173.265 334.159 175.491 334.159 177.38C334.159 178.43 333.319 180.152 332.018 180.194ZM394.748 210.635C395.588 211.853 395.63 212.693 394.286 213.322C389.164 215.674 384.587 212.525 386.309 211.643C389.962 209.795 392.229 206.898 394.748 210.635ZM340.793 211.055C343.313 207.318 345.58 210.215 349.233 212.063C350.954 212.945 346.378 216.094 341.255 213.742C339.911 213.112 339.953 212.273 340.793 211.055Z" fill="#B8937F"/>
<path d="M401.425 121.536C401.635 120.654 403.818 120.234 405.036 121.746C406.505 123.551 402.894 126.028 402.726 125.021C402.306 122.291 401.173 122.417 401.425 121.536ZM334.117 121.536C334.369 122.417 333.235 122.291 332.816 125.021C332.648 126.028 329.037 123.551 330.506 121.746C331.682 120.234 333.865 120.654 334.117 121.536ZM383.328 141.984C380.684 141.984 378.541 139.841 378.541 137.197C378.541 134.554 380.684 132.411 383.328 132.411C385.971 132.411 388.114 134.554 388.114 137.197C388.114 139.841 385.971 141.984 383.328 141.984ZM382.068 136.652C382.903 136.652 383.58 135.975 383.58 135.14C383.58 134.305 382.903 133.628 382.068 133.628C381.233 133.628 380.556 134.305 380.556 135.14C380.556 135.975 381.233 136.652 382.068 136.652ZM363.467 148.744C363.971 146.813 365.734 146.183 367.162 146.141C370.815 146.057 372.201 148.03 372.327 149.584C372.579 152.229 362.333 152.859 363.467 148.744ZM352.214 141.984C349.571 141.984 347.428 139.841 347.428 137.197C347.428 134.554 349.571 132.411 352.214 132.411C354.858 132.411 357.001 134.554 357.001 137.197C357.001 139.841 354.858 141.984 352.214 141.984ZM353.474 136.652C354.309 136.652 354.985 135.975 354.985 135.14C354.985 134.305 354.309 133.628 353.474 133.628C352.639 133.628 351.962 134.305 351.962 135.14C351.962 135.975 352.639 136.652 353.474 136.652Z" fill="black"/>
</g>
<rect x="11" y="82" width="156" height="156" rx="78" fill="white"/>
<path fill-rule="evenodd" clip-rule="evenodd" d="M83.3669 105.625C74.8425 105.625 67.9323 112.329 67.9323 120.598V130.964H94.646V133.844H56.0596C47.5353 133.844 40.625 140.548 40.625 148.817V171.277C40.625 179.546 47.5353 186.25 56.0596 186.25H64.9641V173.581C64.9641 165.311 71.8744 158.607 80.3988 158.607H108.893C116.106 158.607 121.953 152.935 121.953 145.938V120.598C121.953 112.329 115.043 105.625 106.519 105.625H83.3669ZM79.8052 124.054C82.7558 124.054 85.1478 121.733 85.1478 118.871C85.1478 116.008 82.7558 113.688 79.8052 113.688C76.8542 113.688 74.4623 116.008 74.4623 118.871C74.4623 121.733 76.8542 124.054 79.8052 124.054Z" fill="url(#paint0_linear_2944_9830)"/>
<path fill-rule="evenodd" clip-rule="evenodd" d="M106.633 214.375C115.158 214.375 122.068 207.671 122.068 199.402V189.036H95.354V186.156H133.941C142.465 186.156 149.375 179.452 149.375 171.183V148.723C149.375 140.454 142.465 133.75 133.941 133.75H125.036V146.42C125.036 154.689 118.126 161.393 109.602 161.393H81.1068C73.8938 161.393 68.0469 167.065 68.0469 174.062V199.402C68.0469 207.671 74.9573 214.375 83.4813 214.375H106.633ZM110.195 195.947C107.244 195.947 104.852 198.267 104.852 201.129C104.852 203.992 107.244 206.312 110.195 206.312C113.146 206.312 115.538 203.992 115.538 201.129C115.538 198.267 113.146 195.947 110.195 195.947Z" fill="url(#paint1_linear_2944_9830)"/>
<defs>
<linearGradient id="paint0_linear_2944_9830" x1="81.2893" y1="105.625" x2="81.2893" y2="186.25" gradientUnits="userSpaceOnUse">
<stop stop-color="#327EBD"/>
<stop offset="1" stop-color="#1565A7"/>
</linearGradient>
<linearGradient id="paint1_linear_2944_9830" x1="108.711" y1="133.75" x2="108.711" y2="214.375" gradientUnits="userSpaceOnUse">
<stop stop-color="#FFDA4B"/>
<stop offset="1" stop-color="#F9C600"/>
</linearGradient>
<clipPath id="clip0_2944_9830">
<rect width="108.75" height="108.75" fill="white" transform="translate(312 106)"/>
</clipPath>
</defs>
</svg>
