<svg width="456" height="320" viewBox="0 0 456 320" fill="none" xmlns="http://www.w3.org/2000/svg">
<g opacity="0.41">
<path d="M228.407 280.263C295.21 280.263 349.365 226.108 349.365 159.305C349.365 92.5018 295.21 38.3472 228.407 38.3472C161.604 38.3472 107.449 92.5018 107.449 159.305C107.449 226.108 161.604 280.263 228.407 280.263Z" fill="#FECAD2"/>
</g>
<path d="M315.466 70.0127C315.424 70.0127 315.383 70.0099 315.341 70.0071C314.355 69.9371 313.614 69.0831 313.681 68.0947C313.712 67.6411 316.578 22.6689 294.34 20.3561C286.996 19.5916 281.317 21.1541 276.979 25.1274C269.847 31.66 266.517 44.7056 266.794 65.009C266.808 65.9974 266.017 66.8122 265.031 66.8234C264.056 66.8094 263.232 66.045 263.218 65.0566C262.922 43.3755 266.528 29.8455 274.565 22.4813C279.63 17.8416 286.404 15.9264 294.706 16.7888C305.488 17.9088 312.796 27.3255 315.838 44.0168C318.059 56.1943 317.279 67.8511 317.246 68.3411C317.182 69.2903 316.397 70.0127 315.466 70.0127Z" fill="#2B3868"/>
<path d="M344.578 60.0104L258.921 57.5295L253.613 188.372L344.74 190.525C348.888 190.441 352.19 187.019 352.14 182.864L350.687 66.235C350.643 62.8525 347.947 60.1056 344.578 60.0104Z" fill="#5C70BA"/>
<path d="M225.695 167.639L243.304 55.9015C243.754 52.7682 246.645 50.1362 249.69 50.9762L262.42 55.8063C264.814 56.4671 266.42 58.7212 266.263 61.2077L258.579 183.3C258.327 187.312 253.858 189.566 250.492 187.382L228.035 172.799C226.318 171.682 225.404 169.669 225.695 167.639Z" fill="#5C70BA"/>
<path d="M313.666 59.0941L347.757 61.2642L339.692 56.2968L341.128 54.0372C341.424 53.3259 340.916 52.5391 340.148 52.5167L247.781 50.8395C247.183 50.8311 247.026 51.6655 247.588 51.8755L255.44 54.7568L255.423 56.6076C255.418 57.3441 256.002 57.9489 256.736 57.9629L313.666 59.0941Z" fill="#2B3868"/>
<path d="M255.023 54.6896L243.228 165.601L244.117 165.696L255.912 54.7845L255.023 54.6896Z" fill="#2B3868"/>
<path d="M327.339 74.6874C327.297 74.6874 327.256 74.6846 327.214 74.6818C326.228 74.6146 325.487 73.7578 325.554 72.7694C325.585 72.3158 328.451 27.3437 306.213 25.0308C298.866 24.2664 293.19 25.8288 288.852 29.805C281.72 36.3375 278.39 49.3859 278.67 69.6865C278.684 70.6749 277.893 71.4898 276.907 71.5038C276.899 71.5038 276.89 71.5038 276.882 71.5038C275.907 71.5038 275.108 70.717 275.094 69.7369C274.798 48.0559 278.404 34.5259 286.441 27.1617C291.505 22.5219 298.282 20.6067 306.581 21.4691C317.364 22.5891 324.669 32.0058 327.714 48.6971C329.934 60.8746 329.155 72.5314 329.122 73.0214C329.054 73.9651 328.27 74.6874 327.339 74.6874Z" fill="#2B3868"/>
<path d="M225.68 167.89L243.555 162.903L250.494 187.384L228.038 172.802C226.39 171.732 225.496 169.836 225.68 167.89Z" fill="#2B3868"/>
<path d="M255.421 56.6082L250.496 187.383C250.496 187.383 241.864 165.806 241.809 163.051L255.421 56.6082Z" fill="#2B3868"/>
<path d="M217.101 101.437C216.277 101.437 215.537 100.863 215.356 100.02C215.266 99.6031 213.174 89.6908 213.596 78.9637C214.174 64.182 219.347 55.149 228.557 52.8445C235.627 51.0721 241.728 51.8953 246.689 55.2918C254.528 60.6568 259.293 71.8515 261.687 90.5252C261.813 91.5081 261.12 92.4041 260.142 92.5301C259.154 92.6561 258.268 91.9617 258.142 90.9816C255.919 73.6379 251.514 62.9332 244.672 58.2515C240.535 55.4206 235.546 54.7878 229.423 56.3222C210.892 60.9648 218.769 98.8891 218.85 99.2727C219.057 100.239 218.442 101.194 217.476 101.401C217.353 101.426 217.224 101.437 217.101 101.437Z" fill="#F37A7E"/>
<path d="M191.171 96.1733L264.202 83.5757L284.669 194.946L206.914 207.93C203.353 208.367 200.11 205.841 199.646 202.274L186.698 102.247C186.327 99.3485 188.299 96.6689 191.171 96.1733Z" fill="#FBA2B0"/>
<path d="M306.053 173.781L277.381 80.2725C276.615 77.6432 273.819 75.7448 271.314 76.8368L261.003 82.5294C259.034 83.389 257.933 85.5143 258.369 87.6227L279.803 191.209C280.507 194.614 284.607 195.997 287.222 193.715L304.673 178.485C306.013 177.321 306.55 175.484 306.053 173.781Z" fill="#FBA2B0"/>
<path d="M217.537 91.6073L188.617 97.6331L194.916 92.3942L193.413 90.6357C193.072 90.0617 193.413 89.3253 194.07 89.2133L272.945 76.4841C273.456 76.4057 273.691 77.1001 273.235 77.3465L266.863 80.771L267.104 82.3531C267.199 82.9831 266.771 83.5711 266.146 83.6747L217.537 91.6073Z" fill="#F37A7E"/>
<path d="M267.033 80.6277L266.167 80.8497L290.011 174.33L290.877 174.108L267.033 80.6277Z" fill="#F37A7E"/>
<path d="M207.507 106.89C206.683 106.89 205.943 106.316 205.761 105.473C205.672 105.056 203.58 95.1433 204.001 84.4162C204.58 69.6346 209.753 60.6043 218.963 58.297C226.033 56.5246 232.134 57.3478 237.095 60.7415C244.933 66.1065 249.699 77.3012 252.093 95.9722C252.219 96.955 251.526 97.851 250.548 97.977C249.573 98.1058 248.674 97.4114 248.548 96.4286C246.324 79.0848 241.919 68.3801 235.081 63.6984C230.944 60.8675 225.955 60.2375 219.832 61.7691C201.3 66.4117 209.178 104.336 209.259 104.717C209.465 105.686 208.851 106.638 207.887 106.845C207.756 106.876 207.63 106.89 207.507 106.89Z" fill="#F37A7E"/>
<path d="M306.099 173.998L290.188 171.915L287.227 193.722L304.677 178.492C305.956 177.372 306.493 175.639 306.099 173.998Z" fill="#F37A7E"/>
<path d="M290.186 171.91L267.096 82.3582L287.225 193.717C287.225 193.717 290.759 176.648 290.471 174.279" fill="#F37A7E"/>
<path d="M219.458 290.5C219.458 297.848 213.516 303.804 206.186 303.804C198.856 303.804 192.915 297.848 192.915 290.5C192.915 283.153 198.856 277.197 206.186 277.197C213.516 277.197 219.458 283.153 219.458 290.5Z" fill="#F77B90"/>
<path d="M207.024 222.283C200.219 222.283 193.897 218.256 191.096 211.875C157.237 134.775 135.009 84.8324 133.012 81.3435C131.895 79.7754 125.143 76.2025 118.469 73.6516L121.285 66.2398C124.805 67.5838 136.529 72.33 139.621 76.9809C140.311 78.0169 144.01 86.042 149.563 98.396L354.332 108.795C358.53 109.053 362.447 111.038 365.112 114.247C367.777 117.456 369.025 121.67 368.528 125.817L361.12 187.688C360.293 194.598 354.919 200.148 348.055 201.184L209.605 222.09C208.742 222.218 207.878 222.283 207.024 222.283ZM153.206 106.525C165.055 133.03 182.699 173.071 198.336 208.68C200.054 212.595 204.199 214.885 208.426 214.247L346.876 193.344C350.234 192.837 352.86 190.121 353.265 186.744L360.67 124.874C360.91 122.857 360.329 120.889 359.033 119.329C357.737 117.77 355.907 116.843 353.885 116.717L153.206 106.525Z" fill="#333333"/>
<path d="M174.301 101.928L168.17 104.358L212.048 215.63L218.179 213.201L174.301 101.928Z" fill="#333333"/>
<path d="M204.627 103.423L198.358 105.466L233.023 212.338L239.292 210.295L204.627 103.423Z" fill="#333333"/>
<path d="M230.153 104.837L223.822 106.681L253.663 209.599L259.993 207.755L230.153 104.837Z" fill="#333333"/>
<path d="M259.938 108.106L253.518 109.605L275.894 205.92L282.315 204.421L259.938 108.106Z" fill="#333333"/>
<path d="M289.81 110.578L283.296 111.597L297.334 201.754L303.847 200.735L289.81 110.578Z" fill="#333333"/>
<path d="M316.67 111.616L310.099 112.151L317.123 198.793L323.694 198.258L316.67 111.616Z" fill="#333333"/>
<path d="M343.872 114.583H337.28V196.827H343.872V114.583Z" fill="#333333"/>
<path d="M353.304 271.054H189.063C184.481 271.054 180.406 268.483 178.42 264.345C176.436 260.206 176.981 255.41 179.841 251.826L201.608 224.55C203.432 222.265 206.024 220.745 208.904 220.266L253.884 212.82C256.219 212.428 258.426 214.019 258.811 216.36C259.197 218.701 257.616 220.913 255.281 221.299L210.301 228.745C209.51 228.876 208.801 229.293 208.301 229.918L186.532 257.193C185.384 258.63 185.878 260.072 186.143 260.624C186.409 261.175 187.224 262.46 189.06 262.46H353.302C355.668 262.46 357.587 264.384 357.587 266.756C357.59 269.13 355.67 271.054 353.304 271.054Z" fill="#333333"/>
<path d="M195.55 264.889C195.55 264.889 201.033 271.265 201.254 276.103C201.472 280.942 199.717 287.757 199.717 287.757C199.717 287.757 198.84 294.794 203.885 295.673C208.93 296.552 211.782 292.375 212.88 289.955C213.978 287.536 222.313 265.107 222.313 265.107L195.55 264.889Z" fill="#333333"/>
<path d="M332.702 290.501C332.702 297.848 326.76 303.804 319.43 303.804C312.101 303.804 306.159 297.848 306.159 290.501C306.159 283.153 312.101 277.198 319.43 277.198C326.76 277.198 332.702 283.153 332.702 290.501Z" fill="#F77B90"/>
<path d="M308.795 264.889C308.795 264.889 314.278 271.265 314.499 276.103C314.72 280.942 312.963 287.757 312.963 287.757C312.963 287.757 312.086 294.794 317.131 295.673C322.175 296.552 325.028 292.374 326.125 289.955C327.223 287.536 335.559 265.107 335.559 265.107L308.795 264.889Z" fill="#333333"/>
<path d="M361.416 141.193H163.971V147.801H361.416V141.193Z" fill="#333333"/>
<path d="M361.097 170.523L184.519 185.801L185.086 192.385L361.664 177.106L361.097 170.523Z" fill="#333333"/>
<path d="M123.934 80.3823H89.9132C87.5918 80.3823 85.6895 78.4782 85.6895 76.1486V68.5015C85.6895 66.1747 87.589 64.2678 89.9132 64.2678H123.934C126.256 64.2678 128.158 66.1719 128.158 68.5015V76.1486C128.158 78.4782 126.258 80.3823 123.934 80.3823Z" fill="#333333"/>
</svg>
