<svg width="64" height="64" viewBox="0 0 64 64" fill="none" xmlns="http://www.w3.org/2000/svg">
<rect x="46" y="30.6592" width="6.13636" height="24.5455" rx="0.306818" fill="#E3E3E3" stroke="#1A1A1A" stroke-width="1.84091"/>
<rect x="35" y="24.5227" width="6.13636" height="30.6818" rx="0.306818" fill="#E3E3E3" stroke="#1A1A1A" stroke-width="1.84091"/>
<rect x="24" y="17.1592" width="6.13636" height="38.0455" rx="0.306818" fill="#E3E3E3" stroke="#1A1A1A" stroke-width="1.84091"/>
<rect x="13" y="9.79541" width="6.13636" height="45.4091" rx="0.306818" fill="#E3E3E3" stroke="#1A1A1A" stroke-width="1.84091"/>
<path d="M26.6628 46.4594L6.9196 27.8444C6.41615 27.3697 6.40444 26.5729 6.89371 26.0836L10.0413 22.936C10.5206 22.4568 11.2976 22.4568 11.7769 22.936L26.662 37.8211C27.1203 38.2794 27.8559 38.3024 28.3418 37.8736L37.0761 30.1669C37.5489 29.7496 38.2611 29.7587 38.7232 30.1878L54.9253 45.2326C55.0189 45.3195 55.1635 45.3201 55.2578 45.234L58.323 42.4344C58.3968 42.3669 58.5161 42.4115 58.5276 42.5109L59.9818 55.048C59.9911 55.1275 59.923 55.1944 59.8438 55.1838L47.2463 53.51C47.1455 53.4967 47.1038 53.3735 47.1757 53.3016L50.0083 50.4691C50.1041 50.3732 50.1041 50.2178 50.0083 50.1219L38.7244 38.838C38.2661 38.3798 37.5305 38.3568 37.0446 38.7856L28.3167 46.4867C27.8411 46.9063 27.1242 46.8944 26.6628 46.4594Z" fill="white" stroke="#1A1A1A" stroke-width="1.84091"/>
</svg>
