<svg width="64" height="64" viewBox="0 0 64 64" fill="none" xmlns="http://www.w3.org/2000/svg">
<path d="M56.9039 36.0458C56.8091 35.6734 56.6369 35.325 56.3986 35.0235C56.1602 34.722 55.8611 34.4741 55.5206 34.2958C55.5315 33.9113 55.4647 33.5285 55.324 33.1705C55.1833 32.8125 54.9716 32.4866 54.7018 32.2125C54.4302 31.9393 54.1047 31.7256 53.746 31.585C53.3874 31.4444 53.0034 31.38 52.6185 31.3958C52.4368 31.0576 52.1874 30.7604 51.8859 30.5227C51.5843 30.285 51.2371 30.112 50.8658 30.0142C50.4945 29.9165 50.1071 29.8963 49.7276 29.9548C49.3482 30.0132 48.9848 30.1492 48.6602 30.3541C48.3355 30.1492 47.9721 30.0132 47.5927 29.9548C47.2132 29.8963 46.8258 29.9165 46.4545 30.0142C46.0832 30.112 45.736 30.285 45.4344 30.5227C45.1329 30.7604 44.8835 31.0576 44.7018 31.3958C44.317 31.3805 43.9331 31.4452 43.5745 31.5857C43.216 31.7263 42.8904 31.9397 42.6185 32.2125C42.3493 32.487 42.1383 32.813 41.998 33.171C41.8577 33.5289 41.7909 33.9115 41.8018 34.2958C41.4636 34.4775 41.1664 34.7269 40.9287 35.0284C40.691 35.33 40.518 35.6772 40.4202 36.0485C40.3225 36.4198 40.3023 36.8072 40.3608 37.1867C40.4192 37.5661 40.5552 37.9295 40.7602 38.2541C40.5552 38.5788 40.4192 38.9422 40.3608 39.3216C40.3023 39.7011 40.3225 40.0885 40.4202 40.4598C40.518 40.8311 40.691 41.1783 40.9287 41.4799C41.1664 41.7814 41.4636 42.0308 41.8018 42.2125C41.7906 42.5968 41.8571 42.9795 41.9975 43.3375C42.1378 43.6955 42.349 44.0215 42.6185 44.2958C42.8873 44.5729 43.2123 44.7893 43.5716 44.9305C43.9309 45.0717 44.3163 45.1345 44.7018 45.1146C44.8525 45.4121 45.0657 45.6737 45.3268 45.8812V56.5458C45.3225 56.6626 45.3644 56.7764 45.4435 56.8625C45.4799 56.9087 45.527 56.9454 45.5807 56.9693C45.6344 56.9933 45.6931 57.0038 45.7518 57C45.8045 57.0006 45.8567 56.9906 45.9054 56.9705C45.9541 56.9505 45.9982 56.9208 46.0352 56.8833L46.0518 56.8666L48.6685 54.5L51.3018 56.8854C51.339 56.9224 51.3833 56.9516 51.4319 56.9713C51.4806 56.991 51.5327 57.0007 51.5852 57C51.6435 57.001 51.7013 56.9879 51.7535 56.9618C51.8058 56.9356 51.8509 56.8973 51.8852 56.85C51.9642 56.7639 52.0062 56.6501 52.0018 56.5333V45.8687C52.2629 45.6611 52.4761 45.3996 52.6268 45.1021C53.0124 45.122 53.3977 45.0592 53.757 44.918C54.1163 44.7768 54.4413 44.5604 54.7102 44.2833C54.9803 44.0094 55.1921 43.6835 55.3328 43.3255C55.4735 42.9674 55.5402 42.5845 55.5289 42.2C55.8671 42.0183 56.1643 41.7689 56.402 41.4674C56.6397 41.1658 56.8128 40.8186 56.9105 40.4473C57.0082 40.076 57.0284 39.6886 56.97 39.3091C56.9115 38.9297 56.7755 38.5663 56.5706 38.2416C56.7766 37.9193 56.9127 37.5573 56.9701 37.1791C57.0275 36.8009 57.005 36.4148 56.9039 36.0458ZM48.6685 41.5833C48.0092 41.5833 47.3648 41.3878 46.8166 41.0215C46.2684 40.6553 45.8412 40.1347 45.5889 39.5256C45.3366 38.9165 45.2706 38.2463 45.3992 37.5997C45.5278 36.9531 45.8453 36.3591 46.3115 35.893C46.7776 35.4268 47.3716 35.1093 48.0182 34.9807C48.6648 34.8521 49.335 34.9181 49.9441 35.1704C50.5532 35.4227 51.0738 35.8499 51.4401 36.3981C51.8063 36.9462 52.0018 37.5907 52.0018 38.25C52.0018 39.134 51.6506 39.9819 51.0255 40.607C50.4004 41.2321 49.5525 41.5833 48.6685 41.5833Z" fill="#1A1A1A"/>
<path d="M39.4073 25.75H24.5885C24.3123 25.75 24.0473 25.8597 23.852 26.0551C23.6566 26.2504 23.5469 26.5154 23.5469 26.7917C23.5469 27.0679 23.6566 27.3329 23.852 27.5282C24.0473 27.7236 24.3123 27.8333 24.5885 27.8333H39.4094C39.6856 27.8333 39.9506 27.7236 40.1459 27.5282C40.3413 27.3329 40.451 27.0679 40.451 26.7917C40.451 26.5154 40.3413 26.2504 40.1459 26.0551C39.9506 25.8597 39.6856 25.75 39.4094 25.75H39.4073Z" fill="#1A1A1A"/>
<path d="M35.2427 38.25H24.5885C24.3123 38.25 24.0473 38.3597 23.852 38.5551C23.6566 38.7504 23.5469 39.0154 23.5469 39.2917C23.5469 39.5679 23.6566 39.8329 23.852 40.0282C24.0473 40.2236 24.3123 40.3333 24.5885 40.3333H35.2427C35.519 40.3333 35.7839 40.2236 35.9793 40.0282C36.1746 39.8329 36.2844 39.5679 36.2844 39.2917C36.2844 39.0154 36.1746 38.7504 35.9793 38.5551C35.7839 38.3597 35.519 38.25 35.2427 38.25Z" fill="#1A1A1A"/>
<path d="M35.2427 32H24.5885C24.3123 32 24.0473 32.1097 23.852 32.3051C23.6566 32.5004 23.5469 32.7654 23.5469 33.0417C23.5469 33.3179 23.6566 33.5829 23.852 33.7782C24.0473 33.9736 24.3123 34.0833 24.5885 34.0833H35.2427C35.519 34.0833 35.7839 33.9736 35.9793 33.7782C36.1746 33.5829 36.2844 33.3179 36.2844 33.0417C36.2844 32.7654 36.1746 32.5004 35.9793 32.3051C35.7839 32.1097 35.519 32 35.2427 32Z" fill="#1A1A1A"/>
<path d="M39.4096 44.5H24.7721C24.4959 44.5 24.2309 44.6097 24.0356 44.8051C23.8402 45.0004 23.7305 45.2654 23.7305 45.5417C23.7305 45.8179 23.8402 46.0829 24.0356 46.2782C24.2309 46.4736 24.4959 46.5833 24.7721 46.5833H39.4096C39.6859 46.5833 39.9509 46.4736 40.1462 46.2782C40.3416 46.0829 40.4513 45.8179 40.4513 45.5417C40.4513 45.2654 40.3416 45.0004 40.1462 44.8051C39.9509 44.6097 39.6859 44.5 39.4096 44.5Z" fill="#1A1A1A"/>
<path d="M40.3333 15.3333C40.3333 13.1232 39.4554 11.0036 37.8926 9.44078C36.3298 7.87797 34.2101 7 32 7H15.3333C13.1232 7 11.0036 7.87797 9.44078 9.44078C7.87797 11.0036 7 13.1232 7 15.3333L7 40.3333C7 42.5435 7.87797 44.6631 9.44078 46.2259C11.0036 47.7887 13.1232 48.6667 15.3333 48.6667C15.3333 50.8768 16.2113 52.9964 17.7741 54.5592C19.3369 56.122 21.4565 57 23.6667 57H38.25C38.8025 57 39.3324 56.7805 39.7231 56.3898C40.1138 55.9991 40.3333 55.4692 40.3333 54.9167C40.3333 54.3641 40.1138 53.8342 39.7231 53.4435C39.3324 53.0528 38.8025 52.8333 38.25 52.8333C38.2073 52.83 38.1644 52.8372 38.125 52.8542V52.8333H23.6667C22.5626 52.83 21.5047 52.39 20.724 51.6093C19.9433 50.8286 19.5033 49.7707 19.5 48.6667V23.6667C19.5033 22.5626 19.9433 21.5047 20.724 20.724C21.5047 19.9433 22.5626 19.5033 23.6667 19.5H40.3333C41.4359 19.5082 42.4909 19.9498 43.2706 20.7294C44.0502 21.5091 44.4918 22.5641 44.5 23.6667C44.5 24.2192 44.7195 24.7491 45.1102 25.1398C45.5009 25.5305 46.0308 25.75 46.5833 25.75C47.1359 25.75 47.6658 25.5305 48.0565 25.1398C48.4472 24.7491 48.6667 24.2192 48.6667 23.6667C48.6667 21.4565 47.7887 19.3369 46.2259 17.7741C44.6631 16.2113 42.5435 15.3333 40.3333 15.3333ZM23.6667 15.3333C21.4565 15.3333 19.3369 16.2113 17.7741 17.7741C16.2113 19.3369 15.3333 21.4565 15.3333 23.6667V44.5C14.2293 44.4967 13.1714 44.0567 12.3907 43.276C11.61 42.4953 11.17 41.4374 11.1667 40.3333V15.3333C11.17 14.2293 11.61 13.1714 12.3907 12.3907C13.1714 11.61 14.2293 11.17 15.3333 11.1667H32C33.1041 11.17 34.1619 11.61 34.9426 12.3907C35.7233 13.1714 36.1634 14.2293 36.1667 15.3333H23.6667Z" fill="#1A1A1A"/>
</svg>
