<svg width="64" height="64" viewBox="0 0 64 64" fill="none" xmlns="http://www.w3.org/2000/svg">
<path d="M51.9294 25.0118C51.3803 25.0118 50.8536 24.7936 50.4653 24.4053C50.077 24.017 49.8588 23.4903 49.8588 22.9412V14.1412H41.0588C40.5097 14.1412 39.983 13.923 39.5947 13.5347C39.2064 13.1464 38.9882 12.6197 38.9882 12.0706C38.9882 11.5214 39.2064 10.9948 39.5947 10.6065C39.983 10.2182 40.5097 10 41.0588 10H51.9294C52.4786 10 53.0052 10.2182 53.3935 10.6065C53.7819 10.9948 54 11.5214 54 12.0706V22.9412C54 23.4903 53.7819 24.017 53.3935 24.4053C53.0052 24.7936 52.4786 25.0118 51.9294 25.0118ZM22.9412 54H12.0706C11.5214 54 10.9948 53.7819 10.6065 53.3935C10.2182 53.0052 10 52.4786 10 51.9294V41.0588C10 40.5097 10.2182 39.983 10.6065 39.5947C10.9948 39.2064 11.5214 38.9882 12.0706 38.9882C12.6197 38.9882 13.1464 39.2064 13.5347 39.5947C13.923 39.983 14.1412 40.5097 14.1412 41.0588V49.8588H22.9412C23.4903 49.8588 24.017 50.077 24.4053 50.4653C24.7936 50.8536 25.0118 51.3803 25.0118 51.9294C25.0118 52.4786 24.7936 53.0052 24.4053 53.3935C24.017 53.7819 23.4903 54 22.9412 54Z" fill="#4F4F4F"/>
<path d="M12.0706 53.9999C11.6612 53.9999 11.2609 53.8784 10.9205 53.6508C10.5801 53.4233 10.3148 53.1 10.1581 52.7217C10.0014 52.3434 9.96039 51.9271 10.0403 51.5255C10.1201 51.1239 10.3172 50.755 10.6067 50.4655L50.4656 10.6066C50.8561 10.2295 51.3791 10.0208 51.922 10.0255C52.4649 10.0302 52.9842 10.2479 53.3681 10.6319C53.752 11.0158 53.9698 11.5351 53.9745 12.078C53.9792 12.6209 53.7705 13.1439 53.3934 13.5344L13.5345 53.3933C13.3425 53.5858 13.1143 53.7385 12.8631 53.8427C12.6119 53.9468 12.3426 54.0002 12.0706 53.9999Z" fill="#4F4F4F"/>
</svg>
