<svg width="64" height="64" viewBox="0 0 64 64" fill="none" xmlns="http://www.w3.org/2000/svg">
<path d="M39.0116 18.5833C39.0116 11.8121 33.5225 6.32301 26.7513 6.32301C19.9801 6.32301 14.491 11.8121 14.491 18.5833C14.491 25.3545 19.9801 30.8437 26.7513 30.8437C33.5225 30.8437 39.0116 25.3545 39.0116 18.5833ZM41.3346 18.5833C41.3346 26.6375 34.8055 33.1667 26.7513 33.1667C18.6971 33.1667 12.168 26.6375 12.168 18.5833C12.168 10.5292 18.6971 4 26.7513 4C34.8055 4 41.3346 10.5292 41.3346 18.5833Z" fill="#1A1A1A"/>
<path d="M33.0769 18.5833C33.0769 15.089 30.2443 12.2563 26.75 12.2563C23.2557 12.2563 20.4231 15.089 20.4231 18.5833C20.4231 22.0775 23.2557 24.9102 26.75 24.9102C30.2443 24.9102 33.0769 22.0775 33.0769 18.5833ZM35.5 18.5833C35.5 23.4157 31.5825 27.3333 26.75 27.3333C21.9175 27.3333 18 23.4157 18 18.5833C18 13.7508 21.9175 9.83325 26.75 9.83325C31.5825 9.83325 35.5 13.7508 35.5 18.5833Z" fill="#1A1A1A"/>
<path d="M21.6773 54.2396C20.6409 51.1771 18.5714 45.5625 18.5714 45.5625C17.329 42.0917 18.3988 40.3733 19.089 39.9479L23.2303 37.3958V21.5729C23.2303 19.7352 24.088 18 26.8529 18C28.9225 18 29.9589 19.5312 29.96 21.5729C29.9625 26.1667 29.96 30.25 29.96 32.8021C29.96 30.7604 32.5472 29.7396 33.5826 29.7396C35.6532 29.7396 37.2068 32.0363 37.2073 33.3125C37.2062 31.7812 38.4 30.7604 40.5711 30.7604C42.3829 30.7604 43.9359 32.8021 43.937 34.3333C43.9359 32.8021 45.9681 31.6214 47.5596 31.7812C49.324 31.9584 50.6667 33.4773 50.6667 34.8438V51.1771C50.6667 55.267 47.5673 58.8333 43.4193 58.8333H27.8893C24.8569 58.8333 22.6372 57.0758 21.6773 54.2396Z" fill="white"/>
<path d="M23.0915 21.4583C23.0915 20.3967 23.3288 19.2278 24.0793 18.3087C24.858 17.355 26.0544 16.8333 27.6287 16.8333C28.9153 16.8333 29.9722 17.3394 30.6847 18.2464C31.3728 19.1227 31.6629 20.2728 31.6636 21.4572C31.6652 24.4366 31.6641 27.2036 31.6636 29.4817C32.5132 28.9517 33.4927 28.6527 34.1838 28.6527C35.5826 28.6527 36.7201 29.4486 37.4663 30.3228C37.5781 30.4538 37.6843 30.592 37.7854 30.7343C37.8324 30.6917 37.8821 30.6504 37.9322 30.6099C38.7199 29.9718 39.787 29.6805 40.9911 29.6805C42.2623 29.6805 43.3375 30.4108 44.055 31.2573C44.2095 31.4396 44.3532 31.6359 44.4854 31.8414C44.6171 31.7272 44.7532 31.6224 44.8911 31.5283C45.7457 30.9452 46.8596 30.6052 47.9008 30.7133C49.0244 30.83 49.9964 31.3847 50.685 32.1174C51.3648 32.8408 51.8333 33.8109 51.8333 34.8194V51.2638C51.8333 55.8547 48.4512 59.9999 43.7654 59.9999H28.6381C25.2049 59.9999 22.6883 57.9016 21.6309 54.6723C21.1298 53.1418 20.376 50.9665 19.7459 49.1681C19.4314 48.2705 19.1487 47.4689 18.9442 46.8917C18.842 46.6031 18.7589 46.3705 18.702 46.2102C18.6735 46.1301 18.6519 46.0676 18.637 46.0256C18.6296 46.0049 18.624 45.9891 18.6202 45.9784C18.6184 45.9731 18.6163 45.969 18.6153 45.9663C18.6149 45.9651 18.6146 45.964 18.6143 45.9633L18.6104 45.9533C17.321 42.23 18.2891 39.8786 19.5312 39.087L23.0915 36.8187V21.4583ZM25.1084 45.611C25.1084 46.1787 24.6569 46.6388 24.0999 46.6388C23.543 46.6388 23.0915 46.1786 23.0915 45.611V39.2426L20.6008 40.8295C20.4985 40.8946 19.3846 42.0015 20.5102 45.2597C20.5104 45.2604 20.5107 45.2626 20.5111 45.2638C20.5121 45.2665 20.5131 45.2714 20.5151 45.2768C20.519 45.2877 20.5253 45.3039 20.5328 45.325C20.5479 45.3673 20.5703 45.4294 20.5988 45.5097C20.656 45.6705 20.7386 45.9038 20.8411 46.1932C21.0461 46.7721 21.3301 47.5769 21.6457 48.4776C22.2759 50.2763 23.0351 52.4692 23.5435 54.0219C24.3561 56.5036 26.1639 57.9443 28.6381 57.9444H43.7654C47.1606 57.9444 49.8164 54.9083 49.8164 51.2638V34.8194C49.8164 34.4521 49.6312 33.9694 49.2274 33.5397C48.8325 33.1194 48.2909 32.8205 47.696 32.7588C47.1871 32.706 46.5362 32.8802 46.0139 33.2365C45.4811 33.6 45.2781 34.0054 45.2782 34.3045L45.2772 40.4721C45.2771 41.0397 44.8256 41.4999 44.2687 41.4999C43.7118 41.4998 43.2602 41.0397 43.2602 40.4721L43.2612 34.3065L43.2494 34.1228C43.1949 33.6748 42.9513 33.099 42.5285 32.6002C42.0482 32.0337 41.4847 31.736 40.9911 31.736C40.0807 31.736 39.5089 31.9589 39.1869 32.2198C38.8939 32.4574 38.7248 32.79 38.723 33.2677V39.4444C38.723 40.012 38.2715 40.4721 37.7145 40.4721C37.1576 40.4721 36.706 40.012 36.706 39.4444V33.2777C36.7057 32.9639 36.4767 32.2951 35.9447 31.6718C35.43 31.0687 34.802 30.7083 34.1838 30.7083C33.916 30.7083 33.2254 30.8822 32.6012 31.3065C31.9923 31.7203 31.6636 32.2158 31.6636 32.7638V38.9305C31.6636 39.498 31.212 39.9582 30.6551 39.9583C30.0983 39.9582 29.6467 39.498 29.6466 38.9305L29.6456 32.7638C29.6456 32.7568 29.6465 32.7497 29.6466 32.7427C29.6466 30.1711 29.649 26.0711 29.6466 21.4593C29.6462 20.5883 29.4306 19.9396 29.1099 19.5312C28.8133 19.1536 28.3578 18.8888 27.6287 18.8888C26.5098 18.8888 25.9417 19.2411 25.6294 19.6235C25.2891 20.0404 25.1084 20.6698 25.1084 21.4583V45.611Z" fill="#1A1A1A"/>
</svg>
