<svg width="64" height="64" viewBox="0 0 64 64" fill="none" xmlns="http://www.w3.org/2000/svg">
<path d="M6 51.125C6 53.1452 7.55583 54.8078 9.71352 55.9054C11.9135 57.0245 14.8273 57.625 17.8125 57.625C20.7977 57.625 23.7115 57.0245 25.9115 55.9054C28.0692 54.8078 29.625 53.1452 29.625 51.125" stroke="#1A1A1A" stroke-width="2"/>
<path d="M6 43.25C6 45.2702 7.55583 46.9328 9.71352 48.0304C11.9135 49.1495 14.8273 49.75 17.8125 49.75C20.7977 49.75 23.7115 49.1495 25.9115 48.0304C28.0692 46.9328 29.625 45.2702 29.625 43.25" stroke="#1A1A1A" stroke-width="2"/>
<path d="M6 35.75C6 36.7443 6.38795 37.6761 7.04762 38.4862C7.70177 39.2895 8.62186 39.9751 9.71352 40.5304C10.8089 41.0876 12.0866 41.5187 13.4686 41.8099C14.8521 42.1014 16.3274 42.25 17.8125 42.25C19.2976 42.25 20.7729 42.1014 22.1564 41.8099C23.5384 41.5187 24.8161 41.0876 25.9115 40.5304C27.0031 39.9751 27.9232 39.2895 28.5774 38.4862C29.2371 37.6761 29.625 36.7443 29.625 35.75" stroke="#1A1A1A" stroke-width="2"/>
<path d="M6 27.875C6 29.8952 7.55583 31.5578 9.71352 32.6554C11.9135 33.7745 14.8273 34.375 17.8125 34.375C20.7977 34.375 23.7115 33.7745 25.9115 32.6554C28.0692 31.5578 29.625 29.8952 29.625 27.875" stroke="#1A1A1A" stroke-width="2"/>
<path d="M35.125 50.875C35.125 52.8952 36.6808 54.5578 38.8385 55.6554C41.0385 56.7745 43.9523 57.375 46.9375 57.375C49.9227 57.375 52.8365 56.7745 55.0365 55.6554C57.1942 54.5578 58.75 52.8952 58.75 50.875" stroke="#1A1A1A" stroke-width="2"/>
<path d="M6.01808 19.8796C5.91936 20.8897 6.2277 21.8594 6.83958 22.7141C7.44376 23.558 8.3342 24.2806 9.40681 24.8685C10.4834 25.4585 11.7561 25.92 13.143 26.2382C14.5317 26.5569 16.0231 26.7292 17.5313 26.7482C19.0397 26.7673 20.5444 26.6328 21.9593 26.3503C23.3727 26.0681 24.6825 25.6408 25.807 25.0829C26.9276 24.5269 27.8732 23.8363 28.5461 23.0243C29.2245 22.2056 29.625 21.2604 29.625 20.25" stroke="#1A1A1A" stroke-width="2"/>
<path d="M35.1431 42.8796C35.0444 43.8897 35.3527 44.8594 35.9646 45.7141C36.5688 46.558 37.4592 47.2806 38.5318 47.8685C39.6084 48.4585 40.8811 48.92 42.268 49.2382C43.6567 49.5569 45.1481 49.7292 46.6563 49.7482C48.1647 49.7673 49.6694 49.6328 51.0843 49.3503C52.4977 49.0681 53.8075 48.6408 54.932 48.0829C56.0526 47.5269 56.9982 46.8363 57.6711 46.0243C58.3495 45.2056 58.75 44.2604 58.75 43.25" stroke="#1A1A1A" stroke-width="2"/>
<path d="M17.8125 6C20.9222 6 23.7869 6.63923 25.9111 7.71973C27.9804 8.7723 29.625 10.4074 29.625 12.5C29.625 14.5926 27.9804 16.2277 25.9111 17.2803C23.7869 18.3608 20.9222 19 17.8125 19C14.7028 19 11.8381 18.3608 9.71387 17.2803C7.64461 16.2277 6 14.5926 6 12.5C6 10.4074 7.64461 8.7723 9.71387 7.71973C11.8381 6.63923 14.7028 6 17.8125 6Z" fill="white" stroke="#1A1A1A" stroke-width="2"/>
<path d="M46.9375 29C50.0472 29 52.9119 29.6392 55.0361 30.7197C57.1054 31.7723 58.75 33.4074 58.75 35.5C58.75 37.5926 57.1054 39.2277 55.0361 40.2803C52.9119 41.3608 50.0472 42 46.9375 42C43.8278 42 40.9631 41.3608 38.8389 40.2803C36.7696 39.2277 35.125 37.5926 35.125 35.5C35.125 33.4074 36.7696 31.7723 38.8389 30.7197C40.9631 29.6392 43.8278 29 46.9375 29Z" fill="white" stroke="#1A1A1A" stroke-width="2"/>
<path d="M6 12.25V50.875" stroke="#1A1A1A" stroke-width="2" stroke-linecap="round"/>
<path d="M35.125 35.25V50.75" stroke="#1A1A1A" stroke-width="2" stroke-linecap="round"/>
<path d="M29.625 12.25V50.875" stroke="#1A1A1A" stroke-width="2" stroke-linecap="round"/>
<path d="M58.75 35.25V50.75" stroke="#1A1A1A" stroke-width="2" stroke-linecap="round"/>
<path d="M40.7896 24.7155L44.2225 21.2179L44.2225 30.8698C44.2223 31.2153 44.2902 31.5574 44.4221 31.8766C44.5541 32.1957 44.7476 32.4858 44.9917 32.73C45.2357 32.9743 45.5254 33.168 45.8442 33.3001C46.1631 33.4323 46.5048 33.5002 46.8499 33.5L46.903 33.5C47.2481 33.5002 47.5898 33.4323 47.9086 33.3001C48.2275 33.168 48.5172 32.9743 48.7612 32.73C49.0052 32.4858 49.1987 32.1957 49.3307 31.8766C49.4627 31.5574 49.5305 31.2153 49.5304 30.8698L49.5304 21.2179L49.8754 21.6762L52.8584 24.6345C53.3082 25.1012 53.9071 25.3956 54.551 25.4667C55.195 25.5378 55.8435 25.3811 56.3841 25.0237C56.6982 24.8034 56.9602 24.5167 57.1514 24.1839C57.3426 23.8511 57.4584 23.4803 57.4907 23.0978C57.523 22.7152 57.4709 22.3302 57.3382 21.9701C57.2054 21.6099 56.9953 21.2833 56.7225 21.0134L48.6625 13.0219C48.1617 12.5273 47.4864 12.25 46.7829 12.25C46.0793 12.25 45.4041 12.5273 44.9032 13.0219L37.029 20.9921C36.7823 21.2356 36.5863 21.5257 36.4526 21.8457C36.3189 22.1656 36.25 22.509 36.25 22.8558C36.25 23.2026 36.3189 23.546 36.4526 23.8659C36.5863 24.1859 36.7823 24.476 37.029 24.7195C37.5303 25.2143 38.2062 25.4914 38.9101 25.4906C39.6141 25.4899 40.2894 25.2114 40.7896 24.7155Z" fill="#1A1A1A"/>
</svg>
