<svg width="64" height="64" viewBox="0 0 64 64" fill="none" xmlns="http://www.w3.org/2000/svg">
<g clip-path="url(#clip0_2924_10105)">
<path d="M58 32C58 32.5746 57.7717 33.1257 57.3654 33.5321C56.9591 33.9384 56.408 34.1667 55.8333 34.1667C55.2587 34.1667 54.7076 33.9384 54.3013 33.5321C53.8949 33.1257 53.6667 32.5746 53.6667 32C53.6604 26.2556 51.3756 20.7482 47.3137 16.6863C43.2518 12.6244 37.7444 10.3396 32 10.3333C31.4254 10.3333 30.8743 10.1051 30.4679 9.69873C30.0616 9.2924 29.8333 8.7413 29.8333 8.16667C29.8333 7.59203 30.0616 7.04093 30.4679 6.6346C30.8743 6.22827 31.4254 6 32 6C38.8933 6.00746 45.5022 8.74913 50.3765 13.6235C55.2509 18.4978 57.9925 25.1067 58 32ZM41.1455 34.295C41.7201 34.295 42.2712 34.0667 42.6776 33.6604C43.0839 33.254 43.3122 32.7029 43.3122 32.1283C43.3122 31.5537 43.0839 31.0026 42.6776 30.5962C42.2712 30.1899 41.7201 29.9616 41.1455 29.9616L35.7332 29.8333C35.3556 29.1843 34.8157 28.6444 34.1667 28.2668L34.1667 16.1667C34.1667 15.592 33.9384 15.0409 33.5321 14.6346C33.1257 14.2283 32.5746 14 32 14C31.4254 14 30.8743 14.2283 30.4679 14.6346C30.0616 15.0409 29.8333 15.592 29.8333 16.1667L29.8333 28.2668C29.2587 28.5977 28.7679 29.0564 28.399 29.6075C28.0301 30.1585 27.793 30.7871 27.7061 31.4445C27.6191 32.1018 27.6847 32.7704 27.8977 33.3984C28.1106 34.0264 28.4653 34.5969 28.9342 35.0658C29.4031 35.5347 29.9736 35.8894 30.6016 36.1023C31.2296 36.3153 31.8982 36.3808 32.5555 36.2939C33.2129 36.207 33.8415 35.9699 34.3925 35.601C34.9436 35.2321 35.4023 34.7413 35.7332 34.1667L41.1455 34.295ZM9.9585 20.6987C9.52997 20.6987 9.11107 20.8257 8.75477 21.0638C8.39846 21.3019 8.12075 21.6403 7.95676 22.0362C7.79277 22.4321 7.74986 22.8677 7.83347 23.288C7.91707 23.7083 8.12342 24.0944 8.42644 24.3974C8.72945 24.7004 9.11551 24.9068 9.53581 24.9904C9.9561 25.074 10.3917 25.0311 10.7876 24.8671C11.1836 24.7031 11.5219 24.4254 11.76 24.0691C11.9981 23.7128 12.1252 23.2939 12.1252 22.8653C12.1252 22.2907 11.8969 21.7396 11.4906 21.3333C11.0842 20.9269 10.5331 20.6987 9.9585 20.6987ZM10.3333 32C10.3333 31.5715 10.2063 31.1526 9.96819 30.7963C9.73011 30.44 9.39172 30.1623 8.99582 29.9983C8.59991 29.8343 8.16426 29.7914 7.74397 29.875C7.32368 29.9586 6.93762 30.1649 6.6346 30.4679C6.33159 30.771 6.12523 31.157 6.04163 31.5773C5.95803 31.9976 6.00094 32.4332 6.16493 32.8291C6.32892 33.2251 6.60663 33.5634 6.96293 33.8015C7.31924 34.0396 7.73814 34.1667 8.16667 34.1667C8.7413 34.1667 9.2924 33.9384 9.69873 33.5321C10.1051 33.1257 10.3333 32.5746 10.3333 32ZM32 53.6667C31.5715 53.6667 31.1526 53.7937 30.7963 54.0318C30.44 54.2699 30.1623 54.6083 29.9983 55.0042C29.8343 55.4001 29.7914 55.8357 29.875 56.256C29.9586 56.6763 30.1649 57.0624 30.4679 57.3654C30.771 57.6684 31.157 57.8748 31.5773 57.9584C31.9976 58.042 32.4332 57.9991 32.8291 57.8351C33.2251 57.6711 33.5634 57.3934 33.8015 57.0371C34.0396 56.6808 34.1667 56.2619 34.1667 55.8333C34.1667 55.2587 33.9384 54.7076 33.5321 54.3013C33.1257 53.8949 32.5746 53.6667 32 53.6667ZM15.1455 12.9485C14.717 12.9485 14.2981 13.0756 13.9418 13.3136C13.5855 13.5517 13.3078 13.8901 13.1438 14.286C12.9798 14.6819 12.9369 15.1176 13.0205 15.5379C13.1041 15.9582 13.3104 16.3442 13.6134 16.6472C13.9164 16.9502 14.3025 17.1566 14.7228 17.2402C15.1431 17.3238 15.5787 17.2809 15.9746 17.1169C16.3706 16.9529 16.7089 16.6752 16.947 16.3189C17.1851 15.9626 17.3122 15.5437 17.3122 15.1152C17.3122 14.5405 17.0839 13.9894 16.6776 13.5831C16.2712 13.1768 15.7201 12.9485 15.1455 12.9485ZM22.8545 7.82217C22.426 7.82217 22.0071 7.94924 21.6508 8.18732C21.2945 8.42539 21.0168 8.76378 20.8528 9.15969C20.6888 9.55559 20.6459 9.99124 20.7295 10.4115C20.8131 10.8318 21.0194 11.2179 21.3224 11.5209C21.6255 11.8239 22.0115 12.0303 22.4318 12.1139C22.8521 12.1975 23.2877 12.1546 23.6836 11.9906C24.0796 11.8266 24.4179 11.5489 24.656 11.1926C24.8941 10.8363 25.0212 10.4174 25.0212 9.98883C25.0212 9.4142 24.7929 8.8631 24.3866 8.45677C23.9802 8.05044 23.4291 7.82217 22.8545 7.82217ZM9.9585 38.968C9.52997 38.968 9.11107 39.0951 8.75477 39.3331C8.39846 39.5712 8.12075 39.9096 7.95676 40.3055C7.79277 40.7014 7.74986 41.1371 7.83347 41.5574C7.91707 41.9777 8.12342 42.3637 8.42644 42.6667C8.72945 42.9697 9.11551 43.1761 9.53581 43.2597C9.9561 43.3433 10.3917 43.3004 10.7876 43.1364C11.1836 42.9724 11.5219 42.6947 11.76 42.3384C11.9981 41.9821 12.1252 41.5632 12.1252 41.1347C12.1252 40.56 11.8969 40.0089 11.4906 39.6026C11.0842 39.1963 10.5331 38.968 9.9585 38.968ZM15.1455 46.7182C14.717 46.7182 14.2981 46.8452 13.9418 47.0833C13.5855 47.3214 13.3078 47.6598 13.1438 48.0557C12.9798 48.4516 12.9369 48.8872 13.0205 49.3075C13.1041 49.7278 13.3104 50.1139 13.6134 50.4169C13.9164 50.7199 14.3025 50.9263 14.7228 51.0099C15.1431 51.0935 15.5787 51.0506 15.9746 50.8866C16.3706 50.7226 16.7089 50.4449 16.947 50.0886C17.1851 49.7323 17.3122 49.3134 17.3122 48.8848C17.3122 48.3102 17.0839 47.7591 16.6776 47.3528C16.2712 46.9464 15.7201 46.7182 15.1455 46.7182ZM22.8545 51.8445C22.426 51.8445 22.0071 51.9716 21.6508 52.2096C21.2945 52.4477 21.0168 52.7861 20.8528 53.182C20.6888 53.5779 20.6459 54.0136 20.7295 54.4339C20.8131 54.8542 21.0194 55.2402 21.3224 55.5432C21.6255 55.8462 22.0115 56.0526 22.4318 56.1362C22.8521 56.2198 23.2877 56.1769 23.6836 56.0129C24.0796 55.8489 24.4179 55.5712 24.656 55.2149C24.8941 54.8586 25.0212 54.4397 25.0212 54.0112C25.0212 53.4365 24.7929 52.8854 24.3866 52.4791C23.9802 52.0728 23.4291 51.8445 22.8545 51.8445ZM54.0415 38.968C53.613 38.968 53.1941 39.0951 52.8378 39.3331C52.4815 39.5712 52.2038 39.9096 52.0398 40.3055C51.8758 40.7014 51.8329 41.1371 51.9165 41.5574C52.0001 41.9777 52.2064 42.3637 52.5094 42.6667C52.8125 42.9697 53.1985 43.1761 53.6188 43.2597C54.0391 43.3433 54.4747 43.3004 54.8706 43.1364C55.2666 42.9724 55.6049 42.6947 55.843 42.3384C56.0811 41.9821 56.2082 41.5632 56.2082 41.1347C56.2082 40.8501 56.1521 40.5684 56.0432 40.3055C55.9344 40.0426 55.7748 39.8038 55.5736 39.6026C55.3724 39.4014 55.1335 39.2418 54.8706 39.1329C54.6078 39.024 54.326 38.968 54.0415 38.968ZM48.8545 46.7182C48.426 46.7182 48.0071 46.8452 47.6508 47.0833C47.2945 47.3214 47.0167 47.6598 46.8528 48.0557C46.6888 48.4516 46.6459 48.8872 46.7295 49.3075C46.8131 49.7278 47.0194 50.1139 47.3224 50.4169C47.6255 50.7199 48.0115 50.9263 48.4318 51.0099C48.8521 51.0935 49.2877 51.0506 49.6836 50.8866C50.0796 50.7226 50.4179 50.4449 50.656 50.0886C50.8941 49.7323 51.0212 49.3134 51.0212 48.8848C51.0212 48.6003 50.9651 48.3186 50.8562 48.0557C50.7474 47.7928 50.5878 47.554 50.3866 47.3528C50.1854 47.1516 49.9465 46.992 49.6836 46.8831C49.4208 46.7742 49.139 46.7182 48.8545 46.7182ZM41.1455 51.8445C40.717 51.8445 40.2981 51.9716 39.9418 52.2096C39.5855 52.4477 39.3077 52.7861 39.1438 53.182C38.9798 53.5779 38.9369 54.0136 39.0205 54.4339C39.1041 54.8542 39.3104 55.2402 39.6134 55.5432C39.9165 55.8462 40.3025 56.0526 40.7228 56.1362C41.1431 56.2198 41.5787 56.1769 41.9746 56.0129C42.3706 55.8489 42.7089 55.5712 42.947 55.2149C43.1851 54.8586 43.3122 54.4397 43.3122 54.0112C43.3122 53.7266 43.2561 53.4449 43.1472 53.182C43.0384 52.9191 42.8788 52.6803 42.6776 52.4791C42.4764 52.2779 42.2375 52.1183 41.9746 52.0094C41.7118 51.9005 41.43 51.8445 41.1455 51.8445Z" fill="#1A1A1A"/>
</g>
<defs>
<clipPath id="clip0_2924_10105">
<rect width="52" height="52" fill="white" transform="translate(6 6)"/>
</clipPath>
</defs>
</svg>
