<svg width="64" height="64" viewBox="0 0 64 64" fill="none" xmlns="http://www.w3.org/2000/svg">
<path d="M56.9019 36.0458C56.8071 35.6734 56.635 35.325 56.3966 35.0235C56.1583 34.722 55.8591 34.4741 55.5186 34.2958C55.5296 33.9113 55.4627 33.5285 55.322 33.1705C55.1813 32.8125 54.9697 32.4866 54.6999 32.2125C54.4282 31.9393 54.1028 31.7256 53.7441 31.585C53.3854 31.4444 53.0014 31.38 52.6165 31.3958C52.4348 31.0576 52.1854 30.7604 51.8839 30.5227C51.5824 30.285 51.2352 30.112 50.8639 30.0142C50.4926 29.9165 50.1051 29.8963 49.7257 29.9548C49.3462 30.0132 48.9829 30.1492 48.6582 30.3541C48.3335 30.1492 47.9702 30.0132 47.5907 29.9548C47.2113 29.8963 46.8238 29.9165 46.4525 30.0142C46.0812 30.112 45.734 30.285 45.4325 30.5227C45.131 30.7604 44.8816 31.0576 44.6999 31.3958C44.315 31.3805 43.9312 31.4452 43.5726 31.5857C43.214 31.7263 42.8885 31.9397 42.6165 32.2125C42.3474 32.487 42.1363 32.813 41.996 33.171C41.8557 33.5289 41.789 33.9115 41.7999 34.2958C41.4617 34.4775 41.1645 34.7269 40.9268 35.0284C40.6891 35.33 40.516 35.6772 40.4183 36.0485C40.3206 36.4198 40.3003 36.8072 40.3588 37.1867C40.4173 37.5661 40.5532 37.9295 40.7582 38.2541C40.5532 38.5788 40.4173 38.9422 40.3588 39.3216C40.3003 39.7011 40.3206 40.0885 40.4183 40.4598C40.516 40.8311 40.6891 41.1783 40.9268 41.4799C41.1645 41.7814 41.4617 42.0308 41.7999 42.2125C41.7886 42.5968 41.8552 42.9795 41.9955 43.3375C42.1359 43.6955 42.3471 44.0215 42.6165 44.2958C42.8854 44.5729 43.2103 44.7893 43.5697 44.9305C43.929 45.0717 44.3143 45.1345 44.6999 45.1146C44.8506 45.4121 45.0638 45.6737 45.3249 45.8812V56.5458C45.3205 56.6626 45.3625 56.7764 45.4415 56.8625C45.4779 56.9087 45.525 56.9454 45.5787 56.9693C45.6324 56.9933 45.6912 57.0038 45.7499 57C45.8025 57.0006 45.8547 56.9906 45.9034 56.9705C45.9521 56.9505 45.9962 56.9208 46.0332 56.8833L46.0499 56.8667L48.6665 54.5L51.2999 56.8854C51.3371 56.9224 51.3813 56.9516 51.43 56.9713C51.4786 56.991 51.5307 57.0007 51.5832 57C51.6416 57.001 51.6994 56.9879 51.7516 56.9618C51.8038 56.9357 51.849 56.8973 51.8832 56.85C51.9623 56.7639 52.0042 56.6501 51.9999 56.5333V45.8687C52.261 45.6612 52.4742 45.3996 52.6249 45.1021C53.0104 45.122 53.3958 45.0592 53.7551 44.918C54.1144 44.7768 54.4394 44.5604 54.7082 44.2833C54.9783 44.0094 55.1901 43.6835 55.3308 43.3255C55.4716 42.9674 55.5383 42.5845 55.5269 42.2C55.8652 42.0183 56.1624 41.7689 56.4 41.4674C56.6377 41.1658 56.8108 40.8186 56.9085 40.4473C57.0062 40.076 57.0265 39.6886 56.968 39.3091C56.9095 38.9297 56.7736 38.5663 56.5686 38.2416C56.7746 37.9193 56.9108 37.5573 56.9682 37.1791C57.0256 36.8009 57.003 36.4148 56.9019 36.0458ZM48.6665 41.5833C48.0073 41.5833 47.3628 41.3878 46.8146 41.0215C46.2665 40.6553 45.8392 40.1347 45.5869 39.5256C45.3346 38.9165 45.2686 38.2463 45.3973 37.5997C45.5259 36.9531 45.8433 36.3591 46.3095 35.893C46.7757 35.4268 47.3696 35.1093 48.0162 34.9807C48.6628 34.8521 49.3331 34.9181 49.9421 35.1704C50.5512 35.4227 51.0718 35.8499 51.4381 36.3981C51.8044 36.9462 51.9999 37.5907 51.9999 38.25C51.9999 39.134 51.6487 39.9819 51.0236 40.607C50.3984 41.2321 49.5506 41.5833 48.6665 41.5833Z" fill="#242424"/>
<path d="M39.4083 25.75H24.5895C24.3133 25.75 24.0483 25.8597 23.8529 26.0551C23.6576 26.2504 23.5479 26.5154 23.5479 26.7917C23.5479 27.0679 23.6576 27.3329 23.8529 27.5282C24.0483 27.7236 24.3133 27.8333 24.5895 27.8333H39.4104C39.6866 27.8333 39.9516 27.7236 40.1469 27.5282C40.3423 27.3329 40.452 27.0679 40.452 26.7917C40.452 26.5154 40.3423 26.2504 40.1469 26.0551C39.9516 25.8597 39.6866 25.75 39.4104 25.75H39.4083Z" fill="#242424"/>
<path d="M35.2437 38.25H24.5895C24.3133 38.25 24.0483 38.3597 23.8529 38.5551C23.6576 38.7504 23.5479 39.0154 23.5479 39.2917C23.5479 39.5679 23.6576 39.8329 23.8529 40.0282C24.0483 40.2236 24.3133 40.3333 24.5895 40.3333H35.2437C35.52 40.3333 35.7849 40.2236 35.9803 40.0282C36.1756 39.8329 36.2854 39.5679 36.2854 39.2917C36.2854 39.0154 36.1756 38.7504 35.9803 38.5551C35.7849 38.3597 35.52 38.25 35.2437 38.25Z" fill="#242424"/>
<path d="M35.2437 32H24.5895C24.3133 32 24.0483 32.1097 23.8529 32.3051C23.6576 32.5004 23.5479 32.7654 23.5479 33.0417C23.5479 33.3179 23.6576 33.5829 23.8529 33.7782C24.0483 33.9736 24.3133 34.0833 24.5895 34.0833H35.2437C35.52 34.0833 35.7849 33.9736 35.9803 33.7782C36.1756 33.5829 36.2854 33.3179 36.2854 33.0417C36.2854 32.7654 36.1756 32.5004 35.9803 32.3051C35.7849 32.1097 35.52 32 35.2437 32Z" fill="#242424"/>
<path d="M39.4106 44.5H24.7731C24.4968 44.5 24.2319 44.6097 24.0365 44.8051C23.8412 45.0004 23.7314 45.2654 23.7314 45.5417C23.7314 45.8179 23.8412 46.0829 24.0365 46.2782C24.2319 46.4736 24.4968 46.5833 24.7731 46.5833H39.4106C39.6869 46.5833 39.9518 46.4736 40.1472 46.2782C40.3425 46.0829 40.4523 45.8179 40.4523 45.5417C40.4523 45.2654 40.3425 45.0004 40.1472 44.8051C39.9518 44.6097 39.6869 44.5 39.4106 44.5Z" fill="#242424"/>
<path d="M40.3333 15.3333C40.3333 13.1232 39.4554 11.0036 37.8926 9.44078C36.3298 7.87797 34.2101 7 32 7H15.3333C13.1232 7 11.0036 7.87797 9.44078 9.44078C7.87797 11.0036 7 13.1232 7 15.3333L7 40.3333C7 42.5435 7.87797 44.6631 9.44078 46.2259C11.0036 47.7887 13.1232 48.6667 15.3333 48.6667C15.3333 50.8768 16.2113 52.9964 17.7741 54.5592C19.3369 56.122 21.4565 57 23.6667 57H38.25C38.8025 57 39.3324 56.7805 39.7231 56.3898C40.1138 55.9991 40.3333 55.4692 40.3333 54.9167C40.3333 54.3641 40.1138 53.8342 39.7231 53.4435C39.3324 53.0528 38.8025 52.8333 38.25 52.8333C38.2073 52.83 38.1644 52.8372 38.125 52.8542V52.8333H23.6667C22.5626 52.83 21.5047 52.39 20.724 51.6093C19.9433 50.8286 19.5033 49.7707 19.5 48.6667V23.6667C19.5033 22.5626 19.9433 21.5047 20.724 20.724C21.5047 19.9433 22.5626 19.5033 23.6667 19.5H40.3333C41.4359 19.5082 42.4909 19.9498 43.2706 20.7294C44.0502 21.5091 44.4918 22.5641 44.5 23.6667C44.5 24.2192 44.7195 24.7491 45.1102 25.1398C45.5009 25.5305 46.0308 25.75 46.5833 25.75C47.1359 25.75 47.6658 25.5305 48.0565 25.1398C48.4472 24.7491 48.6667 24.2192 48.6667 23.6667C48.6667 21.4565 47.7887 19.3369 46.2259 17.7741C44.6631 16.2113 42.5435 15.3333 40.3333 15.3333ZM23.6667 15.3333C21.4565 15.3333 19.3369 16.2113 17.7741 17.7741C16.2113 19.3369 15.3333 21.4565 15.3333 23.6667V44.5C14.2293 44.4967 13.1714 44.0567 12.3907 43.276C11.61 42.4953 11.17 41.4374 11.1667 40.3333V15.3333C11.17 14.2293 11.61 13.1714 12.3907 12.3907C13.1714 11.61 14.2293 11.17 15.3333 11.1667H32C33.1041 11.17 34.1619 11.61 34.9426 12.3907C35.7233 13.1714 36.1634 14.2293 36.1667 15.3333H23.6667Z" fill="#242424"/>
</svg>
