<svg width="64" height="64" viewBox="0 0 64 64" fill="none" xmlns="http://www.w3.org/2000/svg">
<path d="M6 51.125C6 53.1452 7.55583 54.8078 9.71352 55.9054C11.9135 57.0245 14.8273 57.625 17.8125 57.625C20.7977 57.625 23.7115 57.0245 25.9115 55.9054C28.0692 54.8078 29.625 53.1452 29.625 51.125" stroke="#1A1A1A" stroke-width="2"/>
<path d="M6 43.25C6 45.2702 7.55583 46.9328 9.71352 48.0304C11.9135 49.1495 14.8273 49.75 17.8125 49.75C20.7977 49.75 23.7115 49.1495 25.9115 48.0304C28.0692 46.9328 29.625 45.2702 29.625 43.25" stroke="#1A1A1A" stroke-width="2"/>
<path d="M6 35.75C6 36.7443 6.38795 37.6761 7.04762 38.4862C7.70177 39.2895 8.62186 39.9751 9.71352 40.5304C10.8089 41.0876 12.0866 41.5187 13.4686 41.8099C14.8521 42.1014 16.3274 42.25 17.8125 42.25C19.2976 42.25 20.7729 42.1014 22.1564 41.8099C23.5384 41.5187 24.8161 41.0876 25.9115 40.5304C27.0031 39.9751 27.9232 39.2895 28.5774 38.4862C29.2371 37.6761 29.625 36.7443 29.625 35.75" stroke="#1A1A1A" stroke-width="2"/>
<path d="M6 27.875C6 29.8952 7.55583 31.5578 9.71352 32.6554C11.9135 33.7745 14.8273 34.375 17.8125 34.375C20.7977 34.375 23.7115 33.7745 25.9115 32.6554C28.0692 31.5578 29.625 29.8952 29.625 27.875" stroke="#1A1A1A" stroke-width="2"/>
<path d="M35.125 50.875C35.125 52.8952 36.6808 54.5578 38.8385 55.6554C41.0385 56.7745 43.9523 57.375 46.9375 57.375C49.9227 57.375 52.8365 56.7745 55.0365 55.6554C57.1942 54.5578 58.75 52.8952 58.75 50.875" stroke="#1A1A1A" stroke-width="2"/>
<path d="M6.01808 19.8796C5.91936 20.8897 6.2277 21.8594 6.83958 22.7141C7.44376 23.558 8.3342 24.2806 9.40681 24.8685C10.4834 25.4585 11.7561 25.92 13.143 26.2382C14.5317 26.5569 16.0231 26.7292 17.5313 26.7482C19.0397 26.7673 20.5444 26.6328 21.9593 26.3503C23.3727 26.0681 24.6825 25.6408 25.807 25.0829C26.9276 24.5269 27.8732 23.8363 28.5461 23.0243C29.2245 22.2056 29.625 21.2604 29.625 20.25" stroke="#1A1A1A" stroke-width="2"/>
<path d="M35.1431 42.8796C35.0444 43.8897 35.3527 44.8594 35.9646 45.7141C36.5688 46.558 37.4592 47.2806 38.5318 47.8685C39.6084 48.4585 40.8811 48.92 42.268 49.2382C43.6567 49.5569 45.1481 49.7292 46.6563 49.7482C48.1647 49.7673 49.6694 49.6328 51.0843 49.3503C52.4977 49.0681 53.8075 48.6408 54.932 48.0829C56.0526 47.5269 56.9982 46.8363 57.6711 46.0243C58.3495 45.2056 58.75 44.2604 58.75 43.25" stroke="#1A1A1A" stroke-width="2"/>
<path d="M17.8125 6C20.9222 6 23.7869 6.63923 25.9111 7.71973C27.9804 8.7723 29.625 10.4074 29.625 12.5C29.625 14.5926 27.9804 16.2277 25.9111 17.2803C23.7869 18.3608 20.9222 19 17.8125 19C14.7028 19 11.8381 18.3608 9.71387 17.2803C7.64461 16.2277 6 14.5926 6 12.5C6 10.4074 7.64461 8.7723 9.71387 7.71973C11.8381 6.63923 14.7028 6 17.8125 6Z" fill="white" stroke="#1A1A1A" stroke-width="2"/>
<path d="M46.9375 29C50.0472 29 52.9119 29.6392 55.0361 30.7197C57.1054 31.7723 58.75 33.4074 58.75 35.5C58.75 37.5926 57.1054 39.2277 55.0361 40.2803C52.9119 41.3608 50.0472 42 46.9375 42C43.8278 42 40.9631 41.3608 38.8389 40.2803C36.7696 39.2277 35.125 37.5926 35.125 35.5C35.125 33.4074 36.7696 31.7723 38.8389 30.7197C40.9631 29.6392 43.8278 29 46.9375 29Z" fill="white" stroke="#1A1A1A" stroke-width="2"/>
<path d="M6 12.25V50.875" stroke="#1A1A1A" stroke-width="2" stroke-linecap="round"/>
<path d="M35.125 35.25V50.75" stroke="#1A1A1A" stroke-width="2" stroke-linecap="round"/>
<path d="M29.625 12.25V50.875" stroke="#1A1A1A" stroke-width="2" stroke-linecap="round"/>
<path d="M58.75 35.25V50.75" stroke="#1A1A1A" stroke-width="2" stroke-linecap="round"/>
<path d="M52.9604 21.0345L49.5275 24.5321V14.8802C49.5277 14.5347 49.4598 14.1926 49.3279 13.8734C49.1959 13.5543 49.0024 13.2642 48.7583 13.02C48.5143 12.7757 48.2246 12.582 47.9058 12.4499C47.5869 12.3177 47.2452 12.2498 46.9001 12.25H46.847C46.5019 12.2498 46.1602 12.3177 45.8414 12.4499C45.5225 12.582 45.2328 12.7757 44.9888 13.02C44.7448 13.2642 44.5513 13.5543 44.4193 13.8734C44.2873 14.1926 44.2195 14.5347 44.2196 14.8802V24.5321L43.8746 24.0738L40.8916 21.1155C40.4418 20.6488 39.8429 20.3544 39.199 20.2833C38.555 20.2122 37.9065 20.3689 37.3659 20.7263C37.0518 20.9466 36.7898 21.2333 36.5986 21.5661C36.4074 21.8989 36.2916 22.2697 36.2593 22.6522C36.227 23.0348 36.2791 23.4198 36.4118 23.7799C36.5446 24.1401 36.7547 24.4667 37.0275 24.7366L45.0875 32.7281C45.5883 33.2227 46.2636 33.5 46.9671 33.5C47.6707 33.5 48.3459 33.2227 48.8468 32.7281L56.721 24.7579C56.9677 24.5144 57.1637 24.2243 57.2974 23.9043C57.4311 23.5844 57.5 23.241 57.5 22.8942C57.5 22.5474 57.4311 22.204 57.2974 21.8841C57.1637 21.5641 56.9677 21.274 56.721 21.0305C56.2197 20.5357 55.5438 20.2586 54.8398 20.2594C54.1359 20.2601 53.4606 20.5386 52.9604 21.0345Z" fill="#1A1A1A"/>
</svg>
