<svg width="256" height="256" viewBox="0 0 256 256" fill="none" xmlns="http://www.w3.org/2000/svg">
<path d="M24 204.5C24 212.581 30.2233 219.231 38.8541 223.622C47.6541 228.098 59.3092 230.5 71.25 230.5C83.1908 230.5 94.8459 228.098 103.646 223.622C112.277 219.231 118.5 212.581 118.5 204.5" stroke="black" stroke-width="8"/>
<path d="M24 173C24 181.081 30.2233 187.731 38.8541 192.122C47.6541 196.598 59.3092 199 71.25 199C83.1908 199 94.8459 196.598 103.646 192.122C112.277 187.731 118.5 181.081 118.5 173" stroke="black" stroke-width="8"/>
<path d="M24 143C24 146.977 25.5518 150.704 28.1905 153.945C30.8071 157.158 34.4874 159.9 38.8541 162.122C43.2357 164.35 48.3465 166.075 53.8743 167.239C59.4082 168.405 65.3095 169 71.25 169C77.1905 169 83.0918 168.405 88.6257 167.239C94.1535 166.075 99.2642 164.35 103.646 162.122C108.013 159.9 111.693 157.158 114.31 153.945C116.948 150.704 118.5 146.977 118.5 143" stroke="black" stroke-width="8"/>
<path d="M24 111.5C24 119.581 30.2233 126.231 38.8541 130.622C47.6541 135.098 59.3092 137.5 71.25 137.5C83.1908 137.5 94.8459 135.098 103.646 130.622C112.277 126.231 118.5 119.581 118.5 111.5" stroke="black" stroke-width="8"/>
<path d="M140.5 203.5C140.5 211.581 146.723 218.231 155.354 222.622C164.154 227.098 175.809 229.5 187.75 229.5C199.691 229.5 211.346 227.098 220.146 222.622C228.777 218.231 235 211.581 235 203.5" stroke="black" stroke-width="8"/>
<path d="M24.0723 79.5185C23.6774 83.5588 24.9108 87.4376 27.3583 90.8563C29.775 94.2321 33.3368 97.1224 37.6273 99.4738C41.9337 101.834 47.0243 103.68 52.572 104.953C58.127 106.227 64.0923 106.917 70.1253 106.993C76.1587 107.069 82.1774 106.531 87.8371 105.401C93.4906 104.272 98.7301 102.563 103.228 100.331C107.71 98.1075 111.493 95.3451 114.184 92.0973C116.898 88.8223 118.5 85.0418 118.5 81" stroke="black" stroke-width="8"/>
<path d="M140.572 171.518C140.177 175.559 141.411 179.438 143.858 182.856C146.275 186.232 149.837 189.122 154.127 191.474C158.434 193.834 163.524 195.68 169.072 196.953C174.627 198.227 180.592 198.917 186.625 198.993C192.659 199.069 198.677 198.531 204.337 197.401C209.991 196.272 215.23 194.563 219.728 192.331C224.21 190.107 227.993 187.345 230.684 184.097C233.398 180.822 235 177.042 235 173" stroke="black" stroke-width="8"/>
<path d="M71.25 24C83.6889 24 95.1484 26.5558 103.646 30.8779C111.923 35.0882 118.5 41.6297 118.5 50C118.5 58.3703 111.923 64.9118 103.646 69.1221C95.1484 73.4442 83.6889 76 71.25 76C58.8111 76 47.3516 73.4442 38.8545 69.1221C30.5775 64.9118 24 58.3703 24 50C24 41.6297 30.5775 35.0882 38.8545 30.8779C47.3516 26.5558 58.8111 24 71.25 24Z" fill="white" stroke="black" stroke-width="8"/>
<path d="M187.75 116C200.189 116 211.648 118.556 220.146 122.878C228.423 127.088 235 133.63 235 142C235 150.37 228.423 156.912 220.146 161.122C211.648 165.444 200.189 168 187.75 168C175.311 168 163.852 165.444 155.354 161.122C147.077 156.912 140.5 150.37 140.5 142C140.5 133.63 147.077 127.088 155.354 122.878C163.852 118.556 175.311 116 187.75 116Z" fill="white" stroke="black" stroke-width="8"/>
<path d="M24 49V203.5" stroke="black" stroke-width="8" stroke-linecap="round"/>
<path d="M140.5 141V203" stroke="black" stroke-width="8" stroke-linecap="round"/>
<path d="M118.5 49V203.5" stroke="black" stroke-width="8" stroke-linecap="round"/>
<path d="M235 141V203" stroke="black" stroke-width="8" stroke-linecap="round"/>
<path d="M211.841 84.1379L198.11 98.1283V59.5207C198.111 58.1389 197.839 56.7705 197.311 55.4938C196.784 54.217 196.009 53.0569 195.033 52.0799C194.057 51.1028 192.898 50.3279 191.623 49.7994C190.348 49.271 188.981 48.9993 187.6 49H187.388C186.008 48.9993 184.641 49.271 183.365 49.7994C182.09 50.3279 180.931 51.1028 179.955 52.0799C178.979 53.0569 178.205 54.217 177.677 55.4938C177.149 56.7705 176.878 58.1389 176.879 59.5207V98.1283L175.499 96.2951L163.566 84.4621C161.767 82.5952 159.372 81.4175 156.796 81.1331C154.22 80.8487 151.626 81.4757 149.463 82.9052C148.207 83.7864 147.159 84.9331 146.395 86.2643C145.63 87.5955 145.166 89.0786 145.037 90.6089C144.908 92.1391 145.116 93.679 145.647 95.1198C146.178 96.5605 147.019 97.8669 148.11 98.9466L180.35 130.912C182.353 132.891 185.054 134 187.868 134C190.683 134 193.384 132.891 195.387 130.912L226.884 99.0316C227.871 98.0577 228.655 96.8971 229.19 95.6173C229.725 94.3376 230 92.9641 230 91.5768C230 90.1895 229.725 88.816 229.19 87.5362C228.655 86.2564 227.871 85.0959 226.884 84.122C224.879 82.1428 222.175 81.0346 219.359 81.0376C216.544 81.0405 213.842 82.1545 211.841 84.1379Z" fill="#040405"/>
</svg>
