<svg width="64" height="64" viewBox="0 0 64 64" fill="none" xmlns="http://www.w3.org/2000/svg">
<path d="M26.225 10.8805C27.6934 9.62911 28.4276 9.00342 29.1953 8.6365C30.9709 7.78783 33.035 7.78783 34.8106 8.6365C35.5783 9.00342 36.3124 9.62911 37.781 10.8805C38.3654 11.3786 38.6576 11.6276 38.9698 11.8368C39.6852 12.3163 40.4886 12.6491 41.3334 12.8159C41.7022 12.8887 42.0848 12.9193 42.8504 12.9803C44.7736 13.1338 45.7351 13.2106 46.5375 13.4939C48.393 14.1494 49.8527 15.6089 50.5082 17.4645C50.7915 18.2668 50.8681 19.2284 51.0218 21.1517C51.0827 21.9171 51.1132 22.2999 51.1861 22.6685C51.3528 23.5134 51.6856 24.3168 52.1653 25.0323C52.3744 25.3444 52.6234 25.6366 53.1216 26.221C54.3729 27.6895 54.9987 28.4239 55.3656 29.1913C56.2141 30.9669 56.2141 33.0311 55.3656 34.8066C54.9987 35.5744 54.3729 36.3085 53.1216 37.777C52.6234 38.3614 52.3744 38.6536 52.1653 38.9659C51.6856 39.6813 51.3528 40.4847 51.1861 41.3298C51.1132 41.6983 51.0827 42.0811 51.0218 42.8465C50.8681 44.7697 50.7915 45.7312 50.5082 46.5336C49.8527 48.3891 48.393 49.8488 46.5375 50.5043C45.7351 50.7876 44.7736 50.8642 42.8504 51.0178C42.0848 51.0788 41.7022 51.1095 41.3334 51.1822C40.4886 51.3491 39.6852 51.6816 38.9698 52.1613C38.6576 52.3705 38.3654 52.6194 37.781 53.1176C36.3124 54.369 35.5783 54.9948 34.8106 55.3617C33.035 56.2102 30.9709 56.2102 29.1953 55.3617C28.4276 54.9948 27.6934 54.369 26.225 53.1176C25.6405 52.6194 25.3483 52.3705 25.0362 52.1613C24.3208 51.6816 23.5173 51.3491 22.6724 51.1822C22.3038 51.1095 21.921 51.0788 21.1556 51.0178C19.2323 50.8642 18.2707 50.7876 17.4684 50.5043C15.6128 49.8488 14.1532 48.3891 13.4978 46.5336C13.2145 45.7312 13.1377 44.7697 12.9843 42.8465C12.9232 42.0811 12.8926 41.6983 12.8198 41.3298C12.653 40.4847 12.3202 39.6813 11.8407 38.9659C11.6316 38.6536 11.3825 38.3614 10.8844 37.777C9.63303 36.3085 9.00733 35.5744 8.64039 34.8066C7.79174 33.0311 7.79174 30.9669 8.64039 29.1913C9.00733 28.4236 9.63303 27.6895 10.8844 26.221C11.3825 25.6366 11.6316 25.3444 11.8407 25.0323C12.3202 24.3168 12.653 23.5134 12.8198 22.6685C12.8926 22.2999 12.9232 21.9171 12.9843 21.1517C13.1377 19.2284 13.2145 18.2668 13.4978 17.4645C14.1532 15.6089 15.6128 14.1494 17.4684 13.4939C18.2707 13.2106 19.2323 13.1338 21.1556 12.9803C21.921 12.9193 22.3038 12.8887 22.6724 12.8159C23.5173 12.6491 24.3208 12.3163 25.0362 11.8368C25.3483 11.6276 25.6405 11.3786 26.225 10.8805Z" stroke="#4F4F4F" stroke-width="3.90637"/>
<path d="M22.8867 33.3022L28.0952 38.5107L41.1165 25.4895" stroke="#4F4F4F" stroke-width="3.90637" stroke-linecap="round" stroke-linejoin="round"/>
</svg>
