<svg width="64" height="64" viewBox="0 0 64 64" fill="none" xmlns="http://www.w3.org/2000/svg">
<circle cx="25" cy="16" r="13" stroke="#1A1A1A" stroke-width="2.25"/>
<circle cx="25" cy="16" r="7" stroke="#1A1A1A" stroke-width="2.25"/>
<path d="M20.5011 50.5C19.5 47.5 17.5011 42 17.5011 42C16.3011 38.6 17.3344 36.9167 18.0011 36.5L22.0011 34V18.5C22.0011 16.6998 22.8295 15 25.5 15C27.4989 15 28.5 16.5 28.5011 18.5C28.5035 23 28.5011 27 28.5011 29.5C28.5011 27.5 31 26.5 32 26.5C34 26.5 35.5005 28.7498 35.5011 30C35.5 28.5 36.653 27.5 38.75 27.5C40.5 27.5 42 29.5 42.0011 31C42 29.5 43.9629 28.3434 45.5 28.5C47.2042 28.6736 48.5011 30.1614 48.5011 31.5V47.5C48.5011 51.5064 45.5075 55 41.5011 55H26.5011C23.5721 55 21.4282 53.2783 20.5011 50.5Z" fill="white"/>
<path d="M42.0011 31C42 29.5 43.9629 28.3434 45.5 28.5C47.2042 28.6736 48.5011 30.1614 48.5011 31.5C48.5011 35 48.5011 40.5 48.5011 47.5C48.5011 51.5064 45.5075 55 41.5011 55C36 55 33 55 26.5011 55C23.5721 55 21.4282 53.2783 20.5011 50.5C19.5 47.5 17.5011 42 17.5011 42C16.3011 38.6 17.3344 36.9167 18.0011 36.5L22.0011 34M42.0011 31C42 29.5 40.5 27.5 38.75 27.5C36.653 27.5 35.5 28.5 35.5011 30M42.0011 31L42 37M35.5011 30C35.5005 28.7498 34 26.5 32 26.5C31 26.5 28.5011 27.5 28.5011 29.5C28.5011 27 28.5035 23 28.5011 18.5C28.5 16.5 27.4989 15 25.5 15C22.8295 15 22.0011 16.6998 22.0011 18.5C22.0011 23.4999 22.0011 34 22.0011 34M35.5011 30V36M22.0011 42V34M28.5 29.5L28.5011 35.5" stroke="#1A1A1A" stroke-width="2" stroke-linecap="round"/>
</svg>
