<svg width="64" height="64" viewBox="0 0 64 64" fill="none" xmlns="http://www.w3.org/2000/svg">
<rect x="13.3633" y="30.6592" width="6.13636" height="24.5455" rx="0.306818" fill="#E3E3E3" stroke="#1A1A1A" stroke-width="1.84091"/>
<rect x="24.4102" y="24.5227" width="6.13636" height="30.6818" rx="0.306818" fill="#E3E3E3" stroke="#1A1A1A" stroke-width="1.84091"/>
<rect x="35.4531" y="17.1592" width="6.13636" height="38.0455" rx="0.306818" fill="#E3E3E3" stroke="#1A1A1A" stroke-width="1.84091"/>
<rect x="46.5" y="9.79541" width="6.13636" height="45.4091" rx="0.306818" fill="#E3E3E3" stroke="#1A1A1A" stroke-width="1.84091"/>
<path d="M26.6628 30.8134L6.9196 49.4283C6.41615 49.903 6.40444 50.6998 6.89371 51.1891L10.0413 54.3367C10.5206 54.8159 11.2976 54.8159 11.7769 54.3367L26.662 39.4516C27.1203 38.9933 27.8559 38.9703 28.3418 39.3991L37.0761 47.1058C37.5489 47.5231 38.2611 47.514 38.7232 47.0849L54.9253 32.0401C55.0189 31.9532 55.1635 31.9526 55.2578 32.0387L58.323 34.8383C58.3968 34.9058 58.5161 34.8612 58.5276 34.7618L59.9818 22.2247C59.9911 22.1452 59.923 22.0783 59.8438 22.0889L47.2463 23.7627C47.1455 23.7761 47.1038 23.8992 47.1757 23.9711L50.0083 26.8036C50.1041 26.8995 50.1041 27.0549 50.0083 27.1508L38.7244 38.4347C38.2661 38.8929 37.5305 38.9159 37.0446 38.4871L28.3167 30.786C27.8411 30.3664 27.1242 30.3783 26.6628 30.8134Z" fill="white" stroke="#1A1A1A" stroke-width="1.84091"/>
</svg>
