<svg width="64" height="64" viewBox="0 0 64 64" fill="none" xmlns="http://www.w3.org/2000/svg">
<path d="M51.2314 25.1034L54.009 24.2292L53.1066 22.2272C52.444 23.059 51.7813 24.1306 51.2314 25.1034ZM50.2868 15.953L44.8445 3.82764L5 6.08352L16.0397 36.1995L37.2873 29.5024C35.9337 27.5567 35.4403 25.2444 37.0053 24.1165C38.7536 22.8475 41.3902 24.3138 43.068 26.3864C44.6894 23.6794 49.2434 17.377 50.2868 15.953Z" fill="#1A1A1A"/>
<path d="M43.6032 12.5904C45.2669 12.5904 46.6204 11.3214 46.6204 9.74233C46.6204 8.16322 45.2669 6.89429 43.6032 6.89429C41.9395 6.89429 40.5859 8.16322 40.5859 9.74233C40.5859 11.3074 41.9395 12.5904 43.6032 12.5904ZM41.1358 13.817H46.0705V26.7178H41.1358V13.817Z" fill="#FEFEFE"/>
<path d="M38.6955 17.5819C38.7378 17.596 38.766 17.5819 38.766 17.5396V14.2686C38.766 14.2263 38.7378 14.184 38.6955 14.1558C38.6955 14.1558 38.047 13.7328 36.0731 13.62C35.9744 13.5636 34.2402 13.5495 33.7749 13.62C26.5843 14.1981 26.3164 19.4007 26.3164 19.6263V20.8952C26.3164 21.0503 26.3164 26.3657 33.7749 26.831C34.5081 26.8874 35.9321 26.831 36.0731 26.831C37.7932 26.831 38.9775 26.3093 38.9775 26.3093C39.0198 26.2952 39.048 26.2529 39.048 26.2106V23.1511C39.048 23.1088 39.0198 23.0947 38.9916 23.1229C38.9916 23.1229 38.4559 23.5459 36.1154 23.7856C35.4527 23.856 35.1284 23.8279 34.8887 23.7856C31.5613 23.2216 31.4062 20.7965 31.4062 20.7965C31.4062 20.7542 31.3921 20.6837 31.3921 20.6555V19.725C31.3921 19.6827 31.3921 19.6122 31.4062 19.584C31.4062 19.584 31.6318 16.9756 34.8887 16.6936H36.1154C37.5394 16.8769 38.6955 17.5819 38.6955 17.5819Z" fill="#FEFEFE"/>
<path d="M12.6172 26.6758C12.6172 26.7181 12.6454 26.7463 12.6877 26.7463H17.4955C17.5378 26.7463 17.566 26.7181 17.566 26.6758V22.9254C17.566 22.8831 17.5942 22.8549 17.6365 22.8549C17.6365 22.8549 25.3206 23.4048 25.3206 18.2586C25.3206 14.1839 20.4987 13.7468 18.9195 13.8173C18.8914 13.8173 12.6877 13.8173 12.6877 13.8173C12.6454 13.8173 12.6172 13.8455 12.6172 13.8878V26.6758ZM17.4814 19.9928V16.6231H18.6658C18.6658 16.6231 20.3718 16.6936 20.5128 17.8638C20.541 17.9484 20.541 18.5265 20.5128 18.5547C20.2872 19.9223 18.8068 19.9928 18.8068 19.9928H17.4814Z" fill="#FEFEFE"/>
<path d="M43.7445 32.9426C44.1393 32.9426 44.4495 32.9426 44.957 32.717C46.7053 31.8006 52.6129 17.3771 58.8448 12.9358C58.8871 12.9076 58.9294 12.8653 58.9576 12.823C58.9999 12.7666 58.9999 12.7102 58.9999 12.7102C58.9999 12.7102 58.9999 12.4141 58.0834 12.4141C52.5424 12.259 46.7758 23.8909 43.7445 28.4873C43.7022 28.5437 43.5048 28.4873 43.5048 28.4873C43.5048 28.4873 41.4745 26.0904 39.7121 25.1739C39.6698 25.1598 39.4724 25.0894 39.2609 25.1035C39.1199 25.1035 38.3022 25.2726 37.9215 25.6674C37.4703 26.1468 37.4844 26.4147 37.4844 26.9928C37.4844 27.035 37.5126 27.2324 37.569 27.3311C38.0061 28.0925 39.9659 30.7995 41.5873 32.2941C41.827 32.4774 42.2077 32.9426 43.7445 32.9426Z" fill="#1A1A1A"/>
<path d="M13.9841 58.9784L15.2254 59.3508C15.1426 59.7025 15.0185 59.9921 14.8323 60.2197C14.6461 60.4473 14.4392 60.6335 14.1703 60.7369C13.9013 60.861 13.5703 60.9231 13.1565 60.9231C12.66 60.9231 12.2669 60.861 11.9359 60.7162C11.6256 60.5714 11.3566 60.3231 11.1291 59.9507C10.9015 59.599 10.7773 59.1232 10.7773 58.5646C10.7773 57.8198 10.9842 57.2405 11.3773 56.8268C11.7704 56.413 12.3497 56.2268 13.0738 56.2268C13.6531 56.2268 14.0875 56.3509 14.4185 56.5785C14.7495 56.8061 14.9978 57.1578 15.1426 57.6543L13.9013 57.9233C13.8599 57.7785 13.8186 57.675 13.7565 57.6129C13.6737 57.5095 13.591 57.4267 13.4669 57.3647C13.3427 57.3026 13.2186 57.2819 13.0945 57.2819C12.7841 57.2819 12.5359 57.4061 12.3704 57.675C12.2462 57.8612 12.1842 58.1715 12.1842 58.5646C12.1842 59.0611 12.2669 59.4128 12.4117 59.599C12.5566 59.7852 12.7841 59.8887 13.0531 59.8887C13.322 59.8887 13.5289 59.8059 13.6531 59.6611C13.8186 59.4749 13.922 59.268 13.9841 58.9784Z" fill="#1A1A1A"/>
<path d="M15.7188 58.5643C15.7188 57.8195 15.9256 57.2402 16.3394 56.8265C16.7532 56.4127 17.3325 56.2058 18.0772 56.2058C18.8427 56.2058 19.422 56.4127 19.8358 56.8058C20.2495 57.2196 20.4564 57.7781 20.4564 58.5229C20.4564 59.0608 20.3737 59.4953 20.1875 59.8263C20.0013 60.1573 19.753 60.4263 19.4013 60.6125C19.0703 60.7987 18.6358 60.9021 18.1393 60.9021C17.6221 60.9021 17.2083 60.8194 16.8566 60.6538C16.5256 60.4883 16.2567 60.2401 16.0291 59.8677C15.8015 59.4953 15.7188 59.1022 15.7188 58.5643ZM17.1256 58.5643C17.1256 59.0195 17.2083 59.3505 17.3738 59.5574C17.5393 59.7642 17.7669 59.8677 18.0772 59.8677C18.3876 59.8677 18.6151 59.7642 18.7807 59.578C18.9462 59.3712 19.0289 59.0195 19.0289 58.5229C19.0289 58.0885 18.9462 57.7781 18.76 57.5919C18.5945 57.3851 18.3462 57.3023 18.0566 57.3023C17.7669 57.3023 17.5393 57.4058 17.3738 57.6126C17.2083 57.7781 17.1256 58.1092 17.1256 58.5643Z" fill="#1A1A1A"/>
<path d="M21.1859 56.2886H23.0272L23.7306 59.0608L24.434 56.2886H26.2753V60.8401H25.1167V57.3644L24.2271 60.8401H23.1927L22.3031 57.3644V60.8401H21.1445V56.2886H21.1859Z" fill="#1A1A1A"/>
<path d="M27.1758 56.2886H29.5136C30.0308 56.2886 30.4032 56.4127 30.6515 56.661C30.8997 56.9092 31.0239 57.2402 31.0239 57.6954C31.0239 58.1505 30.879 58.5229 30.6101 58.7712C30.3411 59.0402 29.9067 59.1643 29.3481 59.1643H28.5826V60.8607H27.1758V56.2886ZM28.5826 58.2333H28.9343C29.2033 58.2333 29.3895 58.1919 29.5136 58.0885C29.617 57.985 29.6791 57.8816 29.6791 57.7368C29.6791 57.592 29.6377 57.4678 29.5343 57.3644C29.4308 57.2609 29.2653 57.2196 28.9964 57.2196H28.6033V58.2333H28.5826Z" fill="#1A1A1A"/>
<path d="M31.7734 56.2886H33.1803V59.7229H35.3732V60.8401H31.7734V56.2886Z" fill="#1A1A1A"/>
<path d="M36.0781 56.2886H37.4849V60.8401H36.0781V56.2886Z" fill="#1A1A1A"/>
<path d="M41.295 60.0743H39.702L39.4744 60.8191H38.0469L39.764 56.2676H41.295L43.0121 60.8191H41.5432L41.295 60.0743ZM41.0053 59.1019L40.5088 57.4675L40.0123 59.1019H41.0053Z" fill="#1A1A1A"/>
<path d="M43.4375 56.2886H44.7409L46.458 58.8126V56.2886H47.7821V60.8401H46.458L44.7616 58.3367V60.8401H43.4375V56.2886Z" fill="#1A1A1A"/>
<path d="M48.4141 56.2886H52.6966V57.4058H51.2691V60.8401H49.8623V57.4058H48.4347V56.2886H48.4141Z" fill="#1A1A1A"/>
<path d="M10.625 38.9722H17.3902C18.7349 38.9722 19.8107 39.1584 20.6176 39.5101C21.4451 39.8825 22.1278 40.3997 22.645 41.0617C23.1829 41.7444 23.576 42.5306 23.8036 43.4202C24.0519 44.3098 24.176 45.2615 24.176 46.2752C24.176 47.8476 23.9898 49.0682 23.6381 49.9371C23.2864 50.806 22.7899 51.5301 22.1485 52.1301C21.5072 52.7094 20.8245 53.1024 20.1004 53.3093C19.1073 53.5783 18.197 53.7024 17.3902 53.7024H10.625V38.9722ZM15.1765 42.303V50.3509H16.2937C17.2453 50.3509 17.9281 50.2474 18.3211 50.0405C18.7142 49.8337 19.0452 49.4613 19.2728 48.944C19.5004 48.4268 19.6245 47.5579 19.6245 46.3787C19.6245 44.8063 19.3763 43.7512 18.859 43.1719C18.3418 42.5927 17.5143 42.303 16.3143 42.303H15.1765Z" fill="#1A1A1A"/>
<path d="M25.3008 48.8405L29.6454 48.5716C29.7488 49.275 29.935 49.8129 30.2247 50.1853C30.7005 50.7852 31.3625 51.0749 32.2314 51.0749C32.8728 51.0749 33.39 50.9301 33.7417 50.6197C34.0934 50.3094 34.2796 49.9577 34.2796 49.5646C34.2796 49.1922 34.1141 48.8405 33.7831 48.5302C33.4521 48.2199 32.6659 47.9509 31.4453 47.682C29.4385 47.2268 28.0317 46.6268 27.1628 45.882C26.2938 45.1373 25.8801 44.1856 25.8801 43.027C25.8801 42.2616 26.1076 41.5581 26.5421 40.8754C26.9766 40.1927 27.6386 39.6755 28.5282 39.2824C29.4178 38.8893 30.6177 38.7031 32.1487 38.7031C34.0313 38.7031 35.4795 39.0548 36.4519 39.7582C37.445 40.4617 38.0242 41.5788 38.2104 43.1098L33.9072 43.3581C33.7831 42.696 33.5555 42.2202 33.1831 41.9099C32.8107 41.5995 32.3142 41.4547 31.6729 41.4547C31.135 41.4547 30.7419 41.5581 30.4729 41.7857C30.204 42.0133 30.0798 42.2822 30.0798 42.6133C30.0798 42.8408 30.1833 43.0684 30.4109 43.2546C30.6177 43.4408 31.135 43.627 31.9418 43.7925C33.9279 44.227 35.3554 44.6614 36.2243 45.0959C37.0933 45.5303 37.7139 46.0889 38.107 46.7303C38.5001 47.3716 38.6863 48.1164 38.6863 48.9233C38.6863 49.8749 38.4173 50.7439 37.9001 51.53C37.3829 52.3369 36.6381 52.9368 35.7071 53.3506C34.7761 53.7644 33.5762 53.9713 32.1487 53.9713C29.6454 53.9713 27.9075 53.4954 26.9352 52.5231C25.9835 51.5507 25.4456 50.3301 25.3008 48.8405Z" fill="#1A1A1A"/>
<path d="M39.8125 48.8405L44.1571 48.5716C44.2605 49.275 44.4467 49.8129 44.7364 50.1853C45.2122 50.7852 45.8742 51.0749 46.7432 51.0749C47.3845 51.0749 47.9017 50.9301 48.2534 50.6197C48.6051 50.3094 48.7913 49.9577 48.7913 49.5646C48.7913 49.1922 48.6258 48.8405 48.2948 48.5302C47.9638 48.2199 47.1776 47.9509 45.957 47.682C43.9502 47.2268 42.5434 46.6268 41.6745 45.882C40.8262 45.1373 40.3918 44.1856 40.3918 43.027C40.3918 42.2616 40.6194 41.5581 41.0538 40.8754C41.4883 40.1927 42.1503 39.6755 43.0399 39.2824C43.9295 38.8893 45.1295 38.7031 46.6604 38.7031C48.5431 38.7031 49.9913 39.0548 50.9636 39.7582C51.9567 40.4617 52.5359 41.5788 52.7221 43.1098L48.4189 43.3581C48.2948 42.696 48.0672 42.2202 47.6948 41.9099C47.3224 41.5995 46.8259 41.4547 46.1846 41.4547C45.6467 41.4547 45.2536 41.5581 44.9846 41.7857C44.7157 42.0133 44.5915 42.2822 44.5915 42.6133C44.5915 42.8408 44.695 43.0684 44.9226 43.2546C45.1295 43.4408 45.6467 43.627 46.4535 43.7925C48.4396 44.227 49.8671 44.6614 50.7361 45.0959C51.605 45.5303 52.2256 46.0889 52.6187 46.7303C53.0118 47.3716 53.198 48.1164 53.198 48.9233C53.198 49.8749 52.929 50.7439 52.4118 51.53C51.8946 52.3369 51.1498 52.9368 50.2188 53.3506C49.2879 53.7644 48.0879 53.9713 46.6604 53.9713C44.1571 53.9713 42.4192 53.4954 41.4469 52.5231C40.4745 51.5507 39.9366 50.3301 39.8125 48.8405Z" fill="#1A1A1A"/>
</svg>
