<svg width="64" height="64" viewBox="0 0 64 64" fill="none" xmlns="http://www.w3.org/2000/svg">
<path d="M24.6628 39.391L4.9196 20.776C4.41615 20.3013 4.40444 19.5045 4.89371 19.0152L8.04128 15.8677C8.52056 15.3884 9.29762 15.3884 9.7769 15.8677L24.662 30.7528C25.1203 31.211 25.8559 31.234 26.3418 30.8052L35.0761 23.0985C35.5489 22.6813 36.2611 22.6903 36.7232 23.1194L52.9232 38.1623C53.0177 38.25 53.1639 38.2498 53.258 38.1617L57.5247 34.1682C57.5986 34.099 57.7198 34.144 57.7305 34.2447L59.3479 49.3521C59.3561 49.4288 59.2924 49.494 59.2155 49.4874L43.5359 48.1585C43.4319 48.1497 43.3857 48.0233 43.4595 47.9495L48.0083 43.4007C48.1041 43.3048 48.1041 43.1494 48.0083 43.0536L36.7244 31.7697C36.2661 31.3114 35.5305 31.2885 35.0446 31.7172L26.3167 39.4183C25.8411 39.8379 25.1242 39.8261 24.6628 39.391Z" fill="white" stroke="#1A1A1A" stroke-width="2"/>
</svg>
