<svg width="64" height="64" viewBox="0 0 64 64" fill="none" xmlns="http://www.w3.org/2000/svg">
<path d="M34.9259 21.15C34.9947 21.1538 35.0634 21.1575 35.1343 21.1613C35.8629 21.3409 36.3504 21.7577 36.8461 22.3264C37.294 22.8182 37.7074 23.2347 38.3015 23.524C38.3635 23.5565 38.4255 23.589 38.4894 23.6225C39.6801 24.2187 40.9867 24.2444 42.233 23.8062C42.3791 23.7435 42.524 23.6778 42.6676 23.6092C42.741 23.575 42.8144 23.5407 42.89 23.5054C43.5465 23.1521 44.0136 22.6476 44.509 22.0798C44.9829 21.5493 45.4792 21.2074 46.1848 21.15C46.2523 21.1432 46.3199 21.1364 46.3894 21.1294C47.051 21.1569 47.6324 21.4083 48.2314 21.6876C48.3527 21.744 48.3527 21.744 48.4765 21.8015C50.158 22.5962 52.9129 23.9125 53.7345 25.7863C53.9893 26.6203 53.8313 27.4701 53.5807 28.2801C53.1957 29.596 53.4577 30.9515 54.0419 32.1514C54.6518 33.3311 55.6269 34.1404 56.8171 34.5957C57.0497 34.6603 57.2842 34.7136 57.5195 34.766C58.2691 34.9363 58.8324 35.1819 59.3185 35.8359C60.0736 37.0869 60.0014 38.9116 59.9957 40.3498C59.9955 40.4245 59.9954 40.4993 59.9953 40.5763C59.9843 44.3636 59.9843 44.3636 58.9907 45.4365C58.4882 45.9175 57.9993 46.0701 57.3423 46.2199C56.0222 46.5259 54.8571 47.2133 54.0984 48.4087C53.2971 49.7952 53.0913 51.1376 53.432 52.7129C53.4896 52.9422 53.5568 53.1546 53.6385 53.3749C53.8459 53.9976 53.8525 54.7512 53.6183 55.3657C52.7919 56.9929 50.7966 58.0403 49.3078 58.8629C49.2242 58.9092 49.1406 58.9555 49.0545 59.0032C48.0326 59.5567 47.0214 60.0308 45.8715 59.6453C45.3103 59.392 44.9445 58.9841 44.5728 58.4849C43.7634 57.4087 42.519 56.8328 41.2426 56.6752C39.8638 56.5765 38.5219 57.0584 37.4756 58.0089C37.1962 58.293 36.9593 58.5919 36.7299 58.9214C36.328 59.4798 35.809 59.8511 35.1482 59.9754C33.0341 60.257 30.3152 58.1048 28.7415 56.8372C28.631 56.7464 28.631 56.7464 28.5182 56.6539C28.4553 56.603 28.3925 56.5522 28.3277 56.4998C27.7836 56.0342 27.4445 55.4676 27.3613 54.729C27.3304 53.9655 27.5113 53.3544 27.7573 52.6484C28.1755 51.4363 28.0032 50.0634 27.522 48.9014C26.9105 47.6466 25.9807 46.7306 24.7182 46.2314C24.3963 46.1259 24.0641 46.07 23.7326 46.008C22.9279 45.8569 22.2624 45.609 21.746 44.9022C21.0623 43.7336 21.1319 42.1879 21.135 40.8618C21.1352 40.6283 21.1333 40.3948 21.1313 40.1613C21.1195 36.6551 21.1195 36.6551 21.969 35.4953C22.5582 34.8734 23.2791 34.6554 24.0763 34.5193C24.952 34.3648 25.6386 33.9684 26.3351 33.4034C26.4202 33.3384 26.5052 33.2734 26.5929 33.2064C27.5565 32.2365 28.0395 30.8941 28.1139 29.513C28.1139 28.8319 27.9849 28.2074 27.7804 27.5641C27.5643 26.8573 27.5122 26.1197 27.7728 25.4157C28.752 23.5446 31.4542 22.2922 33.2633 21.5226C33.331 21.4938 33.3988 21.4649 33.4686 21.4352C33.9568 21.2342 34.3967 21.1116 34.9259 21.15ZM30.3778 26.5049C30.4199 26.8863 30.4927 27.2464 30.5828 27.6187C30.7145 28.2101 30.7417 28.7734 30.7366 29.3792C30.7359 29.4835 30.7353 29.5878 30.7346 29.6952C30.6974 31.8058 29.918 33.6209 28.5542 35.1626C28.1934 35.5268 27.7978 35.8315 27.3862 36.1287C27.3215 36.176 27.2568 36.2233 27.1901 36.2721C26.2449 36.9163 25.1699 37.2166 24.0712 37.4062C23.9227 38.0294 23.8565 38.6395 23.8135 39.2799C23.8065 39.3833 23.7995 39.4867 23.7922 39.5933C23.7215 40.7765 23.6894 42.0282 23.9095 43.1975C24.0649 43.2347 24.0649 43.2347 24.2235 43.2727C26.4205 43.8143 28.2522 44.9173 29.5036 46.9608C30.5271 48.7906 30.9122 51.0272 30.411 53.1041C30.3281 53.4088 30.2357 53.709 30.1372 54.0084C30.0459 54.2503 30.0459 54.2503 30.0544 54.4395C30.2505 54.6302 30.4742 54.7871 30.6911 54.9505C30.7895 55.0248 30.7895 55.0248 30.8899 55.1006C31.9773 55.9068 33.3524 56.8501 34.6631 57.1649C34.7004 57.1123 34.7377 57.0597 34.7762 57.0055C35.9466 55.4047 37.626 54.3605 39.5143 54.0137C39.6161 53.9944 39.7178 53.9751 39.8226 53.9551C42.0642 53.723 44.142 54.4017 45.8879 55.904C46.1789 56.1654 46.4213 56.4602 46.65 56.7829C46.7835 56.9308 46.7835 56.9308 46.9734 56.9054C47.2578 56.8014 47.5242 56.67 47.7918 56.5261C47.8483 56.4959 47.9048 56.4657 47.963 56.4346C48.9287 55.9112 49.8169 55.3141 50.6722 54.6099C50.7798 54.5244 50.8875 54.4391 50.9956 54.3544C50.9526 53.9649 50.8798 53.5915 50.7935 53.2099C50.3084 51.0165 50.7073 48.8571 51.7881 46.9364C52.0268 46.5375 52.3096 46.1843 52.6127 45.8377C52.6793 45.7573 52.6793 45.7573 52.7472 45.6753C53.8823 44.3796 55.5399 43.7108 57.1405 43.3679C57.2884 42.497 57.3276 41.6553 57.3233 40.773C57.3224 40.5632 57.3233 40.3535 57.3243 40.1437C57.3249 39.3018 57.2701 38.493 57.1405 37.6617C57.0438 37.6283 56.9471 37.595 56.8474 37.5606C56.7807 37.5369 56.714 37.5131 56.6453 37.4887C56.4822 37.4308 56.3188 37.3742 56.1551 37.3184C55.0803 36.9376 54.1052 36.4247 53.2595 35.6177C53.1933 35.5559 53.1271 35.4941 53.0589 35.4304C51.6148 34.0036 50.8448 32.0052 50.7366 29.9385C50.724 28.8729 50.867 27.8678 51.1573 26.8455C49.9876 25.842 48.7178 25.0564 47.3572 24.3757C47.281 24.335 47.2048 24.2942 47.1263 24.2523C46.8137 24.0721 46.8137 24.0721 46.4741 24.081C46.2834 24.2221 46.1551 24.3912 46.0108 24.5823C44.9907 25.8367 43.2262 26.6267 41.6974 26.8455C39.1962 27.0291 37.2089 26.4662 35.2842 24.7388C35.0449 24.519 34.8532 24.304 34.6631 24.035C33.2882 24.035 31.4422 25.6698 30.3778 26.5049Z" fill="#1A1A1A"/>
<path d="M45.9231 40.5C45.9231 37.5049 43.4951 35.0769 40.5 35.0769C37.5049 35.0769 35.0769 37.5049 35.0769 40.5C35.0769 43.4951 37.5049 45.9231 40.5 45.9231C43.4951 45.9231 45.9231 43.4951 45.9231 40.5ZM48 40.5C48 44.6421 44.6421 48 40.5 48C36.3579 48 33 44.6421 33 40.5C33 36.3579 36.3579 33 40.5 33C44.6421 33 48 36.3579 48 40.5Z" fill="#1A1A1A"/>
<path d="M13.8022 4.11968C13.8493 4.12283 13.8965 4.12597 13.945 4.12921C14.4427 4.25845 14.7733 4.54825 15.1082 4.94214C15.4109 5.28296 15.6907 5.57192 16.0953 5.77524C16.1375 5.79804 16.1798 5.82083 16.2233 5.84432C17.0341 6.26301 17.9293 6.29169 18.7871 6.00198C18.8877 5.96031 18.9876 5.91651 19.0866 5.87071C19.1372 5.84786 19.1877 5.82501 19.2399 5.80147C19.6928 5.56494 20.0171 5.22321 20.3614 4.8383C20.6907 4.47879 21.0337 4.24868 21.5177 4.21538C21.5641 4.21129 21.6104 4.2072 21.6582 4.20298C22.1113 4.22746 22.5076 4.40468 22.9157 4.60119C22.9983 4.64083 22.9983 4.64083 23.0827 4.68127C24.2282 5.24019 26.1049 6.16561 26.652 7.45668C26.8195 8.03035 26.704 8.61139 26.5254 9.1643C26.2504 10.0628 26.4184 10.9939 26.8085 11.8212C27.2165 12.6348 27.8778 13.1977 28.6895 13.5198C28.8484 13.566 29.0086 13.6046 29.1694 13.6425C29.6817 13.7655 30.0656 13.9386 30.3932 14.391C30.9 15.2546 30.835 16.5045 30.8188 17.4899C30.8181 17.5412 30.8174 17.5924 30.8166 17.6452C30.7769 20.2404 30.7769 20.2404 30.0869 20.9672C29.7384 21.2926 29.4022 21.393 28.9507 21.4901C28.0434 21.6885 27.2391 22.1497 26.709 22.9624C26.1482 23.9057 25.9957 24.8239 26.2158 25.9063C26.2533 26.0639 26.2976 26.2101 26.3517 26.3618C26.4885 26.7902 26.4866 27.3067 26.3209 27.7258C25.7408 28.8339 24.3646 29.5347 23.3373 30.0857C23.2796 30.1167 23.222 30.1478 23.1626 30.1797C22.4576 30.5503 21.7606 30.8666 20.9758 30.5927C20.5934 30.4144 20.3462 30.1317 20.0957 29.7865C19.5503 29.0421 18.7024 28.6369 17.829 28.518C16.885 28.4387 15.9613 28.7575 15.2362 29.3999C15.0424 29.5922 14.8775 29.795 14.7175 30.0189C14.4373 30.3982 14.0785 30.6482 13.6246 30.7277C12.1734 30.9028 10.3286 29.4048 9.26089 28.5227C9.18592 28.4596 9.18592 28.4596 9.10943 28.3952C9.06679 28.3599 9.02416 28.3245 8.98023 28.2881C8.61131 27.9644 8.38371 27.5732 8.33299 27.0663C8.3183 26.5429 8.44744 26.1256 8.62208 25.6439C8.91893 24.8168 8.8125 23.8745 8.49268 23.0741C8.0843 22.2091 7.45487 21.5735 6.59397 21.2207C6.37427 21.1456 6.14711 21.1045 5.92048 21.0592C5.37027 20.9488 4.91637 20.7733 4.5685 20.2845C4.10989 19.4779 4.17075 18.4192 4.18408 17.5105C4.18624 17.3505 4.18692 17.1905 4.18751 17.0305C4.20923 14.6276 4.20923 14.6276 4.80126 13.84C5.21029 13.4189 5.7062 13.2756 6.25363 13.1892C6.85508 13.0907 7.32895 12.8249 7.81105 12.4436C7.86988 12.3998 7.92871 12.356 7.98933 12.3108C8.65796 11.6543 9.00036 10.7386 9.06308 9.79274C9.06887 9.32598 8.98579 8.89699 8.85108 8.4544C8.70899 7.96821 8.67958 7.4623 8.86415 6.98204C9.55105 5.70819 11.4135 4.87291 12.6598 4.36089C12.7064 4.3417 12.7531 4.32252 12.8012 4.30275C13.1374 4.1691 13.4399 4.08888 13.8022 4.11968ZM10.6401 7.75059C10.6657 8.01236 10.7125 8.25969 10.7711 8.51561C10.8563 8.92203 10.8701 9.30826 10.8615 9.72339C10.8601 9.79483 10.8588 9.86628 10.8574 9.93989C10.814 11.3859 10.2645 12.6231 9.31677 13.668C9.06644 13.9146 8.79273 14.12 8.50818 14.3202C8.46342 14.352 8.41867 14.3839 8.37255 14.4168C7.71935 14.8502 6.98013 15.0469 6.22561 15.1674C6.11853 15.5932 6.06802 16.0108 6.03308 16.4492C6.02739 16.52 6.0217 16.5909 6.01584 16.6638C5.95732 17.4741 5.92466 18.3316 6.06558 19.1347C6.17175 19.1616 6.17175 19.1616 6.28007 19.1889C7.78108 19.5787 9.02691 20.3502 9.86709 21.7612C10.5529 23.0238 10.7978 24.5597 10.4367 25.9788C10.3773 26.1868 10.3114 26.3918 10.2414 26.5961C10.1767 26.7611 10.1767 26.7611 10.181 26.8909C10.3138 27.0232 10.4657 27.1326 10.613 27.2464C10.6798 27.2982 10.6798 27.2982 10.7479 27.351C11.4862 27.9127 12.4205 28.5708 13.3161 28.7976C13.3421 28.7619 13.3681 28.7262 13.3949 28.6894C14.2106 27.6023 15.3703 26.901 16.6673 26.6794C16.7372 26.6671 16.807 26.6547 16.879 26.6419C18.4171 26.5019 19.8352 26.9847 21.0189 28.029C21.2161 28.2106 21.3797 28.4147 21.5337 28.6378C21.6239 28.7402 21.6239 28.7402 21.7543 28.7244C21.95 28.6556 22.1337 28.5678 22.3183 28.4715C22.3573 28.4513 22.3962 28.4311 22.4364 28.4102C23.1026 28.0598 23.7164 27.6582 24.3084 27.1828C24.3829 27.1252 24.4575 27.0677 24.5323 27.0105C24.5061 26.7432 24.4594 26.4867 24.4035 26.2245C24.0897 24.7172 24.3814 23.2409 25.1384 21.9339C25.3054 21.6626 25.5021 21.4229 25.7128 21.1879C25.7591 21.1334 25.7591 21.1334 25.8064 21.0778C26.5952 20.1995 27.7368 19.7553 28.8366 19.5339C28.9453 18.9384 28.9794 18.3619 28.9839 17.7573C28.9851 17.6135 28.9875 17.4698 28.99 17.326C28.9975 16.7491 28.9668 16.1944 28.8851 15.6236C28.8191 15.5999 28.7531 15.5762 28.6851 15.5518C28.6396 15.535 28.5941 15.5182 28.5472 15.5008C28.436 15.4598 28.3244 15.4196 28.2127 15.3799C27.4794 15.1098 26.8156 14.7501 26.2429 14.1899C26.1981 14.147 26.1533 14.1041 26.1071 14.0598C25.1295 13.0698 24.6189 11.6938 24.5623 10.2766C24.5627 9.54625 24.6693 8.85873 24.8769 8.16066C24.0838 7.46301 23.2203 6.91389 22.2937 6.43584C22.2419 6.40728 22.19 6.37872 22.1366 6.34929C21.9239 6.22313 21.9239 6.22313 21.6911 6.22634C21.5592 6.32147 21.4699 6.43626 21.3693 6.566C20.6596 7.41691 19.4438 7.94332 18.3942 8.08025C16.6786 8.18477 15.3216 7.78215 14.0173 6.58203C13.8552 6.42936 13.7257 6.28042 13.5976 6.09449C12.6555 6.08281 11.3766 7.18735 10.6401 7.75059Z" fill="#1A1A1A"/>
<path d="M20.9033 17.5143C20.9266 15.6337 19.421 14.0904 17.5405 14.067C15.66 14.0437 14.1166 15.5493 14.0933 17.4298C14.07 19.3103 15.5755 20.8537 17.4561 20.877C19.3366 20.9003 20.88 19.3948 20.9033 17.5143ZM22.2073 17.5304C22.1751 20.1312 20.0406 22.2133 17.4399 22.1811C14.8391 22.1488 12.757 20.0144 12.7892 17.4136C12.8215 14.8129 14.956 12.7307 17.5567 12.763C20.1574 12.7953 22.2396 14.9297 22.2073 17.5304Z" fill="#1A1A1A"/>
</svg>
