<svg width="64" height="64" viewBox="0 0 64 64" fill="none" xmlns="http://www.w3.org/2000/svg">
<path d="M52.1123 7.00098C53.9049 7.03797 55.4368 8.34453 55.7324 10.1299L55.7461 10.2168L55.7891 10.5264C56.2324 13.7344 56.5174 17.2321 55.4873 21.4512C54.0678 27.2646 51.6343 30.7473 48.0225 35.0078C48.0473 35.0806 48.0755 35.1571 48.1025 35.2383C48.3156 35.8794 48.5949 36.7821 48.8613 37.8369C49.3839 39.9059 49.9027 42.7282 49.6816 45.3496C49.3959 48.7377 48.4431 52.1163 47.2109 54.3193C46.6469 55.3278 45.786 56.5321 44.5391 57.0176C43.8056 57.3031 42.9533 57.3279 42.1406 56.9365C41.3968 56.5783 40.8906 55.969 40.5439 55.3799C38.8269 52.4615 37.1535 49.7319 35.9092 47.7305C35.2873 46.7302 34.7734 45.9123 34.415 45.3457C34.399 45.3203 34.3826 45.2958 34.3672 45.2715C33.468 45.7728 32.6954 46.1852 32.1143 46.4873C30.6421 47.2523 28.8883 46.9278 27.7637 45.7881L17.3379 35.2207C16.2613 34.1294 15.9377 32.4643 16.6152 31.0322C16.9749 30.2722 17.5121 29.1715 18.1934 27.8848C17.5733 27.5175 16.7674 27.0416 15.8574 26.5088C13.7617 25.2817 11.1278 23.7591 8.94141 22.5566C8.33261 22.2218 7.57839 21.6425 7.28418 20.6689C6.96572 19.615 7.35882 18.7091 7.76074 18.1484C8.15026 17.6052 8.68053 17.178 9.16699 16.8506C9.67532 16.5084 10.2574 16.1953 10.8584 15.9141C13.2091 14.814 16.4806 13.9127 18.6543 13.6953C22.0272 13.3581 24.5625 13.6022 26.3018 13.957C27.1701 14.1342 27.8362 14.3376 28.3047 14.5078C28.3083 14.5091 28.3119 14.5104 28.3154 14.5117C32.1567 11.4766 35.2283 10.0936 40.0264 8.58301C44.6398 7.13054 47.9404 7.00993 52.0254 7L52.1123 7.00098ZM38.1533 43.8145C38.4687 44.3155 38.8522 44.9288 39.2881 45.6299C40.445 47.4907 41.9716 49.9795 43.5645 52.6709C43.6188 52.5842 43.677 52.4865 43.7383 52.377C44.6277 50.7868 45.4658 47.9912 45.7168 45.0156C45.8825 43.0508 45.4897 40.7338 45.0039 38.8105C44.9599 38.6365 44.9154 38.467 44.8711 38.3027L38.1533 43.8145ZM51.835 10.9795C47.9932 10.9928 45.1945 11.1272 41.2217 12.3779C36.4432 13.8824 33.7749 15.1421 30.0117 18.2568C29.2919 18.8526 28.5752 19.5727 27.8721 20.376L24.6592 24.6982C24.4409 25.0342 24.2267 25.3728 24.0166 25.7119C22.3266 28.4397 21.0049 31.07 20.2969 32.5547L30.4639 42.8604C31.9495 42.083 34.5366 40.6673 37.2295 38.9062C40.0677 37.0502 42.8871 34.8979 44.6924 32.7842C48.3102 28.5481 50.3789 25.599 51.6221 20.5078C52.4861 16.969 52.2602 14.0319 51.835 10.9795ZM24.874 17.7412C23.5296 17.5276 21.5998 17.3993 19.0498 17.6543C17.3556 17.8237 14.5191 18.5938 12.5449 19.5176C12.3782 19.5956 12.2223 19.6729 12.0781 19.748C14.0189 20.8354 16.136 22.0619 17.8682 23.0762C18.6724 23.5471 19.3962 23.9739 19.9834 24.3213L21.3877 22.4307C22.3978 20.8828 23.5355 19.3068 24.7646 17.8867L24.874 17.7412Z" fill="#1A1A1A"/>
<path d="M41.5103 24.3504C41.5103 22.8245 40.2733 21.5875 38.7474 21.5875C37.2214 21.5875 35.9844 22.8245 35.9844 24.3504C35.9844 25.8763 37.2214 27.1133 38.7474 27.1133C40.2733 27.1133 41.5103 25.8763 41.5103 24.3504ZM44.1627 24.3504C44.1627 27.3412 41.7382 29.7657 38.7474 29.7657C35.7566 29.7657 33.332 27.3412 33.332 24.3504C33.332 21.3596 35.7566 18.9351 38.7474 18.9351C41.7382 18.9351 44.1627 21.3596 44.1627 24.3504Z" fill="#1A1A1A"/>
<path d="M14.5274 39.9308C16.4036 39.6291 18.6233 39.9473 20.2571 41.0738C22.2451 42.4446 23.1306 45.033 23.1921 47.1657C23.2513 49.22 22.518 52.1277 19.7261 53.008C16.882 53.9048 14.3357 54.7541 12.4287 55.405C9.44781 56.4223 6.58248 53.5515 7.57552 50.5786L7.82105 49.8392C8.41005 48.0557 9.10378 45.8807 9.75888 43.6443C10.4549 41.2681 12.6944 40.2255 14.5274 39.9308ZM17.9987 44.3493C17.3862 43.927 16.2595 43.6819 15.159 43.8589C14.0154 44.0427 13.6481 44.5206 13.5771 44.7628C12.8496 47.2463 12.0781 49.6462 11.45 51.5354C13.3417 50.8918 15.7992 50.0746 18.5297 49.2137C18.7086 49.1572 19.2575 48.7495 19.2151 47.2804C19.175 45.8897 18.5751 44.7468 17.9987 44.3493Z" fill="#1A1A1A"/>
</svg>
