<svg width="256" height="256" viewBox="0 0 256 256" fill="none" xmlns="http://www.w3.org/2000/svg">
<rect width="256" height="256" fill="white"/>
<path d="M16.611 242.188L126.827 129.211C127.167 128.875 127.379 128.43 127.424 127.953C127.469 127.477 127.345 127.001 127.074 126.607C120.372 117.25 108.004 115.627 103.42 109.339C89.8443 90.7158 86.3995 80.1725 80.5648 80.8268C80.1577 80.8854 79.7833 81.083 79.5052 81.386L39.6918 122.2C16.7854 145.661 13.4939 197.373 12.8994 240.678C12.8975 241.108 13.0245 241.53 13.2642 241.888C13.504 242.246 13.8454 242.524 14.2445 242.687C14.6437 242.849 15.0823 242.888 15.5039 242.799C15.9255 242.71 16.3116 242.498 16.611 242.188Z" fill="#017CEE"/>
<path d="M242.169 239.396L129.192 129.172C128.856 128.831 128.41 128.62 127.933 128.574C127.456 128.529 126.979 128.654 126.584 128.926C117.227 135.632 115.605 147.995 109.317 152.579C90.6936 166.155 80.1503 169.6 80.8046 175.435C80.8641 175.841 81.0615 176.213 81.3638 176.491L122.178 216.304C145.639 239.21 197.351 242.502 240.655 243.096C241.084 243.097 241.503 242.969 241.859 242.73C242.215 242.492 242.492 242.152 242.655 241.755C242.817 241.358 242.857 240.922 242.771 240.502C242.684 240.082 242.475 239.696 242.169 239.396Z" fill="#00AD46"/>
<path d="M122.185 216.305C109.36 203.792 103.417 179.042 127.996 128.002C88.0375 145.859 74.0359 169.332 80.9216 176.053L122.185 216.305Z" fill="#04D659"/>
<path d="M239.378 13.8327L129.166 126.809C128.825 127.145 128.613 127.59 128.568 128.067C128.523 128.543 128.647 129.02 128.919 129.414C135.625 138.771 147.985 140.393 152.572 146.681C166.149 165.304 169.597 175.848 175.428 175.193C175.835 175.135 176.21 174.938 176.488 174.634L216.301 133.82C239.208 110.359 242.499 58.647 243.093 15.3427C243.094 14.9118 242.966 14.4906 242.726 14.1329C242.486 13.7752 242.144 13.4975 241.745 13.3353C241.346 13.1731 240.907 13.1339 240.486 13.2226C240.064 13.3114 239.678 13.5234 239.378 13.8327Z" fill="#00C7D4"/>
<path d="M216.323 133.82C203.811 146.646 179.06 152.589 128.017 128.01C145.874 167.968 169.347 181.97 176.068 175.084L216.323 133.82Z" fill="#11E1EE"/>
<path d="M13.8157 16.6205L126.792 126.833C127.129 127.173 127.574 127.384 128.05 127.429C128.526 127.474 129.003 127.351 129.397 127.079C138.754 120.374 140.376 108.01 146.664 103.426C165.287 89.8502 175.831 86.4053 175.176 80.5707C175.117 80.1639 174.92 79.7898 174.617 79.5111L133.803 39.6977C110.342 16.7913 58.6299 13.4998 15.3257 12.9053C14.8939 12.9025 14.4713 13.0293 14.1123 13.2692C13.7534 13.5091 13.4746 13.8512 13.3121 14.2512C13.1495 14.6512 13.1107 15.0907 13.2006 15.513C13.2905 15.9353 13.5043 16.3213 13.8157 16.6205Z" fill="#E43921"/>
<path d="M133.822 39.7026C146.647 52.2152 152.59 76.9658 128.011 128.009C167.97 110.152 181.971 86.6754 175.085 79.9583L133.822 39.7026Z" fill="#FF7557"/>
<path d="M39.6934 122.2C52.206 109.374 76.9565 103.431 128 128.01C110.143 88.0517 86.6697 74.0501 79.949 80.9358L39.6934 122.2Z" fill="#0CB6FF"/>
<path d="M128.016 132.918C130.737 132.918 132.943 130.712 132.943 127.991C132.943 125.27 130.737 123.064 128.016 123.064C125.295 123.064 123.089 125.27 123.089 127.991C123.089 130.712 125.295 132.918 128.016 132.918Z" fill="#4A4848"/>
</svg>
