<svg width="256" height="256" viewBox="0 0 256 256" fill="none" xmlns="http://www.w3.org/2000/svg">
<rect width="256" height="256" fill="white"/>
<path fill-rule="evenodd" clip-rule="evenodd" d="M155.681 58.4043C151.854 58.4043 148.757 55.3898 148.757 51.6659C148.757 47.942 151.854 44.941 155.681 44.941C159.507 44.941 162.604 47.942 162.604 51.6659C162.604 55.3898 159.507 58.4043 155.681 58.4043ZM100.319 58.4043C96.4932 58.4043 93.3958 55.3898 93.3958 51.6659C93.3958 47.942 96.4932 44.941 100.319 44.941C104.146 44.941 107.243 47.942 107.243 51.6659C107.243 55.3898 104.146 58.4043 100.319 58.4043ZM159.773 31.423L162.352 27.6311L164.931 23.8934L170.677 15.4908C171.392 14.4541 171.098 13.0626 170.032 12.3806C168.981 11.6849 167.538 11.9714 166.851 13.0081L158.077 25.7894L155.442 29.6362C147.103 26.4852 137.811 24.7256 128 24.7256C118.203 24.7256 108.897 26.4852 100.558 29.6362L97.9368 25.7894L95.344 22.011L89.1771 13.0081C88.4623 11.9714 87.0328 11.6986 85.9676 12.3806C84.9165 13.0626 84.6221 14.4541 85.3229 15.4908L91.0693 23.8934L93.648 27.6311L96.241 31.423C76.6614 40.3032 63.4167 57.1221 63.4167 76.3691H192.583C192.583 57.1221 179.339 40.3032 159.773 31.423ZM64.4119 85.3449H63.4167V184.131C63.4167 191.974 69.9619 198.358 78.0348 198.358H88.5744C88.21 199.545 88.0139 200.786 88.0139 202.096V230.537C88.0139 237.971 94.2226 244 101.861 244C109.5 244 115.708 237.971 115.708 230.537V202.096C115.708 200.786 115.498 199.545 115.148 198.358H140.852C140.502 199.545 140.306 200.786 140.306 202.096V230.537C140.306 237.971 146.5 244 154.139 244C161.791 244 168 237.971 168 230.537V202.096C168 200.786 167.79 199.545 167.426 198.358H177.979C186.052 198.358 192.583 191.974 192.583 184.131V85.3449H64.4119ZM40.3473 85.3449C32.6949 85.3449 26.5 91.3741 26.5 98.8083V156.44C26.5 163.874 32.6949 169.904 40.3473 169.904C47.9857 169.904 54.1806 163.874 54.1806 156.44V98.8083C54.1806 91.3741 47.9857 85.3449 40.3473 85.3449ZM215.667 85.3449C208.014 85.3449 201.819 91.3741 201.819 98.8083V156.44C201.819 163.874 208.014 169.904 215.667 169.904C223.305 169.904 229.5 163.874 229.5 156.44V98.8083C229.5 91.3741 223.305 85.3449 215.667 85.3449Z" fill="#95CF00"/>
</svg>
