<svg width="256" height="256" viewBox="0 0 256 256" fill="none" xmlns="http://www.w3.org/2000/svg">
<g clip-path="url(#clip0_2955_15075)">
<path d="M45.4336 91.7961L103.063 128L165.286 88.9108V58.3888L45.4336 20.7832V91.7961Z" fill="#FEE900"/>
<path d="M45.4336 20.7832V91.7961V92.7514V164.203L165.286 88.9108V58.3888L45.4336 20.7832Z" fill="#FFC400"/>
<path opacity="0.75" d="M45.4336 92.6842V164.137L103.063 127.933L45.4336 91.7305V92.6842Z" fill="url(#paint0_linear_2955_15075)"/>
<path d="M45.4336 91.7959V164.202V234.497L165.286 197.611V167.088L45.4336 91.7959Z" fill="#FFC400"/>
<path d="M44.9023 175.782V188.847L165.286 199.576V165.053L44.9023 175.782Z" fill="#FFE082"/>
<path d="M44.5 67.5203V80.5855L164.728 91.3148V56.791L44.5 67.5203Z" fill="#FFE082"/>
<path d="M45.4336 20.7832L165.286 58.3888L45.4336 20.7832Z" fill="#FEE900"/>
<path d="M103.062 128L165.286 88.9111L103.062 128Z" fill="url(#paint1_linear_2955_15075)"/>
<path d="M151.594 182.314C151.594 184.114 151.948 185.897 152.636 187.559C153.324 189.222 154.333 190.733 155.604 192.006C156.876 193.279 158.385 194.289 160.047 194.978C161.708 195.666 163.489 196.021 165.287 196.021V168.607C161.655 168.607 158.172 170.052 155.604 172.622C153.036 175.193 151.594 178.679 151.594 182.314Z" fill="white"/>
<path d="M151.594 74.0524C151.594 75.8524 151.948 77.6347 152.636 79.2977C153.324 80.9607 154.333 82.4717 155.604 83.7444C156.876 85.0172 158.385 86.0269 160.047 86.7157C161.708 87.4045 163.489 87.7591 165.287 87.7591V60.3457C161.655 60.3457 158.172 61.7898 155.604 64.3603C153.036 66.9308 151.594 70.4172 151.594 74.0524Z" fill="white"/>
<path d="M208.297 158.667C206.76 153.164 204.319 147.955 201.074 143.254C197.756 138.505 193.617 134.388 188.851 131.098C183.557 127.486 177.675 124.824 171.469 123.232C182.474 118.572 190.834 112.005 196.55 103.529C202.254 95.093 205.244 85.1132 205.122 74.9275C205.357 65.2915 203.488 55.7203 199.645 46.8821C196.124 39.1519 190.687 32.4512 183.85 27.4171C176.263 22.01 167.687 18.1497 158.611 16.0559C147.587 13.4444 136.285 12.1905 124.958 12.3218H45.7461V21.2507L163.063 57.8372C163.709 58.0477 164.272 58.4574 164.671 59.0078C165.071 59.5582 165.286 60.221 165.286 60.9012V87.1203C165.286 87.6928 165.133 88.255 164.844 88.749C164.555 89.243 164.14 89.651 163.641 89.9309L103.534 128L163.641 166.068C164.14 166.348 164.555 166.756 164.844 167.25C165.133 167.744 165.286 168.306 165.286 168.879V195.098C165.286 195.778 165.071 196.441 164.671 196.991C164.272 197.542 163.709 197.952 163.063 198.162L45.7461 234.749V243.677H130.514C141.85 243.828 153.152 242.384 164.087 239.387C173.282 236.885 181.87 232.532 189.327 226.595C196.249 220.941 201.697 213.689 205.201 205.462C209.02 196.17 210.884 186.191 210.678 176.146C210.695 170.237 209.894 164.355 208.297 158.667Z" fill="#FF6D00" stroke="#FF6D00" stroke-width="0.4" stroke-miterlimit="10"/>
</g>
<defs>
<linearGradient id="paint0_linear_2955_15075" x1="45.4336" y1="127.933" x2="103.063" y2="127.933" gradientUnits="userSpaceOnUse">
<stop stop-color="#FFC400"/>
<stop offset="0.13695" stop-color="#FECD00"/>
<stop offset="0.36528" stop-color="#FED400"/>
<stop offset="1" stop-color="#FED600"/>
</linearGradient>
<linearGradient id="paint1_linear_2955_15075" x1="45.4327" y1="108.456" x2="165.285" y2="108.456" gradientUnits="userSpaceOnUse">
<stop stop-color="#FFFF00" stop-opacity="0.7"/>
<stop offset="0.13194" stop-color="#FFF600" stop-opacity="0.66022"/>
<stop offset="0.31385" stop-color="#FEEF00" stop-opacity="0.62592"/>
<stop offset="0.54652" stop-color="#FEEA00" stop-opacity="0.60587"/>
<stop offset="1" stop-color="#FEE900" stop-opacity="0.6"/>
</linearGradient>
<clipPath id="clip0_2955_15075">
<rect width="166.5" height="232" fill="white" transform="translate(44.5 12)"/>
</clipPath>
</defs>
</svg>
