<svg width="256" height="256" viewBox="0 0 256 256" fill="none" xmlns="http://www.w3.org/2000/svg">
<path d="M202.689 165.376C186.507 165.376 172.814 175.335 167.835 190.272H115.553C115.553 181.559 113.063 174.09 109.329 167.866L197.71 76.9953C201.444 76.9953 205.179 78.2401 208.913 78.2401C226.34 78.2401 240.033 64.5473 240.033 47.1201C240.033 29.6928 226.34 16 208.913 16C191.486 16 177.793 29.6928 177.793 47.1201C177.793 50.8545 179.038 55.8337 180.283 59.5681L93.1465 149.194C85.6777 142.97 75.7193 140.48 65.7608 140.48V88.1985C80.6985 83.2193 90.6569 69.5265 90.6569 53.3441C90.6569 32.1824 74.4745 16 53.3128 16C32.1512 16 15.9688 32.1824 15.9688 53.3441C15.9688 69.5265 25.9272 83.2193 40.8648 88.1985V146.704C25.9272 155.418 15.9688 171.6 15.9688 189.028C15.9688 216.413 38.3752 238.82 65.7608 238.82C84.4329 238.82 100.615 228.861 108.084 213.924H166.59C171.569 227.616 185.262 238.82 201.444 238.82C221.361 238.82 238.788 222.637 238.788 201.476C240.033 181.559 222.606 165.376 202.689 165.376Z" fill="black"/>
</svg>
