<svg width="256" height="256" viewBox="0 0 256 256" fill="none" xmlns="http://www.w3.org/2000/svg">
<g clip-path="url(#clip0_2937_6880)">
<path fill-rule="evenodd" clip-rule="evenodd" d="M229.2 52H26.8C20.09 52 13.6549 54.669 8.9102 59.42C4.16553 64.1709 1.5 70.6145 1.5 77.3333V178.667C1.5 185.385 4.16553 191.829 8.9102 196.58C13.6549 201.331 20.09 204 26.8 204H229.2C235.91 204 242.345 201.331 247.09 196.58C251.834 191.829 254.5 185.385 254.5 178.667V77.3333C254.5 70.6145 251.834 64.1709 247.09 59.42C242.345 54.669 235.91 52 229.2 52ZM93.7185 163.467L90.05 149.913H66.774L63.1055 163.467H41.6005L64.75 90.8867H91.1885L115.35 163.467H93.7185ZM173.919 123.693C173.009 126.695 171.455 129.462 169.365 131.8C166.989 134.265 164.094 136.169 160.89 137.373C156.843 138.87 152.554 139.601 148.24 139.527H142.674V163.467H122.94V91.14H148.24C155.562 90.6106 162.831 92.7224 168.733 97.0933C171.108 99.2315 172.968 101.881 174.173 104.843C175.379 107.805 175.897 111.002 175.691 114.193C175.619 117.435 175.021 120.644 173.919 123.693ZM206.556 163.467H186.949V91.14H206.556V163.467ZM83.0925 122.047L86.1285 133.827H70.822L73.858 122.047C73.858 120.4 74.87 118.5 75.376 116.093C75.882 113.687 76.5145 111.28 77.0205 108.873C77.5491 106.87 77.9714 104.841 78.2855 102.793C78.2855 104.44 79.171 106.467 79.677 109.127L81.5745 116.473L83.0925 122.047ZM153.806 109.38C154.502 110.098 155.041 110.953 155.389 111.89C155.738 112.828 155.888 113.828 155.83 114.827C155.9 116.699 155.416 118.549 154.438 120.147C153.606 121.399 152.416 122.37 151.023 122.933C149.543 123.556 147.948 123.858 146.342 123.82H142.421V106.973H147.481C148.545 106.925 149.609 107.09 150.608 107.46C151.608 107.83 152.523 108.396 153.3 109.127L153.806 109.38Z" fill="black"/>
</g>
<defs>
<clipPath id="clip0_2937_6880">
<rect width="256" height="256" fill="white"/>
</clipPath>
</defs>
</svg>
