<svg width="256" height="256" viewBox="0 0 256 256" fill="none" xmlns="http://www.w3.org/2000/svg">
<path fill-rule="evenodd" clip-rule="evenodd" d="M128 14L34.707 52.8624V116.838C34.707 174.336 74.4785 228.198 128 241.834C181.521 228.766 221.292 174.904 221.292 117.406V52.8624L128 14ZM128 57.0668C134.914 57.0684 141.613 59.4673 146.957 63.8548C152.3 68.2422 155.958 74.3467 157.305 81.1283C158.652 87.9098 157.607 94.9486 154.346 101.046C151.086 107.143 145.812 111.92 139.424 114.565C133.035 117.21 125.928 117.557 119.312 115.549C112.696 113.541 106.981 109.301 103.141 103.551C99.3004 97.8016 97.5726 90.8984 98.2515 84.0177C98.9304 77.1371 101.974 70.7047 106.864 65.8165C109.64 63.0416 112.935 60.8407 116.561 59.3394C120.188 57.8381 124.075 57.0659 128 57.0668ZM174.703 183.767C162.796 199.267 146.534 210.86 128 217.062C109.465 210.86 93.2031 199.267 81.2965 183.767V158.2C81.2965 139.223 112.432 129.564 128 129.564C143.567 129.564 174.703 139.223 174.703 158.2V183.767Z" fill="#669DF6"/>
<path fill-rule="evenodd" clip-rule="evenodd" d="M128 14V57.0668C135.926 57.0668 143.528 60.2154 149.132 65.82C154.737 71.4246 157.885 79.0261 157.885 86.9522C157.885 94.8783 154.737 102.48 149.132 108.084C143.528 113.689 135.926 116.838 128 116.838V129.564C143.568 129.564 174.703 139.223 174.703 158.2V183.767C162.796 199.267 146.535 210.86 128 217.062V241.265C181.521 228.198 221.292 174.336 221.292 116.838V52.8624L128 14Z" fill="#4285F4"/>
</svg>
