<svg width="256" height="256" viewBox="0 0 256 256" fill="none" xmlns="http://www.w3.org/2000/svg">
<rect width="256" height="256" fill="white"/>
<path d="M77.3392 108.864C77.3392 111.718 77.6481 114.032 78.1887 115.729C78.8065 117.426 79.5788 119.277 80.66 121.282C81.0462 121.899 81.2007 122.516 81.2007 123.056C81.2007 123.827 80.7373 124.598 79.7333 125.37L74.8678 128.609C74.1727 129.072 73.4777 129.303 72.8598 129.303C72.0875 129.303 71.3152 128.918 70.5429 128.223C69.4617 127.066 68.535 125.832 67.7627 124.598C66.9904 123.287 66.2181 121.822 65.3685 120.048C59.3446 127.144 51.7761 130.691 42.6629 130.691C36.1756 130.691 31.0012 128.84 27.217 125.138C23.4327 121.436 21.502 116.5 21.502 110.33C21.502 103.774 23.8189 98.4521 28.5299 94.4415C33.2409 90.4309 39.4965 88.4255 47.4512 88.4255C50.077 88.4255 52.7801 88.6569 55.6376 89.0426C58.4951 89.4282 61.4298 90.0452 64.519 90.7394V85.109C64.519 79.2473 63.2833 75.1596 60.8892 72.7686C58.4178 70.3777 54.2474 69.2207 48.3007 69.2207C45.5977 69.2207 42.8174 69.5293 39.9599 70.2234C37.1024 70.9176 34.3221 71.766 31.6191 72.8457C30.3834 73.3856 29.4566 73.6941 28.916 73.8484C28.3754 74.0027 27.9893 74.0798 27.6803 74.0798C26.5991 74.0798 26.0585 73.3085 26.0585 71.6888V67.9096C26.0585 66.6755 26.213 65.75 26.5991 65.2101C26.9853 64.6702 27.6803 64.1303 28.7616 63.5904C31.4646 62.2021 34.7083 61.0452 38.4925 60.1197C42.2768 59.117 46.2927 58.6543 50.5404 58.6543C59.7307 58.6543 66.4497 60.7367 70.7746 64.9016C75.0223 69.0665 77.1847 75.391 77.1847 83.875V108.864H77.3392ZM45.9838 120.588C48.5324 120.588 51.1582 120.125 53.9385 119.199C56.7188 118.274 59.1901 116.577 61.2753 114.263C62.511 112.798 63.4378 111.178 63.9012 109.327C64.3645 107.476 64.6735 105.239 64.6735 102.617V99.3777C62.4338 98.8378 60.0397 98.375 57.5683 98.0665C55.097 97.758 52.7028 97.6037 50.3087 97.6037C45.1343 97.6037 41.35 98.6064 38.8014 100.689C36.2529 102.771 35.0172 105.702 35.0172 109.559C35.0172 113.184 35.9439 115.883 37.8747 117.734C39.7282 119.662 42.4312 120.588 45.9838 120.588ZM107.999 128.918C106.609 128.918 105.683 128.686 105.065 128.146C104.447 127.684 103.906 126.604 103.443 125.138L85.2938 65.5186C84.8305 63.9761 84.5988 62.9734 84.5988 62.4335C84.5988 61.1995 85.2166 60.5053 86.4523 60.5053H94.0208C95.4882 60.5053 96.4922 60.7367 97.0328 61.2766C97.6506 61.7394 98.114 62.8191 98.5774 64.2846L111.552 115.343L123.6 64.2846C123.986 62.742 124.449 61.7394 125.067 61.2766C125.685 60.8138 126.766 60.5053 128.156 60.5053H134.335C135.802 60.5053 136.806 60.7367 137.424 61.2766C138.042 61.7394 138.582 62.8191 138.891 64.2846L151.094 115.96L164.454 64.2846C164.918 62.742 165.458 61.7394 165.999 61.2766C166.617 60.8138 167.621 60.5053 169.011 60.5053H176.193C177.429 60.5053 178.124 61.1223 178.124 62.4335C178.124 62.8191 178.047 63.2048 177.97 63.6676C177.892 64.1303 177.738 64.7473 177.429 65.5957L158.817 125.215C158.353 126.758 157.813 127.761 157.195 128.223C156.577 128.686 155.573 128.995 154.26 128.995H147.618C146.151 128.995 145.147 128.763 144.529 128.223C143.911 127.684 143.371 126.681 143.062 125.138L131.091 75.391L119.198 125.061C118.812 126.604 118.348 127.606 117.73 128.146C117.113 128.686 116.031 128.918 114.641 128.918H107.999ZM207.24 131C203.224 131 199.208 130.537 195.346 129.612C191.485 128.686 188.473 127.684 186.465 126.527C185.229 125.832 184.38 125.061 184.071 124.367C183.762 123.673 183.607 122.902 183.607 122.207V118.274C183.607 116.654 184.225 115.883 185.384 115.883C185.847 115.883 186.311 115.96 186.774 116.114C187.237 116.269 187.932 116.577 188.705 116.886C191.33 118.043 194.188 118.968 197.2 119.585C200.289 120.202 203.301 120.511 206.39 120.511C211.256 120.511 215.04 119.662 217.666 117.965C220.292 116.269 221.682 113.801 221.682 110.638C221.682 108.479 220.987 106.705 219.597 105.239C218.206 103.774 215.581 102.463 211.796 101.229L200.598 97.758C194.96 95.984 190.79 93.3617 188.241 89.891C185.693 86.4973 184.38 82.7181 184.38 78.7074C184.38 75.4681 185.075 72.6144 186.465 70.1463C187.855 67.6782 189.709 65.5186 192.026 63.8218C194.342 62.0479 196.968 60.7367 200.057 59.8112C203.147 58.8856 206.39 58.5 209.788 58.5C211.487 58.5 213.264 58.5771 214.963 58.8085C216.739 59.0399 218.361 59.3484 219.983 59.6569C221.527 60.0426 222.995 60.4282 224.385 60.891C225.775 61.3537 226.856 61.8165 227.628 62.2793C228.71 62.8963 229.482 63.5133 229.945 64.2074C230.409 64.8245 230.64 65.6729 230.64 66.7527V70.3777C230.64 71.9973 230.023 72.8457 228.864 72.8457C228.246 72.8457 227.242 72.5372 225.929 71.9202C221.527 69.9149 216.585 68.9122 211.101 68.9122C206.699 68.9122 203.224 69.6064 200.83 71.0718C198.436 72.5372 197.2 74.7739 197.2 77.9362C197.2 80.0957 197.972 81.9468 199.517 83.4122C201.061 84.8777 203.919 86.3431 208.012 87.6543L218.979 91.125C224.539 92.8989 228.555 95.367 230.949 98.5293C233.344 101.691 234.502 105.316 234.502 109.327C234.502 112.644 233.807 115.652 232.494 118.274C231.104 120.896 229.25 123.21 226.856 125.061C224.462 126.989 221.605 128.378 218.284 129.38C214.808 130.46 211.179 131 207.24 131Z" fill="#252F3E"/>
<path fill-rule="evenodd" clip-rule="evenodd" d="M221.661 168.587C196.286 187.474 159.418 197.5 127.719 197.5C83.2929 197.5 43.2635 180.945 13.0293 153.431C10.6383 151.254 12.7979 148.301 15.6517 150.011C48.354 169.131 88.6919 180.712 130.418 180.712C158.57 180.712 189.498 174.805 217.959 162.68C222.201 160.737 225.826 165.478 221.661 168.587Z" fill="#FF9900"/>
<path fill-rule="evenodd" clip-rule="evenodd" d="M232.316 156.548C229.074 152.365 210.856 154.534 202.596 155.541C200.126 155.851 199.74 153.682 201.979 152.055C216.491 141.83 240.344 144.774 243.123 148.182C245.902 151.668 242.351 175.604 228.765 187.068C226.681 188.85 224.674 187.921 225.6 185.597C228.688 177.928 235.558 160.654 232.316 156.548Z" fill="#FF9900"/>
</svg>
