<svg width="256" height="256" viewBox="0 0 256 256" fill="none" xmlns="http://www.w3.org/2000/svg">
<rect width="256" height="256" fill="white"/>
<path d="M89.3459 18.5022H158L86.7303 230.04C85.9978 232.214 84.6033 234.103 82.743 235.441C80.8827 236.779 78.6504 237.499 76.3602 237.5H22.9303C21.1952 237.5 19.4849 237.086 17.9409 236.293C16.397 235.499 15.0639 234.349 14.0518 232.937C13.0396 231.525 12.3777 229.892 12.1206 228.173C11.8635 226.454 12.0188 224.698 12.5734 223.051L78.9732 25.9613C79.7054 23.7867 81.1001 21.897 82.961 20.5584C84.8218 19.2197 87.055 18.5023 89.3459 18.5022Z" fill="url(#paint0_linear_2657_7772)"/>
<path d="M189.148 160.5H80.0547C79.0405 160.498 78.0494 160.802 77.2106 161.371C76.3718 161.941 75.7242 162.749 75.3521 163.691C74.98 164.633 74.9007 165.664 75.1244 166.652C75.3482 167.639 75.8647 168.537 76.6067 169.227L146.708 234.543C148.749 236.443 151.436 237.5 154.227 237.5H216L189.148 160.5Z" fill="#0078D4"/>
<path d="M89.2808 18.4996C86.9664 18.4907 84.7098 19.2239 82.8406 20.592C80.9714 21.9601 79.5876 23.8916 78.8912 26.1041L12.6408 222.871C12.0492 224.525 11.8635 226.296 12.0993 228.036C12.3352 229.777 12.9856 231.434 13.9957 232.869C15.0059 234.304 16.3459 235.474 17.9024 236.28C19.4589 237.086 21.1862 237.504 22.9382 237.499H77.7108C79.7507 237.134 81.6574 236.232 83.236 234.887C84.8146 233.541 86.0086 231.799 86.6959 229.839L99.9076 190.808L147.099 234.932C149.077 236.572 151.558 237.479 154.124 237.499H215.5L188.581 160.387L110.11 160.405L158.137 18.4996H89.2808Z" fill="url(#paint1_linear_2657_7772)"/>
<path d="M176.957 25.9481C176.225 23.777 174.831 21.8904 172.971 20.5542C171.111 19.2179 168.879 18.4992 166.59 18.4995H90C92.2894 18.4996 94.5212 19.2184 96.381 20.5547C98.2408 21.8909 99.635 23.7772 100.367 25.9481L166.835 223.046C167.391 224.693 167.547 226.449 167.29 228.169C167.033 229.889 166.37 231.522 165.357 232.935C164.344 234.347 163.009 235.498 161.464 236.292C159.918 237.085 158.206 237.499 156.468 237.5H233.061C234.798 237.499 236.51 237.085 238.055 236.291C239.601 235.497 240.935 234.346 241.948 232.933C242.96 231.521 243.623 229.888 243.88 228.168C244.137 226.449 243.981 224.693 243.425 223.046L176.957 25.9481Z" fill="url(#paint2_linear_2657_7772)"/>
<defs>
<linearGradient id="paint0_linear_2657_7772" x1="114.368" y1="34.7306" x2="42.8429" y2="245.661" gradientUnits="userSpaceOnUse">
<stop stop-color="#114A8B"/>
<stop offset="1" stop-color="#0669BC"/>
</linearGradient>
<linearGradient id="paint1_linear_2657_7772" x1="136.544" y1="133.064" x2="120.054" y2="138.626" gradientUnits="userSpaceOnUse">
<stop stop-opacity="0.3"/>
<stop offset="0.071" stop-opacity="0.2"/>
<stop offset="0.321" stop-opacity="0.1"/>
<stop offset="0.623" stop-opacity="0.05"/>
<stop offset="1" stop-opacity="0"/>
</linearGradient>
<linearGradient id="paint2_linear_2657_7772" x1="127.444" y1="28.5736" x2="205.893" y2="237.414" gradientUnits="userSpaceOnUse">
<stop stop-color="#3CCBF4"/>
<stop offset="1" stop-color="#2892DF"/>
</linearGradient>
</defs>
</svg>
