<svg width="256" height="256" viewBox="0 0 256 256" fill="none" xmlns="http://www.w3.org/2000/svg">
<rect width="256" height="256" fill="white"/>
<path d="M64.49 222.961L14.0228 135.548C11.3258 130.879 11.3258 125.122 14.0228 120.453L64.49 33.0436C67.1834 28.3782 72.1569 25.5036 77.54 25.4963H178.522C183.887 25.5217 188.835 28.3963 191.517 33.0436L241.977 120.453C244.674 125.122 244.674 130.879 241.977 135.548L191.51 222.961C188.817 227.626 183.843 230.501 178.46 230.508H77.5037C72.1279 230.49 67.1725 227.615 64.4791 222.961H64.49Z" fill="#4386FA"/>
<path opacity="0.1" d="M159.527 99.8513C159.527 99.8513 173.555 133.502 154.43 152.577C135.304 171.652 100.479 159.443 100.479 159.443L171.319 230.478H178.511C183.897 230.471 188.871 227.593 191.561 222.931L224.969 165.083L159.527 99.8513Z" fill="black"/>
<path d="M176.093 168.708L160.625 153.204C160.457 153.031 160.264 152.884 160.052 152.769C166.632 144.294 169.732 133.63 168.723 122.948C167.713 112.267 162.669 102.372 154.618 95.2803C146.568 88.1884 136.116 84.4327 125.392 84.7785C114.669 85.1243 104.481 89.5454 96.9037 97.1413C89.3265 104.737 84.9304 114.936 84.611 125.66C84.2916 136.384 88.0729 146.827 95.1846 154.86C102.296 162.894 112.203 167.913 122.887 168.897C133.571 169.88 144.228 166.753 152.686 160.153C152.797 160.352 152.934 160.535 153.096 160.697L168.6 176.201C169.055 176.656 169.673 176.911 170.316 176.911C170.96 176.911 171.577 176.656 172.033 176.201L176.093 172.141C176.548 171.685 176.803 171.068 176.803 170.424C176.803 169.781 176.548 169.163 176.093 168.708ZM126.695 158.681C120.421 158.682 114.288 156.822 109.072 153.337C103.855 149.852 99.7889 144.898 97.3877 139.102C94.9865 133.306 94.3581 126.928 95.5818 120.775C96.8056 114.622 99.8266 108.97 104.263 104.534C108.699 100.098 114.351 97.0766 120.504 95.8529C126.657 94.6291 133.035 95.2576 138.831 97.6587C144.627 100.06 149.581 104.126 153.066 109.343C156.551 114.559 158.411 120.692 158.41 126.966C158.409 135.377 155.067 143.443 149.12 149.391C143.172 155.338 135.106 158.68 126.695 158.681ZM106.42 125.273V138.381C108.439 141.944 111.361 144.917 114.896 146.99V125.193L106.42 125.273ZM122.28 114.405V149.829C125.081 150.345 127.953 150.345 130.755 149.829V114.405H122.28ZM146.799 138.352V130.587H138.331V146.9C141.861 144.832 144.784 141.871 146.806 138.316L146.799 138.352Z" fill="white"/>
</svg>
