<svg width="256" height="256" viewBox="0 0 256 256" fill="none" xmlns="http://www.w3.org/2000/svg">
<path fill-rule="evenodd" clip-rule="evenodd" d="M134.68 84.6082C130.238 85.1247 126.85 88.7348 126.535 93.2875C126.399 95.2492 126.442 95.3823 130.885 106.824C140.994 132.857 143.443 139.122 143.855 140.004C144.853 142.14 146.256 144.149 148.009 145.952C149.354 147.336 150.241 148.08 151.742 149.083C154.379 150.846 155.688 151.333 165.951 154.374C175.947 157.336 181.409 159.305 186.115 161.642C192.212 164.671 196.466 168.115 199.157 172.203C201.087 175.136 202.797 180.395 203.541 185.689C203.832 187.758 203.834 192.332 203.545 194.203C202.917 198.263 201.663 201.666 199.746 204.513C198.726 206.027 199.08 205.774 200.563 203.928C204.76 198.706 209.035 189.782 211.217 181.689C213.857 171.894 214.216 161.376 212.25 151.421C208.422 132.035 196.193 115.305 178.97 105.891C177.888 105.3 173.766 103.138 168.177 100.23C167.329 99.7887 166.173 99.1846 165.608 98.8876C165.043 98.5904 163.886 97.9862 163.038 97.5451C162.19 97.104 159.749 95.8312 157.614 94.7169C155.478 93.6024 153.089 92.3555 152.304 91.946C149.91 90.6972 148.304 89.8583 147.107 89.231C141.57 86.3301 139.226 85.1574 138.558 84.9539C137.857 84.7405 136.077 84.4666 135.63 84.5033C135.536 84.5111 135.108 84.5582 134.68 84.6082Z" fill="url(#paint0_radial_2772_9362)"/>
<path d="M146.509 181.534C146.202 181.717 145.772 181.982 145.552 182.123C145.332 182.264 144.844 182.57 144.467 182.803C143.085 183.66 139.407 185.946 136.247 187.913C134.171 189.207 133.862 189.4 131.224 191.051C130.282 191.641 129.281 192.262 128.998 192.432C128.715 192.602 127.508 193.352 126.315 194.099C125.122 194.845 123.041 196.141 121.691 196.978C120.341 197.815 117.927 199.318 116.326 200.318C114.725 201.317 112.618 202.627 111.645 203.229C110.672 203.831 109.773 204.413 109.647 204.522C109.46 204.683 100.804 210.092 96.4608 212.762C93.1621 214.789 89.3459 216.145 85.4394 216.678C83.6207 216.926 80.1791 216.927 78.3656 216.679C73.4482 216.009 68.9181 214.159 65.0384 211.237C63.5166 210.091 60.6515 207.202 59.5562 205.71C56.975 202.195 55.3052 198.424 54.4404 194.158C54.2415 193.176 54.0532 192.347 54.0223 192.315C53.9414 192.232 54.0874 193.716 54.3508 195.655C54.6247 197.672 55.2083 200.589 55.8369 203.083C60.7013 222.391 74.543 238.095 93.2813 245.566C98.6771 247.717 104.122 249.072 110.047 249.736C112.273 249.988 118.574 250.088 120.897 249.91C131.552 249.096 140.83 245.932 150.347 239.864C151.195 239.323 152.787 238.31 153.886 237.612C154.985 236.914 156.372 236.027 156.969 235.641C157.565 235.255 158.284 234.798 158.567 234.627C158.849 234.455 159.414 234.097 159.823 233.83C160.231 233.564 161.978 232.45 163.704 231.354L170.609 226.954L172.98 225.443L173.065 225.389L173.327 225.222L173.451 225.143L175.196 224.031L181.229 220.187C188.915 215.314 191.207 213.604 194.778 210.075C196.267 208.604 198.512 206.093 198.623 205.774C198.646 205.709 199.045 205.088 199.51 204.394C201.399 201.573 202.659 198.118 203.284 194.042C203.573 192.157 203.572 187.547 203.281 185.462C202.719 181.43 201.442 176.857 200.065 173.944C197.807 169.169 192.997 164.831 186.087 161.336C184.179 160.371 182.209 159.488 181.989 159.5C181.885 159.506 175.455 163.471 167.7 168.312C159.946 173.153 153.215 177.355 152.744 177.649C152.273 177.944 151.464 178.443 150.946 178.757L146.509 181.534Z" fill="url(#paint1_radial_2772_9362)"/>
<path d="M54.0334 159.06L54.0668 192.711L54.5015 194.665C55.861 200.774 58.2165 205.179 62.3114 209.27C64.2375 211.195 65.7104 212.355 67.7976 213.592C72.2143 216.211 76.9677 217.502 82.1744 217.5C87.6276 217.497 92.3449 216.135 97.2061 213.158C98.0264 212.656 101.241 210.673 104.349 208.753L110 205.26V165.335V125.41L109.998 88.8857C109.997 65.5839 109.955 51.7454 109.881 50.6597C109.418 43.8372 106.569 37.5653 101.78 32.8212C100.31 31.3652 99.0541 30.3928 95.3126 27.8136C93.4509 26.5301 90.0429 24.1789 87.7395 22.5887C85.436 20.9985 81.6409 18.3787 79.3058 16.7669C76.9707 15.1553 73.6402 12.8558 71.9047 11.6571C68.2892 9.15992 68.0062 8.98623 66.9133 8.59449C65.4917 8.08505 63.9852 7.89792 62.553 8.05287C58.3785 8.50449 55.0368 11.5238 54.1682 15.6286C54.033 16.2673 54.0081 24.7665 54.0064 70.8965L54.0045 125.41H54L54.0334 159.06Z" fill="url(#paint2_linear_2772_9362)"/>
<defs>
<radialGradient id="paint0_radial_2772_9362" cx="0" cy="0" r="1" gradientTransform="matrix(-81.5402 -94.1727 67.7111 -58.7154 208.034 178.66)" gradientUnits="userSpaceOnUse">
<stop stop-color="#00CACC"/>
<stop offset="1" stop-color="#048FCE"/>
</radialGradient>
<radialGradient id="paint1_radial_2772_9362" cx="0" cy="0" r="1" gradientTransform="matrix(123.755 -53.4983 88.3758 208.064 74.7695 224.16)" gradientUnits="userSpaceOnUse">
<stop stop-color="#00BBEC"/>
<stop offset="1" stop-color="#2756A9"/>
</radialGradient>
<linearGradient id="paint2_linear_2772_9362" x1="82.0001" y1="8" x2="82.0001" y2="217.5" gradientUnits="userSpaceOnUse">
<stop stop-color="#00BBEC"/>
<stop offset="1" stop-color="#2756A9"/>
</linearGradient>
</defs>
</svg>
