<svg width="256" height="256" viewBox="0 0 256 256" fill="none" xmlns="http://www.w3.org/2000/svg">
<rect width="256" height="256" fill="white"/>
<path d="M37.593 59.6606C37.1552 47.0909 46.9486 35.5 60.1862 35.5H195.831C209.068 35.5 218.862 47.0909 218.424 59.6606C218.003 71.735 218.549 87.376 222.486 100.129C226.435 112.922 233.094 121.008 244 122.047V133.828C233.094 134.867 226.435 142.953 222.486 155.746C218.549 168.499 218.003 184.14 218.424 196.215C218.862 208.784 209.068 220.375 195.831 220.375H60.1862C46.9486 220.375 37.1552 208.784 37.5934 196.215C38.0135 184.14 37.4674 168.499 33.5307 155.746C29.5822 142.953 22.9067 134.867 12 133.828V122.047C22.9063 121.008 29.5822 112.922 33.5307 100.129C37.4674 87.376 38.0135 71.735 37.593 59.6606Z" fill="url(#paint0_linear_2657_7632)"/>
<g filter="url(#filter0_d_2657_7632)">
<path d="M133.031 177.082C154.462 177.082 167.377 166.589 167.377 149.281C167.377 136.197 158.162 126.726 144.48 125.226V124.681C154.532 123.046 162.421 113.711 162.421 103.285C162.421 88.4304 150.693 78.7539 132.822 78.7539H92.6113V177.082H133.031ZM108.249 91.2239H129.052C140.361 91.2239 146.783 96.2663 146.783 105.397C146.783 115.142 139.314 120.593 125.771 120.593H108.249V91.2239ZM108.249 164.612V132.245H128.912C143.712 132.245 151.391 137.696 151.391 148.327C151.391 158.957 143.921 164.612 129.82 164.612H108.249Z" fill="url(#paint1_linear_2657_7632)"/>
<path d="M133.031 177.082C154.462 177.082 167.377 166.589 167.377 149.281C167.377 136.197 158.162 126.726 144.48 125.226V124.681C154.532 123.046 162.421 113.711 162.421 103.285C162.421 88.4304 150.693 78.7539 132.822 78.7539H92.6113V177.082H133.031ZM108.249 91.2239H129.052C140.361 91.2239 146.783 96.2663 146.783 105.397C146.783 115.142 139.314 120.593 125.771 120.593H108.249V91.2239ZM108.249 164.612V132.245H128.912C143.712 132.245 151.391 137.696 151.391 148.327C151.391 158.957 143.921 164.612 129.82 164.612H108.249Z" stroke="white" stroke-width="0.90625"/>
</g>
<defs>
<filter id="filter0_d_2657_7632" x="77.6582" y="67.4258" width="104.672" height="128.234" filterUnits="userSpaceOnUse" color-interpolation-filters="sRGB">
<feFlood flood-opacity="0" result="BackgroundImageFix"/>
<feColorMatrix in="SourceAlpha" type="matrix" values="0 0 0 0 0 0 0 0 0 0 0 0 0 0 0 0 0 0 127 0" result="hardAlpha"/>
<feOffset dy="3.625"/>
<feGaussianBlur stdDeviation="7.25"/>
<feColorMatrix type="matrix" values="0 0 0 0 0 0 0 0 0 0 0 0 0 0 0 0 0 0 0.15 0"/>
<feBlend mode="normal" in2="BackgroundImageFix" result="effect1_dropShadow_2657_7632"/>
<feBlend mode="normal" in="SourceGraphic" in2="effect1_dropShadow_2657_7632" result="shape"/>
</filter>
<linearGradient id="paint0_linear_2657_7632" x1="46.4733" y1="40.3928" x2="249.202" y2="201.319" gradientUnits="userSpaceOnUse">
<stop stop-color="#9013FE"/>
<stop offset="1" stop-color="#6610F2"/>
</linearGradient>
<linearGradient id="paint1_linear_2657_7632" x1="99.6832" y1="85.2259" x2="144.998" y2="161.864" gradientUnits="userSpaceOnUse">
<stop stop-color="white"/>
<stop offset="1" stop-color="#F1E5FC"/>
</linearGradient>
</defs>
</svg>
