<svg width="256" height="256" viewBox="0 0 256 256" fill="none" xmlns="http://www.w3.org/2000/svg">
<rect width="256" height="256" fill="white"/>
<path d="M228.379 186C229.996 183.186 231 180.015 231 177.168V78.3315C231 75.4842 229.997 72.3142 228.38 69.5L128 127.75L228.379 186Z" fill="#00599C"/>
<path d="M136.931 241.874L222.193 192.668C224.649 191.25 226.882 188.803 228.5 186L128 128L27.5 186.001C29.1183 188.803 31.3513 191.251 33.8067 192.668L119.069 241.874C123.981 244.709 132.019 244.709 136.931 241.874Z" fill="#004482"/>
<path d="M228.5 69.9998C226.882 67.197 224.65 64.7494 222.196 63.3318L136.986 14.1263C132.077 11.2912 124.044 11.2912 119.136 14.1263L33.9252 63.3318C29.016 66.1662 25 73.1246 25 78.794V177.206C25 180.041 26.0043 183.198 27.6223 186L128.061 128L228.5 69.9998Z" fill="#659AD2"/>
<path d="M127.863 196.5C89.8919 196.5 59 165.659 59 127.75C59 89.8411 89.8919 59 127.863 59C152.365 59 175.216 72.1636 187.498 93.3534L157.696 110.571C151.549 99.9642 140.117 93.375 127.863 93.375C108.877 93.375 93.4316 108.795 93.4316 127.75C93.4316 146.704 108.877 162.125 127.863 162.125C140.118 162.125 151.55 155.536 157.698 144.927L187.5 162.144C175.218 183.336 152.366 196.5 127.863 196.5Z" fill="white"/>
<path d="M197 124.166H189.333V116.5H181.667V124.166H174V131.833H181.667V139.5H189.333V131.833H197V124.166Z" fill="white"/>
<path d="M225.5 124.166H217.833V116.5H210.167V124.166H202.5V131.833H210.167V139.5H217.833V131.833H225.5V124.166Z" fill="white"/>
</svg>
