<svg width="256" height="256" viewBox="0 0 256 256" fill="none" xmlns="http://www.w3.org/2000/svg">
<path d="M226 129.291C192.512 129.948 199.487 151.116 175.886 156.47C151.91 161.909 148.125 98 124.156 98C100.183 98 94.8729 160.08 64.8564 202.699L64 203.905L128.355 241L226 184.713V129.291Z" fill="#36A2EB"/>
<path d="M226 126.199C214.746 111.686 207.112 95 190.689 95C161.625 95 169.272 142.642 137.152 142.642C105.029 142.642 101.651 91.3965 65.2608 139.568C53.6652 154.917 44.3316 172.032 37 188.226L127.975 241L226 184.137V126.199Z" fill="#FFCE56"/>
<path opacity="0.8" d="M30 146.952C41.0259 116.59 45.7845 92 66.834 92C98.9455 92 106.589 181.706 134.118 172.58C161.642 163.458 158.583 114.803 201.401 114.803C209.551 114.803 217.873 119.768 226 127.799V184.745L128.002 241L30.0015 184.745L30 146.952Z" fill="#FE6184"/>
<path d="M128 248L24 188.002V68L128 8L232 68V188L128 248ZM36.2188 180.951L128 233.903L219.781 180.951V75.05L128 22.0985L36.2188 75.05V180.951Z" fill="#E7E9ED"/>
</svg>
