<svg width="256" height="256" viewBox="0 0 256 256" fill="none" xmlns="http://www.w3.org/2000/svg">
<rect width="256" height="256" fill="white"/>
<path fill-rule="evenodd" clip-rule="evenodd" d="M40.0117 52.413C93.9366 -10.347 193.923 2.0415 231.302 75.3515C204.99 75.3611 163.787 75.3436 141.471 75.3515C125.285 75.3571 114.835 74.9892 103.518 80.9468C90.2139 87.9501 80.1754 100.932 76.6712 116.18L40.0117 52.413Z" fill="#EA4335"/>
<path fill-rule="evenodd" clip-rule="evenodd" d="M89.4082 127.996C89.4082 149.266 106.703 166.57 127.961 166.57C149.219 166.57 166.514 149.266 166.514 127.996C166.514 106.726 149.219 89.4211 127.961 89.4211C106.703 89.4211 89.4082 106.726 89.4082 127.996Z" fill="#4285F4"/>
<path fill-rule="evenodd" clip-rule="evenodd" d="M142.924 178.487C121.284 184.918 95.9615 177.786 82.0905 153.843C71.5024 135.567 43.5272 86.8311 30.8116 64.6707C-13.7223 132.927 24.6597 225.944 105.508 241.82L142.924 178.487Z" fill="#34A853"/>
<path fill-rule="evenodd" clip-rule="evenodd" d="M163.774 89.4211C181.797 106.184 185.724 133.327 173.516 154.374C164.318 170.231 134.962 219.777 120.734 243.77C204.033 248.905 264.757 167.265 237.329 89.4211H163.774Z" fill="#FBBC05"/>
</svg>
