<svg width="256" height="256" viewBox="0 0 256 256" fill="none" xmlns="http://www.w3.org/2000/svg">
<g clip-path="url(#clip0_2955_15046)">
<path d="M235.48 0H20.184C9.03667 0 0 9.03667 0 20.184V235.48C0 246.627 9.03667 255.664 20.184 255.664H235.48C246.627 255.664 255.664 246.627 255.664 235.48V20.184C255.664 9.03667 246.627 0 235.48 0Z" fill="#2879FF"/>
<path d="M-33.4727 -33.4717L289.471 289.472M289.471 -33.4717L-33.4727 289.472M174.675 -33.4717V289.472M81.3237 -33.4717V289.472M289.471 174.675H-33.4727M289.471 81.3246H-33.4727" stroke="white" stroke-opacity="0.2" stroke-width="1.31406"/>
<path d="M128 193.598C164.229 193.598 193.598 164.229 193.598 128C193.598 91.7715 164.229 62.4023 128 62.4023C91.7715 62.4023 62.4023 91.7715 62.4023 128C62.4023 164.229 91.7715 193.598 128 193.598Z" stroke="white" stroke-opacity="0.2" stroke-width="1.31406"/>
<path d="M-33.4727 128H289.471M127.999 -33.4717V289.472" stroke="white" stroke-opacity="0.2" stroke-width="1.31406"/>
<path d="M128 228.92C183.736 228.92 228.92 183.736 228.92 128C228.92 72.2634 183.736 27.0801 128 27.0801C72.2634 27.0801 27.0801 72.2634 27.0801 128C27.0801 183.736 72.2634 228.92 128 228.92Z" fill="url(#paint0_radial_2955_15046)"/>
<path opacity="0.2" d="M235.48 0H20.184C9.08279 0 0 9.08279 0 20.184V21.866C0 10.7648 9.08279 1.682 20.184 1.682H235.48C246.581 1.682 255.664 10.7648 255.664 21.866V20.184C255.664 9.08279 246.581 0 235.48 0Z" fill="white"/>
<path opacity="0.1" d="M235.648 254.15H20.3519C9.25075 254.15 0.167969 245.067 0.167969 233.966V235.648C0.167969 246.749 9.25075 255.832 20.3519 255.832H235.648C246.749 255.832 255.832 246.749 255.832 235.648V233.966C255.832 245.067 246.749 254.15 235.648 254.15Z" fill="black"/>
<path d="M83.4109 113.669L42.2188 72.4941L87.1617 149.58C84.146 144.157 82.2577 138.181 81.6102 132.01C80.9628 125.838 81.5695 119.6 83.394 113.669H83.4109Z" fill="url(#paint1_radial_2955_15046)"/>
<path d="M138.041 173.414L122.953 229.693L167.627 151.548C164.458 157.029 160.194 161.8 155.101 165.562C150.008 169.323 144.195 171.996 138.024 173.414H138.041Z" fill="url(#paint2_radial_2955_15046)"/>
<path d="M161.808 96.7654L218.02 81.7451H127.781C117.222 81.7467 106.984 85.3782 98.7842 92.0309C90.5841 98.6835 84.9203 107.953 82.7421 118.285C80.564 128.617 82.0038 139.384 86.8204 148.781C91.637 158.177 99.5375 165.633 109.197 169.897C118.857 174.161 129.69 174.975 139.878 172.202C150.067 169.429 158.993 163.237 165.159 154.666C171.325 146.094 174.358 135.663 173.748 125.122C173.138 114.58 168.922 104.568 161.808 96.7654Z" fill="url(#paint3_radial_2955_15046)"/>
<path d="M128 228.92C154.766 228.92 180.435 218.287 199.361 199.361C218.287 180.435 228.92 154.766 228.92 128C228.92 101.234 218.287 75.565 199.361 56.6388C180.435 37.7127 154.766 27.0801 128 27.0801C101.234 27.0801 75.565 37.7127 56.6388 56.6388C37.7127 75.565 27.0801 101.234 27.0801 128C27.0801 154.766 37.7127 180.435 56.6388 199.361C75.565 218.287 101.234 228.92 128 228.92Z" stroke="white" stroke-width="10.5125"/>
<path d="M128 175.096C154.011 175.096 175.096 154.011 175.096 128C175.096 101.99 154.011 80.9043 128 80.9043C101.99 80.9043 80.9043 101.99 80.9043 128C80.9043 154.011 101.99 175.096 128 175.096Z" stroke="white" stroke-width="10.5125"/>
<path d="M127.999 161.639C146.578 161.639 161.639 146.578 161.639 127.999C161.639 109.42 146.578 94.3594 127.999 94.3594C109.42 94.3594 94.3594 109.42 94.3594 127.999C94.3594 146.578 109.42 161.639 127.999 161.639Z" stroke="white" stroke-width="10.5125"/>
<path d="M128 80.9039H217.146V84.2679H128V80.9039ZM168.788 151.548L124.216 228.751L121.306 227.069L165.879 149.866L168.788 151.548ZM87.2116 151.548L42.6387 74.3441L45.5485 72.6621L90.1215 149.866L87.2116 151.548Z" fill="white"/>
</g>
<defs>
<radialGradient id="paint0_radial_2955_15046" cx="0" cy="0" r="1" gradientUnits="userSpaceOnUse" gradientTransform="translate(46107.1 43035.1) scale(307200)">
<stop stop-color="white" stop-opacity="0.12"/>
<stop offset="1" stop-color="white" stop-opacity="0"/>
</radialGradient>
<radialGradient id="paint1_radial_2955_15046" cx="0" cy="0" r="1" gradientUnits="userSpaceOnUse" gradientTransform="translate(-94.5856 189.817) scale(93028.4 159562)">
<stop stop-color="#1A237E" stop-opacity="0.2"/>
<stop offset="1" stop-color="#1A237E" stop-opacity="0"/>
</radialGradient>
<radialGradient id="paint2_radial_2955_15046" cx="0" cy="0" r="1" gradientUnits="userSpaceOnUse" gradientTransform="translate(57917.5 15613.4) scale(104710 183164)">
<stop stop-color="#1A237E" stop-opacity="0.12"/>
<stop offset="1" stop-color="#1A237E" stop-opacity="0"/>
</radialGradient>
<radialGradient id="paint3_radial_2955_15046" cx="0" cy="0" r="1" gradientUnits="userSpaceOnUse" gradientTransform="translate(85116 81.7451) scale(118218 79876.6)">
<stop stop-color="#1A237E" stop-opacity="0.15"/>
<stop offset="1" stop-color="#1A237E" stop-opacity="0"/>
</radialGradient>
<clipPath id="clip0_2955_15046">
<rect width="256" height="256" fill="white"/>
</clipPath>
</defs>
</svg>
