<svg width="256" height="256" viewBox="0 0 256 256" fill="none" xmlns="http://www.w3.org/2000/svg">
<rect width="256" height="256" fill="#062029"/>
<path d="M98.4023 128C98.4023 112.688 110.814 100.402 126.001 100.402C141.197 100.402 153.609 112.814 153.609 128C153.609 143.196 141.197 155.608 126.001 155.608C110.824 155.608 98.4023 143.196 98.4023 128ZM126.001 12C71.8383 12 26.4727 49.12 13.5967 99.2417C13.5 99.5897 13.5 99.9183 13.5 100.402C13.5 103.427 15.936 105.97 19.0583 105.97H65.7967C68.02 105.97 69.9823 104.713 70.7943 102.751C80.432 81.8707 101.534 67.2547 126.01 67.2547C159.515 67.2547 186.775 94.5147 186.775 128.029C186.775 161.572 159.515 188.832 125.972 188.832C101.515 188.832 80.403 174.332 70.775 153.327C69.8373 151.49 67.9717 150.079 65.7773 150.079H19.0583C16.0423 150.079 13.5 152.524 13.5 155.647C13.5 156.004 13.6353 156.343 13.6353 156.807C26.3953 206.88 71.8287 244 126.001 244C190.033 244 242.001 192.042 242.001 128C242.001 63.9777 190.033 12 126.001 12Z" fill="#E84F44"/>
</svg>
