<svg width="256" height="256" viewBox="0 0 256 256" fill="none" xmlns="http://www.w3.org/2000/svg">
<path d="M55.583 230.44L3.08295 139.5C-1.02505 132.384 -1.02505 123.618 3.08295 116.502L55.583 25.5615C59.691 18.4455 67.283 14.0615 75.501 14.0615H180.501C188.717 14.0615 196.309 18.4455 200.419 25.5615L252.919 116.502C257.027 123.618 257.027 132.384 252.919 139.5L200.419 230.44C196.311 237.556 188.719 241.938 180.501 241.938H75.501C67.285 241.938 59.691 237.554 55.583 230.44Z" fill="url(#paint0_linear_2773_1003)"/>
<mask id="mask0_2773_1003" style="mask-type:luminance" maskUnits="userSpaceOnUse" x="0" y="14" width="256" height="228">
<path d="M55.581 230.441L3.081 139.501C-1.027 132.385 -1.027 123.619 3.081 116.503L55.581 25.5625C59.689 18.4465 67.281 14.0625 75.499 14.0625H180.499C188.715 14.0625 196.307 18.4465 200.417 25.5625L252.917 116.503C257.025 123.619 257.025 132.385 252.917 139.501L200.417 230.441C196.309 237.557 188.717 241.939 180.499 241.939H75.499C67.283 241.939 59.691 237.555 55.583 230.441" fill="white"/>
</mask>
<g mask="url(#mask0_2773_1003)">
<path opacity="0.07" d="M248.098 165.72L177.998 64.5H127.498H71.998V176L162.038 244.38L195.338 244.08L248.098 165.72Z" fill="black"/>
</g>
<g clip-path="url(#clip0_2773_1003)">
<path d="M173.778 126.222H74.2221C70.8 126.222 68 129.022 68 132.445V169.778C68 173.2 70.8 176 74.2221 176H173.778C177.2 176 180 173.2 180 169.778V132.444C180 129.022 177.2 126.222 173.778 126.222ZM92.8889 163.556C86.0443 163.556 80.4443 157.956 80.4443 151.111C80.4443 144.267 86.0443 138.667 92.8889 138.667C99.7334 138.667 105.333 144.267 105.333 151.111C105.333 157.956 99.7336 163.556 92.8889 163.556ZM173.778 64H74.2221C70.8 64 68 66.8 68 70.2221V107.556C68 110.978 70.8 113.778 74.2221 113.778H173.778C177.2 113.778 180 110.978 180 107.556V70.2221C180 66.8 177.2 64 173.778 64ZM92.8889 101.333C86.0443 101.333 80.4443 95.7334 80.4443 88.8887C80.4443 82.0445 86.0443 76.4445 92.8889 76.4445C99.7334 76.4445 105.333 82.0445 105.333 88.8889C105.333 95.7334 99.7336 101.333 92.8889 101.333Z" fill="white"/>
</g>
<defs>
<linearGradient id="paint0_linear_2773_1003" x1="0.000956373" y1="14.0595" x2="0.000956373" y2="241.58" gradientUnits="userSpaceOnUse">
<stop stop-color="#4387FD"/>
<stop offset="1" stop-color="#4683EA"/>
</linearGradient>
<clipPath id="clip0_2773_1003">
<rect width="112" height="112" fill="white" transform="translate(68 64)"/>
</clipPath>
</defs>
</svg>
