<svg width="256" height="256" viewBox="0 0 256 256" fill="none" xmlns="http://www.w3.org/2000/svg">
<path d="M59.3522 225.098L9.58668 138.899C7.67332 135.585 6.66602 131.826 6.66602 127.999C6.66602 124.172 7.67332 120.413 9.58668 117.099L59.3522 30.901C61.2659 27.5865 64.0183 24.8341 67.3329 22.9206C70.6475 21.007 74.4074 19.9998 78.2347 20H177.766C181.593 20.0001 185.352 21.0075 188.666 22.9211C191.981 24.8346 194.733 27.5868 196.646 30.901L246.412 117.099C248.326 120.413 249.333 124.173 249.333 128C249.333 131.827 248.326 135.587 246.412 138.901L196.646 225.097C194.733 228.411 191.981 231.163 188.666 233.077C185.352 234.99 181.593 235.998 177.766 235.998H78.2347C74.4074 235.998 70.6474 234.991 67.3328 233.077C64.0181 231.164 61.2657 228.413 59.3522 225.098Z" fill="url(#paint0_linear_2772_10020)"/>
<mask id="mask0_2772_10020" style="mask-type:luminance" maskUnits="userSpaceOnUse" x="6" y="20" width="244" height="216">
<path d="M59.3542 225.098L9.58864 138.899C7.67527 135.585 6.66797 131.826 6.66797 127.999C6.66797 124.172 7.67527 120.413 9.58864 117.099L59.3542 30.901C61.2675 27.5866 64.0196 24.8343 67.3339 22.9208C70.6482 21.0073 74.4077 19.9999 78.2347 20H177.766C181.593 19.9998 185.353 21.007 188.668 22.9206C191.982 24.8341 194.735 27.5865 196.648 30.901L246.414 117.099C248.328 120.413 249.335 124.173 249.335 128C249.335 131.827 248.328 135.587 246.414 138.901L196.648 225.097C194.735 228.411 191.982 231.164 188.668 233.077C185.353 234.991 181.593 235.998 177.766 235.998H78.2347C74.4077 235.998 70.6482 234.99 67.3339 233.077C64.0196 231.163 61.2675 228.411 59.3542 225.097V225.098Z" fill="white"/>
</mask>
<g mask="url(#mask0_2772_10020)">
<path opacity="0.07" d="M100.155 108.805L86.8652 122.056L98.1587 133.352L86.9771 153.213L171.597 237.835L192.103 237.839L232.148 165.917L168.739 102.501L100.155 108.805Z" fill="black"/>
</g>
<path d="M167.677 102.002H88.3212C87.0438 102.002 86 103.036 86 104.301V120.521C86 121.782 87.0457 122.816 88.3212 122.816H167.677C168.954 122.816 170 121.782 170 120.521V104.297C170 103.036 168.956 102 167.679 102M155.391 117.103C154.133 117.1 152.928 116.604 152.039 115.724C151.15 114.844 150.65 113.651 150.647 112.407C150.647 111.791 150.769 111.181 151.008 110.612C151.246 110.042 151.595 109.525 152.036 109.089C152.476 108.654 153 108.308 153.575 108.073C154.151 107.837 154.768 107.716 155.391 107.717C158.015 107.717 160.141 109.805 160.141 112.407C160.141 113.024 160.018 113.635 159.779 114.204C159.541 114.774 159.191 115.292 158.75 115.728C158.309 116.164 157.785 116.51 157.209 116.746C156.633 116.982 156.015 117.103 155.391 117.103ZM167.677 133.182L88.3212 133.186C87.0438 133.186 86 134.22 86 135.484V151.703C86 152.964 87.0457 154 88.3212 154H167.677C168.954 154 170 152.964 170 151.703V135.481C170 134.22 168.954 133.182 167.677 133.182ZM155.391 148.285C154.133 148.282 152.927 147.786 152.038 146.906C151.149 146.026 150.649 144.833 150.647 143.589C150.647 142.973 150.769 142.363 151.008 141.793C151.246 141.224 151.595 140.707 152.036 140.271C152.476 139.836 153 139.49 153.575 139.255C154.151 139.019 154.768 138.898 155.391 138.899C156.031 138.873 156.668 138.976 157.267 139.2C157.865 139.424 158.411 139.766 158.872 140.204C159.334 140.642 159.701 141.168 159.952 141.75C160.202 142.332 160.332 142.958 160.332 143.591C160.332 144.223 160.202 144.85 159.952 145.432C159.701 146.013 159.334 146.539 158.872 146.978C158.411 147.416 157.865 147.757 157.267 147.982C156.668 148.206 156.031 148.311 155.391 148.285Z" fill="white"/>
<defs>
<linearGradient id="paint0_linear_2772_10020" x1="128" y1="20.0019" x2="128" y2="235.662" gradientUnits="userSpaceOnUse">
<stop stop-color="#4387FD"/>
<stop offset="1" stop-color="#4683EA"/>
</linearGradient>
</defs>
</svg>
