<svg width="256" height="256" viewBox="0 0 256 256" fill="none" xmlns="http://www.w3.org/2000/svg">
<path d="M198.393 116.441C203.103 116.273 207.77 117.38 211.902 119.646C216.035 121.912 219.478 125.252 221.868 129.314C226.456 136.971 227.777 146.148 225.525 154.774L224.233 159.733C219.361 178.427 208.901 195.19 194.251 207.784C188.504 212.695 182.063 217.873 174.463 222.262L174.197 222.423C170.378 224.627 165.799 227.278 160.916 229.605C149.611 235.324 137.403 239.077 124.835 240.692C116.722 241.746 108.533 242.164 100.353 241.946H100.182C82.7126 241.313 65.9083 235.085 52.2452 224.181L52.1312 224.086L52.0172 223.991C38.2877 212.694 28.9389 196.954 25.5882 179.493C23.1797 167.673 22.8518 155.524 24.6192 143.592C27.194 126.133 32.8625 109.272 41.3582 93.8028C47.8565 81.4035 55.5975 69.6964 64.4622 58.8618C74.0998 47.0928 85.5096 36.8945 98.2822 28.6328C108.587 21.926 120.1 17.2922 132.178 14.9908H132.216L132.245 14.9718C151.786 11.3238 167.803 18.5248 179.973 26.9418C189.159 33.2025 196.913 41.3392 202.725 50.8153L202.953 51.1953L203.172 51.5943C209.586 63.2173 211.313 76.8534 207.998 89.7083C205.727 98.9233 202.507 107.891 198.393 116.441Z" fill="#461816"/>
<path d="M193.193 139.074C193.861 138.093 194.765 137.296 195.821 136.754C196.877 136.213 198.052 135.944 199.239 135.974C200.425 136.003 201.586 136.329 202.614 136.922C203.642 137.515 204.505 138.356 205.125 139.369C207.015 142.523 207.557 146.304 206.635 149.847L205.334 154.806C201.466 169.64 193.168 182.942 181.546 192.939C176.112 197.594 170.735 201.86 164.693 205.346C160.636 207.693 156.551 210.058 152.314 212.062C142.93 216.846 132.79 219.974 122.342 221.306C115.235 222.237 108.065 222.606 100.9 222.408C87.6164 221.926 74.8384 217.19 64.4488 208.899C54.2108 200.476 47.2491 188.731 44.7743 175.706C42.798 166.075 42.5247 156.172 43.9668 146.446C46.2124 131.223 51.1674 116.525 58.5968 103.05C64.5006 91.7604 71.5418 81.1032 79.6108 71.244C87.9695 61.0346 97.8667 52.1887 108.947 45.024C117.125 39.6991 126.264 36.0204 135.851 34.194C148.267 31.8665 158.974 36.1605 168.92 43.0575C175.848 47.7655 181.696 53.8922 186.077 61.0315C190.096 68.318 191.169 76.8775 189.06 84.924C186.91 93.7123 183.754 102.223 179.655 110.289L177.537 115.011C174.487 121.784 171.438 128.558 168.322 135.312C167.687 137.121 166.359 138.604 164.632 139.436C162.904 140.268 160.917 140.38 159.107 139.749C153.739 138.046 148.912 134.966 145.106 130.815C141.3 126.664 138.65 121.588 137.418 116.094C136.516 108.209 137.798 100.238 141.123 93.0465C143.859 85.9595 146.918 79.015 149.987 72.0705L152.343 66.722C152.697 66.1367 152.928 65.4853 153.022 64.8077C153.116 64.1301 153.071 63.4404 152.89 62.7807C152.708 62.121 152.395 61.5053 151.967 60.971C151.54 60.4366 151.008 59.995 150.405 59.673C146.019 60.6954 142.045 63.0201 139.005 66.342C133.632 71.6924 128.515 77.2942 123.672 83.1285C113.884 95.3817 105.536 108.718 98.7913 122.877C94.5668 131.022 91.9357 139.898 91.0393 149.03C90.1449 156.048 90.3694 163.163 91.7043 170.111C92.4391 174.519 94.6644 178.542 98.0084 181.507C101.352 184.473 105.613 186.201 110.077 186.403C127.187 187.353 144.182 182.955 158.679 173.787C164.208 169.987 169.519 165.893 174.592 161.494C181.736 154.749 187.664 147.064 193.193 139.074Z" fill="white"/>
</svg>
