<svg width="256" height="256" viewBox="0 0 256 256" fill="none" xmlns="http://www.w3.org/2000/svg">
<g clip-path="url(#clip0_2955_15104)">
<path d="M213.5 55.166L197.967 228.697L128.146 248L58.5165 228.724L43 55.166H213.5Z" fill="#264DE4"/>
<path d="M184.669 217.646L197.943 69.3564H128.25V233.245L184.669 217.646Z" fill="#2965F1"/>
<path d="M78.5723 133.727L80.4853 155.013H128.251V133.727H78.5723Z" fill="#EBEBEB"/>
<path d="M128.249 90.6426H128.175H74.7266L76.6669 111.929H128.249V90.6426Z" fill="#EBEBEB"/>
<path d="M128.249 211.156V189.009L128.156 189.034L104.384 182.633L102.864 165.656H91.3131H81.4375L84.4279 199.079L128.151 211.183L128.249 211.156Z" fill="#EBEBEB"/>
<path d="M83.127 8H108.979V18.7812H93.9379V29.5625H108.979V40.3438H83.127V8Z" fill="black"/>
<path d="M114.148 8H140.001V17.375H124.959V19.25H140.001V40.8125H114.148V30.9688H129.19V29.0938H114.148V8Z" fill="black"/>
<path d="M145.172 8H171.024V17.375H155.983V19.25H171.024V40.8125H145.172V30.9688H160.213V29.0938H145.172V8Z" fill="black"/>
<path d="M154.46 155.012L151.982 182.619L128.176 189.027V211.172L171.934 199.078L172.255 195.482L177.271 139.442L177.791 133.726L181.645 90.6426H128.176V111.929H158.253L156.311 133.726H128.176V155.012H154.46Z" fill="white"/>
</g>
<defs>
<clipPath id="clip0_2955_15104">
<rect width="170.5" height="240" fill="white" transform="translate(43 8)"/>
</clipPath>
</defs>
</svg>
