<svg width="256" height="256" viewBox="0 0 256 256" fill="none" xmlns="http://www.w3.org/2000/svg">
<rect width="256" height="256" fill="white"/>
<path d="M93.2616 104.261C102.592 104.261 110.173 109.247 114.061 117.906L114.352 118.587L130 113.26L129.684 112.458C123.634 97.6696 109.663 88.5 93.2616 88.5C81.7201 88.5 72.3411 92.197 64.5901 99.81C56.8877 107.374 53 116.885 53 128.073C53 139.188 56.912 148.65 64.5901 156.19C72.3411 163.803 81.7201 167.5 93.2616 167.5C109.663 167.5 123.61 158.306 129.684 143.542L130 142.74L114.328 137.413L114.061 138.118C110.562 146.655 102.786 151.739 93.2616 151.739C86.7741 151.739 81.2827 149.477 76.9577 145.002C72.5598 140.478 70.3487 134.762 70.3487 128.073C70.3487 121.336 72.5112 115.741 76.9577 110.998C81.307 106.523 86.7741 104.261 93.2616 104.261Z" fill="#1B1E2E"/>
<path d="M161.695 238.5L157 223.085C199.351 210.275 227.813 172.065 227.813 128.01C227.813 115.858 225.637 103.974 221.333 92.723L236.444 87C241.457 100.102 244 113.886 244 128.035C243.976 179.2 210.917 223.596 161.695 238.5Z" fill="url(#paint0_linear_2657_8036)"/>
<path d="M223.525 98.5C210.573 56.4084 172.106 28.1441 127.788 28.1441C121.765 28.1441 115.741 28.6806 109.865 29.7292L107 13.8534C113.807 12.6341 120.81 12 127.788 12C179.256 12 223.942 44.849 239 93.7446L223.525 98.5Z" fill="#69D3A7"/>
<path d="M19.4198 168.5C14.4895 155.465 12 141.723 12 127.688C12 67.8848 56.8846 18.3582 116.414 12.5L118 28.5613C66.7695 33.6141 28.1331 76.2327 28.1331 127.688C28.1331 139.77 30.2809 151.609 34.5033 162.813L19.4198 168.5Z" fill="url(#paint1_linear_2657_8036)"/>
<path d="M192.033 89.5L169.599 146.416L146.995 89.5H128.5L160.205 167.184L137.111 223.267L153.282 226.5L209.5 89.5H192.033Z" fill="#1B1E2E"/>
<path d="M139.891 215.878L136.503 224.08C135.723 225.954 133.944 227.243 131.946 227.316C130.557 227.365 129.192 227.414 127.778 227.414C83.5448 227.414 44.1612 197.845 32 155.5L16.5 159.929C30.6352 209.113 76.3797 243.476 127.754 243.5H127.778C129.387 243.5 130.995 243.476 132.604 243.403C140.866 243.062 148.25 237.878 151.418 230.212L156 219.091L139.891 215.878Z" fill="url(#paint2_linear_2657_8036)"/>
<defs>
<linearGradient id="paint0_linear_2657_8036" x1="252.898" y1="128.742" x2="149.441" y2="195.998" gradientUnits="userSpaceOnUse">
<stop offset="0.081" stop-color="#69D3A7"/>
<stop offset="1" stop-color="#69D3A7" stop-opacity="0"/>
</linearGradient>
<linearGradient id="paint1_linear_2657_8036" x1="89.3422" y1="13.3778" x2="24.3002" y2="151.312" gradientUnits="userSpaceOnUse">
<stop stop-color="#69D3A7"/>
<stop offset="0.823" stop-color="#2AB586"/>
<stop offset="1" stop-color="#1CAE7F"/>
</linearGradient>
<linearGradient id="paint2_linear_2657_8036" x1="11.8763" y1="180.943" x2="182.105" y2="234.444" gradientUnits="userSpaceOnUse">
<stop offset="0.077" stop-color="#1CAE7F"/>
<stop offset="0.164" stop-color="#1CA379"/>
<stop offset="0.316" stop-color="#1C8568"/>
<stop offset="0.516" stop-color="#1B554D"/>
<stop offset="0.719" stop-color="#1B1E2E"/>
</linearGradient>
</defs>
</svg>
