<svg width="512" height="512" viewBox="0 0 512 512" fill="none" xmlns="http://www.w3.org/2000/svg">
<rect width="512" height="512" fill="white"/>
<path d="M497.092 358.724C497.309 356.619 497.465 354.493 497.586 352.357C497.732 349.829 345.272 205.306 345.272 205.306H341.627C341.627 205.306 496.159 368.159 497.092 358.724Z" fill="url(#paint0_linear_2760_1688)"/>
<path d="M171.814 308.591C171.612 309.034 171.41 309.477 171.203 309.92C170.987 310.384 170.765 310.847 170.543 311.306C165.683 321.43 238.58 392.628 244.444 383.98C244.711 383.597 244.978 383.194 245.245 382.811C245.543 382.358 245.835 381.925 246.128 381.471C250.816 374.359 173.896 303.967 171.814 308.591Z" fill="url(#paint1_linear_2760_1688)"/>
<path d="M274.826 408.712C274.619 409.165 273.152 411.643 271.811 412.953C271.584 413.406 342.974 484.141 342.974 484.141H349.402C349.407 484.141 282.389 411.704 274.826 408.712Z" fill="url(#paint2_linear_2760_1688)"/>
<path d="M497.687 351.073C494.35 425.017 433.119 484.141 358.311 484.141H348.197L273.49 410.611C279.635 401.952 285.348 392.981 290.435 383.627H358.311C379.778 383.627 397.247 366.184 397.247 344.726C397.247 323.279 379.778 305.825 358.311 305.825H318.144C321.204 289.661 322.878 272.994 322.878 255.943C322.878 238.631 321.174 221.727 318.002 205.306H342.954L497.249 357.198C497.43 355.163 497.577 353.128 497.687 351.073ZM54.5854 27H14V127.514H54.5854C125.471 127.514 183.148 185.123 183.148 255.943C183.148 275.21 178.847 293.5 171.204 309.92L245.246 382.811C269.557 346.469 283.77 302.838 283.77 255.943C283.77 129.705 180.955 27 54.5854 27Z" fill="url(#paint3_linear_2760_1688)"/>
<path d="M358.311 27H193.963C234.105 51.485 267.344 86.2053 289.992 127.514H358.311C379.779 127.514 397.248 144.957 397.248 166.415C397.248 187.868 379.779 205.311 358.311 205.311H342.959L497.254 357.203C497.617 353.083 497.844 348.937 497.844 344.726C497.844 310.842 485.674 279.759 465.467 255.566C485.674 231.383 497.844 200.294 497.844 166.415C497.844 89.5449 435.257 27 358.311 27Z" fill="url(#paint4_linear_2760_1688)"/>
<path d="M348.197 484.141H195.137C225.947 465.132 252.582 440.037 273.49 410.611L348.197 484.141ZM245.246 382.811L171.209 309.92C150.755 353.838 106.182 384.383 54.5854 384.383H14V484.887H54.5854C134.012 484.887 204.116 444.298 245.246 382.811Z" fill="url(#paint5_linear_2760_1688)"/>
<defs>
<linearGradient id="paint0_linear_2760_1688" x1="-12546.3" y1="-14071.6" x2="16096.6" y2="16912" gradientUnits="userSpaceOnUse">
<stop stop-color="#F9A03C"/>
<stop offset="1" stop-color="#F7974E"/>
</linearGradient>
<linearGradient id="paint1_linear_2760_1688" x1="-19513.9" y1="-18696.5" x2="7699.59" y2="7736.7" gradientUnits="userSpaceOnUse">
<stop stop-color="#F9A03C"/>
<stop offset="1" stop-color="#F7974E"/>
</linearGradient>
<linearGradient id="paint2_linear_2760_1688" x1="-17043.8" y1="-19351.4" x2="6780.82" y2="8746.37" gradientUnits="userSpaceOnUse">
<stop stop-color="#F9A03C"/>
<stop offset="1" stop-color="#F7974E"/>
</linearGradient>
<linearGradient id="paint3_linear_2760_1688" x1="5498.39" y1="-805.772" x2="37487.4" y2="43872" gradientUnits="userSpaceOnUse">
<stop stop-color="#F26D58"/>
<stop offset="1" stop-color="#F9A03C"/>
</linearGradient>
<linearGradient id="paint4_linear_2760_1688" x1="5008.55" y1="1300.93" x2="38231.6" y2="21391.1" gradientUnits="userSpaceOnUse">
<stop stop-color="#B84E51"/>
<stop offset="1" stop-color="#F68E48"/>
</linearGradient>
<linearGradient id="paint5_linear_2760_1688" x1="15716" y1="4415.76" x2="16165" y2="26123" gradientUnits="userSpaceOnUse">
<stop stop-color="#F9A03C"/>
<stop offset="1" stop-color="#F7974E"/>
</linearGradient>
</defs>
</svg>
