<svg width="512" height="512" viewBox="0 0 512 512" fill="none" xmlns="http://www.w3.org/2000/svg">
<path d="M143.71 157.61L270.21 84.62C271.46 83.9 272.23 82.57 272.23 81.12L272.24 37.35C272.24 30.87 269.58 24.45 264.41 20.54C257.72 15.48 249.13 14.98 242.08 19.06L65.13 121.17C58.91 124.76 55.07 131.4 55.07 138.58L55 369.18C55 375.65 57.65 382.07 62.81 385.99C69.49 391.06 78.1 391.56 85.16 387.48L122.64 365.86C123.89 365.14 124.66 363.81 124.66 362.36L124.71 190.51C124.71 176.93 131.95 164.4 143.71 157.61Z" fill="#FFC11E"/>
<path d="M446.95 124.53C443.8 122.71 440.34 121.8 436.89 121.8C433.44 121.8 429.99 122.71 426.84 124.53L249.88 226.63C243.68 230.21 239.82 236.88 239.82 244.04L239.75 475.51C239.75 482.78 243.51 489.29 249.8 492.93C256.1 496.57 263.61 496.57 269.91 492.93L446.86 390.82C453.06 387.24 456.92 380.57 456.92 373.41L457 141.95C457 134.68 453.24 128.16 446.95 124.53Z" fill="#EF1161"/>
<path d="M240.95 211.14L357.73 143.76C358.98 143.04 359.75 141.71 359.75 140.26L359.77 89.28C359.77 82.8 357.11 76.38 351.94 72.47C345.25 67.41 336.67 66.92 329.61 70.99L281.18 98.94L152.64 173.1C146.42 176.69 142.58 183.33 142.58 190.51L142.53 364.69L142.51 421.1C142.51 427.58 145.16 433.99 150.32 437.91C157.01 442.98 165.61 443.48 172.67 439.4L219.87 412.16C221.12 411.44 221.89 410.11 221.89 408.66L221.94 244.02C221.95 230.46 229.19 217.92 240.95 211.14Z" fill="#FC6E6B"/>
</svg>
