<svg width="256" height="256" viewBox="0 0 256 256" fill="none" xmlns="http://www.w3.org/2000/svg">
<path d="M212 50C212 38.9543 174.392 30 128 30C81.6081 30 44 38.9543 44 50C44 61.0457 81.6081 70 128 70C174.392 70 212 61.0457 212 50ZM230 50C230 63.4882 219.109 70.7228 214.229 73.4702C207.88 77.0441 199.887 79.6715 191.566 81.6528C174.638 85.6832 152.173 88 128 88C103.827 88 81.3616 85.6832 64.4341 81.6528C56.1126 79.6715 48.1203 77.0441 41.7715 73.4702C36.8909 70.7228 26 63.4882 26 50C26 36.5118 36.8909 29.2772 41.7715 26.5298C48.1203 22.9559 56.1126 20.3285 64.4341 18.3472C81.3616 14.3168 103.827 12 128 12C152.173 12 174.638 14.3168 191.566 18.3472C199.887 20.3285 207.88 22.9559 214.229 26.5298C219.109 29.2772 230 36.5118 230 50Z" fill="#262626"/>
<path d="M128 122C81.6081 122 44 113.046 44 102H26C26 115.488 36.8909 122.723 41.7715 125.47C48.1203 129.044 56.1126 131.672 64.4341 133.653C81.3616 137.683 103.827 140 128 140C152.173 140 174.638 137.683 191.566 133.653C199.887 131.672 207.88 129.044 214.229 125.47C219.109 122.723 230 115.488 230 102H212C212 113.046 174.392 122 128 122Z" fill="#262626"/>
<path d="M128 174C81.6081 174 44 165.046 44 154H26C26 167.488 36.8909 174.723 41.7715 177.47C48.1203 181.044 56.1126 183.672 64.4341 185.653C81.3616 189.683 103.827 192 128 192C152.173 192 174.638 189.683 191.566 185.653C199.887 183.672 207.88 181.044 214.229 177.47C219.109 174.723 230 167.488 230 154H212C212 165.046 174.392 174 128 174Z" fill="#262626"/>
<path d="M128 226C81.6081 226 44 217.046 44 206H26C26 219.488 36.8909 226.723 41.7715 229.47C48.1203 233.044 56.1126 235.672 64.4341 237.653C81.3616 241.683 103.827 244 128 244C152.173 244 174.638 241.683 191.566 237.653C199.887 235.672 207.88 233.044 214.229 229.47C219.109 226.723 230 219.488 230 206H212C212 217.046 174.392 226 128 226Z" fill="#262626"/>
<path d="M44 208H26L26 50H44L44 208Z" fill="#262626"/>
<path d="M230 208H212V50H230V208Z" fill="#262626"/>
<circle cx="123" cy="105" r="9" fill="#262626"/>
<circle cx="123" cy="157" r="9" fill="#262626"/>
<circle cx="123" cy="209" r="9" fill="#262626"/>
<path d="M53.3553 93.9647C54.4792 90.8475 57.9173 89.232 61.0345 90.3558C61.0351 90.356 61.0363 90.3562 61.0379 90.3568C61.0417 90.3581 61.0484 90.3604 61.0574 90.3636C61.0755 90.3701 61.104 90.3802 61.1424 90.3939C61.2192 90.4213 61.3358 90.4626 61.4886 90.5164C61.7944 90.6242 62.2447 90.7819 62.8113 90.9759C63.946 91.3645 65.5404 91.898 67.3704 92.4759C71.0892 93.6502 75.5602 94.9357 79.1092 95.6034C82.8084 96.2993 87.8851 96.9673 92.1385 97.4686C94.2435 97.7167 96.1087 97.9196 97.4471 98.0604C98.1159 98.1307 98.6524 98.1855 99.0198 98.2225C99.2034 98.241 99.3451 98.2547 99.4398 98.264C99.487 98.2687 99.5228 98.2725 99.5462 98.2747C99.5576 98.2759 99.5661 98.2767 99.5716 98.2772C99.5743 98.2775 99.5768 98.2776 99.5779 98.2777H99.5789L99.7327 98.2948C102.952 98.6894 105.287 101.582 104.972 104.829C104.652 108.127 101.719 110.542 98.4207 110.222L98.9998 104.25C98.4208 110.222 98.4205 110.222 98.4202 110.222L98.4197 110.222C98.4192 110.221 98.4182 110.222 98.4173 110.222C98.4153 110.221 98.4121 110.221 98.4085 110.221C98.4013 110.22 98.391 110.219 98.3777 110.218C98.3509 110.215 98.3115 110.211 98.2606 110.206C98.1586 110.196 98.0094 110.181 97.8177 110.162C97.4344 110.123 96.8804 110.067 96.1922 109.994C94.8165 109.85 92.8997 109.641 90.7337 109.386C86.4447 108.881 81.0213 108.173 76.8904 107.396C72.6093 106.591 67.5802 105.126 63.7567 103.919C61.8155 103.306 60.1275 102.741 58.9232 102.328C58.3204 102.122 57.8369 101.953 57.5013 101.835C57.3336 101.776 57.2027 101.729 57.1121 101.697C57.0668 101.681 57.0313 101.668 57.0067 101.66C56.9944 101.655 56.9848 101.651 56.9778 101.649C56.9745 101.648 56.9717 101.647 56.9695 101.646C56.9685 101.645 56.9673 101.645 56.9666 101.645L56.9656 101.644C56.9667 101.64 57.0191 101.494 58.9998 95.9998C59.0655 95.8178 59.1288 95.6415 59.1902 95.471L56.9647 101.644C53.8475 100.52 52.2314 97.0819 53.3553 93.9647Z" fill="#262626"/>
<path d="M53.3553 145.965C54.4792 142.848 57.9173 141.232 61.0345 142.356C61.0351 142.356 61.0363 142.356 61.0379 142.357C61.0417 142.358 61.0484 142.36 61.0574 142.364C61.0755 142.37 61.104 142.38 61.1424 142.394C61.2192 142.421 61.3358 142.463 61.4886 142.516C61.7944 142.624 62.2447 142.782 62.8113 142.976C63.946 143.365 65.5404 143.898 67.3704 144.476C71.0892 145.65 75.5602 146.936 79.1092 147.603C82.8084 148.299 87.8851 148.967 92.1385 149.469C94.2435 149.717 96.1087 149.92 97.4471 150.06C98.1159 150.131 98.6524 150.186 99.0198 150.222C99.2034 150.241 99.3451 150.255 99.4398 150.264C99.487 150.269 99.5228 150.272 99.5462 150.275C99.5576 150.276 99.5661 150.277 99.5716 150.277C99.5743 150.277 99.5768 150.278 99.5779 150.278H99.5789L99.7327 150.295C102.952 150.689 105.287 153.582 104.972 156.829C104.652 160.127 101.719 162.542 98.4207 162.222L98.9998 156.25C98.4208 162.222 98.4205 162.222 98.4202 162.222L98.4197 162.222C98.4192 162.221 98.4182 162.222 98.4173 162.222C98.4153 162.221 98.4121 162.221 98.4085 162.221C98.4013 162.22 98.391 162.219 98.3777 162.218C98.3509 162.215 98.3115 162.211 98.2606 162.206C98.1586 162.196 98.0094 162.181 97.8177 162.162C97.4344 162.123 96.8804 162.067 96.1922 161.994C94.8165 161.85 92.8997 161.641 90.7337 161.386C86.4447 160.881 81.0213 160.173 76.8904 159.396C72.6093 158.591 67.5802 157.126 63.7567 155.919C61.8155 155.306 60.1275 154.741 58.9232 154.328C58.3204 154.122 57.8369 153.953 57.5013 153.835C57.3336 153.776 57.2027 153.729 57.1121 153.697C57.0668 153.681 57.0313 153.668 57.0067 153.66C56.9944 153.655 56.9848 153.651 56.9778 153.649C56.9745 153.648 56.9717 153.647 56.9695 153.646C56.9685 153.645 56.9673 153.645 56.9666 153.645L56.9656 153.644C56.9667 153.64 57.0191 153.494 58.9998 148C59.0655 147.818 59.1288 147.642 59.1902 147.471L56.9647 153.644C53.8475 152.52 52.2314 149.082 53.3553 145.965Z" fill="#262626"/>
<path d="M53.3553 197.965C54.4792 194.848 57.9173 193.232 61.0345 194.356C61.0351 194.356 61.0363 194.356 61.0379 194.357C61.0417 194.358 61.0484 194.36 61.0574 194.364C61.0755 194.37 61.104 194.38 61.1424 194.394C61.2192 194.421 61.3358 194.463 61.4886 194.516C61.7944 194.624 62.2447 194.782 62.8113 194.976C63.946 195.365 65.5404 195.898 67.3704 196.476C71.0892 197.65 75.5602 198.936 79.1092 199.603C82.8084 200.299 87.8851 200.967 92.1385 201.469C94.2435 201.717 96.1087 201.92 97.4471 202.06C98.1159 202.131 98.6524 202.186 99.0198 202.222C99.2034 202.241 99.3451 202.255 99.4398 202.264C99.487 202.269 99.5228 202.272 99.5462 202.275C99.5576 202.276 99.5661 202.277 99.5716 202.277C99.5743 202.277 99.5768 202.278 99.5779 202.278H99.5789L99.7327 202.295C102.952 202.689 105.287 205.582 104.972 208.829C104.652 212.127 101.719 214.542 98.4207 214.222L98.9998 208.25C98.4208 214.222 98.4205 214.222 98.4202 214.222L98.4197 214.222C98.4192 214.221 98.4182 214.222 98.4173 214.222C98.4153 214.221 98.4121 214.221 98.4085 214.221C98.4013 214.22 98.391 214.219 98.3777 214.218C98.3509 214.215 98.3115 214.211 98.2606 214.206C98.1586 214.196 98.0094 214.181 97.8177 214.162C97.4344 214.123 96.8804 214.067 96.1922 213.994C94.8165 213.85 92.8997 213.641 90.7337 213.386C86.4447 212.881 81.0213 212.173 76.8904 211.396C72.6093 210.591 67.5802 209.126 63.7567 207.919C61.8155 207.306 60.1275 206.741 58.9232 206.328C58.3204 206.122 57.8369 205.953 57.5013 205.835C57.3336 205.776 57.2027 205.729 57.1121 205.697C57.0668 205.681 57.0313 205.668 57.0067 205.66C56.9944 205.655 56.9848 205.651 56.9778 205.649C56.9745 205.648 56.9717 205.647 56.9695 205.646C56.9685 205.645 56.9673 205.645 56.9666 205.645L56.9656 205.644C56.9667 205.64 57.0191 205.494 58.9998 200C59.0655 199.818 59.1288 199.642 59.1902 199.471L56.9647 205.644C53.8475 204.52 52.2314 201.082 53.3553 197.965Z" fill="#262626"/>
</svg>
