<svg width="256" height="256" viewBox="0 0 256 256" fill="none" xmlns="http://www.w3.org/2000/svg">
<rect width="256" height="256" fill="white"/>
<path d="M222.936 107.642L128.106 161.727L26.5482 103.94L21.6665 106.608V148.561L128.097 209.036L222.936 155.154V177.358L128.106 231.453L26.5482 173.656L21.6665 176.333V183.535L128.097 244L234.333 183.535V141.582L229.452 138.904L128.106 196.488L33.0635 142.606V120.392L128.106 174.274L234.333 113.809V72.465L229.046 69.3813L128.106 126.763L37.9452 75.7613L128.106 24.5473L202.182 66.7133L208.688 63.011V57.8683L128.106 12L21.6665 72.465V79.048L128.097 139.513L222.936 85.428V107.642Z" fill="#EE3D2C"/>
</svg>
