<svg width="256" height="256" viewBox="0 0 256 256" fill="none" xmlns="http://www.w3.org/2000/svg">
<path d="M55.5805 234.366L3.08111 143.431C1.06264 139.934 0 135.969 0 131.932C0 127.895 1.06264 123.929 3.08111 120.433L55.5805 29.4999C57.5993 26.0033 60.503 23.0997 63.9996 21.081C67.4963 19.0624 71.4628 17.9998 75.5003 18H180.499C184.536 18.0001 188.502 19.0629 191.999 21.0815C195.495 23.1002 198.398 26.0036 200.417 29.4999L252.916 120.433C254.935 123.929 255.998 127.895 255.998 131.933C255.998 135.97 254.935 139.936 252.916 143.433L200.417 234.364C198.398 237.86 195.495 240.763 191.999 242.782C188.502 244.801 184.536 245.863 180.499 245.863H75.5003C71.4627 245.864 67.4962 244.801 63.9995 242.783C60.5028 240.764 57.5991 237.862 55.5805 234.366Z" fill="url(#paint0_linear_2955_15358)"/>
<mask id="mask0_2955_15358" style="mask-type:luminance" maskUnits="userSpaceOnUse" x="0" y="18" width="256" height="228">
<path d="M55.5825 234.366L3.08307 143.431C1.06459 139.934 0.00195312 135.969 0.00195312 131.932C0.00195312 127.895 1.06459 123.929 3.08307 120.433L55.5825 29.4999C57.6009 26.0034 60.5042 23.0999 64.0006 21.0813C67.4969 19.0626 71.463 17.9999 75.5003 18H180.499C184.537 17.9998 188.503 19.0624 192 21.081C195.496 23.0997 198.4 26.0033 200.419 29.4999L252.918 120.433C254.937 123.929 256 127.895 256 131.933C256 135.97 254.937 139.936 252.918 143.433L200.419 234.364C198.4 237.86 195.496 240.764 192 242.782C188.503 244.801 184.537 245.864 180.499 245.863H75.5003C71.463 245.864 67.4969 244.801 64.0006 242.782C60.5042 240.764 57.6009 237.86 55.5825 234.364V234.366Z" fill="white"/>
</mask>
<g mask="url(#mask0_2955_15358)">
<path opacity="0.07" d="M143.5 69L86 53.25L114.25 69L71.5 92.25L69.25 111.745V120.5L73.25 119L69.25 122L67.25 129L71.5 160.75L111.5 185.5L83.75 202.5L153 256L195.333 248.013L250.75 154.25L172.405 53.25L143.5 69Z" fill="black"/>
</g>
<path fill-rule="evenodd" clip-rule="evenodd" d="M143.047 69.2138L140.764 61.263L128.837 60.6709L114.289 68.7909L127.146 81.4784L126.977 96.1114L135.604 96.1959L135.773 81.563L171.637 103.216L171.552 112.267L186.523 112.521V95.1809L143.047 69.2138Z" fill="white"/>
<path fill-rule="evenodd" clip-rule="evenodd" d="M128.838 60.6709H128.753L116.742 63.6313L114.29 68.7909L69.7987 93.5738L69.5449 110.913L84.6008 111.167L84.7699 102.117L121.225 81.3938L121.056 96.0268L128.33 96.1114L128.838 60.6709Z" fill="white"/>
<path fill-rule="evenodd" clip-rule="evenodd" d="M128.838 60.6704H128.754L99.9109 43.5L85.1934 51.5354L114.29 68.7904L128.838 60.6704Z" fill="white"/>
<path fill-rule="evenodd" clip-rule="evenodd" d="M170.96 153.966L134.589 174.689L134.759 160.141L120.21 159.972L120.041 174.52L126.977 195.497L138.988 194.482L141.441 187.292L186.016 162.509L186.27 144.831L171.129 144.662L170.96 153.966Z" fill="white"/>
<path fill-rule="evenodd" clip-rule="evenodd" d="M126.978 195.496L97.7118 211.905H97.2889L83.248 203.531L112.768 186.953L126.978 195.496Z" fill="white"/>
<path fill-rule="evenodd" clip-rule="evenodd" d="M143.048 69.2128L172.568 52.6345L158.527 44.2607H158.104L128.838 60.6699L143.048 69.2128Z" fill="white"/>
<path fill-rule="evenodd" clip-rule="evenodd" d="M141.525 187.376L170.622 204.631L156.327 212.666H155.904L126.977 195.496L141.525 187.376Z" fill="white"/>
<path fill-rule="evenodd" clip-rule="evenodd" d="M126.977 195.411L112.767 186.953L69.291 160.986V144.069H84.1777L84.0931 152.866L120.041 174.519L120.21 159.971L127.484 160.056L126.977 195.411Z" fill="white"/>
<path d="M179.672 138.064C184.997 138.064 189.314 133.747 189.314 128.422C189.314 123.096 184.997 118.779 179.672 118.779C174.346 118.779 170.029 123.096 170.029 128.422C170.029 133.747 174.346 138.064 179.672 138.064Z" fill="white"/>
<path d="M76.1425 136.711C81.4679 136.711 85.785 132.394 85.785 127.068C85.785 121.743 81.4679 117.426 76.1425 117.426C70.8171 117.426 66.5 121.743 66.5 127.068C66.5 132.394 70.8171 136.711 76.1425 136.711Z" fill="white"/>
<path d="M128.414 120.724C133.739 120.724 138.057 116.407 138.057 111.082C138.057 105.757 133.739 101.439 128.414 101.439C123.089 101.439 118.771 105.757 118.771 111.082C118.771 116.407 123.089 120.724 128.414 120.724Z" fill="white"/>
<path d="M127.654 154.642C132.98 154.642 137.297 150.325 137.297 145C137.297 139.675 132.98 135.357 127.654 135.357C122.329 135.357 118.012 139.675 118.012 145C118.012 150.325 122.329 154.642 127.654 154.642Z" fill="white"/>
<defs>
<linearGradient id="paint0_linear_2955_15358" x1="128" y1="18.002" x2="128" y2="245.509" gradientUnits="userSpaceOnUse">
<stop stop-color="#4387FD"/>
<stop offset="1" stop-color="#4683EA"/>
</linearGradient>
</defs>
</svg>
