<svg width="256" height="256" viewBox="0 0 256 256" fill="none" xmlns="http://www.w3.org/2000/svg">
<path d="M77.5 158.75V96C77.5 79.4315 90.9315 66 107.5 66V84L107.19 84.0039C100.706 84.1681 95.5 89.4761 95.5 96V158.75L95.5029 159.231C95.7607 179.582 112.338 196 132.75 196C153.323 196 170 179.323 170 158.75V96C170 89.3726 164.627 84 158 84V66C174.569 66 188 79.4315 188 96V158.75C188 189.264 163.264 214 132.75 214C102.236 214 77.5 189.264 77.5 158.75ZM158 66V84H107.5V66H158Z" fill="#262626"/>
<path d="M132.5 35.5C140.722 35.5 148.607 38.766 154.42 44.5796C160.234 50.3932 163.5 58.2783 163.5 66.5H145.5C145.5 63.0522 144.13 59.7456 141.692 57.3076C139.254 54.8696 135.948 53.5 132.5 53.5C129.052 53.5 125.746 54.8696 123.308 57.3076C120.87 59.7456 119.5 63.0522 119.5 66.5H101.5C101.5 58.2783 104.766 50.3932 110.58 44.5796C116.393 38.766 124.278 35.5 132.5 35.5Z" fill="#262626"/>
<path d="M204.5 123.25C209.471 123.25 213.5 127.279 213.5 132.25C213.5 137.221 209.471 141.25 204.5 141.25H180.25C175.279 141.25 171.25 137.221 171.25 132.25C171.25 127.279 175.279 123.25 180.25 123.25H204.5Z" fill="#262626"/>
<path d="M123.5 84L141.5 84L141.5 136C141.5 140.971 137.471 145 132.5 145C127.529 145 123.5 140.971 123.5 136L123.5 84Z" fill="#262626"/>
<path d="M84.25 123.25C89.2206 123.25 93.25 127.279 93.25 132.25C93.25 137.221 89.2206 141.25 84.25 141.25H60C55.0294 141.25 51 137.221 51 132.25C51 127.279 55.0294 123.25 60 123.25H84.25Z" fill="#262626"/>
<path d="M40.0503 64.6005C42.9861 60.6862 48.4984 59.8441 52.4629 62.6635L52.6504 62.8003L76.9312 81.0107C78.1675 81.9379 79.9058 81.7744 80.9473 80.6328L86.6016 74.435C89.9515 70.763 95.6439 70.5017 99.316 73.8515C102.988 77.2014 103.249 82.8938 99.8995 86.5659L94.2452 92.7641C86.9544 100.756 74.7852 101.901 66.1309 95.4106L41.8506 77.2006L41.6666 77.0586C37.85 74.0421 37.1147 68.5148 40.0503 64.6005Z" fill="#262626"/>
<path d="M225.2 64.6005C222.264 60.6862 216.752 59.8441 212.787 62.6635L212.6 62.8003L188.319 81.0107C187.082 81.9379 185.344 81.7744 184.303 80.6328L178.648 74.435C175.298 70.763 169.606 70.5017 165.934 73.8515C162.262 77.2014 162.001 82.8938 165.351 86.5659L171.005 92.7641C178.296 100.756 190.465 101.901 199.119 95.4106L223.399 77.2006L223.583 77.0586C227.4 74.0421 228.135 68.5148 225.2 64.6005Z" fill="#262626"/>
<path d="M68.4982 180.62C74.3139 171.315 86.3548 168.123 96.0162 173.326C100.393 175.682 102.03 181.141 99.6735 185.517C97.3169 189.893 91.8589 191.531 87.4825 189.174C86.1765 188.471 84.5486 188.902 83.7623 190.16L67.131 216.77C64.4966 220.985 58.9441 222.266 54.7291 219.632C50.5141 216.997 49.2329 211.445 51.8673 207.23L68.4982 180.62Z" fill="#262626"/>
<path d="M196.752 180.62C190.936 171.315 178.895 168.123 169.234 173.326C164.857 175.682 163.22 181.141 165.577 185.517C167.933 189.893 173.391 191.531 177.767 189.174C179.074 188.471 180.701 188.902 181.488 190.16L198.119 216.77C200.753 220.985 206.306 222.266 210.521 219.632C214.736 216.997 216.017 211.445 213.383 207.23L196.752 180.62Z" fill="#262626"/>
</svg>
