<svg width="256" height="256" viewBox="0 0 256 256" fill="none" xmlns="http://www.w3.org/2000/svg">
<path d="M238 128C238 67.2487 188.751 18 128 18C67.2487 18 18 67.2487 18 128C18 188.751 67.2487 238 128 238C188.751 238 238 188.751 238 128Z" fill="#10002A" stroke="#6E00FF" stroke-width="18.1651"/>
<path d="M75.5234 104.808V156.359C75.5234 156.955 76.0272 157.423 76.6214 157.385C88.8566 156.602 101.944 152.306 111.185 143.828V133.669H97.7214C96.0605 133.669 94.6322 132.391 94.5557 130.732C94.4739 128.962 95.8847 127.504 97.6347 127.504H111.185V117.342C101.996 108.909 88.9085 104.563 76.6212 103.782C76.027 103.745 75.5234 104.213 75.5234 104.808ZM144.816 117.344V127.504H158.279C159.938 127.504 161.366 128.778 161.445 130.435C161.53 132.205 160.118 133.669 158.367 133.669H144.816V143.83C154.005 152.263 167.093 156.609 179.38 157.39C179.974 157.428 180.478 156.959 180.478 156.364V104.813C180.478 104.218 179.974 103.749 179.38 103.787C167.112 104.572 154.041 108.877 144.816 117.344ZM117.35 118.69V142.482H138.651V118.69H117.35Z" fill="white"/>
</svg>
