<svg width="256" height="256" viewBox="0 0 256 256" fill="none" xmlns="http://www.w3.org/2000/svg">
<rect width="256" height="256" fill="white"/>
<path d="M241.564 55.3236C239.108 54.125 238.045 56.416 236.614 57.5856C236.121 57.9626 235.706 58.4556 235.29 58.9003C231.694 62.738 227.499 65.2513 222.018 64.9516C214.004 64.507 207.16 67.0203 201.109 73.149C199.823 65.5896 195.55 61.085 189.054 58.185C185.652 56.677 182.21 55.1786 179.823 51.9016C178.16 49.572 177.706 46.9716 176.874 44.4196C176.343 42.873 175.811 41.2973 174.042 41.0363C172.109 40.7366 171.355 42.351 170.601 43.7043C167.575 49.2336 166.405 55.3236 166.521 61.491C166.782 75.3723 172.64 86.431 184.289 94.29C185.613 95.189 185.951 96.0976 185.536 97.4123C184.743 100.119 183.796 102.748 182.964 105.465C182.433 107.195 181.64 107.562 179.784 106.818C173.513 104.123 167.816 100.251 163.003 95.4113C154.718 87.4073 147.236 78.572 137.898 71.6506C135.735 70.0519 133.513 68.5333 131.238 67.0976C121.716 57.8466 132.495 50.2486 134.989 49.3496C137.599 48.4023 135.888 45.1736 127.458 45.2123C119.029 45.251 111.315 48.064 101.484 51.8243C100.023 52.3841 98.5199 52.827 96.9888 53.1486C87.8019 51.4177 78.4061 51.0852 69.1198 52.1626C50.8982 54.1926 36.3498 62.8153 25.6488 77.5183C12.7922 95.189 9.76651 115.276 13.4688 136.214C17.3645 158.293 28.6358 176.573 45.9488 190.86C63.9095 205.679 84.5865 212.939 108.183 211.547C122.509 210.725 138.469 208.801 156.458 193.567C161.002 195.829 165.758 196.728 173.665 197.404C179.755 197.975 185.613 197.114 190.147 196.167C197.252 194.659 196.759 188.076 194.197 186.877C173.365 177.172 177.938 181.126 173.771 177.926C184.366 165.398 200.316 152.387 206.561 110.23C207.044 106.876 206.628 104.769 206.561 102.062C206.522 100.419 206.899 99.771 208.784 99.5873C214.014 99.0447 219.087 97.4849 223.719 94.9956C237.214 87.62 242.666 75.5173 243.951 60.998C244.145 58.7746 243.913 56.4933 241.564 55.3236ZM123.949 185.998C103.756 170.125 93.9632 164.895 89.9225 165.118C86.1332 165.35 86.8195 169.671 87.6508 172.493C88.5209 175.277 89.6518 177.191 91.2372 179.637C92.3392 181.251 93.0932 183.658 90.1448 185.466C83.6392 189.487 72.3388 184.113 71.8072 183.852C58.6508 176.099 47.6405 165.872 39.8975 151.884C32.4155 138.418 28.0655 123.976 27.3502 108.558C27.1568 104.827 28.2492 103.512 31.9612 102.835C36.8343 101.903 41.8272 101.775 46.7415 102.458C67.3508 105.474 84.8862 114.687 99.5989 129.274C107.99 137.587 114.341 147.515 120.885 157.22C127.845 167.525 135.327 177.346 144.858 185.389C148.222 188.211 150.9 190.357 153.471 191.933C145.719 192.803 132.785 192.996 123.949 185.998ZM133.616 123.744C133.614 123.264 133.729 122.791 133.952 122.365C134.174 121.939 134.496 121.574 134.891 121.301C135.286 121.028 135.742 120.855 136.219 120.797C136.695 120.74 137.179 120.799 137.628 120.97C138.199 121.175 138.693 121.554 139.04 122.053C139.386 122.552 139.568 123.146 139.561 123.754C139.562 124.147 139.485 124.535 139.335 124.898C139.184 125.26 138.963 125.589 138.684 125.866C138.405 126.142 138.074 126.36 137.71 126.507C137.346 126.654 136.957 126.727 136.564 126.722C136.175 126.723 135.789 126.647 135.429 126.497C135.069 126.347 134.743 126.127 134.47 125.85C134.196 125.573 133.98 125.244 133.835 124.882C133.69 124.521 133.609 124.134 133.616 123.744ZM163.679 139.172C161.746 139.955 159.822 140.632 157.976 140.719C155.198 140.816 152.473 139.948 150.262 138.264C147.613 136.04 145.719 134.803 144.926 130.936C144.653 129.047 144.705 127.124 145.081 125.252C145.757 122.091 145.003 120.061 142.77 118.225C140.963 116.717 138.652 116.301 136.12 116.301C135.252 116.251 134.41 115.992 133.664 115.547C132.601 115.025 131.731 113.71 132.562 112.086C132.833 111.564 134.109 110.288 134.418 110.056C137.86 108.104 141.833 108.742 145.496 110.211C148.899 111.603 151.47 114.155 155.173 117.77C158.952 122.13 159.639 123.338 161.794 126.606C163.496 129.167 165.042 131.797 166.096 134.803C166.744 136.688 165.912 138.225 163.679 139.172Z" fill="#4D6BFE"/>
</svg>
