<svg width="256" height="256" viewBox="0 0 256 256" fill="none" xmlns="http://www.w3.org/2000/svg">
<rect width="256" height="256" fill="#092E20"/>
<path d="M210.804 74.8977V156.013C210.804 183.962 208.761 197.367 202.63 208.956C196.951 220.092 189.456 227.134 174.016 234.86L141.541 219.409C156.984 212.138 164.477 205.778 169.246 196.004C174.243 186.007 175.834 174.418 175.834 143.972V74.8977H210.804ZM155.17 20.8601V182.828C137.23 186.236 124.058 187.599 109.753 187.599C67.0587 187.599 44.8042 168.287 44.8042 131.248C44.8042 95.5746 68.4226 72.3999 104.983 72.3999C110.66 72.3999 114.974 72.8529 120.198 74.2161V20.8601H155.17ZM108.39 100.573C90.6772 100.573 80.4575 111.48 80.4575 130.565C80.4575 149.199 90.223 159.423 108.163 159.423C112.022 159.423 115.202 159.196 120.198 158.516V102.389C116.111 101.027 112.705 100.573 108.39 100.573ZM210.804 21.0463V56.9472H175.834V21.0463H210.804Z" fill="#FFFFFD"/>
</svg>
