<svg width="512" height="512" viewBox="0 0 512 512" fill="none" xmlns="http://www.w3.org/2000/svg">
<path d="M296.075 182.63H341.336V228.953H364.221C374.789 228.953 385.659 227.068 395.667 223.673C400.585 222.003 406.105 219.68 410.956 216.758C404.567 208.406 401.305 197.86 400.345 187.465C399.041 173.327 401.889 154.924 411.447 143.858L416.205 138.348L421.874 142.911C436.148 154.393 448.153 170.437 450.269 188.726C467.456 183.665 487.635 184.862 502.785 193.616L509 197.207L505.729 203.599C492.916 228.636 466.131 236.391 439.943 235.019C400.757 332.737 315.444 379 212.002 379C158.56 379 109.529 358.998 81.608 311.527C79.971 308.578 78.5692 305.494 77.0825 302.466C67.6444 281.569 64.5097 258.678 66.6363 235.805L67.2745 228.954H105.977V182.631H151.238V137.315H241.76V92H296.074L296.075 182.63Z" fill="#394D54"/>
<mask id="mask0_2763_4453" style="mask-type:luminance" maskUnits="userSpaceOnUse" x="73" y="96" width="426" height="276">
<path d="M154.515 96.0173V187.084H110.961V232.618H74.4959C74.3412 233.936 74.2158 235.257 74.0886 236.577C71.8097 261.385 76.1405 284.264 86.0907 303.826L89.4315 309.827C91.4337 313.424 93.7695 316.801 96.2367 320.097C98.7009 323.388 99.574 325.209 101.124 327.397C127.432 356.966 166.649 371.198 211.926 371.198C312.196 371.198 397.293 326.777 434.954 226.988C461.674 229.73 487.305 222.878 498.986 200.076C480.379 189.339 456.464 192.78 442.687 199.705L479.188 96.0173L336.649 187.084H291.115V96.0173H154.515Z" fill="white"/>
</mask>
<g mask="url(#mask0_2763_4453)">
<path d="M249.264 99.6016H288.497V138.836H249.264V99.6016Z" fill="#20C2EF"/>
<path d="M254.082 135.566V102.869V135.566ZM259.965 135.566V102.869V135.566ZM265.908 135.566V102.869V135.566ZM271.854 135.566V102.869V135.566ZM277.799 135.566V102.869V135.566ZM283.682 135.566V102.869V135.566Z" fill="black"/>
<path d="M254.082 135.566V102.869M259.965 135.566V102.869M265.908 135.566V102.869M271.854 135.566V102.869M277.799 135.566V102.869M283.682 135.566V102.869" stroke="#394D54" stroke-width="1.56"/>
<path d="M294.531 138.834H333.764V99.6017H294.531V138.834Z" fill="#00ACD3"/>
<path d="M299.35 102.871V135.567V102.871ZM305.233 102.871V135.567V102.871ZM311.176 102.871V135.567V102.871ZM317.122 102.871V135.567V102.871ZM323.067 102.871V135.567V102.871ZM328.949 102.871V135.567V102.871Z" fill="black"/>
<path d="M299.35 102.871V135.567M305.233 102.871V135.567M311.176 102.871V135.567M317.122 102.871V135.567M323.067 102.871V135.567M328.949 102.871V135.567" stroke="#394D54" stroke-width="1.56"/>
<path d="M68.1895 144.871H107.423V184.103H68.1895V144.871Z" fill="#00ACD3"/>
<path d="M68.1895 190.138H107.423V229.372H68.1895V190.138Z" fill="#20C2EF"/>
<path d="M73.0078 180.834V148.138V180.834ZM78.8912 180.834V148.138V180.834ZM84.834 180.834V148.138V180.834ZM90.78 180.834V148.138V180.834ZM96.7249 180.834V148.138V180.834ZM102.607 180.834V148.138V180.834Z" fill="black"/>
<path d="M73.0078 180.834V148.138M78.8912 180.834V148.138M84.834 180.834V148.138M90.78 180.834V148.138M96.7249 180.834V148.138M102.607 180.834V148.138" stroke="#394D54" stroke-width="1.56"/>
<path d="M73.0078 226.102V193.406V226.102ZM78.8912 226.102V193.406V226.102ZM84.834 226.102V193.406V226.102ZM90.78 226.102V193.406V226.102ZM96.7249 226.102V193.406V226.102ZM102.607 226.102V193.406V226.102Z" fill="black"/>
<path d="M73.0078 226.102V193.406M78.8912 226.102V193.406M84.834 226.102V193.406M90.78 226.102V193.406M96.7249 226.102V193.406M102.607 226.102V193.406" stroke="#394D54" stroke-width="1.56"/>
<path d="M113.457 229.37H152.69V190.138H113.457V229.37Z" fill="#00ACD3"/>
<path d="M113.457 184.103H152.69V144.869H113.457V184.103Z" fill="#20C2EF"/>
<path d="M118.273 193.407V226.103V193.407ZM124.157 193.407V226.103V193.407ZM130.1 193.407V226.103V193.407ZM136.046 193.407V226.103V193.407ZM141.991 193.407V226.103V193.407ZM147.873 193.407V226.103V193.407Z" fill="black"/>
<path d="M118.273 193.407V226.103M124.157 193.407V226.103M130.1 193.407V226.103M136.046 193.407V226.103M141.991 193.407V226.103M147.873 193.407V226.103" stroke="#394D54" stroke-width="1.56"/>
<path d="M118.273 148.138V180.835V148.138ZM124.157 148.138V180.835V148.138ZM130.1 148.138V180.835V148.138ZM136.046 148.138V180.835V148.138ZM141.991 148.138V180.835V148.138ZM147.873 148.138V180.835V148.138Z" fill="black"/>
<path d="M118.273 148.138V180.835M124.157 148.138V180.835M130.1 148.138V180.835M136.046 148.138V180.835M141.991 148.138V180.835M147.873 148.138V180.835" stroke="#394D54" stroke-width="1.56"/>
<path d="M158.727 144.871H197.96V184.103H158.727V144.871Z" fill="#00ACD3"/>
<path d="M158.727 190.138H197.96V229.372H158.727V190.138Z" fill="#20C2EF"/>
<path d="M163.545 180.834V148.138V180.834ZM169.428 180.834V148.138V180.834ZM175.371 180.834V148.138V180.834ZM181.317 180.834V148.138V180.834ZM187.262 180.834V148.138V180.834ZM193.144 180.834V148.138V180.834Z" fill="black"/>
<path d="M163.545 180.834V148.138M169.428 180.834V148.138M175.371 180.834V148.138M181.317 180.834V148.138M187.262 180.834V148.138M193.144 180.834V148.138" stroke="#394D54" stroke-width="1.56"/>
<path d="M163.545 226.102V193.406V226.102ZM169.428 226.102V193.406V226.102ZM175.371 226.102V193.406V226.102ZM181.317 226.102V193.406V226.102ZM187.262 226.102V193.406V226.102ZM193.144 226.102V193.406V226.102Z" fill="black"/>
<path d="M163.545 226.102V193.406M169.428 226.102V193.406M175.371 226.102V193.406M181.317 226.102V193.406M187.262 226.102V193.406M193.144 226.102V193.406" stroke="#394D54" stroke-width="1.56"/>
<path d="M203.994 229.37H243.227V190.138H203.994V229.37Z" fill="#00ACD3"/>
<path d="M203.994 184.103H243.227V144.869H203.994V184.103Z" fill="#20C2EF"/>
<path d="M208.812 193.407V226.103V193.407ZM214.696 193.407V226.103V193.407ZM220.639 193.407V226.103V193.407ZM226.585 193.407V226.103V193.407ZM232.53 193.407V226.103V193.407ZM238.412 193.407V226.103V193.407Z" fill="black"/>
<path d="M208.812 193.407V226.103M214.696 193.407V226.103M220.639 193.407V226.103M226.585 193.407V226.103M232.53 193.407V226.103M238.412 193.407V226.103" stroke="#394D54" stroke-width="1.56"/>
<path d="M208.812 148.138V180.835V148.138ZM214.696 148.138V180.835V148.138ZM220.639 148.138V180.835V148.138ZM226.585 148.138V180.835V148.138ZM232.53 148.138V180.835V148.138ZM238.412 148.138V180.835V148.138Z" fill="black"/>
<path d="M208.812 148.138V180.835M214.696 148.138V180.835M220.639 148.138V180.835M226.585 148.138V180.835M232.53 148.138V180.835M238.412 148.138V180.835" stroke="#394D54" stroke-width="1.56"/>
<path d="M249.264 144.871H288.497V184.103H249.264V144.871Z" fill="#00ACD3"/>
<path d="M249.264 190.138H288.497V229.372H249.264V190.138Z" fill="#20C2EF"/>
<path d="M254.082 180.834V148.138V180.834ZM259.965 180.834V148.138V180.834ZM265.908 180.834V148.138V180.834ZM271.854 180.834V148.138V180.834ZM277.799 180.834V148.138V180.834ZM283.682 180.834V148.138V180.834Z" fill="black"/>
<path d="M254.082 180.834V148.138M259.965 180.834V148.138M265.908 180.834V148.138M271.854 180.834V148.138M277.799 180.834V148.138M283.682 180.834V148.138" stroke="#394D54" stroke-width="1.56"/>
<path d="M254.082 226.102V193.406V226.102ZM259.965 226.102V193.406V226.102ZM265.908 226.102V193.406V226.102ZM271.854 226.102V193.406V226.102ZM277.799 226.102V193.406V226.102ZM283.682 226.102V193.406V226.102Z" fill="black"/>
<path d="M254.082 226.102V193.406M259.965 226.102V193.406M265.908 226.102V193.406M271.854 226.102V193.406M277.799 226.102V193.406M283.682 226.102V193.406" stroke="#394D54" stroke-width="1.56"/>
<path d="M294.531 229.37H333.764V190.138H294.531V229.37Z" fill="#00ACD3"/>
<path d="M294.531 184.103H333.764V144.869H294.531V184.103Z" fill="#20C2EF"/>
<path d="M299.35 193.407V226.103V193.407ZM305.233 193.407V226.103V193.407ZM311.176 193.407V226.103V193.407ZM317.122 193.407V226.103V193.407ZM323.067 193.407V226.103V193.407ZM328.949 193.407V226.103V193.407Z" fill="black"/>
<path d="M299.35 193.407V226.103M305.233 193.407V226.103M311.176 193.407V226.103M317.122 193.407V226.103M323.067 193.407V226.103M328.949 193.407V226.103" stroke="#394D54" stroke-width="1.56"/>
<path d="M299.35 148.138V180.835V148.138ZM305.233 148.138V180.835V148.138ZM311.176 148.138V180.835V148.138ZM317.122 148.138V180.835V148.138ZM323.067 148.138V180.835V148.138ZM328.949 148.138V180.835V148.138Z" fill="black"/>
<path d="M299.35 148.138V180.835M305.233 148.138V180.835M311.176 148.138V180.835M317.122 148.138V180.835M323.067 148.138V180.835M328.949 148.138V180.835" stroke="#394D54" stroke-width="1.56"/>
</g>
<mask id="mask1_2763_4453" style="mask-type:luminance" maskUnits="userSpaceOnUse" x="73" y="96" width="426" height="276">
<path d="M154.515 96.0173V187.084H110.961V232.618H74.4959C74.3412 233.936 74.2158 235.257 74.0886 236.577C71.8097 261.385 76.1405 284.264 86.0907 303.826L89.4315 309.827C91.4337 313.424 93.7695 316.801 96.2367 320.097C98.7009 323.388 99.574 325.209 101.124 327.397C127.432 356.966 166.649 371.198 211.926 371.198C312.196 371.198 397.293 326.777 434.954 226.988C461.674 229.73 487.305 222.878 498.986 200.076C480.379 189.339 456.464 192.78 442.687 199.705L479.188 96.0173L336.649 187.084H291.115V96.0173H154.515Z" fill="white"/>
</mask>
<g mask="url(#mask1_2763_4453)">
<path d="M442.702 199.714C445.737 176.126 428.084 157.596 417.136 148.799C404.52 163.385 402.559 201.613 422.352 217.708C411.306 227.52 388.029 236.413 364.197 236.413H71.366C69.0483 261.293 71.366 381.097 71.366 381.097H500.965L499.012 200.103C480.405 189.366 456.479 192.79 442.702 199.714Z" fill="#17B5EB"/>
</g>
<mask id="mask2_2763_4453" style="mask-type:luminance" maskUnits="userSpaceOnUse" x="73" y="96" width="426" height="276">
<path d="M154.515 96.0173V187.084H110.961V232.618H74.4959C74.3412 233.936 74.2158 235.257 74.0886 236.577C71.8097 261.385 76.1405 284.264 86.0907 303.826L89.4315 309.827C91.4337 313.424 93.7695 316.801 96.2367 320.097C98.7009 323.388 99.574 325.209 101.124 327.397C127.432 356.966 166.649 371.198 211.926 371.198C312.196 371.198 397.293 326.777 434.954 226.988C461.674 229.73 487.305 222.878 498.986 200.076C480.379 189.339 456.464 192.78 442.687 199.705L479.188 96.0173L336.649 187.084H291.115V96.0173H154.515Z" fill="white"/>
</mask>
<g mask="url(#mask2_2763_4453)">
<path d="M71.3672 268.253V381.097H500.966V268.253" fill="black" fill-opacity="0.17"/>
</g>
<mask id="mask3_2763_4453" style="mask-type:luminance" maskUnits="userSpaceOnUse" x="73" y="96" width="426" height="276">
<path d="M154.515 96.0173V187.084H110.961V232.618H74.4959C74.3412 233.936 74.2158 235.257 74.0886 236.577C71.8097 261.385 76.1405 284.264 86.0907 303.826L89.4315 309.827C91.4337 313.424 93.7695 316.801 96.2367 320.097C98.7009 323.388 99.574 325.209 101.124 327.397C127.432 356.966 166.649 371.198 211.926 371.198C312.196 371.198 397.293 326.777 434.954 226.988C461.674 229.73 487.305 222.878 498.986 200.076C480.379 189.339 456.464 192.78 442.687 199.705L479.188 96.0173L336.649 187.084H291.115V96.0173H154.515Z" fill="white"/>
</mask>
<g mask="url(#mask3_2763_4453)">
<path d="M224.276 370.98C197.471 358.26 182.758 340.969 174.572 322.092L93.1445 325.664L134.719 381.097L224.276 370.98Z" fill="#D4EDF1"/>
</g>
<mask id="mask4_2763_4453" style="mask-type:luminance" maskUnits="userSpaceOnUse" x="73" y="96" width="426" height="276">
<path d="M154.515 96.0173V187.084H110.961V232.618H74.4959C74.3412 233.936 74.2158 235.257 74.0886 236.577C71.8097 261.385 76.1405 284.264 86.0907 303.826L89.4315 309.827C91.4337 313.424 93.7695 316.801 96.2367 320.097C98.7009 323.388 99.574 325.209 101.124 327.397C127.432 356.966 166.649 371.198 211.926 371.198C312.196 371.198 397.293 326.777 434.954 226.988C461.674 229.73 487.305 222.878 498.986 200.076C480.379 189.339 456.464 192.78 442.687 199.705L479.188 96.0173L336.649 187.084H291.115V96.0173H154.515Z" fill="white"/>
</mask>
<g mask="url(#mask4_2763_4453)">
<path d="M444.544 198.839V198.901C403.245 252.134 344.008 298.636 280.413 323.066C223.685 344.858 174.224 344.963 140.101 327.459C136.426 325.383 132.824 323.08 129.212 320.901C104.195 303.416 90.1038 274.493 91.2881 236.392H71.3672V381.097H500.966V191.044H451.473L444.544 198.839Z" fill="black" fill-opacity="0.085"/>
</g>
<path d="M94 324.058C122.018 325.758 151.918 326.063 178 317" stroke="#394D54" stroke-width="3.4" stroke-linecap="round"/>
<path d="M206 304.001C206 310.075 201.299 315 195.501 315C189.702 315 185 310.075 185 304.001C185 297.927 189.702 293 195.501 293C201.299 293 206 297.927 206 304.001Z" fill="#D4EDF1"/>
<path d="M198.216 296.542C197.302 297.105 196.683 298.161 196.683 299.369C196.683 301.172 198.054 302.632 199.744 302.632C200.902 302.632 201.909 301.946 202.429 300.932C202.796 301.877 203 302.914 203 304.002C203 308.419 199.643 312 195.501 312C191.359 312 188 308.419 188 304.002C188 299.582 191.359 296 195.501 296C196.459 296 197.373 296.193 198.216 296.542Z" fill="#394D54"/>
<path d="M4 271H508C497.026 268.206 473.279 264.433 477.195 250C457.241 273.172 409.118 266.256 396.973 254.83C383.449 274.515 304.717 267.033 299.225 251.698C282.271 271.666 229.733 271.666 212.777 251.698C207.283 267.033 128.552 274.515 115.027 254.83C102.882 266.256 54.7633 273.172 34.8072 250C38.7234 264.433 14.9762 268.206 4 271Z" fill="#394D54"/>
</svg>
