<svg width="256" height="256" viewBox="0 0 256 256" fill="none" xmlns="http://www.w3.org/2000/svg">
<rect width="256" height="256" fill="white"/>
<path d="M240.226 111.984C234.539 108.169 219.593 106.539 208.727 109.456C208.141 98.669 202.561 89.5792 192.351 81.6481L188.572 79.1196L186.053 82.9109C181.102 90.4017 179.016 100.381 179.755 109.453C180.338 115.042 182.289 121.325 186.053 125.884C171.911 134.059 158.876 132.203 101.148 132.203H12.0181C11.7573 145.194 13.8526 170.186 29.7986 190.531C31.5595 192.778 33.4922 194.952 35.5874 197.046C48.5516 209.985 68.1391 219.472 97.4297 219.5C142.114 219.54 180.4 195.468 203.687 137.263C211.35 137.389 231.578 138.633 241.478 119.567C241.72 119.246 243.997 114.51 243.997 114.51L240.223 111.981L240.226 111.984ZM70.1852 100.103H45.1219V125.082H70.1852V100.103ZM102.565 100.103H77.5018V125.082H102.565V100.103ZM134.945 100.103H109.882V125.082H134.945V100.103ZM167.325 100.103H142.262V125.082H167.325V100.103ZM37.8054 100.103H12.742V125.082H37.8054V100.103ZM70.1852 68.553H45.1219V93.5325H70.1852V68.553ZM102.565 68.553H77.5018V93.5325H102.565V68.553ZM134.945 68.553H109.882V93.5325H134.945V68.553ZM134.945 37H109.882V61.9795H134.945V37Z" fill="#1D63ED"/>
</svg>
