<svg width="256" height="256" viewBox="0 0 256 256" fill="none" xmlns="http://www.w3.org/2000/svg">
<rect width="256" height="256" fill="white"/>
<path d="M128 244C192.065 244 244 192.065 244 128C244 63.935 192.065 12 128 12C63.935 12 12 63.935 12 128C12 192.065 63.935 244 128 244Z" fill="#5C2D91"/>
<path opacity="0.1" d="M47.5979 44.625C35.8056 55.1332 26.2836 67.939 19.6155 82.2573C12.9474 96.5757 9.27362 112.105 8.81945 127.893C8.36528 143.682 11.1402 159.397 16.9743 174.075C22.8083 188.753 31.5784 202.085 42.7471 213.253C53.9158 224.422 67.2477 233.192 81.9258 239.026C96.6038 244.86 112.319 247.635 128.107 247.181C143.895 246.727 159.425 243.053 173.743 236.385C188.061 229.717 200.867 220.195 211.375 208.402L47.5979 44.625Z" fill="white"/>
<path d="M38.8246 147.031C38.1479 147.042 37.4764 146.912 36.8525 146.65C36.2285 146.388 35.6657 145.999 35.1996 145.509C34.7207 145.036 34.3422 144.471 34.0868 143.848C33.8314 143.225 33.7044 142.557 33.7133 141.884C33.7085 141.211 33.8374 140.544 34.0925 139.922C34.3477 139.3 34.724 138.734 35.1996 138.259C35.6611 137.76 36.2222 137.363 36.8467 137.095C37.4711 136.826 38.1449 136.692 38.8246 136.7C39.5033 136.698 40.1751 136.836 40.7985 137.104C41.422 137.372 41.9839 137.765 42.4496 138.259C42.9334 138.73 43.3174 139.294 43.579 139.917C43.8405 140.539 43.9742 141.208 43.9721 141.884C43.9784 142.56 43.8466 143.23 43.5848 143.853C43.323 144.477 42.9367 145.04 42.4496 145.509C41.9795 145.994 41.416 146.379 40.7929 146.641C40.1699 146.903 39.5003 147.036 38.8246 147.031Z" fill="white"/>
<path d="M110.853 146.125H101.356L67.3894 93.4177C66.5434 92.1191 65.8385 90.7337 65.2869 89.2853H64.9969C65.3197 92.2946 65.4408 95.3222 65.3594 98.3478V146.125H57.6382V80.0415H67.6794L100.739 131.806C102.117 133.957 103.011 135.432 103.422 136.229H103.603C103.221 133.006 103.063 129.759 103.132 126.514V80.0415H110.853V146.125Z" fill="white"/>
<path d="M163.126 146.125H128V80.0415H161.495V87.0378H135.903V109.005H159.755V115.965H135.903V138.875H163.163L163.126 146.125Z" fill="white"/>
<path d="M215 87.0378H195.788V146.125H188.066V87.0378H169.071V80.0415H215V87.0378Z" fill="white"/>
<path d="M106.686 191.075C104.069 192.342 101.182 192.952 98.2756 192.851C96.3445 192.938 94.4171 192.611 92.6228 191.892C90.8284 191.173 89.2085 190.079 87.8718 188.682C85.2083 185.701 83.8049 181.802 83.9568 177.807C83.8593 175.644 84.1973 173.483 84.9508 171.453C85.7043 169.423 86.8579 167.565 88.3431 165.99C89.7905 164.507 91.5306 163.342 93.4527 162.568C95.3749 161.794 97.437 161.429 99.5081 161.495C101.987 161.41 104.456 161.842 106.758 162.764V166.389C104.541 165.161 102.042 164.536 99.5081 164.576C97.9108 164.531 96.3227 164.832 94.8524 165.457C93.3822 166.083 92.0644 167.019 90.9893 168.201C88.7286 170.777 87.5585 174.131 87.7268 177.554C87.5576 180.796 88.6486 183.978 90.7718 186.435C91.7902 187.53 93.0335 188.392 94.4164 188.961C95.7992 189.531 97.2888 189.794 98.7831 189.734C101.566 189.806 104.315 189.104 106.722 187.704L106.686 191.075Z" fill="#F2F2F2"/>
<path d="M121.512 192.851C120.069 192.898 118.632 192.634 117.3 192.077C115.968 191.521 114.771 190.684 113.79 189.625C111.808 187.413 110.779 184.508 110.927 181.541C110.836 179.987 111.055 178.43 111.572 176.962C112.089 175.493 112.892 174.142 113.935 172.986C115 171.947 116.267 171.137 117.658 170.607C119.048 170.077 120.533 169.838 122.019 169.905C123.424 169.83 124.829 170.06 126.137 170.58C127.444 171.099 128.624 171.895 129.595 172.914C131.522 175.236 132.494 178.203 132.314 181.215C132.466 184.272 131.412 187.266 129.378 189.552C128.379 190.632 127.159 191.486 125.802 192.055C124.446 192.624 122.982 192.895 121.512 192.851ZM121.765 173.022C120.768 172.98 119.774 173.164 118.858 173.559C117.942 173.955 117.126 174.552 116.473 175.306C115.078 177.102 114.382 179.343 114.515 181.614C114.389 183.816 115.087 185.987 116.473 187.704C117.133 188.447 117.951 189.035 118.866 189.423C119.781 189.812 120.772 189.992 121.765 189.951C122.738 190.009 123.711 189.842 124.61 189.465C125.508 189.088 126.309 188.51 126.949 187.776C128.267 185.975 128.909 183.768 128.762 181.541C128.905 179.304 128.264 177.086 126.949 175.27C126.317 174.52 125.521 173.927 124.621 173.537C123.722 173.147 122.744 172.971 121.765 173.022Z" fill="#F2F2F2"/>
<path d="M149.243 174.11C148.46 173.597 147.531 173.355 146.597 173.421C145.867 173.448 145.154 173.654 144.522 174.02C143.89 174.387 143.358 174.903 142.972 175.524C141.893 177.232 141.374 179.234 141.486 181.251V192.344H137.861V170.594H141.486V175.125C141.884 173.723 142.677 172.465 143.77 171.5C144.715 170.68 145.925 170.229 147.177 170.231C147.878 170.2 148.578 170.298 149.243 170.521V174.11Z" fill="#F2F2F2"/>
<path d="M170.485 182.375H155.151C155.048 184.401 155.708 186.393 157 187.957C157.672 188.628 158.477 189.148 159.365 189.486C160.252 189.823 161.2 189.969 162.147 189.915C164.605 189.89 166.981 189.034 168.89 187.486V190.749C166.648 192.226 163.994 192.95 161.313 192.815C159.961 192.883 158.61 192.652 157.356 192.138C156.103 191.625 154.979 190.841 154.063 189.842C152.176 187.488 151.233 184.516 151.417 181.505C151.287 178.486 152.311 175.531 154.281 173.24C155.178 172.204 156.293 171.381 157.547 170.829C158.801 170.277 160.162 170.011 161.531 170.05C162.767 169.981 164.003 170.193 165.146 170.67C166.289 171.147 167.308 171.877 168.128 172.805C169.798 175.006 170.621 177.733 170.448 180.49L170.485 182.375ZM166.86 179.439C166.933 177.759 166.421 176.106 165.41 174.762C164.914 174.202 164.297 173.761 163.607 173.472C162.916 173.183 162.17 173.054 161.422 173.095C160.642 173.085 159.869 173.238 159.151 173.544C158.433 173.85 157.787 174.302 157.253 174.871C156.06 176.133 155.31 177.749 155.115 179.475L166.86 179.439Z" fill="#F2F2F2"/>
</svg>
