<svg width="256" height="256" viewBox="0 0 256 256" fill="none" xmlns="http://www.w3.org/2000/svg">
<rect width="256" height="256" fill="white"/>
<path d="M83.9761 211.773V161.015H86.7314V169C87.0568 168.646 87.3574 168.271 87.6311 167.875C88.7569 165.538 90.5257 163.571 92.73 162.203C94.9343 160.835 97.4828 160.124 100.077 160.153C106.356 159.966 111.454 162.29 114.453 167.875C116.361 171.345 117.411 175.221 117.516 179.18C117.62 183.138 116.776 187.065 115.053 190.63C112.26 196.89 105.362 200.002 97.9775 198.859C95.6794 198.663 93.4668 197.895 91.5417 196.624C89.6166 195.354 88.0402 193.622 86.9563 191.586V211.773H83.9761ZM86.7314 178.972C86.975 181.446 87.0688 183.208 87.3499 184.932C88.437 191.717 92.4482 195.747 98.746 196.478C101.703 196.964 104.737 196.41 107.331 194.909C109.926 193.409 111.919 191.055 112.972 188.25C114.183 185.364 114.765 182.254 114.681 179.125C114.597 175.997 113.848 172.923 112.485 170.106C111.361 167.591 109.449 165.511 107.038 164.178C104.627 162.846 101.848 162.335 99.1209 162.721C96.5603 162.906 94.1211 163.885 92.1425 165.521C90.1639 167.157 88.7443 169.369 88.0809 171.849C87.4939 174.195 87.0433 176.573 86.7314 178.972Z" fill="black"/>
<path d="M173.718 185.869C173.301 189.443 171.6 192.743 168.931 195.157C166.263 197.57 162.808 198.932 159.211 198.99C147.665 199.571 142.248 191.905 141.386 183.058C140.787 178.253 141.567 173.378 143.635 169C145.075 165.997 147.433 163.53 150.368 161.957C153.303 160.383 156.663 159.784 159.961 160.247C163.096 160.513 166.068 161.758 168.457 163.807C170.845 165.855 172.529 168.603 173.269 171.662C173.855 174.447 174.287 177.263 174.562 180.096H144.216C143.654 188.119 147.965 194.566 154.075 196.122C161.685 197.996 168.189 194.698 170.551 187.463C171.076 185.607 172.031 185.344 173.718 185.869ZM144.216 177.528H171.338C171.169 168.981 165.846 162.796 158.63 162.702C150.458 162.571 144.572 168.532 144.216 177.528Z" fill="black"/>
<path d="M179.304 186.059H181.965C182.063 188.017 182.7 189.911 183.804 191.531C184.909 193.151 186.438 194.436 188.225 195.243C190.469 196.253 192.912 196.744 195.372 196.679C197.832 196.614 200.246 195.995 202.433 194.868C203.625 194.331 204.624 193.441 205.294 192.318C205.965 191.195 206.274 189.894 206.182 188.589C206.25 187.331 205.907 186.085 205.203 185.04C204.5 183.995 203.475 183.207 202.283 182.797C199.359 181.71 196.248 181.111 193.267 180.155C190.167 179.272 187.135 178.163 184.196 176.837C179.397 174.494 179.097 165.366 184.533 162.479C187.316 160.909 190.449 160.06 193.644 160.011C196.84 159.962 199.996 160.714 202.827 162.198C204.541 163.146 205.926 164.593 206.797 166.348C207.667 168.103 207.983 170.081 207.7 172.02H205.413C205.413 171.907 205.207 171.814 205.207 171.701C204.926 164.41 198.816 162.161 192.255 162.798C190.297 163.04 188.395 163.617 186.632 164.504C185.573 164.988 184.691 165.789 184.107 166.796C183.523 167.803 183.265 168.967 183.371 170.127C183.374 171.287 183.736 172.418 184.407 173.364C185.078 174.31 186.026 175.026 187.12 175.412C190.006 176.462 193.024 177.137 195.985 177.962C198.366 178.618 200.84 179.049 203.145 179.836C204.773 180.369 206.199 181.384 207.237 182.747C208.275 184.109 208.874 185.754 208.956 187.465C209.234 189.339 208.915 191.253 208.043 192.935C207.172 194.617 205.793 195.982 204.101 196.836C197.841 200.379 187.532 199.442 182.94 194.962C181.776 193.792 180.855 192.402 180.231 190.874C179.607 189.346 179.292 187.709 179.304 186.059Z" fill="black"/>
<path d="M242.696 172.019H240.203C240.203 171.681 240.072 171.381 240.035 171.1C239.994 169.232 239.313 167.434 238.105 166.007C236.897 164.581 235.236 163.613 233.4 163.265C229.934 162.271 226.238 162.449 222.884 163.772C221.559 164.152 220.392 164.95 219.557 166.048C218.723 167.146 218.266 168.484 218.255 169.863C218.208 171.217 218.63 172.546 219.45 173.625C220.269 174.704 221.436 175.468 222.753 175.786C226.502 176.948 230.344 177.661 234.149 178.71C235.382 179.006 236.597 179.375 237.786 179.816C239.561 180.451 241.104 181.607 242.212 183.133C243.32 184.659 243.942 186.483 243.996 188.368C244.051 190.253 243.536 192.111 242.518 193.698C241.5 195.286 240.027 196.529 238.292 197.266C235.646 198.467 232.78 199.103 229.875 199.132C226.97 199.161 224.091 198.583 221.422 197.435C219.228 196.489 217.376 194.892 216.116 192.862C214.856 190.831 214.248 188.463 214.375 186.076H215.424H216.811C217.262 188.251 218.236 190.283 219.649 191.997C221.063 193.71 222.872 195.054 224.921 195.91C226.97 196.767 229.198 197.111 231.41 196.913C233.622 196.715 235.752 195.98 237.617 194.773C238.753 194.183 239.695 193.28 240.333 192.17C240.971 191.061 241.277 189.791 241.216 188.513C241.272 187.254 240.916 186.011 240.203 184.973C239.489 183.935 238.456 183.157 237.261 182.759C234.337 181.672 231.225 181.091 228.245 180.135C225.126 179.265 222.076 178.169 219.117 176.855C214.431 174.549 214.056 165.496 219.398 162.609C222.216 160.973 225.409 160.094 228.668 160.058C231.926 160.022 235.138 160.83 237.992 162.403C239.624 163.377 240.937 164.805 241.772 166.512C242.608 168.219 242.929 170.132 242.696 172.019Z" fill="black"/>
<path d="M79.4224 198.073C78.441 198.444 77.3575 198.444 76.3767 198.071C75.3959 197.698 74.5857 196.978 74.0992 196.049C71.044 191.475 67.6702 187.108 64.4275 182.647L63.0217 180.773C59.1606 185.946 55.2994 190.913 51.7756 196.067C51.3165 196.956 50.5501 197.647 49.619 198.013C48.688 198.378 47.6559 198.393 46.7148 198.054L61.2036 178.617L47.727 161.054C48.6971 160.704 49.7583 160.699 50.7316 161.041C51.7048 161.382 52.5304 162.049 53.0689 162.929C56.1991 167.502 59.6666 171.869 63.1155 176.499C66.583 171.907 70.0131 167.521 73.2182 162.985C73.6799 162.111 74.4467 161.437 75.3729 161.091C76.2992 160.746 77.3201 160.752 78.2415 161.111L73.0121 168.046C70.6691 171.138 68.3637 174.25 65.927 177.268C65.7307 177.443 65.5736 177.659 65.4661 177.899C65.3585 178.14 65.303 178.4 65.303 178.664C65.303 178.927 65.3585 179.188 65.4661 179.429C65.5736 179.669 65.7307 179.885 65.927 180.06C70.4067 186.002 74.8489 191.962 79.4224 198.073Z" fill="black"/>
<path d="M140.936 160.865V163.489C139.04 163.365 137.139 163.64 135.356 164.295C133.573 164.951 131.947 165.973 130.584 167.296C129.22 168.619 128.149 170.213 127.44 171.976C126.73 173.738 126.399 175.63 126.465 177.528C126.465 183.701 126.465 189.874 126.465 196.047C126.465 196.703 126.465 197.359 126.465 198.146H123.785V161.015H126.409V168.625C129.652 163.077 134.656 161.015 140.936 160.865Z" fill="black"/>
<path d="M12 178.372C12.3936 176.498 12.6373 174.455 13.1808 172.543C16.4235 161.016 29.6377 156.217 38.7283 163.359C44.0515 167.538 45.3823 173.461 45.1199 180.134H15.1302C14.6428 192.055 23.2461 199.253 34.2486 195.579C36.0334 194.94 37.6311 193.868 38.8975 192.457C40.1639 191.047 41.0591 189.343 41.5024 187.5C42.0834 185.626 43.0206 185.307 44.8012 185.851C44.5079 188.133 43.7011 190.318 42.4415 192.244C41.1819 194.169 39.5022 195.783 37.5287 196.966C34.2681 198.749 30.5272 199.455 26.8409 198.984C23.1546 198.513 19.7117 196.888 17.0045 194.342C14.3264 191.33 12.707 187.526 12.3936 183.508C12.3936 182.871 12.1499 182.233 12.0187 181.634C12.0062 180.521 12 179.434 12 178.372ZM15.1677 177.566H42.2896C42.1209 168.925 36.6665 162.796 29.394 162.74C21.2968 162.628 15.505 168.626 15.1489 177.529L15.1677 177.566Z" fill="black"/>
<path d="M192.5 129.839C190.623 130.549 188.55 130.547 186.674 129.834C184.797 129.121 183.247 127.746 182.314 125.969L163.771 100.325L161.083 96.7395L139.567 126.001C138.691 127.704 137.224 129.03 135.442 129.73C133.659 130.431 131.682 130.458 129.881 129.807L157.606 92.6115L131.816 59.0124C133.671 58.3442 135.699 58.3353 137.559 58.9873C139.419 59.6393 140.997 60.9124 142.029 62.5922L161.25 88.5534L180.578 62.6997C181.461 61.0269 182.928 59.7369 184.7 59.0749C186.472 58.4129 188.425 58.4251 190.189 59.1092L180.181 72.3908L166.625 90.0369C166.248 90.3727 165.947 90.7843 165.741 91.2447C165.535 91.705 165.428 92.2038 165.428 92.7083C165.428 93.2128 165.535 93.7115 165.741 94.1719C165.947 94.6323 166.248 95.0438 166.625 95.3797L192.446 129.844L192.5 129.839ZM63.5108 92.1493L65.7683 80.9962C71.9711 58.9425 97.2551 49.7674 114.649 63.4199C124.834 71.4233 127.377 82.7538 126.877 95.5248H69.4986C68.5687 118.331 85.0269 132.102 106.07 125.066C109.481 123.838 112.535 121.783 114.957 119.085C117.379 116.387 119.094 113.131 119.948 109.607C121.061 106.028 122.894 105.415 126.259 106.447C125.698 110.813 124.154 114.996 121.744 118.68C119.334 122.364 116.119 125.453 112.343 127.716C106.105 131.128 98.9473 132.48 91.8942 131.58C84.8411 130.679 78.2534 127.571 73.0729 122.701C67.9507 116.935 64.855 109.653 64.2579 101.964C64.2579 100.701 63.8279 99.5184 63.5377 98.3843C63.5115 96.3078 63.499 94.2313 63.5001 92.1547L63.5108 92.1493ZM69.5684 90.612H121.459C121.136 74.0785 110.703 62.3503 96.7874 62.2428C81.2967 62.0278 70.2134 73.498 69.5308 90.5368L69.5684 90.612Z" fill="black"/>
</svg>
