<svg width="256" height="256" viewBox="0 0 256 256" fill="none" xmlns="http://www.w3.org/2000/svg">
<rect width="256" height="256" fill="white"/>
<path d="M114.974 243.25C111.524 242.838 107.907 242.307 106.937 242.068C105.51 241.73 104.075 241.427 102.632 241.162C100.985 240.842 99.3508 240.46 97.7331 240.014C90.2203 237.861 89.6819 237.685 84.0179 235.369C78.8069 233.245 69.2061 228.282 65.9219 226.024C65.0229 225.4 64.1819 224.898 64.0532 224.898C63.9263 224.898 61.8238 223.419 59.3806 221.612C43.8474 210.115 32.1858 196.159 23.7595 178.969C22.3095 176.017 21.1259 173.398 21.1259 173.151C21.1259 172.908 20.8649 172.236 20.5459 171.67C19.888 170.494 18.9509 167.96 18.1951 165.341C17.8702 164.228 17.4921 163.132 17.0623 162.055C16.7089 161.221 16.4243 160.206 16.4243 159.797C16.4243 159.385 16.0709 158.048 15.6395 156.815C15.2081 155.592 14.8601 154.147 14.8601 153.607C14.8601 153.071 14.5212 151.215 14.1025 149.482C13.0839 145.204 12 134.124 12 127.915C12 121.712 13.0839 110.633 14.1025 106.357C14.5194 104.622 14.8601 102.732 14.8601 102.152C14.8601 101.57 15.1229 100.43 15.4401 99.6145C15.7664 98.8025 16.1833 97.3434 16.3754 96.3737C16.5748 95.4041 17.0279 93.7329 17.3958 92.6491L18.4652 89.5207C19.25 87.1771 19.9786 85.1943 20.3266 84.4221C20.526 83.9908 21.3036 82.229 22.0612 80.5071C23.2864 77.7249 25.9128 72.4777 27.4479 69.7318C28.008 68.7259 28.2201 68.3924 31.2506 63.6563C36.0519 56.1381 44.2571 46.7837 51.8949 40.1156C54.5865 37.7647 63.5783 30.9389 63.9825 30.9389C64.0949 30.9389 64.9431 30.4296 65.8729 29.8061C68.3144 28.1712 70.7087 26.7828 73.8298 25.2186C74.9502 24.6645 76.0596 24.0887 77.1576 23.4913C77.6741 23.1941 78.6438 22.7482 83.6228 20.5188C84.7193 20.0294 85.9011 19.5836 89.3068 18.3927C90.0571 18.1317 91.5651 17.5789 92.6418 17.1747C93.7256 16.7724 94.9998 16.4389 95.4747 16.4389C95.9423 16.4389 97.173 16.1126 98.2079 15.7102C99.2411 15.3061 101.117 14.8457 102.384 14.6898C103.645 14.5412 105.322 14.1878 106.109 13.9104C106.888 13.6422 109.027 13.2942 110.859 13.1401C113.247 12.9244 115.629 12.6433 118.002 12.2973C122.874 11.5832 133.467 11.5832 138.288 12.2973C140.565 12.6241 142.85 12.893 145.141 13.1039C146.868 13.2471 149.07 13.6077 150.04 13.905C151.01 14.195 152.688 14.5575 153.765 14.6898C154.841 14.833 156.654 15.2789 157.792 15.6885C158.934 16.1054 160.228 16.4389 160.674 16.4389C161.12 16.4389 162.041 16.6872 162.713 16.9989C163.393 17.3034 164.83 17.8127 165.914 18.1317C166.991 18.458 168.837 19.1014 170.028 19.5763C171.21 20.0494 172.796 20.6729 173.554 20.9556C174.949 21.4812 185.262 26.6414 186.665 27.5205C198.05 34.6201 203.906 39.2583 211.779 47.3927C221.273 57.2056 227.575 66.5509 233.99 80.3078C234.443 81.2793 235.135 82.7166 235.532 83.4941C235.922 84.2808 236.248 85.2015 236.248 85.5423C236.248 85.8866 236.574 86.9198 236.977 87.8423C238.068 90.349 239.001 93.2019 239.442 95.3823C239.659 96.4517 240.063 97.7748 240.339 98.3204C240.616 98.8641 240.941 100.247 241.069 101.38C241.196 102.511 241.571 104.367 241.89 105.492C243.739 111.892 244.658 130.748 243.54 139.087C243.208 141.565 242.833 144.561 242.706 145.743C242.492 147.767 241.423 153 240.509 156.518L239.567 160.243C237.79 167.415 233.401 177.632 228.041 187.084C225.917 190.836 218.795 200.982 217.451 202.171C217.329 202.276 216.727 202.987 216.118 203.735C215.509 204.493 213.555 206.61 211.786 208.437C203.991 216.486 197.703 221.463 186.665 228.318C185.357 229.132 174.255 234.555 172.18 235.398C171.103 235.829 169.305 236.558 168.187 237.011C167.076 237.459 165.836 237.834 165.446 237.841C165.057 237.847 164.031 238.195 163.166 238.611C162.303 239.028 161.205 239.376 160.717 239.384C160.235 239.391 158.827 239.732 157.587 240.141C156.349 240.558 154.627 241.006 153.763 241.138C152.9 241.274 151.053 241.642 149.65 241.954C148.249 242.266 144.013 242.874 140.249 243.306C131.851 244.285 123.367 244.266 114.974 243.25ZM123.498 220.593C124.042 220.169 124.602 219.325 124.75 218.732C125.076 217.422 177.737 111.849 178.728 110.526C179.564 109.407 179.642 107.617 178.877 106.986C178.475 106.647 173.432 106.54 159.973 106.562C149.877 106.584 141.389 106.591 141.112 106.584C140.702 106.569 140.617 99.8229 140.659 70.9281C140.688 51.3223 140.595 35.1022 140.454 34.8774C140.312 34.6491 139.76 34.466 139.221 34.466C138.464 34.466 138.11 34.7922 137.644 35.9305C136.765 38.0475 134.337 42.8542 122.514 65.8096C120.058 70.5734 117.608 75.3403 115.164 80.1102C113.069 84.2101 109.763 90.6462 107.829 94.4108C102.623 104.53 97.4286 114.656 92.2448 124.786C83.3038 142.252 82.2217 144.334 81.8374 144.795C81.0943 145.694 80.6901 147.767 81.1088 148.547C81.4894 149.261 82.2489 149.29 101.124 149.261C111.914 149.248 120.813 149.304 120.906 149.388C121.154 149.643 121.062 217.012 120.806 218.618C120.638 219.673 120.75 220.231 121.232 220.713C122.066 221.549 122.294 221.541 123.498 220.593Z" fill="#049688"/>
</svg>
