<svg width="256" height="256" viewBox="0 0 256 256" fill="none" xmlns="http://www.w3.org/2000/svg">
<path fill-rule="evenodd" clip-rule="evenodd" d="M78.144 68.406C77.3438 61.4736 83.5828 64.4121 82.7858 68.5918C81.6149 69.7055 79.4522 68.792 78.144 68.406ZM85.5707 67.106C87.1421 66.9455 88.6402 66.7099 89.0992 65.4353C86.9255 64.0954 83.6775 67.4014 85.0138 68.9638C85.7556 68.9008 85.0995 67.4404 85.5707 67.106ZM64.7745 71.3767C66.0832 70.7681 68.2332 70.9978 68.8599 69.706C64.9648 68.3493 57.9505 69.3507 56.7896 71.934C59.7589 71.7505 62.242 69.3942 64.7745 71.3767ZM56.0469 72.1202C55.2032 71.9431 54.8778 72.9014 55.3047 73.4193C55.964 73.3976 56.0519 72.8049 56.0469 72.1202ZM54.0042 75.834C53.8855 74.0628 49.6007 72.6486 49.1771 75.0914C49.5477 76.4784 53.0037 77.3706 54.0042 75.834ZM46.7633 74.1634C45.8783 74.2046 45.4234 74.6808 44.9059 75.0914C45.5792 75.4838 47.0709 75.3433 46.7633 74.1634ZM44.5357 79.1758C47.8064 78.9461 48.8019 81.9535 51.5904 81.5896C52.1101 78.3525 45.4574 73.8997 44.5357 79.1758ZM88.7272 95.3293C87.752 92.0931 90.7381 89.3154 88.9125 86.7874C86.385 86.9891 84.1991 98.72 87.7987 98.6729C90.3833 98.6371 91.2946 91.5416 91.5116 89.2035C89.6194 90.2792 90.4436 94.0755 88.7272 95.3293ZM57.7185 94.0311C57.7747 93.5404 57.4611 93.4207 56.9758 93.4724C56.988 93.9735 57.3999 94.3655 57.7185 94.0311ZM66.8172 99.4156C66.853 98.2651 66.8077 97.1966 65.8892 97.0018C65.19 96.9225 65.2317 97.5822 64.7745 97.7454C65.0296 98.7268 65.548 99.4478 66.8172 99.4156ZM57.9042 105.358C61.4644 105.758 63.8483 108.327 67.1883 108.328C64.5249 106.535 61.7576 104.846 57.5327 104.615C57.3981 105.121 57.9015 104.989 57.9042 105.358ZM85.9423 108.143C85.6654 106.872 85.114 105.875 84.4574 104.985C84.6989 106.29 85.0319 107.504 85.9423 108.143ZM65.5167 112.227C63.1863 109.109 59.4734 106.391 55.3047 105.728C55.8933 110.709 61.4305 110.745 65.5167 112.227ZM59.2043 113.341C57.6129 110.662 54.8846 109.119 51.5904 108.143C53.4419 110.444 55.1379 113.873 59.2043 113.341ZM50.6624 110.742C51.2963 111.843 52.89 112.968 52.5198 114.456C50.8917 113.98 50.1001 112.666 48.4344 112.228C49.3189 113.456 52.6947 118.902 54.7469 118.728C56.0569 118.614 56.6491 117.169 56.418 114.828C55.4143 112.674 52.2193 111.723 50.6624 110.742ZM60.1323 115.57C60.5451 116.705 60.6901 118.107 62.1754 118.169C61.9226 116.875 61.1667 116.082 60.1323 115.57ZM58.8322 116.128C58.1399 116.052 57.7434 116.275 57.7189 116.869C57.9269 116.91 58.008 117.075 58.0896 117.24C58.6832 117.217 58.9079 116.82 58.8322 116.128ZM90.5841 120.398C90.7776 119.348 90.9742 117.326 90.5841 116.312C90.3457 117.355 89.449 119.702 90.5841 120.398ZM77.5866 116.498C77.7285 117.595 77.1979 119.363 78.1435 119.656C78.1848 118.844 78.3742 117.014 77.5866 116.498ZM86.3134 120.769C85.7746 120.292 85.0016 121.013 84.6423 120.584C84.2625 119.355 84.4198 117.589 83.3427 117.056C83.2199 117.056 83.0953 117.056 82.972 117.056C81.4427 120.223 81.5936 127.028 84.2711 128.753C84.7768 129.61 84.8262 130.922 86.128 130.982C87.1983 130.132 87.4611 128.479 87.6138 126.71C85.2898 126.222 87.4548 122.216 86.3134 120.769ZM91.8845 122.81C92.1134 121.166 93.519 118.775 92.4414 117.056C92.0857 118.683 91.4124 120.976 91.8845 122.81ZM59.2043 124.298C59.5002 123.449 59.2677 122.01 58.6469 121.512C58.2137 122.325 57.9618 124.197 59.2043 124.298ZM62.5461 125.04C63.296 125.528 63.3535 126.707 64.4034 126.897C65.7098 125.229 63.2316 122.29 62.5461 125.04ZM94.2979 128.753C94.2992 129.322 93.5534 130.1 94.1126 130.609C94.22 130.149 94.785 129.192 94.2979 128.753ZM95.9686 135.995C95.9609 135.137 96.0732 134.159 95.5979 133.767C95.5145 134.429 95.0247 135.893 95.9686 135.995ZM72.3875 143.609C72.4976 144.3 72.6104 144.994 73.3155 145.094C73.7709 144.457 73.4347 143.328 72.3875 143.609ZM80.7431 144.538C81.0014 145.028 81.7436 146.002 82.228 145.65C81.7984 145.333 81.3027 144.109 80.7431 144.538ZM98.3824 146.58C97.8608 148.791 99.0956 150.805 100.054 152.151C100.446 149.995 100.41 146.909 98.3824 146.58ZM103.026 160.875C103.306 160.314 103.405 158.584 102.84 158.279C102.351 158.949 101.915 160.555 103.026 160.875ZM111.379 169.79C111.111 168.426 110.042 166.952 108.966 167.003C109.343 168.359 109.408 170.029 111.379 169.79ZM113.052 172.389C113.06 173.248 112.949 174.228 113.423 174.616C113.447 173.728 113.434 172.873 113.052 172.389ZM51.7762 172.575C51.7789 173.255 52.1428 173.57 52.5198 173.875C52.4454 173.266 52.3584 172.675 51.7762 172.575ZM119.737 182.786C119.28 179.285 117.438 177.165 115.095 175.546C115.43 179.17 117.206 181.358 119.737 182.786ZM149.632 201.17C149.519 201.065 148.75 200.737 148.703 201.17C148.982 201.385 149.485 201.822 149.632 201.17ZM243.774 214.91C243.774 215.593 243.774 216.271 243.774 216.953C243.472 217.581 243.374 218.41 243.216 219.181C238.053 222.497 228.352 221.276 224.09 225.495C216.615 221.468 209.668 227.811 201.81 228.467C200.512 228.574 199.068 228.358 197.722 228.467C193.08 228.842 188.546 229.927 183.797 230.323C178.928 230.729 174.05 231.026 168.943 231.252C167.085 231.252 165.23 231.252 163.373 231.252C140.343 230.042 117.573 226.944 100.612 219.367C92.156 215.589 84.3726 210.954 77.216 205.44C70.2515 200.078 63.1025 194.116 58.0896 187.43C52.7527 180.311 47.413 173.388 42.6779 165.521C38.1099 157.927 33.8401 149.928 30.052 141.009C26.3151 132.215 23.6525 123.513 21.1381 112.785C19.4947 105.769 17.7601 97.8256 14.8252 91.2466C13.6824 88.6847 12.352 86.5876 12.2261 84.1897C12.2261 83.6337 12.2261 83.075 12.2261 82.519C13.1418 74.7198 19.2074 70.1926 26.3377 68.0349C28.1231 67.4952 29.859 66.9795 31.5369 65.9922C31.6461 65.9292 32.7159 65.82 32.2805 65.25C29.1036 64.4855 26.49 69.1627 22.9964 67.8495C19.8948 66.6832 21.6805 61.881 25.0391 60.4224C26.6069 59.7413 29.7199 59.5641 31.1658 58.7512C33.6589 57.3502 34.7903 54.3899 34.3232 51.6952C34.0463 50.1029 32.3938 49.2646 32.4663 47.9814C32.5678 46.192 35.7673 44.6359 37.2934 43.5249C39.1607 42.166 41.3711 40.4685 41.193 38.3257C41.0054 36.0873 38.3727 35.3741 37.1076 33.6839C35.1216 31.0313 34.8067 27.0665 38.0356 25.5127C41.4209 23.8837 47.728 24.7714 48.4344 29.0412C49.057 32.8044 46.3854 34.2381 47.505 37.0252C49.5912 42.2117 65.8154 34.002 61.8038 44.8244C65.3717 50.4174 79.3149 45.6328 79.6293 54.4801C85.4447 54.597 88.1173 59.01 92.8125 60.7935C94.0709 61.2711 95.5694 61.2711 96.8979 61.7215C104.817 64.413 114.63 67.3003 117.88 74.9051C114.943 76.8839 110.934 75.559 107.482 74.3482C104.48 73.2938 100.102 71.2058 97.0837 72.4909C94.0908 73.7655 94.2508 78.879 94.6699 84.0025C95.7846 97.6425 96.4385 111.712 98.3828 123.925C101.098 140.973 106.903 154.627 115.095 165.333C123.021 175.691 132.331 186.537 144.432 194.115C154.643 200.506 166.115 205.549 180.641 208.782C182.795 209.263 185.4 210.312 186.583 210.082C188.337 209.745 192.111 204.644 193.455 203.399C196.649 200.429 200.947 196.274 205.522 199.869C204.9 204.82 200.465 205.956 199.394 210.455C202.145 212.206 205.062 210.621 208.494 210.825C212.487 211.062 215.549 213.352 218.894 212.867C221.028 212.558 222.097 210.968 223.721 209.897C227.41 215.291 241.635 208.27 243.774 214.91ZM203.479 201.17C203.4 200.571 203.724 199.564 203.108 199.5C202.573 199.772 202.043 201.479 203.479 201.17ZM110.082 70.4487C111.901 71.538 113.502 72.8466 115.095 74.1638C116.054 71.3404 113.302 69.5342 110.082 69.7064C110.082 69.9529 110.082 70.2008 110.082 70.4487ZM160.03 207.297C160.739 207.446 161.251 207.588 161.33 206.741C160.669 206.698 160.219 206.864 160.03 207.297ZM134.405 190.956C134.343 191.831 136.107 191.848 136.45 191.699C136.159 191.119 135.279 190.365 134.405 190.956ZM129.949 187.429C130.258 187.742 131.04 187.576 131.62 187.615C131.682 186.935 131.412 186.583 131.249 186.129C130.273 186.022 130.003 186.617 129.949 187.429ZM94.2979 111.484C93.794 111.057 93.4283 111.839 93.1837 111.484C93.7886 106.877 94.7605 99.7849 92.8125 95.888C92.3309 95.4675 91.5687 96.0357 91.3277 95.7013C92.624 92.6065 93.4995 86.1517 92.9983 82.3323C92.8221 80.9861 92.1229 78.5918 91.3277 78.0616C89.3294 76.7312 87.511 78.7757 86.1276 79.1758C85.2571 79.4296 84.2893 79.2483 83.3427 79.3607C79.5985 79.812 75.6255 80.9285 73.1306 82.1456C74.4311 83.0125 76.2744 83.3346 76.8435 84.9305C73.6082 84.7017 71.0843 83.7601 68.3017 83.0745C68.5984 87.2637 63.4609 85.951 60.318 86.2319C61.4037 86.2555 61.5777 86.7802 61.6181 87.531C61.7472 89.9956 53.6372 92.9164 50.8482 91.0604C46.8702 94.2676 52.5986 97.5437 52.3335 101.645C51.5514 102.224 51.1903 103.224 50.4766 103.871C46.5231 103.967 42.3648 104.762 43.0481 108.885C42.5139 108.573 41.671 108.365 41.0054 108.698C39.9949 111.301 41.6914 114.127 43.9774 114.641C44.5534 114.474 44.6875 113.866 45.4628 113.899C50.6266 114.886 52.4445 118.311 52.1477 124.853C52.0961 125.979 52.208 127.449 51.4051 128.196C48.4747 127.996 45.7578 120.763 50.4762 120.584C49.3447 118.919 48.4879 116.435 46.3908 116.497C43.987 116.569 42.9081 120.368 41.1916 121.697C43.6657 123.064 49.4761 126.837 44.7192 129.31C47.0741 129.663 48.3882 130.597 49.361 131.908C50.9823 134.098 50.9307 137.378 52.1468 139.151C54.6078 142.741 55.9069 135.932 58.8304 138.779C59.521 139.016 58.5264 138.108 58.4593 138.038C55.9513 135.33 52.126 133.11 50.661 129.867C51.7871 129.351 53.2964 129.915 54.3739 130.052C54.7999 127.871 53.2842 125.402 53.8171 123.738C54.2009 122.544 54.9091 123.07 55.6744 122.625C56.1244 122.363 55.7723 121.388 56.6033 121.697C56.5983 124.246 55.0622 128.536 56.7877 130.423C59.3076 130.876 60.0353 126.542 62.1736 126.524C63.368 126.514 64.4968 128.616 65.3296 129.681C66.3301 130.958 67.6899 132.528 67.3723 133.95C66.7035 136.95 61.6656 134.666 59.9451 133.393C60.9937 137.556 67.4457 138.202 67.7434 143.608C67.7774 144.211 67.4729 144.981 67.5581 145.649C67.9228 148.502 70.5831 150.622 73.3137 148.807C73.7151 149.83 73.7677 151.202 74.8004 151.592C75.7048 150.827 75.3835 148.833 75.9137 147.692C79.1535 148.37 80.8451 149.93 81.8551 152.519C82.3553 153.8 82.2262 156.174 84.2689 156.233C84.5815 153.067 82.1011 151.106 81.6702 148.063C83.3345 150.748 89.338 153.653 89.0978 157.905C88.9383 160.708 85.606 161.013 82.4129 161.432C85.4561 162.478 86.7307 165.886 90.0258 167.002C90.9112 167.304 92.0486 167.045 92.9965 167.375C95.4076 168.214 99.2628 173.156 98.1966 176.288C93.0591 178.877 89.0507 171.879 83.3413 172.018C85.7488 175.087 89.6869 176.109 92.997 177.588C96.5594 179.179 100.126 180.808 103.581 182.415C111.725 186.203 117.377 191.159 122.707 197.456C119.009 199.472 107.801 196.118 114.537 193.74C112.194 193.661 109.714 192.192 107.666 193C108.751 200.085 118.073 198.934 125.121 200.055C124.479 201.27 123.575 202.223 122.892 203.397C123.435 203.718 124.186 203.835 125.121 203.768C124.669 204.492 123.495 204.494 123.449 205.624C124.351 206.827 126.138 207.145 127.348 208.038C132.12 204.616 132.655 212.38 135.704 212.495C138.585 212.602 139.137 208.462 142.019 208.038C141.295 209.544 139.878 210.354 139.234 211.939C142.055 211.257 142.859 209.738 145.173 209.152C153.464 207.055 160.261 213.961 167.084 214.724C169.537 214.997 171.976 216.375 174.14 216.767C176.939 217.272 178.659 216.35 180.824 215.282C177.527 212.203 169.956 213.402 167.27 209.71C167.374 209.071 167.811 208.766 168.199 208.412C159.508 210.321 154.037 205.112 150.373 200.241C139.652 197.472 130.245 193.384 125.676 184.459C125.457 183.618 126.5 184.044 126.235 183.158C122.465 178.963 118.698 174.705 115.651 169.789C114.598 168.091 113.877 165.958 112.679 164.59C111.921 163.723 110.648 163.246 109.894 162.361C109.069 161.39 108.957 160.175 107.665 159.762C107.168 160.503 107.501 162.072 107.109 162.918C106.216 159.333 104.226 155.928 100.425 155.862C100.354 153.254 102.46 152.825 103.581 151.405C102.106 149.632 101.751 147.399 100.981 144.722C99.111 138.215 97.5654 131.418 95.9672 125.41C93.8493 126.2 93.2879 128.548 92.2543 130.423C92.3563 127.741 92.4818 125.08 93.9259 123.738C94.5861 123.82 94.6586 124.492 95.0392 124.852C95.3881 123.587 96.5853 122.407 95.9672 120.768C95.4878 120.027 94.0863 120.373 93.7401 120.397C94.6563 118.154 95.4257 114.084 94.2979 111.484ZM168.943 221.596C170.548 220.91 171.993 220.066 172.655 218.438C170.91 218.875 168.45 219.535 168.943 221.596ZM169.128 217.882C168.054 218.477 166.846 218.943 166.158 219.925C167.697 220.017 169.501 218.471 169.128 217.882ZM163.373 220.667C164.424 220.386 165.549 219.301 165.415 218.438C164.195 218.56 162.307 219.431 163.373 220.667ZM164.115 216.395C162.444 215.867 161.08 217.176 160.957 218.811C162.446 218.442 163.454 217.592 164.115 216.395ZM158.915 216.768C157.283 217.053 156.062 217.748 155.572 219.18C157.567 219.972 158.589 218.257 158.915 216.768ZM156.316 221.596C156.776 221.622 157.217 221.63 157.245 221.223C156.966 220.929 156.186 220.951 156.316 221.596ZM159.288 213.61C156.69 213.411 153.582 215.097 155.202 217.324C156.932 216.454 158.685 215.608 159.288 213.61ZM146.474 217.14C148.097 217.368 148.521 215.512 149.633 215.837C150.277 216.244 149.885 217.69 150.931 217.696C153.36 217.202 154.234 213.888 152.787 211.568C149.514 212.144 146.519 213.946 146.474 217.14ZM147.217 212.312C146.231 212.811 145.182 213.245 144.618 214.168C145.833 214.115 147.642 212.775 147.217 212.312ZM142.02 213.241C142.123 213.734 141.255 214.185 141.831 214.539C141.986 214.305 142.962 213.387 142.02 213.241ZM138.677 217.695C138.618 217.948 138.411 218.05 138.493 218.438C138.738 218.438 138.986 218.438 139.235 218.438C139.286 217.952 139.165 217.64 138.677 217.695ZM135.892 216.768C134.954 216.821 134.599 217.456 134.592 218.438C135.4 218.258 136.137 218.004 135.892 216.768ZM117.136 207.297C115.992 207.247 115.643 207.424 116.951 207.671C118.198 207.901 120.397 208.021 121.223 207.671C120.242 207.659 117.71 207.324 117.136 207.297ZM122.708 204.328C121.736 203.589 119.783 204.124 118.809 204.512C119.371 206.058 122.132 205.372 122.708 204.328ZM116.767 218.253C121.398 220.68 127.774 223.329 134.405 222.523C129.587 220.164 122.421 219.157 116.767 218.253ZM109.896 216.21C110.339 216.819 111.387 216.823 112.123 217.14C113.494 215.815 110.481 215.068 109.896 216.21ZM92.441 201.17C91.1876 201.279 89.8237 201.275 89.4703 202.285C90.6643 202.728 92.392 202.453 92.441 201.17ZM88.9125 205.997C89.3489 206.393 90.1513 206.864 90.3983 205.997C90.2062 205.801 89.0729 205.615 88.9125 205.997ZM91.141 190.214C91.3095 189.438 89.831 189.144 89.6561 189.843C90.063 190.054 90.4155 190.322 91.141 190.214ZM93.5557 196.527C93.5466 196.272 93.6431 196.12 93.741 195.971C93.1877 195.399 92.069 195.298 91.141 195.6C91.2896 196.493 92.7767 196.866 93.5557 196.527ZM93.7415 208.413C93.9789 208.666 94.6178 208.666 94.8552 208.413C94.9427 207.829 94.6232 207.654 94.2983 207.482C94.1316 207.812 93.8498 208.025 93.7415 208.413ZM99.498 187.058C98.893 185.309 96.9206 185.771 95.5979 185.202C93.4723 184.286 91.6575 182.1 88.9129 182.046C88.7897 182.046 88.6651 182.046 88.5427 182.046C90.9298 184.859 94.089 187.881 99.498 187.058ZM89.8414 180.19C88.1082 179.012 86.2096 178 83.7138 177.59C84.5072 179.581 87.5957 180.267 89.8414 180.19ZM95.5975 188.914C96.8993 190.275 98.5332 191.303 101.354 191.142C100.27 189.687 97.6787 188.754 95.5975 188.914ZM102.654 197.271C100.742 195.946 97.7348 193.797 95.2263 194.299C96.6772 196.191 99.594 197.608 102.654 197.271ZM95.5975 204.328C95.5526 204.592 95.292 204.639 95.2263 204.882C95.684 205.479 96.3727 204.452 95.5975 204.328ZM99.8682 209.898C100.026 210.606 100.708 210.791 101.354 211.012C101.605 210.582 102.1 210.395 101.911 209.527C101.46 209.255 99.8364 209.099 99.8682 209.898ZM103.397 201.728C102.822 201.376 100.725 200.982 100.239 201.728C101.14 202.093 102.91 203.039 103.397 201.728ZM103.954 195.413C104.139 194.032 102.577 194.026 101.911 194.484C101.973 195.413 103.202 195.176 103.954 195.413ZM105.996 185.387C105.157 184.12 102.828 184.346 101.168 183.902C99.9529 182.376 97.047 181.821 94.4837 182.231C97.4195 184.186 100.759 185.735 105.996 185.387ZM105.625 203.212C106.422 203.9 107.672 204.135 108.781 204.512C108.84 204.075 109.074 203.815 108.966 203.212C108.426 202.589 106.08 202.266 105.625 203.212ZM89.8414 173.131C90.0272 172.264 89.5174 172.095 88.7272 172.204C88.4471 173.165 89.3733 172.918 89.8414 173.131ZM94.2979 175.36C93.7555 175.222 93.9381 174.36 93.1837 174.431C92.4994 175.059 93.7319 176.014 94.2979 175.36ZM81.4858 176.66C80.8695 175.298 79.4807 174.705 78.5151 173.689C80.3258 171.066 76.2857 169.992 75.544 168.118C75.5353 167.553 75.9359 167.397 76.1008 167.003C74.5407 166.089 72.7391 165.415 71.8297 163.849C72.5479 163.329 74.4623 164.003 75.1715 163.476C74.0468 162.991 72.8325 162.598 72.3866 161.433C73.0377 159.918 75.6849 160.4 76.2857 158.834C73.0871 158.128 69.9093 156.428 66.4438 156.605C66.4833 157.928 67.6605 158.112 68.115 159.019C67.0877 158.563 66.2567 157.905 64.7732 157.905C64.6622 158.821 65.2553 159.032 65.1452 159.948C64.1325 160.031 63.6191 159.617 62.5447 159.764C63.3105 161.472 65.2743 161.985 65.8879 163.849C65.1284 164.041 64.0976 163.547 63.8452 163.849C65.8054 165.477 68.6682 167.194 69.7861 169.046C67.9623 168.707 66.9183 167.584 65.1452 167.19C66.6296 170.129 70.2442 170.742 72.9435 172.204C75.7066 173.7 78.1825 176.112 81.4858 176.66ZM77.4004 178.888C78.1766 179.312 79.7218 180.659 80.7431 179.632C79.8822 179.251 78.5278 178.384 77.4004 178.888ZM75.9155 177.958C75.3931 177.112 72.7273 176.662 72.0168 177.216C73.2285 177.565 74.3704 178.505 75.9155 177.958ZM72.5728 178.516C72.5144 178.769 72.3091 178.87 72.3875 179.261C72.7142 179.153 73.4782 179.483 73.5017 179.074C73.2135 178.867 73.1143 178.471 72.5728 178.516ZM70.159 153.82C69.6524 152.075 68.9759 150.163 67.5599 148.808C66.7973 148.077 66.0587 148.092 65.5172 147.134C64.0822 144.609 64.77 141.045 62.9176 138.41C62.4795 138.267 61.6344 138.042 61.2465 138.41C61.2814 139.627 64.1071 142.514 62.1759 143.98C57.9056 144.149 56.2617 140.75 52.1491 141.379C51.2229 143.778 54.4972 145.011 53.6335 146.765C59.5405 148.661 64.2317 152.769 70.159 153.82ZM56.7896 159.39C57.8807 160.221 59.458 161.55 60.8749 161.433C59.7525 160.638 58.7199 158.765 56.7896 159.39ZM54.7469 157.721C54.2652 156.223 53.4301 155.077 51.5904 154.936C51.9647 156.541 53.7088 156.779 54.7469 157.721ZM51.5904 162.549C52.5846 163.229 53.5719 164.896 54.5615 164.962C53.8379 164.014 52.9561 162.238 51.5904 162.549ZM52.8909 149.735C52.9869 149.46 53.1646 149.268 53.262 148.992C52.7857 148.337 51.6117 148.695 51.4055 149.365C51.7707 149.618 52.4658 149.543 52.8909 149.735ZM81.672 157.163C81.6457 155.565 79.8708 154.638 78.5151 155.493C78.9447 156.673 80.2392 156.986 81.672 157.163ZM64.2163 132.84C64.2475 132.533 63.073 132.533 63.1029 132.84C63.3576 132.897 64.2231 133.679 64.2163 132.84ZM56.9762 132.096C56.7284 132.096 56.4805 132.096 56.2327 132.096C55.9776 132.335 56.0492 132.904 56.0469 133.394C56.3863 133.445 57.0882 134.065 57.3474 133.582C56.8879 133.42 57.4008 132.29 56.9762 132.096ZM43.0485 131.909C43.6639 133.309 46.1547 133.206 46.577 131.725C45.5203 131.316 43.9639 131.6 43.0485 131.909ZM43.6068 126.71C42.8886 126.674 42.2379 126.704 41.7485 126.897C41.8931 127.707 43.6018 127.563 43.6068 126.71ZM45.277 96.816C44.3227 97.2569 42.3326 96.3742 41.3783 96.816C42.2234 100.161 48.4869 98.3603 48.0633 95.7013C47.7035 93.4457 41.7472 94.0044 39.7072 94.2164C41.2882 95.3583 43.8012 95.5685 45.277 96.816ZM37.8503 100.344C38.1997 100.861 39.1598 100.767 39.7072 101.086C39.8146 100.699 40.168 100.557 40.0783 99.9725C39.5912 99.7151 37.8385 99.5125 37.8503 100.344ZM47.3206 99.6014C47.2205 100.006 46.8702 100.803 47.505 100.901C47.9473 100.59 47.8548 99.8705 47.3206 99.6014ZM52.5198 88.4599C52.4708 87.9171 52.9389 87.8908 52.8909 87.3461C52.136 87.2723 51.5963 87.4137 51.5904 88.0884C51.9438 88.169 52.0567 88.4885 52.5198 88.4599ZM52.334 47.2382C51.5945 51.7695 55.6771 57.2509 60.5034 55.5934C60.7286 53.8833 59.9483 53.1787 59.9465 51.6947C61.1781 51.3961 61.9031 52.5788 62.5456 52.2516C60.7395 48.9832 55.935 48.7127 52.334 47.2382ZM50.2904 42.9675C51.9225 43.2906 54.4841 43.127 55.1189 41.8533C53.8859 41.0295 50.1866 40.8088 50.2904 42.9675ZM45.8339 29.9692C46.191 26.3628 41.7839 24.3699 39.1503 26.8132C37.5041 28.3393 36.7891 32.025 39.3356 33.3123C39.0465 32.3626 38.2024 31.9697 38.4076 30.5274C40.3429 29.4209 43.8914 31.0671 45.8339 29.9692ZM44.5357 41.8528C45.0079 41.5832 45.717 41.5511 45.6495 40.7391C45.0785 40.7966 44.1057 41.412 44.5357 41.8528ZM40.6352 55.5934C42.9507 55.6482 44.6966 54.3423 46.9486 54.2943C48.8979 54.2531 50.7557 54.8331 53.0762 54.6654C51.4191 49.802 43.3675 54.0492 40.6352 55.5934ZM37.1076 64.1353C41.4889 63.5784 47.5929 60.6956 53.4478 61.3504C55.6563 61.5969 57.5907 62.8398 58.8322 63.7642C58.1992 63.0885 57.4493 60.3159 58.8322 59.8655C61.8795 60.4459 61.981 66.2033 65.7025 65.4357C67.5984 65.0447 68.1757 61.3671 67.1883 59.1223C68.6052 60.1192 69.3352 61.803 71.2737 62.2793C70.8315 60.493 69.5459 59.5501 68.6746 58.1939C69.2219 57.5042 69.9388 56.9822 69.7879 55.5934C64.4741 55.0827 59.7575 57.951 54.7473 58.9361C50.8591 59.7019 47.9654 60.4604 44.5362 61.3499C41.9579 62.0183 39.0891 62.4873 37.1076 64.1353ZM21.5102 102.573C21.255 102.809 21.1866 103.682 21.6955 103.686C21.8482 103.552 22.1939 102.401 21.5102 102.573ZM28.008 80.4763C19.8658 81.7682 28.5445 90.4274 33.3938 88.2755C34.0078 87.3325 33.817 86.4684 33.7649 85.1172C36.5902 85.3941 38.7158 84.0179 41.193 84.5612C41.5927 85.4244 40.8368 86.1553 40.6357 86.9741C49.0606 86.4399 53.2321 79.8202 62.3598 78.8047C63.494 78.6783 64.7868 78.879 66.0745 78.8047C69.9184 78.5804 74.1764 77.8681 78.144 77.1332C82.0368 76.4136 85.5961 74.9822 88.9129 74.1634C93.0758 73.1343 99.4087 70.4156 98.5695 64.8784C98.4734 64.2481 98.0362 63.6817 97.6406 63.0215C75.5127 60.8818 58.9682 69.5565 41.5646 73.0487C39.4738 73.4678 36.9318 73.1892 35.2507 74.9047C35.8588 76.4009 37.9957 76.3687 38.9636 77.5043C38.4797 78.0716 37.283 77.9266 37.1076 78.8047C37.5172 80.3753 39.8454 80.0255 40.0783 81.7763C36.3822 84.3818 28.6319 81.0586 30.4227 75.834C24.8379 77.0579 16.7066 78.2741 16.6826 84.5612C16.6712 87.3321 18.3229 89.895 20.2097 91.4315C18.9314 85.5817 21.1042 76.9315 28.008 80.4763ZM34.8792 115.199C35.0482 113.941 32.9815 113.061 32.28 113.9C32.9642 114.515 34.0354 114.742 34.8792 115.199ZM28.38 117.613C29.6931 122.178 30.1204 127.633 33.5791 130.054C33.0585 124.694 31.1567 120.716 28.38 117.613ZM36.1787 112.785C36.7569 110.164 32.9112 109.137 32.6511 110.928C32.4241 112.487 34.8832 112.306 36.1787 112.785ZM36.9218 107.771C36.0836 106.854 33.9797 106.286 32.4658 106.657C33 107.971 36.287 109.917 36.9218 107.771ZM34.6938 99.6014C35.5326 99.0785 36.4225 98.6054 36.5498 97.372C35.4723 96.5654 32.8927 96.4517 32.6511 97.7454C32.4685 98.7232 33.779 99.1197 34.6938 99.6014ZM37.1076 102.757C37.1887 102.119 37.0342 101.717 36.9218 101.272C35.9694 101.248 35.5249 101.731 35.4365 102.573C35.8987 102.728 36.4311 102.815 37.1076 102.757ZM24.1097 101.829C23.9665 101.354 23.9239 100.777 23.5528 100.53C23.0911 101.03 23.0734 101.927 24.1097 101.829ZM25.9666 89.2035C25.1333 88.8786 23.8999 89.2253 23.5528 89.9457C23.9425 90.2973 24.5035 90.4809 25.0382 90.6875C25.2258 90.073 26.0654 90.107 25.9666 89.2035ZM28.008 113.156C27.5277 112.089 27.4674 110.603 26.5235 110C23.981 110.362 26.5 114.014 28.008 113.156ZM31.5364 133.209C33.3494 137.592 35.2629 142.33 39.1503 144.35C36.2435 141.116 35.5575 135.765 33.5791 131.909C32.8949 130.579 31.8033 129.544 31.1653 128.197C29.6641 125.023 28.9722 121.321 25.9666 119.841C27.1511 124.51 29.6882 128.736 31.5364 133.209ZM82.6005 202.841C81.4767 199.014 78.4603 197.077 74.2444 196.342C73.2022 193.857 70.1944 193.338 69.6026 190.401C69.5065 189.798 70.7526 189.585 70.3462 189.287C64.6948 190.357 64.4954 184.367 61.8043 181.859C55.0133 181.982 56.2766 173.579 52.5202 169.234C51.4472 167.991 50.3833 167.704 49.1775 166.449C47.322 160.698 42.4794 157.781 39.7077 152.709C37.2458 148.202 36.7279 143.118 32.652 139.896C35.8769 150.814 42.7857 160.043 48.9922 169.234C53.9602 176.589 57.3387 183.593 62.9181 189.472C64.8139 191.467 66.9545 192.804 69.2319 194.671C73.1057 197.847 75.7732 203.74 82.6005 202.841ZM81.8569 190.214C81.6571 189.419 80.2247 188.882 79.4431 189.287C80.1631 189.683 80.9543 190.003 81.8569 190.214ZM88.7272 185.387C87.4693 183.921 84.8357 183.362 82.4142 182.416C79.4105 181.24 75.1248 180.127 72.9448 181.487C73.1641 183.309 74.6155 183.901 75.544 185.015C78.1236 185.412 79.5999 186.671 82.0422 186.871C84.9209 187.109 87.6093 186.981 88.7272 185.387ZM177.298 227.724C171.679 225.161 163.439 228.044 157.43 226.608C156.295 226.337 155.293 225.557 154.274 225.494C153.26 225.432 152.08 225.967 151.117 226.052C145.971 226.51 141.273 226.001 136.449 225.308C133.065 224.822 129.46 224.631 126.421 223.823C123.509 223.05 120.498 221.268 117.508 220.109C114.473 218.935 111.314 217.765 108.41 216.581C102.679 214.247 96.5893 210.207 90.5836 208.598C94.635 212.902 101.61 214.285 106.368 217.882C99.6443 216.001 94.5711 212.472 88.5418 209.898C93.2394 214.104 99.7943 216.651 106.368 219.366C112.914 222.072 120.028 224.362 127.72 225.494C143 227.745 160.921 231.087 177.298 227.724ZM182.126 227.166C181.172 227.204 179.985 227.006 179.899 227.909C180.707 228.602 182.065 228.53 182.126 227.166ZM192.152 205.255C192.416 206.627 194.408 206.218 194.197 204.697C193.185 204.554 192.746 204.984 192.152 205.255ZM207.564 214.91C202.573 214.79 196.415 213.066 191.223 213.241C189.231 213.307 186.81 213.783 186.211 215.837C187.743 216.459 189.384 216.086 191.223 216.025C197.246 215.822 204.604 218.528 207.564 214.91ZM212.578 214.539C211.71 214.537 211.454 215.15 211.278 215.837C211.517 216.093 212.085 216.024 212.578 216.025C212.49 215.204 212.833 215.101 212.578 214.539ZM223.534 213.797C222.628 213.659 222.29 214.786 222.605 215.283C223.189 215.372 223.331 215.018 223.72 214.91C223.854 214.343 223.4 214.364 223.534 213.797ZM238.944 214.91C235.143 214.505 230.704 214.756 227.248 215.283C229.283 217.2 236.592 215.977 238.944 214.91ZM60.318 102.014C62.1496 103.032 63.8397 105.176 66.2603 104.985C65.6065 104.092 64.6794 103.472 64.031 102.573C64.7206 102.518 65.3065 102.363 65.5167 101.829C63.2584 100.249 60.362 98.3195 59.2038 96.2573C59.9682 97.7386 61.1382 100.098 60.318 102.014ZM84.0858 103.501C83.6884 103.094 83.8674 102.108 83.3422 101.83C83.224 102.638 83.7469 103.767 84.0858 103.501ZM67.0025 119.656C67.2871 122.713 69.241 124.1 69.4163 127.269C67.2459 124.797 66.0342 121.366 64.5887 118.169C64.4469 122.036 65.616 124.432 66.6314 127.083C67.4131 129.121 68.1458 131.512 70.159 132.096C71.0992 131.921 71.0467 130.752 72.0173 130.61C73.0495 130.758 73.5869 132.379 74.2444 132.283C73.7487 131.725 73.5942 130.828 73.5017 129.869C73.6812 129.181 74.6644 129.298 74.9866 128.753C73.1193 124.927 70.4427 121.909 67.0025 119.656Z" fill="black"/>
</svg>
