<svg width="256" height="256" viewBox="0 0 256 256" fill="none" xmlns="http://www.w3.org/2000/svg">
<path fill-rule="evenodd" clip-rule="evenodd" d="M206 204H50V50H206V204ZM138.516 92.9707C136.517 91.7868 133.949 91.709 131.765 92.4414C128.379 94.7691 127.461 97.9646 126.551 101.824C126.373 102.608 126.195 103.392 126.013 104.175C125.673 105.629 125.336 107.083 125.003 108.539C124.721 109.774 124.438 111.009 124.153 112.243C123.48 115.155 122.81 118.069 122.144 120.982C121.455 123.999 120.762 127.016 120.062 130.03C119.456 132.644 118.852 135.259 118.252 137.875C117.895 139.434 117.539 140.993 117.177 142.551C116.832 144.032 116.489 145.514 116.153 146.998C116.028 147.549 115.903 148.101 115.778 148.652C114.932 152.25 114.304 155.662 114.614 159.374C115.549 161.244 116.694 162.459 118.457 163.53C120.789 164.18 122.93 164.264 125.109 163.083C127.667 161.103 127.667 161.103 129.397 153.782C129.578 153.004 129.758 152.226 129.94 151.449C130.28 150.006 130.617 148.562 130.953 147.118C131.165 146.201 131.379 145.284 131.592 144.367C132.338 141.168 133.082 137.969 133.823 134.769C134.516 131.775 135.213 128.781 135.915 125.789C136.524 123.195 137.129 120.6 137.73 118.004C138.089 116.456 138.446 114.909 138.809 113.362C139.155 111.892 139.501 110.422 139.839 108.95C139.964 108.402 140.09 107.854 140.216 107.307C140.988 104.065 141.516 101.028 141.509 97.687C141.26 95.533 140.131 94.3119 138.516 92.9707ZM102.121 101.498C97.026 99.9513 97.026 99.9512 89.7822 106.501C89.0641 107.151 88.3448 107.8 87.625 108.449C86.5859 109.383 86.5854 109.384 78.2192 116.913C77.524 117.543 76.827 118.171 76.1279 118.796C74.6973 120.018 73.2834 121.238 71.9443 122.561C70.1468 124.621 69.5487 126.378 69.7041 129.117C69.989 130.982 70.5868 132.176 72.0493 133.367C73.0743 134.175 74.0393 135.022 74.9976 135.908C76.3584 137.172 77.7209 138.435 79.1133 139.665C80.7923 141.118 82.4424 142.6 84.0762 144.104C85.2245 145.163 86.3736 146.219 87.5483 147.249C88.6128 148.166 89.6727 149.067 90.6548 150.074C93.1686 152.708 95.4116 154.897 99.2139 155.033C101.306 154.914 102.613 154.603 104.156 153.099C105.705 151.06 106.079 149.528 105.963 146.976C105.709 145.099 105.097 143.903 103.633 142.71C102.608 141.902 101.642 141.055 100.684 140.169C99.3283 138.91 97.9716 137.651 96.583 136.428C95.0354 135.091 93.5032 133.737 91.9873 132.364C91.7332 132.134 91.4863 131.909 91.2397 131.686C89.8579 130.45 88.9999 129.5 87.75 128C89.5 126.5 91.4799 124.429 93.2529 122.796C94.388 121.75 95.5225 120.704 96.6797 119.683C97.2008 119.232 97.7211 118.779 98.2402 118.325C98.6924 117.929 98.6926 117.929 99.1357 117.541C99.7837 116.977 100.431 116.413 101.074 115.842C101.304 115.638 101.527 115.439 101.75 115.24C103.067 114.102 104.221 112.956 105.129 111.462C106.182 109.277 106.299 107.29 105.553 104.968C104.771 103.392 103.69 102.294 102.121 101.498ZM159.375 101.226C156.522 100.744 154.003 100.795 151.845 102.899C150.296 104.938 149.921 106.47 150.037 109.022C150.291 110.899 150.903 112.095 152.368 113.288C153.393 114.096 154.358 114.943 155.316 115.828C156.672 117.088 158.028 118.347 159.417 119.57C160.965 120.907 162.497 122.261 164.013 123.634C164.267 123.864 164.514 124.089 164.76 124.312C166.145 125.57 166.75 126.25 168.25 128C166.405 129.552 164.52 131.569 162.747 133.202C161.612 134.248 160.478 135.294 159.32 136.315C158.799 136.766 158.279 137.219 157.76 137.673C157.455 137.939 157.16 138.198 156.864 138.457C156.216 139.021 155.569 139.586 154.926 140.156C154.585 140.46 154.585 140.46 154.25 140.758C152.934 141.895 151.779 143.042 150.869 144.534C149.716 146.936 149.81 149.044 150.616 151.556C151.977 153.444 153.188 154.556 155.529 154.989C158.254 155.139 160.052 154.717 162.216 153.056C162.53 152.786 162.835 152.524 163.139 152.262C164.197 151.352 165.237 150.429 166.262 149.482C166.96 148.834 167.663 148.19 168.37 147.551C169.414 146.615 169.415 146.614 177.781 139.085C178.476 138.455 179.173 137.828 179.873 137.202C181.303 135.98 182.717 134.76 184.056 133.438C185.853 131.377 186.451 129.62 186.296 126.881C186.011 125.016 185.413 123.822 183.951 122.631C182.926 121.823 181.961 120.976 181.002 120.09C179.642 118.826 178.279 117.563 176.887 116.333C175.208 114.88 173.558 113.398 171.924 111.894C170.776 110.835 169.626 109.779 168.452 108.75C167.387 107.832 166.327 106.931 165.345 105.924C163.564 104.057 161.767 102.271 159.375 101.226Z" fill="#707070"/>
<path d="M170 12C174.971 12 179 16.2601 179 21.5146V39.5H189.054C203.936 39.5002 216 51.5643 216 66.4463V77.084C216.411 77.0297 216.83 77 217.257 77H234.743L234.981 77.0029C239.984 77.1262 244 81.1071 244 86C244 90.8929 239.984 94.8738 234.981 94.9971L234.743 95H217.257C216.83 95 216.411 94.9693 216 94.915V119.084C216.411 119.03 216.83 119 217.257 119H234.743L234.981 119.003C239.984 119.126 244 123.107 244 128C244 132.893 239.984 136.874 234.981 136.997L234.743 137H217.257C216.83 137 216.411 136.969 216 136.915V161.084C216.411 161.03 216.83 161 217.257 161H234.743L234.981 161.003C239.984 161.126 244 165.107 244 170C244 174.893 239.984 178.874 234.981 178.997L234.743 179H217.257C216.83 179 216.411 178.969 216 178.915V189.054C216 203.936 203.936 216 189.054 216H178.915C178.969 216.411 179 216.83 179 217.257V234.743L178.997 234.981C178.874 239.984 174.893 244 170 244C165.107 244 161.126 239.984 161.003 234.981L161 234.743V217.257C161 216.83 161.031 216.411 161.085 216H136.915C136.969 216.411 137 216.83 137 217.257V234.743L136.997 234.981C136.874 239.984 132.893 244 128 244C123.107 244 119.126 239.984 119.003 234.981L119 234.743V217.257C119 216.83 119.031 216.411 119.085 216H94.915C94.9693 216.411 95 216.83 95 217.257V234.743L94.9971 234.981C94.8738 239.984 90.8929 244 86 244C81.1071 244 77.1262 239.984 77.0029 234.981L77 234.743V217.257C77 216.83 77.0307 216.411 77.085 216H66.4463C51.5643 216 39.5002 203.936 39.5 189.054V179H22.0146C16.7601 179 12.5 174.971 12.5 170C12.5 165.029 16.7601 161 22.0146 161H39.5V137H22.0146C16.7601 137 12.5 132.971 12.5 128C12.5 123.029 16.7601 119 22.0146 119H39.5V95H22.0146C16.7601 95 12.5 90.9706 12.5 86C12.5 81.0294 16.7601 77 22.0146 77H39.5V66.4463C39.5001 51.5643 51.5643 39.5001 66.4463 39.5H77V21.5146C77 16.2601 81.0294 12 86 12C90.9706 12 95 16.2601 95 21.5146V39.5H119V21.5146C119 16.2601 123.029 12 128 12C132.971 12 137 16.2601 137 21.5146V39.5H161V21.5146C161 16.2601 165.029 12 170 12ZM66.1689 55.6719C60.3447 55.8194 55.6681 60.5865 55.668 66.4463V189.054C55.6681 194.913 60.3447 199.681 66.1689 199.828L66.4463 199.832H189.054C195.006 199.832 199.832 195.006 199.832 189.054V66.4463C199.832 60.4936 195.006 55.6681 189.054 55.668H66.4463L66.1689 55.6719Z" fill="#707070"/>
</svg>
