<svg width="256" height="256" viewBox="0 0 256 256" fill="none" xmlns="http://www.w3.org/2000/svg">
<rect width="256" height="256" fill="white"/>
<path d="M60.3321 12C33.6956 12 12 33.6956 12 60.3321C12 83.659 28.6406 103.2 50.6679 107.693V176.332C50.6679 197.665 68.2129 215 89.3321 215H89.6856C92.0454 231.354 106.179 244 123.168 244C141.797 244 157 228.797 157 210.168C157 191.539 141.797 176.332 123.168 176.332C106.181 176.332 92.0472 188.978 89.6856 205.332H89.3321C73.4963 205.332 60.3321 192.369 60.3321 176.332V127.599C63.4602 130.791 67.1942 133.326 71.3151 135.055C75.436 136.784 79.8607 137.672 84.3296 137.668H89.6856C92.0472 154.022 106.179 166.668 123.168 166.668C140.155 166.668 154.287 154.022 156.645 137.668H176.686C179.047 154.022 193.179 166.668 210.168 166.668C228.797 166.668 244 151.461 244 132.832C244 114.203 228.797 99 210.168 99C193.179 99 179.045 111.646 176.686 128H156.647C154.288 111.646 140.156 99 123.168 99C106.179 99 92.0454 111.646 89.6856 128H84.3296C72.6698 128 62.9548 119.682 60.7889 108.657C87.2151 108.41 108.668 86.8164 108.668 60.3321C108.668 33.6956 86.9686 12 60.3321 12ZM60.3321 21.6679C65.4126 21.6578 70.445 22.6511 75.1407 24.5905C79.8364 26.53 84.1029 29.3775 87.6955 32.9698C91.2881 36.562 94.1361 40.8283 96.076 45.5238C98.0159 50.2193 99.0096 55.2517 99 60.3321C99.0096 65.4127 98.0159 70.4453 96.076 75.141C94.1362 79.8367 91.2883 84.1032 87.6957 87.6957C84.1032 91.2883 79.8367 94.1362 75.141 96.076C70.4453 98.0159 65.4127 99.0096 60.3321 99C55.2517 99.0096 50.2193 98.0159 45.5238 96.076C40.8283 94.1361 36.562 91.2881 32.9698 87.6955C29.3775 84.1029 26.53 79.8364 24.5905 75.1407C22.6511 70.445 21.6578 65.4126 21.6679 60.3321C21.6578 55.2518 22.6511 50.2196 24.5906 45.5241C26.5301 40.8286 29.3777 36.5623 32.97 32.97C36.5623 29.3777 40.8286 26.5301 45.5241 24.5906C50.2196 22.6511 55.2518 21.6578 60.3321 21.6679ZM50.8799 35.3359C45.8394 35.3613 41 39.4104 41 44.9259V75.8163C41 83.1442 49.5351 87.893 55.7628 84.0324L80.4744 68.7077C86.3777 65.0464 86.4086 56.0166 80.5324 52.3136L55.819 36.7443C54.3419 35.8106 52.6273 35.3217 50.8799 35.3359ZM50.6679 44.9259L75.3813 60.4916L50.6679 75.8163V44.9259ZM123.168 108.668C126.344 108.658 129.491 109.276 132.427 110.487C135.363 111.698 138.031 113.477 140.277 115.723C142.523 117.969 144.302 120.637 145.513 123.573C146.724 126.509 147.342 129.656 147.332 132.832C147.342 136.008 146.724 139.155 145.513 142.092C144.302 145.028 142.522 147.696 140.277 149.942C138.031 152.188 135.363 153.968 132.427 155.179C129.491 156.391 126.344 157.009 123.168 157C119.991 157.01 116.844 156.391 113.908 155.18C110.971 153.969 108.303 152.189 106.057 149.943C103.811 147.697 102.031 145.029 100.82 142.092C99.609 139.156 98.9904 136.009 99 132.832C98.9907 129.656 99.6094 126.509 100.821 123.573C102.032 120.637 103.812 117.969 106.058 115.723C108.304 113.478 110.972 111.698 113.908 110.487C116.845 109.276 119.992 108.658 123.168 108.668ZM210.168 108.668C213.344 108.658 216.491 109.276 219.427 110.487C222.363 111.698 225.031 113.477 227.277 115.723C229.523 117.969 231.302 120.637 232.513 123.573C233.724 126.509 234.342 129.656 234.332 132.832C234.342 136.008 233.724 139.155 232.513 142.092C231.302 145.028 229.522 147.696 227.277 149.942C225.031 152.188 222.363 153.968 219.427 155.179C216.491 156.391 213.344 157.009 210.168 157C206.991 157.01 203.844 156.391 200.908 155.18C197.971 153.969 195.303 152.189 193.057 149.943C190.811 147.697 189.031 145.029 187.82 142.092C186.609 139.156 185.99 136.009 186 132.832C185.991 129.656 186.609 126.509 187.821 123.573C189.032 120.637 190.812 117.969 193.058 115.723C195.304 113.478 197.972 111.698 200.908 110.487C203.845 109.276 206.992 108.658 210.168 108.668ZM133.013 121.267C132.378 121.266 131.749 121.391 131.163 121.633C130.576 121.876 130.042 122.232 129.593 122.68L118.174 134.088L114.381 130.311C113.473 129.406 112.243 128.899 110.961 128.901C109.679 128.903 108.451 129.414 107.546 130.322C107.098 130.772 106.743 131.305 106.501 131.892C106.259 132.479 106.136 133.108 106.137 133.743C106.138 134.378 106.265 135.006 106.509 135.592C106.753 136.178 107.111 136.711 107.56 137.159L114.763 144.336C115.67 145.239 116.897 145.746 118.177 145.746C119.456 145.745 120.683 145.238 121.589 144.334L136.425 129.519C136.874 129.07 137.23 128.537 137.473 127.951C137.717 127.365 137.842 126.736 137.842 126.101C137.843 125.466 137.718 124.838 137.475 124.251C137.233 123.664 136.877 123.131 136.428 122.682C135.522 121.777 134.294 121.267 133.013 121.267ZM220.013 121.267C219.378 121.266 218.749 121.391 218.163 121.633C217.576 121.876 217.042 122.232 216.593 122.68L205.174 134.088L201.381 130.311C200.473 129.406 199.243 128.899 197.961 128.901C196.679 128.903 195.451 129.414 194.546 130.322C194.098 130.772 193.743 131.305 193.501 131.892C193.259 132.479 193.136 133.108 193.137 133.743C193.138 134.378 193.265 135.006 193.509 135.592C193.753 136.178 194.111 136.711 194.56 137.159L201.763 144.336C202.67 145.239 203.897 145.746 205.177 145.746C206.456 145.745 207.683 145.238 208.589 144.334L223.424 129.519C223.874 129.07 224.23 128.537 224.473 127.951C224.717 127.365 224.842 126.736 224.842 126.101C224.843 125.466 224.718 124.838 224.475 124.251C224.233 123.664 223.877 123.131 223.428 122.682C222.522 121.777 221.294 121.267 220.013 121.267ZM123.168 186C126.344 185.991 129.491 186.609 132.427 187.821C135.363 189.032 138.031 190.812 140.277 193.058C142.522 195.304 144.302 197.972 145.513 200.908C146.724 203.845 147.342 206.992 147.332 210.168C147.342 213.344 146.724 216.491 145.513 219.427C144.302 222.363 142.523 225.031 140.277 227.277C138.031 229.523 135.363 231.302 132.427 232.513C129.491 233.724 126.344 234.342 123.168 234.332C119.992 234.342 116.845 233.724 113.908 232.513C110.972 231.302 108.304 229.522 106.058 227.277C103.812 225.031 102.032 222.363 100.821 219.427C99.6094 216.491 98.9907 213.344 99 210.168C98.9904 206.991 99.609 203.844 100.82 200.908C102.031 197.971 103.811 195.303 106.057 193.057C108.303 190.811 110.971 189.031 113.908 187.82C116.844 186.609 119.991 185.99 123.168 186ZM113.5 202.918C109.525 202.918 106.25 206.193 106.25 210.168C106.25 214.146 109.527 217.418 113.5 217.418C117.473 217.418 120.75 214.146 120.75 210.168C120.75 206.193 117.475 202.918 113.5 202.918ZM132.832 202.918C128.857 202.918 125.582 206.193 125.582 210.168C125.582 214.146 128.859 217.418 132.832 217.418C136.805 217.418 140.082 214.146 140.082 210.168C140.082 206.193 136.807 202.918 132.832 202.918ZM113.5 207.75C114.859 207.75 115.918 208.81 115.918 210.168C115.918 211.533 114.861 212.582 113.5 212.582C112.141 212.582 111.082 211.531 111.082 210.168C111.082 208.809 112.142 207.75 113.5 207.75ZM132.832 207.75C134.191 207.75 135.25 208.81 135.25 210.168C135.25 211.533 134.193 212.582 132.832 212.582C131.473 212.582 130.418 211.531 130.418 210.168C130.418 208.809 131.475 207.75 132.832 207.75Z" fill="#2088FF"/>
<path d="M210.168 176.332C193.161 176.332 179.014 189.007 176.678 205.388C176.518 205.374 176.358 205.367 176.198 205.368L171.304 205.531C170.023 205.574 168.812 206.122 167.936 207.057C167.059 207.992 166.59 209.237 166.631 210.518C166.673 211.799 167.223 213.01 168.158 213.887C169.093 214.763 170.338 215.232 171.619 215.19L176.513 215.033C176.572 215.03 176.63 215.026 176.689 215.022C179.058 231.365 193.186 244 210.168 244C228.797 244 244 228.797 244 210.168C244 191.539 228.797 176.332 210.168 176.332ZM210.168 186C213.344 185.991 216.491 186.609 219.427 187.821C222.363 189.032 225.031 190.812 227.276 193.058C229.522 195.304 231.302 197.972 232.513 200.908C233.723 203.845 234.342 206.992 234.332 210.168C234.342 213.344 233.724 216.491 232.513 219.427C231.302 222.363 229.523 225.031 227.277 227.277C225.031 229.523 222.363 231.302 219.427 232.513C216.49 233.724 213.344 234.342 210.168 234.332C206.991 234.342 203.845 233.724 200.908 232.513C197.972 231.302 195.304 229.522 193.058 227.277C190.812 225.031 189.032 222.363 187.82 219.427C186.609 216.491 185.99 213.344 186 210.168C185.99 206.991 186.609 203.844 187.82 200.908C189.031 197.971 190.811 195.303 193.057 193.057C195.303 190.811 197.971 189.031 200.908 187.82C203.844 186.609 206.991 185.99 210.168 186Z" fill="#79B8FF"/>
</svg>
