<svg width="256" height="256" viewBox="0 0 256 256" fill="none" xmlns="http://www.w3.org/2000/svg">
<path d="M55.582 230.44L3.08198 139.5C-1.02602 132.384 -1.02602 123.618 3.08198 116.502L55.582 25.5615C59.69 18.4455 67.282 14.0615 75.5 14.0615H180.5C188.716 14.0615 196.308 18.4455 200.418 25.5615L252.918 116.502C257.026 123.618 257.026 132.384 252.918 139.5L200.418 230.44C196.31 237.556 188.718 241.938 180.5 241.938H75.5C67.284 241.938 59.69 237.554 55.582 230.44Z" fill="url(#paint0_linear_2772_10075)"/>
<mask id="mask0_2772_10075" style="mask-type:luminance" maskUnits="userSpaceOnUse" x="0" y="14" width="256" height="228">
<path d="M55.582 230.44L3.08198 139.5C-1.02602 132.384 -1.02602 123.618 3.08198 116.502L55.582 25.5615C59.69 18.4455 67.282 14.0615 75.5 14.0615H180.5C188.716 14.0615 196.308 18.4455 200.418 25.5615L252.918 116.502C257.026 123.618 257.026 132.384 252.918 139.5L200.418 230.44C196.31 237.556 188.718 241.938 180.5 241.938H75.5C67.284 241.938 59.692 237.554 55.584 230.44" fill="white"/>
</mask>
<g mask="url(#mask0_2772_10075)">
<path opacity="0.07" d="M248.1 165.72L179.26 96.88L128 74L79.0003 100.62L76.9463 159.3L162.04 244.38L195.34 244.08L248.1 165.72Z" fill="black"/>
</g>
<path d="M178.06 95.9858L130.708 68.6459C129.038 67.6819 126.98 67.6819 125.31 68.6459L77.9578 95.9858C76.2878 96.9498 75.2598 98.7319 75.2598 100.66V155.338C75.2598 157.266 76.2878 159.048 77.9578 160.012L125.31 187.352C126.98 188.316 129.038 188.316 130.708 187.352L178.06 160.012C179.73 159.048 180.758 157.266 180.758 155.338V100.66C180.758 98.7319 179.73 96.9498 178.06 95.9858ZM171.564 150.106L155.044 140.568V115.442L130.648 129.522V157.702L152.406 145.14L168.926 154.678L128.008 178.302L87.0898 154.678L103.61 145.14L125.37 157.702V129.522L100.974 115.442V140.568L84.4538 150.106V102.858L125.372 79.2338V98.3098L103.612 110.872L128.008 124.952L152.404 110.872L130.646 98.3098V79.2338L171.564 102.858V150.106Z" fill="white"/>
<defs>
<linearGradient id="paint0_linear_2772_10075" x1="-2.01893e-05" y1="14.0595" x2="-2.01893e-05" y2="241.58" gradientUnits="userSpaceOnUse">
<stop stop-color="#4387FD"/>
<stop offset="1" stop-color="#4683EA"/>
</linearGradient>
</defs>
</svg>
