<svg width="256" height="256" viewBox="0 0 256 256" fill="none" xmlns="http://www.w3.org/2000/svg">
<rect width="256" height="256" fill="white"/>
<path d="M29.5062 115.579C29.0519 115.579 28.9455 115.356 29.1679 115.008L31.5459 111.963C31.7682 111.625 32.3289 111.403 32.7832 111.403H73.1125C73.5572 111.403 73.6732 111.741 73.4509 112.079L71.5272 115.008C71.3049 115.356 70.7345 115.685 70.3962 115.685L29.5062 115.579ZM12.4542 125.97C11.9999 125.97 11.8839 125.748 12.1159 125.41L14.4842 122.355C14.7065 122.017 15.2769 121.794 15.7312 121.794H67.2352C67.6895 121.794 67.9119 122.133 67.7959 122.471L66.8969 125.178C66.7809 125.632 66.3362 125.854 65.8819 125.854L12.4542 125.97ZM39.7915 136.362C39.3372 136.362 39.2212 136.024 39.4532 135.685L41.0289 132.863C41.2512 132.524 41.7055 132.186 42.1599 132.186H64.7509C65.2052 132.186 65.4275 132.524 65.4275 132.979L65.2052 135.685C65.2052 136.14 64.7509 136.478 64.4125 136.478L39.7915 136.362ZM157.039 113.549C149.924 115.356 145.062 116.71 138.063 118.517C136.362 118.962 136.255 119.078 134.776 117.386C133.094 115.463 131.847 114.225 129.479 113.094C122.355 109.595 115.462 110.61 109.034 114.786C101.349 119.755 97.3952 127.101 97.5112 136.246C97.6175 145.284 103.833 152.737 112.756 153.984C120.441 154.999 126.869 152.293 131.963 146.531C132.978 145.284 133.877 143.931 135.008 142.346H113.21C110.842 142.346 110.271 140.876 111.064 138.962C112.533 135.463 115.24 129.586 116.825 126.647C117.067 126.102 117.464 125.641 117.965 125.32C118.467 124.998 119.052 124.831 119.648 124.839H160.76C160.538 127.894 160.538 130.939 160.084 133.994C158.913 142.035 155.728 149.651 150.823 156.13C142.693 166.86 132.07 173.53 118.633 175.328C107.565 176.798 97.2792 174.652 88.2505 167.885C79.8889 161.553 75.1425 153.192 73.9052 142.8C72.4359 130.485 76.0512 119.416 83.5042 109.701C91.5275 99.2032 102.142 92.5332 115.134 90.1649C125.748 88.2412 135.917 89.4882 145.062 95.6942C151.055 99.6575 155.337 105.071 158.17 111.625C158.846 112.64 158.392 113.21 157.039 113.549ZM194.429 176.015C184.144 175.783 174.767 172.844 166.86 166.068C160.282 160.524 155.946 152.775 154.661 144.269C152.631 131.509 156.13 120.209 163.815 110.156C172.061 99.3095 181.998 93.6642 195.444 91.2959C206.967 89.2659 217.813 90.3872 227.634 97.0572C236.557 103.147 242.096 111.403 243.565 122.239C245.479 137.493 241.081 149.915 230.573 160.538C223.12 168.107 213.966 172.844 203.458 174.99C200.413 175.56 197.368 175.667 194.429 176.015ZM221.303 130.378C221.196 128.909 221.196 127.778 220.974 126.647C218.944 115.463 208.659 109.141 197.929 111.625C187.421 113.993 180.645 120.663 178.16 131.277C176.13 140.093 180.422 149.016 188.552 152.631C194.768 155.338 200.974 154.999 206.967 151.954C215.889 147.314 220.732 140.093 221.303 130.378Z" fill="#00ACD7"/>
</svg>
