<svg width="256" height="256" viewBox="0 0 256 256" fill="none" xmlns="http://www.w3.org/2000/svg">
<rect width="256" height="256" fill="white"/>
<path d="M219.524 42.993C226.421 57.2354 205.46 58.7582 206.535 65.1181C208.506 76.5837 207.162 93.603 205.639 110.354C203.042 138.749 224.271 206.737 180.021 234.057C171.69 239.252 151.894 242.119 132.367 242.567H132.277H132.188C112.66 242.119 90.1769 239.252 81.8464 234.057C37.6858 206.737 58.9152 138.749 56.4071 110.354C54.7947 93.603 53.4511 76.5837 55.5113 65.1181C56.5862 58.7582 35.6256 57.325 42.5229 42.993C48.4349 30.7212 63.0356 41.5598 66.7082 37.708C85.4295 18.2702 108.182 13.0748 126.097 12.627C127.888 12.627 135.95 12.627 135.95 12.627C153.775 13.5227 176.528 18.3598 195.338 37.708C199.011 41.5598 213.522 30.7212 219.524 42.993ZM122.514 117.43C121.707 117.788 120.364 126.567 124.484 127.015C127.261 127.283 134.875 128.179 136.667 127.015C140.16 124.775 139.802 119.401 137.831 118.057C134.517 115.907 123.409 116.982 122.514 117.43ZM99.7615 51.6818C90.5352 50.6069 75.0387 59.2061 72.7098 77.4795C70.2016 96.4694 92.5955 115.28 114.094 96.4694C125.649 86.3474 129.68 55.1752 99.7615 51.6818ZM162.106 51.6818C132.188 55.1752 136.219 86.3474 147.774 96.4694C169.272 115.28 191.666 96.4694 189.158 77.4795C186.918 59.2061 171.422 50.6069 162.106 51.6818Z" fill="#8CC5E7"/>
<path d="M131.023 98.8881C136.666 98.0819 150.192 104.531 149.296 112.145C148.222 121.013 114.452 122.178 112.66 111.608C111.585 105.158 116.691 101.038 131.023 98.8881ZM207.252 170.28C204.475 170.19 202.683 166.517 202.683 164.278C202.683 160.247 203.221 155.5 206.177 153.439C212.268 149.229 217.105 170.369 207.252 170.28ZM54.705 170.28C44.8517 170.369 49.6888 149.229 55.7799 153.439C58.7359 155.5 59.2733 160.247 59.2733 164.278C59.2733 166.517 57.4818 170.19 54.705 170.28ZM188.53 235.222C190.322 237.819 190.412 239.611 187.545 240.955C176.617 245.971 166.853 239.253 170.526 237.371C178.319 233.43 183.156 227.249 188.53 235.222ZM73.4262 236.117C78.8007 228.145 83.6378 234.326 91.4308 238.267C95.1034 240.148 85.3397 246.866 74.4115 241.85C71.5451 240.507 71.6347 238.715 73.4262 236.117Z" fill="#B8937F"/>
<path d="M202.773 45.1426C203.221 43.2615 207.879 42.3658 210.477 45.5905C213.612 49.4422 205.908 54.7272 205.55 52.5774C204.654 46.755 202.236 47.0237 202.773 45.1426ZM59.184 45.1426C59.7215 47.0237 57.3029 46.755 56.4072 52.5774C56.0489 54.7272 48.3454 49.4422 51.4805 45.5905C53.9886 42.3658 58.6466 43.2615 59.184 45.1426ZM164.166 88.7658C158.527 88.7658 153.955 84.1939 153.955 78.5542C153.955 72.9145 158.527 68.3426 164.166 68.3426C169.806 68.3426 174.378 72.9145 174.378 78.5542C174.378 84.1939 169.806 88.7658 164.166 88.7658ZM161.479 77.3897C163.26 77.3897 164.704 75.946 164.704 74.165C164.704 72.3841 163.26 70.9403 161.479 70.9403C159.698 70.9403 158.254 72.3841 158.254 74.165C158.254 75.946 159.698 77.3897 161.479 77.3897ZM121.797 103.187C122.872 99.067 126.634 97.7233 129.68 97.6338C137.473 97.4546 140.429 101.665 140.698 104.979C141.235 110.622 119.379 111.966 121.797 103.187ZM97.791 88.7658C92.1513 88.7658 87.5794 84.1939 87.5794 78.5542C87.5794 72.9145 92.1513 68.3426 97.791 68.3426C103.431 68.3426 108.003 72.9145 108.003 78.5542C108.003 84.1939 103.431 88.7658 97.791 88.7658ZM100.478 77.3897C102.259 77.3897 103.703 75.946 103.703 74.165C103.703 72.3841 102.259 70.9403 100.478 70.9403C98.6973 70.9403 97.2535 72.3841 97.2535 74.165C97.2535 75.946 98.6973 77.3897 100.478 77.3897Z" fill="black"/>
</svg>
