<svg width="256" height="256" viewBox="0 0 256 256" fill="none" xmlns="http://www.w3.org/2000/svg">
<rect width="256" height="256" fill="white"/>
<path d="M166.29 86.148L186.457 65.9813L187.801 57.4897C151.052 24.0735 92.6341 27.8626 59.5062 65.3958C50.3041 75.8204 43.4773 88.817 39.8369 102.238L47.0597 101.22L87.3924 94.5689L90.5063 91.3844C108.447 71.6807 138.782 69.0299 159.497 85.7946L166.29 86.148Z" fill="#EA4335"/>
<path d="M215.186 101.645C210.55 84.5744 201.034 69.2289 187.801 57.4902L159.497 85.7942C171.449 95.56 178.258 110.272 177.966 125.703V130.727C191.878 130.727 203.157 142.005 203.157 155.917C203.157 169.83 191.878 180.825 177.966 180.825H127.514L122.561 186.203V216.417L127.514 221.158H177.966C214.153 221.44 243.716 192.617 243.998 156.43C244.168 134.496 233.354 113.933 215.186 101.645Z" fill="#4285F4"/>
<path d="M77.1322 221.158H127.513V180.825H77.1322C73.5426 180.824 70.0662 180.053 66.8019 178.561L59.6543 180.754L39.3461 200.921L37.5771 207.785C48.966 216.384 62.8615 221.22 77.1322 221.158Z" fill="#34A853"/>
<path d="M77.1325 90.3232C40.945 90.5389 11.7855 120.05 12.0012 156.237C12.1217 176.444 21.5594 195.466 37.5774 207.785L66.8021 178.561C54.1228 172.833 48.4886 157.911 54.217 145.233C59.9445 132.554 74.8668 126.92 87.5444 132.648C93.1314 135.172 97.6056 139.647 100.129 145.233L129.354 116.009C116.92 99.7536 97.5983 90.2498 77.1325 90.3232Z" fill="#FBBC05"/>
</svg>
