<svg width="256" height="256" viewBox="0 0 256 256" fill="none" xmlns="http://www.w3.org/2000/svg">
<g clip-path="url(#clip0_2772_10007)">
<path d="M75.3901 12.5C67.1964 12.6442 59.6926 17.1194 55.6707 24.2595L3.05276 115.496C-1.01759 122.579 -1.01759 131.292 3.05276 138.375L55.6508 230.372C59.6316 237.611 67.1149 242.233 75.3696 242.552H180.586C188.841 242.268 196.338 237.665 200.326 230.432L252.924 138.955C254.973 135.357 255.998 131.351 255.998 127.346C255.998 123.341 254.973 119.335 252.924 115.736L200.326 24.2595C196.301 17.1223 188.799 12.6482 180.606 12.5H75.3901Z" fill="#4285F4"/>
<path d="M236.496 167.527L200.327 230.432C196.339 237.665 188.842 242.268 180.587 242.552H140.511L82.0391 183.557L99.2766 127.974L82.0391 71.7539L99.7441 83.6468L123.55 107.666L112.43 71.7539L195.805 127.761L236.496 167.527Z" fill="black" fill-opacity="0.07"/>
<path d="M82.0391 71.7537L99.7441 83.6472L113.623 128.265L99.991 171.543L82.0391 183.557L99.3815 127.761L82.0391 71.7537ZM127.386 91.5897L135.978 119.381H168.968L127.386 91.5897ZM195.805 127.762L112.43 183.557L129.772 127.762L112.43 71.7534L195.805 127.762Z" fill="white"/>
</g>
<defs>
<clipPath id="clip0_2772_10007">
<rect width="256" height="256" fill="white"/>
</clipPath>
</defs>
</svg>
