<svg width="256" height="256" viewBox="0 0 256 256" fill="none" xmlns="http://www.w3.org/2000/svg">
<mask id="mask0_2928_10339" style="mask-type:luminance" maskUnits="userSpaceOnUse" x="12" y="23" width="232" height="209">
<path d="M241.214 116.887L193.547 33.9853C189.899 27.517 183.1 23.4626 175.676 23.3281H80.323C72.8974 23.459 66.097 27.5144 62.4522 33.9853L14.7667 116.669C11.0778 123.088 11.0778 130.984 14.7667 137.404L62.4341 220.776C66.0415 227.337 72.8238 231.526 80.3049 231.814H175.658C183.138 231.557 189.933 227.386 193.547 220.831L241.214 137.929C244.929 131.407 244.929 123.409 241.214 116.887Z" fill="white"/>
</mask>
<g mask="url(#mask0_2928_10339)">
<path d="M241.214 116.887L193.547 33.9853C189.899 27.517 183.1 23.4626 175.676 23.3281H80.323C72.8974 23.459 66.097 27.5144 62.4522 33.9853L14.7667 116.669C11.0778 123.088 11.0778 130.984 14.7667 137.404L62.4341 220.776C66.0415 227.337 72.8238 231.526 80.3049 231.814H175.658C183.138 231.557 189.933 227.386 193.547 220.831L241.214 137.929C244.929 131.407 244.929 123.409 241.214 116.887Z" fill="#4285F4"/>
</g>
<mask id="mask1_2928_10339" style="mask-type:luminance" maskUnits="userSpaceOnUse" x="12" y="23" width="232" height="209">
<path d="M241.214 116.887L193.547 33.9853C189.899 27.517 183.1 23.4626 175.676 23.3281H80.323C72.8974 23.459 66.097 27.5144 62.4522 33.9853L14.7667 116.669C11.0778 123.088 11.0778 130.984 14.7667 137.404L62.4341 220.776C66.0415 227.337 72.8238 231.526 80.3049 231.814H175.658C183.138 231.557 189.933 227.386 193.547 220.831L241.214 137.929C244.929 131.407 244.929 123.409 241.214 116.887Z" fill="white"/>
</mask>
<g mask="url(#mask1_2928_10339)">
<path opacity="0.07" d="M181.62 100.116L175.048 107.284L176.529 149.876L170.3 158.903L166.689 155.292H170.011V140.523L154.068 124.581L142.018 130.604L102.052 90.5469L82.8051 100.856L80.4219 120.825L87.1745 157.369L96.9603 166.956L92.5007 173.293L150.725 232.886H175.048C182.5 232.631 190.571 227.747 194.171 221.217L233.845 152.339L181.62 100.116Z" fill="black"/>
</g>
<mask id="mask2_2928_10339" style="mask-type:luminance" maskUnits="userSpaceOnUse" x="12" y="23" width="232" height="209">
<path d="M241.214 116.887L193.547 33.9853C189.899 27.517 183.1 23.4626 175.676 23.3281H80.323C72.8974 23.459 66.097 27.5144 62.4522 33.9853L14.7667 116.669C11.0778 123.088 11.0778 130.984 14.7667 137.404L62.4341 220.776C66.0415 227.337 72.8238 231.526 80.3049 231.814H175.658C183.138 231.557 189.933 227.386 193.547 220.831L241.214 137.929C244.929 131.407 244.929 123.409 241.214 116.887Z" fill="white"/>
</mask>
<g mask="url(#mask2_2928_10339)">
<path d="M92.5011 173.293L102.052 163.742L87.7346 149.425V104.865L102.052 90.5472L92.5011 80.9961L73.3809 100.116V154.173L92.5011 173.293Z" fill="white"/>
</g>
<mask id="mask3_2928_10339" style="mask-type:luminance" maskUnits="userSpaceOnUse" x="12" y="23" width="232" height="209">
<path d="M241.214 116.887L193.547 33.9853C189.899 27.517 183.1 23.4626 175.676 23.3281H80.323C72.8974 23.459 66.097 27.5144 62.4522 33.9853L14.7667 116.669C11.0778 123.088 11.0778 130.984 14.7667 137.404L62.4341 220.776C66.0415 227.337 72.8238 231.526 80.3049 231.814H175.658C183.138 231.557 189.933 227.386 193.547 220.831L241.214 137.929C244.929 131.407 244.929 123.409 241.214 116.887Z" fill="white"/>
</mask>
<g mask="url(#mask3_2928_10339)">
<path d="M107.288 133.915C111.028 133.915 114.059 130.884 114.059 127.145C114.059 123.405 111.028 120.374 107.288 120.374C103.549 120.374 100.518 123.405 100.518 127.145C100.518 130.884 103.549 133.915 107.288 133.915Z" fill="white"/>
</g>
<mask id="mask4_2928_10339" style="mask-type:luminance" maskUnits="userSpaceOnUse" x="12" y="23" width="232" height="209">
<path d="M241.214 116.887L193.547 33.9853C189.899 27.517 183.1 23.4626 175.676 23.3281H80.323C72.8974 23.459 66.097 27.5144 62.4522 33.9853L14.7667 116.669C11.0778 123.088 11.0778 130.984 14.7667 137.404L62.4341 220.776C66.0415 227.337 72.8238 231.526 80.3049 231.814H175.658C183.138 231.557 189.933 227.386 193.547 220.831L241.214 137.929C244.929 131.407 244.929 123.409 241.214 116.887Z" fill="white"/>
</mask>
<g mask="url(#mask4_2928_10339)">
<path d="M127.546 133.915C131.285 133.915 134.317 130.884 134.317 127.145C134.317 123.405 131.285 120.374 127.546 120.374C123.807 120.374 120.775 123.405 120.775 127.145C120.775 130.884 123.807 133.915 127.546 133.915Z" fill="white"/>
</g>
<mask id="mask5_2928_10339" style="mask-type:luminance" maskUnits="userSpaceOnUse" x="12" y="23" width="232" height="209">
<path d="M241.214 116.887L193.547 33.9853C189.899 27.517 183.1 23.4626 175.676 23.3281H80.323C72.8974 23.459 66.097 27.5144 62.4522 33.9853L14.7667 116.669C11.0778 123.088 11.0778 130.984 14.7667 137.404L62.4341 220.776C66.0415 227.337 72.8238 231.526 80.3049 231.814H175.658C183.138 231.557 189.933 227.386 193.547 220.831L241.214 137.929C244.929 131.407 244.929 123.409 241.214 116.887Z" fill="white"/>
</mask>
<g mask="url(#mask5_2928_10339)">
<path d="M147.804 133.915C151.543 133.915 154.574 130.884 154.574 127.145C154.574 123.405 151.543 120.374 147.804 120.374C144.065 120.374 141.033 123.405 141.033 127.145C141.033 130.884 144.065 133.915 147.804 133.915Z" fill="white"/>
</g>
<mask id="mask6_2928_10339" style="mask-type:luminance" maskUnits="userSpaceOnUse" x="12" y="23" width="232" height="209">
<path d="M241.214 116.887L193.547 33.9853C189.899 27.517 183.1 23.4626 175.676 23.3281H80.323C72.8974 23.459 66.097 27.5144 62.4522 33.9853L14.7667 116.669C11.0778 123.088 11.0778 130.984 14.7667 137.404L62.4341 220.776C66.0415 227.337 72.8238 231.526 80.3049 231.814H175.658C183.138 231.557 189.933 227.386 193.547 220.831L241.214 137.929C244.929 131.407 244.929 123.409 241.214 116.887Z" fill="white"/>
</mask>
<g mask="url(#mask6_2928_10339)">
<path d="M162.5 80.9961L152.949 90.5472L167.267 104.865V149.425L152.949 163.742L162.5 173.293L181.621 154.173V100.116L162.5 80.9961Z" fill="white"/>
</g>
</svg>
