<svg width="256" height="256" viewBox="0 0 256 256" fill="none" xmlns="http://www.w3.org/2000/svg">
<path d="M98.5337 33.6666C100.309 29.004 102.75 24.7115 106.374 21.2331C120.871 7.09739 144.835 10.6498 154.672 28.412C162.068 41.8816 169.908 55.0552 177.527 68.3768C190.248 90.5055 203.118 112.634 215.692 134.837C226.268 153.413 214.804 176.874 193.798 180.056C180.929 181.981 168.873 176.06 162.216 164.514C151.048 145.05 139.805 125.586 128.637 106.195C128.415 105.751 128.119 105.381 127.823 105.011C126.64 104.049 126.122 102.643 125.382 101.385C120.427 92.6517 115.323 83.9927 110.368 75.3336C107.187 69.709 103.859 64.1583 100.679 58.5336C97.7941 53.501 96.4628 48.0243 96.6107 42.2516C96.8326 39.2913 97.2024 36.3309 98.5337 33.6666Z" fill="#3C8BD9"/>
<path d="M98.5343 33.667C97.8686 36.3313 97.2769 38.9956 97.129 41.808C96.9071 48.0247 98.4603 53.7974 101.567 59.2001C109.703 73.1878 117.839 87.2495 125.901 101.311C126.64 102.569 127.232 103.827 127.972 105.012C123.534 112.709 119.096 120.331 114.584 128.028C108.371 138.76 102.159 149.565 95.8716 160.296C95.5758 160.296 95.5018 160.148 95.4278 159.926C95.3539 159.334 95.5758 158.816 95.7237 158.224C98.7562 147.123 96.2414 137.28 88.6232 128.843C83.9635 123.736 78.0465 120.85 71.2418 119.887C62.3662 118.629 54.5261 120.924 47.4996 126.474C46.2422 127.436 45.4287 128.843 43.9494 129.583C43.6535 129.583 43.5056 129.435 43.4316 129.213C46.9819 123.07 50.4582 116.927 54.0084 110.784C68.6531 85.3252 83.2979 59.8662 98.0166 34.4811C98.1645 34.1851 98.3864 33.963 98.5343 33.667Z" fill="#FABC04"/>
<path d="M43.7277 129.434C45.133 128.176 46.4643 126.844 47.9436 125.66C65.9167 111.45 92.9133 121.737 96.8333 144.236C97.7948 149.639 97.2771 154.819 95.6499 160C95.5759 160.444 95.502 160.814 95.354 161.258C94.6884 162.442 94.0967 163.7 93.357 164.884C86.7743 175.764 77.0851 181.166 64.3634 180.352C49.7926 179.316 38.3283 168.363 36.3313 153.857C35.3698 146.826 36.7751 140.239 40.3993 134.171C41.1389 132.839 42.0265 131.654 42.8401 130.322C43.2099 130.026 43.062 129.434 43.7277 129.434Z" fill="#34A852"/>
<path d="M43.7274 129.434C43.4316 129.73 43.4316 130.248 42.9138 130.322C42.8399 129.804 43.1357 129.508 43.4316 129.138L43.7274 129.434Z" fill="#FABC04"/>
<path d="M95.355 161.258C95.0591 160.74 95.355 160.37 95.6508 160C95.7248 160.074 95.8727 160.222 95.9467 160.296L95.355 161.258Z" fill="#E1C025"/>
<path d="M50.3104 205.22C41.9526 205.22 35 211.955 35 220.244C35 228.533 41.9526 235.193 50.3104 235.193C54.8222 235.193 58.1505 233.713 60.8132 230.975C63.5498 228.237 64.3634 224.462 64.3634 221.428C64.3634 220.466 64.2895 219.577 64.1415 218.837H50.3104V222.908H60.1475C59.8517 225.202 59.112 226.904 57.9286 228.088C56.5233 229.495 54.2305 231.123 50.3104 231.123C44.2454 231.123 39.5118 226.238 39.5118 220.244C39.5118 214.249 44.2454 209.364 50.3104 209.364C53.5648 209.364 56.0056 210.622 57.7067 212.325L60.5913 209.438C58.1505 207.07 54.8961 205.22 50.3104 205.22ZM75.384 215.951C70.1326 215.951 65.7687 220.022 65.7687 225.72C65.7687 231.345 70.0586 235.489 75.384 235.489C80.7093 235.489 84.9992 231.345 84.9992 225.72C84.9992 220.096 80.6354 215.951 75.384 215.951ZM75.384 231.641C72.4994 231.641 69.9846 229.199 69.9846 225.72C69.9846 222.242 72.4994 219.8 75.384 219.8C78.2685 219.8 80.7833 222.168 80.7833 225.72C80.7833 229.199 78.2685 231.641 75.384 231.641ZM96.2416 215.951C90.9163 215.951 86.6264 220.022 86.6264 225.72C86.6264 231.345 90.9163 235.489 96.2416 235.489C101.493 235.489 105.857 231.345 105.857 225.72C105.857 220.096 101.567 215.951 96.2416 215.951ZM96.2416 231.641C93.3571 231.641 90.8423 229.199 90.8423 225.72C90.8423 222.242 93.3571 219.8 96.2416 219.8C99.1262 219.8 101.641 222.168 101.641 225.72C101.641 229.199 99.2002 231.641 96.2416 231.641ZM117.025 215.951C112.218 215.951 107.854 220.17 107.854 225.646C107.854 231.049 112.218 235.267 117.025 235.267C119.318 235.267 121.093 234.231 122.055 233.047H122.203V234.453C122.203 238.154 120.28 240.152 117.099 240.152C114.511 240.152 112.957 238.302 112.292 236.748L108.593 238.302C109.629 240.892 112.44 244 117.099 244C122.055 244 126.197 241.04 126.197 233.935V216.617H122.203V218.171H122.055C121.093 216.987 119.318 215.951 117.025 215.951ZM117.395 231.493C114.511 231.493 112.07 229.051 112.07 225.646C112.07 222.242 114.511 219.725 117.395 219.725C120.28 219.725 122.499 222.242 122.499 225.646C122.499 229.051 120.28 231.493 117.395 231.493ZM129.303 206.404H133.519V234.971H129.303V206.404ZM144.836 215.951C139.806 215.951 135.59 219.874 135.59 225.72C135.59 231.197 139.732 235.489 145.279 235.489C149.791 235.489 152.38 232.751 153.415 231.197L150.087 228.977C148.977 230.605 147.424 231.641 145.279 231.641C143.06 231.641 141.507 230.679 140.546 228.681L153.637 223.278L153.193 222.168C152.38 220.022 149.865 215.951 144.836 215.951ZM139.806 225.424C139.658 221.65 142.765 219.725 144.909 219.725C146.611 219.725 148.09 220.54 148.534 221.798L139.806 225.424Z" fill="#757575"/>
<path d="M161.033 234.527L170.796 208.55H174.568L184.332 234.527H180.633L178.119 227.496H167.246L164.731 234.527H161.033ZM168.356 224.388H177.009L172.793 212.694H172.645L168.356 224.388Z" fill="#757575"/>
<path d="M187.734 232.381C186.107 230.53 185.293 228.31 185.293 225.646C185.293 223.056 186.107 220.835 187.734 218.911C189.435 217.061 191.358 216.173 193.725 216.173C195.056 216.173 196.24 216.469 197.275 216.987C198.384 217.579 199.198 218.245 199.79 219.207H199.938L199.79 216.765V208.55H203.118V234.527H199.938V232.085H199.79C199.198 232.973 198.384 233.713 197.275 234.305C196.166 234.897 194.982 235.119 193.725 235.119C191.358 235.119 189.361 234.231 187.734 232.381ZM198.237 230.308C199.346 229.124 199.864 227.57 199.864 225.646C199.864 223.796 199.346 222.241 198.237 221.057C197.201 219.873 195.87 219.281 194.243 219.281C192.615 219.281 191.284 219.873 190.249 221.057C189.139 222.241 188.621 223.796 188.621 225.646C188.621 227.496 189.139 229.05 190.249 230.234C191.358 231.419 192.689 232.011 194.243 232.011C195.87 232.085 197.201 231.493 198.237 230.308Z" fill="#757575"/>
<path d="M218.503 233.491C217.172 234.527 215.47 235.119 213.399 235.119C211.624 235.119 210.071 234.675 208.666 233.713C207.334 232.751 206.373 231.567 205.781 230.013L208.74 228.754C209.184 229.79 209.775 230.679 210.663 231.271C211.476 231.863 212.438 232.159 213.399 232.159C214.435 232.159 215.323 231.937 216.062 231.493C216.802 231.049 217.098 230.457 217.098 229.865C217.098 228.754 216.21 227.866 214.509 227.348L211.476 226.608C208 225.72 206.299 224.092 206.299 221.575C206.299 219.947 206.965 218.689 208.296 217.653C209.627 216.691 211.329 216.173 213.326 216.173C214.879 216.173 216.284 216.543 217.615 217.283C218.873 218.023 219.76 219.059 220.278 220.317L217.32 221.575C216.95 220.835 216.432 220.243 215.692 219.799C214.953 219.355 214.065 219.133 213.104 219.133C212.216 219.133 211.476 219.355 210.737 219.799C210.071 220.243 209.701 220.761 209.701 221.427C209.701 222.464 210.663 223.204 212.586 223.574L215.249 224.24C218.799 225.128 220.5 226.904 220.5 229.568C220.574 231.123 219.834 232.455 218.503 233.491Z" fill="#757575"/>
</svg>
