<svg width="256" height="256" viewBox="0 0 256 256" fill="none" xmlns="http://www.w3.org/2000/svg">
<path d="M61.8935 221.504L13.9707 138.496C12.1282 135.305 11.1582 131.685 11.1582 128C11.1582 124.315 12.1282 120.695 13.9707 117.503L61.8935 34.4974C63.7362 31.3056 66.3868 28.6551 69.5786 26.8124C72.7705 24.9698 76.3912 23.9998 80.0767 24H175.922C179.607 24.0001 183.228 24.9702 186.419 26.8129C189.611 28.6556 192.261 31.3058 194.104 34.4974L242.026 117.503C243.869 120.695 244.839 124.315 244.839 128.001C244.839 131.686 243.869 135.306 242.026 138.498L194.104 221.502C192.261 224.693 189.611 227.344 186.419 229.186C183.228 231.029 179.607 231.999 175.922 231.999H80.0767C76.3911 232 72.7704 231.03 69.5785 229.187C66.3866 227.344 63.7361 224.696 61.8935 221.504Z" fill="url(#paint0_linear_2928_10457)"/>
<mask id="mask0_2928_10457" style="mask-type:luminance" maskUnits="userSpaceOnUse" x="11" y="24" width="234" height="208">
<path d="M61.8954 221.504L13.9727 138.496C12.1302 135.305 11.1602 131.685 11.1602 128C11.1602 124.315 12.1302 120.695 13.9727 117.503L61.8954 34.4974C63.7379 31.3057 66.3881 28.6553 69.5796 26.8126C72.7712 24.97 76.3916 23.9999 80.0768 24H175.922C179.608 23.9998 183.229 24.9698 186.42 26.8124C189.612 28.6551 192.263 31.3056 194.106 34.4974L242.028 117.503C243.871 120.695 244.841 124.315 244.841 128.001C244.841 131.686 243.871 135.306 242.028 138.498L194.106 221.502C192.263 224.694 189.612 227.344 186.42 229.187C183.229 231.03 179.608 232 175.922 231.999H80.0768C76.3916 231.999 72.7712 231.029 69.5796 229.187C66.3881 227.344 63.7379 224.694 61.8954 221.502V221.504Z" fill="white"/>
</mask>
<g mask="url(#mask0_2928_10457)">
<path opacity="0.07" d="M143 91.5L129.996 81L125 88L112.5 84L109.116 95.7949L98.2755 97.657L96.0263 107.3L84 110.5L88 122.5L82.1351 128.755L82 137L97.5 165.5L167.279 231.757L188.208 231.689L227.554 160.625L160 92.5L143 91.5Z" fill="black"/>
</g>
<g clip-path="url(#clip0_2928_10457)">
<path d="M170.667 176C169.268 175.994 167.927 175.439 166.933 174.453L156.267 163.787C155.393 162.767 154.937 161.454 154.988 160.112C155.04 158.77 155.597 157.496 156.546 156.546C157.496 155.597 158.77 155.04 160.112 154.988C161.454 154.937 162.767 155.393 163.787 156.267L174.453 166.933C175.447 167.933 176.004 169.284 176.004 170.693C176.004 172.102 175.447 173.454 174.453 174.453C173.955 174.948 173.364 175.339 172.714 175.604C172.065 175.87 171.369 176.004 170.667 176Z" fill="white"/>
<path d="M85.3325 176C84.2777 175.996 83.2479 175.678 82.3733 175.089C81.4987 174.499 80.8186 173.663 80.419 172.687C80.0194 171.711 79.9183 170.638 80.1283 169.605C80.3384 168.571 80.8502 167.623 81.5991 166.88L92.2658 156.213C92.7616 155.713 93.3515 155.317 94.0014 155.046C94.6513 154.775 95.3484 154.636 96.0525 154.636C96.7565 154.636 97.4536 154.775 98.1035 155.046C98.7535 155.317 99.3433 155.713 99.8391 156.213C100.832 157.213 101.39 158.564 101.39 159.973C101.39 161.382 100.832 162.734 99.8391 163.733L89.1725 174.4C88.6722 174.91 88.0745 175.315 87.4149 175.59C86.7552 175.865 86.0471 176.004 85.3325 176Z" fill="white"/>
<path d="M93.1727 155.36L86.666 161.867C88.9595 164.596 91.4942 167.112 94.2393 169.387L100.746 162.88L93.1727 155.36Z" fill="white"/>
<path d="M169.226 161.653L163.893 156.32C163.519 155.988 163.107 155.702 162.666 155.467L155.52 162.613C155.755 163.055 156.041 163.466 156.373 163.84L161.706 169.173C164.433 166.897 166.95 164.38 169.226 161.653Z" fill="white"/>
<path d="M128 176C118.507 176 109.226 173.185 101.333 167.911C93.4391 162.636 87.2868 155.14 83.6538 146.369C80.0208 137.598 79.0702 127.947 80.9223 118.636C82.7744 109.325 87.346 100.772 94.0589 94.0589C100.772 87.346 109.325 82.7744 118.636 80.9223C127.947 79.0702 137.598 80.0208 146.369 83.6538C155.14 87.2868 162.636 93.4391 167.911 101.333C173.185 109.226 176 118.507 176 128C176 140.73 170.943 152.939 161.941 161.941C152.939 170.943 140.73 176 128 176ZM128 165.333C135.384 165.333 142.602 163.144 148.741 159.042C154.881 154.939 159.666 149.109 162.492 142.287C165.317 135.465 166.057 127.959 164.616 120.717C163.175 113.475 159.62 106.823 154.399 101.601C149.178 96.3802 142.525 92.8246 135.283 91.384C128.041 89.9435 120.535 90.6828 113.713 93.5085C106.891 96.3342 101.061 101.119 96.9585 107.259C92.8563 113.398 90.6667 120.616 90.6667 128C90.6667 137.901 94.6 147.397 101.601 154.399C108.603 161.4 118.099 165.333 128 165.333Z" fill="white"/>
<path d="M128 154.667C135.073 154.667 141.855 151.857 146.856 146.856C151.857 141.855 154.667 135.073 154.667 128C154.667 120.928 151.857 114.145 146.856 109.144C141.855 104.143 135.073 101.333 128 101.333V128L106.24 143.52C108.716 146.979 111.982 149.795 115.768 151.734C119.553 153.673 123.747 154.679 128 154.667Z" fill="white"/>
<path d="M85.3331 96.3735C84.2738 96.3797 83.2366 96.0702 82.3538 95.4846C81.4711 94.899 80.7827 94.0638 80.3765 93.0854C79.9702 92.1071 79.8646 91.0299 80.0729 89.9912C80.2813 88.9526 80.7943 87.9995 81.5464 87.2535L92.2131 76.5869C92.7089 76.087 93.2988 75.6902 93.9487 75.4194C94.5986 75.1487 95.2957 75.0093 95.9998 75.0093C96.7038 75.0093 97.4009 75.1487 98.0508 75.4194C98.7008 75.6902 99.2906 76.087 99.7864 76.5869C100.78 77.5861 101.337 78.9379 101.337 80.3469C101.337 81.7559 100.78 83.1076 99.7864 84.1069L89.1198 94.7735C88.6258 95.2775 88.0368 95.6784 87.3868 95.953C86.7368 96.2277 86.0387 96.3706 85.3331 96.3735Z" fill="white"/>
<path d="M170.666 96.3735C169.961 96.3706 169.263 96.2277 168.613 95.953C167.963 95.6784 167.374 95.2775 166.88 94.7735L156.213 84.1069C155.22 83.1076 154.662 81.7559 154.662 80.3469C154.662 78.9379 155.22 77.5861 156.213 76.5869C156.709 76.087 157.299 75.6902 157.949 75.4194C158.599 75.1487 159.296 75.0093 160 75.0093C160.704 75.0093 161.401 75.1487 162.051 75.4194C162.701 75.6902 163.291 76.087 163.786 76.5869L174.453 87.2535C175.205 87.9995 175.718 88.9526 175.927 89.9912C176.135 91.0299 176.029 92.1071 175.623 93.0854C175.217 94.0638 174.528 94.899 173.646 95.4846C172.763 96.0702 171.726 96.3797 170.666 96.3735Z" fill="white"/>
</g>
<defs>
<linearGradient id="paint0_linear_2928_10457" x1="127.999" y1="24.0018" x2="127.999" y2="231.676" gradientUnits="userSpaceOnUse">
<stop stop-color="#4387FD"/>
<stop offset="1" stop-color="#4683EA"/>
</linearGradient>
<clipPath id="clip0_2928_10457">
<rect width="128" height="128" fill="white" transform="translate(64 64)"/>
</clipPath>
</defs>
</svg>
