<svg width="256" height="256" viewBox="0 0 256 256" fill="none" xmlns="http://www.w3.org/2000/svg">
<rect width="256" height="256" fill="white"/>
<path d="M234.269 114.682C233.887 110.797 233.25 106.338 231.977 101.369C230.703 96.4646 228.793 91.0502 225.991 85.4447C223.189 79.8393 219.56 74.0427 214.848 68.3735C213.001 66.1441 210.964 63.9783 208.799 61.8763C212.046 48.9454 204.851 37.7345 204.851 37.7345C192.434 36.9701 184.539 41.6201 181.61 43.7221C181.1 43.531 180.654 43.2762 180.145 43.0852C178.044 42.2571 175.879 41.429 173.586 40.7283C171.358 40.0276 169.066 39.3906 166.71 38.8173C164.354 38.2441 161.998 37.7982 159.578 37.416C159.132 37.3523 158.75 37.2886 158.304 37.2249C152.892 19.8988 137.355 12.6372 137.355 12.6372C119.972 23.6571 116.724 39.0721 116.724 39.0721C116.724 39.0721 116.661 39.3906 116.533 39.9639C115.578 40.2187 114.623 40.5372 113.668 40.792C112.331 41.1742 110.994 41.6838 109.72 42.1934C108.383 42.703 107.11 43.2126 105.772 43.7858C103.162 44.9324 100.551 46.2064 98.004 47.6078C95.5207 49.0091 93.101 50.5379 90.745 52.1304C90.4266 52.003 90.1083 51.8756 90.1083 51.8756C66.039 42.703 44.7078 53.7228 44.7078 53.7228C42.7339 79.3297 54.3228 95.4454 56.6151 98.3756C56.042 99.968 55.5326 101.561 55.0232 103.153C53.2403 108.95 51.9031 114.874 51.0754 121.052C50.948 121.944 50.8207 122.836 50.757 123.728C28.4707 134.747 21.9121 157.233 21.9121 157.233C40.4416 178.572 62.0912 179.91 62.0912 179.91L62.1548 179.846C64.8929 184.751 68.0766 189.401 71.6424 193.796C73.1707 195.643 74.6989 197.363 76.3544 199.083C69.6048 218.447 77.3095 234.5 77.3095 234.5C97.9403 235.264 111.503 225.454 114.369 223.225C116.406 223.926 118.507 224.563 120.609 225.072C126.976 226.728 133.471 227.684 139.966 227.939C141.558 228.002 143.213 228.066 144.805 228.002H145.569H146.079H147.098L148.116 227.939V228.002C157.859 241.889 174.924 243.863 174.924 243.863C187.086 231.06 187.786 218.32 187.786 215.581C187.786 215.581 187.786 215.517 187.786 215.39C187.786 215.135 187.786 215.008 187.786 215.008C187.786 214.817 187.786 214.626 187.786 214.434C190.333 212.651 192.753 210.74 195.045 208.638C199.884 204.243 204.151 199.21 207.716 193.796C208.035 193.287 208.353 192.777 208.671 192.267C222.425 193.032 232.168 183.732 232.168 183.732C229.875 169.4 221.725 162.393 220.006 161.055C220.006 161.055 219.942 160.991 219.815 160.928C219.687 160.864 219.687 160.8 219.687 160.8C219.624 160.737 219.496 160.673 219.369 160.609C219.433 159.717 219.496 158.889 219.56 157.997C219.687 156.469 219.687 154.876 219.687 153.347V152.201V151.628V151.309C219.687 150.927 219.687 151.054 219.687 150.927L219.624 149.971L219.56 148.697C219.56 148.252 219.496 147.869 219.433 147.487C219.369 147.105 219.369 146.659 219.305 146.277L219.178 145.067L218.987 143.856C218.732 142.264 218.477 140.735 218.095 139.143C216.631 132.964 214.211 127.104 211.091 121.817C207.907 116.53 203.96 111.88 199.439 107.93C194.981 103.981 189.951 100.796 184.73 98.4393C179.445 96.0824 173.969 94.5536 168.492 93.853C165.754 93.4708 163.016 93.3434 160.278 93.4071H159.26H159.005C158.941 93.4071 158.623 93.4071 158.686 93.4071H158.241L157.222 93.4708C156.84 93.4708 156.458 93.5345 156.139 93.5345C154.739 93.6619 153.338 93.853 152.001 94.1077C146.525 95.1269 141.367 97.1016 136.846 99.8406C132.325 102.58 128.377 105.956 125.193 109.778C122.01 113.6 119.526 117.867 117.807 122.263C116.088 126.658 115.133 131.244 114.878 135.639C114.814 136.722 114.814 137.869 114.814 138.952C114.814 139.206 114.814 139.525 114.814 139.78L114.878 140.671C114.942 141.181 114.942 141.754 115.005 142.264C115.196 144.493 115.642 146.659 116.215 148.697C117.425 152.838 119.335 156.596 121.691 159.781C124.047 162.966 126.913 165.578 129.905 167.68C132.898 169.718 136.145 171.183 139.329 172.139C142.513 173.094 145.697 173.476 148.689 173.476C149.072 173.476 149.454 173.476 149.772 173.476C149.963 173.476 150.154 173.476 150.345 173.476C150.536 173.476 150.727 173.476 150.918 173.413C151.236 173.413 151.555 173.349 151.873 173.349C151.937 173.349 152.064 173.349 152.128 173.285L152.446 173.221C152.637 173.221 152.828 173.158 153.019 173.158C153.401 173.094 153.72 173.03 154.102 172.967C154.484 172.903 154.802 172.839 155.121 172.712C155.821 172.584 156.458 172.33 157.095 172.139C158.368 171.693 159.642 171.183 160.724 170.61C161.87 170.037 162.889 169.336 163.908 168.699C164.163 168.508 164.481 168.317 164.736 168.062C165.754 167.234 165.945 165.705 165.118 164.686C164.417 163.794 163.144 163.539 162.125 164.113C161.87 164.24 161.616 164.367 161.361 164.495C160.469 164.941 159.578 165.323 158.623 165.641C157.668 165.96 156.649 166.215 155.63 166.406C155.121 166.469 154.611 166.533 154.038 166.597C153.783 166.597 153.529 166.661 153.21 166.661C152.956 166.661 152.637 166.661 152.446 166.661C152.192 166.661 151.937 166.661 151.682 166.661C151.364 166.661 151.045 166.66 150.727 166.597C150.727 166.597 150.536 166.597 150.663 166.597H150.536H150.345C150.218 166.597 150.027 166.597 149.899 166.533C149.581 166.469 149.326 166.469 149.008 166.406C146.652 166.087 144.296 165.387 142.067 164.367C139.775 163.348 137.61 161.947 135.636 160.163C133.662 158.38 131.943 156.278 130.606 153.857C129.269 151.437 128.313 148.761 127.868 145.958C127.677 144.557 127.549 143.092 127.613 141.691C127.613 141.308 127.677 140.926 127.677 140.544C127.677 140.671 127.677 140.48 127.677 140.48V140.353V140.034C127.677 139.843 127.74 139.652 127.74 139.461C127.804 138.697 127.931 137.932 128.059 137.168C129.141 131.053 132.198 125.065 136.91 120.543C138.119 119.396 139.393 118.377 140.73 117.421C142.067 116.466 143.532 115.638 145.06 114.937C146.588 114.237 148.116 113.663 149.772 113.217C151.364 112.771 153.019 112.517 154.739 112.326C155.566 112.262 156.394 112.198 157.286 112.198C157.54 112.198 157.668 112.198 157.859 112.198H158.559H159.005C159.196 112.198 159.005 112.198 159.069 112.198H159.26L159.96 112.262C161.807 112.389 163.589 112.644 165.372 113.09C168.938 113.854 172.44 115.192 175.688 116.976C182.183 120.606 187.722 126.212 191.097 132.964C192.816 136.34 194.026 139.971 194.599 143.729C194.727 144.684 194.854 145.64 194.918 146.595L194.981 147.296L195.045 147.997C195.045 148.252 195.045 148.506 195.045 148.697C195.045 148.952 195.045 149.207 195.045 149.398V150.035V150.736C195.045 151.182 194.981 151.946 194.981 152.392C194.918 153.411 194.79 154.494 194.663 155.513C194.536 156.532 194.345 157.552 194.154 158.571C193.963 159.59 193.708 160.609 193.453 161.565C192.944 163.539 192.307 165.514 191.543 167.489C190.015 171.311 187.977 175.005 185.557 178.381C180.654 185.133 173.969 190.611 166.327 194.115C162.507 195.834 158.495 197.108 154.357 197.745C152.319 198.128 150.218 198.319 148.116 198.382H147.734H147.416H146.716H145.697H145.187C145.442 198.382 145.124 198.382 145.124 198.382H144.933C143.786 198.382 142.704 198.319 141.558 198.191C137.101 197.873 132.707 197.045 128.377 195.834C124.111 194.624 119.972 192.904 116.024 190.866C108.192 186.662 101.124 180.929 95.648 173.986C92.91 170.546 90.4903 166.788 88.5164 162.902C86.5424 159.017 84.9506 154.876 83.8044 150.736C82.6583 146.532 81.9578 142.264 81.6395 137.932L81.5758 137.104V136.913V136.722V136.34V135.639V135.448V135.193V134.684V133.665V133.474C81.5758 133.474 81.5758 133.537 81.5758 133.41V133.028C81.5758 132.518 81.5758 131.945 81.5758 131.435C81.6395 129.333 81.8305 127.104 82.0852 124.938C82.3399 122.772 82.7219 120.543 83.1677 118.377C83.6134 116.211 84.1228 114.045 84.7595 111.88C85.9694 107.612 87.4976 103.471 89.2805 99.5858C92.91 91.8146 97.6219 84.8715 103.289 79.3297C104.69 77.9283 106.154 76.6543 107.683 75.3804C109.211 74.1701 110.803 73.0235 112.458 71.9406C114.05 70.8578 115.769 69.9023 117.489 69.0105C118.316 68.5646 119.208 68.1187 120.099 67.7365C120.545 67.5454 120.991 67.3543 121.436 67.1632C121.882 66.9721 122.328 66.781 122.774 66.5899C124.557 65.8256 126.403 65.1886 128.313 64.6153C128.759 64.4879 129.269 64.3605 129.714 64.1694C130.16 64.042 130.669 63.9146 131.115 63.7872C132.07 63.5324 133.025 63.2776 133.98 63.0865C134.426 62.9591 134.936 62.8954 135.445 62.768C135.954 62.6406 136.4 62.5769 136.91 62.4495C137.419 62.3858 137.865 62.2584 138.374 62.1947L139.075 62.0673L139.839 61.9399C140.348 61.8763 140.794 61.8125 141.303 61.7489C141.876 61.6852 142.386 61.6215 142.959 61.5578C143.404 61.4941 144.169 61.4304 144.614 61.3667C144.933 61.303 145.315 61.303 145.633 61.2393L146.333 61.1756L146.652 61.1119H147.034C147.607 61.0482 148.116 61.0482 148.689 60.9845L149.517 60.9208C149.517 60.9208 149.836 60.9208 149.581 60.9208H149.772H150.154C150.6 60.9208 151.109 60.8571 151.555 60.8571C153.401 60.7934 155.312 60.7934 157.158 60.8571C160.851 60.9845 164.481 61.4304 167.983 62.0673C175.051 63.405 181.673 65.6345 187.722 68.6283C193.771 71.5584 199.12 75.1893 203.832 79.1386C204.151 79.3934 204.405 79.6482 204.724 79.903C204.978 80.1578 205.297 80.4126 205.551 80.6674C206.124 81.1769 206.634 81.6865 207.207 82.1961C207.78 82.7057 208.289 83.2153 208.799 83.7249C209.308 84.2345 209.818 84.7441 210.327 85.3173C212.301 87.4194 214.148 89.5215 215.803 91.6872C219.114 95.955 221.789 100.287 223.89 104.363C224.017 104.618 224.145 104.873 224.272 105.128C224.399 105.382 224.527 105.637 224.654 105.892C224.909 106.402 225.163 106.911 225.354 107.421C225.609 107.93 225.8 108.376 226.055 108.886C226.246 109.395 226.501 109.841 226.692 110.351C227.456 112.262 228.22 114.109 228.793 115.829C229.748 118.632 230.448 121.116 231.021 123.282C231.213 124.174 232.04 124.747 232.932 124.619C233.887 124.556 234.587 123.791 234.587 122.836C234.651 120.543 234.587 117.804 234.269 114.682Z" fill="url(#paint0_linear_2657_7776)"/>
<defs>
<linearGradient id="paint0_linear_2657_7776" x1="128.25" y1="81.7502" x2="128.25" y2="242.175" gradientUnits="userSpaceOnUse">
<stop stop-color="#F05A28"/>
<stop offset="1" stop-color="#FBCA0A"/>
</linearGradient>
</defs>
</svg>
