<svg width="256" height="256" viewBox="0 0 256 256" fill="none" xmlns="http://www.w3.org/2000/svg">
<rect width="256" height="256" fill="white"/>
<path d="M35.1718 183.901L43.6885 188.818L138.568 24.4876L130.051 19.5704L35.1718 183.901Z" fill="#E535AB"/>
<path d="M222.979 170.773H33.2202V180.608H222.979V170.773Z" fill="#E535AB"/>
<path d="M36.9764 176.298L131.891 231.099L136.808 222.582L41.8936 167.781L36.9764 176.298Z" fill="#E535AB"/>
<path d="M119.429 33.4738L214.343 88.2744L219.261 79.7577L124.346 24.9571L119.429 33.4738Z" fill="#E535AB"/>
<path d="M37.0007 79.7206L41.918 88.2373L136.833 33.4366L131.915 24.92L37.0007 79.7206Z" fill="#E535AB"/>
<path d="M117.713 24.4905L212.592 188.821L221.108 183.904L126.229 19.5733L117.713 24.4905Z" fill="#E535AB"/>
<path d="M50.5801 73.1992H40.7456V182.801H50.5801V73.1992Z" fill="#E535AB"/>
<path d="M215.515 73.1992H205.681V182.801H215.515V73.1992Z" fill="#E535AB"/>
<path d="M125.921 219.497L130.216 226.937L212.766 179.275L208.471 171.836L125.921 219.497Z" fill="#E535AB"/>
<path d="M228.548 185.999C222.861 195.892 210.183 199.269 200.289 193.582C190.395 187.895 187.018 175.216 192.706 165.323C198.393 155.429 211.071 152.052 220.965 157.739C230.918 163.486 234.295 176.105 228.548 185.999Z" fill="#E535AB"/>
<path d="M63.4945 90.6754C57.8071 100.569 45.1289 103.946 35.2351 98.2587C25.3414 92.5713 21.9645 79.893 27.6519 69.9993C33.3393 60.1056 46.0175 56.7287 55.9113 62.4161C65.805 68.1627 69.1819 80.7817 63.4945 90.6754Z" fill="#E535AB"/>
<path d="M27.7115 185.999C22.0241 176.105 25.401 163.486 35.2947 157.739C45.1885 152.052 57.8074 155.429 63.5541 165.323C69.2415 175.216 65.8646 187.835 55.9709 193.582C46.0179 199.269 33.3989 195.892 27.7115 185.999Z" fill="#E535AB"/>
<path d="M192.765 90.6754C187.078 80.7817 190.455 68.1627 200.348 62.4161C210.242 56.7287 222.861 60.1056 228.608 69.9993C234.295 79.893 230.918 92.512 221.025 98.2587C211.131 103.946 198.453 100.569 192.765 90.6754Z" fill="#E535AB"/>
<path d="M128.129 244C116.695 244 107.453 234.758 107.453 223.324C107.453 211.89 116.695 202.647 128.129 202.647C139.563 202.647 148.805 211.89 148.805 223.324C148.805 234.698 139.563 244 128.129 244Z" fill="#E535AB"/>
<path d="M128.129 53.3523C116.695 53.3523 107.453 44.1102 107.453 32.6761C107.453 21.2421 116.695 12 128.129 12C139.563 12 148.805 21.2421 148.805 32.6761C148.805 44.1102 139.563 53.3523 128.129 53.3523Z" fill="#E535AB"/>
</svg>
