<svg width="256" height="256" viewBox="0 0 256 256" fill="none" xmlns="http://www.w3.org/2000/svg">
<rect width="256" height="256" rx="53" fill="#244B5A"/>
<path d="M37.6821 162.286C39.4045 164.572 41.643 166.42 44.2158 167.682C46.9983 169.056 50.0686 169.751 53.1735 169.709C55.6839 169.775 58.1829 169.35 60.5296 168.458C62.4065 167.723 64.082 166.554 65.4191 165.049C66.6738 163.582 67.5898 161.858 68.1022 159.999C68.6608 157.99 68.9374 155.913 68.924 153.828V146.578H68.7514C67.1242 149.15 64.7771 151.19 62.0001 152.447C59.3523 153.597 56.4936 154.185 53.6057 154.173C50.776 154.195 47.9691 153.667 45.3412 152.62C42.853 151.635 40.5764 150.184 38.6338 148.347C36.7062 146.501 35.175 144.284 34.1333 141.83C33.0249 139.239 32.4651 136.447 32.4891 133.63C32.4652 130.821 32.9946 128.035 34.0473 125.43C35.0424 122.965 36.4957 120.71 38.3308 118.784C40.1656 116.874 42.3751 115.361 44.8218 114.339C47.4398 113.253 50.2518 112.71 53.0869 112.742C54.3779 112.75 55.6659 112.865 56.9375 113.087C58.3359 113.331 59.7011 113.736 61.0052 114.296C64.1013 115.634 66.7776 117.781 68.7514 120.511H68.924V113.778H74.6365V153.828C74.617 156.181 74.3412 158.525 73.814 160.819C73.2626 163.299 72.1693 165.627 70.6121 167.638C68.8403 169.856 66.573 171.629 63.9913 172.818C61.1637 174.198 57.471 174.888 52.9132 174.888C49.2108 174.951 45.533 174.276 42.0954 172.903C38.8066 171.498 35.8564 169.409 33.4419 166.776L37.6821 162.286ZM38.7204 133.458C38.7061 135.515 39.1034 137.554 39.8891 139.456C40.6381 141.282 41.724 142.95 43.0904 144.376C44.4488 145.789 46.0642 146.932 47.8506 147.743C49.7115 148.586 51.7349 149.013 53.7789 148.994C57.8268 149.009 61.7275 147.48 64.6832 144.722C66.1349 143.356 67.2719 141.692 68.0156 139.844C68.8172 137.814 69.1857 135.639 69.0977 133.458C69.1122 131.412 68.7604 129.381 68.0589 127.459C67.3922 125.632 66.3617 123.958 65.0295 122.539C63.6602 121.1 62.0112 119.955 60.1833 119.173C58.1593 118.315 55.9779 117.888 53.7789 117.921C51.7349 117.902 49.7115 118.329 47.8506 119.173C46.0648 119.985 44.4496 121.127 43.0904 122.539C41.7244 123.965 40.6384 125.634 39.8885 127.459C39.1032 129.361 38.706 131.401 38.7204 133.458ZM97.9156 154.173H91.6849V93.0617H110.551C116.782 93.0617 121.701 94.414 125.307 97.1185C128.912 99.8239 130.716 103.91 130.716 109.375C130.826 113.343 129.383 117.197 126.692 120.121C124.009 123.028 120.129 124.711 115.052 125.17L132.707 154.173H125.09L108.302 125.775H97.9162L97.9156 154.173ZM97.9156 120.079H108.994C111.374 120.129 113.749 119.838 116.047 119.215C117.727 118.767 119.301 117.99 120.677 116.928C121.787 116.038 122.651 114.879 123.187 113.562C123.713 112.229 123.978 110.808 123.966 109.375C123.972 107.972 123.707 106.58 123.187 105.276C122.645 103.951 121.783 102.779 120.677 101.866C119.315 100.784 117.736 100.004 116.047 99.5787C113.744 98.9874 111.371 98.7116 108.994 98.759H97.9156V120.079ZM143.437 93.0617H161.266C167.496 93.0617 172.415 94.4142 176.021 97.1191C179.626 99.8245 181.429 103.91 181.43 109.376C181.43 114.843 179.627 118.943 176.021 121.675C172.415 124.409 167.496 125.776 161.266 125.775H149.669V154.173H143.437V93.0617ZM149.669 120.079H159.709C162.089 120.129 164.464 119.838 166.762 119.216C168.442 118.768 170.016 117.99 171.392 116.929C172.502 116.038 173.366 114.88 173.901 113.563C174.428 112.23 174.693 110.809 174.681 109.376C174.687 107.972 174.423 106.581 173.901 105.277C173.359 103.951 172.497 102.78 171.392 101.867C170.029 100.784 168.451 100.005 166.762 99.5793C164.459 98.988 162.086 98.7123 159.709 98.7596H149.669L149.669 120.079ZM244 144.506C242.903 146.126 241.61 147.605 240.15 148.908C238.569 150.325 236.808 151.529 234.913 152.49C232.891 153.52 230.757 154.316 228.553 154.864C226.189 155.449 223.761 155.739 221.325 155.727C216.981 155.767 212.671 154.946 208.648 153.311C200.974 150.218 194.896 144.14 191.814 136.479C190.166 132.393 189.342 128.022 189.392 123.618C189.342 119.213 190.166 114.842 191.814 110.756C194.896 103.095 200.974 97.0178 208.648 93.9257C212.671 92.2898 216.981 91.4682 221.325 91.5088C225.242 91.5297 229.118 92.291 232.75 93.7524C236.623 95.2984 240.003 97.8642 242.529 101.176L237.077 105.233C236.345 104.145 235.472 103.158 234.48 102.298C233.335 101.287 232.071 100.417 230.717 99.7088C229.269 98.9485 227.746 98.341 226.172 97.8962C224.597 97.4416 222.965 97.2091 221.325 97.2055C217.69 97.146 214.086 97.8826 210.767 99.3634C207.757 100.726 205.061 102.695 202.849 105.146C200.66 107.604 198.97 110.462 197.872 113.562C195.565 120.068 195.565 127.167 197.872 133.673C198.97 136.772 200.66 139.631 202.849 142.089C205.06 144.541 207.756 146.51 210.767 147.872C214.086 149.353 217.69 150.09 221.325 150.03C222.936 150.031 224.544 149.886 226.129 149.598C227.741 149.303 229.311 148.81 230.803 148.131C232.375 147.412 233.833 146.467 235.13 145.325C236.587 144.027 237.854 142.531 238.894 140.881L244 144.506Z" fill="white"/>
<path d="M28.1367 113.07L11.9992 97.0948L28.0172 81.0002L44.1547 96.9756L28.1367 113.07Z" fill="url(#paint0_linear_2661_8355)"/>
<path d="M72.0488 106.251L62.5833 96.8805L71.9787 87.4402L81.4442 96.8106L72.0488 106.251Z" fill="url(#paint1_linear_2661_8355)"/>
<path d="M28.7255 87.3392L19.0254 97.0861L28.7977 106.761L37.0652 106.73L28.3955 98.1528L71.2054 97.9945L67.4534 101.762L71.5872 101.747L76.4375 96.8733L71.5511 92.0364L67.4173 92.0514L71.1976 95.7916L28.3877 95.9499L36.9925 87.3086L28.7255 87.3392Z" fill="white"/>
<defs>
<linearGradient id="paint0_linear_2661_8355" x1="-1585.61" y1="-1484.48" x2="1629.93" y2="-1496.46" gradientUnits="userSpaceOnUse">
<stop stop-color="#72C9C9"/>
<stop offset="1" stop-color="#02B0AD"/>
</linearGradient>
<linearGradient id="paint1_linear_2661_8355" x1="-874.5" y1="-830.794" x2="1011.59" y2="-837.824" gradientUnits="userSpaceOnUse">
<stop stop-color="#03B6B4"/>
<stop offset="1" stop-color="#74CBCA"/>
</linearGradient>
</defs>
</svg>
