<svg width="256" height="256" viewBox="0 0 256 256" fill="none" xmlns="http://www.w3.org/2000/svg">
<rect width="256" height="256" fill="white"/>
<path d="M37.6821 162.287C39.4045 164.572 41.643 166.421 44.2158 167.682C46.9983 169.057 50.0686 169.752 53.1735 169.71C55.6839 169.776 58.1829 169.35 60.5296 168.459C62.4065 167.723 64.082 166.555 65.4191 165.049C66.6738 163.582 67.5898 161.859 68.1022 159.999C68.6608 157.99 68.9374 155.913 68.924 153.828V146.578H68.7514C67.1242 149.15 64.7771 151.191 62.0001 152.448C59.3523 153.597 56.4936 154.185 53.6057 154.174C50.776 154.195 47.9691 153.667 45.3412 152.62C42.853 151.635 40.5764 150.185 38.6338 148.348C36.7062 146.502 35.175 144.284 34.1333 141.83C33.0249 139.239 32.4651 136.448 32.4891 133.631C32.4652 130.822 32.9946 128.036 34.0473 125.431C35.0424 122.966 36.4957 120.711 38.3308 118.785C40.1656 116.874 42.3751 115.361 44.8218 114.339C47.4398 113.254 50.2518 112.71 53.0869 112.743C54.3779 112.75 55.6659 112.865 56.9375 113.087C58.3359 113.331 59.7011 113.737 61.0052 114.296C64.1013 115.634 66.7776 117.782 68.7514 120.512H68.924V113.778H74.6365V153.828C74.617 156.182 74.3412 158.526 73.814 160.82C73.2626 163.3 72.1693 165.628 70.6121 167.638C68.8403 169.856 66.573 171.63 63.9913 172.818C61.1637 174.198 57.471 174.889 52.9132 174.889C49.2108 174.951 45.533 174.277 42.0954 172.904C38.8066 171.499 35.8564 169.41 33.4419 166.776L37.6821 162.287ZM38.7204 133.459C38.7061 135.516 39.1034 137.555 39.8891 139.457C40.6381 141.282 41.724 142.951 43.0904 144.376C44.4488 145.789 46.0642 146.932 47.8506 147.743C49.7115 148.587 51.7349 149.014 53.7789 148.995C57.8268 149.009 61.7275 147.481 64.6832 144.722C66.1349 143.356 67.2719 141.692 68.0156 139.845C68.8172 137.814 69.1857 135.639 69.0977 133.459C69.1122 131.413 68.7604 129.381 68.0589 127.459C67.3922 125.632 66.3617 123.959 65.0295 122.539C63.6602 121.101 62.0112 119.955 60.1833 119.173C58.1593 118.315 55.9779 117.889 53.7789 117.921C51.7349 117.903 49.7115 118.33 47.8506 119.173C46.0648 119.985 44.4496 121.127 43.0904 122.539C41.7244 123.965 40.6384 125.634 39.8885 127.459C39.1032 129.362 38.706 131.401 38.7204 133.459ZM97.9156 154.174H91.6849V93.0622H110.551C116.782 93.0622 121.701 94.4145 125.307 97.119C128.912 99.8244 130.716 103.91 130.716 109.376C130.826 113.343 129.383 117.198 126.692 120.122C124.009 123.028 120.129 124.711 115.052 125.171L132.707 154.174H125.09L108.302 125.776H97.9162L97.9156 154.174ZM97.9156 120.079H108.994C111.374 120.129 113.749 119.838 116.047 119.216C117.727 118.768 119.301 117.99 120.677 116.929C121.787 116.038 122.651 114.88 123.187 113.563C123.713 112.23 123.978 110.808 123.966 109.376C123.972 107.972 123.707 106.58 123.187 105.276C122.645 103.951 121.783 102.78 120.677 101.867C119.315 100.784 117.736 100.004 116.047 99.5792C113.744 98.9879 111.371 98.7121 108.994 98.7595H97.9156V120.079ZM143.437 93.0622H161.266C167.496 93.0622 172.415 94.4147 176.021 97.1196C179.626 99.825 181.429 103.911 181.43 109.376C181.43 114.844 179.627 118.944 176.021 121.676C172.415 124.41 167.496 125.776 161.266 125.776H149.669V154.174H143.437V93.0622ZM149.669 120.08H159.709C162.089 120.13 164.464 119.839 166.762 119.216C168.442 118.768 170.016 117.991 171.392 116.93C172.502 116.039 173.366 114.88 173.901 113.563C174.428 112.231 174.693 110.809 174.681 109.376C174.687 107.973 174.423 106.581 173.901 105.277C173.359 103.952 172.497 102.78 171.392 101.867C170.029 100.785 168.451 100.005 166.762 99.5798C164.459 98.9885 162.086 98.7128 159.709 98.7601H149.669L149.669 120.08ZM244 144.507C242.903 146.127 241.61 147.605 240.15 148.909C238.569 150.325 236.808 151.53 234.913 152.49C232.891 153.52 230.757 154.317 228.553 154.865C226.189 155.45 223.761 155.74 221.325 155.727C216.981 155.768 212.671 154.947 208.648 153.311C200.974 150.218 194.896 144.14 191.814 136.479C190.166 132.393 189.342 128.022 189.392 123.618C189.342 119.214 190.166 114.843 191.814 110.757C194.896 103.096 200.974 97.0183 208.648 93.9262C212.671 92.2903 216.981 91.4687 221.325 91.5092C225.242 91.5302 229.118 92.2915 232.75 93.7529C236.623 95.2989 240.003 97.8647 242.529 101.176L237.077 105.233C236.345 104.145 235.472 103.158 234.48 102.298C233.335 101.287 232.071 100.418 230.717 99.7093C229.269 98.949 227.746 98.3415 226.172 97.8967C224.597 97.4421 222.965 97.2096 221.325 97.206C217.69 97.1465 214.086 97.8831 210.767 99.3639C207.757 100.726 205.061 102.695 202.849 105.146C200.66 107.605 198.97 110.463 197.872 113.563C195.565 120.069 195.565 127.167 197.872 133.673C198.97 136.773 200.66 139.631 202.849 142.089C205.06 144.541 207.756 146.51 210.767 147.872C214.086 149.354 217.69 150.091 221.325 150.031C222.936 150.031 224.544 149.887 226.129 149.599C227.741 149.303 229.311 148.81 230.803 148.132C232.375 147.412 233.833 146.467 235.13 145.326C236.587 144.027 237.854 142.531 238.894 140.881L244 144.507Z" fill="#244B5A"/>
<path d="M28.1377 113.07L12.0002 97.0948L28.0182 81.0002L44.1556 96.9756L28.1377 113.07Z" fill="url(#paint0_linear_2662_8457)"/>
<path d="M72.0498 106.251L62.5843 96.8805L71.9797 87.4402L81.4452 96.8106L72.0498 106.251Z" fill="url(#paint1_linear_2662_8457)"/>
<path d="M28.7246 87.3392L19.0244 97.0861L28.7967 106.761L37.0642 106.73L28.3945 98.1528L71.2044 97.9945L67.4524 101.762L71.5862 101.747L76.4366 96.8733L71.5501 92.0364L67.4164 92.0514L71.1966 95.7916L28.3867 95.9499L36.9915 87.3086L28.7246 87.3392Z" fill="#244B5A"/>
<defs>
<linearGradient id="paint0_linear_2662_8457" x1="-1585.61" y1="-1484.48" x2="1629.93" y2="-1496.46" gradientUnits="userSpaceOnUse">
<stop stop-color="#72C9C9"/>
<stop offset="1" stop-color="#02B0AD"/>
</linearGradient>
<linearGradient id="paint1_linear_2662_8457" x1="-874.499" y1="-830.794" x2="1011.59" y2="-837.824" gradientUnits="userSpaceOnUse">
<stop stop-color="#03B6B4"/>
<stop offset="1" stop-color="#74CBCA"/>
</linearGradient>
</defs>
</svg>
