<svg width="256" height="256" viewBox="0 0 256 256" fill="none" xmlns="http://www.w3.org/2000/svg">
<path d="M39.0523 20.0139C38.4845 19.9634 37.9129 20.0508 37.3861 20.2686C36.8593 20.4864 36.393 20.8282 36.0268 21.2649C23.9786 35.5296 20.2507 74.1837 26.4639 93.5512C28.5653 99.9578 29.0479 106.785 27.8686 113.423C26.671 119.993 25.4464 127.93 25.4464 133.42C25.4464 190.056 71.3789 236 128.009 236C184.648 236 230.554 190.083 230.554 133.411C230.554 127.894 229.356 119.975 228.122 113.414C226.948 106.778 227.433 99.9542 229.536 93.5512C235.749 74.2017 232.021 35.5296 219.973 21.2649C219.6 20.8346 219.131 20.4977 218.604 20.2812C218.077 20.0648 217.506 19.9749 216.938 20.0186C216.37 20.0624 215.82 20.2386 215.332 20.5332C214.844 20.8277 214.432 21.2325 214.129 21.7149L199.281 45.0243C197.511 47.2701 194.963 48.7706 192.14 49.2289C189.317 49.6871 186.425 49.0699 184.036 47.4993C167.385 36.5963 147.906 30.8023 128 30.8317C107.316 30.8317 88.0645 36.9695 71.9642 47.4993C69.5724 49.0648 66.6807 49.6782 63.8588 49.2184C61.037 48.7586 58.4899 47.2591 56.7194 45.0153L41.8618 21.7149C41.5566 21.2339 41.1442 20.83 40.6568 20.5349C40.1694 20.2398 39.6202 20.0615 39.0523 20.0139ZM128 54.2491C149.059 54.2848 169.245 62.6643 184.132 77.5506C199.02 92.437 207.395 112.616 207.421 133.663C207.385 177.438 171.771 213.069 128 213.069C84.2285 213.069 48.6153 177.438 48.6153 133.654C48.6269 118.618 52.9035 103.894 60.949 91.1883C68.9944 78.4831 80.479 68.3179 94.0706 61.872C104.669 56.8312 116.263 54.2265 128 54.2491ZM106.083 98.5911C105.683 98.5927 105.29 98.699 104.944 98.8996C104.598 99.1001 104.311 99.3879 104.111 99.7341C103.912 100.085 103.809 100.482 103.814 100.885C103.819 101.288 103.93 101.683 104.138 102.029L120.778 130.027L98.4288 164.11C98.2054 164.456 98.0785 164.855 98.0611 165.266C98.0437 165.678 98.1364 166.086 98.3298 166.45C98.5224 166.813 98.8101 167.117 99.1622 167.329C99.5143 167.542 99.9175 167.654 100.329 167.656H117.068C117.449 167.652 117.823 167.555 118.158 167.373C118.492 167.191 118.777 166.929 118.986 166.612L131.062 147.73L141.885 166.504C142.083 166.855 142.37 167.147 142.719 167.349C143.067 167.552 143.463 167.657 143.866 167.656H160.363C160.765 167.66 161.161 167.555 161.508 167.352C161.855 167.149 162.141 166.856 162.335 166.504C162.565 166.167 162.692 165.771 162.702 165.364C162.712 164.957 162.603 164.555 162.389 164.209L142.101 129.037L124.695 99.7071C124.493 99.3627 124.203 99.078 123.855 98.882C123.507 98.6859 123.114 98.5856 122.714 98.5911H106.083Z" fill="#1EB4D4"/>
</svg>
