<svg width="512" height="512" viewBox="0 0 512 512" fill="none" xmlns="http://www.w3.org/2000/svg">
<rect width="512" height="512" fill="white"/>
<path d="M78.1047 40.0278C76.969 39.9269 75.8258 40.1016 74.7722 40.5373C73.7187 40.9729 72.786 41.6564 72.0536 42.5297C47.9572 71.0591 40.5014 148.367 52.9278 187.102C57.1306 199.916 58.0958 213.569 55.7372 226.846C53.342 239.985 50.8927 255.861 50.8927 266.841C50.8927 380.112 142.758 472 256.018 472C369.296 472 461.107 380.166 461.107 266.823C461.107 255.789 458.712 239.949 456.245 226.828C453.895 213.555 454.866 199.908 459.072 187.102C471.499 148.403 464.043 71.0591 439.946 42.5297C439.2 41.6691 438.262 40.9953 437.207 40.5625C436.153 40.1296 435.012 39.9497 433.876 40.0372C432.739 40.1247 431.639 40.4772 430.664 41.0663C429.688 41.6555 428.864 42.4649 428.258 43.4297L398.561 90.0487C395.023 94.5403 389.927 97.5411 384.281 98.4577C378.635 99.3743 372.85 98.1399 368.072 94.9986C334.77 73.1927 295.812 61.6046 256 61.6633C214.633 61.6633 176.129 73.939 143.928 94.9986C139.145 98.1297 133.361 99.3563 127.718 98.4368C122.074 97.5172 116.98 94.5182 113.439 90.0307L83.7236 43.4297C83.1132 42.4677 82.2883 41.66 81.3135 41.0698C80.3387 40.4796 79.2404 40.123 78.1047 40.0278ZM256 108.498C298.118 108.57 338.489 125.329 368.264 155.101C398.04 184.874 414.789 225.231 414.842 267.327C414.77 354.877 343.543 426.137 256 426.137C168.457 426.137 97.2305 354.877 97.2305 267.309C97.2539 237.237 105.807 207.787 121.898 182.377C137.989 156.966 160.958 136.636 188.141 123.744C209.338 113.662 232.525 108.453 256 108.498ZM212.166 197.182C211.366 197.185 210.58 197.398 209.888 197.799C209.196 198.2 208.621 198.776 208.221 199.468C207.823 200.17 207.618 200.964 207.628 201.77C207.637 202.577 207.861 203.366 208.276 204.058L241.557 260.055L196.858 328.219C196.411 328.911 196.157 329.71 196.122 330.532C196.087 331.355 196.273 332.172 196.66 332.899C197.045 333.626 197.62 334.234 198.324 334.659C199.029 335.083 199.835 335.309 200.658 335.311H234.137C234.898 335.304 235.647 335.11 236.316 334.746C236.984 334.382 237.554 333.859 237.973 333.223L262.123 295.46L283.77 333.007C284.165 333.709 284.741 334.293 285.437 334.698C286.134 335.103 286.926 335.315 287.732 335.311H320.725C321.53 335.319 322.321 335.11 323.016 334.704C323.71 334.298 324.282 333.712 324.669 333.007C325.13 332.335 325.385 331.543 325.404 330.728C325.423 329.914 325.206 329.111 324.777 328.417L284.202 258.075L249.391 199.414C248.986 198.725 248.407 198.156 247.711 197.764C247.015 197.372 246.227 197.171 245.429 197.182H212.166Z" fill="#1EB4D4"/>
</svg>
