<svg width="512" height="512" viewBox="0 0 512 512" fill="none" xmlns="http://www.w3.org/2000/svg">
<g clip-path="url(#clip0_2765_4615)">
<path fill-rule="evenodd" clip-rule="evenodd" d="M44.9473 211.863H72.5433V249.108H105.883V211.863H133.479V316.484H105.883V276.589H72.5433V316.484H44.9473V211.863ZM165.137 316.484V211.863H230.415V234.601H192.733V251.619H226.072V274.775H192.733V294.026H230.415V316.484H165.137ZM260.673 316.484V211.863H288.269V288.864H326.091V316.484H260.673ZM368.815 211.863L411.68 250.643L454.405 211.863H466.872V316.484H439.136V262.779L411.68 287.748L384.084 262.918V316.484H356.348V211.863H368.815Z" fill="#0F1689"/>
<mask id="mask0_2765_4615" style="mask-type:luminance" maskUnits="userSpaceOnUse" x="45" y="359" width="438" height="223">
<path fill-rule="evenodd" clip-rule="evenodd" d="M45.3379 581.687H482.313V359.424H45.3379V581.687Z" fill="white"/>
</mask>
<g mask="url(#mask0_2765_4615)">
<path fill-rule="evenodd" clip-rule="evenodd" d="M357.274 382.349C365.198 376.817 383.47 389.199 398.084 410.004C412.698 430.809 418.121 452.159 410.197 457.691C402.272 463.222 384 450.84 369.386 430.035C354.772 409.23 349.349 387.88 357.274 382.349Z" fill="#0F1689"/>
<path fill-rule="evenodd" clip-rule="evenodd" d="M168.463 382.349C160.538 376.817 142.266 389.199 127.652 410.004C113.038 430.809 107.615 452.159 115.54 457.691C123.464 463.222 141.736 450.84 156.35 430.035C170.964 409.23 176.387 387.88 168.463 382.349Z" fill="#0F1689"/>
<path fill-rule="evenodd" clip-rule="evenodd" d="M262.772 414.924C253.098 414.924 245.255 435.513 245.255 460.912C245.255 486.31 253.098 506.9 262.772 506.9C272.446 506.9 280.289 486.31 280.289 460.912C280.289 435.513 272.446 414.924 262.772 414.924Z" fill="#0F1689"/>
</g>
<mask id="mask1_2765_4615" style="mask-type:luminance" maskUnits="userSpaceOnUse" x="45" y="359" width="438" height="223">
<path fill-rule="evenodd" clip-rule="evenodd" d="M45.3379 581.687H482.313V359.424H45.3379V581.687Z" fill="white"/>
</mask>
<g mask="url(#mask1_2765_4615)">
<path d="M396.069 341.024C367.853 387.752 316.723 418.976 258.33 418.976C201.536 418.976 151.611 389.437 122.959 344.824M126.025 165.238C155.092 123.205 203.511 95.685 258.33 95.685C313.25 95.685 361.745 123.305 390.794 165.467" stroke="#0F1689" stroke-width="20"/>
</g>
<mask id="mask2_2765_4615" style="mask-type:luminance" maskUnits="userSpaceOnUse" x="45" y="-51" width="438" height="223">
<path fill-rule="evenodd" clip-rule="evenodd" d="M45.3379 -50.906H482.313V171.356H45.3379V-50.906Z" fill="white"/>
</mask>
<g mask="url(#mask2_2765_4615)">
<path fill-rule="evenodd" clip-rule="evenodd" d="M357.274 145.013C365.198 150.544 383.47 138.162 398.084 117.357C412.698 96.5519 418.121 75.2019 410.197 69.6706C402.272 64.1392 384 76.521 369.386 97.3262C354.772 118.131 349.349 139.481 357.274 145.013Z" fill="#0F1689"/>
<path fill-rule="evenodd" clip-rule="evenodd" d="M168.463 145.013C160.538 150.544 142.266 138.162 127.652 117.357C113.038 96.5519 107.615 75.2019 115.54 69.6706C123.464 64.1392 141.736 76.521 156.35 97.3262C170.964 118.131 176.387 139.481 168.463 145.013Z" fill="#0F1689"/>
<path fill-rule="evenodd" clip-rule="evenodd" d="M262.772 112.437C253.098 112.437 245.255 91.8477 245.255 66.4493C245.255 41.0509 253.098 20.4615 262.772 20.4615C272.446 20.4615 280.289 41.0509 280.289 66.4493C280.289 91.8477 272.446 112.437 262.772 112.437Z" fill="#0F1689"/>
</g>
<mask id="mask3_2765_4615" style="mask-type:luminance" maskUnits="userSpaceOnUse" x="45" y="-51" width="438" height="223">
<path fill-rule="evenodd" clip-rule="evenodd" d="M45.3379 -50.906H482.313V171.356H45.3379V-50.906Z" fill="white"/>
</mask>
<g mask="url(#mask3_2765_4615)">
<path d="M396.069 186.338C367.853 139.609 316.723 108.386 258.33 108.386C201.536 108.386 151.611 137.924 122.959 182.537M126.025 362.124C155.092 404.156 203.511 431.676 258.33 431.676C313.25 431.676 361.745 404.056 390.794 361.894" stroke="#0F1689" stroke-width="20"/>
</g>
</g>
<defs>
<clipPath id="clip0_2765_4615">
<rect width="424" height="488" fill="white" transform="translate(44 20)"/>
</clipPath>
</defs>
</svg>
