<svg width="256" height="256" viewBox="0 0 256 256" fill="none" xmlns="http://www.w3.org/2000/svg">
<rect width="256" height="256" fill="white"/>
<path d="M61 12H71.4157V22.4087H81.0162V12H91.4319V43.5H81.0162V33H71.5063V43.5H61M105.199 22.5H96.0057V12H124.853V22.5H115.614V43.5H105.199M129.426 12H140.34L147.043 23.0935L153.745 12H164.659V43.5H154.243V27.887L146.952 39.2087L139.661 27.887V43.5H129.426M169.821 12H180.237V33.0913H195V43.5H169.821" fill="black"/>
<path d="M60.9173 225.413L46 57.5H210L195.083 225.323L127.864 244" fill="#E44D26"/>
<path d="M128 229.5V71.5H195L182.214 214.355" fill="#F16529"/>
<path d="M76.5 92H128V112.556H98.9974L100.895 133.61H128V154.121H82.1018M83.0053 164.445H103.605L105.051 180.88L128 187.038V208.5L85.8965 196.728" fill="#EBEBEB"/>
<path d="M179.5 92H128V112.572H177.599M175.744 133.643H128V154.215H153.343L150.944 180.95L128 187.112V208.5L170.087 196.809" fill="white"/>
</svg>
