<svg width="256" height="256" viewBox="0 0 256 256" fill="none" xmlns="http://www.w3.org/2000/svg">
<rect width="256" height="256" fill="white"/>
<path d="M25.1787 123.094C25.1787 87.1647 44.6567 53.9772 76.2624 36.0073C91.8382 27.1782 109.437 22.5374 127.341 22.5374C145.245 22.5374 162.843 27.1782 178.419 36.0073C210.025 53.9772 229.503 87.1647 229.503 123.094C229.503 178.628 183.766 223.648 127.346 223.648C70.9262 223.648 25.1787 178.618 25.1787 123.094Z" fill="#FF9D0B"/>
<path d="M127.346 213.272C177.934 213.272 218.957 172.892 218.957 123.095C218.957 73.2979 177.934 32.9287 127.346 32.9287C76.7476 32.9287 35.7245 73.2979 35.7245 123.095C35.7245 172.892 76.7476 213.261 127.346 213.261V213.272Z" fill="#FFD21E"/>
<path d="M126.681 160.828C152.592 160.828 160.955 138.091 160.955 126.417C160.955 120.343 156.81 122.262 150.166 125.479C144.029 128.463 135.771 132.597 126.713 132.597C107.751 132.597 92.4388 114.743 92.4388 126.417C92.4388 138.091 100.77 160.828 126.713 160.828H126.681Z" fill="#FF323D"/>
<path d="M157.104 98.5788C160.479 99.7177 161.797 106.52 165.192 104.748C169.906 102.291 172.648 97.2816 172.142 92.0509C171.88 89.4797 170.858 87.0448 169.207 85.056C167.556 83.0673 165.351 81.6146 162.872 80.883C160.384 80.13 157.73 80.1223 155.237 80.8607C152.745 81.599 150.523 83.0513 148.847 85.038C145.451 89.0876 144.871 94.7401 147.37 99.3802C148.984 102.365 154.098 97.5136 157.125 98.5471L157.104 98.5788ZM95.021 98.5788C91.6464 99.7177 90.2965 106.52 86.9219 104.748C84.631 103.565 82.7463 101.724 81.5098 99.4611C80.2733 97.1986 79.7415 94.618 79.9828 92.0509C80.489 86.8308 84.1483 82.4227 89.2419 80.883C91.7301 80.13 94.3844 80.1223 96.8769 80.8607C99.3695 81.599 101.591 83.0513 103.268 85.038C106.664 89.0876 107.244 94.7401 104.744 99.3802C103.141 102.365 97.9949 97.5136 94.9894 98.5471L95.021 98.5788ZM106.832 154.893C108.238 152.095 110.203 149.616 112.607 147.609C115.011 145.603 117.801 144.112 120.805 143.23C121.544 143.019 122.324 143.862 123.115 145.033L125.14 148.26C125.867 149.314 126.606 150.105 127.344 150.105C128.124 150.105 128.926 149.325 129.695 148.291L131.857 145.107C132.701 143.947 133.513 143.124 134.325 143.367C139.988 145.138 144.723 149.019 147.507 154.187C157.336 146.551 160.953 134.097 160.953 126.42C160.953 121.062 157.726 121.927 152.411 124.416L145.915 127.537C140.431 130.068 133.808 132.599 126.679 132.599C119.55 132.599 112.949 130.068 107.454 127.537L101.243 124.553C95.7592 121.938 92.4057 120.946 92.4057 126.42C92.4057 133.833 95.7803 145.729 104.923 153.417L106.822 154.893H106.832Z" fill="#3A3B45"/>
<path d="M189.294 110.77C190.411 110.78 191.519 110.569 192.554 110.15C193.59 109.731 194.533 109.112 195.329 108.329C196.126 107.545 196.76 106.612 197.195 105.584C197.631 104.555 197.859 103.45 197.867 102.333C197.867 97.6825 194.029 93.8966 189.294 93.8966C188.177 93.8882 187.07 94.0998 186.036 94.5193C185.002 94.9388 184.06 95.5579 183.265 96.3413C182.47 97.1247 181.836 98.0571 181.402 99.0852C180.967 100.113 180.739 101.217 180.73 102.333C180.73 106.994 184.569 110.77 189.294 110.77ZM66.7097 110.77C67.8259 110.778 68.9329 110.567 69.9673 110.147C71.0018 109.728 71.9435 109.108 72.7386 108.325C73.5338 107.542 74.1669 106.609 74.6017 105.581C75.0365 104.553 75.2646 103.449 75.2729 102.333C75.2729 97.6825 71.4342 93.8966 66.7097 93.8966C65.5926 93.8868 64.4845 94.0974 63.4489 94.5163C62.4132 94.9351 61.4702 95.554 60.674 96.3376C59.8777 97.1211 59.2437 98.0539 58.8082 99.0827C58.3727 100.112 58.1443 101.216 58.136 102.333C58.136 106.994 61.9747 110.77 66.7097 110.77ZM49.0666 139.317C44.7956 139.317 40.9991 141.026 38.3416 144.168C36.0747 146.914 34.8332 150.362 34.8299 153.923C33.1686 153.431 31.4477 153.168 29.7152 153.143C25.634 153.143 21.943 154.682 19.3276 157.456C17.0039 159.816 15.5346 162.884 15.1525 166.173C14.7704 169.463 15.4975 172.786 17.2185 175.616C14.8949 177.479 13.2404 180.048 12.5045 182.934C11.8718 185.276 11.239 190.211 14.6137 195.231C13.3474 197.137 12.5923 199.337 12.4205 201.62C12.2488 203.902 12.6663 206.191 13.6329 208.265C16.1428 213.886 22.175 218.368 33.5644 223.082L36.0954 224.094C44.1945 227.258 51.6293 229.283 51.682 229.304C61.0677 231.867 70.7487 233.259 80.493 233.459C95.9425 233.459 106.994 228.787 113.343 219.602C123.151 205.45 122.223 192.447 110.454 179.918L108.861 178.294C101.563 171.081 96.6808 160.472 95.6789 158.131C93.6225 151.223 88.1914 143.546 79.2064 143.546C74.3554 143.62 69.8312 146.003 67.0788 149.926C64.4424 146.657 61.8587 144.094 59.5386 142.607C56.4297 140.542 52.7983 139.401 49.0666 139.317ZM206.937 139.317C211.208 139.317 215.025 141.026 217.662 144.168C219.94 146.931 221.173 150.369 221.173 153.923C222.84 153.427 224.569 153.174 226.309 153.143C230.401 153.143 234.092 154.682 236.697 157.456C239.02 159.816 240.49 162.884 240.872 166.173C241.254 169.463 240.527 172.786 238.806 175.616C241.126 177.493 242.782 180.066 243.499 182.934C244.132 185.276 244.764 190.211 241.39 195.231C243.963 199.133 244.332 204.047 242.37 208.265C239.861 213.886 233.828 218.368 222.449 223.082L219.929 224.094C211.809 227.258 204.374 229.283 204.321 229.304C194.936 231.867 185.255 233.259 175.51 233.459C160.061 233.459 149.009 228.787 142.66 219.602C132.853 205.45 133.781 192.447 145.55 179.918L147.142 178.294C154.471 171.081 159.344 160.472 160.345 158.131C162.402 151.223 167.812 143.546 176.797 143.546C181.648 143.62 186.172 146.003 188.924 149.926C191.561 146.657 194.145 144.094 196.496 142.607C199.07 140.899 202.012 139.813 205.081 139.444L206.937 139.317Z" fill="#FF9D0B"/>
<path d="M104.643 213.761C111.898 203.278 111.371 195.411 101.426 185.635C91.4604 175.849 85.6603 161.506 85.6603 161.506C85.6603 161.506 83.4984 153.196 78.5735 153.977C73.6381 154.757 70.0314 167.159 80.3663 174.762C90.6695 182.366 78.3099 187.523 74.3236 180.394C70.3689 173.254 59.5068 154.915 53.8648 151.382C48.2545 147.881 44.2998 149.822 45.618 157.088C46.9362 164.333 70.4744 181.87 68.1859 185.635C65.887 189.453 57.8195 181.206 57.8195 181.206C57.8195 181.206 32.594 158.585 27.0786 164.491C21.5948 170.375 31.2758 175.311 45.0064 183.505C58.8002 191.709 59.8759 193.892 57.9249 197.003C55.9529 200.114 25.5494 174.857 22.7021 185.582C19.8547 196.244 53.7383 199.334 51.6502 206.737C49.541 214.119 27.764 192.774 23.3348 201.074C18.8529 209.405 54.0546 219.192 54.3394 219.265C65.676 222.176 94.5503 228.324 104.643 213.761ZM151.381 213.761C144.136 203.278 144.632 195.411 154.598 185.635C164.543 175.849 170.343 161.506 170.343 161.506C170.343 161.506 172.505 153.196 177.461 153.977C182.365 154.757 185.972 167.159 175.668 174.762C165.333 182.366 177.725 187.523 181.679 180.394C185.655 173.254 196.517 154.915 202.138 151.382C207.748 147.881 211.735 149.822 210.385 157.088C209.067 164.333 185.55 181.87 187.849 185.635C190.116 189.453 198.183 181.206 198.183 181.206C198.183 181.206 223.441 158.585 228.924 164.491C234.408 170.375 224.759 175.311 210.997 183.505C197.203 191.709 196.148 193.892 198.078 197.003C200.05 200.114 230.454 174.857 233.301 185.582C236.148 196.244 202.296 199.334 204.374 206.737C206.483 214.119 228.239 192.774 232.689 201.074C237.15 209.405 201.98 219.192 201.685 219.265C190.327 222.176 161.453 228.324 151.381 213.761Z" fill="#FFD21E"/>
</svg>
