<svg width="256" height="256" viewBox="0 0 256 256" fill="none" xmlns="http://www.w3.org/2000/svg">
<rect width="256" height="256" fill="white"/>
<path d="M128.36 73.1945C176.124 36.114 151.61 12 151.61 12C155.258 50.3335 112.144 59.3848 100.587 85.7267C92.701 103.702 105.987 119.44 128.344 139.277C126.368 134.883 123.319 130.614 120.234 126.293C109.707 111.552 98.7425 96.1957 128.36 73.1945Z" fill="#E76F00"/>
<path d="M135.986 147.408C135.986 147.408 150.356 135.815 138.976 122.931C100.4 79.221 181.167 59.3848 181.167 59.3848C131.855 83.1406 139.217 97.2412 151.611 114.371C164.882 132.74 135.986 147.408 135.986 147.408Z" fill="#E76F00"/>
<path d="M178.293 181.981C222.557 159.362 202.092 137.627 187.807 140.555C184.305 141.271 182.744 141.893 182.744 141.893C182.744 141.893 184.044 139.89 186.526 139.023C214.786 129.254 236.52 167.838 177.404 183.12C177.404 183.12 178.089 182.519 178.293 181.981Z" fill="#5382A1"/>
<path d="M86.1893 153.353C58.4952 149.716 101.374 139.701 101.374 139.701C101.374 139.701 84.7226 138.597 64.243 148.331C40.0269 159.851 124.144 165.09 167.687 153.828C172.213 150.788 178.47 148.154 178.47 148.154C178.47 148.154 160.652 151.283 142.907 152.755C121.194 154.544 97.8828 154.892 86.1893 153.353Z" fill="#5382A1"/>
<path d="M96.7266 174.95C81.283 173.379 91.395 166.019 91.395 166.019C51.4328 179.061 113.629 193.852 169.47 177.795C163.534 175.737 159.76 171.974 159.76 171.974C132.468 177.142 116.697 176.976 96.7266 174.95Z" fill="#5382A1"/>
<path d="M103.455 198.319C88.0234 196.574 97.0388 191.419 97.0388 191.419C60.763 201.386 119.103 221.978 165.289 202.514C157.724 199.621 152.308 196.282 152.308 196.282C131.705 200.115 122.15 200.416 103.455 198.319Z" fill="#5382A1"/>
<path d="M200.056 210.206C200.056 210.206 206.727 215.612 192.708 219.794C166.049 227.735 81.7517 230.134 58.3343 220.111C49.9163 216.51 65.7024 211.512 70.6681 210.463C75.8468 209.359 78.8063 209.565 78.8063 209.565C69.4446 203.08 18.2965 222.299 52.8255 227.803C146.991 242.82 224.481 221.04 200.056 210.206Z" fill="#5382A1"/>
<path d="M215 222.018C213.455 241.787 148.211 245.945 105.724 243.271C78.0063 241.523 72.4514 237.155 72.3701 237.091C98.8978 241.392 143.623 242.175 179.887 235.463C212.03 229.512 215 222.018 215 222.018Z" fill="#5382A1"/>
</svg>
