<svg width="256" height="256" viewBox="0 0 256 256" fill="none" xmlns="http://www.w3.org/2000/svg">
<rect width="256" height="256" fill="white"/>
<path fill-rule="evenodd" clip-rule="evenodd" d="M209.136 123.851C209.136 169.794 172.735 207.039 127.831 207.039C82.928 207.039 46.5264 169.794 46.5264 123.851C46.5264 77.9062 82.928 40.6607 127.831 40.6607C172.735 40.6607 209.136 77.9062 209.136 123.851Z" fill="#D33833"/>
<path d="M49.8397 144.454C49.8397 144.454 43.9538 57.702 123.866 55.2231L118.291 45.9282L74.9282 60.4905L62.5386 74.7423L51.6981 95.5015L45.5029 119.668L47.3613 135.779" fill="#EF3D3A"/>
<path d="M72.144 67.101C57.8789 81.7014 49.0515 101.86 49.0515 124.161C49.0515 146.458 57.8789 166.619 72.144 181.217C86.416 195.814 106.085 204.822 127.83 204.822C149.575 204.822 169.245 195.814 183.516 181.217C197.78 166.619 206.61 146.458 206.61 124.161C206.61 101.86 197.78 81.7014 183.516 67.101C169.245 52.5062 149.575 43.4985 127.83 43.4966C106.085 43.4985 86.416 52.5062 72.144 67.101ZM68.5331 184.748C53.3726 169.239 44 147.805 44 124.161C44 100.514 53.3726 79.0821 68.5331 63.5717C83.6901 48.0586 104.671 38.443 127.83 38.4458C150.989 38.443 171.972 48.0586 187.126 63.5717C202.288 79.0821 211.662 100.516 211.66 124.161C211.662 147.805 202.288 169.239 187.126 184.748C171.972 200.26 150.989 209.875 127.83 209.875C104.671 209.875 83.6901 200.26 68.5331 184.748Z" fill="#231F20"/>
<path fill-rule="evenodd" clip-rule="evenodd" d="M162.056 124.312L149.666 126.171L132.941 128.03L122.099 128.339L111.569 128.03L103.515 125.551L96.3913 117.805L90.816 102.004L89.5772 98.5958L82.1436 96.1178L77.8072 88.9914L74.71 78.767L78.1175 69.7817L86.17 66.9932L92.6744 70.0921L95.7724 76.908L99.4892 76.2881L100.728 74.7395L99.4892 67.6132L99.1789 58.6278L101.037 46.235L100.965 39.156L106.612 30.1242L116.524 22.9978L133.87 15.5619L153.073 18.3503L169.799 30.4337L177.543 42.8265L182.498 51.8119L183.737 74.1196L180.02 93.3293L173.206 110.37L166.701 119.355" fill="#F0D6B7"/>
<path fill-rule="evenodd" clip-rule="evenodd" d="M151.525 177.912L107.232 179.771V187.207L110.949 213.232L109.09 215.402L78.1173 204.867L75.9485 201.149L72.8513 166.139L65.7284 145.07L64.1792 140.113L88.9573 123.073L96.7013 119.974L103.515 128.339L109.4 133.607L116.215 135.775L119.311 136.705L123.028 152.816L125.816 156.224L132.94 153.745L127.984 163.35L154.931 176.053L151.525 177.912Z" fill="#335061"/>
<path fill-rule="evenodd" clip-rule="evenodd" d="M78.1175 69.7816L86.17 66.9931L92.6744 70.092L95.7724 76.908L99.4892 76.288L100.418 72.57L98.56 65.4446L100.418 48.4034L98.8692 39.1085L104.444 32.6021L116.524 22.9977L113.117 18.3503L96.0816 26.7157L88.9576 32.2926L84.9311 40.9675L78.7363 49.3329L76.8779 59.2477L78.1175 69.7816Z" fill="#6D6B6D"/>
<path fill-rule="evenodd" clip-rule="evenodd" d="M90.8157 40.6579C90.8157 40.6579 95.4617 29.1945 114.046 23.6176C132.63 18.0407 114.975 19.5892 114.975 19.5892L94.8428 27.3355L87.0988 35.0809L83.6924 41.2778L90.8157 40.6579Z" fill="#DCD9D8"/>
<path fill-rule="evenodd" clip-rule="evenodd" d="M81.5239 67.613C81.5239 67.613 75.0195 45.9243 99.7984 42.8264L98.8692 39.1084L81.8343 43.1368L76.8779 59.2476L78.1175 69.7815L81.5239 67.613Z" fill="#DCD9D8"/>
<path fill-rule="evenodd" clip-rule="evenodd" d="M91.4355 96.4272L95.4911 92.4964C95.4911 92.4964 97.3215 92.7092 97.6307 94.8777C97.94 97.0471 98.8692 116.566 112.188 127.101C113.402 128.062 102.277 125.551 102.277 125.551L92.3648 110.06" fill="#F7E4CD"/>
<path fill-rule="evenodd" clip-rule="evenodd" d="M148.428 90.5408C148.428 90.5408 149.15 81.1492 151.679 81.8714C154.207 82.5937 154.207 85.1228 154.207 85.1228C154.207 85.1228 148.067 89.0963 148.428 90.5408Z" fill="#F7E4CD"/>
<path d="M174.135 56.1498C174.135 56.1498 169.03 57.228 168.56 61.7267C168.09 66.2263 174.135 62.6562 175.064 62.3467" fill="#F7E4CD"/>
<path d="M136.657 56.4602C136.657 56.4602 129.842 57.3897 129.842 61.7267C129.842 66.0646 137.586 65.7551 139.754 63.8961" fill="#F7E4CD"/>
<path fill-rule="evenodd" clip-rule="evenodd" d="M94.5325 76.5985C94.5325 76.5985 82.7621 69.4721 81.5237 76.289C80.2849 83.1049 77.4965 88.0628 83.3821 95.1882L79.3556 93.9492L75.6388 84.3448L74.4004 75.05L81.5237 67.6131L89.5769 68.2331L94.2229 71.9511L94.5325 76.5985Z" fill="#F7E4CD"/>
<path fill-rule="evenodd" clip-rule="evenodd" d="M100.108 57.0791C100.108 57.0791 105.373 29.8145 132.011 24.5471C153.941 20.211 165.462 25.4765 169.798 30.4335C169.798 30.4335 150.285 7.19724 131.701 14.3227C113.117 21.4491 99.4889 34.4619 99.7981 42.8263C100.326 57.0735 100.108 57.0791 100.108 57.0791Z" fill="#F7E4CD"/>
<path fill-rule="evenodd" clip-rule="evenodd" d="M171.967 33.5315C171.967 33.5315 162.986 33.222 162.675 41.2778C162.675 41.2778 162.674 42.5169 163.294 43.7559C163.294 43.7559 170.419 35.7 174.755 40.0379" fill="#F7E4CD"/>
<path fill-rule="evenodd" clip-rule="evenodd" d="M132.635 44.5952C132.635 44.5952 131.089 32.2303 120.55 39.4189C113.736 44.0664 114.356 50.5728 115.595 51.8118C116.833 53.0517 116.497 55.5474 117.44 53.8343C118.382 52.1213 118.072 46.5444 121.479 44.9958C124.887 43.4464 130.472 41.7157 132.635 44.5952Z" fill="#F7E4CD"/>
<path fill-rule="evenodd" clip-rule="evenodd" d="M103.515 128.339L74.4004 141.352C74.4004 141.352 86.4801 189.376 80.2849 204.248L75.9485 202.699L75.6389 184.419L67.5868 149.718L64.1792 140.113L94.5326 119.665L103.515 128.339Z" fill="#49728B"/>
<path fill-rule="evenodd" clip-rule="evenodd" d="M106.509 154.901L110.64 159.943V178.532H105.683C105.683 178.532 105.064 165.52 105.064 163.97C105.064 162.421 105.683 156.844 105.683 156.844" fill="#49728B"/>
<path fill-rule="evenodd" clip-rule="evenodd" d="M106.612 181.321L92.6743 181.94L96.7015 184.729L106.612 186.278" fill="#49728B"/>
<path fill-rule="evenodd" clip-rule="evenodd" d="M154.312 178.222L165.772 177.912L168.56 206.417L156.79 207.966L154.312 178.222Z" fill="#335061"/>
<path fill-rule="evenodd" clip-rule="evenodd" d="M157.409 178.222L174.755 177.293C174.755 177.293 181.878 159.323 181.878 158.393C181.878 157.464 188.073 132.368 188.073 132.368L174.135 117.806L171.347 115.327L163.914 122.763V151.577L157.409 178.222Z" fill="#335061"/>
<path fill-rule="evenodd" clip-rule="evenodd" d="M165.153 176.053L154.312 178.222L155.861 186.898C159.887 188.757 166.702 183.799 166.702 183.799" fill="#49728B"/>
<path fill-rule="evenodd" clip-rule="evenodd" d="M165.463 121.834L187.144 137.945L187.764 130.509L171.348 115.327L165.463 121.834Z" fill="#49728B"/>
<path fill-rule="evenodd" clip-rule="evenodd" d="M117.361 239.261L110.949 213.232L107.759 194.026L107.232 179.771L136.255 178.225L154.312 178.222L152.67 210.757L155.458 235.853L155.149 240.501L131.609 242.36L117.361 239.261Z" fill="white"/>
<path fill-rule="evenodd" clip-rule="evenodd" d="M150.285 177.912C150.285 177.912 148.737 210.135 153.383 233.062C153.383 233.062 144.091 238.949 130.462 240.498L156.48 239.568L159.577 237.709L155.86 186.898L154.931 176.053" fill="#DCD9D8"/>
<path fill-rule="evenodd" clip-rule="evenodd" d="M169.087 203.941L181.167 200.533L204.087 199.293L207.494 188.76L201.299 170.479L194.176 169.55L184.264 172.648L174.755 177.293L169.706 176.366L165.772 177.912" fill="white"/>
<path fill-rule="evenodd" clip-rule="evenodd" d="M168.869 197.741C168.869 197.741 176.922 194.024 178.161 194.334L174.755 177.292L178.781 175.744C178.781 175.744 181.569 191.855 181.569 193.713C181.569 193.713 198.913 194.643 200.462 194.643C200.462 194.643 204.179 187.517 203.25 180.081L206.657 189.996L206.966 195.572L202.011 203.008L196.436 204.248L187.144 203.938L184.047 199.911L173.206 201.459L169.798 202.699" fill="#DCD9D8"/>
<path d="M156.697 175.747L149.883 158.396L142.759 148.172C142.759 148.172 144.307 143.834 146.476 143.834C148.645 143.834 153.6 143.834 153.6 143.834L160.414 146.313L159.795 157.776L156.697 175.747Z" fill="white"/>
<path fill-rule="evenodd" clip-rule="evenodd" d="M158.029 169.857C158.029 169.857 149.356 153.127 149.356 150.648C149.356 150.648 150.904 146.93 153.073 147.859C155.241 148.789 159.887 151.267 159.887 151.267V145.38L149.356 143.211L142.232 144.141L154.312 172.645L156.789 172.956" fill="#DCD9D8"/>
<path d="M120.149 128.963L111.569 128.03L103.515 125.551V128.339L107.45 132.68L119.839 138.257" fill="white"/>
<path fill-rule="evenodd" clip-rule="evenodd" d="M106.304 129.891C106.304 129.891 115.906 133.92 119.003 132.99L119.311 136.705L110.64 134.849L105.375 131.131L106.304 129.891Z" fill="#DCD9D8"/>
<path fill-rule="evenodd" clip-rule="evenodd" d="M169.054 144.889C163.799 144.734 159.05 144.11 154.893 142.937C155.176 141.232 154.647 139.559 155.072 138.331C156.23 137.496 158.172 137.509 159.924 137.313C158.409 136.569 156.281 136.274 154.534 136.705C154.493 135.521 153.962 134.788 153.641 133.862C156.595 132.807 163.571 125.891 167.495 128.181C169.365 129.27 170.159 135.492 170.304 138.518C170.425 141.028 170.076 143.56 169.054 144.889Z" fill="#D33833"/>
<path d="M169.55 145.27C170.148 144.492 170.515 143.414 170.723 142.256C170.933 141.087 170.99 139.778 170.928 138.488C170.855 136.95 170.616 134.603 170.157 132.491C169.927 131.436 169.638 130.418 169.276 129.582C168.925 128.773 168.458 128.02 167.81 127.642L167.81 127.641C166.627 126.95 165.261 126.986 163.925 127.352C162.59 127.717 161.199 128.435 159.881 129.232C158.562 130.03 157.268 130.937 156.151 131.689C155.004 132.461 154.081 133.041 153.431 133.273L152.847 133.482L153.05 134.067C153.139 134.323 153.241 134.562 153.338 134.782C153.437 135.009 153.528 135.208 153.612 135.418C153.774 135.825 153.892 136.23 153.909 136.726L153.936 137.496L154.683 137.312C155.2 137.184 155.756 137.128 156.32 137.131C155.739 137.273 155.179 137.484 154.706 137.824L154.545 137.94L154.481 138.127C154.222 138.876 154.263 139.727 154.305 140.49C154.35 141.295 154.404 142.064 154.276 142.834L154.185 143.386L154.724 143.538C158.943 144.729 163.744 145.358 169.036 145.513L169.355 145.523L169.55 145.27ZM168.734 144.252C163.866 144.09 159.46 143.517 155.578 142.477C155.637 141.74 155.587 141.031 155.553 140.42C155.514 139.718 155.5 139.173 155.606 138.728C156.047 138.468 156.64 138.309 157.367 138.201C158.214 138.076 159.051 138.04 159.994 137.935L162.12 137.696L160.2 136.752C158.758 136.044 156.818 135.713 155.077 135.964C155.005 135.591 154.894 135.26 154.773 134.956C154.679 134.719 154.574 134.487 154.482 134.279C154.47 134.25 154.458 134.222 154.446 134.194C155.159 133.844 155.988 133.306 156.849 132.726C157.994 131.956 159.243 131.079 160.528 130.302C161.814 129.524 163.087 128.877 164.255 128.557C165.423 128.237 166.402 128.266 167.18 128.721V128.721C167.466 128.888 167.8 129.321 168.129 130.079C168.446 130.811 168.715 131.741 168.936 132.756C169.377 134.784 169.608 137.06 169.68 138.548L169.696 139.004C169.722 140.068 169.659 141.111 169.493 142.036C169.328 142.95 169.071 143.708 168.734 144.252Z" fill="#D33833"/>
<path fill-rule="evenodd" clip-rule="evenodd" d="M143.922 136.295C143.908 136.693 143.891 137.093 143.875 137.495C142.234 138.573 139.585 138.56 137.784 139.466C140.439 139.582 142.529 140.222 144.337 141.123C144.297 142.125 144.259 143.126 144.22 144.128C141.212 146.188 138.465 149.255 134.923 151.187C133.249 152.101 127.372 154.451 125.591 154.036C124.583 153.802 124.492 152.55 124.089 151.371C123.231 148.846 121.254 144.826 121.082 141.024C120.862 136.222 120.378 128.175 125.551 129.164C129.724 129.96 134.578 131.883 137.809 133.649C139.784 134.729 140.926 136.064 143.922 136.295Z" fill="#D33833"/>
<path d="M125.449 154.644C126.042 154.782 126.866 154.682 127.695 154.506C128.556 154.323 129.536 154.03 130.499 153.701C132.42 153.045 134.344 152.215 135.223 151.736C137.052 150.738 138.664 149.454 140.174 148.184C141.605 146.981 142.927 145.808 144.299 144.836L144.573 144.644L144.833 144.467L144.845 144.153C144.884 143.15 144.922 142.15 144.962 141.148L144.978 140.745L144.616 140.564C143.465 139.99 142.203 139.52 140.768 139.213C140.853 139.194 140.94 139.174 141.027 139.155C142.103 138.913 143.288 138.628 144.218 138.017L144.487 137.84L144.5 137.519C144.516 137.12 144.533 136.716 144.547 136.316L144.568 135.718L143.97 135.671C141.153 135.455 140.243 134.268 138.11 133.101C134.832 131.31 129.917 129.361 125.669 128.55C124.198 128.269 123.038 128.628 122.194 129.486C121.389 130.305 120.939 131.511 120.681 132.8C120.165 135.38 120.349 138.68 120.458 141.052L120.48 141.426C120.618 143.295 121.147 145.178 121.738 146.881C122.054 147.791 122.391 148.66 122.699 149.451C123.01 150.247 123.289 150.957 123.498 151.572V151.573C123.592 151.848 123.667 152.126 123.751 152.422C123.831 152.707 123.92 153.013 124.034 153.293C124.264 153.859 124.654 154.459 125.449 154.644ZM127.435 153.283C126.61 153.459 126.03 153.496 125.733 153.427L125.733 153.427C125.521 153.378 125.36 153.236 125.192 152.822C125.107 152.614 125.035 152.371 124.954 152.083C124.875 151.805 124.788 151.485 124.681 151.17C124.461 150.523 124.171 149.783 123.864 148.997C123.555 148.205 123.226 147.357 122.919 146.471C122.342 144.806 121.853 143.042 121.727 141.336L121.707 140.996C121.596 138.566 121.428 135.442 121.907 133.045C122.148 131.845 122.533 130.924 123.085 130.362C123.598 129.84 124.318 129.564 125.434 129.777V129.778C129.532 130.56 134.325 132.457 137.509 134.198C139.206 135.126 140.518 136.482 143.275 136.854C143.271 136.947 143.268 137.039 143.264 137.132C142.587 137.499 141.727 137.717 140.753 137.935C139.695 138.172 138.49 138.411 137.504 138.908L135.362 139.986L137.757 140.09C140.143 140.195 142.045 140.736 143.696 141.509C143.666 142.271 143.637 143.032 143.608 143.793C142.163 144.814 140.771 146.049 139.37 147.228C137.869 148.489 136.337 149.704 134.624 150.638C133.829 151.072 131.977 151.875 130.095 152.519C129.157 152.839 128.229 153.114 127.435 153.283Z" fill="#D33833"/>
<path fill-rule="evenodd" clip-rule="evenodd" d="M146.909 142.024C146.45 139.408 145.92 138.662 146.125 136.38C153.099 131.729 154.408 144.369 146.909 142.024Z" fill="#D33833"/>
<path d="M146.723 142.62C148.753 143.255 150.333 142.909 151.362 141.93C152.359 140.982 152.713 139.554 152.566 138.266C152.418 136.98 151.752 135.686 150.524 135.071C149.267 134.441 147.633 134.623 145.778 135.86L145.529 136.026L145.503 136.324C145.394 137.532 145.481 138.351 145.656 139.203C145.836 140.08 146.063 140.815 146.294 142.132L146.359 142.507L146.723 142.62ZM150.5 141.025C149.927 141.57 148.964 141.913 147.453 141.529C147.243 140.426 147.014 139.598 146.88 138.951C146.742 138.277 146.667 137.645 146.725 136.738C148.224 135.815 149.286 135.849 149.964 136.188C150.709 136.561 151.209 137.409 151.323 138.408C151.438 139.406 151.148 140.408 150.5 141.025Z" fill="#D33833"/>
<path fill-rule="evenodd" clip-rule="evenodd" d="M157.007 144.144C157.007 144.144 154.838 141.045 156.387 140.116C157.936 139.186 159.485 140.117 160.414 138.567C161.344 137.018 160.414 136.088 160.724 134.229C161.033 132.37 162.583 132.06 164.131 131.751C165.679 131.441 170.017 130.821 170.636 132.37L168.777 126.794L165.06 125.555L153.29 132.37L152.67 135.779V142.595" fill="#EF3D3A"/>
<path fill-rule="evenodd" clip-rule="evenodd" d="M124.485 154.369C124.113 149.533 123.719 144.705 123.281 139.874C122.626 132.661 125.013 133.92 131.264 133.92C132.218 133.92 137.142 135.058 137.494 135.779C139.183 139.23 134.669 138.463 139.44 141.066C143.467 143.262 150.581 139.732 148.954 134.849C148.043 133.764 144.209 134.511 142.835 133.798C140.415 132.543 137.996 131.288 135.576 130.034C132.497 128.436 125.382 126.107 122.099 128.339C113.783 133.997 122.624 148.134 125.591 154.036" fill="#EF3D3A"/>
<path fill-rule="evenodd" clip-rule="evenodd" d="M132.635 44.5954C124.193 42.6286 119.999 48.1293 117.44 53.8345C115.155 53.2805 116.064 50.1723 116.641 48.5884C118.152 44.4318 124.242 38.8985 129.217 39.6486C131.359 39.9712 134.256 41.9296 132.635 44.5954Z" fill="#231F20"/>
<path fill-rule="evenodd" clip-rule="evenodd" d="M173.768 54.2118C173.901 54.2174 174.036 54.222 174.169 54.2276C176.076 58.1919 177.727 62.3913 180.134 65.8908C178.522 69.6469 167.926 72.9707 168.09 66.2264C170.381 65.2244 174.337 66.0219 176.368 64.742C175.194 61.5176 173.499 58.7728 173.768 54.2118Z" fill="#231F20"/>
<path fill-rule="evenodd" clip-rule="evenodd" d="M136.957 54.3149C138.767 57.6341 139.357 61.1215 141.93 63.6302C143.088 64.7595 145.342 66.1361 144.225 69.2768C143.964 70.0176 142.056 71.6693 140.955 71.9937C136.932 73.1816 127.559 72.2391 130.733 67.2227C134.06 67.3779 138.531 69.3837 141.018 66.968C139.108 63.9146 135.704 57.8739 136.957 54.3149Z" fill="#231F20"/>
<path fill-rule="evenodd" clip-rule="evenodd" d="M172.258 88.0496C166.201 91.9414 159.448 96.1734 149.524 95.1918C147.404 93.3477 146.595 89.244 148.655 86.5337C149.728 88.3778 149.054 91.7695 152.042 92.2798C157.673 93.2436 164.227 88.8341 168.277 87.293C170.789 83.0574 168.061 81.4996 165.798 78.7734C161.166 73.1881 154.953 66.2653 155.178 57.9036C157.051 56.5456 157.212 59.9764 157.481 60.601C159.9 66.2634 165.987 73.505 170.429 78.3514C171.52 79.5448 173.316 80.69 173.516 81.4791C174.092 83.774 172.017 86.5234 172.258 88.0496Z" fill="#231F20"/>
<path fill-rule="evenodd" clip-rule="evenodd" d="M92.4132 83.9524C90.5148 82.8687 90.0629 78.0948 87.8342 77.9591C84.6492 77.7658 85.23 84.1523 85.2427 87.887C83.0503 85.896 82.6648 79.766 84.2754 76.6179C82.4398 75.7162 81.6202 77.6124 80.6021 78.2807C81.9106 68.7721 94.5075 73.8703 92.4132 83.9524Z" fill="#231F20"/>
<path fill-rule="evenodd" clip-rule="evenodd" d="M176.114 92.0094C173.295 97.3772 169.307 103.289 161.034 103.461C160.866 101.727 160.737 99.0893 161.043 98.0455C167.368 97.4376 171.272 94.2179 176.114 92.0094Z" fill="#231F20"/>
<path fill-rule="evenodd" clip-rule="evenodd" d="M136.48 95.4895C141.757 98.2649 151.454 98.5633 158.626 98.3532C159.01 99.925 159.001 101.867 159.016 103.783C149.797 104.243 138.898 101.961 136.48 95.4895Z" fill="#231F20"/>
<path fill-rule="evenodd" clip-rule="evenodd" d="M135.478 100.665C139.126 109.828 151.667 108.773 162.242 108.521C161.777 109.71 160.768 111.116 159.513 111.624C156.124 113.004 146.778 114.05 142.073 111.551C139.089 109.964 137.172 106.379 135.538 104.278C134.748 103.263 130.817 100.67 135.478 100.665Z" fill="#231F20"/>
<path fill-rule="evenodd" clip-rule="evenodd" d="M171.817 151.213C167.536 158.548 163.439 166.083 158.359 172.553C160.489 166.289 161.4 155.805 161.722 147.813C166.177 145.727 169.993 148.282 171.817 151.213Z" fill="#81B0C4"/>
<path fill-rule="evenodd" clip-rule="evenodd" d="M194.858 177.578C190.064 178.538 186.696 183.198 182.019 182.899C184.589 179.275 189.093 177.747 194.858 177.578Z" fill="#231F20"/>
<path fill-rule="evenodd" clip-rule="evenodd" d="M196.973 185.083C193.066 185.495 188.476 186.128 184.513 185.802C186.389 182.936 193.618 183.925 196.973 185.083Z" fill="#231F20"/>
<path fill-rule="evenodd" clip-rule="evenodd" d="M198.327 191.553C193.935 191.648 188.477 191.56 184.303 191.21C186.772 188.557 195.479 190.225 198.327 191.553Z" fill="#231F20"/>
<path fill-rule="evenodd" clip-rule="evenodd" d="M163.555 209.259C164.185 214.775 166.372 220.365 166.098 226.407C163.67 227.226 162.275 227.942 159.022 227.938C158.792 222.803 158.105 214.954 158.311 210.059C159.911 210.165 162.27 208.916 163.555 209.259Z" fill="#DCD9D8"/>
<path fill-rule="evenodd" clip-rule="evenodd" d="M156.476 127.954C154.271 129.394 152.393 131.192 150.275 132.729C145.579 132.962 143.016 132.404 139.566 129.707C139.623 129.49 139.969 129.587 139.982 129.321C145.009 131.562 151.399 128.408 156.476 127.954Z" fill="#F0D6B7"/>
<path fill-rule="evenodd" clip-rule="evenodd" d="M130.085 162.232C131.467 156.245 136.878 153.144 141.793 149.848C146.865 156.287 149.95 164.569 153.348 172.561C145.321 170.14 137.12 166.213 130.085 162.232Z" fill="#81B0C4"/>
<path fill-rule="evenodd" clip-rule="evenodd" d="M158.311 210.059C158.105 214.954 158.792 222.803 159.021 227.938C162.275 227.942 163.669 227.226 166.097 226.407C166.371 220.365 164.185 214.775 163.555 209.259C162.27 208.916 159.911 210.165 158.311 210.059ZM107.656 182.222C109.801 201.948 112.908 218.531 118.607 235.999C131.254 239.841 146.501 240.175 157.681 236.709C155.628 226.85 156.525 214.847 155.325 204.326C154.421 196.418 154.882 188.461 153.642 180.393C140.096 177.574 120.95 179.734 107.656 182.222ZM156.845 180.517C156.731 188.989 157.224 197.346 157.871 205.829C161.123 205.341 163.33 205.015 166.352 204.352C165.371 196.186 165.492 186.996 163.493 179.773C161.183 179.795 159.149 179.746 156.845 180.517ZM173.343 179.152C171.8 178.798 170.003 179.138 168.528 179.167C169.221 186.073 170.903 193.693 171.495 200.943C173.815 201.015 175.055 199.92 176.963 199.552C177.066 193.189 176.408 184.422 173.343 179.152ZM198.324 201.983C203.16 200.808 206.202 194.882 204.849 188.797C203.941 184.707 202.324 177.006 200.594 174.39C199.315 172.455 195.849 169.921 193.08 171.694C188.578 174.579 180.645 175.416 177.361 178.907C179.008 184.391 179.519 191.924 180.198 198.872C185.823 199.223 192.745 197.324 197.424 199.339C194.157 200.398 189.919 200.406 187.097 201.948C189.404 203.063 194.803 202.838 198.324 201.983ZM153.348 172.561C149.951 164.569 146.866 156.287 141.793 149.848C136.879 153.145 131.467 156.245 130.086 162.232C137.12 166.213 145.321 170.14 153.348 172.561ZM161.722 147.813C161.4 155.806 160.489 166.289 158.359 172.553C163.439 166.083 167.536 158.549 171.818 151.213C169.993 148.282 166.177 145.727 161.722 147.813ZM152.229 144.439C150.305 144.232 148.671 146.652 146.169 145.606C145.595 146.239 145.074 146.926 144.49 147.545C150.017 154.208 152.528 163.661 156.797 171.491C159.087 163.969 158.824 155.729 159.328 147.52C156.181 147.72 154.435 144.673 152.229 144.439ZM146.125 136.38C145.92 138.662 146.45 139.409 146.909 142.024C154.408 144.369 153.099 131.729 146.125 136.38ZM137.81 133.65C134.578 131.883 129.725 129.96 125.551 129.164C120.378 128.174 120.863 136.222 121.082 141.024C121.255 144.826 123.231 148.846 124.089 151.371C124.492 152.551 124.583 153.802 125.591 154.036C127.372 154.451 133.249 152.101 134.923 151.187C138.465 149.256 141.212 146.188 144.22 144.129C144.259 143.127 144.297 142.126 144.337 141.124C142.529 140.222 140.439 139.582 137.785 139.466C139.585 138.56 142.234 138.573 143.875 137.495C143.891 137.093 143.908 136.693 143.922 136.295C140.926 136.064 139.784 134.73 137.81 133.65ZM106.947 128.042C104.266 130.765 114.469 134.478 117.717 134.678C117.699 132.954 118.699 131.33 118.498 130.093C114.639 129.416 109.569 129.863 106.947 128.042ZM139.982 129.321C139.969 129.587 139.622 129.49 139.566 129.707C143.016 132.404 145.579 132.962 150.275 132.729C152.393 131.192 154.27 129.394 156.475 127.955C151.399 128.408 145.009 131.562 139.982 129.321ZM170.304 138.518C170.159 135.493 169.364 129.271 167.495 128.181C163.571 125.89 156.595 132.807 153.64 133.862C153.962 134.788 154.493 135.522 154.533 136.705C156.281 136.274 158.409 136.569 159.924 137.314C158.172 137.51 156.23 137.497 155.071 138.331C154.647 139.559 155.175 141.232 154.893 142.937C159.05 144.11 163.798 144.735 169.054 144.889C170.076 143.56 170.425 141.028 170.304 138.518ZM102.433 130.676C101.591 130.076 95.8939 122.661 95.1134 122.969C84.8051 127.035 75.1664 134.067 66.5532 140.717C74.7654 158.344 78.0804 179.94 78.6662 200.755C88.0736 205.156 96.3366 211.501 109.102 212.163C107.625 201.708 106.277 192.381 105.438 182.538C102.231 181.185 97.6288 182.599 94.6271 182.118C94.6016 178.5 99.2114 180.534 99.5954 178.101C99.8847 176.26 97.059 176.121 97.9791 173.223C100.326 174.076 101.558 175.961 104.061 176.668C106.347 171.664 104.029 162.809 104.358 158.627C104.421 157.841 104.75 154.276 106.509 154.901C108.065 155.455 106.42 164.384 106.591 168.343C106.746 171.99 106.15 175.519 107.627 177.809C119.962 176.129 132.498 175.043 145.844 174.677C142.908 173.417 139.42 172.224 135.595 170.068C133.522 168.899 126.987 166.466 126.389 164.496C125.434 161.357 128.893 159.685 129.485 156.995C123.258 160.392 122.043 153.739 120.57 149.025C119.236 144.756 118.476 141.567 118.149 139.105C112.785 136.547 107.05 133.956 102.433 130.676ZM164.856 123.866C173.445 119.7 174.993 139.436 171.626 145.793C172.146 147.689 173.936 148.415 174.666 150.12C169.874 158.708 164.55 166.725 159.66 175.213C163.298 172.947 168.494 174.807 172.775 173.112C174.339 172.493 175.472 168.91 176.657 166.043C179.916 158.156 183.337 148.214 184.859 140.688C185.203 138.973 186.139 135.236 185.929 133.71C185.555 130.977 181.848 128.951 179.963 127.261C176.49 124.14 174.302 121.393 170.679 118.475C169.21 120.644 166.057 122.102 164.856 123.866ZM82.7906 47.6775C78.6981 52.1818 79.5548 60.6216 80.0502 66.6261C87.4475 61.9712 97.2658 66.9941 97.1733 74.9115C100.705 74.8176 98.4927 70.4992 97.8538 67.7173C95.7661 58.6306 101.371 48.7585 98.108 40.4489C91.7723 40.9295 86.5673 43.5181 82.7906 47.6775ZM112.073 21.5348C102.808 24.1615 90.9345 30.8956 87.1274 39.2211C90.0754 38.7926 92.1219 37.3054 95.03 37.1213C96.1291 37.0498 97.5689 37.5824 98.8321 37.2682C101.349 36.6436 103.474 30.9979 105.373 28.8972C107.224 26.8459 109.449 25.9694 110.972 24.0992C111.95 23.627 113.396 23.6596 113.452 22.1901C113.028 21.7365 112.581 21.3907 112.073 21.5348ZM160.302 24.0053C150.686 18.5781 134.409 14.4958 124.179 19.5968C115.925 23.7135 104.768 30.5248 100.965 39.156C104.518 47.4851 99.9119 55.1172 99.6179 63.5736C99.4618 68.0733 101.736 72.0013 101.91 76.8997C100.694 78.9064 96.9791 79.1537 94.4074 79.0161C93.5418 74.6828 92.0263 69.8123 87.5655 69.3234C81.2534 68.6328 76.6383 73.8584 76.3515 79.3191C76.0122 85.741 81.2824 96.3845 88.7524 95.6456C91.638 95.3602 92.3469 92.4667 95.491 92.4965C97.195 95.8975 92.8623 96.9654 92.4166 99.3979C92.3005 100.026 92.7759 102.482 93.0525 103.634C94.4093 109.241 97.4339 116.499 100.411 120.768C104.19 126.183 111.613 126.999 119.599 127.53C121.026 124.456 126.281 124.709 129.705 125.513C125.601 123.887 121.786 119.946 118.625 116.458C114.993 112.455 111.315 108.162 111.129 102.931C117.991 112.454 123.661 120.771 136.14 124.961C145.582 128.128 156.61 123.509 163.865 118.412C166.876 116.294 168.673 112.933 170.813 109.856C178.82 98.3355 182.556 81.891 181.735 65.9522C181.397 59.3788 181.412 52.8278 179.207 48.4053C176.902 43.7811 169.108 39.644 164.546 43.8267C163.7 39.3298 168.34 36.5488 173.789 38.167C169.903 33.1506 165.825 27.1228 160.302 24.0053ZM178.218 172.321C185.732 168.584 199.773 162.263 204.484 172.335C206.222 176.047 208.262 182.323 209.162 186.155C210.434 191.562 207.783 202.926 202.228 204.741C197.32 206.343 191.595 206.245 185.684 205.057C184.988 204.478 184.213 203.469 183.671 202.417C179.451 202.253 175.499 202.643 172.165 204.379C172.481 207.501 170.37 208.002 168.391 208.645C166.923 214.465 171.326 222.064 170.272 227.371C169.521 231.151 164.871 231.736 161.453 232.443C161.342 234.544 161.603 236.297 161.836 238.075C161.055 240.955 157.55 242.595 154.229 242.996C143.302 244.311 126.712 244.901 116.202 241.12C113.269 233.925 110.959 225.172 108.516 216.956C98.2659 218.051 89.9756 212.531 82.1602 208.916C79.4542 207.661 75.7109 206.97 74.7 204.815C73.72 202.729 74.1211 198.731 73.8779 194.955C73.259 185.309 72.7291 176.006 70.1828 166.13C69.0395 161.699 67.0468 157.788 65.6566 153.518C64.3717 149.56 62.1267 144.67 61.5412 140.723C60.6731 134.874 66.1792 134.548 69.7001 132.014C75.1428 128.094 79.415 125.926 85.3096 122.389C87.0555 121.341 92.3204 118.689 92.9193 117.468C94.1098 115.047 90.8758 111.633 90.0112 109.735C88.6435 106.733 87.9302 104.184 87.7343 101.223C82.7895 100.441 79.0411 97.4971 76.7769 94.1779C73.0315 88.6846 70.434 78.5216 73.6746 70.7911C73.9287 70.1823 75.1961 68.9851 75.3831 68.05C75.7519 66.2087 74.6891 63.7604 74.623 61.802C74.2826 51.7542 76.3225 43.097 83.0846 40.0669C85.8298 29.1277 95.655 25.4907 104.912 20.0541C108.372 18.0222 112.186 16.7237 116.126 15.2737C130.257 10.0714 151.939 11.0511 163.667 19.924C168.641 23.6865 176.59 31.6309 179.433 37.3825C186.943 52.5676 186.41 77.9453 181.157 96.417C180.451 98.8969 179.427 102.542 177.997 105.521C177 107.602 173.901 111.764 174.277 113.6C174.665 115.499 181.343 120.572 182.775 121.953C185.353 124.441 190.252 127.744 190.649 130.883C191.075 134.225 189.177 138.796 188.215 142.02C185 152.781 181.863 162.728 178.218 172.321Z" fill="#231F20"/>
<path fill-rule="evenodd" clip-rule="evenodd" d="M128.084 97.8335C128.492 97.2907 130.733 96.4663 133.869 97.9767C133.869 97.9767 130.153 98.5967 130.462 104.795L128.913 104.485C128.913 104.485 127.312 98.8643 128.084 97.8335Z" fill="#F7E4CD"/>
<path fill-rule="evenodd" clip-rule="evenodd" d="M155.241 151.113C155.241 152.053 154.478 152.816 153.537 152.816C152.597 152.816 151.834 152.053 151.834 151.113C151.834 150.172 152.597 149.408 153.537 149.408C154.478 149.408 155.241 150.172 155.241 151.113Z" fill="#1D1919"/>
<path fill-rule="evenodd" clip-rule="evenodd" d="M156.944 159.013C156.944 159.954 156.182 160.717 155.24 160.717C154.3 160.717 153.537 159.954 153.537 159.013C153.537 158.072 154.3 157.309 155.24 157.309C156.182 157.309 156.944 158.072 156.944 159.013Z" fill="#1D1919"/>
</svg>
