<svg width="256" height="256" viewBox="0 0 256 256" fill="none" xmlns="http://www.w3.org/2000/svg">
<g clip-path="url(#clip0_2928_10521)">
<path d="M233.225 126.285C233.225 112.824 223.026 101.496 209.334 98.264L239.999 16.1978H88.0292L118.764 98.523C105.503 102.016 95.7274 113.146 95.7274 126.353C95.7274 136.059 101.079 144.665 109.208 149.971C106.002 154.114 102.29 157.934 98.0847 161.556C90.1694 168.29 81.3914 173.465 71.9099 176.897C63.3524 171.654 59.6459 162.398 62.9954 154.112C76.0452 150.489 85.5354 139.422 85.5354 126.415C85.5354 110.432 71.1994 97.4835 53.6504 97.4835C36.0349 97.4835 21.7077 110.493 21.7077 126.481C21.7077 134.379 25.2689 141.624 30.9774 146.798C30.4769 147.708 29.9799 148.61 29.4794 149.581C24.7019 158.517 19.2804 168.612 17.2084 179.94C13.0732 202.587 19.8474 220.778 36.1784 231.066C45.3799 236.829 55.5107 239.741 66.4219 239.741C85.1714 239.741 104.217 231.196 122.613 222.91C135.738 217.024 149.286 210.871 162.623 207.898C167.546 206.797 172.678 206.148 178.1 205.438C189.078 204.015 200.419 202.525 210.618 197.153C222.527 190.878 230.656 180.39 233.013 168.353C234.789 159.096 233.013 149.779 228.446 141.624C231.566 137.118 233.234 131.766 233.225 126.285ZM219.321 126.285C219.321 135.28 211.261 142.595 201.349 142.595C191.437 142.595 183.376 135.28 183.376 126.285C183.376 123.371 184.232 120.59 185.728 118.197C186.297 117.287 187.014 116.385 187.723 115.607C188.474 114.806 189.312 114.09 190.22 113.473L190.296 113.405C190.863 113.017 191.505 112.626 192.147 112.243C192.147 112.243 192.217 112.243 192.217 112.175C192.502 112.045 192.789 111.853 193.078 111.723C193.146 111.723 193.215 111.655 193.288 111.655C193.577 111.533 193.932 111.403 194.286 111.272C194.623 111.154 194.956 111.024 195.285 110.883C195.355 110.883 195.428 110.813 195.497 110.813C195.784 110.754 196.071 110.623 196.352 110.561C196.428 110.561 196.571 110.493 196.639 110.493C196.995 110.432 197.282 110.364 197.637 110.301H197.712L198.78 110.103C198.853 110.103 198.99 110.103 199.065 110.042C199.352 110.042 199.634 109.973 199.921 109.973H200.276C200.631 109.973 200.993 109.912 201.417 109.912H202.346C202.626 109.912 202.847 109.912 203.127 109.973H203.27C203.844 110.043 204.411 110.103 204.985 110.234C213.114 111.785 219.321 118.389 219.321 126.285ZM107.921 29.139H220.1L194.356 98.0663C193.288 98.264 192.215 98.5843 191.15 98.9063L164.053 48.7513L136.879 98.5825C135.806 98.2623 134.665 98.0645 133.529 97.872L107.921 29.139ZM158.911 120.65C157.558 114.565 154.134 109.132 149.286 105.119L164.053 78.069L178.954 105.7C174.532 109.713 171.324 114.826 170.039 120.65H158.911ZM123.187 110.43C123.542 110.36 123.829 110.301 124.184 110.232H124.396C124.683 110.171 124.972 110.171 125.252 110.101H125.539C125.826 110.101 126.037 110.04 126.324 110.04H129.107C129.387 110.04 129.606 110.101 129.817 110.101C129.961 110.101 130.029 110.101 130.173 110.171C130.46 110.232 130.671 110.232 130.96 110.301C131.027 110.301 131.102 110.301 131.245 110.362C131.602 110.43 131.958 110.491 132.243 110.56H132.313C132.6 110.621 132.887 110.682 133.167 110.813C133.242 110.813 133.31 110.882 133.454 110.882C133.666 110.943 133.953 111.011 134.164 111.141C134.24 111.141 134.308 111.202 134.383 111.202C134.663 111.333 134.952 111.401 135.239 111.531H135.307C135.662 111.653 135.949 111.783 136.236 111.982H136.306C136.592 112.112 136.879 112.303 137.166 112.432C137.236 112.432 137.236 112.502 137.302 112.502C137.589 112.625 137.803 112.822 138.09 112.952L138.165 113.013C139.019 113.596 139.805 114.245 140.583 114.894L140.659 114.956C141.371 115.666 142.081 116.445 142.655 117.286C144.509 119.877 145.581 122.92 145.581 126.22C145.581 135.217 137.521 142.525 127.609 142.525C117.697 142.525 109.636 135.217 109.636 126.22C109.563 118.646 115.34 112.241 123.187 110.43ZM53.0082 109.972C62.9219 109.972 70.9807 117.287 70.9807 126.282C70.9807 135.278 62.9219 142.591 53.0082 142.591C43.0962 142.591 35.0357 135.278 35.0357 126.282C35.0357 117.287 43.0962 109.972 53.0082 109.972ZM218.891 166.089C217.324 174.366 211.684 181.62 203.414 185.953C195.64 190.034 186.083 191.326 176.028 192.619C170.54 193.329 164.763 194.108 159.198 195.338C144.365 198.641 130.104 205.114 116.269 211.321C98.5834 219.285 81.8902 226.791 66.4219 226.791C58.3614 226.791 51.1567 224.721 44.3142 220.386C28.6254 210.549 29.4042 192.106 31.2644 182.008C32.9724 172.555 37.7517 163.69 42.3174 155.213C42.5974 154.693 42.8162 154.241 43.0962 153.721C44.6694 154.241 46.3092 154.632 48.0189 154.891C45.3117 168.611 53.0082 182.782 67.9864 189.775L70.6989 191.067L73.6197 190.095C86.1024 186.083 97.6542 179.548 107.853 170.81C113.63 165.889 118.553 160.585 122.688 154.822C124.328 155.083 125.969 155.151 127.609 155.151C142.444 155.151 154.919 145.894 158.488 133.467H170.465C174.033 145.957 186.514 155.15 201.349 155.15C207.269 155.15 212.759 153.662 217.461 151.139C219.321 155.991 219.888 161.036 218.891 166.089Z" fill="#99425B"/>
</g>
<defs>
<clipPath id="clip0_2928_10521">
<rect width="224" height="224" fill="white" transform="translate(16 16)"/>
</clipPath>
</defs>
</svg>
