<svg width="256" height="256" viewBox="0 0 256 256" fill="none" xmlns="http://www.w3.org/2000/svg">
<rect width="256" height="256" fill="#F7DF1E"/>
<path d="M60.001 213.044L80.4321 200.671C84.3744 207.664 87.96 213.581 96.561 213.581C104.805 213.581 110.004 210.354 110.004 197.802V112.436H135.094V198.156C135.094 224.16 119.861 235.997 97.6363 235.997C77.5651 235.997 65.9145 225.595 60 213.042M148.722 210.353L169.151 198.518C174.53 207.306 181.519 213.762 193.884 213.762C204.281 213.762 210.91 208.56 210.91 201.386C210.91 192.779 204.1 189.729 192.63 184.709L186.359 182.017C168.256 174.308 156.249 164.623 156.249 144.179C156.249 125.348 170.586 111 192.989 111C208.94 111 220.41 116.56 228.654 131.086L209.117 143.641C204.815 135.93 200.158 132.881 192.988 132.881C185.64 132.881 180.98 137.544 180.98 143.641C180.98 151.173 185.64 154.223 196.393 158.886L202.665 161.576C223.993 170.723 236 180.048 236 201.028C236 223.627 218.258 236 194.421 236C171.123 236 156.069 224.881 148.721 210.354" fill="black"/>
</svg>
