<svg width="256" height="256" viewBox="0 0 256 256" fill="none" xmlns="http://www.w3.org/2000/svg">
<path d="M144.569 77.3342L144.349 18.3335H111.449L111.669 77.3342L128.119 99.9255L144.569 77.3342Z" fill="white"/>
<path d="M111.668 178.448V237.668H144.568V178.448L128.118 155.856L111.668 178.448Z" fill="white"/>
<path d="M144.551 178.446L179.205 226.26L205.745 206.959L171.09 159.144L144.551 150.59V178.446Z" fill="#00F2E6"/>
<path d="M111.667 77.3336L76.7932 29.519L50.2539 48.8203L84.9086 96.6349L111.667 105.189V77.3336Z" fill="#00F2E6"/>
<path d="M84.8988 96.6348L28.7495 78.4302L18.6602 109.576L74.8095 128L101.349 119.226L84.8988 96.6348Z" fill="#00B9F1"/>
<path d="M154.652 136.554L171.102 159.145L227.252 177.35L237.341 146.205L181.192 128L154.652 136.554Z" fill="#00B9F1"/>
<path d="M181.192 128L237.341 109.576L227.252 78.4302L171.102 96.6348L154.652 119.226L181.192 128Z" fill="#D63AFF"/>
<path d="M74.8095 128L18.6602 146.205L28.7495 177.35L84.8988 159.145L101.349 136.554L74.8095 128Z" fill="#D63AFF"/>
<path d="M84.9086 159.144L50.2539 206.959L76.7932 226.26L111.667 178.446V150.59L84.9086 159.144Z" fill="#FB015B"/>
<path d="M171.09 96.6349L205.745 48.8203L179.205 29.519L144.551 77.3336V105.189L171.09 96.6349Z" fill="#FB015B"/>
</svg>
