<svg width="256" height="256" viewBox="0 0 256 256" fill="none" xmlns="http://www.w3.org/2000/svg">
<rect width="256" height="256" fill="white"/>
<path d="M105.492 32.6239C102.936 30.056 99.3714 28.4701 95.408 28.4701C91.4595 28.4701 87.922 30.056 85.3966 32.6239H85.324C82.776 35.1794 81.1902 38.747 81.1902 42.6954C81.1902 46.6589 82.776 50.1964 85.324 52.7368L85.3966 52.7944C87.922 55.3499 91.4595 56.9207 95.408 56.9207C99.3714 56.9207 102.936 55.3499 105.492 52.7944L105.53 52.7368C108.09 50.1964 109.661 46.6589 109.661 42.6954C109.661 38.747 108.09 35.1794 105.53 32.6239H105.492ZM95.408 227.346C99.3714 227.346 102.936 225.733 105.492 223.208L105.53 223.132C108.09 220.612 109.661 217.044 109.661 213.124C109.661 209.16 108.09 205.608 105.53 203.04H105.492C102.936 200.442 99.3714 198.871 95.408 198.871C91.4595 198.871 87.922 200.442 85.3966 203.04H85.324C82.776 205.608 81.1902 209.16 81.1902 213.124C81.1902 217.044 82.776 220.612 85.324 223.132L85.3966 223.208C87.922 225.733 91.4595 227.346 95.408 227.346ZM172.913 184.25C176.438 183.325 179.63 181.063 181.577 177.643L181.84 177.144C183.571 173.9 183.886 170.157 182.962 166.84C182.03 163.287 179.74 160.146 176.328 158.179L176.13 158.046C172.805 156.225 169.017 155.829 165.537 156.768C162 157.65 158.823 160.013 156.886 163.405C154.925 166.765 154.514 170.641 155.453 174.208C156.423 177.716 158.69 180.887 162.08 182.869H162.103C165.5 184.821 169.348 185.174 172.913 184.25ZM110.007 113.331C106.269 109.603 101.118 107.268 95.408 107.268C89.7208 107.268 84.5824 109.603 80.8519 113.331C77.139 117.046 74.8491 122.185 74.8491 127.879C74.8491 133.589 77.139 138.743 80.8519 142.501C84.5824 146.198 89.7208 148.518 95.408 148.518C101.118 148.518 106.269 146.198 110.007 142.501C113.727 138.743 116.017 133.589 116.017 127.879C116.017 122.185 113.727 117.046 110.007 113.331ZM101.799 89.0843C110.072 90.4472 117.515 94.4106 123.195 100.135H123.24C124.142 101.045 125.024 102.029 125.838 103.026L140.041 94.809C138.131 89.0392 138.044 83.0063 139.577 77.3543C141.604 69.7781 146.514 62.9962 153.875 58.7396L154.118 58.5943C161.399 54.468 169.676 53.6162 177.15 55.643C184.716 57.6673 191.543 62.6003 195.792 69.956V69.971C200.021 77.2816 200.88 85.677 198.861 93.2231C196.849 100.794 191.916 107.621 184.563 111.848L182.624 112.995H182.426C175.624 116.237 168.143 116.738 161.273 114.932C155.631 113.434 150.455 110.292 146.404 105.815L132.224 114.007C133.852 118.322 134.757 122.976 134.757 127.879C134.757 132.767 133.852 137.48 132.224 141.824L146.404 149.987C150.455 145.452 155.631 142.368 161.273 140.87C168.839 138.8 177.23 139.682 184.563 143.954L185.031 144.174V144.204C192.117 148.488 196.872 155.125 198.861 162.611C200.88 170.112 200.021 178.51 195.792 185.835L195.536 186.349L195.506 186.304C191.257 193.366 184.563 198.152 177.172 200.176C169.589 202.173 161.201 201.321 153.875 197.109V197.049C146.514 192.793 141.604 185.996 139.577 178.437C138.044 172.8 138.131 166.765 140.041 160.997L125.838 152.805C125.024 153.805 124.142 154.744 123.24 155.654L123.195 155.696C117.515 161.393 110.072 165.357 101.799 166.677V183.09C107.694 184.322 112.978 187.273 117.119 191.412L117.139 191.457C122.689 196.977 126.123 204.668 126.123 213.124C126.123 221.552 122.689 229.195 117.139 234.745L117.119 234.832C111.532 240.382 103.863 243.816 95.408 243.816C86.9975 243.816 79.3187 240.382 73.7468 234.832H73.7267V234.745C68.1699 229.195 64.7276 221.552 64.7276 213.124C64.7276 204.668 68.1699 196.977 73.7267 191.457V191.412H73.7468C77.8806 187.273 83.1719 184.322 89.0519 183.09V166.677C80.7718 165.357 73.3509 161.393 67.6789 155.696L67.6187 155.654C60.5286 148.533 56.0967 138.743 56.0967 127.879C56.0967 117.046 60.5286 107.255 67.6187 100.135H67.6789C73.3509 94.4106 80.7718 90.4472 89.0519 89.0843V72.7444C83.1719 71.4667 77.8806 68.5179 73.7468 64.4067H73.7267V64.3616C68.1699 58.7847 64.7276 51.1509 64.7276 42.6954C64.7276 34.2825 68.1699 26.5761 73.7267 21.0267L73.7468 20.9992C79.3187 15.4348 86.9975 12 95.408 12C103.863 12 111.532 15.4348 117.119 20.9992V21.0267H117.139C122.689 26.5761 126.123 34.2825 126.123 42.6954C126.123 51.1509 122.689 58.7847 117.139 64.3616L117.119 64.4067C112.978 68.5179 107.694 71.4667 101.799 72.7444V89.0843ZM181.577 78.191L181.459 78.0157C179.497 74.7111 176.37 72.5089 172.913 71.5544C169.348 70.6149 165.5 71.0132 162.08 72.9649H162.103C158.69 74.9015 156.408 78.0733 155.453 81.6259C154.514 85.1484 154.925 89.0392 156.886 92.4289L156.952 92.5191C158.918 95.8637 162.045 98.1085 165.537 99.0179C169.047 100.003 172.958 99.5916 176.328 97.625L176.511 97.5373C179.828 95.5555 182.038 92.4289 182.962 88.9941C183.902 85.4565 183.528 81.5808 181.577 78.191Z" fill="#1A1919"/>
</svg>
