<svg width="256" height="256" viewBox="0 0 256 256" fill="none" xmlns="http://www.w3.org/2000/svg">
<rect width="256" height="256" fill="white"/>
<path d="M127.447 15.5198C125.401 15.6231 123.396 16.1314 121.55 17.0148L41.0688 55.5339C38.9858 56.5304 37.1555 57.9803 35.7139 59.776C34.2723 61.5716 33.2565 63.6668 32.7418 65.9061L12.8867 152.43C12.4282 154.423 12.3769 156.488 12.7358 158.501C13.0947 160.515 13.8565 162.437 14.9761 164.153C15.2476 164.572 15.5396 164.978 15.851 165.369L71.5566 234.747C72.9985 236.542 74.829 237.992 76.9121 238.987C78.9952 239.983 81.2773 240.5 83.5891 240.5L172.922 240.479C175.233 240.481 177.514 239.966 179.597 238.972C181.68 237.977 183.511 236.53 184.954 234.737L240.639 165.349C242.082 163.552 243.099 161.456 243.614 159.216C244.129 156.976 244.129 154.649 243.614 152.409L223.728 65.8854C223.213 63.6462 222.197 61.551 220.756 59.7553C219.314 57.9597 217.484 56.5098 215.401 55.5133L134.91 17.0148C132.588 15.9035 130.022 15.3895 127.447 15.5198Z" fill="#326CE5"/>
<path d="M128.245 45C125.588 45.0003 123.434 47.3995 123.434 50.3591C123.434 50.4045 123.443 50.4479 123.444 50.4931C123.44 50.8952 123.421 51.3796 123.434 51.7298C123.497 53.4367 123.868 54.7432 124.092 56.3159C124.497 59.6819 124.836 62.4722 124.626 65.0656C124.423 66.0436 123.704 66.938 123.064 67.5596L122.951 69.6002C120.064 69.84 117.157 70.2792 114.254 70.94C101.762 73.7835 91.0063 80.2344 82.8177 88.9444C82.2863 88.581 81.3568 87.9124 81.0804 87.7077C80.2214 87.824 79.3532 88.0897 78.2225 87.4294C76.0695 85.9765 74.1086 83.971 71.7358 81.5551C70.6486 80.3994 69.8613 79.299 68.5696 78.185C68.2763 77.9321 67.8286 77.5899 67.5005 77.3296C66.4906 76.5225 65.2995 76.1015 64.1492 76.062C62.6702 76.0112 61.2465 76.5909 60.3148 77.7625C58.6584 79.8452 59.1887 83.0286 61.497 84.8736C61.5204 84.8923 61.5453 84.9068 61.5689 84.9251C61.8861 85.1829 62.2745 85.5132 62.5661 85.729C63.9368 86.7436 65.1889 87.263 66.5547 88.0684C69.4321 89.8499 71.8175 91.327 73.7096 93.108C74.4484 93.8976 74.5776 95.2889 74.6759 95.8906L76.2179 97.2716C67.9632 109.726 64.1428 125.109 66.4005 140.783L64.3857 141.371C63.8546 142.058 63.1042 143.14 62.3194 143.463C59.8439 144.244 57.0579 144.531 53.6944 144.885C52.1153 145.017 50.7528 144.938 49.0787 145.256C48.7103 145.326 48.1969 145.46 47.7937 145.555C47.7797 145.558 47.7666 145.562 47.7526 145.565C47.7306 145.57 47.7018 145.581 47.6807 145.586C44.845 146.273 43.0233 148.886 43.6098 151.46C44.1964 154.035 46.9662 155.601 49.8189 154.985C49.8395 154.98 49.8694 154.979 49.8909 154.974C49.9231 154.967 49.9514 154.951 49.9834 154.943C50.381 154.856 50.8794 154.759 51.2272 154.665C52.8731 154.223 54.0652 153.574 55.5448 153.006C58.7282 151.861 61.3647 150.905 63.9333 150.533C65.0061 150.448 66.1364 151.196 66.6986 151.512L68.7958 151.151C73.6217 166.151 83.7352 178.274 96.5415 185.882L95.6677 187.984C95.9826 188.801 96.33 189.905 96.0954 190.711C95.1616 193.139 93.5621 195.701 91.7407 198.558C90.8588 199.878 89.9563 200.902 89.1604 202.412C88.97 202.774 88.7275 203.329 88.5436 203.711C87.3071 206.363 88.2141 209.418 90.5893 210.564C92.9795 211.718 95.9463 210.501 97.2302 207.844C97.2322 207.84 97.2387 207.837 97.2405 207.833C97.2418 207.83 97.2392 207.826 97.2405 207.823C97.4234 207.446 97.6824 206.951 97.8367 206.597C98.5184 205.031 98.7452 203.69 99.2245 202.175C100.497 198.97 101.197 195.606 102.949 193.511C103.429 192.937 104.211 192.716 105.022 192.498L106.112 190.52C117.276 194.816 129.773 195.968 142.257 193.127C145.104 192.479 147.854 191.64 150.511 190.633C150.818 191.177 151.387 192.224 151.539 192.488C152.364 192.757 153.263 192.896 153.996 193.982C155.307 196.228 156.204 198.884 157.296 202.093C157.776 203.607 158.013 204.949 158.694 206.514C158.85 206.871 159.107 207.373 159.291 207.751C160.572 210.417 163.548 211.638 165.942 210.482C168.317 209.335 169.225 206.281 167.987 203.629C167.804 203.247 167.551 202.691 167.36 202.33C166.564 200.82 165.662 199.806 164.78 198.486C162.959 195.629 161.448 193.256 160.514 190.829C160.123 189.577 160.58 188.798 160.884 187.984C160.702 187.775 160.312 186.592 160.082 186.036C173.391 178.158 183.207 165.582 187.818 151.058C188.44 151.156 189.522 151.348 189.874 151.419C190.597 150.94 191.262 150.316 192.567 150.419C195.135 150.792 197.772 151.748 200.955 152.893C202.435 153.461 203.627 154.12 205.273 154.562C205.621 154.656 206.119 154.743 206.517 154.83C206.549 154.838 206.577 154.854 206.609 154.861C206.631 154.866 206.661 154.867 206.681 154.871C209.534 155.487 212.304 153.922 212.89 151.347C213.476 148.772 211.655 146.158 208.82 145.472C208.407 145.378 207.822 145.219 207.421 145.143C205.747 144.825 204.385 144.903 202.806 144.772C199.442 144.418 196.656 144.131 194.181 143.349C193.171 142.957 192.453 141.753 192.104 141.257L190.161 140.69C191.169 133.384 190.897 125.78 189.154 118.172C187.394 110.493 184.285 103.47 180.138 97.2819C180.637 96.8277 181.578 95.9921 181.845 95.7463C181.923 94.8809 181.856 93.9735 182.749 93.0152C184.641 91.2342 187.027 89.7573 189.904 87.9757C191.27 87.1701 192.533 86.6509 193.903 85.6362C194.213 85.4068 194.636 85.0434 194.962 84.7808C197.27 82.9352 197.801 79.7521 196.144 77.6697C194.487 75.5874 191.277 75.3913 188.969 77.2369C188.64 77.4977 188.195 77.8379 187.9 78.0923C186.608 79.2063 185.81 80.3066 184.723 81.4623C182.351 83.8783 180.389 85.894 178.237 87.347C177.304 87.8915 175.937 87.7031 175.317 87.6665L173.487 88.9753C163.053 78.0064 148.847 70.9934 133.549 69.6311C133.507 68.9885 133.451 67.8268 133.436 67.4772C132.81 66.8764 132.054 66.3635 131.864 65.0656C131.654 62.4722 132.004 59.6819 132.408 56.3159C132.632 54.7432 133.003 53.4367 133.066 51.7298C133.081 51.3417 133.058 50.7786 133.056 50.3591C133.056 47.3995 130.902 44.9997 128.245 45ZM122.221 82.4105L120.792 107.711L120.689 107.763C120.593 110.026 118.735 111.834 116.454 111.834C115.519 111.834 114.657 111.533 113.956 111.02L113.915 111.04L93.221 96.3337C99.581 90.0641 107.716 85.4308 117.091 83.2968C118.804 82.9069 120.516 82.6177 122.221 82.4105ZM134.279 82.4105C145.225 83.7601 155.348 88.7288 163.104 96.344L142.544 110.958L142.472 110.927C140.648 112.263 138.076 111.932 136.654 110.144C136.071 109.411 135.766 108.55 135.729 107.681L135.708 107.67L134.279 82.4105ZM85.7166 105.784L104.611 122.727L104.591 122.83C106.296 124.317 106.548 126.896 105.125 128.684C104.543 129.416 103.763 129.908 102.925 130.137L102.905 130.22L78.6851 137.228C77.4524 125.927 80.1091 114.943 85.7166 105.784ZM170.64 105.795C173.447 110.356 175.573 115.451 176.839 120.975C178.089 126.433 178.403 131.88 177.887 137.145L153.544 130.116L153.523 130.013C151.344 129.416 150.004 127.193 150.511 124.964C150.719 124.05 151.203 123.277 151.858 122.707L151.848 122.655L170.64 105.795ZM124.369 124.036H132.11L136.921 130.065L135.194 137.588L128.245 140.938L121.275 137.578L119.548 130.055L124.369 124.036ZM149.185 144.668C149.514 144.652 149.842 144.681 150.162 144.741L150.203 144.689L175.255 148.935C171.589 159.262 164.573 168.208 155.199 174.195L145.474 150.646L145.505 150.605C144.612 148.524 145.506 146.083 147.561 145.091C148.087 144.837 148.637 144.696 149.185 144.668ZM107.109 144.771C109.021 144.798 110.736 146.129 111.18 148.08C111.388 148.993 111.287 149.898 110.944 150.697L111.016 150.79L101.394 174.102C92.3975 168.315 85.2321 159.649 81.399 149.018L106.236 144.792L106.277 144.844C106.554 144.792 106.836 144.768 107.109 144.771ZM128.091 154.985C128.757 154.96 129.432 155.097 130.075 155.407C130.917 155.814 131.567 156.454 131.977 157.221H132.069L144.313 179.399C142.724 179.933 141.09 180.39 139.419 180.77C130.056 182.901 120.722 182.256 112.27 179.368L124.483 157.231H124.503C125.236 155.858 126.626 155.039 128.091 154.985Z" fill="white" stroke="white" stroke-width="0.25"/>
</svg>
