<svg width="256" height="256" viewBox="0 0 256 256" fill="none" xmlns="http://www.w3.org/2000/svg">
<g clip-path="url(#clip0_2657_7894)">
<rect width="256" height="256" fill="black"/>
<path fill-rule="evenodd" clip-rule="evenodd" d="M-14 -14L270 -13.9999V127.873L270 270L-14 270L-14 127.873V-14ZM121.108 174.938C123.224 177.146 126.356 177.031 129.13 176.458L129.158 176.472C130.445 175.44 128.615 174.135 126.87 172.888C125.812 172.143 124.797 171.426 124.497 170.781C125.469 169.634 122.595 166.982 120.365 164.932C119.602 164.275 118.885 163.566 118.22 162.81C116.647 161.104 116.003 158.968 115.36 156.817C114.931 155.384 114.502 153.95 113.787 152.631C109.44 142.682 104.45 132.805 97.4439 124.39C92.9398 118.798 87.8066 113.781 82.6734 108.763C79.3366 105.558 76.0803 102.269 72.9075 98.9002C69.676 95.6173 67.7314 91.5745 65.7725 87.5175C64.1424 84.1342 62.5124 80.7366 60.1102 77.769C52.8608 67.2321 29.9831 64.3506 26.6229 79.26C26.6229 79.7187 26.4799 80.0055 26.0652 80.3065C24.2064 81.6541 22.5621 83.1737 21.1751 84.9944C17.772 89.6679 17.2573 97.567 21.4897 101.767L21.504 101.495C21.647 99.3876 21.79 97.3949 23.4915 95.8897C26.7516 98.6565 31.7275 99.6457 35.5166 97.567C40.0922 104.018 41.5506 111.831 43.0234 119.644C44.2388 126.181 45.4542 132.719 48.4855 138.51L48.6856 138.826C50.4587 141.736 52.2603 144.704 54.5481 147.241C55.3917 148.517 57.0932 149.879 58.7948 151.241C61.0396 153.033 63.2845 154.825 63.499 156.387V158.437C63.4847 162.523 63.4704 166.752 66.1299 170.092C67.6027 173.031 63.9852 175.97 61.0968 175.612C59.4954 175.827 57.7653 175.411 56.0351 175.01C53.6759 174.436 51.3309 173.892 49.4292 174.967C48.8858 175.54 48.128 175.54 47.3559 175.569C46.4408 175.597 45.5113 175.626 44.968 176.572C44.8536 176.845 44.5962 177.146 44.3246 177.475C43.724 178.192 43.0806 178.981 43.8527 179.569L44.0672 179.425C45.2397 178.536 46.355 177.705 47.9278 178.221C47.7276 179.368 48.4855 179.683 49.2433 179.984L49.6294 180.156C49.6133 180.427 49.575 180.695 49.515 180.959C49.3863 181.604 49.2719 182.221 49.7723 182.78C50.0067 182.535 50.2263 182.277 50.4301 182.006C50.9591 181.346 51.4739 180.687 52.4176 180.429C54.4766 183.152 56.5499 182.02 59.1522 180.615C62.0977 179.024 65.7153 177.06 70.7341 179.827C68.8038 179.741 67.088 179.97 65.8011 181.547C65.4722 181.891 65.2005 182.292 65.7725 182.751C68.7323 180.859 69.9763 181.533 71.1345 182.178C71.9924 182.636 72.7788 183.081 74.1658 182.522L75.1667 182.006C77.383 180.816 79.6564 179.626 82.3017 180.042C80.3142 180.601 79.6135 181.834 78.8414 183.167C78.4696 183.841 78.0693 184.529 77.4973 185.174C77.1971 185.475 77.0684 185.833 77.3973 186.321C81.5439 185.991 83.1167 184.959 85.2329 183.568C86.2338 182.909 87.3777 182.149 88.9648 181.361C90.7379 180.285 92.5109 180.973 94.2267 181.647C96.0855 182.364 97.8729 183.052 99.5315 181.447C100.061 180.973 100.718 180.959 101.376 180.959C101.605 180.959 101.848 180.959 102.091 180.93C101.562 178.207 98.6593 178.235 95.6852 178.264C92.2535 178.307 88.7789 178.35 88.8933 174.121C92.0676 171.985 92.0962 168.286 92.1248 164.788C92.1248 163.928 92.1248 163.111 92.1963 162.308C94.527 163.598 97.0006 164.602 99.46 165.591C101.776 166.523 104.078 167.455 106.238 168.602C108.497 172.186 112.014 176.916 116.704 176.601C116.819 176.228 116.933 175.927 117.076 175.554C117.348 175.612 117.634 175.669 117.92 175.755C119.149 176.042 120.465 176.372 121.108 174.938ZM213.034 134.382C215.751 137.048 219.425 138.539 223.272 138.539C227.118 138.539 230.793 137.048 233.509 134.382C234.848 133.077 235.914 131.517 236.643 129.794C237.372 128.071 237.751 126.218 237.756 124.346C237.751 122.474 237.372 120.622 236.643 118.899C235.914 117.176 234.848 115.616 233.509 114.311C231.509 112.354 228.993 111.012 226.256 110.443C223.52 109.874 220.678 110.102 218.067 111.1L209.774 99.1869L203.983 103.086L212.319 115.057C209.941 117.754 208.689 121.265 208.822 124.863C208.955 128.46 210.463 131.868 213.034 134.382ZM187.053 95.818C189.457 96.9848 192.131 97.4744 194.791 97.2346C197.451 96.9947 199.995 96.0342 202.153 94.4561C204.618 92.6564 206.438 90.1074 207.343 87.1877C208.239 84.2797 208.159 81.1573 207.114 78.2995C206.054 75.4272 204.098 72.9741 201.538 71.3035C198.691 69.4313 195.284 68.608 191.899 68.974C188.514 69.34 185.361 70.8728 182.978 73.3106C181.431 74.9139 180.283 76.8615 179.63 78.9941C178.976 81.1268 178.835 83.3843 179.218 85.5821C179.62 87.7733 180.537 89.8372 181.891 91.6032C183.25 93.3952 185.023 94.8288 187.053 95.818ZM187.053 178.278C189.458 179.442 192.132 179.93 194.791 179.69C197.45 179.45 199.994 178.492 202.153 176.916C204.618 175.117 206.438 172.568 207.343 169.648C208.239 166.74 208.159 163.618 207.114 160.76C206.054 157.888 204.098 155.434 201.538 153.764C198.692 151.889 195.285 151.064 191.899 151.43C188.513 151.796 185.36 153.331 182.978 155.771C181.43 157.374 180.282 159.321 179.628 161.454C178.975 163.587 178.834 165.845 179.218 168.042C179.62 170.234 180.537 172.297 181.891 174.064C183.25 175.856 185.023 177.289 187.053 178.278ZM200.351 127.873V120.82H178.188C177.627 118.67 176.563 116.685 175.085 115.028L183.436 102.886L177.359 98.9289L169.023 111.071C166.467 110.179 163.715 110.015 161.072 110.597C158.429 111.179 155.999 112.485 154.052 114.369C152.718 115.664 151.656 117.215 150.929 118.928C150.202 120.642 149.825 122.484 149.82 124.346C149.82 128.088 151.35 131.687 154.052 134.324C155.999 136.208 158.429 137.514 161.072 138.096C163.715 138.678 166.467 138.514 169.023 137.622L177.359 149.764L183.364 145.807L175.085 133.665C176.563 132.008 177.627 130.023 178.188 127.873H200.351Z" fill="#EBEBEB"/>
</g>
<defs>
<clipPath id="clip0_2657_7894">
<rect width="256" height="256" fill="white"/>
</clipPath>
</defs>
</svg>
