<svg width="256" height="256" viewBox="0 0 256 256" fill="none" xmlns="http://www.w3.org/2000/svg">
<g clip-path="url(#clip0_2657_7893)">
<rect width="256" height="256" fill="black"/>
<path d="M-12 -11.9999V128V198V268H268V132.667V-12L-12 -11.9999ZM45.141 70.5269C51.9212 70.6987 59.169 73.9845 62.6485 79.1541C67.6999 85.5151 69.2196 93.9317 74.9491 99.8383C82.6562 108.313 91.4389 115.775 98.5505 124.8C105.278 133.048 110.084 142.721 114.278 152.47C115.989 155.705 116.007 159.676 118.542 162.44C119.79 164.107 125.894 168.65 124.57 170.259C125.333 171.927 131.036 174.221 129.057 175.838C126.384 176.392 123.379 176.497 121.334 174.35C120.579 176.095 118.817 175.175 117.457 174.948C117.339 175.287 117.224 175.627 117.113 175.968C112.591 176.271 109.199 171.637 107.046 168.141C102.767 165.814 97.911 164.398 93.5403 161.963C93.29 165.973 94.1619 170.946 90.3634 173.534C90.1708 181.243 101.965 174.443 103.046 180.189C102.207 180.281 101.278 180.057 100.607 180.705C97.5273 183.714 93.9983 178.427 90.45 180.608C85.686 183.019 85.2129 184.987 79.3157 185.484C78.9897 184.987 79.119 184.664 79.3968 184.361C81.0568 182.423 81.1778 180.141 84.0123 179.314C81.0939 178.852 78.65 180.468 76.1924 181.748C72.9976 183.064 73.0237 178.782 68.1084 181.975C67.5638 181.529 67.8223 181.124 68.1332 180.779C69.3819 179.245 71.024 179.019 72.8779 179.105C63.7597 173.999 59.4674 185.349 55.2563 179.704C53.991 180.04 53.5165 181.183 52.7189 181.992C52.0312 181.233 52.5497 180.313 52.5827 179.42C51.7603 179.032 50.7178 178.852 50.9612 177.528C49.3508 176.98 48.2272 177.936 47.0279 178.846C45.9456 178.004 47.7596 176.779 48.0951 175.903C49.0606 174.218 51.2583 175.556 52.3737 174.343C55.5451 172.531 59.9653 175.47 63.5892 174.973C66.381 175.326 69.8385 172.445 68.4385 169.571C65.4527 165.738 65.9767 160.725 65.9093 156.141C65.5407 153.469 59.1566 150.071 57.311 147.19C55.0294 144.595 53.2539 141.584 51.4756 138.626C45.0585 126.148 47.0774 110.113 38.9921 98.5279C35.3338 100.559 30.5684 99.6001 27.4149 96.8795C25.7123 98.4379 25.638 100.478 25.5032 102.643C21.4186 98.5404 21.9371 90.7873 25.2006 86.2216C26.5333 84.418 28.1259 82.9344 29.9041 81.6282C30.3057 81.3331 30.4419 81.0477 30.4336 80.5934C32.0482 73.2974 38.3608 70.3552 45.141 70.5269ZM215.775 76.899C223.442 76.899 230.636 79.8897 236.047 85.3239C241.457 90.7582 244.436 97.9918 244.436 105.692C244.436 113.394 241.456 120.625 236.047 126.052L223.642 138.521C220.339 141.842 216.28 144.299 211.818 145.677L211.593 145.742L211.513 145.969C210.085 149.775 207.862 153.227 204.994 156.092L192.592 168.553C187.181 173.988 179.98 176.979 172.313 176.979C164.646 176.979 157.451 173.987 152.041 168.553C140.86 157.323 140.86 139.056 152.041 127.824L164.445 115.364C167.736 112.047 171.789 109.6 176.245 108.24L176.479 108.166L176.558 107.947C177.994 104.13 180.222 100.665 183.094 97.784L195.496 85.3239C200.907 79.8883 208.109 76.899 215.775 76.899ZM215.775 89.3176C213.633 89.3106 211.511 89.7307 209.531 90.5538C207.551 91.3769 205.752 92.5866 204.239 94.1132L191.837 106.573C190.18 108.241 188.901 110.25 188.088 112.462C187.274 114.674 186.945 117.037 187.123 119.389L187.196 120.182C187.641 123.855 189.245 127.169 191.837 129.764C193.624 131.559 195.595 132.692 197.985 133.484C198.114 134.208 198.178 134.941 198.178 135.676C198.184 137.298 197.87 138.905 197.254 140.405C196.638 141.904 195.732 143.265 194.59 144.408L193.828 145.176C189.684 143.751 186.229 141.671 183.109 138.538C178.983 134.412 176.217 129.108 175.186 123.344L175.05 122.544L174.416 123.053C173.995 123.398 173.593 123.765 173.211 124.153L160.8 136.613C154.442 142.999 154.442 153.402 160.8 159.788C163.979 162.981 168.158 164.581 172.345 164.583C176.53 164.583 180.702 162.981 183.88 159.787L196.284 147.327C202.642 140.941 202.642 130.547 196.284 124.152C194.589 122.448 192.537 121.147 190.278 120.344C190.154 119.606 190.09 118.86 190.086 118.112C190.086 114.523 191.493 111.117 194.076 108.522C198.228 109.946 201.915 112.254 205.026 115.379C209.161 119.533 211.894 124.785 212.942 130.572L213.086 131.373L213.712 130.856C214.138 130.512 214.545 130.145 214.932 129.757L227.337 117.295C233.694 110.909 233.702 100.5 227.337 94.1132C225.822 92.5854 224.022 91.3751 222.04 90.5519C220.059 89.7288 217.935 89.3093 215.791 89.3176H215.775ZM78.617 160.75C77.5264 165.013 77.1675 172.28 71.6498 172.491C71.1959 174.951 73.3386 175.878 75.3012 175.087C77.2403 174.193 78.1632 175.79 78.8178 177.382C81.8118 177.821 86.2361 176.378 86.4039 172.814C81.9342 170.227 80.5548 165.308 78.617 160.75Z" fill="#EBEBEB"/>
</g>
<defs>
<clipPath id="clip0_2657_7893">
<rect width="256" height="256" fill="white"/>
</clipPath>
</defs>
</svg>
