<svg width="256" height="256" viewBox="0 0 256 256" fill="none" xmlns="http://www.w3.org/2000/svg">
<rect width="256" height="256" fill="#FF2D20"/>
<path fill-rule="evenodd" clip-rule="evenodd" d="M237.908 63.5927C237.99 63.8967 238.032 64.2102 238.033 64.5251V113.477C238.033 114.105 237.867 114.723 237.552 115.266C237.238 115.81 236.785 116.261 236.24 116.573L195.153 140.228V187.115C195.153 188.391 194.475 189.569 193.369 190.211L107.605 239.582C107.408 239.694 107.194 239.765 106.98 239.841C106.9 239.868 106.824 239.917 106.739 239.939C106.14 240.097 105.509 240.097 104.91 239.939C104.812 239.913 104.722 239.859 104.629 239.823C104.432 239.752 104.227 239.69 104.04 239.582L18.2935 190.211C17.7488 189.898 17.2962 189.447 16.9813 188.904C16.6665 188.36 16.5004 187.743 16.5 187.115V40.2588C16.5 39.9376 16.5446 39.6253 16.6249 39.3219C16.6517 39.2193 16.7142 39.1256 16.7498 39.023C16.8168 38.8356 16.8792 38.6437 16.9774 38.4697C17.0443 38.3537 17.1425 38.26 17.2228 38.153C17.3254 38.0102 17.4191 37.863 17.5395 37.738C17.6422 37.6354 17.776 37.5596 17.892 37.4703C18.0214 37.3633 18.1374 37.2473 18.2846 37.1625L61.1645 12.4768C61.7073 12.1644 62.3227 12 62.9491 12C63.5754 12 64.1908 12.1644 64.7337 12.4768L107.609 37.1625H107.618C107.761 37.2517 107.881 37.3633 108.011 37.4659C108.127 37.5551 108.256 37.6354 108.359 37.7336C108.484 37.863 108.573 38.0102 108.68 38.153C108.756 38.26 108.858 38.3537 108.921 38.4697C109.023 38.6482 109.081 38.8356 109.153 39.023C109.188 39.1256 109.251 39.2193 109.278 39.3263C109.36 39.6304 109.402 39.9439 109.403 40.2588V131.984L145.131 111.411V64.5206C145.131 64.2083 145.175 63.8916 145.256 63.5927C145.287 63.4856 145.345 63.3919 145.38 63.2893C145.452 63.1019 145.514 62.91 145.612 62.736C145.679 62.62 145.778 62.5263 145.853 62.4193C145.96 62.2765 146.05 62.1293 146.175 62.0043C146.277 61.9017 146.407 61.8259 146.523 61.7366C146.656 61.6296 146.772 61.5136 146.915 61.4288L189.8 36.7431C190.342 36.4303 190.958 36.2656 191.584 36.2656C192.211 36.2656 192.826 36.4303 193.369 36.7431L236.244 61.4288C236.396 61.518 236.512 61.6296 236.646 61.7322C236.757 61.8214 236.887 61.9017 236.989 61.9999C237.114 62.1293 237.203 62.2765 237.31 62.4193C237.391 62.5263 237.489 62.62 237.551 62.736C237.654 62.91 237.712 63.1019 237.783 63.2893C237.824 63.3919 237.882 63.4856 237.908 63.5927ZM230.886 111.411V70.7043L215.882 79.3419L195.153 91.2765V131.984L230.89 111.411H230.886ZM188.01 185.049V144.315L167.621 155.96L109.398 189.189V230.307L188.01 185.049ZM23.6474 46.438V185.049L102.251 230.302V189.194L61.1868 165.954L61.1734 165.945L61.1555 165.936C61.0172 165.856 60.9012 165.74 60.7718 165.641C60.6603 165.552 60.5309 165.481 60.4328 165.383L60.4238 165.369C60.3078 165.258 60.2275 165.119 60.1294 164.994C60.0401 164.874 59.9331 164.771 59.8617 164.646L59.8572 164.633C59.7769 164.499 59.7278 164.339 59.6698 164.187C59.6118 164.053 59.536 163.928 59.5003 163.785C59.4557 163.616 59.4468 163.433 59.4289 163.259C59.4111 163.125 59.3754 162.991 59.3754 162.857V162.848V67.0102L38.6515 55.0711L23.6474 46.438ZM62.9535 19.6956L27.23 40.2588L62.9446 60.822L98.6637 40.2543L62.9446 19.6956H62.9535ZM81.5314 148.027L102.255 136.097V46.438L87.2511 55.0756L66.5228 67.0102V156.669L81.5314 148.027ZM191.584 43.9619L155.865 64.5251L191.584 85.0883L227.299 64.5206L191.584 43.9619ZM188.01 91.2765L167.282 79.3419L152.278 70.7043V111.411L173.002 123.342L188.01 131.984V91.2765ZM105.82 183.01L158.212 153.1L184.401 138.154L148.709 117.604L107.614 141.264L70.1589 162.826L105.82 183.01Z" fill="white"/>
</svg>
