<svg width="256" height="256" viewBox="0 0 256 256" fill="none" xmlns="http://www.w3.org/2000/svg">
<g clip-path="url(#clip0_2740_9082)">
<path d="M16.4419 99.395C18.6759 102.003 62.5389 116.613 77.7889 134.365C93.0389 152.119 99.6959 167.963 97.5429 183.197C95.3929 198.431 86.0729 198.179 82.0029 203.727C77.9329 209.274 72.3129 216.115 61.5129 215.387C47.3729 214.439 32.7929 207.373 22.2629 182.847C11.7329 158.32 12.5429 135.28 13.3829 122.497C14.2229 109.717 16.4229 99.395 16.4229 99.395H16.4419Z" fill="url(#paint0_linear_2740_9082)"/>
<path fill-rule="evenodd" clip-rule="evenodd" d="M-237.955 243.713L-237.337 239.376C-219.817 230.041 -197.993 226.442 -180.232 217.431C-174.904 219.831 -172.535 216.371 -166.852 216.691C-164.79 218.551 -169.446 221.041 -163.878 220.661C-151.228 222.341 -138.908 219.981 -126.468 218.921C-113.348 217.801 -100.318 219.051 -87.448 218.291C-83.338 218.051 -77.008 212.361 -71.968 215.191C-69.688 219.321 -79.408 219.681 -76.798 224.241C-51.038 230.301 13.392 255.921 24.412 228.051C24.562 229.751 22.482 233.111 25.522 232.641C47.242 222.921 84.152 201.931 90.652 196.431C97.792 190.391 107.312 190.581 116.652 188.431C133.472 184.561 151.422 180.621 165.982 172.141C174.982 178.391 193.822 181.501 203.892 179.321C214.402 177.041 230.712 159.591 239.442 153.421C242.872 151.001 247.892 146.291 251.582 148.961C249.102 150.661 252.022 155.641 248.982 154.781C247.392 151.741 244.222 155.251 241.912 154.661C233.122 161.871 223.992 168.621 215.032 175.601C210.852 178.171 219.062 180.831 214.162 181.671C191.022 186.271 155.782 174.751 141.194 190.741C118.079 198.651 96.214 200.661 73.434 212.941C60.344 220.001 44.326 232.841 30.7 239.591C28.39 240.741 25.007 241.141 22.277 242.821C18.957 244.861 18.141 247.421 15.34 248.025C8.35997 249.528 -6.06001 245.885 -15.14 244.565C-45.42 240.165 -77.75 227.819 -106.324 226.255C-117.624 225.635 -130.964 227.425 -143.736 227.999C-170.886 229.225 -187.866 229.869 -209.636 237.189C-218.536 240.186 -232.226 248.119 -238 243.769L-237.955 243.713Z" fill="#3C3C3B"/>
<path d="M181.583 7C178.533 11.944 108.983 47.807 88.1078 81.472C67.2348 115.137 61.2798 141.644 68.8478 166.562C76.4138 191.476 90.8778 190.354 99.1228 198.57C107.369 206.79 118.555 216.763 136.423 212.736C159.818 207.461 182.363 191.846 193.578 148.086C204.792 104.324 197.438 66.003 192.698 44.844C187.961 23.687 181.585 7 181.585 7H181.583Z" fill="url(#paint1_linear_2740_9082)"/>
<path d="M12 106.212L77.6901 204.139L74.662 207.519" fill="url(#paint2_linear_2740_9082)"/>
<path d="M178.594 13L94.2559 193.893L99.2058 198.863" fill="url(#paint3_linear_2740_9082)"/>
</g>
<defs>
<linearGradient id="paint0_linear_2740_9082" x1="15.3754" y1="161.568" x2="108.167" y2="177.263" gradientUnits="userSpaceOnUse">
<stop stop-color="#89C442"/>
<stop offset="1" stop-color="#74B844"/>
</linearGradient>
<linearGradient id="paint1_linear_2740_9082" x1="-782.789" y1="-2870.67" x2="-932.341" y2="-2820.51" gradientUnits="userSpaceOnUse">
<stop stop-color="#C1EA71"/>
<stop offset="1" stop-color="#ACDA55"/>
</linearGradient>
<linearGradient id="paint2_linear_2740_9082" x1="7.50772" y1="149.998" x2="87.5776" y2="163.541" gradientUnits="userSpaceOnUse">
<stop stop-color="#74B844"/>
<stop offset="1" stop-color="#4A9634"/>
</linearGradient>
<linearGradient id="paint3_linear_2740_9082" x1="-785.31" y1="-2862.78" x2="-915.623" y2="-2819.07" gradientUnits="userSpaceOnUse">
<stop stop-color="#ACDA55"/>
<stop offset="1" stop-color="#89C442"/>
</linearGradient>
<clipPath id="clip0_2740_9082">
<rect width="256" height="256" fill="white"/>
</clipPath>
</defs>
</svg>
