<svg width="256" height="256" viewBox="0 0 256 256" fill="none" xmlns="http://www.w3.org/2000/svg">
<path d="M165.268 177.513C145.045 186.445 123.14 182.781 114.711 179.833C114.711 181.863 114.614 188.117 114.247 197.039C113.88 205.971 111.038 211.607 109.655 213.318C109.81 218.896 109.936 231.076 109.201 235.165C108.496 238.472 106.906 241.526 104.6 244H92.1877C93.2897 238.422 97.5527 234.855 99.544 233.773C100.646 222.24 98.4807 212.226 97.2434 208.668C96.0254 213.009 93.019 223.072 90.815 228.659C89.0101 233.097 86.6973 237.31 83.9227 241.216H74.7297C74.2657 235.629 77.3397 233.773 79.3214 233.773C80.2397 232.062 82.4437 226.706 83.9227 218.886C85.392 211.085 83.304 196.421 82.086 190.07V170.079C67.3734 162.172 61.8634 154.264 58.1804 145.429C55.2417 138.372 56.0344 127.613 56.8077 123.118C55.8797 121.417 53.202 117.077 52.2064 111.035C50.8337 102.664 51.5974 96.622 52.2064 93.3643C51.288 92.4363 49.4514 87.69 49.4514 76.1577C49.4514 64.635 52.825 58.6513 54.507 57.095V51.9813C48.069 51.5173 41.6407 48.7333 37.9577 45.0117C34.2844 41.29 37.0394 35.7123 39.34 33.8563C41.6407 31.9907 43.9317 33.3827 47.1507 32.4547C50.3697 31.5267 53.1247 30.5987 54.4974 27.8147C55.6187 25.5623 53.4437 16.3307 52.216 12C57.726 12.7443 61.2544 17.5777 62.3274 19.9073V12C69.2197 15.2577 81.6317 23.1553 85.769 40.362C89.075 54.1273 91.4337 82.9823 92.1974 95.6843C109.82 95.839 132.188 93.171 152.411 97.55C170.787 101.533 179.062 109.633 188.709 109.633C198.366 109.633 203.886 104.056 210.769 108.705C217.671 113.355 221.344 126.376 220.426 136.139C219.691 143.95 213.688 146.521 210.778 146.831C207.105 159.107 210.778 170.852 213.069 175.193V192.854C214.142 194.4 216.288 199.185 216.288 205.875C216.288 212.574 214.142 217.03 213.069 218.432C214.906 228.843 212.296 239.505 210.769 243.536H198.366C199.836 239.814 202.349 238.886 203.422 238.886C205.626 227.354 204.031 216.721 202.958 212.854C195.979 208.755 191.474 201.544 190.092 198.441C190.246 201.07 189.811 208.388 186.873 216.566C183.934 224.754 179.526 229.587 177.689 230.979V240.742H165.277C165.277 234.797 168.641 233.618 170.333 233.773C172.479 229.906 177.68 224.009 177.68 212.39C177.68 202.578 170.787 197.967 165.732 189.142C163.334 184.946 164.504 179.688 165.277 177.513H165.268Z" fill="url(#paint0_linear_2928_10558)"/>
<defs>
<linearGradient id="paint0_linear_2928_10558" x1="50.8724" y1="31.5267" x2="249.928" y2="198.344" gradientUnits="userSpaceOnUse">
<stop offset="0.062" stop-color="#F6DCD9"/>
<stop offset="0.326" stop-color="#FFA5EA"/>
<stop offset="0.589" stop-color="#45DFF8"/>
<stop offset="1" stop-color="#BC8DEB"/>
</linearGradient>
</defs>
</svg>
