<svg width="256" height="256" viewBox="0 0 256 256" fill="none" xmlns="http://www.w3.org/2000/svg">
<path d="M46.3599 108.678C46.3599 116.582 48.0949 122.651 50.3626 126.323C53.3357 131.132 57.7703 133.169 62.2912 133.169C68.1224 133.169 73.4568 131.722 83.7369 117.504C91.9725 106.108 101.677 90.1119 108.206 80.0838L119.264 63.0942C126.945 51.2952 135.836 38.1787 146.029 29.288C154.351 22.0314 163.329 18 172.363 18C187.531 18 201.98 26.7899 213.037 43.2755C225.139 61.3305 231.013 84.072 231.013 107.541C231.013 121.492 228.263 131.743 223.584 139.842C219.063 147.675 210.251 155.5 195.429 155.5V133.169C208.12 133.169 211.288 121.507 211.288 108.16C211.288 89.1401 206.853 68.0327 197.084 52.9509C190.152 42.2533 181.168 35.7166 171.283 35.7166C160.593 35.7166 151.99 43.7795 142.322 58.1558C137.182 65.7938 131.905 75.1021 125.98 85.6054L119.458 97.1597C106.356 120.391 103.037 125.682 96.4863 134.414C85.0039 149.705 75.199 155.5 62.2912 155.5C46.9791 155.5 37.2965 148.87 31.2997 138.878C26.4045 130.736 24 120.052 24 107.879L46.3599 108.678Z" fill="#0081FB"/>
<path d="M41.6309 44.8521C51.8822 29.0504 66.676 18 83.644 18C93.4705 18 103.239 20.9084 113.44 29.2376C124.599 38.3442 136.491 53.3397 151.328 78.0537L156.649 86.9228C169.491 108.318 176.798 119.325 181.075 124.516C186.575 131.182 190.426 133.169 195.429 133.169C208.121 133.169 211.289 121.507 211.289 108.16L231.014 107.541C231.014 121.492 228.264 131.743 223.584 139.842C219.063 147.675 210.252 155.5 195.429 155.5C186.215 155.5 178.051 153.499 169.024 144.982C162.084 138.446 153.971 126.834 147.729 116.395L129.163 85.3822C119.847 69.8181 111.302 58.2134 106.357 52.9581C101.037 47.3069 94.1976 40.4823 83.284 40.4823C74.4509 40.4823 66.9496 46.6806 60.6721 56.1616L41.6309 44.8521Z" fill="url(#paint0_linear_2772_9346)"/>
<path d="M83.2834 40.4823C74.4503 40.4823 66.9489 46.6806 60.6715 56.1616C51.7952 69.5589 46.3599 89.5144 46.3599 108.678C46.3599 116.582 48.0949 122.651 50.3626 126.323L31.2997 138.878C26.4045 130.736 24 120.052 24 107.879C24 85.7421 30.0759 62.6695 41.6302 44.8521C51.8815 29.0504 66.6754 18 83.6433 18L83.2834 40.4823Z" fill="url(#paint1_linear_2772_9346)"/>
<path d="M9 166.5H23.2508L47.4807 210.447L71.7147 166.5H85.6561V238.712H74.031V183.368L52.7797 221.693H41.8724L20.6251 183.368V238.712H9V166.5ZM122.082 193.424C113.745 193.424 108.724 199.715 107.522 207.505H135.818C135.234 199.48 130.618 193.424 122.082 193.424ZM95.9962 211.942C95.9962 195.552 106.562 183.622 122.285 183.622C137.749 183.622 146.983 195.401 146.983 212.817V216.018H107.522C108.922 224.492 114.531 230.202 123.574 230.202C130.788 230.202 135.298 227.995 139.574 223.959L145.749 231.542C139.931 236.906 132.529 240 123.161 240C106.142 240 95.9962 227.558 95.9962 211.942ZM161.079 194.458H150.378V184.915H161.079V169.132H172.295V184.915H188.553V194.458H172.295V218.647C172.295 226.906 174.929 229.84 181.402 229.84C184.357 229.84 186.05 229.586 188.553 229.168V238.608C185.436 239.491 182.461 239.897 179.24 239.897C167.131 239.897 161.079 233.264 161.079 219.987V194.458ZM235.783 203.739C233.531 198.037 228.505 193.838 221.12 193.838C211.522 193.838 205.378 200.665 205.378 211.787C205.378 222.631 211.034 229.789 220.66 229.789C228.228 229.789 233.63 225.375 235.783 219.883V203.739ZM247 238.712H235.99V231.18C232.912 235.614 227.311 240 218.241 240C203.653 240 193.904 227.757 193.904 211.787C193.904 195.667 203.887 183.622 218.859 183.622C226.26 183.622 232.067 186.589 235.99 191.826V184.915H247V238.712Z" fill="#192830"/>
<defs>
<linearGradient id="paint0_linear_2772_9346" x1="67.9142" y1="102.228" x2="210.454" y2="109.427" gradientUnits="userSpaceOnUse">
<stop stop-color="#0064E1"/>
<stop offset="0.4" stop-color="#0064E1"/>
<stop offset="0.83" stop-color="#0073EE"/>
<stop offset="1" stop-color="#0082FB"/>
</linearGradient>
<linearGradient id="paint1_linear_2772_9346" x1="56.3953" y1="118.065" x2="56.3953" y2="65.5131" gradientUnits="userSpaceOnUse">
<stop stop-color="#0082FB"/>
<stop offset="1" stop-color="#0064E0"/>
</linearGradient>
</defs>
</svg>
