<svg width="256" height="256" viewBox="0 0 256 256" fill="none" xmlns="http://www.w3.org/2000/svg">
<g clip-path="url(#clip0_2934_1606)">
<path fill-rule="evenodd" clip-rule="evenodd" d="M159.216 90.7596L166.308 97.6775C168.174 99.5011 168.21 102.513 166.389 104.382L160.809 110.084C162.424 113.007 163.639 116.134 164.423 119.379L171.738 119.288C174.344 119.257 176.506 121.366 176.537 123.97L176.651 133.873C176.683 136.481 174.576 138.64 171.965 138.668L163.988 138.763C163.057 141.966 161.703 145.031 159.96 147.876L165.195 152.984C167.061 154.808 167.098 157.825 165.277 159.684L158.353 166.775C156.528 168.639 153.508 168.675 151.642 166.852L145.93 161.281C143.005 162.894 139.878 164.108 136.631 164.892L136.717 172.196C136.749 174.804 134.638 176.963 132.032 176.995L122.12 177.108C119.514 177.14 117.352 175.035 117.321 172.427L117.225 164.457C114.02 163.522 110.953 162.168 108.103 160.428L102.991 165.663C101.165 167.528 98.1461 167.564 96.2799 165.74L89.1922 158.823C87.3216 156.999 87.2852 153.987 89.1105 152.118L94.6862 146.416C93.0789 143.494 91.853 140.364 91.072 137.125L83.7573 137.211C81.151 137.243 78.9898 135.134 78.958 132.53L78.8445 122.627C78.8127 120.023 80.9195 117.864 83.5303 117.832L91.5079 117.737C92.4438 114.534 93.798 111.469 95.5353 108.619L90.3001 103.511C88.434 101.688 88.4022 98.6755 90.2229 96.811L97.1472 89.7253C98.9679 87.8609 101.987 87.8246 103.853 89.6482L109.565 95.2188C112.49 93.6063 115.617 92.3919 118.864 91.6079L118.778 84.3044C118.746 81.7006 120.858 79.5413 123.468 79.5095L133.376 79.3916C135.986 79.3598 138.143 81.4647 138.175 84.0731L138.27 92.0434C141.479 92.9754 144.549 94.3284 147.401 96.0671L152.509 90.8367C154.335 88.9723 157.354 88.9405 159.22 90.7596H159.216ZM122.165 64.458V53.4121C118.563 52.4594 115.278 50.5702 112.644 47.9367C108.83 44.1081 106.469 38.8414 106.469 33.0485C106.469 27.2647 108.825 22.0026 112.644 18.1875L112.662 18.1694C116.481 14.3589 121.743 12 127.537 12C133.33 12 138.597 14.3589 142.416 18.1694L142.434 18.1875C146.248 22.0026 148.609 27.2647 148.609 33.0485C148.609 38.8414 146.248 44.1081 142.425 47.9231C139.643 50.7243 136.125 52.6822 132.277 53.5708V64.2992C129.285 64.3128 126.279 64.3763 123.287 64.4126C122.91 64.4172 122.538 64.4308 122.165 64.458ZM132.554 203.002C136.345 203.927 139.737 205.891 142.416 208.563L142.434 208.586C146.248 212.401 148.609 217.659 148.609 223.447C148.609 229.235 146.248 234.493 142.434 238.308L142.416 238.331C138.597 242.141 133.33 244.5 127.537 244.5C121.743 244.5 116.481 242.141 112.662 238.331L112.644 238.308C108.825 234.493 106.469 229.235 106.469 223.447C106.469 217.659 108.825 212.401 112.644 208.586L112.662 208.563C115.323 205.91 118.687 203.959 122.442 203.02V192.205C125.693 192.201 128.958 192.124 132.204 192.087L132.554 192.078V203.002ZM135.287 215.685C133.321 213.721 130.579 212.501 127.537 212.501C124.499 212.501 121.757 213.721 119.791 215.685L119.768 215.703C117.802 217.672 116.58 220.408 116.58 223.447C116.58 226.486 117.802 229.222 119.768 231.19L119.791 231.209C121.757 233.173 124.499 234.393 127.537 234.393C130.579 234.393 133.321 233.173 135.287 231.209L135.305 231.19C137.276 229.222 138.497 226.486 138.497 223.447C138.497 220.408 137.276 217.672 135.305 215.703L135.287 215.685ZM135.287 25.2914C133.321 23.3227 130.579 22.1024 127.537 22.1024C124.499 22.1024 121.757 23.3227 119.791 25.2914L119.768 25.3096C117.802 27.2738 116.58 30.0137 116.58 33.0485C116.58 36.0879 117.802 38.8278 119.768 40.7966C121.77 42.7744 124.513 43.9992 127.537 43.9992C130.565 43.9992 133.308 42.7744 135.287 40.7966C137.276 38.8278 138.497 36.0879 138.497 33.0485C138.497 30.0137 137.276 27.2738 135.305 25.3096L135.287 25.2914ZM210.428 154.74C216.221 154.74 221.488 157.099 225.307 160.909L225.325 160.927C229.139 164.742 231.5 170.005 231.5 175.793C231.5 181.581 229.139 186.839 225.325 190.654L225.307 190.677C221.488 194.487 216.221 196.841 210.428 196.841C204.634 196.841 199.362 194.483 195.544 190.663C191.721 186.866 189.355 181.599 189.355 175.793C189.355 173.67 189.673 171.619 190.259 169.687L180.261 163.917C181.269 161.44 181.759 158.791 181.727 156.146C181.718 155.085 181.618 154.028 181.441 152.984L195.403 161.036L195.53 160.909C199.34 157.103 204.616 154.74 210.428 154.74ZM218.178 168.031C216.212 166.062 213.47 164.842 210.428 164.842C207.404 164.842 204.657 166.072 202.677 168.049C201.659 169.066 200.851 170.273 200.301 171.602C199.751 172.931 199.469 174.355 199.471 175.793C199.471 178.819 200.697 181.554 202.677 183.532C204.648 185.519 207.39 186.739 210.428 186.739C213.47 186.739 216.212 185.519 218.178 183.555L218.196 183.532C220.167 181.568 221.388 178.832 221.388 175.793C221.388 172.754 220.167 170.014 218.196 168.049L218.178 168.031ZM45.0724 154.74C50.7661 154.74 55.9423 157.008 59.7336 160.678L72.7875 153.143C72.6921 153.982 72.6513 154.821 72.6603 155.665C72.6876 158.455 73.3051 161.231 74.4902 163.799L65.0959 169.22C65.777 171.288 66.1447 173.498 66.1447 175.793C66.1447 181.599 63.7792 186.866 59.9697 190.677C56.1375 194.483 50.866 196.841 45.0724 196.841C39.2787 196.841 34.0118 194.487 30.1932 190.677L30.1751 190.654C26.3611 186.839 24 181.581 24 175.793C24 170 26.3611 164.738 30.1841 160.918C33.9845 157.103 39.256 154.74 45.0724 154.74ZM52.823 168.049C51.8058 167.032 50.5976 166.224 49.2676 165.674C47.9376 165.124 46.5119 164.841 45.0724 164.842C42.0439 164.842 39.3014 166.072 37.3218 168.049C35.333 170.014 34.1117 172.754 34.1117 175.793C34.1117 178.832 35.333 181.568 37.3036 183.532L37.3218 183.555C39.2878 185.519 42.0303 186.739 45.0724 186.739C48.11 186.739 50.8524 185.519 52.823 183.555C54.8026 181.554 56.0286 178.819 56.0286 175.793C56.0286 172.767 54.8026 170.027 52.823 168.049ZM210.428 59.5406C216.244 59.5406 221.515 61.8995 225.329 65.71C229.139 69.516 231.5 74.7827 231.5 80.5937C231.5 86.382 229.139 91.6442 225.325 95.4592L225.307 95.4774C221.488 99.2879 216.221 101.647 210.428 101.647C204.616 101.647 199.34 99.2833 195.53 95.4774L195.262 95.2006L182.799 102.4C182.835 101.878 182.849 101.356 182.84 100.839C182.807 97.7626 182.062 94.7352 180.665 91.9935L190.2 86.4864C189.655 84.6174 189.355 82.6396 189.355 80.5937C189.355 74.8053 191.716 69.5477 195.53 65.7327L195.553 65.71C199.372 61.8995 204.634 59.5406 210.428 59.5406ZM218.183 72.8502C217.165 71.8327 215.956 71.026 214.625 70.4764C213.294 69.9268 211.868 69.6452 210.428 69.6476C207.385 69.6476 204.648 70.8678 202.677 72.8321L202.659 72.8502C200.693 74.819 199.471 77.5544 199.471 80.5937C199.471 83.6149 200.697 86.3594 202.677 88.3372C203.694 89.3549 204.902 90.1621 206.232 90.7124C207.562 91.2628 208.988 91.5455 210.428 91.5444C213.47 91.5444 216.212 90.3241 218.178 88.3553L218.196 88.3372C220.167 86.373 221.388 83.633 221.388 80.5937C221.388 77.568 220.158 74.8235 218.183 72.8502ZM45.0724 59.5406C50.866 59.5406 56.1284 61.8995 59.947 65.71L59.9697 65.7327C63.7837 69.5477 66.1447 74.8053 66.1447 80.5937C66.1447 82.2993 65.9359 83.9596 65.5545 85.5474L75.6434 91.6578C74.0838 94.9938 73.4788 98.696 73.8953 102.354L60.9005 94.4839C60.6008 94.8241 60.2875 95.1598 59.9697 95.4774C56.1602 99.2833 50.8842 101.647 45.0724 101.647C39.256 101.647 33.9845 99.2833 30.1751 95.4774C26.3611 91.6487 24 86.3866 24 80.5937C24 74.8053 26.3611 69.5477 30.1751 65.7327L30.1932 65.71C34.0118 61.8995 39.2787 59.5406 45.0724 59.5406ZM52.823 72.8321C50.8524 70.8678 48.1145 69.6476 45.0724 69.6476C42.0303 69.6476 39.2878 70.8678 37.3218 72.8321L37.3036 72.8502C35.333 74.819 34.1117 77.5544 34.1117 80.5937C34.1117 83.633 35.333 86.373 37.3036 88.3372C39.3014 90.315 42.0439 91.5444 45.0724 91.5444C48.0963 91.5444 50.8433 90.315 52.823 88.3372C53.841 87.3207 54.6482 86.1134 55.1982 84.7846C55.7483 83.4558 56.0305 82.0316 56.0286 80.5937C56.0286 77.5544 54.8072 74.819 52.8411 72.8502L52.823 72.8321ZM127.514 108.782C138.275 108.655 147.106 117.27 147.233 128.016C147.365 138.767 138.738 147.591 127.977 147.718C117.221 147.849 108.389 139.23 108.262 128.484C108.135 117.733 116.757 108.909 127.514 108.782Z" fill="black"/>
</g>
<defs>
<clipPath id="clip0_2934_1606">
<rect width="207.5" height="232.5" fill="white" transform="translate(24 12)"/>
</clipPath>
</defs>
</svg>
