<svg width="256" height="256" viewBox="0 0 256 256" fill="none" xmlns="http://www.w3.org/2000/svg">
<rect width="256" height="256" fill="white"/>
<path d="M128 244C192.065 244 244 192.065 244 128C244 63.935 192.065 12 128 12C63.935 12 12 63.935 12 128C12 192.065 63.935 244 128 244Z" fill="#13AA52"/>
<path d="M168.497 109.353C158.882 66.8137 136.159 52.8267 133.712 47.4828C131.036 43.7126 128.325 37.0067 128.325 37.0067C128.28 36.8934 128.209 36.6937 128.125 36.5C127.849 40.2702 127.706 41.7247 124.15 45.5277C118.644 49.8433 90.3937 73.6061 88.0955 121.936C85.9518 167.012 120.577 193.871 125.259 197.296L125.792 197.674V197.642C125.821 197.868 127.278 208.371 128.301 219.5H131.97C132.83 211.633 134.121 203.82 135.835 196.095L136.132 195.901C138.227 194.396 140.224 192.758 142.111 190.998L142.325 190.805C152.279 181.586 170.174 160.264 169.999 126.27C169.962 120.599 169.459 114.941 168.497 109.353ZM127.911 171.846C127.911 171.846 127.911 108.626 129.993 108.638C131.616 108.638 133.718 190.185 133.718 190.185C130.828 189.836 127.911 176.764 127.911 171.846Z" fill="white"/>
</svg>
