<svg width="256" height="256" viewBox="0 0 256 256" fill="none" xmlns="http://www.w3.org/2000/svg">
<rect width="256" height="256" fill="#0073B4"/>
<path d="M102.687 111.836L77.2381 176.19C76.9347 176.996 76.2283 177.5 75.3187 177.5H60.1711C59.3628 177.5 58.5552 176.996 58.2525 176.19L32.9044 112.641V175.486C32.9044 176.593 31.9955 177.5 30.8847 177.5H14.0198C12.9089 177.5 12 176.593 12 175.486V80.5143C12 79.4063 12.9089 78.5 14.0198 78.5H39.4686C40.2765 78.5 40.9833 79.0036 41.3873 79.7081L68.1491 145.372L93.5979 79.809C93.9006 79.0036 94.6078 78.5 95.5166 78.5H122.48C123.591 78.5 124.5 79.4063 124.5 80.5143V175.486C124.5 176.593 123.591 177.5 122.48 177.5H104.807C103.697 177.5 102.787 176.593 102.787 175.486L102.687 111.836Z" fill="white"/>
<path d="M241.045 156.919C239.03 161.049 235.905 164.879 232.076 168.405C228.146 171.931 223.51 174.854 217.766 177.373C212.021 179.69 205.269 181 197.409 181H197.207C189.85 181 182.997 179.69 176.648 177.272C170.198 174.753 164.655 171.126 159.919 166.49C155.182 161.956 151.555 156.314 148.732 149.865C146.717 145.029 145.306 139.587 144.802 133.945C144.601 132.031 144.5 130.116 144.5 128.201C144.5 126.086 144.5 123.97 144.903 121.955C145.407 116.413 146.617 111.274 148.732 106.538C151.655 99.8878 155.384 94.3459 160.12 89.7115C164.958 85.0762 170.4 81.4486 176.749 78.8294C183.199 76.3104 189.951 75 196.905 75C204.563 75 211.114 76.1085 216.758 78.3256C222.2 80.5419 227.037 83.2628 230.967 86.7895C234.797 90.2153 237.72 93.8421 239.836 97.8726C241.75 101.097 242.96 104.321 243.867 107.243C244.17 108.251 243.565 109.359 242.557 109.762L226.533 114.901C225.525 115.203 224.417 114.699 224.014 113.692C223.51 112.382 222.905 110.972 222.099 109.359C220.99 107.042 219.479 104.926 217.262 102.911C215.145 100.795 212.424 99.0821 209.099 97.7717C205.874 96.3612 201.943 95.6563 197.106 95.6563C193.478 95.6563 189.85 96.1601 186.323 97.5706C182.695 98.9811 179.369 100.996 176.447 103.717C173.524 106.336 171.206 109.662 169.392 113.894C167.578 118.126 166.772 122.861 166.772 128.504C166.772 133.542 167.578 137.976 169.291 141.804C171.005 145.734 173.222 149.059 176.044 151.78C178.966 154.4 182.191 156.515 185.92 157.926C189.547 159.337 193.478 160.042 197.509 160.042C202.044 160.042 206.075 159.438 209.502 158.026C212.828 156.616 215.649 154.903 217.766 152.888C220.083 150.772 221.696 148.555 222.905 146.238C223.813 144.525 224.518 143.014 225.021 141.603C225.324 140.595 226.432 140.091 227.44 140.394L243.565 145.029C244.674 145.331 245.278 146.54 244.875 147.547C243.968 150.066 242.557 154.299 241.045 156.919Z" fill="white"/>
</svg>
