<svg width="256" height="256" viewBox="0 0 256 256" fill="none" xmlns="http://www.w3.org/2000/svg">
<rect width="256" height="256" fill="white"/>
<path d="M67.7181 192.479H58.7757C58.4594 177.371 57.5885 163.167 56.1646 149.857H56.0851L42.4701 192.479H35.6617L22.1279 149.857H22.0501C21.0462 162.636 20.4137 176.843 20.1511 192.479H12C12.5253 173.465 13.8455 155.639 15.9554 139H27.0389L39.9386 178.296H40.018L52.9972 139H63.602C65.9245 158.49 67.2965 176.317 67.7181 192.479ZM106.5 153.022C102.859 172.799 98.0552 187.169 92.0935 196.139C87.4486 203.044 82.3596 206.5 76.8179 206.5C75.3404 206.5 73.5174 206.054 71.3573 205.168V200.399C72.4132 200.552 73.6521 200.638 75.076 200.638C77.6646 200.638 79.7451 199.926 81.3314 198.497C83.2288 196.757 84.1775 194.801 84.1775 192.637C84.1775 191.153 83.4379 188.119 81.9622 183.525L72.1488 153.021H80.934L87.9774 175.835C89.5603 181.015 90.2204 184.632 89.956 186.692C93.8077 176.395 96.4982 165.168 98.031 153.019H106.5V153.022Z" fill="#5D87A1"/>
<path d="M225 192.708H199.803V139.295H208.279V186.133H225V192.708ZM193.207 193.999L183.464 189.153C184.328 188.438 185.154 187.664 185.898 186.767C190.039 181.864 192.105 174.614 192.105 165.011C192.105 147.34 185.224 138.5 171.458 138.5C164.708 138.5 159.442 140.742 155.677 145.229C151.539 150.135 149.473 157.359 149.473 166.911C149.473 176.3 151.304 183.188 154.967 187.557C158.318 191.514 163.369 193.496 170.125 193.496C172.644 193.496 174.957 193.185 177.063 192.558L189.748 200L193.207 193.999ZM161.645 182.02C159.499 178.541 158.426 172.954 158.426 165.251C158.426 151.802 162.48 145.07 170.596 145.07C174.838 145.07 177.948 146.68 179.936 149.893C182.079 153.377 183.157 158.914 183.157 166.51C183.157 180.07 179.1 186.85 170.989 186.85C166.744 186.852 163.635 185.247 161.645 182.02ZM145.779 177.903C145.779 182.433 144.13 186.149 140.836 189.06C137.538 191.958 133.116 193.411 127.574 193.411C122.39 193.411 117.365 191.742 112.5 188.422L114.778 183.836C118.964 185.948 122.754 186.999 126.156 186.999C129.35 186.999 131.845 186.285 133.655 184.87C135.464 183.45 136.542 181.458 136.542 178.94C136.542 175.766 134.346 173.054 130.318 170.782C126.604 168.727 119.175 164.428 119.175 164.428C115.148 161.471 113.133 158.296 113.133 153.065C113.133 148.736 114.636 145.241 117.644 142.582C120.656 139.913 124.542 138.583 129.305 138.583C134.225 138.583 138.697 139.911 142.725 142.541L140.682 147.129C137.236 145.654 133.835 144.916 130.481 144.916C127.764 144.916 125.666 145.574 124.207 146.896C122.737 148.212 121.83 149.897 121.83 151.963C121.83 155.121 124.072 157.867 128.21 160.184C131.974 162.243 139.588 166.616 139.588 166.616C143.717 169.568 145.779 172.714 145.779 177.903Z" fill="#F8981D"/>
<path d="M236.46 121.043C231.261 120.912 227.236 121.429 223.858 122.839C222.883 123.223 221.332 123.223 221.196 124.439C221.723 124.954 221.784 125.784 222.241 126.495C223.02 127.776 224.378 129.5 225.617 130.399C226.979 131.429 228.345 132.448 229.778 133.345C232.304 134.887 235.168 135.784 237.63 137.322C239.064 138.215 240.49 139.372 241.926 140.334C242.632 140.847 243.084 141.679 244 142V141.804C243.541 141.228 243.411 140.394 242.96 139.753L241.01 137.896C239.125 135.398 236.783 133.218 234.257 131.427C232.177 130.013 227.629 128.092 226.786 125.728L226.654 125.597C228.083 125.465 229.778 124.954 231.136 124.561C233.346 123.987 235.361 124.117 237.628 123.542C238.671 123.285 239.706 122.962 240.752 122.645V122.067C239.577 120.912 238.739 119.379 237.503 118.287C234.196 115.469 230.552 112.712 226.786 110.404C224.769 109.119 222.175 108.293 220.028 107.2C219.254 106.814 217.95 106.623 217.494 105.982C216.33 104.571 215.674 102.715 214.829 101.046C212.951 97.5239 211.128 93.6159 209.507 89.8914C208.335 87.3935 207.623 84.8991 206.193 82.5882C199.5 71.6943 192.23 65.0963 181.058 58.62C178.657 57.2716 175.8 56.6968 172.749 55.99L167.876 55.7361C166.836 55.2867 165.794 54.0669 164.887 53.4905C161.18 51.1847 151.637 46.1873 148.911 52.7854C147.155 56.9559 151.508 61.0561 153.003 63.1714C154.107 64.6399 155.538 66.3109 156.31 67.9784C156.767 69.0678 156.896 70.2241 157.353 71.3752C158.393 74.1956 159.365 77.3334 160.732 79.9651C161.444 81.3067 162.222 82.7169 163.133 83.9315C163.654 84.6417 164.562 84.9557 164.76 86.1137C163.854 87.3901 163.783 89.3166 163.263 90.919C160.926 98.1604 161.839 107.131 165.151 112.453C166.187 114.055 168.66 117.582 171.967 116.23C174.894 115.078 174.246 111.425 175.087 108.222C175.28 107.448 175.154 106.941 175.543 106.433V106.558C176.449 108.351 177.363 110.078 178.203 111.876C180.218 115.014 183.727 118.284 186.649 120.458C188.205 121.617 189.438 123.601 191.387 124.309V124.117H191.259C190.864 123.542 190.287 123.285 189.768 122.839C188.597 121.684 187.3 120.274 186.39 118.994C183.668 115.404 181.258 111.429 179.119 107.327C178.073 105.337 177.17 103.161 176.327 101.175C175.934 100.408 175.934 99.2515 175.282 98.8655C174.305 100.274 172.881 101.494 172.168 103.22C170.932 105.98 170.803 109.375 170.344 112.906L170.089 113.029C168.02 112.516 167.3 110.404 166.514 108.612C164.569 104.059 164.242 96.7502 165.93 91.4971C166.382 90.1538 168.338 85.9232 167.557 84.6434C167.166 83.4168 165.866 82.7186 165.153 81.7527C164.315 80.5381 163.397 79.0009 162.813 77.6525C161.255 74.0652 160.471 70.0903 158.793 66.5047C158.009 64.8338 156.647 63.1045 155.545 61.5656C154.307 59.8363 152.946 58.6183 151.967 56.5682C151.644 55.8631 151.19 54.7102 151.71 53.9434C151.837 53.4287 152.101 53.2366 152.619 53.1079C153.461 52.4062 155.865 53.2983 156.708 53.6843C159.116 54.645 161.13 55.5423 163.14 56.8873C164.049 57.5306 165.024 58.7487 166.191 59.0695H167.557C169.632 59.5155 171.97 59.193 173.923 59.7729C177.363 60.864 180.481 62.4646 183.276 64.1922C191.784 69.5156 198.799 77.0795 203.535 86.1137C204.312 87.5856 204.643 88.9341 205.352 90.4695C206.72 93.6124 208.412 96.8171 209.77 99.8931C211.135 102.904 212.435 105.978 214.384 108.48C215.356 109.825 219.261 110.53 221.012 111.235C222.307 111.809 224.324 112.321 225.492 113.026C227.702 114.369 229.903 115.911 231.981 117.388C233.015 118.157 236.267 119.759 236.46 121.043ZM170.207 65.3485C169.31 65.3393 168.416 65.4477 167.549 65.671V65.7996H167.674C168.197 66.8238 169.107 67.5341 169.755 68.4279C170.278 69.4555 170.732 70.4746 171.245 71.5005L171.37 71.3735C172.287 70.7336 172.742 69.7077 172.742 68.1688C172.347 67.7159 172.287 67.2733 171.958 66.8238C171.575 66.1822 170.732 65.8631 170.207 65.3485Z" fill="#5D87A1"/>
<path d="M242.571 193H244V185.502H241.857L240.109 190.619L238.209 185.502H236.146V193H237.495V187.295H237.571L239.561 193H240.589L242.571 187.295V193ZM231.062 193H232.574V186.773H234.553V185.5H229V186.773H231.058L231.062 193Z" fill="#F8981D"/>
</svg>
