<svg width="256" height="256" viewBox="0 0 256 256" fill="none" xmlns="http://www.w3.org/2000/svg">
<path d="M221.639 117.035C221.639 171.712 177.288 216.029 122.569 216.029C67.8514 216.029 23.5 171.712 23.5 117.035C23.5 62.3596 67.8514 18.042 122.569 18.042C177.288 17.994 221.639 62.3588 221.639 117.035Z" fill="#008CC1"/>
<path d="M67.4187 84.5648C67.4187 88.93 63.867 92.4789 59.4993 92.4789C55.1308 92.4789 51.5791 88.9308 51.5791 84.5648C51.5791 80.2004 55.1299 76.6515 59.4993 76.6515C60.5401 76.6485 61.5713 76.8511 62.5335 77.2477C63.4956 77.6443 64.3699 78.2271 65.1058 78.9625C65.8418 79.6979 66.425 80.5715 66.822 81.5329C67.2189 82.4944 67.4217 83.5247 67.4187 84.5648ZM68.7624 106.292C68.7624 110.657 65.2108 114.206 60.8431 114.206C56.4754 114.206 52.9229 110.657 52.9229 106.292C52.9229 101.927 56.4754 98.3789 60.8431 98.3789C61.8839 98.3759 62.9151 98.5785 63.8772 98.9752C64.8394 99.3718 65.7136 99.9545 66.4496 100.69C67.1856 101.425 67.7688 102.299 68.1657 103.26C68.5627 104.222 68.7655 105.252 68.7624 106.292ZM73.6107 129.314C73.6107 133.679 70.0582 137.228 65.6905 137.228C61.3228 137.228 57.7703 133.679 57.7703 129.314C57.7703 124.948 61.3228 121.4 65.6905 121.4C70.0582 121.352 73.6107 124.901 73.6107 129.314ZM84.4587 149.938C84.4587 154.302 80.9054 157.852 76.5377 157.852C72.17 157.852 68.6183 154.302 68.6183 149.938C68.6183 145.572 72.17 142.024 76.5377 142.024C80.9054 141.975 84.4587 145.525 84.4587 149.938ZM169.272 178.763C169.272 183.127 165.72 186.676 161.352 186.676C156.984 186.676 153.432 183.127 153.432 178.763C153.432 174.399 156.983 170.849 161.352 170.849C165.72 170.849 169.272 174.399 169.272 178.763ZM183.671 161.736C183.671 166.1 180.12 169.649 175.751 169.649C171.383 169.649 167.831 166.101 167.831 161.736C167.831 157.372 171.383 153.822 175.751 153.822C180.12 153.822 183.672 157.372 183.672 161.736M141.912 41.3516C141.912 45.7159 138.36 49.2649 133.992 49.2649C129.624 49.2649 126.073 45.7167 126.073 41.3516C126.073 36.9872 129.624 33.4382 133.992 33.4382C138.36 33.4382 141.912 36.9864 141.912 41.3516ZM121.081 34.0616C121.081 38.426 117.529 41.9749 113.161 41.9749C108.793 41.9749 105.242 38.4268 105.242 34.0616C105.242 29.6972 108.793 26.1475 113.161 26.1475C117.529 26.1475 121.081 29.6972 121.081 34.0616Z" fill="white"/>
<path d="M177.24 40.6802C206.399 40.6802 230.038 64.3013 230.038 93.4384C230.038 122.575 206.399 146.197 177.24 146.197C148.08 146.197 124.441 122.575 124.441 93.4384C124.441 64.3013 148.08 40.6802 177.24 40.6802Z" fill="#66B245"/>
<path d="M177.24 147.609C147.346 147.609 123.026 123.308 123.026 93.438C123.026 63.5678 147.346 39.2671 177.24 39.2671C207.132 39.2671 231.452 63.5669 231.452 93.438C231.452 123.308 207.132 147.609 177.24 147.609ZM177.24 42.0926C148.906 42.0926 125.855 65.127 125.855 93.438C125.855 121.75 148.906 144.783 177.24 144.783C205.573 144.783 228.623 121.75 228.623 93.438C228.623 65.1262 205.573 42.0926 177.24 42.0926Z" fill="white"/>
<path d="M104.906 157.852C128.764 157.852 148.105 177.177 148.105 201.017C148.105 224.856 128.764 244.183 104.906 244.183C81.0478 244.183 61.707 224.856 61.707 201.017C61.707 177.177 81.0478 157.852 104.906 157.852Z" fill="#66B245"/>
<path d="M104.906 245.596C80.3056 245.596 60.293 225.597 60.293 201.017C60.293 176.435 80.3056 156.438 104.907 156.438C129.506 156.438 149.519 176.435 149.519 201.018C149.519 225.597 129.506 245.596 104.906 245.596ZM104.906 159.264C81.866 159.264 63.1214 177.994 63.1214 201.017C63.1214 224.039 81.866 242.769 104.906 242.769C127.946 242.769 146.69 224.039 146.69 201.017C146.69 177.995 127.946 159.264 104.906 159.264Z" fill="white"/>
<path d="M69.3386 11.6147C85.2441 11.6147 98.1379 24.4995 98.1379 40.3921C98.1379 56.2855 85.2441 69.1694 69.3386 69.1694C53.433 69.1694 40.54 56.2855 40.54 40.3921C40.54 24.4987 53.4339 11.6147 69.3386 11.6147Z" fill="#66B245"/>
<path d="M69.3382 70.5819C52.6785 70.5819 39.125 57.0387 39.125 40.3918C39.125 23.7448 52.6785 10.2017 69.3382 10.2017C85.9978 10.2017 99.5513 23.7448 99.5513 40.3918C99.5513 57.0387 85.9978 70.5819 69.3382 70.5819ZM69.3382 13.028C54.2389 13.028 41.9535 25.3032 41.9535 40.3918C41.9535 55.4803 54.2381 67.7564 69.3382 67.7564C84.4382 67.7564 96.7237 55.4803 96.7237 40.3918C96.7237 25.304 84.4382 13.028 69.3382 13.028Z" fill="white"/>
</svg>
