<svg width="256" height="256" viewBox="0 0 256 256" fill="none" xmlns="http://www.w3.org/2000/svg">
<path d="M221.639 117.035C221.639 171.712 177.288 216.029 122.569 216.029C67.8514 216.029 23.5 171.712 23.5 117.035C23.5 62.3596 67.8514 18.042 122.569 18.042C177.288 17.994 221.639 62.3588 221.639 117.035Z" fill="#008CC1"/>
<path d="M67.4196 84.5648C67.4196 88.93 63.868 92.4789 59.5003 92.4789C55.1317 92.4789 51.5801 88.9308 51.5801 84.5648C51.5801 80.2004 55.1309 76.6515 59.5003 76.6515C60.5411 76.6485 61.5723 76.8511 62.5344 77.2477C63.4966 77.6443 64.3708 78.2271 65.1068 78.9625C65.8428 79.6979 66.426 80.5715 66.8229 81.5329C67.2199 82.4944 67.4226 83.5247 67.4196 84.5648ZM68.7634 106.292C68.7634 110.657 65.2118 114.206 60.844 114.206C56.4763 114.206 52.9239 110.657 52.9239 106.292C52.9239 101.927 56.4763 98.3789 60.844 98.3789C61.8849 98.3759 62.916 98.5785 63.8782 98.9752C64.8404 99.3718 65.7146 99.9545 66.4506 100.69C67.1866 101.425 67.7698 102.299 68.1667 103.26C68.5636 104.222 68.7664 105.252 68.7634 106.292ZM73.6116 129.314C73.6116 133.679 70.0592 137.228 65.6914 137.228C61.3237 137.228 57.7713 133.679 57.7713 129.314C57.7713 124.948 61.3237 121.4 65.6914 121.4C70.0592 121.352 73.6116 124.901 73.6116 129.314ZM84.4596 149.938C84.4596 154.302 80.9063 157.852 76.5386 157.852C72.1709 157.852 68.6193 154.302 68.6193 149.938C68.6193 145.572 72.1709 142.024 76.5386 142.024C80.9063 141.975 84.4596 145.525 84.4596 149.938ZM169.273 178.763C169.273 183.127 165.721 186.676 161.353 186.676C156.985 186.676 153.433 183.127 153.433 178.763C153.433 174.399 156.984 170.849 161.353 170.849C165.721 170.849 169.273 174.399 169.273 178.763ZM183.672 161.736C183.672 166.1 180.121 169.649 175.751 169.649C171.384 169.649 167.832 166.101 167.832 161.736C167.832 157.372 171.384 153.822 175.751 153.822C180.121 153.822 183.672 157.372 183.672 161.736M141.913 41.3516C141.913 45.7159 138.361 49.2649 133.993 49.2649C129.625 49.2649 126.074 45.7167 126.074 41.3516C126.074 36.9872 129.625 33.4382 133.993 33.4382C138.361 33.4382 141.913 36.9864 141.913 41.3516ZM121.082 34.0616C121.082 38.426 117.53 41.9749 113.162 41.9749C108.794 41.9749 105.243 38.4268 105.243 34.0616C105.243 29.6972 108.794 26.1475 113.162 26.1475C117.53 26.1475 121.082 29.6972 121.082 34.0616Z" fill="white"/>
<path d="M177.24 40.6797C206.399 40.6797 230.038 64.3008 230.038 93.4379C230.038 122.575 206.399 146.196 177.24 146.196C148.08 146.196 124.441 122.575 124.441 93.4379C124.441 64.3008 148.08 40.6797 177.24 40.6797Z" fill="#66B245"/>
<path d="M177.24 147.609C147.347 147.609 123.027 123.308 123.027 93.4385C123.027 63.5682 147.347 39.2676 177.24 39.2676C207.133 39.2676 231.453 63.5674 231.453 93.4385C231.453 123.308 207.133 147.609 177.24 147.609ZM177.24 42.0931C148.907 42.0931 125.856 65.1275 125.856 93.4385C125.856 121.75 148.907 144.783 177.24 144.783C205.574 144.783 228.624 121.75 228.624 93.4385C228.624 65.1267 205.574 42.0931 177.24 42.0931Z" fill="white"/>
<path d="M104.906 157.852C128.764 157.852 148.105 177.177 148.105 201.017C148.105 224.856 128.764 244.183 104.906 244.183C81.0478 244.183 61.707 224.856 61.707 201.017C61.707 177.177 81.0478 157.852 104.906 157.852Z" fill="#66B245"/>
<path d="M104.906 245.596C80.3056 245.596 60.293 225.598 60.293 201.017C60.293 176.436 80.3056 156.438 104.907 156.438C129.506 156.438 149.519 176.436 149.519 201.018C149.519 225.598 129.506 245.596 104.906 245.596ZM104.906 159.265C81.866 159.265 63.1214 177.994 63.1214 201.017C63.1214 224.039 81.866 242.77 104.906 242.77C127.946 242.77 146.69 224.039 146.69 201.017C146.69 177.995 127.946 159.265 104.906 159.265Z" fill="white"/>
<path d="M69.3376 11.6143C85.2431 11.6143 98.1369 24.499 98.1369 40.3916C98.1369 56.285 85.2431 69.169 69.3376 69.169C53.4321 69.169 40.5391 56.285 40.5391 40.3916C40.5391 24.4982 53.4329 11.6143 69.3376 11.6143Z" fill="#66B245"/>
<path d="M69.3382 70.5823C52.6785 70.5823 39.125 57.0392 39.125 40.3922C39.125 23.7453 52.6785 10.2021 69.3382 10.2021C85.9978 10.2021 99.5513 23.7453 99.5513 40.3922C99.5513 57.0392 85.9978 70.5823 69.3382 70.5823ZM69.3382 13.0285C54.2389 13.0285 41.9535 25.3037 41.9535 40.3922C41.9535 55.4808 54.2381 67.7569 69.3382 67.7569C84.4382 67.7569 96.7237 55.4808 96.7237 40.3922C96.7237 25.3045 84.4382 13.0285 69.3382 13.0285Z" fill="white"/>
</svg>
