<svg width="256" height="256" viewBox="0 0 256 256" fill="none" xmlns="http://www.w3.org/2000/svg">
<rect width="256" height="256" fill="white"/>
<path d="M120.403 12.0624C119.904 12.1078 118.316 12.2665 116.888 12.3799C83.9359 15.3503 53.0706 33.1276 33.5218 60.451C22.6362 75.6433 15.6739 92.8764 13.0432 111.13C12.1134 117.501 12 119.384 12 128.023C12 136.662 12.1134 138.544 13.0432 144.916C19.3478 188.474 50.3492 225.072 92.3949 238.632C99.9241 241.058 107.862 242.713 116.888 243.711C120.403 244.096 135.597 244.096 139.112 243.711C154.692 241.988 167.891 238.133 180.909 231.489C182.904 230.469 183.29 230.197 183.018 229.97C182.836 229.834 174.332 218.428 164.127 204.642L145.576 179.586L122.33 145.188C109.54 126.277 99.017 110.812 98.9263 110.812C98.8356 110.79 98.7449 126.073 98.6995 144.734C98.6315 177.409 98.6088 178.724 98.2006 179.495C97.6109 180.606 97.1574 181.06 96.2049 181.559C95.4792 181.921 94.8442 181.989 91.4197 181.989H87.4964L86.4532 181.332C85.7728 180.901 85.2739 180.334 84.9337 179.677L84.4575 178.656L84.5028 133.193L84.5709 87.7064L85.2739 86.8221C85.6368 86.3459 86.4078 85.7337 86.9521 85.4389C87.8819 84.9854 88.2448 84.9401 92.1681 84.9401C96.7945 84.9401 97.5656 85.1215 98.7675 86.4366C99.1077 86.7994 111.694 105.756 126.753 128.59C141.811 151.423 162.403 182.602 172.518 197.907L190.887 225.73L191.817 225.117C200.049 219.766 208.758 212.147 215.652 204.211C230.325 187.363 239.782 166.82 242.957 144.916C243.887 138.544 244 136.662 244 128.023C244 119.384 243.887 117.501 242.957 111.13C236.652 67.571 205.651 30.9734 163.605 17.4137C156.189 15.0102 148.297 13.3549 139.453 12.3572C137.275 12.1305 122.285 11.881 120.403 12.0624ZM167.891 82.2191C168.98 82.7633 169.864 83.8063 170.182 84.8947C170.363 85.4843 170.409 98.0916 170.363 126.503L170.295 167.273L163.106 156.253L155.894 145.233V115.597C155.894 96.4363 155.985 85.6657 156.121 85.1442C156.484 83.8744 157.278 82.8767 158.366 82.2871C159.296 81.8109 159.636 81.7656 163.197 81.7656C166.553 81.7656 167.143 81.8109 167.891 82.2191Z" fill="black"/>
</svg>
