<svg width="256" height="256" viewBox="0 0 256 256" fill="none" xmlns="http://www.w3.org/2000/svg">
<path d="M137.715 14.4751C131.834 11.1675 124.166 11.1824 118.28 14.4751C88.7994 30.7445 59.3181 47.0188 29.8321 63.2808C24.0945 66.2992 20.2246 72.4607 20.2864 78.8558V177.157C20.2449 183.677 24.3143 189.898 30.1999 192.875C38.6692 197.381 46.8977 202.344 55.5201 206.55C65.4801 211.445 77.9412 212.527 88.023 207.423C96.2068 203.193 99.8417 193.784 99.831 185.138C99.8972 152.696 99.8417 120.254 99.8567 87.811C100.051 86.3693 98.9684 84.8281 97.3958 84.8629C93.6283 84.8033 89.8558 84.8281 86.0883 84.853C84.6648 84.7187 83.2753 85.9011 83.383 87.3321C83.3325 119.565 83.3929 151.808 83.3523 184.046C83.4344 188.506 80.4217 192.791 76.1241 194.297C66.1984 197.776 37.8677 179.381 37.8677 179.381C36.8281 178.9 36.1678 177.772 36.2698 176.652C36.2698 144.22 36.2748 111.787 36.2698 79.3604C36.1268 78.053 36.9326 76.8755 38.1332 76.3417C67.5169 60.1682 96.8854 43.9542 126.269 27.7707C127.29 27.0895 128.712 27.0916 129.731 27.7757C159.114 43.9542 188.488 60.1533 217.877 76.3276C219.081 76.8606 219.853 78.0579 219.73 79.3604C219.725 111.787 219.74 144.22 219.72 176.648C219.807 177.795 219.214 178.907 218.143 179.411C189.033 195.497 159.592 211.064 130.747 227.617C129.488 228.339 128.062 229.157 126.652 228.362C119.066 224.166 111.573 219.807 104.012 215.57C103.19 215.057 102.144 214.837 101.286 215.411C97.8962 217.197 94.7079 218.644 90.8153 220.185C85.3484 222.349 86.2217 223.234 91.1525 226.107C99.9942 231.111 108.851 236.095 117.692 241.103C123.513 244.736 131.334 244.994 137.342 241.638C166.828 225.389 196.304 209.12 225.795 192.871C231.665 189.878 235.755 183.682 235.713 177.157V78.8558C235.771 72.5904 232.049 66.5388 226.484 63.4757C196.901 47.127 167.303 30.8139 137.715 14.4751Z" fill="#8CC84B"/>
<path d="M182.204 88.2801C170.632 82.089 156.864 81.7593 144.004 82.5688C134.713 83.4868 124.942 86.0504 118.173 92.7105C111.231 99.4053 109.719 110.217 113.017 118.956C115.38 125.132 121.328 129.149 127.48 131.273C135.403 134.07 143.726 134.935 152.05 135.8C159.643 136.589 167.239 137.379 174.537 139.635C177.518 140.623 180.99 142.134 181.903 145.378C182.746 149.219 181.822 153.684 178.703 156.353C168.796 164.194 141.24 162.992 131.452 156.821C127.495 154.192 125.789 149.538 125.096 145.103C125.019 143.721 123.906 142.453 122.406 142.558C118.648 142.513 114.89 142.523 111.133 142.553C109.822 142.443 108.459 143.376 108.387 144.714C107.615 165.028 126.272 173.884 143.775 175.834C153.775 176.786 163.995 176.732 173.842 174.586C181.245 172.9 188.667 169.797 193.763 164.095C200.047 157.166 201.282 146.849 198.464 138.218C196.31 131.778 190.153 127.646 183.859 125.521C175.3 122.586 165.157 121.009 157.404 120.27C146.137 119.197 132.747 119.636 129.558 112.232C128.286 108.355 129.368 103.541 132.931 101.156C142.358 94.762 161.543 95.6113 171.305 100.388C175.788 102.633 178.385 107.243 179.458 111.897C179.657 113.264 180.576 114.691 182.159 114.631C185.891 114.706 189.623 114.651 193.354 114.656C194.635 114.746 196.039 114.022 196.289 112.71C196.131 102.982 191.164 93.0245 182.204 88.2801Z" fill="#8CC84B"/>
</svg>
