<svg width="256" height="256" viewBox="0 0 256 256" fill="none" xmlns="http://www.w3.org/2000/svg">
<path d="M0 128C0 57.3076 57.3076 0 128 0C198.692 0 256 57.3076 256 128C256 198.692 198.692 256 128 256C57.3076 256 0 198.692 0 128Z" fill="#0EA982"/>
<path d="M210.52 110.569C212.673 104.104 213.418 97.2552 212.704 90.4804C211.991 83.7056 209.835 77.1606 206.381 71.2826C201.26 62.398 193.441 55.3639 184.051 51.1943C174.662 47.0247 164.186 45.9351 154.135 48.0826C148.425 41.7512 141.144 37.0288 133.023 34.39C124.902 31.7511 116.228 31.2886 107.871 33.0489C99.5146 34.8092 91.7697 38.7304 85.4145 44.4185C79.0592 50.1067 74.3173 57.3616 71.6651 65.4546C64.969 66.8233 58.643 69.6009 53.1101 73.6017C47.5771 77.6025 42.9646 82.7345 39.5807 88.6545C34.4044 97.5243 32.1921 107.805 33.2636 118.011C34.3351 128.216 38.6349 137.818 45.5414 145.427C43.3798 151.889 42.6274 158.736 43.3347 165.511C44.042 172.286 46.1925 178.833 49.6425 184.713C54.7697 193.6 62.5954 200.636 71.9918 204.806C81.3882 208.975 91.8701 210.064 101.927 207.913C106.463 213.006 112.038 217.075 118.278 219.849C124.518 222.623 131.279 224.038 138.112 224C148.414 224.009 158.452 220.755 166.778 214.708C175.105 208.66 181.287 200.132 184.434 190.353C191.13 188.982 197.455 186.204 202.987 182.203C208.52 178.202 213.133 173.071 216.519 167.153C221.634 158.296 223.808 148.054 222.731 137.891C221.653 127.728 217.379 118.164 210.52 110.569ZM138.112 211.433C129.674 211.447 121.502 208.499 115.026 203.107L116.165 202.464L154.515 180.398C155.469 179.84 156.261 179.044 156.814 178.089C157.367 177.133 157.66 176.051 157.666 174.948V121.053L173.878 130.402C173.958 130.442 174.028 130.501 174.081 130.573C174.134 130.645 174.169 130.729 174.183 130.818V175.478C174.163 185.008 170.356 194.142 163.596 200.88C156.835 207.619 147.672 211.413 138.112 211.433ZM60.5776 178.43C56.3462 171.147 54.8269 162.61 56.287 154.321L57.4267 155.002L95.8137 177.068C96.7635 177.623 97.8448 177.916 98.9461 177.916C100.047 177.916 101.129 177.623 102.079 177.068L148.971 150.12V168.779C148.967 168.876 148.941 168.97 148.894 169.055C148.848 169.141 148.783 169.214 148.705 169.271L109.862 191.601C101.572 196.361 91.7266 197.648 82.4862 195.179C73.2459 192.709 65.3664 186.686 60.5776 178.43ZM50.478 95.1649C54.7387 87.8351 61.4639 82.2444 69.4628 79.3826V124.8C69.4484 125.897 69.7297 126.978 70.2773 127.93C70.8248 128.882 71.6187 129.67 72.576 130.212L119.241 157.046L103.028 166.394C102.94 166.441 102.842 166.465 102.743 166.465C102.644 166.465 102.546 166.441 102.458 166.394L63.6915 144.102C55.4175 139.322 49.3813 131.468 46.9047 122.26C44.4281 113.052 45.713 103.241 50.478 94.9761V95.1649ZM183.675 126.011L136.859 98.9121L153.034 89.6001C153.122 89.5537 153.219 89.5294 153.319 89.5294C153.418 89.5294 153.516 89.5537 153.604 89.6001L192.37 111.93C198.298 115.34 203.13 120.359 206.303 126.403C209.475 132.447 210.858 139.266 210.289 146.064C209.719 152.862 207.222 159.358 203.088 164.794C198.953 170.23 193.353 174.381 186.941 176.764V131.346C186.907 130.251 186.588 129.183 186.016 128.248C185.443 127.312 184.637 126.542 183.675 126.011ZM199.813 101.826L198.673 101.145L160.362 78.8906C159.406 78.3315 158.318 78.0368 157.21 78.0368C156.102 78.0368 155.014 78.3315 154.059 78.8906L107.205 105.838V87.1793C107.195 87.0845 107.211 86.9887 107.251 86.9021C107.292 86.8155 107.354 86.7413 107.433 86.6873L146.2 64.3946C152.141 60.9827 158.935 59.3277 165.785 59.6231C172.636 59.9184 179.26 62.152 184.884 66.0625C190.508 69.9729 194.899 75.3987 197.542 81.7052C200.186 88.0117 200.974 94.9381 199.813 101.674L199.813 101.826ZM98.357 134.904L82.1451 125.594C82.064 125.545 81.9946 125.479 81.9419 125.401C81.8892 125.322 81.8544 125.233 81.8401 125.14V80.5938C81.849 73.76 83.8095 67.0699 87.4922 61.3058C91.175 55.5417 96.4278 50.9417 102.637 48.0438C108.845 45.1458 115.754 44.0695 122.553 44.9409C129.353 45.8122 135.764 48.5951 141.035 52.9642L139.896 53.6082L101.547 75.6722C100.593 76.2302 99.8004 77.026 99.2478 77.9816C98.6952 78.9372 98.4015 80.0196 98.3956 81.1225L98.357 134.904ZM107.166 115.981L128.049 103.982L148.971 115.981V139.976L128.125 151.974L107.205 139.976L107.166 115.981Z" fill="white"/>
</svg>
