<svg width="256" height="256" viewBox="0 0 256 256" fill="none" xmlns="http://www.w3.org/2000/svg">
<rect width="256" height="256" fill="white"/>
<mask id="mask0_2662_8453" style="mask-type:luminance" maskUnits="userSpaceOnUse" x="15" y="68" width="226" height="120">
<path d="M15.2622 128C15.2622 160.979 65.7377 187.715 128 187.715C190.262 187.715 240.738 160.979 240.738 128C240.738 95.0204 190.262 68.2842 128 68.2842C65.7377 68.2842 15.2622 95.0204 15.2622 128Z" fill="white"/>
</mask>
<g mask="url(#mask0_2662_8453)">
<path d="M15.2622 128C15.2622 160.979 65.7377 187.715 128 187.715C190.262 187.715 240.738 160.979 240.738 128C240.738 95.0204 190.262 68.2842 128 68.2842C65.7377 68.2842 15.2622 95.0204 15.2622 128Z" fill="url(#paint0_radial_2662_8453)"/>
</g>
<mask id="mask1_2662_8453" style="mask-type:luminance" maskUnits="userSpaceOnUse" x="10" y="61" width="236" height="134">
<path d="M10.5645 61.4846H245.435V194.515H10.5645V61.4846Z" fill="white"/>
</mask>
<g mask="url(#mask1_2662_8453)">
<path d="M127.999 183.281C187.83 183.281 236.333 158.531 236.333 127.999C236.333 97.4687 187.83 72.7177 127.999 72.7177C68.1691 72.7177 19.6655 97.4687 19.6655 127.999C19.6655 158.531 68.1691 183.281 127.999 183.281Z" fill="#777BB3"/>
</g>
<mask id="mask2_2662_8453" style="mask-type:luminance" maskUnits="userSpaceOnUse" x="10" y="61" width="236" height="134">
<path d="M10.5645 61.4846H245.435V194.515H10.5645V61.4846Z" fill="white"/>
</mask>
<g mask="url(#mask2_2662_8453)">
<path d="M76.5133 134.854C81.4329 134.854 85.1056 133.94 87.4294 132.139C89.7284 130.357 91.3162 127.269 92.1484 122.961C92.9244 118.935 92.6288 116.124 91.2701 114.607C89.8809 113.057 86.8773 112.271 82.343 112.271H74.481L70.1224 134.854H76.5133ZM50.7986 162.671C50.4337 162.671 50.0871 162.507 49.8551 162.223C49.6226 161.939 49.5285 161.565 49.5982 161.204L61.1492 101.361C61.261 100.782 61.7645 100.364 62.3501 100.364H87.2455C95.0696 100.364 100.893 102.504 104.554 106.723C108.234 110.965 109.37 116.894 107.931 124.346C107.346 127.382 106.339 130.201 104.938 132.726C103.536 135.253 101.682 137.591 99.4286 139.677C96.7308 142.219 93.6775 144.063 90.3616 145.147C87.0983 146.218 82.9073 146.761 77.9053 146.761H67.8247L64.9459 161.674C64.8342 162.253 64.331 162.671 63.7454 162.671H50.7986Z" fill="black"/>
<path d="M75.4896 113.503H82.3432C87.8158 113.503 89.7168 114.712 90.3627 115.433C91.4342 116.629 91.6365 119.152 90.9478 122.727C90.1739 126.731 88.7394 129.569 86.6834 131.163C84.5786 132.795 81.1566 133.622 76.5135 133.622H71.6065L75.4896 113.503ZM87.2457 99.1323H62.3499C61.1788 99.1323 60.172 99.9683 59.9486 101.126L48.3975 160.969C48.2581 161.691 48.4465 162.438 48.9109 163.006C49.3758 163.574 50.0681 163.902 50.7988 163.902H63.7453C64.9167 163.902 65.9235 163.066 66.147 161.909L68.8333 147.992H77.9056C83.036 147.992 87.355 147.429 90.7415 146.318C94.2241 145.179 97.4283 143.247 100.264 140.577C102.61 138.404 104.542 135.965 106.006 133.327C107.47 130.688 108.522 127.745 109.132 124.58C110.647 116.737 109.417 110.455 105.475 105.913C101.572 101.414 95.4385 99.1323 87.2457 99.1323ZM68.6384 136.085H76.5135C81.7332 136.085 85.6212 135.095 88.1758 133.115C90.7309 131.134 92.4541 127.829 93.3495 123.196C94.2062 118.749 93.816 115.61 92.1788 113.782C90.5396 111.954 87.2616 111.039 82.3432 111.039H73.4728L68.6384 136.085ZM87.2457 101.596C94.7351 101.596 100.199 103.575 103.633 107.533C107.067 111.492 108.101 117.017 106.731 124.111C106.167 127.033 105.213 129.705 103.87 132.125C102.526 134.547 100.77 136.762 98.6011 138.77C96.0159 141.206 93.144 142.942 89.9838 143.976C86.8237 145.012 82.7987 145.529 77.9056 145.529H66.8161L63.7453 161.439H50.7988L62.3499 101.596H87.2457Z" fill="white"/>
<path d="M137.616 146.761C137.25 146.761 136.904 146.597 136.672 146.312C136.439 146.029 136.345 145.655 136.415 145.294L141.525 118.816C142.011 116.298 141.891 114.49 141.187 113.727C140.757 113.26 139.463 112.477 135.639 112.477H126.382L119.958 145.764C119.846 146.343 119.342 146.761 118.757 146.761H105.912C105.547 146.761 105.201 146.597 104.968 146.312C104.736 146.029 104.642 145.655 104.711 145.294L116.263 85.4507C116.374 84.8722 116.878 84.4542 117.463 84.4542H130.308C130.673 84.4542 131.019 84.6185 131.252 84.9022C131.484 85.1863 131.578 85.5595 131.509 85.9208L128.721 100.364H138.68C146.266 100.364 151.41 101.711 154.407 104.482C157.461 107.308 158.414 111.828 157.239 117.916L151.865 145.764C151.753 146.343 151.25 146.761 150.664 146.761H137.616Z" fill="black"/>
<path d="M130.308 83.2221H117.464C116.292 83.2221 115.285 84.0581 115.062 85.2155L103.511 145.059C103.371 145.781 103.56 146.528 104.025 147.096C104.489 147.664 105.182 147.992 105.913 147.992H118.757C119.928 147.992 120.935 147.156 121.159 145.999L127.391 113.708H135.639C139.457 113.708 140.258 114.529 140.29 114.565C140.522 114.816 140.827 115.978 140.324 118.581L135.214 145.059C135.075 145.781 135.263 146.528 135.728 147.096C136.193 147.664 136.885 147.992 137.616 147.992H150.664C151.835 147.992 152.843 147.156 153.066 145.999L158.44 118.151C159.701 111.614 158.622 106.71 155.234 103.575C152.002 100.585 146.587 99.1324 138.68 99.1324H130.205L132.71 86.1558C132.849 85.4336 132.661 84.6863 132.196 84.1189C131.731 83.551 131.039 83.2221 130.308 83.2221ZM130.308 85.6857L127.237 101.596H138.68C145.88 101.596 150.846 102.861 153.579 105.389C156.312 107.918 157.131 112.016 156.039 117.681L150.664 145.529H137.616L142.726 119.051C143.307 116.039 143.093 113.984 142.084 112.889C141.074 111.793 138.925 111.245 135.639 111.245H125.373L118.757 145.529H105.913L117.464 85.6857H130.308Z" fill="white"/>
<path d="M177.563 134.854C182.483 134.854 186.155 133.94 188.479 132.139C190.778 130.357 192.366 127.269 193.199 122.961C193.975 118.935 193.679 116.124 192.32 114.607C190.931 113.057 187.927 112.271 183.393 112.271H175.531L171.172 134.854H177.563ZM151.849 162.671C151.484 162.671 151.137 162.507 150.905 162.223C150.673 161.939 150.578 161.565 150.648 161.204L162.199 101.361C162.311 100.782 162.814 100.364 163.4 100.364H188.295C196.12 100.364 201.943 102.504 205.604 106.723C209.284 110.964 210.42 116.894 208.981 124.346C208.395 127.382 207.388 130.201 205.988 132.726C204.585 135.253 202.732 137.591 200.478 139.677C197.781 142.219 194.727 144.063 191.411 145.147C188.148 146.218 183.957 146.761 178.955 146.761H168.874L165.996 161.674C165.884 162.253 165.381 162.671 164.795 162.671H151.849Z" fill="black"/>
<path d="M176.539 113.503H183.393C188.865 113.503 190.766 114.712 191.412 115.433C192.484 116.629 192.686 119.152 191.997 122.727C191.223 126.731 189.788 129.569 187.733 131.163C185.628 132.795 182.206 133.622 177.563 133.622H172.656L176.539 113.503ZM188.295 99.1323H163.4C162.229 99.1323 161.222 99.9683 160.998 101.126L149.447 160.969C149.308 161.691 149.496 162.438 149.961 163.006C150.426 163.574 151.118 163.902 151.849 163.902H164.795C165.966 163.902 166.973 163.066 167.197 161.909L169.883 147.992H178.955C184.085 147.992 188.404 147.429 191.791 146.318C195.274 145.179 198.479 143.247 201.315 140.576C203.66 138.403 205.591 135.965 207.055 133.327C208.519 130.688 209.571 127.745 210.182 124.58C211.697 116.736 210.466 110.455 206.524 105.912C202.621 101.414 196.488 99.1323 188.295 99.1323ZM169.688 136.085H177.563C182.783 136.085 186.671 135.095 189.225 133.115C191.781 131.134 193.503 127.829 194.399 123.196C195.256 118.749 194.866 115.61 193.228 113.782C191.589 111.954 188.311 111.039 183.393 111.039H174.522L169.688 136.085ZM188.295 101.596C195.784 101.596 201.248 103.575 204.682 107.533C208.116 111.492 209.15 117.017 207.78 124.111C207.216 127.033 206.262 129.705 204.92 132.125C203.575 134.547 201.82 136.762 199.65 138.77C197.065 141.206 194.193 142.942 191.033 143.976C187.873 145.012 183.848 145.529 178.955 145.529H167.865L164.795 161.439H151.849L163.4 101.596H188.295Z" fill="white"/>
</g>
<defs>
<radialGradient id="paint0_radial_2662_8453" cx="0" cy="0" r="1" gradientUnits="userSpaceOnUse" gradientTransform="translate(82.9505 89.2783) scale(148.041 149.067)">
<stop stop-color="#AEB2D5"/>
<stop offset="0.3" stop-color="#AEB2D5"/>
<stop offset="0.75" stop-color="#484C89"/>
<stop offset="1" stop-color="#484C89"/>
</radialGradient>
</defs>
</svg>
