<svg width="256" height="256" viewBox="0 0 256 256" fill="none" xmlns="http://www.w3.org/2000/svg">
<path d="M113.216 212.565C120.147 212.565 125.767 218.184 125.767 225.116C125.767 232.048 120.147 237.667 113.216 237.667C106.284 237.667 100.665 232.048 100.665 225.116C100.665 218.184 106.284 212.565 113.216 212.565ZM182.848 189.665L195.251 193.34L185.406 226.568C184.546 229.472 181.786 231.39 178.765 231.184L175.724 230.975L175.649 231.037L144.053 228.819L144.932 215.913L166.16 217.354L152.263 197.306L162.894 189.935L176.809 210.008L182.848 189.665ZM47.8544 166.695L60.758 167.608L59.2467 188.833L79.2581 174.918L86.6452 185.537L66.6077 199.467L87.0603 205.494L83.4044 217.902L50.0193 208.066C47.1047 207.208 45.1807 204.436 45.3956 201.405L47.8544 166.695ZM131.169 148.621L154.457 176.737L143.961 185.431L130.101 168.698L125.608 194.425L112.183 192.078L116.681 166.311L98.0216 177.313L91.1037 165.57L122.462 147.096C125.345 145.398 129.034 146.044 131.169 148.621ZM196.326 129.756L207.959 123.427L224.907 154.577C226.392 157.305 225.78 160.699 223.436 162.738L221.038 164.81L196.571 186.102L187.88 176.109L204.329 161.799L179.828 157.385L182.179 144.351L206.662 148.763L196.326 129.756ZM59.1293 97.1901L67.8929 107.12L51.6699 121.428L76.2173 125.714L73.942 138.761L49.3676 134.472L59.9231 153.554L48.3342 159.965L31.1149 128.838C29.6115 126.12 30.1989 122.723 32.5275 120.668L59.1293 97.1901ZM142.104 86.9459L165.314 114.987L154.815 123.677L140.958 106.937L136.465 132.672L123.04 130.325L127.522 104.657L108.935 115.554L102.043 103.795L130.594 87.0555L130.622 86.9468L130.748 86.9631L133.409 85.4117C136.291 83.7224 139.974 84.372 142.104 86.9459ZM172.013 73.1552L177.089 60.9227L209.924 74.5486C212.79 75.7379 214.446 78.758 213.908 81.8137L213.361 84.8533L207.754 116.748L194.711 114.45L198.469 93.1L176.685 105.14L170.284 93.5457L192.109 81.4961L172.013 73.1552ZM109.463 49.05L110.027 62.2818L88.3371 63.2089L104.696 81.9038L94.729 90.6251L78.3425 71.9019L74.5247 93.2774L61.4876 90.9454L67.7356 56.0143C68.2816 52.9613 70.8732 50.6964 73.9719 50.5641L77.0412 50.4269L77.11 50.3769L109.463 49.05ZM153.831 20.8312L176.936 49.0495L166.391 57.6838L152.678 40.9328L148.052 66.6337L134.639 64.2199L139.272 38.4612L120.549 49.4079L113.673 37.6406L145.121 19.2647C148.014 17.5738 151.708 18.2381 153.831 20.8312Z" fill="#201D1E"/>
</svg>
