<svg width="256" height="256" viewBox="0 0 256 256" fill="none" xmlns="http://www.w3.org/2000/svg">
<rect width="256" height="256" fill="white"/>
<path d="M183.59 179.514C185.059 167.54 184.619 165.784 193.731 167.724L196.045 167.923C203.052 168.235 212.218 166.82 217.603 164.371C229.195 159.107 236.068 150.317 224.638 152.627C198.565 157.891 196.773 149.25 196.773 149.25C224.304 109.268 235.813 58.5153 225.879 46.0921C198.783 12.2058 151.881 28.2298 151.097 28.6459L150.847 28.691C145.695 27.6448 139.93 27.0198 133.453 26.9173C121.654 26.7275 112.701 29.9447 105.91 34.9864C105.91 34.9864 22.2392 1.24778 26.1317 77.4161C26.9596 93.6193 49.8616 200.023 77.1766 167.884C87.1601 156.132 96.8082 146.195 96.8082 146.195C101.599 149.31 107.335 150.899 113.351 150.329L113.816 149.941C113.67 151.4 113.734 152.827 114.002 154.517C106.966 162.212 109.034 163.563 94.9653 166.397C80.7322 169.268 89.0941 174.38 94.5522 175.716C101.171 177.336 116.482 179.63 126.831 165.455L126.419 167.072C129.179 169.234 128.992 182.607 129.384 192.162C129.776 201.718 130.429 210.635 132.419 215.892C134.409 221.148 136.758 234.69 155.247 230.812C170.699 227.571 182.513 222.906 183.59 179.514Z" fill="black"/>
<path d="M178.734 12.0065C196.243 12.2116 219.022 17.4488 235.704 38.3542L235.949 38.6675C241.034 45.2841 242.014 54.3667 241.895 61.932C241.763 70.3372 240.182 80.1203 237.48 90.3799C233.286 106.306 226.14 124.323 216.334 141.52C217.994 141.298 219.884 140.985 222.029 140.551C224.002 140.152 226.21 139.855 228.447 139.93C230.404 139.995 234.105 140.388 237.515 142.93C241.819 146.138 243.345 150.961 242.936 155.155C242.604 158.556 241.101 161.136 240.155 162.536C238.142 165.513 235.264 168.03 232.632 169.954C229.815 172.012 226.466 173.977 222.826 175.635L222.826 175.635C215.367 179.034 204.488 180.614 196.122 180.351C196.117 180.391 196.113 180.431 196.108 180.471C195.516 202.339 192.279 217.378 185.061 227.457C177.088 238.591 165.969 241.332 157.857 243.037C151.747 244.322 145.968 244.374 140.663 242.871C135.231 241.332 131.124 238.393 128.137 235.01C123.015 229.207 120.814 220.816 120.624 220.313V220.312C119.083 216.232 118.292 211.473 117.799 207.104C117.288 202.574 117.013 197.599 116.814 192.745C116.742 190.963 116.691 189.235 116.643 187.555C106.073 190.751 96.061 188.885 91.5319 187.774C89.204 187.203 86.6469 186.264 84.3119 185.011C83.2956 184.465 81.6777 183.527 80.0454 182.099C76.531 184.484 72.4392 186.106 67.7537 186.301C59.6948 186.637 53.3736 182.599 49.089 178.514C40.8711 170.68 34.6374 157.484 29.9838 145.069C25.1138 132.076 21.1806 117.681 18.4165 105.582C15.7967 94.1141 14.0242 83.8214 13.6754 78.4697L13.6463 77.9676C12.5682 56.8271 17.4596 40.8467 27.8956 30.0285C38.2185 19.3275 51.9361 15.7994 63.9286 15.1604C75.9424 14.5203 87.6726 16.6735 96.0715 18.8069C99.252 19.6147 102.048 20.4441 104.315 21.171C112.442 16.7209 122.202 14.2374 133.656 14.4219L133.655 14.4224C139.521 14.5156 144.971 14.9991 150.043 15.8393C151.725 15.3533 153.967 14.769 156.655 14.2055C162.248 13.0334 169.98 11.904 178.734 12.0065ZM178.434 36.7291C171.988 36.6536 166.164 37.4929 161.902 38.3862C159.787 38.8296 158.108 39.2752 156.994 39.6012C156.683 39.6922 156.423 39.7726 156.215 39.838L155.313 40.3174L150.689 41.1546L148.279 40.6641C143.984 39.7899 139.015 39.235 133.247 39.1435H133.243C124.078 38.9958 117.919 41.4454 113.519 44.7192L107.79 48.9816L101.155 46.3008C101.156 46.3012 101.157 46.3015 101.158 46.3018C101.161 46.3031 101.163 46.3038 101.164 46.3042L101.155 46.3008L101.152 46.2989C101.134 46.2921 101.1 46.2794 101.051 46.2601C100.944 46.2184 100.763 46.1484 100.512 46.0548C100.011 45.8673 99.2367 45.5853 98.2291 45.2427C96.2077 44.5553 93.2827 43.6351 89.7763 42.7445C82.6204 40.9268 73.6922 39.401 65.2905 39.8486C56.8674 40.2974 50.4119 42.6238 46.1523 47.0393C42.006 51.3375 37.9056 59.7355 38.7722 76.7298C38.9212 79.6511 40.2907 88.4685 42.9629 100.166C45.5752 111.601 49.2244 124.873 53.5906 136.522C58.1734 148.748 62.8299 157.169 66.6051 160.768C66.6548 160.815 66.7042 160.859 66.751 160.902C66.9824 160.668 67.2503 160.379 67.5531 160.022C72.6894 153.963 77.7183 148.397 81.4521 144.355C83.3232 142.33 84.8783 140.678 85.971 139.526C86.5174 138.95 86.9487 138.499 87.2466 138.189C87.3956 138.034 87.5115 137.913 87.5915 137.83C87.6315 137.789 87.6627 137.757 87.6847 137.734C87.6956 137.723 87.7044 137.714 87.7108 137.707C87.714 137.704 87.7167 137.701 87.7187 137.699L87.7221 137.695C87.7225 137.695 87.7228 137.695 96.1739 145.604L87.7231 137.694L94.9943 130.189L103.783 135.916C105.36 136.943 107.058 137.622 108.817 137.926L129.379 120.728L126.346 151.175C126.323 151.404 126.303 151.771 126.442 152.655L127.357 158.444L124.293 161.802L129.004 163.943L134.268 157.464C136.934 159.555 138.252 162.12 138.875 163.539C139.574 165.134 140.002 166.716 140.286 168.002C140.853 170.577 141.15 173.446 141.337 176.036C141.698 181.047 141.782 187.606 141.952 191.751L142.027 193.498C142.209 197.524 142.444 201.194 142.803 204.381C143.232 208.184 143.761 210.522 144.208 211.706C144.565 212.65 144.94 213.806 145.157 214.454C145.426 215.258 145.66 215.923 145.912 216.547C146.432 217.834 146.858 218.489 147.141 218.808C147.299 218.988 147.367 219.039 147.633 219.115C148.027 219.226 149.469 219.517 152.596 218.86C159.925 217.32 162.429 216.103 164.488 213.228C167.237 209.388 170.447 200.545 170.974 179.282L170.988 178.693L171.06 178.107C171.383 175.466 171.693 172.567 172.061 170.383C172.381 168.492 173.065 164.698 175.457 161.35C178.183 157.537 181.945 155.699 185.532 155.04C185.454 154.878 185.379 154.717 185.309 154.559C185.066 154.008 184.876 153.49 184.727 153.017C184.653 152.781 184.589 152.556 184.535 152.343C184.507 152.237 184.482 152.133 184.459 152.033C184.447 151.983 184.436 151.934 184.425 151.886C184.42 151.862 184.415 151.838 184.41 151.814C184.407 151.802 184.404 151.784 184.402 151.778C184.399 151.761 184.395 151.743 196.721 149.279L184.395 151.743L183.343 146.659L186.297 142.36C199.203 123.579 208.388 102.172 213.125 84.1854C215.496 75.1806 216.648 67.4238 216.74 61.5504C216.837 55.368 215.725 53.4297 215.863 53.5593L215.908 53.6121C205.514 40.5863 191.322 36.88 178.434 36.7291Z" fill="black"/>
<path d="M224.641 152.613C198.566 157.876 196.773 149.236 196.773 149.236C224.305 109.256 235.813 58.5079 225.881 46.0874C198.786 12.2068 151.882 28.2302 151.1 28.6462L150.848 28.6903C145.696 27.6437 139.931 27.0202 133.451 26.9167C121.652 26.7275 112.703 29.9439 105.911 34.984C105.911 34.984 22.2402 1.25048 26.1316 77.4102C26.9595 93.6126 49.8607 200.005 77.1765 167.869C87.1604 156.119 96.8068 146.183 96.8068 146.183C101.598 149.298 107.334 150.887 113.347 150.316L113.814 149.928C113.669 151.387 113.735 152.814 114.001 154.503C106.964 162.198 109.032 163.549 94.965 166.382C80.731 169.253 89.0929 174.364 94.5524 175.7C101.171 177.32 116.483 179.615 126.829 165.44L126.417 167.058C129.174 169.219 131.11 181.116 130.786 191.9C130.461 202.685 130.244 210.089 132.417 215.872C134.59 221.656 136.755 234.668 155.247 230.79C170.699 227.55 178.707 219.152 179.821 205.143C180.611 195.184 182.4 196.657 182.513 187.753L183.948 183.538C185.603 170.038 184.211 165.682 193.731 167.708L196.044 167.907C203.051 168.219 212.222 166.804 217.604 164.356C229.194 159.092 236.067 150.303 224.64 152.613H224.641Z" fill="#336791"/>
<path d="M128.021 156.002C130.321 156.065 132.134 157.958 132.07 160.228C131.715 172.753 131.761 185.297 132.202 195.445C132.422 200.523 132.74 204.955 133.148 208.462C133.573 212.108 134.054 214.351 134.449 215.328L134.687 215.91C135.904 218.851 137.534 222.216 140.42 224.618C143.245 226.968 147.813 228.822 155.925 227.106C163.22 225.561 167.527 223.423 170.326 220.548C173.118 217.682 174.909 213.571 176.057 206.993V206.993C177.82 196.902 181.246 168.649 181.677 162.965C181.849 160.7 183.849 159.001 186.144 159.171C188.439 159.341 190.16 161.315 189.988 163.58C189.537 169.528 186.078 198.042 184.27 208.391C182.994 215.703 180.78 221.684 176.334 226.25C171.895 230.808 165.732 233.443 157.673 235.149L157.673 235.15C147.408 237.322 140.114 235.124 135.048 230.908C130.236 226.902 127.965 221.479 126.711 218.382L126.71 218.381C125.857 216.274 125.292 213.033 124.869 209.4C124.43 205.628 124.101 200.984 123.876 195.798C123.425 185.416 123.38 172.673 123.739 159.998C123.804 157.728 125.721 155.938 128.021 156.002Z" fill="white"/>
<path d="M64.3714 23.1145C75.1529 22.5077 85.921 24.4148 93.8842 26.4143C97.8895 27.42 101.24 28.4634 103.598 29.2584C104.778 29.6562 105.712 29.9927 106.359 30.2328C106.682 30.3529 106.934 30.449 107.108 30.5166C107.196 30.5503 107.264 30.5767 107.312 30.5958C107.336 30.6052 107.356 30.6128 107.37 30.6184C107.377 30.6212 107.382 30.6239 107.387 30.6257C107.389 30.6266 107.392 30.6276 107.393 30.6281C107.395 30.629 107.39 30.6455 105.909 34.1947L107.397 30.6295C109.537 31.4884 110.563 33.8864 109.687 35.9857C108.812 38.0844 106.368 39.0898 104.227 38.2324C104.227 38.2321 104.225 38.2315 104.222 38.2304C104.216 38.228 104.205 38.2236 104.189 38.2174C104.157 38.2048 104.106 38.1847 104.035 38.1576C103.895 38.1032 103.679 38.0206 103.393 37.9143C102.82 37.7016 101.967 37.394 100.875 37.0258C98.6889 36.2888 95.5566 35.3128 91.8069 34.3713C84.2597 32.4764 74.4277 30.7759 64.8517 31.3149C55.2702 31.8542 46.4177 34.5993 40.151 41.1156C33.9201 47.5948 29.5673 58.5118 30.5012 76.8396C30.6881 80.509 32.1964 89.8913 34.8699 101.604C37.5235 113.229 41.2542 126.84 45.7726 138.905C50.3631 151.162 55.528 161.147 60.7655 166.145C63.3264 168.588 65.3897 169.35 67.0082 169.282C68.601 169.216 70.9311 168.296 73.9242 164.764C78.9432 158.837 83.7174 153.554 87.2354 149.755C88.9955 147.854 90.4437 146.322 91.454 145.263C91.9592 144.733 92.3555 144.321 92.6263 144.041C92.7615 143.901 92.8654 143.793 92.9363 143.72C92.9718 143.684 92.9994 143.655 93.018 143.636C93.0272 143.627 93.0342 143.62 93.0392 143.615C93.0417 143.612 93.0437 143.61 93.0451 143.608C93.0458 143.608 93.0466 143.607 93.0471 143.607L93.0475 143.606L93.2006 143.457C94.812 141.965 97.3506 141.96 98.9689 143.48C100.639 145.049 100.697 147.648 99.0969 149.286L99.0964 149.287C99.0956 149.288 99.0942 149.289 99.0924 149.291C99.0887 149.295 99.0827 149.301 99.0747 149.31C99.0587 149.326 99.0341 149.351 99.0014 149.385C98.9358 149.452 98.8373 149.554 98.7076 149.688C98.448 149.957 98.064 150.357 97.5712 150.873C96.5856 151.907 95.1652 153.409 93.4358 155.277C89.9751 159.014 85.2862 164.203 80.3667 170.012L80.3657 170.013C76.5594 174.505 72.2273 177.285 67.364 177.488C62.5265 177.69 58.3393 175.289 54.9249 172.032C48.2116 165.626 42.5241 154.054 37.9108 141.736C33.2255 129.226 29.4004 115.243 26.6965 103.398C24.0125 91.6388 22.3611 81.6707 22.1359 77.2494C21.132 57.5468 25.7474 44.1216 34.0579 35.4799C42.3326 26.8756 53.5954 23.7211 64.3714 23.1145Z" fill="white"/>
<path d="M176.56 20.0036C192.748 19.8556 213.536 24.2167 228.609 43.1684H228.609C232.013 47.4494 233.107 54.1963 232.992 61.5082C232.873 69.0601 231.442 78.1571 228.861 87.9871C223.699 107.655 213.802 130.778 199.827 151.186C198.536 153.07 195.94 153.567 194.027 152.296C192.114 151.026 191.609 148.468 192.899 146.585C206.311 127 215.833 104.746 220.772 85.9278C223.242 76.515 224.532 68.0914 224.637 61.3811C224.746 54.4313 223.566 50.1737 222.031 48.2425C209.133 32.0247 191.329 28.0978 176.637 28.2321C169.298 28.2992 162.856 29.3868 158.427 30.4055C156.217 30.9138 154.53 31.4 153.509 31.7221C153.23 31.81 153.01 31.8828 152.849 31.9378C152.664 32.0268 152.469 32.1038 152.266 32.1665C152.206 32.1851 152.057 32.2306 151.888 32.2704C151.838 32.282 151.755 32.3009 151.652 32.3193C151.584 32.3315 151.349 32.3732 151.045 32.3836C150.87 32.386 150.41 32.358 150.127 32.3154C149.607 32.1847 148.224 31.4346 147.509 30.6797C146.886 29.4244 146.883 27.1266 147.243 26.2743C147.496 25.8793 147.973 25.3303 148.165 25.1564C148.48 24.888 148.768 24.7282 148.823 24.6971C148.93 24.6361 149.02 24.5919 149.069 24.568C149.171 24.5189 149.257 24.4819 149.303 24.4626C149.402 24.4205 149.5 24.3826 149.576 24.3538C149.883 24.238 150.357 24.0755 150.961 23.8853C152.188 23.4982 154.092 22.9524 156.527 22.3922C161.39 21.2738 168.459 20.0777 176.56 20.0036ZM149.8 24.3045C149.789 24.3078 149.78 24.3103 149.775 24.3117C149.775 24.3118 149.773 24.3127 149.771 24.3132C149.789 24.3076 149.808 24.3031 149.826 24.2977C149.814 24.3011 149.805 24.3031 149.8 24.3045Z" fill="white"/>
<path d="M101.808 32.5954C109.525 26.2858 119.827 22.291 133.334 22.5085C160.049 22.9386 177.684 36.4401 188.255 49.7117C193.526 56.3295 197.089 62.9377 199.22 67.967C200.282 70.4731 201.019 72.6592 201.43 74.318C201.628 75.1169 201.79 75.9534 201.832 76.7075C201.85 77.0442 201.865 77.6584 201.699 78.3361C201.608 78.7061 200.985 81.0401 198.345 81.5765L196.832 81.6098C183.708 79.5461 178.127 81.817 175.854 84.3712C173.517 86.9975 173.043 91.7008 174.775 98.5196C176.44 105.074 179.814 112.26 183.087 118.428C184.71 121.487 186.274 124.232 187.553 126.486C188.755 128.602 189.882 130.58 190.39 131.79V131.791C191.955 135.516 193.917 138.14 195.717 140.373C196.569 141.43 197.574 142.622 198.338 143.691C199.059 144.7 199.849 145.971 200.26 147.474C200.358 147.598 200.787 148.088 202 148.581C204.554 149.619 210.501 150.627 223.137 148.066C224.74 147.741 226.233 147.564 227.565 147.609C228.803 147.651 230.451 147.899 231.846 148.941C233.536 150.204 234.141 152.076 233.973 153.79C233.83 155.244 233.165 156.487 232.562 157.379C231.318 159.221 229.309 161.07 227.045 162.727C224.72 164.429 221.882 166.106 218.751 167.534L218.75 167.534C213.31 170.014 205.004 171.422 198.105 171.497C194.646 171.534 191.17 171.244 188.386 170.394C185.997 169.665 182.039 167.824 181.788 163.504V163.503C181.537 159.184 182.162 155.76 183.645 153.09C185.176 150.334 187.376 148.82 189.384 147.932C189.847 147.727 190.299 147.555 190.723 147.41C190.289 146.864 189.778 146.247 189.147 145.464C187.225 143.081 184.804 139.888 182.835 135.359L182.646 134.917C182.376 134.275 181.585 132.855 180.236 130.479C178.964 128.239 177.344 125.395 175.657 122.217C172.31 115.909 168.559 108.026 166.648 100.503C164.805 93.2443 164.304 84.8599 169.543 78.9734C174.036 73.9258 181.611 71.9576 192.158 72.7844C191.958 72.2626 191.735 71.7053 191.486 71.1167C189.607 66.6829 186.407 60.732 181.654 54.765C172.177 42.867 156.714 31.0965 133.197 30.7178C121.594 30.531 113.27 33.9147 107.172 38.9006C100.994 43.9519 96.8375 50.8687 94.0657 58.0812C91.2977 65.2841 89.9911 72.5744 89.3844 78.1094C89.0822 80.8653 88.9568 83.158 88.9065 84.7489C88.8814 85.5436 88.8752 86.1614 88.875 86.5725C88.875 86.778 88.8762 86.9318 88.8775 87.0298C88.8782 87.0788 88.8786 87.1138 88.879 87.1345C88.8792 87.1449 88.8794 87.1517 88.8795 87.1548C88.8795 87.156 88.8795 87.1567 88.8795 87.1567L88.88 87.3641C88.8261 89.5354 87.0431 91.3067 84.8034 91.3644C82.4916 91.4239 80.5681 89.6349 80.5074 87.3685L83.9664 87.2792C80.5074 87.3681 80.5074 87.3666 80.5074 87.3646C80.5074 87.3635 80.5074 87.3612 80.5074 87.3593C80.5073 87.3553 80.507 87.3502 80.5069 87.3444C80.5066 87.3326 80.5063 87.3171 80.5059 87.298C80.5051 87.2597 80.5039 87.2066 80.503 87.1393C80.5011 87.0048 80.4999 86.8135 80.5 86.5691C80.5002 86.0803 80.5075 85.3787 80.5354 84.4947C80.5912 82.7279 80.729 80.2252 81.0571 77.2323C81.7107 71.2696 83.1311 63.2462 86.2285 55.1862C89.3223 47.1357 94.1707 38.8397 101.808 32.5954ZM195.745 154.499C195.216 154.659 194.656 154.807 194.32 154.903C193.738 155.069 193.26 155.225 192.829 155.415C192.044 155.762 191.452 156.204 191 157.017C190.54 157.845 190.04 159.403 190.118 162.282C190.293 162.358 190.538 162.452 190.875 162.555C192.461 163.039 194.944 163.32 198.013 163.287C204.17 163.221 211.199 161.921 215.219 160.089C217.431 159.08 219.435 157.936 221.112 156.797C210.023 158.658 203.147 157.936 198.792 156.165C197.588 155.676 196.582 155.107 195.745 154.499ZM200.349 147.826L200.349 147.829C200.354 147.849 200.357 147.869 200.361 147.889H200.363L200.355 147.856C200.352 147.841 200.349 147.827 200.346 147.813C200.34 147.785 200.333 147.76 200.327 147.735C200.326 147.731 200.324 147.728 200.323 147.724L200.349 147.826Z" fill="white"/>
<path d="M118.249 147.034C120.465 146.843 122.338 147.503 123.435 147.943L123.856 148.115L123.857 148.115C127.333 149.539 129.879 152.747 131.105 156.017C132.346 159.327 132.576 163.674 129.963 167.289L129.963 167.288C118.093 183.717 100.429 180.869 93.5523 179.168C91.8789 178.755 90.0098 178.062 88.3578 177.168C86.8668 176.362 84.8623 175.029 83.776 173.038C83.165 171.918 82.7671 170.432 83.1515 168.783C83.5262 167.176 84.5134 165.979 85.5579 165.137C87.5008 163.571 90.4733 162.556 94.1317 161.811H94.1327C101.163 160.38 103.195 159.469 104.424 158.501C105.069 157.994 105.648 157.347 106.648 156.1C107.616 154.894 108.891 153.244 110.739 151.202C113.023 148.677 115.523 147.269 118.249 147.034ZM118.975 155.238C118.906 155.244 118.239 155.276 116.961 156.689L116.959 156.692C115.318 158.503 114.233 159.911 113.187 161.214C112.174 162.477 111.085 163.791 109.627 164.939C106.651 167.284 102.735 168.469 95.817 169.877L95.8165 169.877C94.8832 170.067 94.0933 170.262 93.4293 170.453C94.0095 170.7 94.6133 170.913 95.1842 171.075L95.5783 171.179L95.5793 171.18C101.827 172.725 114.526 174.472 123.171 162.506L123.172 162.505C123.683 161.797 123.903 160.534 123.282 158.875C122.645 157.176 121.474 156.056 120.659 155.722V155.721C119.577 155.278 119.238 155.216 118.975 155.238Z" fill="white"/>
<path d="M100.673 74.911C105.461 73.8224 110.989 73.4402 115.879 75.3013C121.089 77.2845 124.937 81.573 126.431 88.3809V88.3814C129.82 103.832 129.463 114.318 127.62 122.323C126.704 126.303 125.445 129.562 124.219 132.377C122.924 135.35 121.903 137.342 121.053 139.598L121.053 139.598C119.829 142.851 118.768 145.557 118.066 148.044C117.411 150.368 117.191 152.111 117.348 153.489L117.384 153.759L117.411 153.969C117.635 156.135 116.1 158.118 113.894 158.452C111.617 158.797 109.488 157.255 109.138 155.008C109.113 154.845 109.09 154.682 109.07 154.518C91.0934 153.567 77.087 136.253 79.8486 116.787C81.8399 102.75 80.3331 91.3511 80.3579 87.6037V87.6027C80.3698 85.8729 81.3771 84.6531 81.6868 84.283C82.1732 83.7018 82.7609 83.174 83.3285 82.7189C84.4855 81.7913 86.0122 80.8081 87.7304 79.8649C91.1742 77.9747 95.8075 76.0173 100.673 74.911ZM112.876 82.981C110.217 81.9688 106.599 82.0102 102.546 82.9317C98.5717 83.8355 94.6701 85.4748 91.7863 87.0576C90.4537 87.7891 89.4274 88.4609 88.754 88.9792C89.0006 93.2351 89.9399 105.034 88.1108 117.927C85.9319 133.287 97.0519 145.795 109.9 146.308C109.942 146.15 109.985 145.993 110.029 145.837C110.851 142.923 112.084 139.783 113.232 136.733L113.233 136.731C114.165 134.259 115.51 131.524 116.554 129.127C117.667 126.572 118.722 123.817 119.485 120.5C121.002 113.913 121.468 104.671 118.277 90.1225C117.318 85.7531 115.214 83.8712 112.876 82.981Z" fill="white"/>
<path d="M105.508 86.3122C105.356 87.3422 107.472 90.0907 110.231 90.4579C112.986 90.8267 115.343 88.6788 115.493 87.6499C115.642 86.6199 113.529 85.4853 110.768 85.1166C108.013 84.7473 105.654 85.2848 105.508 86.3122H105.508Z" fill="white"/>
<path d="M106.787 84.218C107.958 83.9649 109.434 83.9301 110.961 84.1245L110.96 84.1249C112.487 84.3189 113.9 84.7194 114.955 85.2571C115.477 85.5234 115.983 85.8593 116.36 86.2783C116.738 86.6969 117.094 87.3278 116.977 88.0954V88.0959C116.884 88.7068 116.512 89.2547 116.156 89.6579C115.769 90.0974 115.259 90.526 114.667 90.8917C113.492 91.6182 111.856 92.1781 110.04 91.9474C108.24 91.7196 106.729 90.774 105.71 89.7982C105.195 89.3044 104.765 88.7663 104.468 88.2423C104.206 87.78 103.916 87.1045 104.023 86.4144L104.2 85.2694H104.612C104.78 85.0969 104.965 84.9554 105.143 84.8429C105.626 84.5384 106.207 84.3434 106.787 84.218ZM110.586 86.7804C109.307 86.6176 108.18 86.6645 107.412 86.8305C107.216 86.8729 107.062 86.9191 106.945 86.9623C106.947 86.9649 106.948 86.9676 106.95 86.9703C107.101 87.2361 107.357 87.5714 107.712 87.9112C108.434 88.6027 109.404 89.1638 110.412 89.2914H110.413C111.401 89.417 112.366 89.117 113.13 88.6452C113.507 88.4117 113.802 88.1561 113.995 87.9372C114.014 87.9153 114.031 87.8942 114.047 87.8748C113.948 87.8026 113.81 87.7146 113.622 87.6188C112.937 87.2696 111.868 86.9432 110.586 86.7804H110.586Z" fill="white"/>
<path d="M187.993 84.6928C188.142 85.6292 186.029 88.1279 183.27 88.4617C180.515 88.797 178.158 86.8443 178.007 85.9089C177.861 84.9725 179.975 83.941 182.731 83.6058C185.487 83.2706 187.843 83.7587 187.993 84.6933V84.6928Z" fill="white"/>
<path d="M182.385 83.1156C183.838 82.9339 185.216 82.9705 186.278 83.1963C186.806 83.3086 187.294 83.4753 187.677 83.7131C188.059 83.9496 188.408 84.3048 188.485 84.7986L188.496 84.8848C188.532 85.3184 188.345 85.7834 188.119 86.1755C187.861 86.6239 187.478 87.0998 187.007 87.5442C186.07 88.4272 184.705 89.2562 183.116 89.454L183.116 89.4544C181.519 89.6542 180.062 89.1707 178.997 88.5237C178.463 88.1991 178.011 87.8233 177.675 87.4483C177.354 87.0909 177.081 86.6693 177.015 86.2502L177.014 86.2465C176.939 85.7509 177.17 85.3191 177.469 84.9941C177.767 84.6688 178.188 84.3872 178.663 84.1491C179.617 83.6704 180.932 83.2973 182.385 83.1156ZM185.968 84.4709C185.106 84.2876 183.902 84.245 182.571 84.4114C181.24 84.5779 180.096 84.9142 179.324 85.3011C178.936 85.4958 178.676 85.6862 178.529 85.846C178.458 85.9237 178.425 85.9822 178.41 86.0184C178.399 86.0451 178.399 86.0582 178.4 86.0622C178.411 86.1306 178.494 86.3261 178.747 86.6084C178.987 86.8759 179.332 87.1674 179.76 87.4275C180.62 87.9502 181.745 88.3065 182.931 88.1582H182.931C184.128 88.0093 185.224 87.3678 186.013 86.6236C186.405 86.2545 186.702 85.8776 186.888 85.5551C186.981 85.3939 187.04 85.2565 187.072 85.149C187.088 85.0959 187.096 85.0549 187.099 85.0254C187.102 85.0024 187.101 84.99 187.101 84.9867C187.1 84.9852 187.1 84.9819 187.097 84.9761C187.094 84.9699 187.088 84.9586 187.076 84.9429C187.049 84.91 186.997 84.8609 186.903 84.8028C186.711 84.6834 186.401 84.5631 185.968 84.4709Z" fill="white"/>
<path d="M197.517 73.5054C199.767 73.3933 201.696 75.0257 201.922 77.1881L201.939 77.3991L201.958 77.8173C202.143 82.1139 201.682 85.7333 201.177 89.167C200.653 92.7389 200.098 96.0287 199.973 100.077V100.08C199.884 102.91 200.166 105.918 200.546 109.258C200.916 112.515 201.387 116.131 201.562 119.791C201.919 127.241 201.092 135.4 195.771 143.59C194.525 145.507 191.923 146.076 189.958 144.861C187.993 143.647 187.41 141.108 188.655 139.191C192.709 132.951 193.459 126.687 193.147 120.174C192.988 116.853 192.564 113.603 192.173 110.165C191.791 106.809 191.444 103.293 191.553 99.8273C191.696 95.2138 192.339 91.4009 192.838 88.0014C193.31 84.7882 193.669 81.8641 193.555 78.4976L193.525 77.8182L193.52 77.6067C193.519 75.4331 195.266 73.6177 197.517 73.5054Z" fill="white"/>
</svg>
