<svg width="512" height="512" viewBox="0 0 512 512" fill="none" xmlns="http://www.w3.org/2000/svg">
<path d="M121.386 445.469L23.7976 276.435C20.0456 269.936 18.0703 262.564 18.0703 255.06C18.0703 247.556 20.0456 240.184 23.7976 233.686L121.386 64.6553C125.139 58.1556 130.536 52.7583 137.036 49.006C143.536 45.2536 150.909 43.2783 158.414 43.2788H353.59C361.095 43.279 368.467 45.2545 374.966 49.0069C381.465 52.7592 386.862 58.1562 390.614 64.6553L488.203 233.686C491.955 240.185 493.931 247.557 493.931 255.062C493.931 262.567 491.955 269.939 488.203 276.439L390.614 445.469C386.862 451.967 381.465 457.364 374.966 461.115C368.467 464.867 361.094 466.842 353.59 466.842H158.414C150.908 466.843 143.535 464.868 137.035 461.115C130.536 457.363 125.138 451.969 121.386 445.469Z" fill="url(#paint0_linear_2764_4539)"/>
<path opacity="0.07" d="M468.108 312.983L349.753 194.635L327.975 199.149L273.687 144.864L256.314 177.352L246.893 214.934L262.838 230.882L232.212 237.136L190.218 195.141L161.704 222.551L214.208 275.063L158.555 319.303L307.978 468.723L380.773 468.016L468.108 312.983Z" fill="black"/>
<path d="M336.002 228.667C346.933 228.667 355.795 219.805 355.795 208.874C355.795 197.943 346.933 189.081 336.002 189.081C325.07 189.081 316.209 197.943 316.209 208.874C316.209 219.805 325.07 228.667 336.002 228.667Z" fill="white"/>
<path d="M175.998 228.667C186.929 228.667 195.791 219.805 195.791 208.874C195.791 197.943 186.929 189.081 175.998 189.081C165.067 189.081 156.205 197.943 156.205 208.874C156.205 219.805 165.067 228.667 175.998 228.667Z" fill="white"/>
<path d="M256.002 367.238C266.935 367.238 275.798 358.375 275.798 347.442C275.798 336.509 266.935 327.646 256.002 327.646C245.068 327.646 236.205 336.509 236.205 347.442C236.205 358.375 245.068 367.238 256.002 367.238Z" fill="white"/>
<path d="M256.001 287.041C273.662 287.041 287.98 272.724 287.98 255.062C287.98 237.4 273.662 223.083 256.001 223.083C238.339 223.083 224.021 237.4 224.021 255.062C224.021 272.724 238.339 287.041 256.001 287.041Z" fill="white"/>
<path d="M175.997 326.374C189.872 326.374 201.121 315.125 201.121 301.25C201.121 287.374 189.872 276.126 175.997 276.126C162.121 276.126 150.873 287.374 150.873 301.25C150.873 315.125 162.121 326.374 175.997 326.374Z" fill="white"/>
<path d="M336.001 326.374C349.876 326.374 361.125 315.125 361.125 301.25C361.125 287.374 349.876 276.126 336.001 276.126C322.125 276.126 310.877 287.374 310.877 301.25C310.877 315.125 322.125 326.374 336.001 326.374Z" fill="white"/>
<path d="M256.001 187.81C269.878 187.81 281.128 176.56 281.128 162.682C281.128 148.804 269.878 137.554 256.001 137.554C242.123 137.554 230.873 148.804 230.873 162.682C230.873 176.56 242.123 187.81 256.001 187.81Z" fill="white"/>
<defs>
<linearGradient id="paint0_linear_2764_4539" x1="256.002" y1="43.2825" x2="256.002" y2="466.184" gradientUnits="userSpaceOnUse">
<stop stop-color="#4387FD"/>
<stop offset="1" stop-color="#4683EA"/>
</linearGradient>
</defs>
</svg>
