<svg width="256" height="256" viewBox="0 0 256 256" fill="none" xmlns="http://www.w3.org/2000/svg">
<rect width="256" height="256" fill="white"/>
<path fill-rule="evenodd" clip-rule="evenodd" d="M103.183 12C84.9974 12 70.2556 26.3013 70.2556 43.9429V66.0573H127.245V72.2001H44.9271C26.7419 72.2001 12 86.5015 12 104.143V152.058C12 169.699 26.7419 184 44.9271 184H63.9234V156.972C63.9234 139.33 78.6654 125.029 96.8508 125.029H157.639C173.027 125.029 185.5 112.928 185.5 98.0004V43.9429C185.5 26.3013 170.759 12 152.573 12H103.183ZM95.5845 51.3144C101.879 51.3144 106.982 46.3638 106.982 40.2572C106.982 34.1505 101.879 29.2 95.5845 29.2C89.289 29.2 84.1862 34.1505 84.1862 40.2572C84.1862 46.3638 89.289 51.3144 95.5845 51.3144Z" fill="url(#paint0_linear_2662_8431)"/>
<path fill-rule="evenodd" clip-rule="evenodd" d="M152.817 244C171.003 244 185.745 229.699 185.745 212.058V189.943H128.755V183.8H211.073C229.259 183.8 244 169.499 244 151.857V103.943C244 86.3012 229.259 72 211.073 72H192.077V99.0283C192.077 116.671 177.335 130.972 159.15 130.972H98.3613C82.9735 130.972 70.5 143.073 70.5 158V212.058C70.5 229.699 85.2422 244 103.427 244H152.817ZM160.416 204.686C154.121 204.686 149.018 209.636 149.018 215.743C149.018 221.85 154.121 226.8 160.416 226.8C166.711 226.8 171.814 221.85 171.814 215.743C171.814 209.636 166.711 204.686 160.416 204.686Z" fill="url(#paint1_linear_2662_8431)"/>
<defs>
<linearGradient id="paint0_linear_2662_8431" x1="98.7504" y1="12" x2="98.7504" y2="184" gradientUnits="userSpaceOnUse">
<stop stop-color="#327EBD"/>
<stop offset="1" stop-color="#1565A7"/>
</linearGradient>
<linearGradient id="paint1_linear_2662_8431" x1="157.25" y1="72" x2="157.25" y2="244" gradientUnits="userSpaceOnUse">
<stop stop-color="#FFDA4B"/>
<stop offset="1" stop-color="#F9C600"/>
</linearGradient>
</defs>
</svg>
