<svg width="256" height="256" viewBox="0 0 256 256" fill="none" xmlns="http://www.w3.org/2000/svg">
<rect width="256" height="256" fill="white"/>
<path d="M195.565 79.4345C233.203 117.072 233.203 177.45 195.565 215.349C158.711 252.987 98.0727 252.987 60.4349 215.349C22.797 177.711 22.797 117.072 60.4349 79.4345L127.869 12V45.7172L121.596 51.9902L76.9014 96.6852C48.673 124.391 48.673 169.87 76.9014 198.098C104.607 226.327 150.086 226.327 178.315 198.098C206.543 170.393 206.543 124.914 178.315 96.6852L195.565 79.4345ZM161.848 75.2525C154.919 75.2525 149.302 69.6355 149.302 62.7065C149.302 55.7776 154.919 50.1606 161.848 50.1606C168.777 50.1606 174.394 55.7776 174.394 62.7065C174.394 69.6355 168.777 75.2525 161.848 75.2525Z" fill="#EE4C2C"/>
</svg>
