<svg width="256" height="256" viewBox="0 0 256 256" fill="none" xmlns="http://www.w3.org/2000/svg">
<path d="M225.072 105.524H154.739C153.044 105.523 151.418 104.85 150.22 103.651C149.021 102.452 148.347 100.827 148.346 99.1313V25.8312C148.346 20.4031 143.944 16 138.519 16H113.412C107.983 16 103.584 20.4031 103.584 25.8312V98.6874C103.584 102.467 100.528 105.54 96.7482 105.556L73.6994 105.666C69.8873 105.687 66.7901 102.594 66.7975 98.7849L66.9405 25.8477C66.9529 20.4114 62.5498 16 57.1135 16H32.0271C26.5974 16 22.1992 20.4031 22.1992 25.8312V231.081C22.1992 235.904 26.1056 239.81 30.9236 239.81H225.072C229.894 239.81 233.801 235.904 233.801 231.081V114.253C233.801 109.43 229.894 105.524 225.072 105.524ZM192.09 182.587C192.09 188.907 186.967 194.03 180.648 194.03H160.806C154.487 194.03 149.363 188.907 149.363 182.587V162.746C149.363 156.426 154.487 151.303 160.806 151.303H180.648C186.967 151.303 192.09 156.426 192.09 162.746V182.587Z" fill="#FF6600"/>
</svg>
