<svg width="256" height="256" viewBox="0 0 256 256" fill="none" xmlns="http://www.w3.org/2000/svg">
<rect width="256" height="256" fill="white"/>
<path d="M123.118 244C103.46 244 84.6083 236.178 70.7086 222.256C56.8088 208.333 49 189.45 49 169.76C49 150.07 56.8088 131.187 70.7086 117.264C84.6083 103.342 103.46 95.52 123.118 95.52V244ZM123.118 12H49V86.24H123.118V12ZM169.441 86.24C179.27 86.24 188.696 82.3292 195.646 75.3678C202.596 68.4065 206.5 58.9648 206.5 49.12C206.5 39.2752 202.596 29.8335 195.646 22.8722C188.696 15.9108 179.27 12 169.441 12C159.613 12 150.187 15.9108 143.237 22.8722C136.287 29.8335 132.382 39.2752 132.382 49.12C132.382 58.9648 136.287 68.4065 143.237 75.3678C150.187 82.3292 159.613 86.24 169.441 86.24Z" fill="black"/>
</svg>
