<svg width="256" height="256" viewBox="0 0 256 256" fill="none" xmlns="http://www.w3.org/2000/svg">
<rect width="256" height="256" fill="white"/>
<path d="M163.285 26.6228C171.281 24.0362 179.268 23.861 186 27.7478C192.732 31.6347 196.574 38.6391 198.332 46.8572C200.09 55.0759 199.909 65.0691 198.152 76.0359C197.472 80.2831 196.545 84.7168 195.386 89.3015C199.936 90.5896 204.239 92.0045 208.258 93.5388C218.634 97.5006 227.379 102.341 233.617 107.972C239.855 113.604 244 120.433 244 128.207C244 135.98 239.855 142.81 233.617 148.441C227.379 154.073 218.634 158.914 208.258 162.876C204.239 164.41 199.936 165.824 195.386 167.112C196.546 171.697 197.472 176.13 198.152 180.378C199.909 191.344 200.09 201.338 198.332 209.556C196.574 217.774 192.732 224.779 186 228.666C179.268 232.553 171.281 232.377 163.285 229.791C155.289 227.204 146.724 222.052 138.104 215.047C134.766 212.334 131.39 209.314 127.999 206.017C124.609 209.314 121.232 212.333 117.895 215.046C109.275 222.051 100.711 227.204 92.7148 229.791C84.719 232.377 76.7321 232.553 70 228.666C63.2678 224.779 59.4258 217.774 57.668 209.556C55.9101 201.338 56.0907 191.345 57.8477 180.378C58.5281 176.131 59.4536 171.697 60.6133 167.112C56.0634 165.824 51.7611 164.41 47.7432 162.876C37.367 158.914 28.6225 154.073 22.3838 148.441C16.1456 142.81 12 135.98 12 128.207C12.0001 120.433 16.1457 113.604 22.3838 107.972C28.6225 102.341 37.3672 97.5006 47.7432 93.5388C51.7612 92.0047 56.0633 90.5895 60.6133 89.3015C59.4537 84.7171 58.5281 80.2837 57.8477 76.0369C56.0906 65.0699 55.91 55.076 57.668 46.8572C59.4258 38.6393 63.2679 31.6346 70 27.7478C76.7321 23.8612 84.7191 24.0362 92.7148 26.6228C100.711 29.2098 109.276 34.363 117.895 41.3679C121.232 44.0805 124.609 47.099 127.999 50.3953C131.39 47.0987 134.767 44.0807 138.104 41.3679C146.724 34.3628 155.289 29.2098 163.285 26.6228ZM70.3896 169.592C69.3018 173.893 68.4391 178.032 67.8076 181.973C66.1647 192.228 66.1261 200.872 67.5322 207.446C68.9386 214.021 71.6438 217.968 75.043 219.93C78.4422 221.893 83.2128 222.263 89.6104 220.193C96.0071 218.124 103.474 213.769 111.533 207.219C114.631 204.701 117.783 201.883 120.964 198.791C114.322 191.606 107.706 183.416 101.328 174.402C90.3329 173.386 79.9325 171.751 70.3896 169.592ZM185.608 169.592C176.065 171.751 165.665 173.386 154.67 174.402C148.292 183.416 141.677 191.606 135.035 198.791C138.216 201.884 141.369 204.701 144.467 207.219C152.527 213.769 159.993 218.124 166.39 220.193C172.787 222.263 177.557 221.893 180.956 219.93C184.355 217.968 187.061 214.022 188.468 207.447C189.874 200.872 189.835 192.229 188.192 181.973C187.561 178.032 186.696 173.893 185.608 169.592ZM114.49 175.306C118.952 181.196 123.482 186.628 127.999 191.542C132.516 186.628 137.046 181.196 141.508 175.307C137.074 175.509 132.566 175.616 128 175.616C123.433 175.616 118.925 175.508 114.49 175.306ZM128 90.8855C120.769 90.8855 113.715 91.1566 106.902 91.6668C103.054 97.3114 99.2938 103.284 95.6787 109.546C92.0634 115.808 88.7703 122.052 85.8057 128.207C88.7704 134.362 92.0633 140.606 95.6787 146.868C99.2939 153.13 103.055 159.102 106.903 164.747C113.716 165.257 120.769 165.529 128 165.529C135.23 165.529 142.283 165.257 149.096 164.747C152.944 159.102 156.706 153.13 160.321 146.868C163.936 140.606 167.228 134.362 170.192 128.207C167.228 122.052 163.936 115.808 160.321 109.547C156.706 103.285 152.945 97.3117 149.097 91.6668C142.284 91.1567 135.231 90.8855 128 90.8855ZM175.544 140.056C173.502 143.998 171.34 147.956 169.057 151.911C166.773 155.866 164.426 159.717 162.034 163.457C169.366 162.537 176.335 161.33 182.85 159.875C180.852 153.505 178.413 146.866 175.544 140.056ZM80.4551 140.056C77.5858 146.866 75.1465 153.505 73.1494 159.875C79.6641 161.33 86.6333 162.537 93.9648 163.457C91.5728 159.718 89.2259 155.867 86.9424 151.912C84.6587 147.956 82.4975 143.998 80.4551 140.056ZM63.3535 99.0086C59.0852 100.217 55.0695 101.538 51.3408 102.962C41.6379 106.666 34.1332 110.956 29.1426 115.461C24.1516 119.966 22.087 124.282 22.0869 128.207C22.0869 132.132 24.1514 136.448 29.1426 140.954C34.1332 145.459 41.638 149.747 51.3408 153.452C55.0695 154.876 59.0852 156.197 63.3535 157.405C66.2545 148.061 70.041 138.237 74.6582 128.207C70.041 118.176 66.2545 108.353 63.3535 99.0086ZM192.645 99.0076C189.744 108.352 185.958 118.176 181.341 128.207C185.958 138.237 189.744 148.061 192.645 157.405C196.914 156.197 200.93 154.876 204.659 153.452C214.362 149.747 221.867 145.459 226.857 140.954C231.849 136.448 233.913 132.132 233.913 128.207C233.913 124.282 231.848 119.966 226.857 115.461C221.867 110.956 214.362 106.666 204.659 102.962C200.93 101.538 196.914 100.216 192.645 99.0076ZM128 107.529C139.42 107.529 148.679 116.787 148.679 128.208C148.678 139.628 139.42 148.885 128 148.886C116.58 148.886 107.322 139.628 107.321 128.208C107.321 116.787 116.58 107.529 128 107.529ZM93.9639 92.9568C86.6327 93.8766 79.6638 95.0836 73.1494 96.5388C75.1464 102.908 77.5859 109.547 80.4551 116.356C82.4973 112.415 84.659 108.458 86.9424 104.503C89.2258 100.548 91.5719 96.696 93.9639 92.9568ZM162.034 92.9568C164.426 96.6963 166.773 100.547 169.057 104.503C171.34 108.458 173.502 112.415 175.544 116.356C178.413 109.547 180.853 102.908 182.85 96.5388C176.335 95.0836 169.366 93.8766 162.034 92.9568ZM180.956 36.4832C177.557 34.5208 172.787 34.1509 166.39 36.2205C159.993 38.2899 152.527 42.6447 144.467 49.1951C141.369 51.7125 138.216 54.5293 135.035 57.6218C141.677 64.8064 148.292 72.9974 154.67 82.0115C165.665 83.028 176.066 84.6613 185.608 86.8211C186.696 82.52 187.561 78.3814 188.192 74.4402C189.835 64.185 189.874 55.5411 188.468 48.9666C187.061 42.3915 184.355 38.4457 180.956 36.4832ZM89.6104 36.2205C83.2128 34.1508 78.4422 34.5216 75.043 36.4841C71.6439 38.4468 68.9386 42.3925 67.5322 48.9675C66.126 55.5422 66.1646 64.1859 67.8076 74.4412C68.439 78.3821 69.302 82.5204 70.3896 86.8211C79.9325 84.6612 90.333 83.0281 101.328 82.0115C107.706 72.9974 114.321 64.8064 120.963 57.6218C117.782 54.5297 114.63 51.7132 111.533 49.1961C103.473 42.6455 96.0072 38.2899 89.6104 36.2205ZM127.999 64.8709C123.481 69.7852 118.952 75.2177 114.489 81.1072C118.924 80.9052 123.433 80.7986 128 80.7986C132.567 80.7986 137.075 80.9043 141.509 81.1062C137.046 75.2169 132.517 69.785 127.999 64.8709Z" fill="#61DAFB"/>
</svg>
