<svg width="256" height="256" viewBox="0 0 256 256" fill="none" xmlns="http://www.w3.org/2000/svg">
<rect width="256" height="256" fill="white"/>
<path d="M234.91 181.418C222.529 187.871 158.392 214.242 144.737 221.36C131.083 228.48 123.498 228.411 112.711 223.254C101.925 218.098 33.6709 190.528 21.3764 184.651C15.2309 181.714 12 179.235 12 176.894V153.444C12 153.444 100.857 134.099 115.202 128.953C129.547 123.807 134.524 123.621 146.732 128.092C158.94 132.565 231.935 145.735 244 150.154C244 150.154 243.995 171.098 243.995 173.272C243.996 175.59 241.212 178.133 234.91 181.418Z" fill="#912626"/>
<path d="M234.906 158.106C222.525 164.557 158.39 190.929 144.736 198.046C131.082 205.167 123.497 205.097 112.711 199.94C101.924 194.787 33.6731 167.213 21.3789 161.34C9.08474 155.462 8.82646 151.418 20.904 146.689C32.9807 141.958 100.857 115.328 115.204 110.182C129.548 105.037 134.524 104.849 146.731 109.323C158.939 113.794 222.692 139.17 234.756 143.588C246.823 148.011 247.286 151.653 234.906 158.106Z" fill="#C6302B"/>
<path d="M234.91 143.474C222.529 149.928 158.392 176.299 144.737 183.419C131.083 190.536 123.498 190.467 112.711 185.311C101.924 180.157 33.6709 152.584 21.3764 146.708C15.2309 143.77 12 141.294 12 138.953V115.5C12 115.5 100.857 96.1564 115.202 91.0096C129.547 85.8638 134.524 85.6771 146.732 90.1487C158.94 94.6212 231.935 107.788 244 112.208C244 112.208 243.995 133.152 243.995 135.329C243.996 137.647 241.212 140.19 234.91 143.474Z" fill="#912626"/>
<path d="M234.906 120.162C222.525 126.615 158.39 152.985 144.736 160.105C131.082 167.223 123.497 167.153 112.711 161.997C101.924 156.844 33.6731 129.27 21.3789 123.396C9.08474 117.521 8.82646 113.475 20.904 108.744C32.9807 104.016 100.857 77.3845 115.204 72.2389C129.548 67.0932 134.524 66.9065 146.731 71.3788C158.939 75.8503 222.692 101.224 234.756 105.644C246.823 110.066 247.286 113.71 234.906 120.162Z" fill="#C6302B"/>
<path d="M234.91 104.123C222.529 110.577 158.392 136.948 144.737 144.069C131.083 151.187 123.498 151.117 112.711 145.96C101.924 140.806 33.6709 113.233 21.3764 107.358C15.2309 104.42 12 101.943 12 99.6035V76.1499C12 76.1499 100.857 56.8072 115.202 51.6613C129.547 46.5146 134.524 46.3288 146.732 50.8004C158.94 55.2728 231.935 68.4402 244 72.8601C244 72.8601 243.995 93.8042 243.995 95.9801C243.996 98.2957 241.212 100.839 234.91 104.123Z" fill="#912626"/>
<path d="M234.906 80.8106C222.525 87.2631 158.39 113.635 144.736 120.753C131.082 127.871 123.497 127.801 112.711 122.647C101.925 117.492 33.6731 89.9202 21.3789 84.045C9.08474 78.1698 8.82646 74.1234 20.904 69.3936C32.9807 64.6648 100.857 38.0356 115.204 32.8881C129.548 27.7415 134.524 27.5566 146.731 32.029C158.939 36.5013 222.692 61.8754 234.756 66.2952C246.823 70.714 247.286 74.3581 234.906 80.8106Z" fill="#C6302B"/>
<path d="M156.35 57.9988L136.404 60.0697L131.939 70.8136L124.726 58.8242L101.694 56.7542L118.88 50.5568L113.724 41.043L129.814 47.3357L144.983 42.3693L140.883 52.2068L156.35 57.9988Z" fill="white"/>
<path d="M130.748 110.124L93.5215 94.6845L146.864 86.4971L130.748 110.124Z" fill="white"/>
<path d="M79.1363 63.9707C94.8826 63.9707 107.647 68.9191 107.647 75.0222C107.647 81.1261 94.8826 86.0736 79.1363 86.0736C63.3909 86.0736 50.6255 81.1261 50.6255 75.0222C50.6255 68.9191 63.3909 63.9707 79.1363 63.9707Z" fill="white"/>
<path d="M179.923 60.9355L211.493 73.4114L179.95 85.8746L179.923 60.9355Z" fill="#621B1C"/>
<path d="M144.997 74.7512L179.923 60.9355L179.95 85.8746L176.526 87.2145L144.997 74.7512Z" fill="#9A2928"/>
</svg>
