<svg width="256" height="256" viewBox="0 0 256 256" fill="none" xmlns="http://www.w3.org/2000/svg">
<rect width="256" height="256" fill="white"/>
<path d="M168.121 167.284C153.495 197.264 127.884 217.436 94.0023 224.067C88.8073 225.343 83.4742 225.967 78.1257 225.925C58.6252 225.925 40.7497 217.778 32.072 204.433C20.4204 186.657 16.4553 148.97 54.8713 121.091C55.6514 125.344 57.2439 131.177 58.3002 134.632C50.7589 140.249 44.5861 147.508 40.246 155.862C33.0958 169.94 33.892 184.001 42.3585 197.003C48.2087 205.769 57.4714 211.097 69.383 212.727C84.2608 214.615 99.3541 211.765 112.528 204.58C133.182 193.696 146.946 180.694 155.949 162.917C153.403 160.28 151.897 156.807 151.708 153.141C151.572 149.208 152.997 145.381 155.672 142.5C158.347 139.619 162.053 137.921 165.975 137.776H166.528C170.344 137.757 174.02 139.209 176.798 141.832C179.575 144.456 181.241 148.049 181.449 151.869C181.658 155.689 180.394 159.443 177.919 162.355C175.444 165.267 171.948 167.113 168.153 167.512L168.121 167.284ZM214.71 134.371C234.552 156.921 235.089 183.463 227.418 198.861C220.268 212.922 201.418 227 176.067 227C164.233 226.758 152.591 223.951 141.941 218.772C145.662 216.116 150.944 211.863 153.853 209.207C162.065 212.775 170.904 214.669 179.853 214.78C196.266 214.78 208.698 207.089 216.108 193.028C220.869 183.74 221.146 172.856 216.644 161.711C211.121 147.689 201.292 135.791 188.58 127.739C171.901 116.466 152.24 110.457 132.126 110.484H127.364C126.254 113.056 124.448 115.264 122.15 116.86C119.853 118.455 117.156 119.373 114.364 119.511H113.86C110 119.463 106.309 117.909 103.573 115.177C100.838 112.445 99.2715 108.751 99.2081 104.881C99.1446 101.01 100.589 97.2665 103.234 94.446C105.878 91.6255 109.516 89.95 113.373 89.7752H113.909C116.597 89.7772 119.232 90.5219 121.526 91.9275C123.819 93.333 125.682 95.3451 126.909 97.7428H131.151C164.952 97.7428 194.625 110.745 214.71 134.371ZM80.2382 171.846C79.96 169.14 80.6137 166.421 82.0908 164.139C67.2704 138.395 59.3402 105.759 71.5118 71.787C80.2382 46.2549 102.209 29 126.032 29C151.448 29 177.92 51.306 181.088 94.2885C177.123 92.9687 171.338 91.0298 167.861 90.3129C166.999 76.2515 155.153 41.2202 127.088 41.7416C117.029 42.0186 102.209 46.7926 94.5874 56.6014C85.1599 68.3103 79.6756 82.7135 78.922 97.7428C77.1356 118.351 81.9577 138.992 92.6861 156.66C93.2783 156.443 93.9097 156.355 94.5386 156.4H95.0586C98.9892 156.328 102.787 157.826 105.617 160.562C108.446 163.298 110.076 167.05 110.147 170.991C110.218 174.932 108.725 178.74 105.996 181.577C103.267 184.414 99.5255 186.048 95.5949 186.119H95.0586C91.224 186.106 87.5426 184.609 84.7816 181.941C82.0206 179.272 80.3931 175.639 80.2382 171.797V171.846Z" fill="#764ABC"/>
</svg>
