<svg width="256" height="256" viewBox="0 0 256 256" fill="none" xmlns="http://www.w3.org/2000/svg">
<path d="M218 87.7203C218 73.8738 214.367 60.8921 207.968 49.6404C191.002 32.207 154.097 28.1687 144.933 49.5588C135.521 71.4838 160.743 95.8803 171.766 93.9437C185.801 91.4703 169.289 59.3254 169.289 59.3254C190.755 99.7119 185.801 87.3486 146.997 124.44C108.192 161.532 68.5644 239.792 62.7847 243.088C62.5377 243.253 62.2888 243.377 62 243.5H214.2C216.883 243.5 218.617 240.657 217.421 238.267L177.628 159.635C177.212 158.816 177.125 157.868 177.386 156.987C177.647 156.105 178.236 155.357 179.032 154.895C202.314 141.542 218 116.485 218 87.7203Z" fill="url(#paint0_linear_2955_15380)"/>
<path d="M218 87.7203C218 73.8738 214.367 60.8921 207.968 49.6404C191.002 32.207 154.097 28.1687 144.933 49.5588C135.521 71.4838 160.743 95.8803 171.766 93.9437C185.801 91.4703 169.289 59.3254 169.289 59.3254C190.755 99.7119 185.801 87.3486 146.997 124.44C108.192 161.532 68.5644 239.792 62.7847 243.088C62.5377 243.253 62.2888 243.377 62 243.5H214.2C216.883 243.5 218.617 240.657 217.421 238.267L177.628 159.635C177.212 158.816 177.125 157.868 177.386 156.987C177.647 156.105 178.236 155.357 179.032 154.895C202.314 141.542 218 116.485 218 87.7203Z" fill="url(#paint1_linear_2955_15380)"/>
<path d="M62.8659 243C68.6461 239.709 108.279 161.537 147.085 124.507C185.891 87.4767 190.846 99.8214 169.379 59.5C169.379 59.5 87.2234 174.289 57.5 231.068" fill="url(#paint2_linear_2955_15380)"/>
<path d="M74.528 140.113C129.973 38.4067 137.234 28.1579 166.112 28.1579C181.294 28.1579 196.598 34.9911 206.5 47.1325C193.009 25.4413 169.123 10.9111 141.772 10.5H47.5886C45.6082 10.5 44 12.1046 44 14.0805V203.5C49.6108 189.053 59.1406 168.391 74.528 140.113Z" fill="url(#paint3_linear_2955_15380)"/>
<path d="M147.089 124.424C108.351 161.51 68.788 239.806 63.018 243.102C57.248 246.399 47.563 246.81 42.4133 241.043C36.9316 234.903 28.4018 224.971 74.5579 140.084C129.946 38.2607 137.199 28 166.047 28C181.214 28 196.502 34.8411 206.393 46.9965C206.928 47.8613 207.465 48.7679 208 49.6745C191.062 32.2427 154.219 28.2048 145.071 49.5929C135.674 71.5159 160.854 95.9101 171.859 93.9737C185.87 91.5005 169.385 59.3586 169.385 59.3586C190.773 99.6996 185.829 87.3374 147.089 124.424Z" fill="url(#paint4_linear_2955_15380)"/>
<path opacity="0.3" d="M79.0425 144.743C134.365 42.8096 141.609 32.5378 170.423 32.5378C182.895 32.5378 195.45 37.199 205 45.6139C195.122 34.3112 180.468 28 165.895 28C137.081 28 129.837 38.2718 74.5146 140.205C28.4132 225.186 36.9329 235.127 42.408 241.273C43.1905 242.139 44.0961 242.881 45.0433 243.5C40.2255 236.488 38.0866 220.194 79.0425 144.743Z" fill="url(#paint5_linear_2955_15380)"/>
<defs>
<linearGradient id="paint0_linear_2955_15380" x1="103.845" y1="135.556" x2="167.406" y2="150.437" gradientUnits="userSpaceOnUse">
<stop stop-color="#FF6533"/>
<stop offset="0.157" stop-color="#FF5633"/>
<stop offset="0.434" stop-color="#FF4333"/>
<stop offset="0.714" stop-color="#FF3733"/>
<stop offset="1" stop-color="#FF3333"/>
</linearGradient>
<linearGradient id="paint1_linear_2955_15380" x1="93.8965" y1="114.518" x2="207.687" y2="202.895" gradientUnits="userSpaceOnUse">
<stop stop-color="#BF3338"/>
<stop offset="1" stop-color="#FF3333"/>
</linearGradient>
<linearGradient id="paint2_linear_2955_15380" x1="97.7045" y1="131.977" x2="114.159" y2="149.313" gradientUnits="userSpaceOnUse">
<stop stop-color="#FF6533"/>
<stop offset="0.157" stop-color="#FF5633"/>
<stop offset="0.434" stop-color="#FF4333"/>
<stop offset="0.714" stop-color="#FF3733"/>
<stop offset="1" stop-color="#FF3333"/>
</linearGradient>
<linearGradient id="paint3_linear_2955_15380" x1="127.793" y1="161.705" x2="122.866" y2="90.9072" gradientUnits="userSpaceOnUse">
<stop stop-color="#FF6533"/>
<stop offset="0.157" stop-color="#FF5633"/>
<stop offset="0.434" stop-color="#FF4333"/>
<stop offset="0.714" stop-color="#FF3733"/>
<stop offset="1" stop-color="#FF3333"/>
</linearGradient>
<linearGradient id="paint4_linear_2955_15380" x1="106.342" y1="130.69" x2="129.757" y2="146.614" gradientUnits="userSpaceOnUse">
<stop stop-color="#FBB040"/>
<stop offset="1" stop-color="#FB8840"/>
</linearGradient>
<linearGradient id="paint5_linear_2955_15380" x1="130.223" y1="40.6888" x2="106.247" y2="303.868" gradientUnits="userSpaceOnUse">
<stop stop-color="white"/>
<stop offset="1" stop-color="white" stop-opacity="0"/>
</linearGradient>
</defs>
</svg>
