<svg width="256" height="256" viewBox="0 0 256 256" fill="none" xmlns="http://www.w3.org/2000/svg">
<rect width="256" height="256" fill="white"/>
<g clip-path="url(#clip0_2657_7663)">
<path d="M229 227.072C229.001 230.87 228.251 234.632 226.793 238.142C225.335 241.651 223.198 244.84 220.502 247.527C217.807 250.213 214.607 252.344 211.085 253.798C207.563 255.252 203.789 256 199.976 256H27V28.928C27 21.2574 30.0575 13.9008 35.5003 8.47605C40.943 3.05126 48.3252 0.00242434 56.0236 0H229V227.072Z" fill="#80152A"/>
<path d="M224.348 224.356C224.434 227.916 223.795 231.456 222.467 234.762C221.14 238.068 219.153 241.071 216.626 243.588C214.099 246.106 211.085 248.086 207.768 249.409C204.45 250.731 200.897 251.369 197.324 251.282H31.6521V31.6433C31.5665 28.0837 32.2074 24.5439 33.5358 21.2385C34.8643 17.9331 36.8527 14.9309 39.3804 12.414C41.9081 9.89715 44.9224 7.91801 48.2407 6.5966C51.559 5.27519 55.1121 4.63904 58.6845 4.72672H224.348V224.356Z" fill="url(#paint0_linear_2657_7663)"/>
<path d="M73.8525 4.94629L74.4765 60.9006L32.7441 74.8251L73.8525 4.94629Z" fill="#8A2034"/>
<path d="M73.8525 4.94629L74.4765 60.9006L129.551 38.0251L73.8525 4.94629Z" fill="url(#paint1_linear_2657_7663)"/>
<path d="M51.0502 116.096L74.4765 60.9004L32.7441 74.825L51.0502 116.096Z" fill="#AE2338"/>
<path d="M51.0499 116.096L74.1642 172.215L32.2759 158.766L51.0499 116.096Z" fill="url(#paint2_linear_2657_7663)"/>
<path d="M73.9348 250.898L74.1642 172.215L32.2759 158.766L73.9348 250.898Z" fill="#8A2034"/>
<path d="M73.9348 250.898L32.2759 250.907V158.766L73.9348 250.898Z" fill="#8C2033"/>
<path d="M73.9351 250.898L74.1645 172.215L129.45 194.88L73.9351 250.898Z" fill="url(#paint3_linear_2657_7663)"/>
<path d="M184.781 5.25708L185.405 61.2205L129.551 38.0251L184.781 5.25708Z" fill="url(#paint4_linear_2657_7663)"/>
<path d="M184.781 5.25708L185.405 61.2205L224.201 74.9805L184.781 5.25708Z" fill="url(#paint5_linear_2657_7663)"/>
<path d="M208.17 116.754L185.405 61.2205L224.201 74.9805L208.17 116.754Z" fill="url(#paint6_linear_2657_7663)"/>
<path d="M208.171 116.754L185.249 171.977L224.118 158.144L208.171 116.754Z" fill="url(#paint7_linear_2657_7663)"/>
<path d="M185.717 250.752L185.249 171.977L224.118 158.144L185.717 250.752Z" fill="url(#paint8_linear_2657_7663)"/>
<path d="M185.717 250.752L185.249 171.977L129.486 194.862L185.717 250.752Z" fill="url(#paint9_linear_2657_7663)"/>
<path d="M185.717 250.752L73.9443 250.908L129.487 194.862L185.717 250.752Z" fill="url(#paint10_linear_2657_7663)"/>
<path d="M135.212 133.275L147.783 139.017L146.508 130.094L135.047 123.95L135.212 133.275ZM39.9106 163.173L56.2806 165.001L59.85 149.842L44.1775 147.099L39.9106 163.173ZM98.1322 58.2125L87.3963 50.2856L79.9454 60.3428L91.6999 67.6571L98.1322 58.2125ZM130.946 31.6982L124.082 22.7748L114.429 28.4525L122.458 37.1565L130.946 31.6982ZM166.319 25.4354L164.108 18.1211L152.472 17.2068L155.849 25.2068L166.319 25.4354ZM205.656 34.5782L195.884 27.6205V32.1371L205.308 37.9428L205.656 34.5782ZM73.5406 99.3645L60.162 93.5679L55.6199 106.779L69.3839 111.881L73.5406 99.3645ZM140.158 93.3851L137.772 101.559L146.389 109.449L148.545 101.851L140.158 93.3851ZM195.141 56.8136L202.298 57.1611L202.362 53.8514L194.911 52.3428L195.141 56.8136ZM165.392 29.2571C130.973 27.5565 69.3564 60.0593 60.5107 190.455H144.93C126.009 141.604 128.202 104.75 141.213 79.7714C160.134 43.4468 188.305 41.0422 214.621 56.3565C215.539 54.1531 216.833 51.3736 216.833 51.3736C210.185 44.4385 202.205 38.9066 193.368 35.1071C184.531 31.3076 175.017 29.3181 165.392 29.2571ZM167.916 56.3199L171.054 63.7988L176.871 60.6719L174.715 53.7691L167.916 56.3199ZM148.83 73.3074L155.253 82.0662L159.208 76.3245L153.601 67.6571L148.83 73.3074ZM158.602 175.223L154.61 165.623L140.002 162.88L143.847 173.851L158.602 175.223Z" fill="#F7DEE1"/>
<path d="M81.8359 57.865L91.9295 53.6593L87.3966 50.313L81.8359 57.865Z" fill="white"/>
<path d="M122.421 37.1108L125.101 35.3828L115.649 29.769L122.421 37.1108Z" fill="white"/>
<path d="M44.15 147.099L40.3604 161.362L49.3345 164.242L56.244 165.028L59.8134 149.87L44.15 147.099Z" fill="#D7C4C9"/>
<path d="M65.2819 150.656C64.2726 156.355 63.3794 162.304 62.6025 168.503L74.1643 172.215L65.2819 150.656Z" fill="#D7C4C9"/>
<path d="M40.3605 161.362L39.8833 163.173L49.3346 164.242L40.3605 161.362Z" fill="#C2C3C6"/>
<path d="M74.1646 172.215L62.6029 168.503C61.7403 175.497 61.0338 182.802 60.5107 190.446H74.1095L74.1646 172.215Z" fill="#C2C3C6"/>
<path d="M74.1094 190.455H118.65L74.1644 172.215L74.1094 190.455Z" fill="#DDC3C8"/>
<path d="M198.471 29.4672L195.847 27.6387V32.1552L202.169 36.0501L198.471 29.4672ZM205.537 41.9747C199.346 37.5491 192.423 34.241 185.083 32.201L185.249 47.4604C195.121 47.7543 204.754 50.5552 213.235 55.5975L205.537 41.9747ZM195.14 56.8135L202.298 57.161L202.362 53.8512L194.911 52.3427L195.14 56.8135Z" fill="url(#paint11_linear_2657_7663)"/>
<path d="M185.084 32.2013C178.654 30.4763 172.047 29.4885 165.392 29.2573C152.998 28.9666 140.762 32.0825 130.028 38.263L165.071 52.7819C171.212 49.2673 178.176 47.4346 185.258 47.4699L185.084 32.2013ZM166.273 25.3899L164.062 18.0756L163.263 18.0024L154.886 22.967L155.803 25.1339L166.273 25.3899ZM170.861 55.1773L175.798 57.2344L174.706 53.7419L170.861 55.1773Z" fill="url(#paint12_linear_2657_7663)"/>
<path d="M74.9442 219.831V213.632C74.7953 211.216 73.762 208.939 72.0403 207.232C70.3186 205.525 68.0281 204.507 65.603 204.37H45.8472V241.554H55.9407V230.729L64.089 241.554H76.1921L66.7225 229.028C68.9223 228.62 70.9236 227.495 72.4118 225.83C73.9 224.165 74.7908 222.055 74.9442 219.831ZM65.0158 221.659H55.8398V214.162H65.0158V221.659ZM104.188 204.187H95.0121C92.507 204.306 90.1416 205.371 88.3975 207.167C86.6534 208.962 85.6619 211.353 85.625 213.851V241.371H95.5534V234.112H104.472V241.371H114.566V213.796C114.444 211.161 113.288 208.679 111.347 206.885C109.406 205.091 106.835 204.128 104.188 204.206V204.187ZM104.491 224.128H95.5718V214.162H104.491V224.128ZM196.82 217.6H187.111V213.54H204.16V204.352H187.056C184.459 204.302 181.946 205.271 180.058 207.049C178.17 208.828 177.058 211.274 176.963 213.86V217.801C177.046 220.398 178.134 222.863 180.001 224.678C181.867 226.493 184.366 227.518 186.974 227.538H195.994V232.055H177.642V241.444H195.718C198.264 241.551 200.754 240.679 202.672 239.008C204.59 237.336 205.79 234.994 206.023 232.466V227.538C206.101 225.011 205.18 222.554 203.459 220.695C201.738 218.837 199.354 217.726 196.82 217.6ZM156.142 204.27H146.141V241.49H171.127V231.534H156.17L156.142 204.27ZM125.311 241.49H135.34V204.288H125.329L125.311 241.49Z" fill="white"/>
</g>
<defs>
<linearGradient id="paint0_linear_2657_7663" x1="31.6613" y1="128" x2="224.348" y2="128" gradientUnits="userSpaceOnUse">
<stop offset="0.08" stop-color="#AA2237"/>
<stop offset="0.982" stop-color="#B4313D"/>
</linearGradient>
<linearGradient id="paint1_linear_2657_7663" x1="73.8525" y1="32.9234" x2="129.551" y2="32.9234" gradientUnits="userSpaceOnUse">
<stop offset="0.037" stop-color="#B83A41"/>
<stop offset="0.896" stop-color="#BF4A50"/>
</linearGradient>
<linearGradient id="paint2_linear_2657_7663" x1="53.2246" y1="172.215" x2="53.2246" y2="116.096" gradientUnits="userSpaceOnUse">
<stop offset="0.037" stop-color="#A92237"/>
<stop offset="0.939" stop-color="#972235"/>
</linearGradient>
<linearGradient id="paint3_linear_2657_7663" x1="101.692" y1="250.898" x2="101.692" y2="172.215" gradientUnits="userSpaceOnUse">
<stop offset="0.037" stop-color="#BC4245"/>
<stop offset="0.939" stop-color="#A42136"/>
</linearGradient>
<linearGradient id="paint4_linear_2657_7663" x1="157.473" y1="61.2205" x2="157.473" y2="5.25708" gradientUnits="userSpaceOnUse">
<stop offset="0.037" stop-color="#CC5057"/>
<stop offset="0.896" stop-color="#B73840"/>
</linearGradient>
<linearGradient id="paint5_linear_2657_7663" x1="181.001" y1="53.6319" x2="204.815" y2="39.8339" gradientUnits="userSpaceOnUse">
<stop offset="0.08" stop-color="#D4575F"/>
<stop offset="0.945" stop-color="#B63540"/>
</linearGradient>
<linearGradient id="paint6_linear_2657_7663" x1="185.405" y1="88.9873" x2="224.201" y2="88.9873" gradientUnits="userSpaceOnUse">
<stop stop-color="#C04B51"/>
<stop offset="1" stop-color="#B83A41"/>
</linearGradient>
<linearGradient id="paint7_linear_2657_7663" x1="185.249" y1="144.366" x2="224.118" y2="144.366" gradientUnits="userSpaceOnUse">
<stop stop-color="#BA4044"/>
<stop offset="1" stop-color="#B4303C"/>
</linearGradient>
<linearGradient id="paint8_linear_2657_7663" x1="177.082" y1="194.35" x2="206.916" y2="205.253" gradientUnits="userSpaceOnUse">
<stop stop-color="#972136"/>
<stop offset="1" stop-color="#9F2236"/>
</linearGradient>
<linearGradient id="paint9_linear_2657_7663" x1="151.509" y1="176.457" x2="202.137" y2="237.017" gradientUnits="userSpaceOnUse">
<stop offset="0.037" stop-color="#B22C3A"/>
<stop offset="0.939" stop-color="#C04D53"/>
</linearGradient>
<linearGradient id="paint10_linear_2657_7663" x1="129.826" y1="250.908" x2="129.826" y2="194.862" gradientUnits="userSpaceOnUse">
<stop offset="0.037" stop-color="#B22C3A"/>
<stop offset="0.939" stop-color="#9B2135"/>
</linearGradient>
<linearGradient id="paint11_linear_2657_7663" x1="185.083" y1="42.377" x2="213.245" y2="42.377" gradientUnits="userSpaceOnUse">
<stop offset="0.037" stop-color="white"/>
<stop offset="0.742" stop-color="#F4E6D9"/>
</linearGradient>
<linearGradient id="paint12_linear_2657_7663" x1="138.662" y1="23.3327" x2="184.01" y2="49.6142" gradientUnits="userSpaceOnUse">
<stop offset="0.037" stop-color="white"/>
<stop offset="0.896" stop-color="#F4E6D9"/>
</linearGradient>
<clipPath id="clip0_2657_7663">
<rect width="202" height="256" fill="white" transform="translate(27)"/>
</clipPath>
</defs>
</svg>
