<svg width="256" height="256" viewBox="0 0 256 256" fill="none" xmlns="http://www.w3.org/2000/svg">
<path d="M136.353 238.268C123.839 237.88 111.743 235.326 100.122 230.767C68.5589 218.386 45.4147 197.125 32.0705 165.665C31.7583 164.929 31.5472 164.15 31.2889 163.391C30.8977 162.537 31.0777 161.521 30.5284 160.712C30.2936 160.033 30.2489 159.355 30.5478 158.681C31.8346 157.836 32.559 158.995 33.3463 159.572C41.169 165.305 48.8334 171.249 56.5753 177.089C76.1639 191.868 95.7303 206.675 115.301 221.478C121.336 226.043 127.413 230.553 133.412 235.164C134.543 236.034 135.88 236.755 136.353 238.268Z" fill="#EC168E"/>
<path d="M28.1251 156.727C24.3268 152.822 20.7803 148.71 18.0672 143.961C15.2442 139.019 14.7646 134.253 18.7712 129.495C22.94 124.544 22.678 118.825 20.8697 112.999C19.6738 109.147 18.3304 105.343 17.4258 101.396C16.25 96.2662 17.4082 91.8108 20.8416 87.8874C23.3175 85.0583 25.904 82.2878 28.9559 80.1235C33.9073 76.6122 35.5085 71.7385 35.6531 66.0107C35.7419 62.4892 35.5478 58.9657 36.0299 55.4418C36.8616 49.3611 40.198 45.412 45.8281 43.2526C49.0082 42.0329 52.3402 41.2636 55.7027 41.156C63.1978 40.9163 68.7705 37.2518 73.5059 31.8633C75.3013 29.8204 77.1763 27.8392 78.8567 25.7053C84.283 18.8147 91.6038 16.8262 99.8907 17.6925C107.463 18.4839 113.888 21.8387 119.221 27.2748C118.215 28.3117 116.782 27.6461 115.65 28.176C114.21 28.5373 112.7 28.1627 111.268 28.6007C109.98 28.8633 108.641 28.7512 107.368 29.1314C105.905 29.5549 104.375 29.6002 102.897 29.9395C101.152 30.4698 99.3331 30.6907 97.5867 31.2146C95.6259 31.5933 93.7752 32.3361 91.8887 32.958C89.9681 33.6424 88.0381 34.3031 86.1792 35.1483C83.889 35.9842 81.7321 37.1089 79.5679 38.2166C77.1484 39.3775 74.8536 40.7574 72.5961 42.2016C70.6166 43.4403 68.6491 44.6973 66.7787 46.099C65.218 47.1708 63.7924 48.4135 62.338 49.6197C60.6646 50.8402 59.2093 52.3205 57.5972 53.6136C55.9488 55.2025 54.3476 56.8382 52.7387 58.466C51.5141 59.4977 50.7668 60.948 49.6142 62.0429C47.7504 64.1348 46.0986 66.3934 44.4213 68.6319C43.0668 70.5282 41.818 72.4948 40.533 74.4375C39.2358 76.5495 37.9433 78.6632 36.8889 80.9123C35.7941 83.0521 34.6656 85.1743 33.747 87.4013C29.306 97.6599 26.5283 108.367 25.1149 119.435C23.6911 130.583 24.5894 141.551 27.7526 152.344C28.1641 153.748 29.1927 155.169 28.1251 156.727Z" fill="#EC168E"/>
<path d="M154.916 237.446C150.387 238.262 145.822 238.503 141.229 238.289C136.149 234.899 131.369 231.1 126.507 227.417C115.249 218.892 103.966 210.4 92.7173 201.863C72.8559 186.79 52.9138 171.824 33.0902 156.702C31.9854 155.86 30.671 155.283 29.7821 154.152C28.8816 150.521 29.3106 146.856 29.4807 143.201C30.2962 141.616 31.2226 142.657 31.9448 143.212C37.7181 147.646 43.6032 151.931 49.3907 156.346C60.7899 165.041 72.2652 173.636 83.6879 182.3C106.881 199.892 130.116 217.427 153.332 234.989C154.1 235.571 155.474 235.937 154.916 237.446Z" fill="#EB0B8D"/>
<path d="M30.0246 142.567C29.9479 146.54 29.6064 150.522 30.3927 154.469C31.2835 155.713 31.0896 157.075 30.8236 158.444C30.8351 159.169 30.8466 159.895 30.8581 160.621C31.0734 161.073 31.2466 161.506 30.4625 161.516C29.5111 160.003 29.3242 158.118 28.124 156.726C27.9314 153.693 26.6124 150.941 25.9365 148.022C22.4903 133.143 23.6636 118.454 27.4736 103.841C28.9909 98.0216 30.8056 92.3081 33.425 86.876C35.0737 87.1221 34.8642 88.4834 34.969 89.5735C35.6096 96.2324 36.427 102.861 38.1314 109.347C38.2092 110.186 37.8909 110.933 37.5774 111.679C37.2076 112.432 36.8154 113.176 36.4591 113.937C36.1163 114.571 35.8537 115.239 35.6351 115.926C34.83 117.91 34.0926 119.915 33.5873 121.999C33.2385 123.285 32.7777 124.54 32.5525 125.86C32.2157 127.32 31.9248 128.787 31.7593 130.278C31.4698 132.043 31.1734 133.805 31.0164 135.588C31.0297 137.327 30.3291 139.003 30.578 140.763C30.5499 141.412 30.5224 142.062 30.0246 142.567Z" fill="#512C86"/>
<path d="M30.0254 142.567C30.0366 141.961 30.0478 141.356 30.0589 140.75C30.2608 140.422 30.0579 139.868 30.6217 139.74C31.8818 139.828 32.752 140.674 33.6771 141.37C50.7962 154.247 67.8974 167.147 84.937 180.129C85.8199 180.802 86.8384 181.232 87.7506 181.845C89.7794 184.203 91.6393 186.736 93.8698 188.884C99.6789 194.479 106.244 199.01 113.74 202.103C115.424 201.951 116.224 203.376 117.388 204.15C118.117 204.635 118.765 205.226 119.441 205.779C124.231 209.524 129.293 212.84 134.74 215.557C135.655 216.014 136.549 216.521 137.157 217.394C137.956 218.779 139.325 219.553 140.533 220.479C146.583 225.115 152.788 229.549 158.746 234.305C159.435 234.855 160.797 235.153 160.214 236.591C158.516 237.294 156.719 237.392 154.916 237.447C154.189 235.497 152.241 234.835 150.787 233.729C137.235 223.412 123.609 213.192 110.007 202.94C102.419 197.22 94.8289 191.504 87.2552 185.765C72.9803 174.949 58.7253 164.106 44.4437 153.299C39.6663 149.683 34.8331 146.142 30.0254 142.567Z" fill="#E60A8D"/>
<path d="M30.8249 158.443C30.1579 157.175 30.4497 155.803 30.394 154.469C33.5472 155.801 35.9013 158.273 38.5797 160.271C49.1934 168.186 59.7588 176.166 70.3184 184.154C85.7206 195.804 101.096 207.49 116.495 219.144C124.078 224.883 131.698 230.571 139.269 236.325C139.99 236.873 140.971 237.245 141.229 238.288C139.604 238.282 137.979 238.275 136.354 238.268C122.386 227.637 108.428 216.993 94.4466 206.38C84.657 198.949 74.8342 191.562 65.0283 184.153C54.3486 176.083 43.6727 168.008 32.9902 159.942C32.2903 159.413 31.5476 158.941 30.8249 158.443Z" fill="#EB0F8E"/>
<path d="M177.038 44.4276C184.117 48.6907 190.59 53.7274 196.4 59.6095C204.52 74.4367 200.996 93.6734 185.746 104.003C184.162 105.077 182.787 106.809 180.477 105.916C179.146 105.927 177.805 106.042 176.534 105.496C176.427 104.174 177.558 104.054 178.361 103.683C188.584 98.9593 195.034 91.2861 196.518 79.9555C198.559 64.3707 188.677 50.6006 174.13 48.0414C154.188 44.5335 140.49 60.695 140.419 75.7637C140.382 83.5436 142.258 90.4253 147.499 96.2844C148.09 96.9453 148.877 97.6995 148.293 98.8022C146.607 98.4179 144.954 97.9359 143.418 97.1183C139.48 92.6714 137.567 87.3318 136.729 81.5724C134.19 64.1317 146.144 45.92 166.317 43.5632C169.952 43.1384 173.476 43.996 177.038 44.4276Z" fill="#D5128C"/>
<path d="M136.811 217.609C133.001 214.806 128.473 213.189 124.728 210.273C122.9 208.85 121.011 207.508 119.149 206.13C117.565 202.964 115.39 200.164 113.407 197.267C108.633 190.29 103.925 183.266 99.0591 176.352C98.8056 175.992 98.7061 175.539 98.3717 175.23L98.3794 175.248C97.9171 174.406 98.4108 173.445 98.0476 172.591C97.8773 171.062 98.7368 172.114 98.8804 172.335C100.94 175.509 104.021 177.666 106.674 180.246C112.409 185.822 118.877 190.472 125.392 195.061C125.32 195.802 125.841 196.268 126.204 196.805C130.463 203.11 134.743 209.399 139.048 215.673C139.633 216.525 141.094 217.536 139.453 218.794C138.334 218.929 137.553 218.313 136.811 217.609Z" fill="#EB0B8D"/>
<path d="M134.143 93.603C132.136 93.0665 130.265 92.1989 128.422 91.2625C126.987 88.3117 126.441 85.1294 126.1 81.9162C124.649 68.2313 129.055 56.4331 138.062 46.3166C142.989 40.7824 149.329 37.2073 156.317 34.8054C157.004 34.5695 157.732 34.4 158.436 34.8147C160.476 35.4185 162.4 36.2899 164.244 37.3444C164.325 38.9966 162.918 38.908 161.965 39.1415C157.581 40.2146 153.331 41.6 149.553 44.1434C139.134 51.1592 133.115 60.8312 131.596 73.3791C130.877 79.324 132.045 84.9035 133.804 90.473C134.119 91.4696 134.888 92.4707 134.143 93.603Z" fill="#C9148C"/>
<path d="M123.938 89.2966C122.93 88.9168 121.922 88.5371 120.914 88.1573C120.191 87.9564 119.412 87.8378 119.155 86.9535C117.672 80.3588 117.866 73.7596 119.128 67.1612C119.307 66.2247 119.481 65.2942 119.336 64.3392C119.208 63.1812 119.823 62.2485 120.304 61.2857C121.532 58.8278 122.876 56.421 123.459 53.6965C128.186 44.4781 134.862 37.0576 143.794 31.73C144.638 31.2264 145.391 30.3867 146.552 30.8283C148.553 31.1627 150.502 31.6671 152.332 32.5696C152.129 33.5491 151.37 34.0042 150.569 34.3951C141.174 38.9765 133.952 45.8491 129.036 55.0638C125.703 61.3098 123.954 68.0292 123.719 75.1116C123.595 78.8565 123.675 82.5923 124.472 86.2911C124.685 87.2771 125.181 88.4912 123.938 89.2966Z" fill="#BE198C"/>
<path d="M33.1016 121.785C33.5936 119.648 34.2637 117.574 35.2826 115.623C36.1242 115.353 36.6928 115.92 37.2515 116.345C49.9902 126.038 62.7992 135.638 75.5419 145.326C75.6573 145.414 75.7477 145.535 75.8529 145.638C75.8702 146.641 75.8875 147.644 75.9049 148.647C76.3276 149.513 75.8995 150.47 76.1975 151.349C76.2355 151.947 76.2736 152.545 76.3116 153.143C74.7731 153.463 73.8917 152.291 72.8871 151.537C60.7514 142.431 48.6597 133.268 36.5673 124.105C35.4567 123.263 34.3355 122.441 33.1016 121.785Z" fill="#CC128C"/>
<path d="M168.512 104.166C164.139 103.695 159.933 102.505 155.759 101.184C149.309 97.7069 145.035 92.4323 142.864 85.4592C139.945 76.0854 141.44 67.3637 147.353 59.6122C153.528 51.5188 161.967 47.672 172.061 49.0086C183.674 50.5463 191.159 57.4606 194.532 68.6783C199.453 85.0464 187.46 103.793 168.711 104.256C168.645 104.258 168.578 104.197 168.512 104.166Z" fill="#DB108C"/>
<path d="M30.4727 135.468C30.6593 133.694 30.6294 131.888 31.2759 130.184C32.5771 129.484 33.3359 130.536 34.1589 131.154C45.5564 139.709 56.9258 148.302 68.2686 156.93C71.8333 159.641 75.5136 162.201 78.9611 165.066C80.1616 167.857 81.3621 170.647 82.5625 173.438C81.1697 174.123 80.343 172.974 79.49 172.337C73.6554 167.981 67.828 163.615 62.0348 159.205C52.4958 151.942 42.8841 144.776 33.362 137.492C32.4258 136.776 31.4326 136.147 30.4727 135.468Z" fill="#DF0E8C"/>
<path d="M148.293 98.8025C147.863 96.9776 146.276 95.9762 145.278 94.5562C141.678 89.4349 139.906 83.8042 139.838 77.4738C139.762 70.2811 141.567 63.8093 146.101 58.2457C151.628 51.4628 158.537 47.4071 167.604 47.1026C176.593 46.8007 183.964 49.8262 189.956 56.3969C194.578 61.4655 196.943 67.5054 197.293 74.3216C197.599 80.2991 196.542 85.9969 193.4 91.1868C189.772 97.1789 184.862 101.716 178.302 104.355C177.641 104.621 176.822 104.649 176.534 105.497C174.567 105.472 172.639 105.196 170.763 104.594C171.769 103.756 173.055 103.626 174.24 103.342C192.903 98.8698 202.175 75.9814 189.798 59.5182C180.661 47.3633 164.914 45.5428 153.183 54.1828C139.102 64.5528 137.646 84.7083 150.279 97.1271C151.187 98.0199 152.993 98.2995 152.706 100.173C151.165 99.9403 149.692 99.4919 148.293 98.8025Z" fill="#D8118C"/>
<path d="M134.143 93.6033C133.262 90.5109 132.246 87.4497 131.528 84.3201C129.729 76.485 130.893 68.8583 134.066 61.6364C139.301 49.7245 148.196 41.9137 160.989 38.7687C162.121 38.4904 163.571 38.7448 164.244 37.3447C166.28 38.4334 168.317 39.522 170.353 40.6107C170.14 41.7606 169.141 41.5009 168.426 41.6087C164.942 42.1344 161.462 42.518 158.074 43.6859C144.621 48.3228 134.846 61.9811 134.709 76.2283C134.654 81.962 135.976 87.2897 138.246 92.4674C138.642 93.3707 139.391 94.2704 138.571 95.3273C137.016 94.9549 135.52 94.4314 134.143 93.6033Z" fill="#CC138C"/>
<path d="M123.938 89.2963C124.561 87.2965 123.706 85.3933 123.46 83.4743C122.34 74.7633 123.552 66.4063 126.824 58.2943C128.654 53.7592 131.215 49.6178 134.415 46.0126C138.744 41.1358 143.713 36.8971 149.738 34.1564C150.698 33.7195 151.439 33.0488 152.331 32.5693C154.471 33.0334 156.495 33.8137 158.437 34.8147C152.62 36.3366 147.468 39.1546 142.723 42.7979C138.113 46.3376 134.677 50.8653 131.917 55.8889C128.973 61.2487 127.259 67.0108 126.608 73.1402C126.011 78.7601 126.657 84.1662 128.322 89.5131C128.491 90.0541 128.396 90.6773 128.423 91.2624C126.928 90.6071 125.433 89.9517 123.938 89.2963Z" fill="#C3168C"/>
<path d="M33.1006 121.786C33.9141 121.321 34.4786 121.835 35.0676 122.279C43.9397 128.963 52.8221 135.635 61.6824 142.335C65.6465 145.333 69.5552 148.404 73.5168 151.405C74.3875 152.064 75.3763 152.568 76.3107 153.144C76.7298 155.346 77.1488 157.549 77.5679 159.751C76.383 159.692 75.5846 158.869 74.7294 158.228C60.8821 147.861 47.1357 137.361 33.3092 126.966C32.8452 126.617 32.3342 126.302 32.0742 125.741C32.162 124.357 32.6936 123.087 33.1006 121.786Z" fill="#D2128C"/>
<path d="M32.0741 125.741C35.2008 127.22 37.6943 129.61 40.4168 131.651C52.0893 140.401 63.6839 149.256 75.3118 158.066C76.0597 158.633 77.0263 158.907 77.5678 159.751C78.0319 161.523 78.4961 163.295 78.9602 165.067C76.0901 164.135 74.073 161.905 71.745 160.189C62.7985 153.593 53.9575 146.855 45.0907 140.151C41.1822 137.197 37.3001 134.207 33.4205 131.214C32.7686 130.711 32.1157 130.267 31.275 130.184C31.2305 128.647 31.62 127.188 32.0741 125.741Z" fill="#D9108C"/>
<path d="M76.7858 132.913C76.84 134.237 76.6427 135.529 76.2789 136.8C75.2727 137.145 74.5804 136.473 73.9108 135.966C62.2876 127.157 50.6354 118.386 39.0214 109.564C38.8466 109.432 38.7216 109.245 38.6075 109.055C38.3307 107.453 39.6713 106.578 40.2608 105.362C40.6046 104.929 40.9789 104.536 41.5497 104.411C43.3113 104.901 44.5392 106.231 45.9215 107.285C55.6726 114.715 65.4973 122.048 75.2534 129.472C76.4226 130.362 77.4708 131.231 76.7858 132.913Z" fill="#BD1A8C"/>
<path d="M220.248 101.873C220.402 94.952 220.207 88.069 218.1 81.3825C217.521 79.5424 216.991 77.6871 215.758 75.6885C224.041 81.976 230.605 98.2565 228.55 114.747C227.783 115.978 227.037 115.325 226.508 114.604C224.342 111.654 222.351 108.58 220.398 105.489C219.725 104.424 219.938 103.097 220.248 101.873Z" fill="#512C87"/>
<path d="M209.591 212.294C208.136 213.773 206.622 215.181 204.867 216.306C203.457 216.494 202.028 216.389 200.683 217.147C199.626 217.742 198.925 216.819 198.338 216.044C196.742 213.932 195.297 211.712 193.814 209.524C189.153 202.65 184.443 195.811 179.773 188.944C179.255 188.181 178.494 187.466 178.782 186.373C180.381 185.716 181.979 185.059 183.578 184.402C184.558 184.786 184.904 185.743 185.432 186.514C191.161 194.883 196.845 203.284 202.629 211.616C204.237 213.932 204.26 213.916 206.737 212.302C207.686 211.736 208.638 211.054 209.591 212.294Z" fill="#AA218D"/>
<path d="M139.466 202.647C141.382 203.394 143.299 204.14 145.215 204.887C146.034 205.305 146.53 206.039 147.004 206.776C150.137 211.644 153.559 216.317 156.742 221.151C157.425 222.188 158.188 223.178 158.412 224.459C158.579 225.41 159.36 225.908 160.068 226.424C162.673 228.325 165.186 230.345 167.73 232.324C168.464 232.896 169.625 233.38 169.043 234.731C167.277 235.167 165.511 235.603 163.745 236.039C158.19 232.146 152.953 227.83 147.487 223.818C146.801 223.314 146.059 222.724 146.382 221.651C146.529 221.492 146.711 221.4 146.925 221.374C148.493 221.586 149.966 222.287 151.858 222.494C150.922 220.486 149.782 218.963 148.673 217.447C145.852 213.587 143.422 209.463 140.573 205.622C139.943 204.772 139.139 203.895 139.466 202.647Z" fill="#DF0E8C"/>
<path d="M81.1948 117.876C80.7161 119.029 80.2374 120.181 79.7586 121.334C78.6633 121.632 77.9282 120.897 77.1961 120.341C67.4809 112.959 57.6995 105.664 48.0118 98.246C47.6013 97.9317 47.2066 97.6008 47.0254 97.0882C47.3683 95.4781 48.5344 94.5355 49.7977 93.67C50.765 93.5179 51.4933 94.0232 52.202 94.5626C61.3345 101.512 70.4871 108.436 79.6401 115.358C80.4311 115.957 81.7734 116.367 81.1948 117.876Z" fill="#A9218D"/>
<path d="M30.4715 135.469C31.5359 134.937 32.1165 135.878 32.736 136.343C47.0924 147.132 61.4274 157.95 75.7428 168.793C77.9415 170.458 79.8942 172.467 82.5614 173.438C83.6006 175.201 84.6397 176.964 85.6788 178.727C84.3249 179.488 83.4512 178.425 82.5794 177.785C77.6122 174.138 72.6875 170.433 67.7816 166.704C56.1013 157.827 44.4013 148.975 32.663 140.174C31.9796 139.662 31.2898 138.899 30.4079 139.903C30.291 140.186 30.1742 140.468 30.0577 140.751C29.7772 138.957 30.3856 137.233 30.4715 135.469Z" fill="#E30C8C"/>
<path d="M204.756 145.175C205.752 143.54 206.749 141.905 207.745 140.271C208.599 139.923 208.966 140.596 209.32 141.106C215.106 149.438 220.726 157.886 226.522 166.212C226.646 166.39 226.706 166.612 226.791 166.816C225.837 168.434 224.752 169.953 223.404 171.271C222.441 171.531 222.102 170.749 221.736 170.175C219.728 167.034 217.375 164.125 215.5 160.895C211.884 155.679 208.177 150.525 204.756 145.175Z" fill="#762A8A"/>
<path d="M97.5892 98.8651C96.2805 99.9012 94.9717 100.937 93.6629 101.973C92.6003 102.487 91.8206 101.87 91.0621 101.286C83.3684 95.37 75.529 89.6457 67.8744 83.6782C67.1821 83.1384 66.4419 82.6127 66.375 81.6086C66.4319 81.2591 66.632 81.008 66.9164 80.8135C68.1977 80.1854 69.4891 79.5825 70.9225 79.3749C71.6892 79.3172 72.3619 79.5497 72.9709 80.0158C81.0124 86.1703 89.0566 92.3214 97.2006 98.3406C97.3781 98.4717 97.4967 98.6627 97.5892 98.8651Z" fill="#8B288C"/>
<path d="M76.7868 132.913C76.8482 131.824 76.5096 131.094 75.5273 130.365C67.1449 124.14 58.8287 117.827 50.5053 111.523C47.4789 109.232 44.4869 106.894 41.4792 104.578C41.3052 103.276 41.961 102.369 42.8933 101.59C43.1749 101.424 43.4749 101.314 43.8046 101.299C45.1638 101.633 45.945 102.797 46.9931 103.57C56.9687 110.929 66.7594 118.534 76.6995 125.94C77.1713 126.291 77.6519 126.624 78.0179 127.093C77.6076 129.033 77.1972 130.973 76.7868 132.913Z" fill="#B91B8C"/>
<path d="M178.783 186.373C184.145 194.28 189.501 202.191 194.872 210.091C196.225 212.08 197.673 214.005 198.986 216.019C199.619 216.989 200.463 217.147 201.141 216.482C202.417 215.23 203.6 215.727 204.868 216.306C203.836 217.411 202.657 218.325 201.329 219.047C199.813 217.842 198.338 218.494 196.862 219.15C196.648 219.164 196.443 219.13 196.243 219.052C194.093 217.111 192.804 214.514 191.2 212.18C186.184 204.882 181.193 197.566 176.219 190.239C175.703 189.479 174.947 188.765 175.245 187.676C176.424 187.242 177.604 186.807 178.783 186.373Z" fill="#B01F8D"/>
<path d="M81.1944 117.875C81.2046 116.555 79.9668 116.281 79.2184 115.707C70.0563 108.681 60.8479 101.715 51.6455 94.7416C51.1185 94.3422 50.5355 94.0217 49.8454 93.9829C49.5755 93.5266 49.8543 93.1847 50.0814 92.8299C50.8152 92.079 51.4404 91.1784 52.5826 90.976C53.4605 90.9445 54.1088 91.4631 54.7512 91.9385C64.0148 98.7944 73.1123 105.871 82.3546 112.755C82.763 113.059 83.1914 113.36 83.4084 113.855C82.6704 115.195 81.9324 116.535 81.1944 117.875Z" fill="#A5228D"/>
<path d="M38.7149 108.966C43.0702 111.643 46.9763 114.939 51.0565 117.99C58.6411 123.662 66.1249 129.469 73.6686 135.196C74.4781 135.811 75.4063 136.269 76.2795 136.8C76.3119 138.169 76.3167 139.536 75.9269 140.869C74.1913 140.174 72.8786 138.856 71.4265 137.759C60.2422 129.306 49.1261 120.762 37.859 112.419C37.561 112.199 37.284 111.965 37.0898 111.645C37.3533 111.034 37.6167 110.423 37.8801 109.812C38.1645 109.536 38.0192 108.836 38.7149 108.966Z" fill="#C1178C"/>
<path d="M146.967 221.584C146.82 221.584 146.673 221.584 146.525 221.584C143.854 221.277 141.31 220.678 139.46 218.493C140.247 217.686 139.433 217.133 139.078 216.611C134.596 210.02 130.085 203.448 125.562 196.885C125.141 196.274 124.483 195.763 125.392 195.062C128.314 196.735 131.237 198.409 134.159 200.082C138.754 206.532 143.086 213.163 147.583 219.68C148.057 220.366 148.96 221.537 146.967 221.584Z" fill="#E60A8D"/>
<path d="M180.477 105.917C182.274 106.352 183.239 104.944 184.512 104.15C189.086 101.297 192.706 97.5008 195.466 92.9259C199.518 86.2112 200.676 78.9137 199.661 71.1654C199.216 67.7661 198.067 64.6391 196.75 61.5387C196.479 60.901 196.426 60.2692 196.4 59.6104C198.275 61.091 199.904 62.808 201.318 64.7319C203.718 71.0671 203.801 77.5562 202.301 84.0548C200.145 93.393 195.196 100.907 187.149 106.268C184.916 106.333 182.674 106.536 180.477 105.917Z" fill="#D0138C"/>
<path d="M207.019 212.753C206.528 213.072 205.984 213.333 205.558 213.722C204.545 214.649 203.844 214.433 203.102 213.342C196.848 204.14 190.561 194.96 184.294 185.766C184.007 185.345 183.815 184.859 183.578 184.403C184.76 183.818 185.941 183.233 187.123 182.647C191.278 188.036 194.861 193.821 198.722 199.413C201.3 203.145 203.909 206.856 206.382 210.66C206.795 211.294 207.638 211.803 207.019 212.753Z" fill="#A6228D"/>
<path d="M66.604 81.6152C69.1656 84.5828 72.5535 86.5446 75.5932 88.9214C80.7747 92.973 86.0882 96.8556 91.3259 100.836C92.0438 101.382 92.7564 101.855 93.663 101.973C92.5924 102.988 91.5218 104.003 90.4511 105.018C89.4118 105.276 88.8267 104.467 88.1747 103.959C80.4401 97.9328 72.48 92.2048 64.7432 86.1826C63.8798 85.5106 62.9416 84.9123 62.481 83.848C62.425 83.3582 62.6577 82.9981 62.9984 82.6846C64.1519 82.1687 65.1082 80.9791 66.604 81.6152Z" fill="#91278C"/>
<path d="M47.1822 97.0704C57.0104 104.473 66.835 111.881 76.6727 119.271C77.6607 120.013 78.7288 120.649 79.7598 121.334C79.3908 122.39 79.0218 123.446 78.6529 124.502C77.7387 124.891 77.0774 124.298 76.466 123.832C65.9737 115.838 55.2919 108.093 44.9562 99.8923C44.591 98.8598 45.4924 98.4095 45.9375 97.7467C46.3016 97.4306 46.52 96.8378 47.1822 97.0704Z" fill="#AF1F8D"/>
<path d="M169.044 234.731C167.984 232.178 165.192 231.517 163.479 229.662C162.802 228.928 161.892 228.362 161 227.884C158.821 226.716 158.16 224.502 156.955 222.59C153.493 217.095 149.747 211.779 146.12 206.388C145.794 205.904 145.517 205.388 145.217 204.887C147.272 205.481 149.327 206.076 151.382 206.671C155.108 212.649 159.195 218.383 163.186 224.182C164.472 226.051 166.494 227.057 168.198 228.433C169.453 229.446 170.791 230.358 172.059 231.357C172.728 231.883 173.59 232.321 173.444 233.414C171.978 233.853 170.511 234.292 169.044 234.731Z" fill="#D9108C"/>
<path d="M128.031 27.7296C128.906 27.7711 129.781 27.8126 130.656 27.8541C131.684 28.0125 131.835 28.5637 131.325 29.3855C131.01 29.8919 130.518 30.2326 130.086 30.627C124.231 35.9732 119.447 42.1373 115.848 49.2118C115.421 50.0506 115.07 50.9981 113.924 51.135C113.597 51.165 113.275 51.1298 112.958 51.0487C112.048 50.742 111.132 50.4555 110.183 50.2866C109.751 50.1415 109.355 49.9593 109.322 49.4184C112.604 42.2851 117.033 35.9193 122.151 29.9871C123.777 28.1029 125.473 26.9319 128.031 27.7296Z" fill="#AA218D"/>
<path d="M146.551 30.8278C139.784 34.3941 134.035 39.1671 129.377 45.2505C127.321 47.9366 125.638 50.85 124.005 53.7986C122.858 54.4701 121.891 53.5732 120.834 53.4398C120.404 53.288 120.009 53.0948 119.879 52.6014C121.459 47.7448 124.493 43.7429 127.738 39.9607C130.892 36.2838 134.371 32.8688 138.503 30.2284C139.222 29.7685 139.866 29.0321 140.876 29.4801C142.844 29.6078 144.71 30.1634 146.551 30.8278Z" fill="#BA1B8C"/>
<path d="M102.976 95.3772C102.14 96.0953 101.231 96.6932 100.192 97.08C99.1282 97.6109 98.3775 96.9381 97.6223 96.3801C90.5558 91.1592 83.7107 85.6452 76.5904 80.4948C75.7034 79.8532 74.8533 79.132 74.5209 78.0006C74.2373 72.619 74.8804 67.3103 75.7626 62.0225C75.897 61.2173 76.2221 60.4695 76.9495 59.9834C78.9039 60.2339 78.2923 62.0307 78.8465 63.1264C77.758 67.1208 77.9878 71.2649 77.4899 75.3278C77.2217 77.5161 78.6613 77.2555 80.0216 77.1258C80.3622 77.135 80.6866 77.2111 80.9891 77.3682C81.6878 79.1704 83.2184 80.173 84.6877 81.2555C90.6037 85.6142 96.4502 90.0652 102.262 94.5624C102.552 94.7872 102.843 95.0136 102.976 95.3772Z" fill="#83298B"/>
<path d="M226.79 166.816C225.355 165.843 224.561 164.33 223.618 162.96C218.744 155.878 213.904 148.771 209.058 141.669C208.691 141.131 208.452 140.484 207.744 140.271C208.536 138.835 209.329 137.399 210.121 135.964C212.723 138.979 214.88 142.312 217.052 145.635C217.092 145.786 217.132 145.938 217.172 146.089C218.345 147.102 219.212 148.378 220.021 149.664C222.928 154.278 226.418 158.504 229.063 163.29C228.627 164.673 227.482 165.598 226.79 166.816Z" fill="#722B89"/>
<path d="M37.0897 111.646C39.9212 112.647 41.9632 114.837 44.2952 116.557C52.5948 122.682 60.8498 128.872 68.99 135.206C71.3379 137.033 74.0119 138.5 75.9267 140.869C75.902 141.576 75.8773 142.282 75.8525 142.989C74.5471 143.874 73.7947 142.72 72.9819 142.122C64.8049 136.111 56.8303 129.831 48.6619 123.808C44.9919 121.102 41.4544 118.223 37.7839 115.518C37.1501 115.05 36.3684 114.69 36.1074 113.834C36.2229 113.01 36.6316 112.316 37.0897 111.646Z" fill="#C5168C"/>
<path d="M177.039 44.4279C175.677 45.7673 174.175 44.6406 172.902 44.4128C167.096 43.3739 161.651 44.5591 156.456 46.8873C145.582 51.7601 139.437 60.4427 137.357 71.9896C135.895 80.1017 137.895 87.6371 142.102 94.6418C142.582 95.4417 143.382 96.0806 143.418 97.1185C142.568 97.1933 141.869 96.8037 141.18 96.3873C137.686 92.4454 136.207 87.6069 135.389 82.5893C133.524 71.1646 136.795 61.0995 144.532 52.6976C150.525 46.1886 158.221 42.6375 167.155 42.1935C169.545 42.0747 172.006 41.7875 174.335 42.7618C175.354 43.1259 176.252 43.686 177.039 44.4279Z" fill="#D1138C"/>
<path d="M88.7329 106.798C87.9877 107.679 87.2426 108.561 86.4974 109.443C85.5695 109.773 84.97 109.164 84.3335 108.678C76.0304 102.338 67.6548 96.0942 59.3567 89.7482C58.5036 89.0958 57.4049 88.644 57.0879 87.4452C57.2338 86.1405 58.3763 85.8058 59.2561 85.2121C59.6566 85.0275 60.0657 84.8892 60.5152 85.0083C69.3584 92.0575 78.5692 98.6274 87.4986 105.567C87.958 105.924 88.4733 106.236 88.7329 106.798Z" fill="#99258C"/>
<path d="M184.989 228.67C183.571 229.867 181.84 230.393 180.122 230.95C177.05 228.992 174.053 226.905 171.067 224.834C168.488 223.046 167.344 219.825 165.433 217.331C163.922 215.361 162.63 213.223 161.275 211.138C160.771 210.361 159.933 209.535 160.514 208.564C161.048 207.671 162.123 208.266 162.948 208.132C163.236 208.085 163.53 208.134 163.775 208.328C164.354 208.339 164.934 208.351 165.513 208.362C167.645 210.886 169.409 213.671 171.249 216.403C172.518 218.287 173.76 220.187 175.112 222.016C176.03 223.258 177.105 223.964 178.676 224.293C181.328 224.848 183.368 226.512 184.989 228.67Z" fill="#CC138C"/>
<path d="M163.774 208.328C163.555 208.331 163.331 208.308 163.117 208.342C162.356 208.463 161.359 207.941 160.873 208.736C160.346 209.6 161.324 210.203 161.727 210.811C164.421 214.881 167.207 218.891 169.933 222.94C170.824 224.264 172.067 225.066 173.447 225.801C175.952 227.134 178.305 228.705 180.122 230.95C178.876 231.723 177.473 232.098 176.094 232.531C171.86 229.553 167.354 226.921 164.487 222.343C161.96 218.308 159.114 214.479 156.483 210.51C155.913 209.65 154.971 208.783 155.799 207.559C158.457 207.815 161.116 208.071 163.774 208.328Z" fill="#D1138C"/>
<path d="M207.019 212.753C204.46 208.945 201.914 205.128 199.34 201.33C195.442 195.578 191.518 189.844 187.629 184.085C187.354 183.677 187.287 183.13 187.123 182.647C188 182.198 188.876 181.748 189.752 181.299C190.855 181.779 191.243 182.882 191.851 183.772C193.714 186.499 195.495 189.283 197.566 191.863C200.915 197.58 204.994 202.808 208.602 208.351C209.203 209.274 209.938 209.944 211.149 209.153C211.653 208.824 212.248 208.705 212.764 209.222C211.888 210.434 210.789 211.416 209.59 212.295C208.632 211.882 207.778 212.048 207.019 212.753Z" fill="#A2238D"/>
<path d="M98.3711 175.23C99.4129 175.835 100.125 176.736 100.788 177.727C104.41 183.136 108.062 188.525 111.718 193.911C114.059 197.361 116.443 200.782 118.764 204.246C119.116 204.773 119.935 205.322 119.149 206.13C117.345 204.788 115.542 203.446 113.739 202.103C112.563 199.954 110.54 198.549 108.983 196.73C104.202 191.148 100.323 185.105 98.6867 177.83C98.496 176.983 98.4722 176.098 98.3711 175.23Z" fill="#EB108E"/>
<path d="M174.335 42.762C166.902 42.3649 159.623 42.9823 153.039 46.8158C146.487 50.6298 141.499 55.8793 138.485 62.9991C136.476 67.7464 135.406 72.593 135.493 77.7122C135.597 83.8511 137.374 89.5143 140.458 94.7958C140.75 95.296 140.941 95.8551 141.179 96.3872C140.29 96.0828 139.335 95.9411 138.572 95.327C138.273 92.8775 136.8 90.868 136.056 88.569C132.042 76.1689 134.197 64.89 141.984 54.595C147.514 47.284 155.058 43.225 163.919 41.5336C166.033 41.1302 168.257 41.2787 170.354 40.6104C171.888 40.9438 173.108 41.8581 174.335 42.762Z" fill="#D1138D"/>
<path d="M83.409 113.855C80.3057 112.328 77.8032 109.946 75.0636 107.912C68.1974 102.815 61.4312 97.5832 54.591 92.4505C53.9764 91.9893 53.383 91.3396 52.4924 91.3334C52.3832 91.2209 52.3304 91.0975 52.3342 90.9634C52.338 90.8239 52.354 90.7542 52.3807 90.7534C52.984 89.9527 53.7952 89.462 54.7416 89.1712C55.7024 89.0099 56.468 89.4731 57.169 90.0124C66.4281 97.1355 75.8471 104.048 85.0864 111.197C84.7744 112.239 84.0709 113.034 83.409 113.855Z" fill="#A1238D"/>
<path d="M45.0022 99.7207C47.9668 101.19 50.3611 103.474 52.9963 105.403C58.9493 109.761 64.7884 114.275 70.6554 118.75C73.2682 120.743 75.7041 122.978 78.6528 124.502C78.4411 125.366 78.2294 126.23 78.0177 127.093C75.1476 126.027 73.0494 123.812 70.6647 122.049C62.4514 115.974 54.323 109.785 46.1742 103.624C45.3022 102.965 44.5084 102.202 43.6783 101.487C43.4715 100.413 44.144 99.9971 45.0022 99.7207Z" fill="#B41D8C"/>
<path d="M195.575 222.989C194.07 224.178 192.432 225.142 190.679 225.913C189.011 224.503 187.492 222.885 184.921 223.322C183.889 223.498 183.315 222.471 182.737 221.696C180.366 218.516 178.254 215.16 176.048 211.868C174.92 210.186 173.813 208.546 171.422 208.746C171.133 208.77 170.884 208.541 170.709 208.289C173.687 208.028 176.665 207.767 179.643 207.507C181.792 209.622 183.259 212.244 184.969 214.685C185.931 216.059 186.901 217.434 187.746 218.88C188.673 220.467 189.685 221.163 191.66 220.46C193.548 219.787 195.085 220.97 195.575 222.989Z" fill="#BE198D"/>
<path d="M187.148 106.268C187.421 104.764 188.888 104.331 189.829 103.532C199.384 95.4192 203.12 84.9492 202.588 72.7029C202.471 70.0058 201.264 67.4658 201.317 64.7314C202.822 66.2261 204.287 67.7521 205.205 69.7054C206.321 80.6796 204.456 90.889 197.53 99.8197C196.444 101.22 195.174 102.434 193.941 103.69C193.318 104.325 192.638 104.93 193.036 105.969C191.099 106.565 189.118 106.313 187.148 106.268Z" fill="#CD138C"/>
<path d="M223.806 139.915C225.262 137.964 226.718 136.013 228.175 134.062C230.035 135.851 231.277 138.1 232.722 140.196C234.09 142.18 235.343 144.245 236.921 146.078C236.208 148.688 235.375 151.253 234.071 153.64C233.062 153.975 232.571 153.207 232.132 152.598C229.284 148.638 226.558 144.593 223.848 140.538C223.724 140.352 223.727 140.129 223.806 139.915Z" fill="#612C89"/>
<path d="M204.755 145.175C205.206 145.545 205.772 145.836 206.09 146.297C209.366 151.066 212.603 155.862 215.85 160.651C215.699 162.056 215.12 162.989 213.503 162.775C212.852 163.115 212.2 163.456 211.549 163.796C210.624 164.096 210.201 163.399 209.765 162.839C206.916 159.178 204.625 155.13 201.881 151.394C201.484 150.853 201.263 150.209 201.694 149.543C202.714 148.087 203.735 146.631 204.755 145.175Z" fill="#7C2A8A"/>
<path d="M193.037 105.968C190.975 105.853 191.72 105.012 192.605 104.207C195.877 101.226 198.654 97.8441 200.643 93.887C203.297 88.6073 204.937 83.069 204.853 77.0641C204.818 74.6187 204.357 72.1198 205.206 69.7051C206.355 71.2599 207.799 72.6113 208.496 74.4769C207.795 78.4297 208.135 82.4986 207.005 86.4167C205.131 92.9124 202.159 98.7921 197.687 103.883C196.972 104.697 196.271 105.572 195.113 105.816C194.421 105.867 193.729 105.917 193.037 105.968Z" fill="#CA138C"/>
<path d="M109.991 91.8323C108.482 92.5516 106.973 93.2709 105.464 93.9902C99.1587 89.3254 92.9357 84.552 86.7121 79.7801C85.9924 79.2283 84.7173 78.7178 85.7437 77.3782C86.2754 77.0789 86.8636 77.0663 87.4479 77.0269C88.4055 77.0189 89.3634 76.9992 90.3189 77.075C91.5413 77.3686 92.8637 77.2861 93.9719 78.0206C94.2897 79.1601 95.2071 79.7786 96.0833 80.4337C100.119 83.4509 104.155 86.4675 108.173 89.5083C108.976 90.1157 109.918 90.6418 109.991 91.8323Z" fill="#7B2A8A"/>
<path d="M152.705 100.173C151.204 97.8085 148.85 96.2339 147.137 94.0211C143.244 88.9915 141.243 83.2256 141.331 77.0875C141.527 63.4241 150.263 51.702 164.265 49.0438C178.237 46.3912 191.349 55.9216 194.693 68.9111C198.721 84.5518 189.182 100.121 174.127 103.724C173.001 103.993 172.01 104.789 170.762 104.593C169.981 104.612 169.198 104.644 168.512 104.166C172.406 103.204 176.46 102.822 180.067 100.837C188.393 96.2548 193.44 89.3841 194.663 79.884C196.164 68.2203 191.747 59.1027 181.957 52.9573C174.797 48.4626 166.867 48.0212 158.981 51.3468C149.239 55.4554 143.584 63.0495 142.283 73.3377C141.067 82.963 144.107 91.3799 151.795 97.8376C153.114 98.9457 154.88 99.5567 155.758 101.184C154.733 100.871 153.632 100.784 152.705 100.173Z" fill="#D9108C"/>
<path d="M195.113 105.816C202.701 97.8793 207.443 88.7044 207.467 77.4694C207.469 76.3653 207.591 75.281 208.497 74.4775C209.75 75.9013 210.193 77.7379 211.001 79.3887C211.594 81.0185 210.857 82.5429 210.603 84.0977C209.498 90.8559 206.825 96.9532 202.786 102.469C202.225 103.236 201.705 104.03 200.848 104.512C199.012 105.279 197.082 105.633 195.113 105.816Z" fill="#C8148C"/>
<path d="M155.798 207.558C155.696 208.948 156.67 209.867 157.34 210.879C159.764 214.538 162.387 218.07 164.697 221.798C166.968 225.465 170.371 227.824 173.713 230.285C174.612 230.947 175.425 231.648 176.093 232.53C175.21 232.825 174.326 233.119 173.443 233.414C171.068 230.784 168.024 228.972 165.201 226.928C163.259 225.523 162.132 223.592 160.829 221.79C157.831 217.642 155.073 213.321 152.183 209.094C151.668 208.34 151.246 207.613 151.381 206.671C152.853 206.967 154.326 207.263 155.798 207.558Z" fill="#D5128C"/>
<path d="M36.1068 113.834C40.6559 116.629 44.6478 120.177 48.9165 123.35C57.4029 129.658 65.8107 136.073 74.2349 142.464C74.7435 142.85 75.2475 143.015 75.8518 142.989C75.8518 143.872 75.8518 144.755 75.8517 145.638C72.9956 144.697 70.981 142.477 68.659 140.764C59.7383 134.185 50.9283 127.455 42.0792 120.778C39.809 119.065 37.5469 117.342 35.2812 115.623C35.3276 114.921 35.6114 114.329 36.1068 113.834Z" fill="#C8148C"/>
<path d="M223.807 139.915C226.853 143.541 229.137 147.706 231.969 151.485C232.586 152.309 233.115 153.169 234.072 153.641C233.412 155.819 232.312 157.787 231.171 159.736C230.244 159.821 229.946 159.053 229.521 158.49C226.377 154.325 223.782 149.78 220.608 145.635C220.22 145.129 219.721 144.583 220.265 143.868C221.446 142.551 222.626 141.233 223.807 139.915Z" fill="#692C89"/>
<path d="M30.4082 139.902C30.4446 138.855 30.0892 137.548 31.9216 138.939C46.8571 150.279 61.8413 161.554 76.8161 172.842C79.0305 174.511 81.2754 176.139 83.5023 177.792C84.1561 178.277 84.8179 178.73 85.6791 178.726C86.4856 179.689 87.3322 180.624 87.75 181.845C86.43 182.091 85.5078 181.27 84.5906 180.577C72.7565 171.623 60.9425 162.643 49.1155 153.68C43.9311 149.751 38.7368 145.835 33.5274 141.939C32.5349 141.197 31.4503 140.578 30.4082 139.902Z" fill="#E60A8D"/>
<path d="M88.7329 106.798C85.6665 105.345 83.2386 102.976 80.5426 101.004C74.6415 96.6857 68.8678 92.1937 63.0339 87.7837C62.0317 87.0261 61.1081 86.2043 60.4219 85.141C60.6779 83.9067 61.3548 83.3719 62.6216 83.8174C71.8983 90.8843 81.1751 97.9511 90.4518 105.018C89.8788 105.611 89.3058 106.205 88.7329 106.798Z" fill="#95268C"/>
<path d="M85.0861 111.197C82.288 110.347 80.3372 108.198 78.0977 106.527C71.0878 101.297 64.181 95.9292 57.2035 90.6554C56.4781 90.1072 55.7386 89.3779 54.6585 89.5539C54.4546 88.5208 55.2838 88.1249 55.8722 87.5781C56.3308 87.3391 56.7846 87.057 57.3283 87.3436C61.702 90.7545 66.0562 94.191 70.4548 97.5697C75.3277 101.313 80.2377 105.007 85.1432 108.708C85.5485 109.013 86.043 109.201 86.496 109.443C86.29 110.24 85.5339 110.595 85.0861 111.197Z" fill="#9D248D"/>
<path d="M113.853 50.7047C115.939 49.5218 116.241 47.1341 117.335 45.3187C120.853 39.4845 125.188 34.3815 130.179 29.7976C130.805 29.2233 131.867 28.8407 130.654 27.8535C132.437 27.9494 134.222 28.0276 135.937 28.6024C136.565 29.8745 135.434 30.2885 134.765 30.8282C128.878 35.5769 124.021 41.1999 120.172 47.7139C119.329 49.1403 119.003 50.9149 117.476 51.9067C117.158 52.0122 116.832 52.0363 116.5 52.0022C115.751 51.8516 114.993 51.7321 114.266 51.4828C113.964 51.3108 113.721 51.1064 113.853 50.7047Z" fill="#B01E8D"/>
<path d="M220.247 101.873C220.031 103.715 220.624 105.23 221.759 106.72C223.532 109.05 225.099 111.541 226.705 113.995C227.181 114.723 227.54 115.452 228.549 114.747C228.321 118.038 227.749 121.267 226.793 124.426C225.902 124.591 225.414 123.968 225.015 123.382C222.834 120.175 220.483 117.085 218.398 113.812C219.015 109.832 219.631 105.853 220.247 101.873Z" fill="#572D89"/>
<path d="M85.591 77.642C86.3338 79.6768 88.3823 80.3139 89.8766 81.4911C94.7507 85.331 99.7588 89.0011 104.727 92.7211C105.175 93.0566 105.45 93.4319 105.464 93.9902C104.734 94.6306 103.894 95.0729 102.976 95.3767C99.6486 93.787 97.1179 91.0872 94.1433 89.001C90.1404 86.1938 86.2826 83.1785 82.3884 80.2187C81.5735 79.5993 80.3108 79.0928 81.1752 77.6409C82.6474 76.6955 84.1193 76.6946 85.591 77.642Z" fill="#7F2A8B"/>
<path d="M74.9939 78.5236C82.732 84.416 90.47 90.3084 98.2082 96.2007C98.7999 96.6513 99.4303 97.0152 100.193 97.0798C99.4256 97.821 98.5677 98.4304 97.5898 98.8646C94.0185 97.2497 91.2364 94.4918 88.1244 92.2261C82.8699 88.4005 77.7829 84.3443 72.6448 80.3602C72.136 79.9657 71.6223 79.826 71.0199 79.8482C70.9182 79.0284 71.6063 79.0304 72.0884 78.8161C73.0466 78.6245 73.9722 78.0903 74.9939 78.5236Z" fill="#87288B"/>
<path d="M180.407 205.725C179.388 205.731 178.356 205.842 177.404 205.333C174.238 201.266 171.625 196.813 168.581 192.659C167.974 191.831 167.261 191.082 166.738 190.192C168.326 189.569 169.969 189.155 171.653 188.895C173.003 188.416 173.462 189.503 174.017 190.304C176.946 194.536 179.891 198.757 182.686 203.079C183.186 203.852 184.147 204.718 183.543 205.611C183.058 206.328 181.895 205.809 181.038 205.892C180.818 205.913 180.606 205.823 180.407 205.725Z" fill="#BA1B8D"/>
<path d="M128.03 27.7293C125.472 27.1835 123.925 28.681 122.471 30.4334C118.593 35.1046 114.971 39.9396 111.948 45.2345C111.158 46.6194 111.308 48.6397 109.445 49.3781C108.324 50.0039 107.506 49.4306 106.73 48.6945C106.539 46.8223 107.578 45.357 108.398 43.838C111.01 38.9992 114.009 34.4216 117.657 30.2867C118.08 29.8083 118.527 29.3104 118.75 28.665C118.025 27.9845 117.156 28.4501 116.421 28.2162C116.094 28.1482 115.806 28.0151 115.602 27.7393C116.721 26.9102 118.026 27.5284 119.22 27.2744C122.146 27.6259 125.123 26.9969 128.03 27.7293Z" fill="#A6228E"/>
<path d="M195.575 222.989C194.371 221.182 192.98 220.001 190.685 221.334C189.801 221.848 188.91 221.617 188.382 220.767C185.59 216.266 182.214 212.152 179.643 207.507C180.797 207.237 181.942 206.907 183.149 207.004C184.575 206.384 185.314 207.314 185.989 208.302C188.038 211.305 190.176 214.249 192.164 217.296C192.797 218.267 193.431 219.334 194.908 218.94C195.412 218.829 195.917 218.693 196.421 218.934C196.568 218.934 196.716 218.934 196.863 218.934C198.104 218.827 198.97 219.211 199.055 220.613C197.736 221.173 196.971 222.543 195.575 222.989Z" fill="#BA1B8C"/>
<path d="M223.315 197.284C222.312 198.901 221.091 200.343 219.757 201.693C218.967 202.286 218.508 201.654 218.129 201.164C215.256 197.448 212.829 193.424 210.173 189.558C209.965 189.255 209.937 188.869 210.118 188.509C212.029 187.632 213.941 186.755 215.852 185.879C218.285 189.716 221.372 193.126 223.315 197.284Z" fill="#8C288C"/>
<path d="M170.71 208.288C173.532 207.727 175.075 209.277 176.466 211.477C178.649 214.929 181.092 218.216 183.344 221.627C183.936 222.523 184.56 223.132 185.633 222.89C188.307 222.287 189.612 223.881 190.679 225.913C189.875 226.552 189.014 227.083 187.996 227.311C186.449 227.98 185.738 226.519 184.654 226.005C184.487 225.904 184.332 225.787 184.18 225.665C183.68 225.21 183.148 224.814 182.453 224.705C181.858 224.554 181.271 224.383 180.705 224.143C178.927 223.071 178.142 221.164 176.981 219.594C174.804 216.65 172.95 213.477 170.798 210.509C170.345 209.884 169.755 209.204 170.37 208.332C170.472 208.225 170.585 208.211 170.71 208.288Z" fill="#C4168D"/>
<path d="M117.377 51.5933C119.352 48.6065 120.877 45.3631 122.99 42.433C126.372 37.7442 130.396 33.742 134.826 30.102C135.351 29.6709 135.936 29.381 135.937 28.6031C137.64 28.5751 139.276 28.9273 140.876 29.4807C138.093 30.8126 135.779 32.7993 133.498 34.8204C127.854 39.8205 123.56 45.8563 120.032 52.4733C119.777 52.7315 119.463 52.8357 119.107 52.8331C118.395 52.6104 117.443 52.7181 117.377 51.5933Z" fill="#B51D8D"/>
<path d="M146.967 221.584C148.598 221.127 147.412 220.283 147.096 219.816C143.205 214.06 139.242 208.353 135.343 202.603C134.83 201.846 134.027 201.166 134.159 200.082C135.928 200.937 137.697 201.792 139.466 202.648C143.108 208.795 147.425 214.491 151.355 220.445C151.516 220.689 151.726 220.911 151.832 221.176C152.08 221.799 153.101 222.277 152.442 223.062C151.897 223.71 151.186 223.058 150.631 222.852C149.419 222.401 148.008 222.513 146.967 221.584Z" fill="#E30C8C"/>
<path d="M196.421 218.934C195.979 219.081 195.538 219.228 195.096 219.376C193.761 218.699 193.232 217.338 192.506 216.187C190.397 212.844 188.055 209.671 185.692 206.511C184.05 205.444 182.081 206.575 180.407 205.724C181.348 205.724 182.289 205.724 183.355 205.724C183.117 204.294 182.25 203.465 181.613 202.521C178.836 198.406 176.033 194.307 173.261 190.187C172.848 189.572 172.545 188.885 171.652 188.894C172.849 188.488 174.046 188.082 175.243 187.676C180.906 196.037 186.568 204.398 192.232 212.758C193.627 214.818 195.024 216.875 196.421 218.934Z" fill="#B51D8D"/>
<path d="M166.738 190.191C168.422 190.429 168.685 192.044 169.459 193.107C171.949 196.528 174.331 200.028 176.738 203.509C177.11 204.047 177.446 204.629 177.404 205.333C174.955 205.113 172.594 204.558 170.365 203.495C167.629 200.07 165.278 196.378 162.897 192.708C162.58 192.221 162.308 191.694 162.348 191.076C163.765 190.55 165.236 190.291 166.738 190.191Z" fill="#BE198D"/>
<path d="M200.848 104.512C202.733 101.049 205.271 98.0053 206.911 94.3562C209.071 89.5503 209.878 84.4415 211 79.3887C212.287 81.8807 213.168 84.4858 213.212 87.3241C213.159 90.2376 211.693 92.7163 210.662 95.3101C209.885 97.2636 208.895 99.1436 207.889 101.002C205.834 102.759 203.453 103.859 200.848 104.512Z" fill="#C3178D"/>
<path d="M220.264 143.868C223.11 148.111 225.943 152.362 228.809 156.591C229.544 157.675 230.381 158.689 231.17 159.736C230.611 161.005 229.965 162.223 229.062 163.289C227.261 162.026 226.454 159.977 225.258 158.267C222.467 154.276 219.576 150.341 217.172 146.088C218.617 145.926 219.117 144.446 220.264 143.868Z" fill="#6E2B8A"/>
<path d="M213.503 162.775C214.639 162.458 215.204 161.51 215.851 160.651C218.028 163.829 220.214 167 222.371 170.192C222.662 170.622 222.892 171.069 223.404 171.271C222.332 172.95 221.009 174.41 219.524 175.73C218.723 176.041 218.252 175.496 217.898 174.974C215.98 172.145 213.919 169.415 212.095 166.524C211.818 166.085 211.658 165.6 211.88 165.074C212.348 164.256 213.37 163.829 213.503 162.775Z" fill="#7C2A8B"/>
<path d="M200.817 174.294C202.305 173.175 203.793 172.056 205.281 170.937C205.567 171 205.883 171.056 206.059 171.294C208.429 174.502 210.685 177.791 212.832 181.154C212.995 181.41 212.973 181.706 212.818 181.979C211.495 183.38 209.936 184.461 208.234 185.346C207.818 185.424 207.529 185.198 207.314 184.901C205.14 181.901 202.992 178.882 201.028 175.738C200.754 175.3 200.575 174.82 200.817 174.294Z" fill="#8C288C"/>
<path d="M191.567 161.099C193.031 159.602 194.494 158.105 195.958 156.608C197.529 157.786 198.35 159.548 199.409 161.113C200.926 163.356 202.463 165.583 204.056 167.772C201.979 168.9 199.768 169.629 197.434 169.99C197.365 170.013 197.259 170.077 197.232 170.053C194.592 167.661 192.676 164.771 191.368 161.469C191.328 161.366 191.471 161.212 191.567 161.099Z" fill="#8C288C"/>
<path d="M214.916 125.31C215.657 123.087 216.398 120.863 217.139 118.64C218.464 118.693 218.924 119.791 219.549 120.666C221.508 123.408 223.096 126.417 225.47 128.859C224.801 131.153 223.937 133.368 222.814 135.479C222.09 135.984 221.698 135.403 221.396 134.95C219.249 131.728 216.9 128.642 214.916 125.31Z" fill="#612C89"/>
<path d="M139.46 218.493C141.644 219.913 144.237 220.399 146.525 221.584C146.611 222.678 147.454 223.182 148.213 223.754C153.172 227.488 158.128 231.226 163.093 234.952C163.474 235.238 163.703 235.572 163.745 236.039C162.577 236.282 161.446 236.761 160.213 236.591C158.036 233.794 154.947 232.088 152.212 229.969C147.368 226.216 142.451 222.556 137.553 218.873C137.108 218.537 136.822 218.17 136.811 217.609C137.694 217.904 138.577 218.198 139.46 218.493Z" fill="#E30C8C"/>
<path d="M201.261 191.223C202.438 190.926 203.615 190.63 204.792 190.333C207.392 195.332 211.066 199.628 214.006 204.403C214.54 205.269 215.503 205.213 216.216 205.671C215.834 206.436 215.256 207.016 214.53 207.456C212.207 209.172 211.884 209.181 210.195 206.833C207.123 202.56 204.199 198.183 201.277 193.806C200.771 193.047 199.838 192.085 201.261 191.223Z" fill="#99258C"/>
<path d="M109.991 91.833C106.247 88.3366 101.899 85.6196 97.8852 82.4704C96.6786 81.5237 95.4249 80.6372 94.1955 79.7195C93.7543 79.3901 93.3459 79.0456 93.9846 78.5218C94.239 78.261 94.547 78.1026 94.9042 78.0368C96.0877 77.9 97.1874 78.3155 98.3147 78.5536C99.5812 78.9729 100.981 79.0578 102.042 80.0047C104.327 82.5019 107.218 84.2542 109.852 86.3215C110.828 87.0876 111.824 87.8309 112.752 88.6529C113.274 89.1144 114.006 89.5543 113.41 90.4489C112.34 91.0827 111.2 91.542 109.991 91.833Z" fill="#762A8A"/>
<path d="M201.262 191.223C200.667 191.961 201.066 192.614 201.482 193.221C204.453 197.562 207.52 201.841 210.383 206.252C211.535 208.028 212.654 208.741 214.531 207.456C214.08 208.182 213.49 208.77 212.765 209.222C212.544 209.229 212.25 209.146 212.114 209.257C209.675 211.235 208.603 209.415 207.426 207.649C204.417 203.135 201.368 198.648 198.317 194.162C197.859 193.489 197.378 192.845 197.305 192C197.484 191.594 197.724 191.31 198.222 191.545C199.235 191.437 200.249 191.33 201.262 191.223Z" fill="#9D248D"/>
<path d="M180.968 223.792C181.557 223.939 182.145 224.086 182.734 224.233C183.346 224.645 183.873 225.168 184.5 225.558C185.253 225.999 185.797 226.695 186.515 227.189C187.069 227.57 186.698 227.899 186.277 228.13C185.857 228.332 185.541 228.781 184.99 228.67C183.679 227.735 182.37 226.797 181.057 225.866C180.702 225.615 180.337 225.181 179.969 225.172C175.524 225.068 174.045 221.433 171.99 218.512C170.135 215.875 168.37 213.175 166.54 210.519C166.078 209.848 165.597 209.205 165.514 208.362C166.691 208.362 167.869 208.362 169.046 208.361C171.603 211.296 173.538 214.669 175.715 217.871C176.825 219.503 178.103 221.019 179.077 222.746C179.485 223.47 179.968 224.112 180.968 223.792Z" fill="#C8148C"/>
<path d="M233.505 125.307C235.19 121.834 236.875 118.36 238.796 114.399C240.167 120.976 240.433 127.096 239.602 133.273C238.964 133.75 238.459 133.356 238.082 132.929C236.293 130.898 234.867 128.603 233.416 126.331C233.224 126.03 233.247 125.629 233.505 125.307Z" fill="#532D87"/>
<path d="M204.055 167.772C203.738 167.615 203.311 167.541 203.122 167.289C200.554 163.851 198.087 160.342 195.957 156.609C196.977 155.416 197.997 154.222 199.017 153.029C201.017 154.513 201.928 156.835 203.348 158.758C205.033 161.041 206.847 163.273 207.92 165.957C206.739 166.791 205.476 167.449 204.055 167.772Z" fill="#86298B"/>
<path d="M233.505 125.307C235.299 128.145 236.707 131.278 239.603 133.273C239.41 135.959 238.932 138.596 238.259 141.201C237.468 141.357 237.017 140.823 236.611 140.316C234.354 137.499 232.494 134.405 230.469 131.426C230.309 131.19 230.24 130.887 230.408 130.597C231.44 128.834 232.473 127.07 233.505 125.307Z" fill="#572D89"/>
<path d="M207.921 165.957C204.71 161.815 201.724 157.519 199.018 153.03C199.91 151.868 200.802 150.706 201.695 149.544C201.765 150.906 202.824 151.71 203.505 152.721C205.7 155.982 207.931 159.22 210.131 162.478C210.508 163.035 210.918 163.527 211.549 163.797C210.499 164.785 209.254 165.445 207.921 165.957Z" fill="#81298B"/>
<path d="M212.818 181.979C210.306 178.298 207.793 174.617 205.281 170.936C206.588 169.836 207.895 168.737 209.202 167.637C211.768 171.264 214.515 174.775 216.436 178.82C215.35 180.011 214.21 181.139 212.818 181.979Z" fill="#86298B"/>
<path d="M223.314 197.284C220.644 193.602 217.538 190.204 215.852 185.878C217.177 185.159 218.502 184.439 219.827 183.72C222.177 186.784 224.596 189.801 226.305 193.299C225.459 194.741 224.487 196.088 223.314 197.284Z" fill="#87298B"/>
<path d="M230.409 130.598C232.478 133.561 234.53 136.537 236.63 139.478C237.085 140.115 237.712 140.63 238.259 141.201C237.814 142.827 237.368 144.453 236.922 146.079C236.545 145.88 236.037 145.776 235.808 145.467C233.088 141.785 230.473 138.029 228.176 134.063C228.92 132.908 229.665 131.753 230.409 130.598Z" fill="#5D2D89"/>
<path d="M113.409 90.449C112.454 88.3534 110.321 87.5246 108.708 86.1515C106.782 84.5119 104.697 83.0576 102.662 81.5481C102.217 81.2179 101.939 80.8475 101.928 80.2918C102.584 79.9585 103.202 80.2555 103.831 80.4009C105.63 81.1192 107.535 81.4977 109.366 82.1144C110.592 82.7249 111.917 83.1125 113.137 83.738C113.973 84.1522 114.881 84.3972 115.715 84.8157C117 85.66 118.666 85.9142 119.592 87.3144C120.032 87.5955 120.472 87.8765 120.912 88.1575C118.411 88.9213 115.91 89.6851 113.409 90.449Z" fill="#732B89"/>
<path d="M216.217 205.672C215.156 206.121 214.374 205.99 213.666 204.911C210.873 200.658 208 196.458 205.142 192.248C204.733 191.645 204.158 191.111 204.793 190.334C205.682 190.047 206.572 189.76 207.461 189.473C210.002 192.844 212.33 196.364 214.668 199.875C215.597 201.269 216.53 202.657 217.632 203.923C217.43 204.724 216.894 205.255 216.217 205.672Z" fill="#95268D"/>
<path d="M211.89 132.423C212.613 130.778 213.336 129.132 214.059 127.486C215.578 128.387 216.277 129.973 217.227 131.337C218.693 133.442 220.081 135.599 221.567 137.69C221.231 139.379 220.208 140.714 219.292 142.104C218.628 142.597 218.161 142.152 217.819 141.695C215.726 138.897 213.682 136.064 211.899 133.054C211.787 132.865 211.81 132.635 211.89 132.423Z" fill="#692C89"/>
<path d="M225.47 128.859C223.917 128.852 223.59 127.444 222.87 126.527C220.861 123.971 219.552 120.905 217.139 118.639C217.558 117.03 217.978 115.421 218.398 113.812C221.007 115.774 222.189 118.845 224.184 121.287C225.045 122.341 225.571 123.668 226.792 124.426C226.351 125.903 225.911 127.381 225.47 128.859Z" fill="#5D2D89"/>
<path d="M162.348 191.076C164.82 194.673 167.304 198.262 169.748 201.879C170.063 202.344 170.164 202.953 170.365 203.495C167.64 202.82 165.147 201.63 162.812 200.091C161.556 198.073 160.188 196.129 158.916 194.123C158.438 193.367 157.679 192.608 158.447 191.597C159.725 191.257 161.019 191.036 162.348 191.076Z" fill="#C4178D"/>
<path d="M217.632 203.923C216.979 203.927 216.505 203.579 216.164 203.079C213.318 198.905 210.48 194.727 207.667 190.532C207.482 190.256 207.524 189.829 207.461 189.472C208.346 189.151 209.232 188.83 210.117 188.509C212.964 192.706 215.812 196.903 218.655 201.103C218.924 201.5 219.292 201.68 219.757 201.693C219.299 202.675 218.475 203.308 217.632 203.923Z" fill="#92278D"/>
<path d="M216.435 178.821C213.732 175.688 211.88 171.958 209.353 168.699C209.162 168.454 209.245 167.996 209.201 167.638C210.094 166.783 210.987 165.929 211.88 165.074C214.222 168.774 216.458 172.55 219.524 175.73C218.626 176.892 217.591 177.917 216.435 178.821Z" fill="#81298B"/>
<path d="M223.282 181.672C225.061 180.518 226.841 179.363 228.62 178.209C230.256 179.443 230.641 181.781 232.607 182.725C231.674 185.092 230.331 187.233 228.935 189.344C228.25 189.824 227.802 189.328 227.475 188.882C225.971 186.822 224.523 184.723 223.257 182.505C223.104 182.236 223.136 181.946 223.282 181.672Z" fill="#7C2A8B"/>
<path d="M211.891 132.423C213.847 135.195 215.807 137.964 217.758 140.739C218.165 141.318 218.385 142.093 219.292 142.103C218.725 143.394 217.919 144.534 217.052 145.635C216.911 145.604 216.703 145.623 216.639 145.536C214.348 142.426 211.808 139.484 210.121 135.964C210.711 134.783 211.301 133.603 211.891 132.423Z" fill="#6E2C8A"/>
<path d="M206.248 186.758C205.241 187.827 203.845 188.253 202.616 188.957C199.762 185.935 197.8 182.275 195.435 178.903C195.213 178.588 195.264 178.213 195.551 177.911C196.556 177.247 197.561 176.582 198.567 175.918C200.787 178.26 202.209 181.176 204.16 183.717C204.902 184.683 205.849 185.544 206.248 186.758Z" fill="#95268D"/>
<path d="M195.551 177.911C197.366 180.673 199.169 183.443 201.004 186.191C201.6 187.082 202.432 187.828 202.617 188.957C201.877 189.601 201.049 190.078 200.083 190.296C199.305 190.536 198.844 190.032 198.443 189.527C196.228 186.742 194.389 183.695 192.39 180.76C192.174 180.443 192.172 180.078 192.451 179.761C193.484 179.144 194.518 178.528 195.551 177.911Z" fill="#99258D"/>
<path d="M223.284 181.673C224.745 183.87 226.222 186.058 227.657 188.273C227.987 188.782 228.248 189.296 228.936 189.345C228.059 190.663 227.182 191.981 226.306 193.3C223.95 190.239 221.428 187.291 219.828 183.72C220.98 183.038 222.132 182.355 223.284 181.673Z" fill="#82298B"/>
<path d="M193.394 170.842C190.768 171.549 188.089 171.713 185.386 171.619C184.612 170.539 183.496 169.634 183.594 168.109C185.363 166.639 187.132 165.169 188.902 163.699C190.952 165.732 192.641 167.993 193.394 170.842Z" fill="#97268D"/>
<path d="M192.451 179.761C194.914 183.331 196.829 187.299 200.083 190.296C199.653 190.997 198.597 190.763 198.221 191.545C197.915 191.697 197.61 191.848 197.304 192C194.161 188.874 192.082 184.997 189.752 181.298C190.652 180.786 191.551 180.273 192.451 179.761Z" fill="#9D248D"/>
<path d="M232.608 182.725C232.16 182.894 231.697 183.342 231.291 182.661C230.405 181.175 229.099 179.941 228.621 178.21C231.329 176.157 234.036 174.104 236.744 172.052C235.859 175.924 234.547 179.454 232.608 182.725Z" fill="#762C8A"/>
<path d="M206.249 186.759C202.976 183.65 200.657 179.867 198.568 175.919C199.318 175.377 200.067 174.835 200.817 174.294C202.989 178.18 205.75 181.67 208.234 185.346C207.769 186.093 207.022 186.444 206.249 186.759Z" fill="#91278D"/>
<path d="M193.395 170.842C191.897 168.461 190.4 166.08 188.902 163.699C189.791 162.832 190.679 161.965 191.568 161.099C193.1 164.342 195.281 167.157 197.434 169.99C196.15 170.567 194.808 170.873 193.395 170.842Z" fill="#92288D"/>
<path d="M158.448 191.597C158.826 193.841 160.579 195.305 161.612 197.178C162.121 198.101 163.094 198.84 162.812 200.091C158.876 198.167 155.604 195.367 152.035 192.022C154.487 191.859 156.468 191.728 158.448 191.597Z" fill="#C9168D"/>
<path d="M221.567 137.69C221.108 137.663 220.713 137.513 220.447 137.112C218.318 133.903 216.188 130.694 214.059 127.486C214.124 126.673 214.442 125.961 214.916 125.31C217.61 127.614 219.011 130.881 221.108 133.63C221.618 134.298 221.831 135.245 222.814 135.478C222.636 136.35 222.096 137.017 221.567 137.69Z" fill="#662D89"/>
<path d="M185.692 206.512C186.213 206.579 186.678 206.729 187 207.201C189.752 211.224 192.678 215.132 195.096 219.376C193.551 220.369 192.8 219.214 192.091 218.192C189.84 214.947 187.613 211.685 185.431 208.394C184.858 207.53 184.252 206.907 183.148 207.004C183.932 206.508 184.821 206.555 185.692 206.512Z" fill="#B61D8D"/>
<path d="M207.889 101.002C207.932 98.1678 210.05 96.148 210.806 93.5749C211.434 91.4401 212.397 89.4041 213.212 87.3242C214.007 92.8833 212.503 97.5478 207.889 101.002Z" fill="#C01B8E"/>
<path d="M180.967 223.791C179.919 224.438 179.475 224.412 178.851 223.497C175.738 218.937 172.642 214.366 169.567 209.781C169.294 209.374 169.214 208.837 169.045 208.361C169.486 208.351 169.928 208.342 170.37 208.332C170.437 209.62 171.434 210.375 172.085 211.329C174.559 214.955 177.042 218.575 179.49 222.218C179.904 222.836 180.265 223.463 180.967 223.791Z" fill="#C8168C"/>
<path d="M183.593 168.108C184.147 169.301 185.432 170.12 185.385 171.619C183.503 171.747 181.641 171.631 179.625 171.138C180.819 169.831 182.281 169.062 183.593 168.108Z" fill="#9F288F"/>
<path d="M199.056 220.614C198.575 219.728 197.716 219.336 196.863 218.934C199.439 217.149 199.842 217.16 201.328 219.048C200.571 219.57 199.814 220.092 199.056 220.614Z" fill="#B61D8D"/>
<path d="M186.277 228.13C186.539 226.682 184.68 226.7 184.5 225.558C185.885 225.705 186.515 227.356 187.996 227.311C187.508 227.763 186.967 228.103 186.277 228.13Z" fill="#C8168C"/>
<path d="M30.4629 161.516C30.5947 161.218 30.7265 160.919 30.8584 160.621C31.5074 161.465 31.2361 162.453 31.2886 163.391C31.0135 162.766 30.7382 162.141 30.4629 161.516Z" fill="#63388F"/>
<path d="M98.0469 172.591C98.6914 173.41 98.2958 174.359 98.3787 175.248C97.9069 174.407 98.0156 173.494 98.0469 172.591Z" fill="#EB108E"/>
<path d="M76.1961 151.35C75.5983 150.504 75.9703 149.552 75.9034 148.648C76.2658 149.52 76.2438 150.434 76.1961 151.35Z" fill="#D2128C"/>
<path d="M72.3426 79.4052C71.8573 79.421 71.3362 79.3296 71.019 79.848C69.6942 80.2891 68.3693 80.7303 67.0445 81.1715C66.0596 80.1097 65.9671 78.7784 66.0482 77.4584C66.5471 69.3361 67.1644 61.233 69.0707 53.2777C69.9949 49.4211 71.3594 45.7 72.3174 41.8592C74.5227 40.2719 76.8223 38.8513 79.3713 37.8721C80.8924 38.3694 80.2333 39.4753 79.9551 40.3306C79.0702 43.051 77.9936 45.7019 77.1633 48.4488C74.7081 56.5719 73.2225 64.8345 72.8956 73.3286C72.8182 75.342 72.8669 77.4127 72.3426 79.4052Z" fill="#7B2A8A"/>
<path d="M72.3169 41.8594C73.0679 42.4666 72.7168 43.1516 72.4821 43.8517C69.8562 51.6821 68.0608 59.678 67.4416 67.9384C67.1109 72.349 66.4668 76.7383 67.044 81.1717C66.897 81.3195 66.75 81.4673 66.603 81.6151C65.4272 82.0599 64.2514 82.5046 63.0755 82.9493C61.9192 82.1597 62.0225 80.9245 61.9914 79.7653C61.8014 72.6885 62.5135 65.6841 63.7548 58.7273C64.5292 54.3872 65.5587 50.1007 66.5385 45.804C68.2424 44.1637 70.2786 43.0099 72.3169 41.8594Z" fill="#762A8A"/>
<path d="M72.3431 79.4057C71.2273 75.9869 72.303 72.5434 72.4918 69.1642C72.8125 63.4247 73.9011 57.7273 75.4189 52.1458C76.5349 48.0425 77.8406 44.0031 79.4357 40.0601C79.7392 39.3097 80.21 38.5793 79.3719 37.8727C81.447 36.5331 83.6396 35.4449 86.025 34.7705C86.8071 35.7176 86.1657 36.5691 85.8167 37.4149C84.202 41.3277 82.4272 45.1812 81.4911 49.3399C81.2071 49.9496 80.7482 50.4295 80.2636 50.872C77.9969 52.9422 76.8375 55.3968 77.5082 58.5239C77.6172 59.0322 77.6212 59.5479 77.2081 59.9614C75.6896 62.5217 75.7337 65.472 75.5393 68.2447C75.2999 71.6583 74.6789 75.075 74.9935 78.5238C74.11 78.8177 73.2265 79.1117 72.3431 79.4057Z" fill="#81298B"/>
<path d="M47.1814 97.0709C46.878 97.3504 46.5746 97.6298 46.2711 97.9093C45.1228 97.4584 44.9039 96.4237 44.7938 95.3962C44.0353 88.3189 43.0727 81.2514 43.7936 74.101C43.9848 72.204 43.7277 70.2764 44.119 68.3872C45.6347 65.9871 47.3607 63.7518 49.3437 61.7178C51.1013 62.4017 50.4474 63.9045 50.3581 65.081C50.0146 69.6098 49.5798 74.1255 49.5966 78.6802C49.612 82.866 49.9657 87.0195 50.376 91.174C50.4417 91.8394 50.4897 92.4859 50.2918 93.1315C50.1431 93.4155 49.9944 93.6994 49.8459 93.9834C48.9579 95.0126 48.0696 96.0417 47.1814 97.0709Z" fill="#612C88"/>
<path d="M56.0217 87.8235C55.5679 88.4002 55.1141 88.977 54.66 89.5537C53.9388 90.0086 53.2178 90.4636 52.4968 90.9186C51.6908 90.5932 51.5084 89.8786 51.4319 89.1337C50.7854 82.8412 50.6992 76.5423 51.1563 70.2305C51.4481 66.2028 51.9082 62.1963 52.4473 58.1968C53.9586 56.4639 55.5345 54.7965 57.3418 53.3633C58.8923 53.9982 58.3072 55.2843 58.1627 56.3407C57.6066 60.4072 56.9752 64.4575 56.5781 68.5511C56.0307 74.1964 56.353 79.8341 56.2906 85.4748C56.2818 86.2693 56.5401 87.0892 56.0217 87.8235Z" fill="#692C89"/>
<path d="M66.5395 45.8047C67.2043 46.2778 67.1503 46.9829 66.9611 47.598C65.0722 53.7374 63.976 60.054 63.2859 66.4016C62.6902 71.8799 61.9483 77.4214 63.0765 82.9498C62.9248 83.2392 62.773 83.5286 62.6212 83.8179C61.6872 83.9257 61.075 84.5681 60.4213 85.1415C60.1262 85.2834 59.8312 85.4254 59.5361 85.5674C58.6965 84.9142 58.5302 83.9583 58.499 83.0057C58.1254 71.5894 59.2523 60.3318 62.1294 49.264C63.4465 47.9159 64.8383 46.663 66.5395 45.8047Z" fill="#722B89"/>
<path d="M62.1288 49.2637C62.7006 51.9332 61.3854 54.3431 61.061 56.8908C60.5198 61.1404 59.7991 65.3579 59.4677 69.6448C59.2196 72.854 59.1097 76.0495 59.0982 79.2582C59.0905 81.3716 58.9789 83.493 59.5356 85.5674C58.8225 86.1874 57.82 86.4481 57.3285 87.3435C56.8924 87.5033 56.4563 87.6631 56.0204 87.8232C55.6348 86.6286 55.5723 85.4046 55.5475 84.1518C55.3568 74.5037 55.7074 64.9016 57.7064 55.4173C57.8495 54.7384 58.0097 53.9482 57.3407 53.3633C58.8299 51.872 60.2952 50.3528 62.1288 49.2637Z" fill="#6E2B89"/>
<path d="M44.1191 68.3867C44.9714 70.4988 44.75 72.7559 44.3945 74.83C43.5898 79.5251 44.8467 84.1164 44.6792 88.7678C44.6072 90.7677 45.2471 92.7836 45.3654 94.8038C45.4325 95.9501 45.7446 96.9399 46.2714 97.9092C45.8477 98.5127 45.4243 99.1166 45.0012 99.7205C44.56 100.309 44.1185 100.898 43.6773 101.487C43.5085 101.604 43.3395 101.721 43.1704 101.838C41.7413 100.965 41.9361 99.428 41.7194 98.1073C40.4651 90.4622 40.1979 82.7509 40.2871 75.0199C40.2905 74.7243 40.2741 74.4322 40.2207 74.142C41.3593 72.1146 42.6095 70.1628 44.1191 68.3867Z" fill="#5C2D88"/>
<path d="M40.22 74.1416C41.2782 74.7548 41.0028 75.7941 40.9809 76.7046C40.7872 84.7304 41.4096 92.6932 42.7717 100.601C42.8446 101.024 43.0347 101.426 43.17 101.838C42.2251 102.516 42.1948 103.759 41.4772 104.577C41.1856 104.881 40.8937 105.185 40.6018 105.489C39.2845 105.417 39.226 104.335 39.061 103.445C37.8948 97.1528 37.1139 90.8118 36.8164 84.4173C36.7582 83.1665 36.6053 81.9289 36.4902 80.6858C37.5141 78.3793 38.706 76.1687 40.22 74.1416Z" fill="#582D88"/>
<path d="M36.4914 80.6865C37.2107 81.2042 37.4534 81.9459 37.4567 82.7877C37.484 89.7969 38.6608 96.6831 39.6668 103.588C39.7763 104.339 39.9696 105.013 40.6026 105.489C39.9739 106.649 39.3449 107.808 38.7154 108.967C38.4367 109.249 38.1586 109.531 37.8803 109.813C36.1016 105.967 35.9574 101.763 35.2796 97.685C34.7907 94.7429 34.3614 91.7796 34.356 88.7782C34.3546 88.0185 34.0646 87.3495 33.4258 86.8763C34.3104 84.745 35.2043 82.6184 36.4914 80.6865Z" fill="#552D88"/>
<path d="M52.4465 58.1963C53.7083 60.4849 52.4752 62.7654 52.281 65.0012C51.6677 72.0607 51.1254 79.102 51.988 86.1713C52.1808 87.7516 51.6316 89.4111 52.4957 90.9178C52.4892 91.0563 52.4879 91.1946 52.4924 91.333C51.7589 91.932 51.0251 92.531 50.2917 93.1303C48.8304 90.4965 49.4011 87.531 49.1301 84.7468C48.6996 80.3235 48.8965 75.8424 49.1204 71.3742C49.281 68.1681 50.4809 64.9562 49.3439 61.717C50.3451 60.5143 51.1597 59.1472 52.4465 58.1963Z" fill="#652C88"/>
<path d="M81.1699 49.3246C81.2203 46.0207 82.9869 43.2471 83.9812 40.235C84.5911 38.3874 85.8558 36.7841 86.0245 34.7706C87.8001 33.6969 89.7395 33.0518 91.746 32.582C92.7068 33.4632 92.7797 33.4984 92.1599 34.7796C91.1095 36.9506 90.1519 39.1626 89.1289 41.345C88.383 42.9362 87.7185 44.5542 87.3078 46.2685C85.4942 47.7503 83.6872 49.2514 81.1699 49.3246Z" fill="#87288B"/>
<path d="M107.226 28.6485C108.478 27.9441 109.851 28.2541 111.177 28.1757C112.496 28.4569 112.619 28.6445 111.87 29.8689C110.615 31.9215 108.993 33.7192 107.756 35.7977C105.854 38.9929 103.777 42.085 102.426 45.5798C102.217 46.1205 101.935 46.6439 101.403 46.9664C99.7378 47.1767 98.1893 46.9878 96.9785 45.6594C99.3549 41.9038 100.994 37.7373 103.463 34.0272C104.676 32.2036 105.8 30.3217 107.226 28.6485Z" fill="#99258C"/>
<path d="M86.9219 46.3123C87.1237 43.0129 89.2194 40.4228 90.2658 37.4377C90.6471 36.35 91.2858 35.3532 91.796 34.3095C92.0787 33.7311 92.5054 33.1367 91.7472 32.5823C93.5581 31.6677 95.44 30.984 97.4821 30.8223C98.9212 31.1044 99.0343 31.3571 98.2606 32.9047C96.8338 35.7587 95.0705 38.4352 93.9002 41.4303C93.4788 42.5088 93.118 43.6075 92.6937 44.6849C90.9061 45.709 89.1137 46.7201 86.9219 46.3123Z" fill="#8D288C"/>
<path d="M101.48 46.7663C103.43 40.8913 106.93 35.8954 110.463 30.9182C110.925 30.2674 111.457 29.6554 111.836 28.9602C112.173 28.3436 111.604 28.2697 111.176 28.1763C112.585 27.3555 114.128 27.9006 115.601 27.7397C115.899 27.7465 116.196 27.7535 116.494 27.7604C117.092 28.594 116.437 29.1426 115.994 29.6685C111.732 34.7307 108.212 40.2623 105.399 46.249C105.089 46.908 104.747 47.5684 104.024 47.8998C102.944 48.0437 101.904 48.0935 101.48 46.7663Z" fill="#9D248D"/>
<path d="M107.225 28.6484C106.669 31.1447 104.741 32.8576 103.521 34.9726C101.767 38.0144 100.062 41.0728 98.5832 44.2513C98.2332 45.0035 97.933 45.5272 97.0373 45.423C95.8173 46.0812 94.795 45.7425 93.8926 44.801C96.4436 40.7123 98.1836 36.1735 100.885 32.1643C101.498 31.2549 101.977 30.2534 102.808 29.5031C104.204 28.8224 105.771 29.0275 107.225 28.6484Z" fill="#95268C"/>
<path d="M102.808 29.5029C102.233 31.7541 100.672 33.4802 99.5616 35.4374C98.184 37.8659 96.9089 40.3348 95.7942 42.8851C95.4096 43.7649 94.9845 44.4303 93.9683 44.5292C93.5115 44.8899 93.0712 44.904 92.6524 44.4665C92.0036 43.6484 92.5999 42.9855 92.8966 42.2603C94.3042 38.8198 96.1112 35.585 97.9701 32.3785C98.4147 31.6116 98.6417 31.0304 97.4811 30.8222C99.1549 29.9711 101.004 29.8288 102.808 29.5029Z" fill="#90278C"/>
<path d="M119.592 87.3139C118.259 86.6091 116.925 85.9043 115.592 85.1995C114.097 81.2372 114.484 77.132 114.707 73.0477C114.763 72.0153 114.973 71.0029 114.329 70.0777C114.149 69.7465 114.135 69.4258 114.402 69.131C116.102 68.7477 117.316 67.7931 117.903 66.1118C118.419 65.3561 118.577 64.3188 119.591 63.9531C120.345 64.6886 120.124 65.642 119.955 66.4473C118.623 72.7972 118.231 79.1519 119.555 85.555C119.672 86.1197 119.585 86.7266 119.592 87.3139Z" fill="#BA1B8C"/>
<path d="M119.591 63.9536C119.145 64.6867 118.974 65.5853 118.266 66.161C117.45 65.2827 117.596 64.213 117.885 63.2501C118.92 59.8127 119.771 56.3215 120.915 52.917C121.945 53.211 122.976 53.5051 124.006 53.7991C123.27 57.5037 121.121 60.594 119.591 63.9536Z" fill="#C7178C"/>
<path d="M168.827 51.1479C182.247 50.9545 193.401 62.382 193.32 76.3275C193.24 90.0677 181.958 102.367 167.55 101.903C153.79 101.461 143.674 90.7837 143.686 76.9584C143.697 62.6199 154.456 51.3188 168.827 51.1479Z" fill="#DF0E8C"/>
<path d="M106.788 48.4875C107.673 48.7845 108.559 49.0815 109.445 49.3785C109.629 49.7346 109.966 49.7952 110.317 49.8261C110.903 50.6086 110.474 51.3834 110.265 52.1367C108.831 57.302 107.243 62.423 105.802 67.5865C105.486 68.7168 105.124 69.8596 103.957 70.4675C102.447 70.8793 100.941 70.9697 99.4456 70.4034C98.654 69.7282 99.0243 68.92 99.2424 68.1704C100.943 62.3259 102.654 56.4844 104.353 50.6396C104.613 49.7472 104.778 48.7486 105.754 48.2529C106.138 48.157 106.487 48.216 106.788 48.4875Z" fill="#EB0C8D"/>
<path d="M104.146 70.0967C106.15 65.6124 106.922 60.7423 108.517 56.1276C109.23 54.0662 109.724 51.929 110.317 49.8262C111.286 49.8574 112.194 50.0792 112.975 50.6901C113.291 51.0621 113.318 51.5019 113.195 51.935C111.506 57.849 109.937 63.7988 107.941 69.6228C107.546 70.1086 106.974 70.2746 106.417 70.4699C105.726 70.6432 105.04 70.7138 104.378 70.3564C104.3 70.2706 104.223 70.1836 104.146 70.0967Z" fill="#E40D8D"/>
<path d="M107.67 69.6965C109.024 63.2452 111.306 57.0529 112.976 50.6895C113.269 50.6944 113.562 50.6994 113.855 50.7045C114.001 50.8509 114.147 50.9973 114.293 51.1437C114.794 51.7193 114.69 52.3704 114.497 53.0131C112.983 58.0577 111.628 63.1494 110.046 68.1739C109.848 68.8013 109.599 69.4176 109.054 69.8511C108.561 70.0862 108.093 70.0882 107.67 69.6965Z" fill="#DF108D"/>
<path d="M120.915 52.9164C121.613 54.6738 120.347 56.099 120.087 57.6952C119.622 60.5442 117.93 63.1332 118.266 66.1604C117.754 67.951 117.106 69.5868 114.733 69.2514C114.21 68.6836 114.311 68.0131 114.491 67.3744C115.827 62.6314 117.06 57.8576 118.646 53.1877C118.742 52.9049 118.93 52.6763 119.148 52.4739C119.443 52.4735 119.737 52.4731 120.032 52.4727C120.222 52.8274 120.552 52.9052 120.915 52.9164Z" fill="#CB178C"/>
<path d="M92.6529 44.4668C93.0916 44.4877 93.5303 44.5086 93.9689 44.5295C94.9118 45.1037 95.9565 45.3281 97.0386 45.4231C98.3919 46.2915 99.9546 46.468 101.481 46.7656C102.265 47.3582 103.171 47.5763 104.131 47.6268C104.279 47.8247 104.343 48.0469 104.329 48.293C102.597 55.34 100.345 62.2403 98.3613 69.2169C98.2021 69.7766 98.0032 70.3382 97.5488 70.755C96.7651 71.2273 95.8945 71.1816 95.0315 71.184C94.7857 71.1914 94.5396 71.1889 94.2938 71.1855C92.9537 71.2057 91.5998 71.0316 90.2908 71.4825C88.3028 71.7575 86.3143 71.7139 84.3267 71.4927C82.5405 70.8991 81.9606 69.1336 80.8363 67.895C79.8541 66.4228 78.967 64.9012 78.5171 63.1658C78.0807 62.0977 77.6443 61.0296 77.2079 59.9614C75.817 55.4058 77.5322 52.0074 81.1704 49.3251C83.0873 48.3205 85.0042 47.3163 86.9211 46.3123C88.8317 45.6972 90.7423 45.082 92.6529 44.4668Z" fill="#EC168E"/>
<path d="M81.1458 67.5703C82.0383 68.7224 82.9309 69.8744 83.8234 71.0265C86.5131 71.4747 86.584 71.4736 86.6275 74.4789C86.6441 75.6246 87.3061 76.545 87.3567 77.6377C86.7681 77.6391 86.1794 77.6406 85.5908 77.6421C84.1188 77.6418 82.6469 77.6414 81.1749 77.6411C80.8807 77.6407 80.5864 77.6403 80.2921 77.64C78.9588 74.781 79.4204 69.3368 81.1458 67.5703Z" fill="#8B288C"/>
<path d="M81.1467 67.5703C79.744 70.8321 80.4731 74.2746 80.2929 77.64C79.725 77.7607 79.1597 77.8963 78.5885 77.9988C77.5467 78.1858 76.719 77.8545 76.796 76.6994C77.0623 72.7028 77.407 68.7107 77.7874 64.7232C77.8388 64.1852 78.265 63.6831 78.5175 63.165C79.6663 64.4713 80.2641 66.1057 81.1467 67.5703Z" fill="#87288B"/>
<path d="M87.3576 77.6374C85.7877 77.1035 85.9353 75.796 86.0467 74.5739C86.2091 72.793 86.039 71.2876 83.8242 71.0261C86.0278 71.0209 88.2313 71.0157 90.4348 71.0105C90.7012 70.8455 90.9228 70.8924 91.1007 71.1502C91.3371 73.3587 91.4074 75.5516 90.4479 77.6408C89.4178 77.6396 88.3877 77.6385 87.3576 77.6374Z" fill="#93268C"/>
<path d="M90.4475 77.6409C90.3602 75.4239 90.4937 73.2213 90.8827 71.0356C92.0023 70.4442 93.2692 71.1284 94.3995 70.6295C94.5529 70.6254 94.7064 70.6213 94.8599 70.6172C96.0255 73.248 95.5586 75.8792 94.8617 78.5104C94.5693 78.514 94.2769 78.5176 93.9845 78.5211C92.9223 77.7586 91.564 78.1856 90.4475 77.6409Z" fill="#98258C"/>
<path d="M119.149 52.474C118.748 55.8825 117.293 59.0092 116.518 62.3187C115.973 64.6419 115.031 66.8636 114.734 69.2515C114.586 69.3979 114.437 69.5442 114.288 69.6905C114.041 70.0031 113.698 70.1331 113.322 70.2024C112.574 70.2834 111.838 70.2875 111.191 69.8123C110.828 69.1696 111.069 68.5315 111.239 67.9088C112.581 62.9932 114.126 58.1364 115.486 53.226C115.663 52.5873 115.895 51.9762 116.498 51.599C116.791 51.5969 117.085 51.5948 117.378 51.5928C117.969 51.8865 118.559 52.1803 119.149 52.474Z" fill="#D2148C"/>
<path d="M116.497 51.5987C114.73 57.6261 112.964 63.6536 111.198 69.6811C110.464 70.3264 109.729 70.3353 108.992 69.6859C110.759 63.5052 112.526 57.3245 114.293 51.1438C115.068 51.0971 115.818 51.1748 116.497 51.5987Z" fill="#DA138D"/>
<path d="M104.172 48.0305C104.161 47.8957 104.147 47.761 104.131 47.6267C107.302 40.8167 111.068 34.3852 116.103 28.7554C116.326 28.5062 116.368 28.0953 116.494 27.76C117.573 27.8461 119.125 27.2344 119.624 28.0404C120.275 29.0923 118.698 29.8613 118.071 30.5918C114.581 34.6607 111.666 39.087 109.03 43.7393C108.156 45.2818 107.678 46.9749 106.788 48.4872C106.495 48.4894 106.202 48.4917 105.909 48.494C105.368 48.1983 104.607 48.7264 104.172 48.0305Z" fill="#A2238D"/>
<path d="M184.499 225.558C183.604 225.524 183.121 224.942 182.732 224.233C183.627 224.267 184.11 224.85 184.499 225.558Z" fill="#C8168C"/>
<path d="M99.2787 70.1502C100.902 70.1325 102.525 70.1149 104.148 70.0969L104.124 70.1648C104.258 70.3367 104.457 70.4881 104.488 70.7025C104.992 74.1061 104.676 77.4471 103.694 80.7342C103.055 80.7895 102.478 80.5989 101.929 80.2916C100.75 79.853 99.5706 79.4144 98.3913 78.9759C97.1593 76.231 97.8383 73.4285 98.1363 70.6363C98.3441 70.0698 98.6479 69.7239 99.2787 70.1502Z" fill="#A5228D"/>
<path d="M98.3881 70.573C98.3888 73.3739 98.3894 76.1748 98.3901 78.9758C97.2137 78.8211 96.0375 78.6662 94.8612 78.5111C94.8606 75.8797 94.86 73.2484 94.8594 70.6174C95.7437 70.5781 96.628 70.5384 97.5123 70.4988C97.8222 70.3116 98.1172 70.2994 98.3881 70.573Z" fill="#9D248D"/>
<path d="M103.694 80.7339C103.369 77.1915 104.376 73.7033 104.124 70.1641C104.86 70.1523 105.596 70.1401 106.333 70.128C106.462 70.0603 106.59 69.9592 106.727 69.9483C110.266 69.6657 110.382 69.7584 110.517 73.3402C110.599 75.5231 110.584 77.7088 110.527 79.8918C110.5 80.8907 110.571 81.9834 109.415 82.5301C107.445 82.1314 105.453 81.8063 103.694 80.7339Z" fill="#AB208D"/>
<path d="M109.415 82.5302C110.451 78.6302 109.643 74.6709 109.771 70.7416C109.789 70.2016 109.21 70.1499 108.758 70.144C107.949 70.1333 107.141 70.1329 106.332 70.1282C106.663 69.6291 107.185 69.7208 107.669 69.6969C108.11 69.6935 108.551 69.6899 108.992 69.6864C109.727 69.6848 110.463 69.6833 111.198 69.6816C111.935 69.6858 112.671 69.6902 113.408 69.6945C114.144 71.0254 113.597 72.4382 113.637 73.8075C113.712 76.3779 113.683 78.9525 113.645 81.5249C113.631 82.4646 113.746 83.4602 112.971 84.2198C111.842 83.537 110.424 83.4641 109.415 82.5302Z" fill="#B31D8D"/>
<path d="M112.971 84.2198C112.97 80.5908 112.993 76.9616 112.954 73.333C112.941 72.0896 113.037 70.88 113.409 69.6945C113.702 69.6932 113.995 69.6919 114.288 69.6906C115.365 69.6009 115.793 70.1928 115.601 71.1489C114.659 75.8359 115.436 80.516 115.593 85.199C114.719 84.8729 113.845 84.5464 112.971 84.2198Z" fill="#B71C8C"/>
<path d="M150.788 64.3907C150.291 63.6434 150.87 63.0889 151.236 62.6274C160.793 50.5547 177.434 51.081 186.035 62.5098C194.363 73.5754 191.001 88.3515 180.371 95.5538C167.385 104.352 149.991 96.8598 146.874 81.3662C145.863 76.3401 146.498 71.6862 148.51 67.1073C148.799 66.45 148.975 65.5481 150.047 65.6802C150.202 65.8109 150.281 65.9778 150.286 66.1802C150.167 66.9411 150.086 67.6993 150.473 68.4205C150.777 69.198 151.304 69.9193 151.081 70.829C147.082 82.4897 155.343 94.8807 167.59 95.587C177.278 96.1457 186.61 87.4303 187.004 77.4563C187.404 67.328 181.192 59.4791 171.23 57.7311C166.244 56.8562 161.804 58.4684 157.747 61.2981C157.086 61.7593 156.545 62.3785 155.877 62.8408C154.133 63.1976 152.411 63.629 150.788 64.3907Z" fill="#E30C8C"/>
<path d="M150.788 64.3907C152.004 62.537 153.899 62.5378 155.801 62.5549C157.509 62.447 158.555 63.4341 159.414 64.7367C161.397 68.3479 158.816 72.6446 154.12 72.8362C152.785 72.4519 151.397 72.1374 150.86 70.5906C150.558 69.842 150.255 69.0934 149.953 68.3449C149.798 67.6206 149.768 66.8976 149.976 66.1772C149.999 66.0115 150.023 65.8459 150.047 65.6803C150.294 65.2504 150.541 64.8206 150.788 64.3907Z" fill="#FEFEFE"/>
<path d="M98.3895 70.573C98.0975 70.5488 97.8056 70.5245 97.5137 70.4996C99.2928 64.2188 101.038 57.929 102.88 51.6671C103.24 50.4428 103.197 49.0459 104.173 48.0312C104.774 48.1026 105.451 47.8896 105.909 48.4945C103.931 52.9647 103.069 57.7866 101.536 62.3985C100.688 64.9505 100.025 67.5642 99.2788 70.1502C98.9255 70.1717 98.592 70.2347 98.3895 70.573Z" fill="#EB108E"/>
<path d="M94.4005 70.6294C93.3039 71.4205 92.0479 70.8291 90.8838 71.0354C90.7344 71.0273 90.585 71.019 90.4355 71.0106C91.6943 70.23 93.0749 70.7166 94.4005 70.6294Z" fill="#9D248D"/>
<path d="M158.981 64.8194C158.298 63.5338 156.93 63.212 155.8 62.5553C158.103 59.3641 161.569 58.1281 165.151 57.3794C172.428 55.8586 178.58 58.2268 183.194 63.8751C188.02 69.7841 188.959 76.5498 186.103 83.7033C182.888 91.754 175.624 96.3835 167.852 96.1449C157.943 95.8407 149.531 87.48 149.64 77.7259C149.667 75.3055 149.02 72.721 150.859 70.5909C151.877 71.2265 152.744 72.1482 154.033 72.2724C154.702 73.0222 154.562 73.9008 154.448 74.784C153.442 82.5358 158.622 89.6089 166.336 91.0231C173.159 92.274 180.912 86.8947 182.357 79.5635C184.458 68.8941 176.393 61.7086 168.516 61.8931C165.958 61.953 163.627 62.8055 161.41 64.032C160.658 64.4481 159.968 65.1083 158.981 64.8194Z" fill="#E60A8D"/>
<path d="M149.974 66.1768C149.967 66.8993 149.959 67.6219 149.952 68.3445C149.453 67.6165 149.437 66.8937 149.974 66.1768Z" fill="#DF0E8C"/>
<path d="M158.982 64.8194C162.102 62.8326 165.319 61.2205 169.184 61.2851C176.593 61.4088 183.17 68.0174 183.176 75.463C183.182 82.961 179.886 87.9957 173.525 90.6722C164.866 94.316 155.909 88.231 153.988 79.8753C153.388 77.2641 154.071 74.8024 154.034 72.2724C158.826 71.6083 160.403 69.2337 158.982 64.8194Z" fill="#EB0B8D"/>
<path d="M162.422 76.4977C162.43 73.1279 165.377 70.1178 168.65 70.1348C171.812 70.1513 174.805 73.1925 174.785 76.3695C174.765 79.6224 171.467 82.9734 168.319 82.9385C165.175 82.9037 162.413 79.8877 162.422 76.4977Z" fill="#EB0F8E"/>
<path d="M168.368 79.4196C166.677 79.3788 165.604 78.6215 165.522 76.8286C165.434 74.8888 166.651 73.6684 168.603 73.6699C170.19 73.6711 171.624 75.0097 171.643 76.5075C171.661 77.8998 169.962 79.4088 168.368 79.4196Z" fill="#EC148E"/>
</svg>
