<svg width="256" height="256" viewBox="0 0 256 256" fill="none" xmlns="http://www.w3.org/2000/svg">
<path d="M136.353 238.268C123.839 237.88 111.743 235.326 100.122 230.767C68.5589 218.386 45.4147 197.125 32.0705 165.665C31.7583 164.929 31.5472 164.15 31.2889 163.391C30.8977 162.537 31.0777 161.521 30.5284 160.712C30.2936 160.033 30.2489 159.355 30.5478 158.681C31.8346 157.836 32.559 158.995 33.3463 159.572C41.169 165.305 48.8334 171.249 56.5753 177.089C76.1639 191.868 95.7303 206.675 115.301 221.478C121.336 226.043 127.413 230.553 133.412 235.164C134.543 236.034 135.88 236.755 136.353 238.268Z" fill="#EC168E"/>
<path d="M28.1251 156.726C24.3268 152.822 20.7803 148.709 18.0672 143.96C15.2442 139.019 14.7646 134.253 18.7712 129.494C22.94 124.543 22.678 118.825 20.8697 112.999C19.6738 109.146 18.3304 105.343 17.4258 101.396C16.25 96.2658 17.4082 91.8103 20.8416 87.8869C23.3175 85.0578 25.904 82.2873 28.9559 80.123C33.9073 76.6117 35.5085 71.738 35.6531 66.0102C35.7419 62.4888 35.5478 58.9652 36.0299 55.4413C36.8616 49.3606 40.198 45.4115 45.8281 43.2521C49.0082 42.0324 52.3402 41.2631 55.7027 41.1555C63.1978 40.9158 68.7705 37.2513 73.5059 31.8628C75.3013 29.8199 77.1763 27.8387 78.8567 25.7048C84.283 18.8142 91.6038 16.8258 99.8907 17.692C107.463 18.4834 113.888 21.8382 119.221 27.2743C118.215 28.3112 116.782 27.6456 115.65 28.1755C114.21 28.5368 112.701 28.1622 111.268 28.6002C109.98 28.8628 108.641 28.7508 107.368 29.1309C105.905 29.5544 104.375 29.5997 102.897 29.939C101.152 30.4693 99.3331 30.6902 97.5867 31.2141C95.6259 31.5928 93.7752 32.3356 91.8887 32.9575C89.9681 33.642 88.0381 34.3026 86.1792 35.1478C83.889 35.9837 81.7321 37.1085 79.5679 38.2161C77.1484 39.377 74.8536 40.7569 72.5961 42.2011C70.6166 43.4398 68.6491 44.6968 66.7787 46.0985C65.218 47.1703 63.7924 48.413 62.338 49.6192C60.6646 50.8397 59.2093 52.32 57.5972 53.6131C55.9488 55.202 54.3476 56.8377 52.7387 58.4656C51.5141 59.4972 50.7668 60.9475 49.6142 62.0424C47.7504 64.1343 46.0986 66.3929 44.4213 68.6314C43.0668 70.5277 41.818 72.4943 40.533 74.437C39.2358 76.549 37.9433 78.6627 36.8889 80.9118C35.7941 83.0516 34.6656 85.1738 33.747 87.4009C29.306 97.6594 26.5283 108.367 25.1149 119.434C23.6911 130.583 24.5893 141.551 27.7526 152.343C28.1641 153.747 29.1927 155.169 28.1251 156.726Z" fill="#EC168E"/>
<path d="M154.916 237.446C150.387 238.262 145.822 238.503 141.229 238.289C136.149 234.899 131.369 231.1 126.507 227.417C115.249 218.892 103.966 210.4 92.7173 201.863C72.8559 186.79 52.9138 171.824 33.0902 156.702C31.9854 155.86 30.671 155.283 29.7821 154.152C28.8816 150.521 29.3106 146.856 29.4807 143.201C30.2962 141.616 31.2226 142.657 31.9448 143.212C37.7181 147.646 43.6032 151.931 49.3907 156.346C60.7899 165.041 72.2652 173.636 83.6879 182.3C106.881 199.892 130.116 217.427 153.332 234.989C154.1 235.571 155.474 235.937 154.916 237.446Z" fill="#EB0B8D"/>
<path d="M30.0246 142.567C29.9479 146.54 29.6064 150.522 30.3927 154.469C31.2835 155.713 31.0896 157.075 30.8236 158.444C30.8351 159.169 30.8466 159.895 30.8581 160.621C31.0734 161.073 31.2466 161.506 30.4625 161.516C29.5111 160.003 29.3242 158.118 28.124 156.726C27.9314 153.693 26.6124 150.941 25.9365 148.022C22.4903 133.143 23.6636 118.454 27.4736 103.841C28.9909 98.0216 30.8056 92.3081 33.425 86.876C35.0737 87.1221 34.8642 88.4834 34.969 89.5735C35.6096 96.2324 36.427 102.861 38.1314 109.347C38.2092 110.186 37.8909 110.933 37.5774 111.679C37.2076 112.432 36.8154 113.176 36.4591 113.937C36.1163 114.571 35.8537 115.239 35.6351 115.926C34.83 117.91 34.0926 119.915 33.5873 121.999C33.2385 123.285 32.7777 124.54 32.5525 125.86C32.2157 127.32 31.9248 128.787 31.7593 130.278C31.4698 132.043 31.1734 133.805 31.0164 135.588C31.0297 137.327 30.3291 139.003 30.578 140.763C30.5498 141.412 30.5224 142.062 30.0246 142.567Z" fill="#512C86"/>
<path d="M30.0254 142.566C30.0366 141.961 30.0478 141.355 30.0589 140.75C30.2608 140.422 30.0579 139.867 30.6217 139.74C31.8818 139.827 32.752 140.674 33.6771 141.37C50.7962 154.246 67.8974 167.147 84.937 180.128C85.8199 180.801 86.8385 181.231 87.7506 181.845C89.7794 184.203 91.6393 186.736 93.8698 188.884C99.6789 194.479 106.244 199.01 113.74 202.103C115.424 201.951 116.224 203.376 117.388 204.15C118.117 204.634 118.765 205.226 119.441 205.779C124.231 209.523 129.293 212.839 134.74 215.557C135.655 216.013 136.549 216.521 137.157 217.394C137.956 218.778 139.325 219.552 140.533 220.478C146.583 225.115 152.788 229.549 158.746 234.304C159.435 234.855 160.797 235.152 160.214 236.591C158.516 237.294 156.719 237.392 154.916 237.446C154.188 235.497 152.241 234.835 150.787 233.728C137.235 223.411 123.609 213.192 110.007 202.939C102.419 197.22 94.8289 191.503 87.2552 185.764C72.9803 174.948 58.7253 164.106 44.4437 153.298C39.6663 149.683 34.8331 146.141 30.0254 142.566Z" fill="#E60A8D"/>
<path d="M30.8249 158.444C30.1579 157.176 30.4497 155.804 30.394 154.469C33.5472 155.801 35.9013 158.274 38.5797 160.271C49.1934 168.187 59.7588 176.167 70.3184 184.154C85.7206 195.805 101.096 207.49 116.495 219.144C124.078 224.883 131.698 230.572 139.269 236.326C139.99 236.874 140.971 237.246 141.229 238.289C139.604 238.282 137.979 238.275 136.354 238.268C122.386 227.638 108.428 216.994 94.4466 206.381C84.657 198.95 74.8342 191.563 65.0283 184.153C54.3486 176.083 43.6727 168.008 32.9902 159.942C32.2903 159.414 31.5476 158.942 30.8249 158.444Z" fill="#EB0F8E"/>
<path d="M177.038 44.4281C184.117 48.6912 190.59 53.7279 196.4 59.61C204.52 74.4372 200.996 93.6739 185.746 104.004C184.162 105.077 182.787 106.809 180.477 105.916C179.146 105.927 177.805 106.042 176.534 105.497C176.427 104.175 177.558 104.055 178.361 103.684C188.584 98.9598 195.034 91.2866 196.518 79.956C198.559 64.3712 188.677 50.6011 174.13 48.0419C154.188 44.534 140.49 60.6955 140.419 75.7642C140.382 83.5441 142.258 90.4258 147.499 96.2849C148.09 96.9458 148.877 97.7 148.293 98.8027C146.607 98.4184 144.954 97.9364 143.418 97.1187C139.48 92.6719 137.567 87.3323 136.729 81.5729C134.19 64.1322 146.144 45.9205 166.317 43.5637C169.952 43.1389 173.476 43.9964 177.038 44.4281Z" fill="#D5128C"/>
<path d="M136.811 217.609C133.001 214.806 128.473 213.189 124.728 210.273C122.9 208.85 121.011 207.508 119.149 206.13C117.565 202.964 115.39 200.164 113.408 197.267C108.633 190.29 103.925 183.266 99.0591 176.352C98.8056 175.992 98.7061 175.539 98.3717 175.23L98.3794 175.248C97.9171 174.406 98.4108 173.445 98.0476 172.591C97.8773 171.062 98.7368 172.114 98.8804 172.335C100.94 175.509 104.021 177.666 106.674 180.246C112.409 185.822 118.877 190.472 125.392 195.061C125.32 195.802 125.841 196.268 126.204 196.805C130.463 203.11 134.743 209.399 139.048 215.673C139.633 216.525 141.094 217.536 139.453 218.794C138.334 218.929 137.553 218.313 136.811 217.609Z" fill="#EB0B8D"/>
<path d="M134.143 93.603C132.136 93.0665 130.265 92.1989 128.422 91.2625C126.987 88.3117 126.441 85.1294 126.1 81.9162C124.649 68.2313 129.055 56.4331 138.062 46.3166C142.989 40.7824 149.329 37.2073 156.317 34.8054C157.004 34.5695 157.732 34.4 158.436 34.8147C160.476 35.4185 162.4 36.2899 164.244 37.3444C164.325 38.9966 162.918 38.908 161.965 39.1415C157.581 40.2146 153.331 41.6 149.553 44.1434C139.134 51.1592 133.115 60.8312 131.596 73.3791C130.877 79.324 132.045 84.9035 133.804 90.473C134.119 91.4696 134.888 92.4707 134.143 93.603Z" fill="#C9148C"/>
<path d="M123.937 89.2961C122.929 88.9163 121.921 88.5366 120.913 88.1569C120.19 87.9559 119.411 87.8373 119.154 86.953C117.671 80.3583 117.865 73.7591 119.127 67.1607C119.306 66.2242 119.48 65.2937 119.335 64.3387C119.207 63.1807 119.822 62.248 120.303 61.2852C121.531 58.8274 122.875 56.4205 123.458 53.696C128.185 44.4776 134.861 37.0571 143.793 31.7295C144.637 31.2259 145.39 30.3862 146.551 30.8278C148.552 31.1622 150.501 31.6666 152.331 32.5691C152.128 33.5486 151.369 34.0037 150.568 34.3946C141.173 38.976 133.951 45.8486 129.035 55.0634C125.702 61.3093 123.953 68.0287 123.718 75.1111C123.594 78.856 123.674 82.5918 124.471 86.2906C124.684 87.2766 125.18 88.4907 123.937 89.2961Z" fill="#BE198C"/>
<path d="M33.1016 121.785C33.5936 119.648 34.2637 117.574 35.2826 115.624C36.1242 115.353 36.6928 115.92 37.2515 116.345C49.9902 126.039 62.7992 135.639 75.5419 145.327C75.6573 145.414 75.7477 145.536 75.8529 145.638C75.8702 146.642 75.8875 147.645 75.9049 148.648C76.3276 149.513 75.8994 150.471 76.1975 151.35C76.2355 151.948 76.2736 152.546 76.3116 153.143C74.7731 153.463 73.8917 152.291 72.8871 151.537C60.7514 142.432 48.6597 133.268 36.5673 124.105C35.4567 123.264 34.3355 122.441 33.1016 121.785Z" fill="#CC128C"/>
<path d="M168.512 104.166C164.139 103.695 159.933 102.505 155.759 101.184C149.309 97.7069 145.035 92.4323 142.864 85.4592C139.945 76.0854 141.44 67.3637 147.353 59.6122C153.528 51.5188 161.967 47.672 172.061 49.0086C183.674 50.5463 191.159 57.4606 194.532 68.6783C199.453 85.0464 187.46 103.793 168.711 104.256C168.645 104.258 168.578 104.197 168.512 104.166Z" fill="#DB108C"/>
<path d="M30.4727 135.468C30.6593 133.694 30.6294 131.888 31.2759 130.184C32.5771 129.484 33.3359 130.536 34.1589 131.154C45.5564 139.709 56.9258 148.302 68.2686 156.93C71.8333 159.641 75.5136 162.201 78.9611 165.066C80.1616 167.857 81.3621 170.647 82.5625 173.438C81.1697 174.123 80.343 172.974 79.49 172.337C73.6554 167.981 67.828 163.615 62.0348 159.205C52.4958 151.942 42.8841 144.776 33.362 137.492C32.4258 136.776 31.4326 136.147 30.4727 135.468Z" fill="#DF0E8C"/>
<path d="M148.293 98.8025C147.863 96.9776 146.276 95.9762 145.278 94.5562C141.678 89.4349 139.906 83.8042 139.838 77.4738C139.762 70.2811 141.567 63.8093 146.101 58.2457C151.628 51.4628 158.537 47.4071 167.604 47.1026C176.593 46.8007 183.964 49.8262 189.956 56.3969C194.578 61.4655 196.943 67.5054 197.293 74.3216C197.599 80.2991 196.542 85.9969 193.4 91.1868C189.772 97.1789 184.862 101.716 178.302 104.355C177.641 104.621 176.822 104.649 176.534 105.497C174.567 105.472 172.639 105.196 170.763 104.594C171.769 103.756 173.055 103.626 174.24 103.342C192.903 98.8698 202.175 75.9814 189.798 59.5182C180.661 47.3633 164.914 45.5428 153.183 54.1828C139.102 64.5528 137.646 84.7083 150.279 97.1271C151.187 98.0199 152.993 98.2995 152.706 100.173C151.165 99.9403 149.692 99.4919 148.293 98.8025Z" fill="#D8118C"/>
<path d="M134.144 93.6028C133.263 90.5105 132.247 87.4492 131.529 84.3196C129.73 76.4845 130.894 68.8578 134.067 61.6359C139.302 49.724 148.197 41.9132 160.99 38.7682C162.122 38.4899 163.572 38.7444 164.245 37.3442C166.281 38.4329 168.318 39.5215 170.354 40.6102C170.141 41.7601 169.142 41.5004 168.427 41.6082C164.943 42.1339 161.463 42.5175 158.075 43.6854C144.622 48.3223 134.847 61.9806 134.71 76.2278C134.655 81.9615 135.977 87.2893 138.247 92.4669C138.643 93.3702 139.392 94.2699 138.572 95.3268C137.017 94.9544 135.521 94.4309 134.144 93.6028Z" fill="#CC138C"/>
<path d="M123.938 89.2963C124.561 87.2965 123.706 85.3933 123.46 83.4743C122.34 74.7633 123.552 66.4063 126.824 58.2943C128.654 53.7592 131.215 49.6178 134.415 46.0126C138.744 41.1358 143.713 36.8971 149.738 34.1564C150.698 33.7195 151.439 33.0488 152.331 32.5693C154.471 33.0334 156.495 33.8137 158.437 34.8147C152.62 36.3366 147.468 39.1546 142.723 42.7979C138.113 46.3376 134.677 50.8653 131.917 55.8889C128.973 61.2487 127.259 67.0108 126.608 73.1402C126.011 78.7601 126.657 84.1662 128.322 89.5131C128.491 90.0541 128.396 90.6773 128.423 91.2624C126.928 90.6071 125.433 89.9517 123.938 89.2963Z" fill="#C3168C"/>
<path d="M33.1006 121.785C33.9141 121.321 34.4786 121.834 35.0676 122.278C43.9397 128.963 52.8221 135.634 61.6824 142.335C65.6465 145.332 69.5552 148.403 73.5168 151.404C74.3875 152.064 75.3763 152.568 76.3107 153.143C76.7298 155.346 77.1488 157.548 77.5679 159.75C76.383 159.692 75.5846 158.868 74.7294 158.228C60.8821 147.861 47.1357 137.36 33.3092 126.965C32.8452 126.616 32.3342 126.301 32.0742 125.741C32.162 124.356 32.6936 123.087 33.1006 121.785Z" fill="#D2128C"/>
<path d="M32.0741 125.741C35.2008 127.22 37.6943 129.609 40.4168 131.65C52.0893 140.401 63.6839 149.255 75.3118 158.066C76.0597 158.632 77.0263 158.906 77.5678 159.751C78.0319 161.522 78.4961 163.294 78.9602 165.066C76.0901 164.135 74.073 161.904 71.745 160.188C62.7985 153.593 53.9575 146.854 45.0907 140.151C41.1822 137.196 37.3001 134.206 33.4205 131.213C32.7686 130.71 32.1157 130.267 31.275 130.184C31.2305 128.647 31.62 127.188 32.0741 125.741Z" fill="#D9108C"/>
<path d="M76.7858 132.913C76.84 134.238 76.6427 135.53 76.2789 136.8C75.2727 137.146 74.5804 136.474 73.9108 135.966C62.2876 127.157 50.6354 118.386 39.0214 109.565C38.8466 109.432 38.7216 109.245 38.6075 109.055C38.3307 107.454 39.6713 106.578 40.2608 105.363C40.6046 104.93 40.9789 104.537 41.5497 104.412C43.3113 104.901 44.5392 106.232 45.9215 107.285C55.6726 114.716 65.4973 122.049 75.2534 129.473C76.4226 130.362 77.4708 131.232 76.7858 132.913Z" fill="#BD1A8C"/>
<path d="M220.247 101.873C220.401 94.9515 220.206 88.0685 218.099 81.382C217.52 79.5419 216.99 77.6866 215.757 75.688C224.04 81.9755 230.604 98.256 228.549 114.747C227.782 115.977 227.036 115.324 226.507 114.603C224.341 111.653 222.35 108.58 220.397 105.489C219.724 104.424 219.937 103.096 220.247 101.873Z" fill="#512C87"/>
<path d="M209.591 212.294C208.136 213.773 206.622 215.181 204.867 216.306C203.457 216.494 202.028 216.389 200.683 217.147C199.626 217.742 198.925 216.819 198.338 216.044C196.742 213.932 195.297 211.712 193.814 209.524C189.153 202.65 184.443 195.811 179.773 188.944C179.255 188.181 178.494 187.466 178.782 186.373C180.381 185.716 181.979 185.059 183.578 184.402C184.558 184.786 184.904 185.743 185.432 186.514C191.161 194.883 196.845 203.284 202.629 211.616C204.237 213.932 204.26 213.916 206.737 212.302C207.686 211.736 208.638 211.054 209.591 212.294Z" fill="#AA218D"/>
<path d="M139.467 202.647C141.383 203.394 143.3 204.14 145.216 204.887C146.035 205.305 146.531 206.039 147.005 206.776C150.138 211.644 153.56 216.317 156.743 221.151C157.426 222.188 158.189 223.178 158.413 224.459C158.58 225.41 159.361 225.908 160.069 226.424C162.674 228.325 165.187 230.345 167.731 232.324C168.465 232.896 169.626 233.38 169.044 234.731C167.278 235.167 165.512 235.603 163.746 236.039C158.191 232.146 152.954 227.83 147.488 223.818C146.802 223.314 146.06 222.724 146.383 221.651C146.53 221.492 146.712 221.4 146.926 221.374C148.494 221.586 149.967 222.287 151.859 222.494C150.923 220.486 149.783 218.963 148.674 217.447C145.853 213.587 143.423 209.463 140.574 205.622C139.944 204.772 139.14 203.895 139.467 202.647Z" fill="#DF0E8C"/>
<path d="M81.1948 117.875C80.7161 119.028 80.2374 120.181 79.7586 121.334C78.6633 121.631 77.9282 120.897 77.1961 120.34C67.4809 112.958 57.6995 105.664 48.0118 98.2455C47.6013 97.9312 47.2066 97.6003 47.0254 97.0877C47.3683 95.4776 48.5344 94.535 49.7977 93.6696C50.765 93.5174 51.4933 94.0228 52.202 94.5621C61.3345 101.512 70.4871 108.435 79.6401 115.358C80.4311 115.956 81.7734 116.367 81.1948 117.875Z" fill="#A9218D"/>
<path d="M30.4715 135.468C31.5359 134.937 32.1165 135.877 32.736 136.343C47.0924 147.132 61.4274 157.949 75.7428 168.792C77.9415 170.458 79.8942 172.466 82.5614 173.438C83.6006 175.201 84.6397 176.963 85.6788 178.726C84.3249 179.487 83.4512 178.424 82.5794 177.784C77.6122 174.138 72.6875 170.433 67.7816 166.704C56.1013 157.826 44.4013 148.974 32.663 140.173C31.9796 139.661 31.2898 138.898 30.4079 139.902C30.291 140.185 30.1742 140.468 30.0577 140.75C29.7772 138.957 30.3856 137.233 30.4715 135.468Z" fill="#E30C8C"/>
<path d="M204.755 145.175C205.751 143.54 206.748 141.905 207.744 140.271C208.598 139.923 208.965 140.596 209.319 141.106C215.105 149.438 220.725 157.886 226.521 166.212C226.645 166.39 226.705 166.612 226.79 166.816C225.836 168.434 224.751 169.953 223.403 171.271C222.44 171.531 222.101 170.749 221.735 170.175C219.727 167.034 217.374 164.125 215.499 160.895C211.883 155.679 208.176 150.525 204.755 145.175Z" fill="#762A8A"/>
<path d="M97.5892 98.8646C96.2805 99.9007 94.9717 100.937 93.6629 101.973C92.6003 102.487 91.8206 101.869 91.0621 101.286C83.3684 95.3695 75.529 89.6452 67.8744 83.6777C67.1821 83.1379 66.4419 82.6122 66.375 81.6081C66.4319 81.2586 66.632 81.0075 66.9164 80.813C68.1977 80.1849 69.4891 79.582 70.9225 79.3744C71.6892 79.3167 72.3619 79.5492 72.9709 80.0153C81.0124 86.1698 89.0566 92.3209 97.2006 98.3401C97.3781 98.4713 97.4967 98.6622 97.5892 98.8646Z" fill="#8B288C"/>
<path d="M76.7868 132.913C76.8482 131.825 76.5096 131.094 75.5273 130.365C67.1449 124.141 58.8287 117.827 50.5053 111.524C47.4789 109.232 44.4869 106.895 41.4792 104.578C41.3052 103.277 41.961 102.37 42.8933 101.591C43.1749 101.424 43.4749 101.315 43.8046 101.299C45.1638 101.634 45.945 102.798 46.9931 103.571C56.9687 110.929 66.7594 118.534 76.6995 125.94C77.1713 126.292 77.6519 126.625 78.0179 127.093C77.6076 129.033 77.1972 130.973 76.7868 132.913Z" fill="#B91B8C"/>
<path d="M178.782 186.374C184.144 194.281 189.5 202.191 194.871 210.092C196.224 212.081 197.672 214.005 198.985 216.019C199.618 216.989 200.462 217.147 201.14 216.483C202.416 215.23 203.599 215.727 204.867 216.306C203.835 217.412 202.656 218.326 201.328 219.048C199.812 217.842 198.337 218.494 196.861 219.15C196.647 219.165 196.442 219.13 196.242 219.053C194.092 217.111 192.803 214.515 191.199 212.181C186.183 204.883 181.192 197.566 176.218 190.239C175.702 189.479 174.946 188.765 175.244 187.676C176.423 187.242 177.603 186.808 178.782 186.374Z" fill="#B01F8D"/>
<path d="M81.1944 117.875C81.2046 116.555 79.9668 116.281 79.2184 115.707C70.0563 108.681 60.8479 101.715 51.6455 94.7416C51.1185 94.3422 50.5355 94.0217 49.8454 93.9829C49.5755 93.5266 49.8543 93.1847 50.0814 92.8299C50.8152 92.079 51.4404 91.1784 52.5826 90.976C53.4605 90.9445 54.1088 91.4631 54.7512 91.9385C64.0148 98.7944 73.1123 105.871 82.3546 112.755C82.763 113.059 83.1914 113.36 83.4084 113.855C82.6704 115.195 81.9324 116.535 81.1944 117.875Z" fill="#A5228D"/>
<path d="M38.7149 108.967C43.0702 111.643 46.9763 114.939 51.0565 117.991C58.6411 123.663 66.1249 129.47 73.6686 135.197C74.4781 135.811 75.4063 136.27 76.2795 136.8C76.3119 138.17 76.3167 139.536 75.9269 140.869C74.1913 140.175 72.8786 138.857 71.4265 137.759C60.2422 129.306 49.1261 120.763 37.859 112.42C37.561 112.199 37.284 111.966 37.0898 111.646C37.3533 111.034 37.6167 110.423 37.8801 109.812C38.1645 109.536 38.0192 108.836 38.7149 108.967Z" fill="#C1178C"/>
<path d="M146.967 221.584C146.82 221.584 146.673 221.584 146.525 221.584C143.854 221.277 141.31 220.678 139.46 218.493C140.247 217.686 139.433 217.133 139.078 216.611C134.596 210.02 130.085 203.448 125.562 196.885C125.141 196.274 124.483 195.763 125.392 195.062C128.314 196.735 131.237 198.409 134.159 200.082C138.754 206.532 143.086 213.163 147.583 219.68C148.057 220.366 148.96 221.537 146.967 221.584Z" fill="#E60A8D"/>
<path d="M180.477 105.916C182.274 106.351 183.239 104.944 184.512 104.15C189.086 101.297 192.706 97.5003 195.466 92.9254C199.518 86.2107 200.676 78.9132 199.661 71.1649C199.216 67.7657 198.067 64.6386 196.75 61.5382C196.479 60.9006 196.426 60.2687 196.4 59.6099C198.275 61.0905 199.904 62.8076 201.318 64.7314C203.718 71.0666 203.801 77.5557 202.301 84.0543C200.145 93.3925 195.196 100.907 187.149 106.268C184.916 106.332 182.674 106.536 180.477 105.916Z" fill="#D0138C"/>
<path d="M207.019 212.753C206.528 213.072 205.984 213.332 205.558 213.722C204.545 214.648 203.844 214.432 203.102 213.341C196.848 204.139 190.561 194.959 184.294 185.766C184.007 185.344 183.815 184.858 183.578 184.402C184.76 183.817 185.941 183.232 187.123 182.647C191.278 188.036 194.861 193.82 198.722 199.412C201.3 203.145 203.909 206.856 206.382 210.659C206.795 211.294 207.638 211.803 207.019 212.753Z" fill="#A6228D"/>
<path d="M66.604 81.6152C69.1656 84.5828 72.5535 86.5446 75.5932 88.9214C80.7747 92.973 86.0882 96.8556 91.3259 100.836C92.0438 101.382 92.7564 101.855 93.663 101.973C92.5924 102.988 91.5218 104.003 90.4511 105.018C89.4118 105.276 88.8267 104.467 88.1747 103.959C80.4401 97.9328 72.48 92.2048 64.7432 86.1826C63.8798 85.5106 62.9416 84.9123 62.481 83.848C62.425 83.3582 62.6577 82.9981 62.9984 82.6846C64.1519 82.1687 65.1082 80.9791 66.604 81.6152Z" fill="#91278C"/>
<path d="M47.1822 97.0704C57.0104 104.473 66.835 111.881 76.6727 119.271C77.6607 120.013 78.7288 120.649 79.7598 121.334C79.3908 122.39 79.0218 123.446 78.6529 124.502C77.7387 124.891 77.0774 124.298 76.466 123.832C65.9737 115.838 55.2919 108.093 44.9562 99.8923C44.591 98.8598 45.4924 98.4095 45.9375 97.7467C46.3016 97.4306 46.52 96.8378 47.1822 97.0704Z" fill="#AF1F8D"/>
<path d="M169.043 234.731C167.983 232.178 165.191 231.517 163.478 229.662C162.801 228.928 161.891 228.362 160.999 227.884C158.82 226.716 158.159 224.502 156.954 222.59C153.492 217.095 149.746 211.779 146.119 206.388C145.793 205.904 145.516 205.388 145.216 204.887C147.271 205.481 149.326 206.076 151.382 206.671C155.107 212.649 159.194 218.383 163.185 224.182C164.471 226.051 166.493 227.057 168.197 228.433C169.452 229.446 170.79 230.358 172.058 231.357C172.727 231.883 173.59 232.321 173.443 233.414C171.977 233.853 170.51 234.292 169.043 234.731Z" fill="#D9108C"/>
<path d="M128.03 27.7291C128.905 27.7706 129.78 27.8121 130.655 27.8536C131.683 28.012 131.834 28.5632 131.324 29.385C131.009 29.8915 130.517 30.2321 130.085 30.6266C124.23 35.9727 119.446 42.1368 115.847 49.2113C115.42 50.0501 115.069 50.9976 113.923 51.1345C113.596 51.1646 113.274 51.1293 112.957 51.0482C112.047 50.7415 111.132 50.455 110.182 50.2861C109.75 50.141 109.354 49.9588 109.321 49.4179C112.603 42.2846 117.032 35.9188 122.15 29.9866C123.776 28.1024 125.472 26.9314 128.03 27.7291Z" fill="#AA218D"/>
<path d="M146.552 30.8278C139.785 34.3941 134.036 39.1671 129.378 45.2505C127.322 47.9366 125.639 50.85 124.006 53.7986C122.859 54.4701 121.892 53.5732 120.835 53.4398C120.405 53.288 120.01 53.0948 119.88 52.6014C121.46 47.7448 124.494 43.7429 127.739 39.9607C130.893 36.2838 134.372 32.8688 138.504 30.2284C139.223 29.7685 139.867 29.0321 140.877 29.4801C142.845 29.6078 144.711 30.1634 146.552 30.8278Z" fill="#BA1B8C"/>
<path d="M102.976 95.3772C102.14 96.0953 101.231 96.6932 100.192 97.08C99.1282 97.6109 98.3775 96.9381 97.6223 96.3801C90.5558 91.1592 83.7107 85.6452 76.5904 80.4948C75.7034 79.8532 74.8533 79.132 74.5209 78.0006C74.2373 72.619 74.8804 67.3103 75.7626 62.0225C75.897 61.2173 76.2221 60.4695 76.9495 59.9834C78.9039 60.2339 78.2923 62.0307 78.8465 63.1264C77.758 67.1208 77.9878 71.2649 77.4899 75.3278C77.2217 77.5161 78.6613 77.2555 80.0216 77.1258C80.3622 77.135 80.6866 77.2111 80.9891 77.3682C81.6878 79.1704 83.2184 80.173 84.6877 81.2555C90.6037 85.6142 96.4502 90.0652 102.262 94.5624C102.552 94.7872 102.843 95.0136 102.976 95.3772Z" fill="#83298B"/>
<path d="M226.79 166.816C225.355 165.842 224.561 164.329 223.618 162.959C218.744 155.877 213.904 148.771 209.058 141.668C208.691 141.13 208.452 140.483 207.744 140.27C208.536 138.835 209.329 137.399 210.121 135.963C212.723 138.978 214.88 142.312 217.052 145.635C217.092 145.786 217.132 145.937 217.172 146.089C218.345 147.101 219.212 148.378 220.021 149.663C222.928 154.277 226.418 158.503 229.063 163.289C228.627 164.672 227.482 165.598 226.79 166.816Z" fill="#722B89"/>
<path d="M37.0897 111.646C39.9212 112.647 41.9632 114.837 44.2952 116.557C52.5948 122.682 60.8498 128.872 68.99 135.206C71.3379 137.033 74.0119 138.5 75.9267 140.869C75.902 141.576 75.8773 142.282 75.8525 142.989C74.5471 143.874 73.7947 142.72 72.9819 142.122C64.8049 136.111 56.8303 129.831 48.6619 123.808C44.9919 121.102 41.4544 118.223 37.7839 115.518C37.1501 115.05 36.3684 114.69 36.1074 113.834C36.2229 113.01 36.6316 112.316 37.0897 111.646Z" fill="#C5168C"/>
<path d="M177.038 44.4279C175.676 45.7673 174.174 44.6406 172.901 44.4128C167.095 43.3739 161.65 44.5591 156.455 46.8873C145.581 51.7601 139.436 60.4427 137.356 71.9896C135.894 80.1017 137.894 87.6371 142.101 94.6418C142.581 95.4417 143.381 96.0806 143.417 97.1185C142.567 97.1933 141.868 96.8037 141.179 96.3873C137.685 92.4454 136.206 87.6069 135.388 82.5893C133.523 71.1646 136.794 61.0995 144.531 52.6976C150.524 46.1886 158.22 42.6375 167.154 42.1935C169.544 42.0747 172.005 41.7875 174.334 42.7618C175.353 43.1259 176.251 43.686 177.038 44.4279Z" fill="#D1138C"/>
<path d="M88.7329 106.798C87.9877 107.68 87.2426 108.561 86.4974 109.443C85.5695 109.773 84.97 109.164 84.3335 108.678C76.0304 102.339 67.6548 96.0947 59.3567 89.7487C58.5036 89.0963 57.4049 88.6445 57.0879 87.4457C57.2338 86.1409 58.3763 85.8063 59.2561 85.2126C59.6566 85.028 60.0657 84.8896 60.5152 85.0088C69.3584 92.058 78.5692 98.6279 87.4986 105.567C87.958 105.924 88.4733 106.236 88.7329 106.798Z" fill="#99258C"/>
<path d="M184.988 228.67C183.57 229.866 181.839 230.393 180.121 230.95C177.049 228.991 174.052 226.904 171.066 224.834C168.488 223.045 167.343 219.824 165.432 217.331C163.921 215.36 162.629 213.223 161.274 211.137C160.77 210.361 159.932 209.535 160.513 208.564C161.047 207.671 162.122 208.266 162.947 208.131C163.235 208.084 163.529 208.133 163.774 208.327C164.353 208.339 164.933 208.35 165.512 208.362C167.644 210.885 169.408 213.671 171.248 216.402C172.517 218.286 173.759 220.186 175.111 222.016C176.029 223.257 177.104 223.963 178.675 224.292C181.327 224.848 183.367 226.511 184.988 228.67Z" fill="#CC138C"/>
<path d="M163.774 208.327C163.555 208.33 163.331 208.308 163.117 208.342C162.356 208.463 161.359 207.941 160.873 208.735C160.346 209.599 161.324 210.202 161.727 210.811C164.421 214.881 167.207 218.89 169.933 222.939C170.824 224.263 172.067 225.066 173.447 225.8C175.952 227.134 178.305 228.705 180.122 230.949C178.876 231.723 177.473 232.097 176.094 232.53C171.86 229.553 167.354 226.921 164.487 222.343C161.96 218.307 159.114 214.479 156.483 210.509C155.913 209.649 154.971 208.782 155.799 207.558C158.457 207.814 161.116 208.071 163.774 208.327Z" fill="#D1138C"/>
<path d="M207.019 212.753C204.46 208.945 201.914 205.128 199.34 201.33C195.442 195.578 191.518 189.844 187.629 184.085C187.354 183.677 187.287 183.13 187.123 182.647C188 182.198 188.876 181.748 189.752 181.299C190.855 181.779 191.243 182.882 191.851 183.772C193.714 186.499 195.495 189.283 197.566 191.863C200.915 197.58 204.994 202.808 208.602 208.351C209.203 209.274 209.938 209.944 211.149 209.153C211.653 208.824 212.248 208.705 212.764 209.222C211.888 210.434 210.789 211.416 209.59 212.295C208.632 211.882 207.778 212.048 207.019 212.753Z" fill="#A2238D"/>
<path d="M98.3721 175.23C99.4138 175.834 100.126 176.735 100.789 177.727C104.411 183.136 108.063 188.524 111.719 193.91C114.06 197.36 116.444 200.782 118.765 204.246C119.117 204.772 119.936 205.322 119.15 206.129C117.346 204.787 115.543 203.445 113.74 202.103C112.564 199.953 110.541 198.548 108.984 196.729C104.203 191.147 100.324 185.104 98.6876 177.829C98.497 176.982 98.4732 176.097 98.3721 175.23Z" fill="#EB108E"/>
<path d="M174.335 42.762C166.902 42.3649 159.623 42.9823 153.039 46.8158C146.487 50.6298 141.499 55.8793 138.485 62.9991C136.476 67.7464 135.406 72.593 135.493 77.7122C135.597 83.8511 137.374 89.5143 140.458 94.7958C140.75 95.296 140.941 95.8551 141.179 96.3872C140.29 96.0828 139.335 95.9411 138.572 95.327C138.273 92.8775 136.8 90.868 136.056 88.569C132.042 76.1689 134.197 64.89 141.984 54.595C147.514 47.284 155.058 43.225 163.919 41.5336C166.033 41.1302 168.257 41.2787 170.354 40.6104C171.888 40.9438 173.108 41.8581 174.335 42.762Z" fill="#D1138D"/>
<path d="M83.409 113.855C80.3057 112.328 77.8032 109.946 75.0636 107.912C68.1974 102.815 61.4312 97.5832 54.591 92.4505C53.9764 91.9893 53.383 91.3396 52.4924 91.3334C52.3832 91.2209 52.3304 91.0975 52.3342 90.9634C52.338 90.8239 52.354 90.7542 52.3807 90.7534C52.984 89.9527 53.7952 89.462 54.7416 89.1712C55.7024 89.0099 56.468 89.4731 57.169 90.0124C66.4281 97.1355 75.8471 104.048 85.0864 111.197C84.7744 112.239 84.0709 113.034 83.409 113.855Z" fill="#A1238D"/>
<path d="M45.0022 99.7207C47.9668 101.19 50.3611 103.474 52.9963 105.403C58.9493 109.761 64.7884 114.275 70.6554 118.75C73.2682 120.743 75.7041 122.978 78.6528 124.502C78.4411 125.366 78.2294 126.23 78.0177 127.093C75.1476 126.027 73.0494 123.812 70.6647 122.049C62.4514 115.974 54.323 109.785 46.1742 103.624C45.3022 102.965 44.5084 102.202 43.6783 101.487C43.4715 100.413 44.144 99.9971 45.0022 99.7207Z" fill="#B41D8C"/>
<path d="M195.575 222.989C194.07 224.178 192.432 225.142 190.679 225.913C189.011 224.503 187.492 222.885 184.921 223.322C183.889 223.498 183.315 222.471 182.737 221.696C180.366 218.516 178.254 215.16 176.048 211.868C174.92 210.186 173.813 208.546 171.422 208.746C171.133 208.77 170.884 208.541 170.709 208.289C173.687 208.028 176.665 207.767 179.643 207.507C181.792 209.622 183.259 212.244 184.969 214.685C185.931 216.059 186.901 217.434 187.746 218.88C188.673 220.467 189.685 221.163 191.66 220.46C193.548 219.787 195.085 220.97 195.575 222.989Z" fill="#BE198D"/>
<path d="M187.149 106.268C187.422 104.764 188.889 104.331 189.83 103.532C199.385 95.4192 203.121 84.9492 202.589 72.7029C202.471 70.0058 201.265 67.4658 201.318 64.7314C202.823 66.2261 204.288 67.7521 205.206 69.7054C206.322 80.6796 204.457 90.889 197.531 99.8197C196.445 101.22 195.175 102.434 193.942 103.69C193.319 104.325 192.639 104.931 193.037 105.969C191.1 106.565 189.119 106.313 187.149 106.268Z" fill="#CD138C"/>
<path d="M223.807 139.915C225.263 137.964 226.719 136.014 228.176 134.063C230.036 135.852 231.278 138.1 232.723 140.196C234.091 142.18 235.344 144.245 236.922 146.079C236.209 148.689 235.376 151.254 234.072 153.641C233.063 153.975 232.572 153.208 232.133 152.598C229.285 148.638 226.559 144.594 223.849 140.538C223.725 140.353 223.728 140.129 223.807 139.915Z" fill="#612C89"/>
<path d="M204.755 145.175C205.206 145.545 205.772 145.836 206.09 146.298C209.366 151.067 212.603 155.863 215.85 160.652C215.699 162.057 215.12 162.99 213.503 162.776C212.852 163.116 212.2 163.456 211.549 163.797C210.624 164.097 210.201 163.399 209.765 162.839C206.916 159.178 204.625 155.131 201.881 151.395C201.484 150.854 201.263 150.21 201.694 149.544C202.714 148.088 203.735 146.631 204.755 145.175Z" fill="#7C2A8A"/>
<path d="M193.036 105.969C190.974 105.854 191.719 105.013 192.604 104.207C195.876 101.227 198.653 97.8446 200.642 93.8874C203.297 88.6078 204.936 83.0695 204.852 77.0646C204.817 74.6192 204.356 72.1203 205.205 69.7056C206.354 71.2604 207.798 72.6118 208.495 74.4774C207.794 78.4302 208.134 82.4991 207.004 86.4172C205.13 92.9129 202.158 98.7926 197.686 103.883C196.971 104.697 196.27 105.573 195.112 105.816C194.42 105.867 193.728 105.918 193.036 105.969Z" fill="#CA138C"/>
<path d="M109.991 91.8328C108.482 92.5521 106.973 93.2714 105.464 93.9907C99.1587 89.3259 92.9357 84.5525 86.7121 79.7806C85.9924 79.2288 84.7173 78.7183 85.7437 77.3787C86.2754 77.0794 86.8636 77.0668 87.4479 77.0274C88.4055 77.0194 89.3634 76.9997 90.3189 77.0755C91.5413 77.3691 92.8637 77.2866 93.9719 78.0211C94.2897 79.1605 95.2071 79.7791 96.0833 80.4341C100.119 83.4514 104.155 86.468 108.173 89.5087C108.976 90.1162 109.918 90.6423 109.991 91.8328Z" fill="#7B2A8A"/>
<path d="M152.705 100.173C151.204 97.8085 148.85 96.2339 147.137 94.0211C143.244 88.9915 141.243 83.2256 141.331 77.0875C141.527 63.4241 150.263 51.702 164.265 49.0438C178.237 46.3912 191.349 55.9216 194.693 68.9111C198.721 84.5518 189.182 100.121 174.127 103.724C173.001 103.993 172.01 104.789 170.762 104.593C169.981 104.612 169.198 104.644 168.512 104.166C172.406 103.204 176.46 102.822 180.067 100.837C188.393 96.2548 193.44 89.3841 194.663 79.884C196.164 68.2203 191.747 59.1027 181.957 52.9573C174.797 48.4626 166.867 48.0212 158.981 51.3468C149.239 55.4554 143.584 63.0495 142.283 73.3377C141.067 82.963 144.107 91.3799 151.795 97.8376C153.114 98.9457 154.88 99.5567 155.758 101.184C154.733 100.871 153.632 100.784 152.705 100.173Z" fill="#D9108C"/>
<path d="M195.112 105.816C202.7 97.8788 207.442 88.7039 207.466 77.4689C207.468 76.3648 207.59 75.2805 208.496 74.4771C209.749 75.9008 210.192 77.7375 211 79.3882C211.593 81.018 210.856 82.5424 210.602 84.0972C209.497 90.8554 206.824 96.9527 202.785 102.468C202.224 103.235 201.704 104.03 200.847 104.511C199.011 105.279 197.081 105.633 195.112 105.816Z" fill="#C8148C"/>
<path d="M155.799 207.558C155.697 208.948 156.671 209.867 157.341 210.879C159.765 214.538 162.388 218.07 164.698 221.798C166.969 225.465 170.372 227.824 173.714 230.285C174.613 230.947 175.426 231.648 176.094 232.53C175.211 232.825 174.327 233.119 173.444 233.414C171.069 230.784 168.025 228.972 165.202 226.928C163.26 225.523 162.133 223.592 160.83 221.79C157.832 217.642 155.074 213.321 152.184 209.094C151.669 208.34 151.247 207.613 151.382 206.671C152.854 206.967 154.327 207.263 155.799 207.558Z" fill="#D5128C"/>
<path d="M36.1068 113.834C40.6559 116.629 44.6478 120.177 48.9165 123.35C57.4029 129.659 65.8107 136.073 74.2349 142.465C74.7435 142.851 75.2475 143.015 75.8518 142.989C75.8518 143.872 75.8518 144.755 75.8517 145.638C72.9956 144.697 70.981 142.478 68.659 140.765C59.7383 134.185 50.9283 127.455 42.0792 120.778C39.809 119.066 37.5469 117.342 35.2812 115.624C35.3276 114.922 35.6114 114.329 36.1068 113.834Z" fill="#C8148C"/>
<path d="M223.807 139.915C226.853 143.541 229.137 147.706 231.969 151.485C232.586 152.309 233.115 153.169 234.072 153.641C233.412 155.819 232.312 157.787 231.171 159.736C230.244 159.821 229.946 159.053 229.521 158.49C226.377 154.325 223.782 149.78 220.608 145.635C220.22 145.129 219.721 144.583 220.265 143.868C221.446 142.551 222.626 141.233 223.807 139.915Z" fill="#692C89"/>
<path d="M30.4082 139.902C30.4446 138.855 30.0892 137.548 31.9216 138.939C46.8571 150.279 61.8413 161.554 76.8161 172.842C79.0305 174.511 81.2754 176.139 83.5023 177.792C84.1561 178.277 84.8179 178.73 85.6791 178.726C86.4856 179.689 87.3322 180.624 87.75 181.845C86.43 182.091 85.5078 181.27 84.5906 180.577C72.7565 171.623 60.9425 162.643 49.1155 153.68C43.9311 149.751 38.7368 145.835 33.5274 141.939C32.5349 141.197 31.4503 140.578 30.4082 139.902Z" fill="#E60A8D"/>
<path d="M88.7329 106.798C85.6665 105.345 83.2386 102.976 80.5426 101.004C74.6415 96.6857 68.8678 92.1937 63.0339 87.7837C62.0317 87.0261 61.1081 86.2043 60.4219 85.141C60.6779 83.9067 61.3548 83.3719 62.6216 83.8174C71.8983 90.8843 81.1751 97.9511 90.4518 105.018C89.8788 105.611 89.3058 106.205 88.7329 106.798Z" fill="#95268C"/>
<path d="M85.0861 111.197C82.288 110.347 80.3372 108.198 78.0977 106.527C71.0878 101.297 64.181 95.9287 57.2035 90.6549C56.4781 90.1067 55.7386 89.3774 54.6585 89.5534C54.4546 88.5203 55.2838 88.1244 55.8722 87.5776C56.3308 87.3386 56.7846 87.0565 57.3283 87.3431C61.702 90.7541 66.0562 94.1905 70.4548 97.5692C75.3277 101.312 80.2377 105.007 85.1432 108.707C85.5485 109.013 86.043 109.2 86.496 109.443C86.29 110.24 85.5339 110.594 85.0861 111.197Z" fill="#9D248D"/>
<path d="M113.854 50.7052C115.94 49.5222 116.242 47.1346 117.336 45.3192C120.854 39.4849 125.189 34.382 130.18 29.7981C130.806 29.2238 131.868 28.8411 130.655 27.854C132.438 27.9499 134.223 28.0281 135.938 28.6029C136.566 29.875 135.435 30.289 134.766 30.8287C128.879 35.5774 124.022 41.2004 120.173 47.7144C119.33 49.1408 119.004 50.9154 117.477 51.9072C117.159 52.0127 116.833 52.0368 116.501 52.0027C115.751 51.8521 114.994 51.7326 114.267 51.4833C113.965 51.3113 113.722 51.1069 113.854 50.7052Z" fill="#B01E8D"/>
<path d="M220.247 101.873C220.031 103.715 220.624 105.23 221.759 106.72C223.532 109.05 225.099 111.541 226.705 113.995C227.181 114.723 227.54 115.452 228.549 114.747C228.321 118.038 227.749 121.267 226.793 124.426C225.902 124.591 225.414 123.968 225.015 123.382C222.834 120.175 220.483 117.085 218.398 113.812C219.015 109.832 219.631 105.853 220.247 101.873Z" fill="#572D89"/>
<path d="M85.591 77.6424C86.3338 79.6772 88.3823 80.3144 89.8766 81.4916C94.7507 85.3315 99.7588 89.0016 104.727 92.7216C105.175 93.0571 105.45 93.4324 105.464 93.9907C104.734 94.6311 103.894 95.0734 102.976 95.3772C99.6486 93.7875 97.1179 91.0877 94.1433 89.0015C90.1404 86.1943 86.2826 83.179 82.3884 80.2191C81.5735 79.5998 80.3108 79.0932 81.1752 77.6414C82.6474 76.696 84.1193 76.6951 85.591 77.6424Z" fill="#7F2A8B"/>
<path d="M74.9939 78.5236C82.732 84.416 90.47 90.3084 98.2082 96.2007C98.7999 96.6513 99.4303 97.0152 100.193 97.0798C99.4256 97.821 98.5677 98.4304 97.5898 98.8646C94.0185 97.2497 91.2364 94.4918 88.1244 92.2261C82.8699 88.4005 77.7829 84.3443 72.6448 80.3602C72.136 79.9657 71.6223 79.826 71.0199 79.8482C70.9182 79.0284 71.6063 79.0304 72.0884 78.8161C73.0466 78.6245 73.9722 78.0903 74.9939 78.5236Z" fill="#87288B"/>
<path d="M180.407 205.724C179.388 205.73 178.356 205.841 177.404 205.333C174.238 201.265 171.625 196.813 168.581 192.659C167.974 191.83 167.261 191.081 166.738 190.191C168.326 189.569 169.969 189.154 171.653 188.894C173.003 188.416 173.462 189.502 174.017 190.303C176.946 194.535 179.891 198.756 182.686 203.078C183.186 203.852 184.147 204.717 183.543 205.61C183.058 206.328 181.895 205.808 181.038 205.891C180.818 205.912 180.606 205.822 180.407 205.724Z" fill="#BA1B8D"/>
<path d="M128.03 27.7293C125.472 27.1835 123.925 28.681 122.471 30.4334C118.593 35.1046 114.971 39.9396 111.948 45.2345C111.158 46.6194 111.308 48.6397 109.445 49.3781C108.324 50.0039 107.506 49.4306 106.73 48.6945C106.539 46.8223 107.578 45.357 108.398 43.838C111.01 38.9992 114.009 34.4216 117.657 30.2867C118.08 29.8083 118.527 29.3104 118.75 28.665C118.025 27.9845 117.156 28.4501 116.421 28.2162C116.094 28.1482 115.806 28.0151 115.602 27.7393C116.721 26.9102 118.026 27.5284 119.22 27.2744C122.146 27.6259 125.123 26.9969 128.03 27.7293Z" fill="#A6228E"/>
<path d="M195.575 222.989C194.371 221.182 192.98 220.001 190.685 221.334C189.801 221.848 188.91 221.617 188.382 220.767C185.59 216.266 182.214 212.152 179.643 207.507C180.797 207.237 181.942 206.907 183.149 207.004C184.575 206.384 185.314 207.314 185.989 208.302C188.038 211.305 190.176 214.249 192.164 217.296C192.797 218.267 193.431 219.334 194.908 218.94C195.412 218.829 195.917 218.693 196.421 218.934C196.568 218.934 196.716 218.934 196.863 218.934C198.104 218.827 198.97 219.211 199.055 220.613C197.736 221.173 196.971 222.543 195.575 222.989Z" fill="#BA1B8C"/>
<path d="M223.314 197.284C222.311 198.901 221.09 200.343 219.756 201.693C218.967 202.286 218.507 201.654 218.128 201.164C215.255 197.448 212.828 193.424 210.172 189.558C209.964 189.255 209.936 188.869 210.117 188.509C212.028 187.632 213.94 186.755 215.851 185.879C218.284 189.716 221.371 193.126 223.314 197.284Z" fill="#8C288C"/>
<path d="M170.709 208.288C173.531 207.727 175.074 209.277 176.465 211.477C178.648 214.929 181.091 218.216 183.343 221.627C183.935 222.523 184.559 223.132 185.632 222.89C188.306 222.287 189.611 223.881 190.678 225.913C189.874 226.552 189.013 227.083 187.995 227.311C186.448 227.98 185.737 226.519 184.653 226.005C184.486 225.904 184.331 225.787 184.179 225.665C183.679 225.21 183.147 224.814 182.452 224.705C181.857 224.554 181.27 224.383 180.704 224.143C178.926 223.071 178.141 221.164 176.98 219.594C174.803 216.65 172.949 213.477 170.797 210.509C170.344 209.884 169.754 209.204 170.369 208.332C170.471 208.225 170.584 208.211 170.709 208.288Z" fill="#C4168D"/>
<path d="M117.377 51.5928C119.352 48.606 120.877 45.3626 122.99 42.4326C126.372 37.7438 130.396 33.7415 134.826 30.1015C135.351 29.6704 135.936 29.3805 135.937 28.6026C137.64 28.5746 139.276 28.9268 140.876 29.4802C138.093 30.8121 135.779 32.7988 133.498 34.8199C127.854 39.8201 123.56 45.8558 120.032 52.4728C119.777 52.731 119.463 52.8352 119.107 52.8326C118.395 52.61 117.443 52.7176 117.377 51.5928Z" fill="#B51D8D"/>
<path d="M146.967 221.584C148.598 221.127 147.412 220.283 147.096 219.816C143.205 214.06 139.242 208.353 135.343 202.603C134.83 201.846 134.027 201.166 134.159 200.082C135.928 200.937 137.697 201.792 139.466 202.648C143.108 208.795 147.425 214.491 151.355 220.445C151.516 220.689 151.726 220.911 151.832 221.176C152.08 221.799 153.101 222.277 152.442 223.062C151.897 223.71 151.186 223.058 150.631 222.852C149.419 222.401 148.008 222.513 146.967 221.584Z" fill="#E30C8C"/>
<path d="M196.422 218.935C195.98 219.082 195.539 219.229 195.097 219.376C193.762 218.7 193.233 217.338 192.507 216.187C190.398 212.844 188.056 209.672 185.693 206.512C184.051 205.444 182.082 206.576 180.408 205.724C181.349 205.724 182.29 205.724 183.356 205.724C183.118 204.294 182.251 203.465 181.614 202.522C178.837 198.406 176.034 194.307 173.262 190.188C172.849 189.573 172.546 188.885 171.653 188.894C172.85 188.488 174.047 188.082 175.244 187.676C180.907 196.037 186.569 204.398 192.233 212.759C193.628 214.818 195.025 216.876 196.422 218.935Z" fill="#B51D8D"/>
<path d="M166.738 190.191C168.422 190.429 168.685 192.044 169.459 193.107C171.949 196.528 174.331 200.028 176.738 203.509C177.11 204.047 177.446 204.629 177.404 205.333C174.955 205.113 172.594 204.558 170.365 203.495C167.629 200.07 165.278 196.378 162.897 192.708C162.58 192.221 162.308 191.694 162.348 191.076C163.765 190.55 165.236 190.291 166.738 190.191Z" fill="#BE198D"/>
<path d="M200.848 104.512C202.733 101.049 205.271 98.0053 206.911 94.3562C209.071 89.5503 209.878 84.4415 211 79.3887C212.287 81.8807 213.168 84.4858 213.212 87.3241C213.159 90.2376 211.693 92.7163 210.662 95.3101C209.885 97.2636 208.895 99.1436 207.889 101.002C205.834 102.759 203.453 103.859 200.848 104.512Z" fill="#C3178D"/>
<path d="M220.264 143.869C223.11 148.112 225.943 152.363 228.809 156.592C229.544 157.675 230.381 158.69 231.17 159.736C230.611 161.006 229.965 162.223 229.062 163.289C227.261 162.026 226.454 159.978 225.258 158.268C222.467 154.276 219.576 150.341 217.172 146.089C218.617 145.926 219.117 144.446 220.264 143.869Z" fill="#6E2B8A"/>
<path d="M213.503 162.775C214.639 162.458 215.204 161.51 215.851 160.651C218.028 163.829 220.214 167 222.371 170.192C222.662 170.622 222.892 171.069 223.404 171.271C222.332 172.95 221.009 174.41 219.524 175.73C218.723 176.041 218.252 175.496 217.898 174.974C215.98 172.145 213.919 169.415 212.095 166.524C211.818 166.085 211.658 165.6 211.88 165.074C212.348 164.256 213.37 163.829 213.503 162.775Z" fill="#7C2A8B"/>
<path d="M200.816 174.294C202.304 173.175 203.792 172.056 205.28 170.937C205.566 171 205.882 171.056 206.058 171.294C208.428 174.502 210.684 177.791 212.831 181.154C212.994 181.41 212.972 181.706 212.817 181.979C211.494 183.38 209.935 184.461 208.233 185.346C207.817 185.424 207.528 185.198 207.313 184.901C205.139 181.901 202.991 178.882 201.027 175.738C200.753 175.3 200.574 174.82 200.816 174.294Z" fill="#8C288C"/>
<path d="M191.567 161.099C193.031 159.602 194.494 158.105 195.958 156.608C197.529 157.786 198.35 159.548 199.409 161.113C200.926 163.356 202.463 165.583 204.056 167.772C201.979 168.9 199.768 169.629 197.434 169.99C197.365 170.013 197.259 170.077 197.232 170.053C194.592 167.661 192.676 164.771 191.368 161.469C191.328 161.366 191.471 161.212 191.567 161.099Z" fill="#8C288C"/>
<path d="M214.917 125.31C215.658 123.087 216.399 120.863 217.14 118.64C218.465 118.693 218.925 119.791 219.55 120.666C221.509 123.408 223.097 126.417 225.471 128.859C224.802 131.153 223.938 133.368 222.815 135.479C222.091 135.984 221.699 135.403 221.397 134.95C219.25 131.728 216.901 128.642 214.917 125.31Z" fill="#612C89"/>
<path d="M139.461 218.493C141.645 219.913 144.238 220.399 146.526 221.584C146.612 222.678 147.455 223.182 148.214 223.754C153.173 227.488 158.129 231.226 163.094 234.952C163.475 235.238 163.704 235.572 163.746 236.039C162.578 236.282 161.447 236.761 160.214 236.591C158.037 233.794 154.948 232.088 152.213 229.969C147.369 226.216 142.452 222.556 137.554 218.873C137.108 218.537 136.823 218.17 136.812 217.609C137.695 217.904 138.578 218.198 139.461 218.493Z" fill="#E30C8C"/>
<path d="M201.262 191.223C202.439 190.926 203.616 190.63 204.793 190.333C207.393 195.332 211.067 199.628 214.007 204.403C214.54 205.269 215.504 205.213 216.217 205.671C215.835 206.436 215.257 207.016 214.531 207.456C212.208 209.172 211.885 209.181 210.196 206.833C207.124 202.56 204.2 198.183 201.278 193.806C200.772 193.047 199.839 192.085 201.262 191.223Z" fill="#99258C"/>
<path d="M109.991 91.8325C106.247 88.3361 101.899 85.6191 97.8852 82.4699C96.6786 81.5232 95.4249 80.6367 94.1955 79.719C93.7543 79.3896 93.3459 79.0451 93.9846 78.5213C94.239 78.2605 94.547 78.1021 94.9042 78.0363C96.0877 77.8995 97.1874 78.315 98.3147 78.5531C99.5812 78.9724 100.981 79.0573 102.042 80.0042C104.327 82.5014 107.218 84.2537 109.852 86.321C110.828 87.0871 111.824 87.8304 112.752 88.6524C113.274 89.1139 114.006 89.5538 113.41 90.4484C112.34 91.0822 111.2 91.5415 109.991 91.8325Z" fill="#762A8A"/>
<path d="M201.262 191.223C200.667 191.962 201.066 192.615 201.482 193.222C204.453 197.563 207.52 201.841 210.383 206.253C211.535 208.029 212.654 208.741 214.531 207.456C214.08 208.183 213.49 208.77 212.765 209.222C212.544 209.229 212.25 209.147 212.114 209.257C209.675 211.236 208.603 209.416 207.426 207.649C204.417 203.136 201.368 198.649 198.317 194.163C197.859 193.489 197.378 192.846 197.305 192C197.484 191.594 197.724 191.311 198.222 191.545C199.235 191.438 200.249 191.331 201.262 191.223Z" fill="#9D248D"/>
<path d="M180.967 223.791C181.556 223.939 182.145 224.086 182.733 224.233C183.345 224.644 183.872 225.167 184.499 225.558C185.252 225.998 185.796 226.694 186.514 227.188C187.068 227.57 186.697 227.898 186.276 228.129C185.856 228.332 185.54 228.781 184.989 228.67C183.678 227.734 182.369 226.797 181.056 225.866C180.701 225.614 180.336 225.18 179.968 225.172C175.523 225.068 174.044 221.433 171.989 218.512C170.134 215.874 168.369 213.174 166.539 210.519C166.077 209.847 165.596 209.204 165.513 208.361C166.69 208.361 167.868 208.361 169.045 208.361C171.602 211.296 173.537 214.669 175.714 217.87C176.824 219.503 178.102 221.018 179.076 222.746C179.484 223.47 179.967 224.112 180.967 223.791Z" fill="#C8148C"/>
<path d="M233.505 125.307C235.19 121.834 236.875 118.36 238.796 114.399C240.167 120.976 240.433 127.096 239.602 133.273C238.964 133.75 238.459 133.356 238.082 132.929C236.293 130.898 234.867 128.603 233.416 126.331C233.224 126.03 233.247 125.629 233.505 125.307Z" fill="#532D87"/>
<path d="M204.055 167.772C203.738 167.615 203.311 167.541 203.122 167.289C200.554 163.851 198.087 160.342 195.957 156.609C196.977 155.416 197.997 154.222 199.017 153.029C201.017 154.513 201.928 156.835 203.348 158.758C205.033 161.041 206.847 163.273 207.92 165.957C206.739 166.791 205.476 167.449 204.055 167.772Z" fill="#86298B"/>
<path d="M233.505 125.307C235.299 128.145 236.707 131.279 239.603 133.273C239.41 135.959 238.932 138.597 238.259 141.201C237.468 141.358 237.017 140.824 236.611 140.316C234.354 137.5 232.494 134.405 230.469 131.426C230.309 131.19 230.24 130.888 230.408 130.598C231.44 128.834 232.473 127.071 233.505 125.307Z" fill="#572D89"/>
<path d="M207.92 165.957C204.709 161.815 201.723 157.518 199.017 153.029C199.909 151.867 200.801 150.705 201.694 149.543C201.764 150.905 202.823 151.71 203.504 152.721C205.699 155.982 207.93 159.219 210.131 162.477C210.507 163.035 210.917 163.527 211.548 163.797C210.498 164.784 209.253 165.444 207.92 165.957Z" fill="#81298B"/>
<path d="M212.817 181.979C210.305 178.298 207.792 174.617 205.28 170.937C206.587 169.837 207.894 168.737 209.201 167.637C211.768 171.264 214.514 174.775 216.435 178.821C215.349 180.011 214.209 181.139 212.817 181.979Z" fill="#86298B"/>
<path d="M223.314 197.284C220.644 193.602 217.538 190.205 215.852 185.879C217.177 185.159 218.502 184.44 219.827 183.72C222.177 186.784 224.596 189.801 226.305 193.299C225.459 194.741 224.487 196.089 223.314 197.284Z" fill="#87298B"/>
<path d="M230.408 130.598C232.477 133.561 234.529 136.537 236.629 139.478C237.084 140.115 237.711 140.63 238.258 141.201C237.813 142.827 237.367 144.453 236.921 146.079C236.544 145.88 236.036 145.776 235.808 145.467C233.087 141.785 230.472 138.029 228.175 134.063C228.919 132.908 229.664 131.753 230.408 130.598Z" fill="#5D2D89"/>
<path d="M113.41 90.4485C112.455 88.3529 110.322 87.5241 108.709 86.151C106.783 84.5114 104.698 83.0571 102.663 81.5477C102.218 81.2174 101.94 80.847 101.929 80.2913C102.585 79.958 103.203 80.255 103.832 80.4004C105.631 81.1187 107.536 81.4973 109.367 82.1139C110.593 82.7244 111.918 83.112 113.138 83.7375C113.974 84.1517 114.882 84.3968 115.716 84.8152C117.001 85.6595 118.667 85.9137 119.593 87.3139C120.033 87.595 120.473 87.876 120.913 88.157C118.412 88.9208 115.911 89.6846 113.41 90.4485Z" fill="#732B89"/>
<path d="M216.217 205.672C215.156 206.121 214.374 205.989 213.666 204.91C210.873 200.658 208 196.458 205.142 192.248C204.733 191.645 204.158 191.11 204.793 190.333C205.682 190.046 206.572 189.759 207.461 189.472C210.002 192.844 212.33 196.363 214.668 199.875C215.597 201.269 216.53 202.656 217.632 203.922C217.43 204.724 216.894 205.255 216.217 205.672Z" fill="#95268D"/>
<path d="M211.89 132.423C212.613 130.777 213.336 129.131 214.059 127.486C215.578 128.387 216.277 129.973 217.227 131.337C218.693 133.441 220.081 135.599 221.567 137.69C221.231 139.379 220.208 140.713 219.292 142.103C218.628 142.597 218.161 142.152 217.819 141.694C215.726 138.897 213.682 136.063 211.899 133.053C211.787 132.865 211.81 132.634 211.89 132.423Z" fill="#692C89"/>
<path d="M225.471 128.859C223.918 128.853 223.591 127.445 222.871 126.528C220.862 123.971 219.553 120.905 217.14 118.64C217.559 117.03 217.979 115.421 218.399 113.812C221.008 115.774 222.19 118.845 224.185 121.287C225.046 122.341 225.572 123.669 226.793 124.426C226.352 125.904 225.912 127.382 225.471 128.859Z" fill="#5D2D89"/>
<path d="M162.348 191.076C164.82 194.673 167.304 198.262 169.748 201.878C170.063 202.344 170.164 202.952 170.365 203.495C167.64 202.82 165.147 201.629 162.812 200.09C161.556 198.073 160.188 196.129 158.916 194.122C158.438 193.366 157.679 192.607 158.447 191.596C159.725 191.256 161.019 191.035 162.348 191.076Z" fill="#C4178D"/>
<path d="M217.632 203.923C216.979 203.927 216.505 203.579 216.164 203.079C213.318 198.905 210.48 194.727 207.667 190.532C207.482 190.256 207.524 189.829 207.461 189.472C208.346 189.151 209.232 188.83 210.117 188.509C212.964 192.706 215.812 196.903 218.655 201.103C218.924 201.5 219.292 201.68 219.757 201.693C219.299 202.675 218.475 203.308 217.632 203.923Z" fill="#92278D"/>
<path d="M216.435 178.82C213.732 175.687 211.88 171.957 209.353 168.699C209.162 168.453 209.245 167.996 209.201 167.637C210.094 166.783 210.987 165.928 211.88 165.074C214.222 168.773 216.458 172.549 219.524 175.73C218.626 176.891 217.591 177.916 216.435 178.82Z" fill="#81298B"/>
<path d="M223.283 181.672C225.062 180.518 226.842 179.363 228.621 178.209C230.257 179.443 230.642 181.781 232.608 182.725C231.675 185.092 230.331 187.233 228.936 189.344C228.251 189.824 227.803 189.328 227.476 188.882C225.972 186.822 224.524 184.723 223.258 182.505C223.105 182.236 223.137 181.946 223.283 181.672Z" fill="#7C2A8B"/>
<path d="M211.891 132.423C213.847 135.195 215.807 137.964 217.758 140.739C218.165 141.318 218.385 142.093 219.292 142.103C218.725 143.394 217.919 144.534 217.052 145.635C216.911 145.604 216.703 145.623 216.639 145.536C214.348 142.426 211.808 139.484 210.121 135.964C210.711 134.783 211.301 133.603 211.891 132.423Z" fill="#6E2C8A"/>
<path d="M206.249 186.758C205.242 187.827 203.846 188.253 202.617 188.957C199.763 185.935 197.801 182.275 195.436 178.903C195.214 178.588 195.265 178.213 195.552 177.911C196.557 177.247 197.562 176.582 198.568 175.918C200.788 178.26 202.21 181.176 204.161 183.717C204.903 184.683 205.85 185.544 206.249 186.758Z" fill="#95268D"/>
<path d="M195.552 177.911C197.367 180.673 199.17 183.443 201.005 186.191C201.601 187.082 202.433 187.828 202.618 188.957C201.878 189.601 201.05 190.078 200.084 190.296C199.306 190.536 198.845 190.032 198.444 189.527C196.229 186.742 194.39 183.695 192.391 180.76C192.175 180.443 192.173 180.078 192.452 179.761C193.485 179.144 194.519 178.528 195.552 177.911Z" fill="#99258D"/>
<path d="M223.283 181.672C224.744 183.87 226.221 186.057 227.656 188.272C227.986 188.781 228.247 189.295 228.935 189.344C228.058 190.662 227.182 191.981 226.305 193.299C223.949 190.239 221.427 187.291 219.827 183.72C220.979 183.037 222.131 182.355 223.283 181.672Z" fill="#82298B"/>
<path d="M193.394 170.842C190.768 171.549 188.089 171.713 185.386 171.619C184.612 170.539 183.496 169.634 183.594 168.109C185.363 166.639 187.132 165.169 188.902 163.699C190.952 165.732 192.641 167.993 193.394 170.842Z" fill="#97268D"/>
<path d="M192.452 179.761C194.915 183.332 196.83 187.299 200.084 190.296C199.654 190.997 198.598 190.764 198.222 191.545C197.916 191.697 197.611 191.849 197.305 192C194.162 188.874 192.083 184.998 189.753 181.299C190.652 180.786 191.552 180.274 192.452 179.761Z" fill="#9D248D"/>
<path d="M232.607 182.725C232.159 182.893 231.696 183.341 231.29 182.661C230.404 181.175 229.098 179.94 228.62 178.209C231.328 176.156 234.035 174.104 236.743 172.051C235.858 175.924 234.546 179.453 232.607 182.725Z" fill="#762C8A"/>
<path d="M206.248 186.758C202.975 183.65 200.656 179.866 198.567 175.918C199.317 175.376 200.066 174.835 200.816 174.293C202.988 178.179 205.749 181.669 208.233 185.346C207.768 186.093 207.021 186.444 206.248 186.758Z" fill="#91278D"/>
<path d="M193.394 170.842C191.896 168.461 190.399 166.08 188.901 163.699C189.79 162.833 190.678 161.966 191.567 161.099C193.099 164.342 195.28 167.157 197.433 169.991C196.149 170.567 194.807 170.874 193.394 170.842Z" fill="#92288D"/>
<path d="M158.448 191.596C158.826 193.84 160.579 195.305 161.612 197.177C162.121 198.101 163.094 198.839 162.812 200.09C158.876 198.166 155.604 195.366 152.035 192.021C154.487 191.859 156.468 191.727 158.448 191.596Z" fill="#C9168D"/>
<path d="M221.568 137.69C221.109 137.663 220.714 137.513 220.448 137.113C218.319 133.904 216.189 130.695 214.06 127.486C214.125 126.674 214.443 125.961 214.917 125.31C217.611 127.615 219.012 130.882 221.109 133.63C221.619 134.298 221.832 135.246 222.815 135.479C222.637 136.35 222.097 137.017 221.568 137.69Z" fill="#662D89"/>
<path d="M185.693 206.512C186.214 206.579 186.678 206.729 187.001 207.201C189.753 211.224 192.679 215.132 195.097 219.376C193.552 220.369 192.801 219.214 192.092 218.192C189.841 214.947 187.614 211.685 185.432 208.394C184.859 207.53 184.253 206.907 183.149 207.004C183.933 206.508 184.822 206.555 185.693 206.512Z" fill="#B61D8D"/>
<path d="M207.889 101.001C207.932 98.1673 210.05 96.1475 210.806 93.5744C211.434 91.4396 212.397 89.4036 213.212 87.3237C214.007 92.8829 212.503 97.5473 207.889 101.001Z" fill="#C01B8E"/>
<path d="M180.967 223.791C179.919 224.438 179.475 224.412 178.851 223.497C175.738 218.937 172.642 214.366 169.567 209.781C169.294 209.374 169.214 208.837 169.045 208.361C169.486 208.351 169.928 208.342 170.37 208.332C170.437 209.62 171.434 210.375 172.085 211.329C174.559 214.955 177.042 218.575 179.49 222.218C179.904 222.836 180.265 223.463 180.967 223.791Z" fill="#C8168C"/>
<path d="M183.593 168.109C184.147 169.301 185.432 170.12 185.385 171.619C183.503 171.748 181.641 171.632 179.625 171.138C180.819 169.831 182.281 169.063 183.593 168.109Z" fill="#9F288F"/>
<path d="M199.056 220.613C198.575 219.728 197.716 219.335 196.863 218.934C199.439 217.149 199.842 217.159 201.328 219.048C200.571 219.57 199.814 220.091 199.056 220.613Z" fill="#B61D8D"/>
<path d="M186.277 228.13C186.539 226.682 184.68 226.7 184.5 225.558C185.885 225.705 186.515 227.356 187.996 227.311C187.508 227.763 186.967 228.103 186.277 228.13Z" fill="#C8168C"/>
<path d="M30.4629 161.515C30.5947 161.217 30.7265 160.919 30.8584 160.621C31.5074 161.465 31.2361 162.452 31.2886 163.39C31.0135 162.766 30.7382 162.141 30.4629 161.515Z" fill="#63388F"/>
<path d="M98.0479 172.591C98.6923 173.41 98.2968 174.359 98.3797 175.248C97.9078 174.407 98.0165 173.494 98.0479 172.591Z" fill="#EB108E"/>
<path d="M76.1961 151.35C75.5983 150.504 75.9703 149.552 75.9034 148.648C76.2658 149.52 76.2438 150.434 76.1961 151.35Z" fill="#D2128C"/>
<path d="M72.3426 79.4057C71.8573 79.4214 71.3362 79.3301 71.0191 79.8484C69.6942 80.2896 68.3693 80.7308 67.0445 81.172C66.0596 80.1102 65.9671 78.7789 66.0482 77.4589C66.5471 69.3366 67.1644 61.2335 69.0707 53.2782C69.9949 49.4216 71.3594 45.7005 72.3174 41.8596C74.5227 40.2724 76.8223 38.8518 79.3713 37.8726C80.8924 38.3699 80.2333 39.4758 79.9551 40.331C79.0702 43.0515 77.9936 45.7024 77.1633 48.4493C74.7081 56.5724 73.2225 64.835 72.8956 73.3291C72.8182 75.3425 72.8669 77.4132 72.3426 79.4057Z" fill="#7B2A8A"/>
<path d="M72.3169 41.8594C73.0679 42.4666 72.7168 43.1516 72.4821 43.8517C69.8562 51.6821 68.0608 59.678 67.4416 67.9384C67.1109 72.349 66.4668 76.7383 67.044 81.1717C66.897 81.3195 66.75 81.4673 66.603 81.6152C65.4272 82.0599 64.2514 82.5046 63.0755 82.9493C61.9192 82.1597 62.0225 80.9245 61.9914 79.7653C61.8014 72.6885 62.5135 65.6841 63.7548 58.7273C64.5292 54.3872 65.5587 50.1007 66.5385 45.804C68.2424 44.1637 70.2786 43.0099 72.3169 41.8594Z" fill="#762A8A"/>
<path d="M72.3431 79.4057C71.2273 75.9869 72.303 72.5434 72.4918 69.1642C72.8125 63.4247 73.9011 57.7273 75.4189 52.1458C76.5349 48.0425 77.8406 44.0031 79.4357 40.0601C79.7392 39.3097 80.21 38.5793 79.3719 37.8727C81.447 36.5331 83.6396 35.4449 86.025 34.7705C86.8071 35.7176 86.1657 36.5691 85.8167 37.4149C84.202 41.3277 82.4272 45.1812 81.4911 49.3399C81.2071 49.9496 80.7482 50.4295 80.2636 50.872C77.9969 52.9422 76.8375 55.3968 77.5082 58.5239C77.6172 59.0322 77.6212 59.5479 77.2081 59.9614C75.6896 62.5217 75.7337 65.472 75.5393 68.2447C75.2999 71.6583 74.6789 75.075 74.9935 78.5238C74.11 78.8177 73.2265 79.1117 72.3431 79.4057Z" fill="#81298B"/>
<path d="M47.1814 97.0704C46.878 97.3499 46.5746 97.6294 46.2711 97.9088C45.1228 97.4579 44.9039 96.4232 44.7938 95.3958C44.0353 88.3184 43.0727 81.2509 43.7936 74.1005C43.9848 72.2035 43.7277 70.2759 44.119 68.3867C45.6347 65.9866 47.3607 63.7513 49.3437 61.7173C51.1013 62.4013 50.4474 63.904 50.3581 65.0805C50.0146 69.6093 49.5798 74.125 49.5966 78.6797C49.612 82.8655 49.9657 87.019 50.376 91.1735C50.4417 91.8389 50.4897 92.4854 50.2918 93.131C50.1431 93.415 49.9944 93.6989 49.8459 93.9829C48.9579 95.0121 48.0696 96.0412 47.1814 97.0704Z" fill="#612C88"/>
<path d="M56.0217 87.8235C55.5679 88.4002 55.1141 88.977 54.66 89.5537C53.9388 90.0086 53.2178 90.4636 52.4968 90.9186C51.6908 90.5932 51.5084 89.8786 51.4319 89.1337C50.7854 82.8412 50.6992 76.5423 51.1563 70.2305C51.4481 66.2028 51.9082 62.1963 52.4473 58.1968C53.9586 56.4639 55.5345 54.7965 57.3418 53.3633C58.8923 53.9982 58.3072 55.2843 58.1627 56.3407C57.6066 60.4072 56.9752 64.4575 56.5781 68.5511C56.0307 74.1964 56.353 79.8341 56.2906 85.4748C56.2818 86.2693 56.5401 87.0892 56.0217 87.8235Z" fill="#692C89"/>
<path d="M66.5395 45.8042C67.2043 46.2773 67.1503 46.9824 66.9611 47.5975C65.0722 53.7369 63.976 60.0535 63.2859 66.4011C62.6902 71.8794 61.9483 77.4209 63.0765 82.9493C62.9248 83.2388 62.773 83.5281 62.6212 83.8174C61.6872 83.9252 61.075 84.5676 60.4213 85.141C60.1262 85.2829 59.8312 85.4249 59.5361 85.5669C58.6965 84.9137 58.5302 83.9578 58.499 83.0052C58.1254 71.5889 59.2523 60.3314 62.1294 49.2635C63.4465 47.9154 64.8383 46.6625 66.5395 45.8042Z" fill="#722B89"/>
<path d="M62.1288 49.2637C62.7006 51.9332 61.3854 54.3431 61.061 56.8908C60.5198 61.1404 59.7991 65.3579 59.4677 69.6448C59.2196 72.854 59.1097 76.0495 59.0982 79.2582C59.0905 81.3716 58.9789 83.493 59.5356 85.5674C58.8225 86.1874 57.82 86.4481 57.3285 87.3435C56.8924 87.5033 56.4563 87.6631 56.0204 87.8232C55.6348 86.6286 55.5723 85.4046 55.5475 84.1518C55.3568 74.5037 55.7074 64.9016 57.7064 55.4173C57.8495 54.7384 58.0097 53.9482 57.3407 53.3633C58.8299 51.872 60.2952 50.3528 62.1288 49.2637Z" fill="#6E2B89"/>
<path d="M44.1191 68.3867C44.9714 70.4988 44.75 72.7559 44.3945 74.83C43.5898 79.5251 44.8467 84.1164 44.6792 88.7678C44.6072 90.7677 45.2471 92.7836 45.3654 94.8038C45.4325 95.9501 45.7446 96.9399 46.2714 97.9092C45.8477 98.5127 45.4243 99.1166 45.0012 99.7205C44.56 100.309 44.1185 100.898 43.6773 101.487C43.5085 101.604 43.3395 101.721 43.1704 101.838C41.7413 100.965 41.9361 99.428 41.7194 98.1073C40.4651 90.4622 40.1979 82.7509 40.2871 75.0199C40.2905 74.7243 40.2741 74.4322 40.2207 74.142C41.3593 72.1146 42.6095 70.1628 44.1191 68.3867Z" fill="#5C2D88"/>
<path d="M40.22 74.1421C41.2782 74.7552 41.0028 75.7946 40.9809 76.7051C40.7872 84.7309 41.4096 92.6936 42.7717 100.601C42.8446 101.024 43.0347 101.427 43.17 101.838C42.2251 102.516 42.1948 103.759 41.4772 104.578C41.1856 104.882 40.8937 105.185 40.6018 105.489C39.2845 105.417 39.226 104.336 39.061 103.445C37.8948 97.1533 37.1139 90.8123 36.8164 84.4178C36.7582 83.167 36.6053 81.9294 36.4902 80.6863C37.5141 78.3798 38.706 76.1692 40.22 74.1421Z" fill="#582D88"/>
<path d="M36.4914 80.686C37.2107 81.2037 37.4534 81.9454 37.4567 82.7872C37.484 89.7964 38.6608 96.6826 39.6668 103.588C39.7763 104.339 39.9696 105.012 40.6026 105.489C39.9739 106.648 39.3449 107.807 38.7154 108.967C38.4367 109.248 38.1586 109.531 37.8803 109.812C36.1016 105.966 35.9574 101.763 35.2796 97.6845C34.7907 94.7424 34.3614 91.7792 34.356 88.7777C34.3546 88.0181 34.0646 87.349 33.4258 86.8758C34.3104 84.7445 35.2043 82.6179 36.4914 80.686Z" fill="#552D88"/>
<path d="M52.4465 58.1968C53.7083 60.4854 52.4752 62.7659 52.281 65.0017C51.6677 72.0612 51.1254 79.1025 51.988 86.1718C52.1808 87.7521 51.6316 89.4116 52.4957 90.9183C52.4892 91.0568 52.4879 91.1951 52.4924 91.3335C51.7589 91.9325 51.0251 92.5315 50.2917 93.1308C48.8304 90.497 49.4011 87.5315 49.1301 84.7473C48.6996 80.324 48.8965 75.8429 49.1204 71.3747C49.281 68.1686 50.4809 64.9567 49.3439 61.7175C50.3451 60.5148 51.1597 59.1477 52.4465 58.1968Z" fill="#652C88"/>
<path d="M81.1699 49.3246C81.2203 46.0207 82.9869 43.2471 83.9812 40.235C84.5911 38.3874 85.8558 36.7841 86.0245 34.7706C87.8001 33.6969 89.7395 33.0518 91.746 32.582C92.7068 33.4632 92.7797 33.4984 92.1599 34.7796C91.1095 36.9506 90.1519 39.1626 89.1289 41.345C88.383 42.9362 87.7185 44.5542 87.3078 46.2685C85.4942 47.7503 83.6872 49.2514 81.1699 49.3246Z" fill="#87288B"/>
<path d="M107.225 28.649C108.477 27.9446 109.85 28.2546 111.176 28.1762C112.495 28.4574 112.618 28.6449 111.869 29.8694C110.614 31.922 108.992 33.7197 107.755 35.7982C105.854 38.9934 103.776 42.0855 102.425 45.5803C102.216 46.121 101.934 46.6444 101.403 46.9669C99.7369 47.1772 98.1883 46.9882 96.9775 45.6599C99.3539 41.9042 100.993 37.7378 103.462 34.0277C104.675 32.2041 105.799 30.3221 107.225 28.649Z" fill="#99258C"/>
<path d="M86.9219 46.3123C87.1237 43.0129 89.2194 40.4228 90.2658 37.4377C90.6471 36.35 91.2858 35.3532 91.796 34.3095C92.0787 33.7311 92.5054 33.1367 91.7473 32.5823C93.5581 31.6677 95.44 30.984 97.4821 30.8223C98.9212 31.1044 99.0343 31.3571 98.2606 32.9047C96.8337 35.7587 95.0705 38.4352 93.9002 41.4303C93.4788 42.5088 93.118 43.6075 92.6937 44.6849C90.9061 45.709 89.1137 46.7201 86.9219 46.3123Z" fill="#8D288C"/>
<path d="M101.48 46.7663C103.43 40.8913 106.93 35.8954 110.463 30.9182C110.925 30.2674 111.457 29.6554 111.836 28.9602C112.173 28.3436 111.604 28.2697 111.176 28.1763C112.585 27.3555 114.128 27.9006 115.601 27.7397C115.899 27.7465 116.196 27.7535 116.494 27.7604C117.092 28.594 116.437 29.1426 115.994 29.6685C111.732 34.7307 108.212 40.2623 105.399 46.249C105.089 46.908 104.747 47.5684 104.024 47.8998C102.944 48.0437 101.904 48.0935 101.48 46.7663Z" fill="#9D248D"/>
<path d="M107.225 28.6489C106.669 31.1452 104.741 32.8581 103.521 34.9731C101.767 38.0148 100.062 41.0733 98.5832 44.2518C98.2332 45.004 97.933 45.5277 97.0373 45.4235C95.8173 46.0817 94.795 45.743 93.8926 44.8015C96.4436 40.7128 98.1836 36.174 100.885 32.1648C101.498 31.2554 101.977 30.2539 102.808 29.5035C104.204 28.8229 105.771 29.028 107.225 28.6489Z" fill="#95268C"/>
<path d="M102.808 29.5034C102.233 31.7546 100.672 33.4807 99.5616 35.4379C98.184 37.8664 96.9089 40.3353 95.7942 42.8856C95.4096 43.7654 94.9845 44.4308 93.9683 44.5297C93.5115 44.8904 93.0712 44.9045 92.6524 44.4669C92.0036 43.6489 92.5999 42.986 92.8966 42.2608C94.3042 38.8203 96.1112 35.5855 97.9701 32.379C98.4147 31.6121 98.6417 31.0309 97.4811 30.8227C99.1549 29.9716 101.004 29.8293 102.808 29.5034Z" fill="#90278C"/>
<path d="M119.593 87.3139C118.26 86.6091 116.926 85.9043 115.593 85.1995C114.098 81.2372 114.485 77.132 114.708 73.0477C114.764 72.0153 114.974 71.0029 114.33 70.0777C114.15 69.7465 114.136 69.4258 114.403 69.131C116.103 68.7477 117.317 67.7931 117.904 66.1118C118.42 65.3561 118.578 64.3188 119.592 63.9531C120.346 64.6886 120.125 65.642 119.956 66.4473C118.624 72.7972 118.232 79.1519 119.556 85.555C119.673 86.1197 119.586 86.7266 119.593 87.3139Z" fill="#BA1B8C"/>
<path d="M119.591 63.9532C119.145 64.6862 118.974 65.5848 118.266 66.1605C117.45 65.2822 117.596 64.2125 117.885 63.2496C118.92 59.8122 119.771 56.321 120.915 52.9165C121.945 53.2105 122.976 53.5046 124.006 53.7986C123.27 57.5032 121.121 60.5935 119.591 63.9532Z" fill="#C7178C"/>
<path d="M168.827 51.1479C182.247 50.9545 193.401 62.382 193.32 76.3275C193.24 90.0677 181.958 102.367 167.55 101.903C153.79 101.461 143.674 90.7837 143.686 76.9584C143.697 62.6199 154.456 51.3188 168.827 51.1479Z" fill="#DF0E8C"/>
<path d="M106.789 48.487C107.674 48.784 108.56 49.081 109.446 49.378C109.63 49.7341 109.966 49.7947 110.318 49.8256C110.904 50.6082 110.475 51.3829 110.266 52.1362C108.832 57.3015 107.244 62.4225 105.803 67.586C105.487 68.7163 105.125 69.8591 103.958 70.467C102.448 70.8788 100.942 70.9692 99.4466 70.4029C98.655 69.7278 99.0253 68.9195 99.2434 68.1699C100.944 62.3254 102.655 56.4839 104.354 50.6392C104.614 49.7467 104.779 48.7481 105.755 48.2524C106.139 48.1565 106.488 48.2155 106.789 48.487Z" fill="#EB0C8D"/>
<path d="M104.147 70.0962C106.151 65.6119 106.923 60.7418 108.518 56.1272C109.231 54.0657 109.725 51.9285 110.318 49.8257C111.287 49.8569 112.195 50.0788 112.976 50.6897C113.291 51.0616 113.319 51.5014 113.196 51.9345C111.507 57.8486 109.938 63.7983 107.942 69.6223C107.547 70.1081 106.975 70.2741 106.418 70.4694C105.727 70.6427 105.041 70.7133 104.378 70.3559C104.301 70.2701 104.224 70.1831 104.147 70.0962Z" fill="#E40D8D"/>
<path d="M107.67 69.697C109.024 63.2457 111.306 57.0534 112.976 50.6899C113.269 50.6948 113.562 50.6999 113.855 50.705C114.001 50.8514 114.147 50.9978 114.293 51.1442C114.794 51.7198 114.69 52.3709 114.497 53.0135C112.983 58.0582 111.628 63.1499 110.046 68.1744C109.848 68.8018 109.599 69.4181 109.054 69.8516C108.561 70.0867 108.093 70.0887 107.67 69.697Z" fill="#DF108D"/>
<path d="M120.915 52.9164C121.613 54.6738 120.347 56.099 120.087 57.6952C119.622 60.5442 117.93 63.1332 118.266 66.1604C117.754 67.951 117.106 69.5868 114.733 69.2514C114.21 68.6836 114.311 68.0131 114.491 67.3744C115.827 62.6314 117.06 57.8576 118.646 53.1877C118.742 52.9049 118.93 52.6763 119.148 52.4739C119.443 52.4735 119.737 52.4731 120.032 52.4727C120.222 52.8274 120.552 52.9052 120.915 52.9164Z" fill="#CB178C"/>
<path d="M92.6529 44.4668C93.0916 44.4877 93.5303 44.5086 93.9689 44.5295C94.9118 45.1037 95.9565 45.3281 97.0386 45.4231C98.3919 46.2915 99.9546 46.468 101.481 46.7656C102.265 47.3582 103.171 47.5763 104.131 47.6268C104.279 47.8247 104.343 48.0469 104.329 48.293C102.597 55.34 100.345 62.2403 98.3613 69.2169C98.2021 69.7766 98.0032 70.3382 97.5488 70.755C96.7651 71.2273 95.8945 71.1816 95.0315 71.184C94.7857 71.1914 94.5396 71.1889 94.2938 71.1855C92.9537 71.2057 91.5998 71.0316 90.2908 71.4825C88.3028 71.7575 86.3143 71.7139 84.3267 71.4927C82.5405 70.8991 81.9606 69.1336 80.8363 67.895C79.8541 66.4228 78.967 64.9012 78.5171 63.1658C78.0807 62.0977 77.6443 61.0296 77.2079 59.9614C75.817 55.4058 77.5322 52.0074 81.1704 49.3251C83.0873 48.3205 85.0042 47.3163 86.9211 46.3123C88.8317 45.6972 90.7423 45.082 92.6529 44.4668Z" fill="#EC168E"/>
<path d="M81.1458 67.5703C82.0383 68.7224 82.9309 69.8744 83.8234 71.0265C86.5131 71.4747 86.584 71.4736 86.6275 74.4789C86.6441 75.6246 87.3061 76.545 87.3567 77.6377C86.7681 77.6391 86.1794 77.6406 85.5908 77.6421C84.1188 77.6418 82.6469 77.6414 81.1749 77.6411C80.8807 77.6407 80.5864 77.6403 80.2921 77.64C78.9588 74.781 79.4204 69.3368 81.1458 67.5703Z" fill="#8B288C"/>
<path d="M81.1467 67.5703C79.744 70.8321 80.4731 74.2746 80.2929 77.64C79.725 77.7607 79.1597 77.8963 78.5885 77.9988C77.5467 78.1858 76.719 77.8545 76.796 76.6994C77.0623 72.7028 77.407 68.7107 77.7874 64.7232C77.8388 64.1852 78.265 63.6831 78.5175 63.165C79.6663 64.4713 80.2641 66.1057 81.1467 67.5703Z" fill="#87288B"/>
<path d="M87.3576 77.6378C85.7877 77.104 85.9353 75.7965 86.0467 74.5744C86.2091 72.7934 86.039 71.2881 83.8242 71.0266C86.0278 71.0214 88.2313 71.0162 90.4348 71.0109C90.7012 70.846 90.9228 70.8929 91.1007 71.1506C91.3371 73.3592 91.4074 75.5521 90.4479 77.6412C89.4178 77.6401 88.3877 77.639 87.3576 77.6378Z" fill="#93268C"/>
<path d="M90.4475 77.6414C90.3602 75.4243 90.4937 73.2218 90.8827 71.0361C92.0023 70.4447 93.2692 71.1289 94.3995 70.63C94.5529 70.6259 94.7064 70.6218 94.8599 70.6177C96.0255 73.2485 95.5586 75.8797 94.8617 78.5109C94.5693 78.5145 94.2769 78.5181 93.9845 78.5216C92.9223 77.759 91.564 78.1861 90.4475 77.6414Z" fill="#98258C"/>
<path d="M119.148 52.474C118.747 55.8825 117.292 59.0092 116.517 62.3187C115.972 64.6419 115.03 66.8636 114.733 69.2515C114.585 69.3979 114.436 69.5442 114.287 69.6905C114.04 70.0031 113.697 70.1331 113.321 70.2024C112.573 70.2834 111.837 70.2875 111.19 69.8123C110.827 69.1696 111.068 68.5315 111.238 67.9088C112.58 62.9932 114.125 58.1364 115.485 53.226C115.662 52.5873 115.894 51.9762 116.497 51.599C116.79 51.5969 117.084 51.5948 117.377 51.5928C117.968 51.8865 118.558 52.1803 119.148 52.474Z" fill="#D2148C"/>
<path d="M116.497 51.5991C114.73 57.6266 112.964 63.6541 111.198 69.6816C110.464 70.3269 109.729 70.3358 108.992 69.6864C110.759 63.5057 112.526 57.325 114.293 51.1443C115.068 51.0975 115.818 51.1753 116.497 51.5991Z" fill="#DA138D"/>
<path d="M104.172 48.0305C104.161 47.8957 104.147 47.761 104.131 47.6267C107.302 40.8167 111.068 34.3852 116.103 28.7554C116.326 28.5062 116.368 28.0953 116.494 27.76C117.573 27.8461 119.125 27.2344 119.624 28.0404C120.275 29.0923 118.698 29.8613 118.071 30.5918C114.581 34.6607 111.666 39.087 109.03 43.7393C108.156 45.2818 107.678 46.9749 106.788 48.4872C106.495 48.4894 106.202 48.4917 105.909 48.494C105.368 48.1983 104.607 48.7264 104.172 48.0305Z" fill="#A2238D"/>
<path d="M184.5 225.558C183.605 225.524 183.122 224.941 182.733 224.233C183.628 224.267 184.111 224.849 184.5 225.558Z" fill="#C8168C"/>
<path d="M99.2777 70.1502C100.901 70.1325 102.524 70.1149 104.147 70.0969L104.123 70.1648C104.257 70.3367 104.456 70.4881 104.488 70.7025C104.991 74.1061 104.675 77.4471 103.693 80.7342C103.054 80.7895 102.477 80.5989 101.928 80.2916C100.749 79.853 99.5696 79.4144 98.3903 78.9759C97.1583 76.231 97.8373 73.4285 98.1353 70.6363C98.3431 70.0698 98.6469 69.7239 99.2777 70.1502Z" fill="#A5228D"/>
<path d="M98.3891 70.5725C98.3897 73.3734 98.3904 76.1743 98.391 78.9753C97.2147 78.8206 96.0385 78.6657 94.8622 78.5107C94.8615 75.8792 94.861 73.2479 94.8604 70.6169C95.7446 70.5776 96.6289 70.5379 97.5133 70.4983C97.8232 70.3111 98.1182 70.2989 98.3891 70.5725Z" fill="#9D248D"/>
<path d="M103.694 80.7339C103.369 77.1915 104.376 73.7033 104.124 70.1641C104.86 70.1523 105.596 70.1401 106.333 70.128C106.462 70.0603 106.59 69.9592 106.727 69.9483C110.266 69.6657 110.382 69.7584 110.517 73.3402C110.599 75.5231 110.584 77.7088 110.527 79.8918C110.5 80.8907 110.571 81.9834 109.415 82.5301C107.445 82.1314 105.453 81.8063 103.694 80.7339Z" fill="#AB208D"/>
<path d="M109.415 82.5302C110.451 78.6302 109.643 74.6709 109.771 70.7416C109.789 70.2016 109.21 70.1499 108.758 70.144C107.949 70.1333 107.141 70.1329 106.332 70.1282C106.663 69.6291 107.185 69.7208 107.669 69.6969C108.11 69.6935 108.551 69.6899 108.992 69.6864C109.727 69.6848 110.463 69.6833 111.198 69.6816C111.935 69.6858 112.671 69.6902 113.408 69.6945C114.144 71.0254 113.597 72.4382 113.637 73.8075C113.712 76.3779 113.683 78.9525 113.645 81.5249C113.631 82.4646 113.746 83.4602 112.971 84.2198C111.842 83.537 110.424 83.4641 109.415 82.5302Z" fill="#B31D8D"/>
<path d="M112.971 84.2198C112.97 80.5908 112.993 76.9616 112.954 73.333C112.941 72.0896 113.037 70.88 113.409 69.6945C113.702 69.6932 113.995 69.6919 114.288 69.6906C115.365 69.6009 115.793 70.1928 115.601 71.1489C114.659 75.8359 115.436 80.516 115.593 85.199C114.719 84.8729 113.845 84.5464 112.971 84.2198Z" fill="#B71C8C"/>
<path d="M150.787 64.3907C150.29 63.6434 150.869 63.0889 151.235 62.6274C160.792 50.5547 177.433 51.081 186.034 62.5098C194.362 73.5754 191 88.3515 180.37 95.5538C167.384 104.352 149.99 96.8598 146.873 81.3662C145.862 76.3401 146.497 71.6862 148.509 67.1073C148.798 66.45 148.974 65.5481 150.046 65.6802C150.201 65.8109 150.28 65.9778 150.285 66.1802C150.166 66.9411 150.085 67.6993 150.472 68.4205C150.776 69.198 151.303 69.9193 151.08 70.829C147.081 82.4897 155.342 94.8807 167.589 95.587C177.277 96.1457 186.609 87.4303 187.003 77.4563C187.403 67.328 181.191 59.4791 171.229 57.7311C166.243 56.8562 161.803 58.4684 157.746 61.2981C157.085 61.7593 156.544 62.3785 155.876 62.8408C154.132 63.1976 152.41 63.629 150.787 64.3907Z" fill="#E30C8C"/>
<path d="M150.787 64.3907C152.003 62.537 153.898 62.5378 155.8 62.5549C157.508 62.447 158.554 63.4341 159.413 64.7367C161.396 68.3479 158.815 72.6446 154.119 72.8362C152.784 72.4519 151.396 72.1374 150.859 70.5906C150.557 69.842 150.254 69.0934 149.952 68.3449C149.797 67.6206 149.767 66.8976 149.975 66.1772C149.998 66.0115 150.022 65.8459 150.046 65.6803C150.293 65.2504 150.54 64.8206 150.787 64.3907Z" fill="#FEFEFE"/>
<path d="M98.3885 70.5725C98.0966 70.5483 97.8046 70.524 97.5127 70.4991C99.2918 64.2183 101.038 57.9285 102.879 51.6667C103.239 50.4423 103.196 49.0454 104.172 48.0308C104.773 48.1021 105.45 47.8891 105.908 48.494C103.93 52.9642 103.068 57.7861 101.535 62.398C100.687 64.95 100.024 67.5637 99.2778 70.1497C98.9245 70.1712 98.5911 70.2342 98.3885 70.5725Z" fill="#EB108E"/>
<path d="M94.4005 70.6299C93.3039 71.421 92.0479 70.8296 90.8838 71.0358C90.7344 71.0278 90.585 71.0195 90.4355 71.0111C91.6943 70.2305 93.0749 70.7171 94.4005 70.6299Z" fill="#9D248D"/>
<path d="M158.981 64.8189C158.298 63.5333 156.93 63.2115 155.8 62.5548C158.103 59.3636 161.569 58.1276 165.151 57.3789C172.428 55.8581 178.58 58.2263 183.194 63.8746C188.02 69.7837 188.959 76.5493 186.103 83.7028C182.888 91.7535 175.624 96.3831 167.852 96.1444C157.943 95.8402 149.531 87.4795 149.64 77.7255C149.667 75.305 149.02 72.7205 150.859 70.5905C151.877 71.226 152.744 72.1477 154.033 72.2719C154.702 73.0217 154.562 73.9004 154.448 74.7835C153.442 82.5353 158.622 89.6084 166.336 91.0226C173.159 92.2736 180.912 86.8942 182.357 79.563C184.458 68.8936 176.393 61.7081 168.516 61.8926C165.958 61.9525 163.627 62.805 161.41 64.0315C160.658 64.4476 159.968 65.1078 158.981 64.8189Z" fill="#E60A8D"/>
<path d="M149.974 66.1772C149.967 66.8998 149.959 67.6224 149.952 68.345C149.453 67.617 149.437 66.8942 149.974 66.1772Z" fill="#DF0E8C"/>
<path d="M158.981 64.8189C162.101 62.8321 165.318 61.2201 169.183 61.2846C176.592 61.4083 183.169 68.017 183.175 75.4625C183.181 82.9605 179.885 87.9953 173.524 90.6717C164.865 94.3155 155.908 88.2305 153.987 79.8748C153.387 77.2636 154.07 74.8019 154.033 72.2719C158.825 71.6078 160.402 69.2332 158.981 64.8189Z" fill="#EB0B8D"/>
<path d="M162.422 76.4977C162.43 73.1279 165.377 70.1178 168.65 70.1348C171.812 70.1513 174.805 73.1925 174.785 76.3695C174.765 79.6224 171.467 82.9734 168.319 82.9385C165.175 82.9037 162.413 79.8877 162.422 76.4977Z" fill="#EB0F8E"/>
<path d="M168.369 79.4191C166.677 79.3783 165.605 78.621 165.523 76.8281C165.435 74.8883 166.652 73.6679 168.604 73.6694C170.191 73.6707 171.625 75.0092 171.644 76.507C171.662 77.8993 169.963 79.4083 168.369 79.4191Z" fill="#EC148E"/>
</svg>
