<svg width="256" height="256" viewBox="0 0 256 256" fill="none" xmlns="http://www.w3.org/2000/svg">
<mask id="mask0_2772_9292" style="mask-type:luminance" maskUnits="userSpaceOnUse" x="4" y="41" width="247" height="173">
<path d="M4.55371 41.9512H250.649V213.548H4.55371V41.9512Z" fill="white"/>
</mask>
<g mask="url(#mask0_2772_9292)">
<path fill-rule="evenodd" clip-rule="evenodd" d="M106.737 60.7364C114.681 52.4817 125.737 47.3699 137.952 47.3699C154.237 47.3699 168.352 56.4013 175.952 69.8582C182.698 66.8478 190.005 65.2936 197.395 65.2973C226.709 65.2973 250.504 89.2305 250.504 118.763C250.504 148.296 226.709 172.229 197.395 172.229C193.812 172.229 190.319 171.87 186.899 171.191C180.249 183.022 167.537 191.06 153.061 191.06C147.168 191.071 141.349 189.737 136.052 187.158C129.311 202.963 113.614 214.072 95.3375 214.072C76.247 214.072 60.0518 202.06 53.8089 185.171C51.0303 185.757 48.1982 186.051 45.3584 186.049C22.6489 186.049 4.28223 167.444 4.28223 144.595C4.28223 129.242 12.5517 115.875 24.8203 108.65C22.2175 102.665 20.8778 96.2086 20.8846 89.6839C20.8846 63.3122 42.3275 41.998 68.7465 41.998C84.2179 41.998 98.0608 49.3586 106.747 60.7834" fill="#00A1E0"/>
</g>
<path fill-rule="evenodd" clip-rule="evenodd" d="M40.1468 131.182C39.9921 131.585 40.202 131.669 40.2517 131.74C40.7141 132.074 41.1836 132.316 41.6541 132.588C44.1693 133.916 46.5398 134.304 49.0189 134.304C54.0674 134.304 57.207 131.622 57.207 127.305V127.22C57.207 123.228 53.6603 121.774 50.3489 120.735L49.9155 120.595C47.4093 119.784 45.2469 119.078 45.2469 117.434V117.35C45.2469 115.941 46.5136 114.903 48.4679 114.903C50.6393 114.903 53.2269 115.624 54.8826 116.538C54.8826 116.538 55.373 116.854 55.5513 116.381C55.6481 116.126 56.4922 113.871 56.5827 113.618C56.6786 113.353 56.5103 113.153 56.3375 113.051C54.4375 111.895 51.8137 111.109 49.0994 111.109L48.5954 111.111C43.9721 111.111 40.7421 113.901 40.7421 117.893V117.979C40.7421 122.188 44.3069 123.56 47.6364 124.509L48.172 124.675C50.5968 125.419 52.6958 126.066 52.6958 127.764V127.849C52.6958 129.411 51.3296 130.576 49.1401 130.576C48.2887 130.576 45.5753 130.562 42.6349 128.706C42.2793 128.5 42.0766 128.351 41.8025 128.184C41.6577 128.096 41.2958 127.938 41.1384 128.411L40.1432 131.175M114.062 131.175C113.907 131.578 114.117 131.662 114.169 131.733C114.629 132.067 115.101 132.309 115.571 132.581C118.087 133.909 120.457 134.297 122.936 134.297C127.985 134.297 131.124 131.615 131.124 127.298V127.213C131.124 123.221 127.587 121.767 124.266 120.728L123.833 120.588C121.327 119.777 119.164 119.071 119.164 117.427V117.343C119.164 115.934 120.431 114.896 122.385 114.896C124.557 114.896 127.135 115.617 128.8 116.53C128.8 116.53 129.29 116.846 129.469 116.374C129.565 116.119 130.41 113.863 130.492 113.61C130.589 113.346 130.419 113.146 130.247 113.043C128.347 111.887 125.724 111.102 123.009 111.102L122.505 111.103C117.881 111.103 114.651 113.894 114.651 117.886V117.972C114.651 122.18 118.216 123.553 121.545 124.501L122.08 124.668C124.514 125.412 126.604 126.058 126.604 127.756V127.841C126.604 129.404 125.238 130.569 123.048 130.569C122.195 130.569 119.474 130.554 116.543 128.699C116.187 128.492 115.979 128.35 115.71 128.176C115.618 128.119 115.192 127.952 115.047 128.404L114.051 131.168M164.537 122.714C164.537 125.153 164.081 127.076 163.189 128.44C162.299 129.786 160.954 130.445 159.081 130.445C157.208 130.445 155.869 129.791 154.992 128.449C154.108 127.094 153.662 125.162 153.662 122.723C153.662 120.285 154.111 118.37 154.992 117.024C155.868 115.688 157.199 115.046 159.081 115.046C160.963 115.046 162.302 115.694 163.189 117.024C164.086 118.37 164.537 120.285 164.537 122.723M168.753 118.198C168.338 116.799 167.695 115.57 166.835 114.541C165.975 113.511 164.89 112.68 163.596 112.084C162.311 111.484 160.791 111.181 159.072 111.181C157.353 111.181 155.842 111.485 154.548 112.084C153.264 112.684 152.169 113.511 151.309 114.541C150.452 115.57 149.808 116.799 149.391 118.198C148.98 119.589 148.771 121.107 148.771 122.723C148.771 124.34 148.98 125.857 149.391 127.248C149.805 128.648 150.45 129.876 151.309 130.906C152.17 131.935 153.264 132.757 154.548 133.344C155.842 133.929 157.362 134.227 159.072 134.227C160.782 134.227 162.302 133.929 163.587 133.344C164.872 132.759 165.967 131.935 166.826 130.906C167.685 129.876 168.328 128.648 168.744 127.248C169.155 125.857 169.364 124.34 169.364 122.723C169.364 121.116 169.155 119.589 168.744 118.198M203.397 129.759C203.258 129.35 202.858 129.504 202.858 129.504C202.246 129.738 201.592 129.955 200.895 130.063C200.193 130.173 199.411 130.228 198.588 130.228C196.552 130.228 194.923 129.622 193.765 128.422C192.598 127.221 191.947 125.288 191.956 122.669C191.962 120.285 192.539 118.496 193.575 117.124C194.598 115.769 196.172 115.065 198.253 115.065C199.99 115.065 201.32 115.266 202.713 115.701C202.713 115.701 203.044 115.845 203.202 115.41C203.572 114.39 203.845 113.658 204.243 112.538C204.355 112.218 204.08 112.082 203.979 112.044C203.433 111.83 202.143 111.481 201.165 111.334C200.252 111.195 199.193 111.122 197.999 111.122C196.225 111.122 194.651 111.425 193.303 112.025C191.955 112.623 190.815 113.452 189.91 114.481C189.005 115.511 188.318 116.739 187.856 118.139C187.4 119.53 187.169 121.056 187.169 122.673C187.169 126.159 188.11 128.986 189.974 131.054C191.837 133.131 194.642 134.179 198.297 134.179C200.46 134.179 202.676 133.742 204.269 133.113C204.269 133.113 204.573 132.967 204.441 132.613L203.4 129.759M210.774 120.366C210.976 119.011 211.348 117.882 211.932 117.006C212.807 115.67 214.14 114.938 216.013 114.938C217.885 114.938 219.125 115.673 220.012 117.006C220.6 117.887 220.857 119.056 220.953 120.366L210.729 120.364L210.774 120.366ZM224.979 117.386C224.62 116.04 223.73 114.676 223.151 114.053C222.228 113.069 221.333 112.373 220.437 111.994C219.144 111.445 217.753 111.163 216.347 111.166C214.565 111.166 212.945 111.466 211.634 112.078C210.322 112.694 209.218 113.532 208.349 114.58C207.482 115.627 206.829 116.865 206.413 118.282C205.997 119.682 205.787 121.218 205.787 122.825C205.787 124.469 206.005 125.995 206.434 127.377C206.867 128.768 207.565 129.987 208.506 130.999C209.447 132.019 210.65 132.814 212.098 133.374C213.536 133.929 215.282 134.217 217.282 134.211C221.408 134.198 223.579 133.281 224.466 132.784C224.624 132.696 224.773 132.543 224.587 132.103L223.655 129.493C223.512 129.104 223.118 129.245 223.118 129.245C222.095 129.626 220.648 130.31 217.255 130.301C215.038 130.298 213.401 129.645 212.369 128.622C211.32 127.574 210.795 126.048 210.713 123.88L225.009 123.891C225.009 123.891 225.385 123.887 225.424 123.521C225.439 123.369 225.913 120.594 224.998 117.388L224.979 117.386ZM96.5026 120.366C96.7043 119.011 97.0771 117.882 97.6607 117.006C98.5365 115.67 99.8683 114.938 101.741 114.938C103.614 114.938 104.854 115.673 105.74 117.006C106.327 117.887 106.584 119.056 106.681 120.366L96.4573 120.364L96.5026 120.366ZM110.707 117.386C110.349 116.04 109.459 114.676 108.88 114.053C107.957 113.069 107.061 112.373 106.165 111.994C104.872 111.445 103.481 111.163 102.076 111.166C100.294 111.166 98.674 111.466 97.3621 112.078C96.0502 112.694 94.9464 113.532 94.0778 114.58C93.212 115.627 92.5578 116.865 92.1416 118.282C91.7263 119.682 91.5173 121.218 91.5173 122.825C91.5173 124.469 91.7336 125.995 92.1652 127.377C92.5976 128.768 93.2961 129.987 94.228 130.999C95.169 132.019 96.3723 132.814 97.8199 133.374C99.2585 133.929 100.996 134.217 103.004 134.211C107.13 134.198 109.301 133.281 110.188 132.784C110.345 132.696 110.496 132.543 110.308 132.103L109.376 129.493C109.233 129.104 108.838 129.245 108.838 129.245C107.816 129.626 106.368 130.31 102.975 130.301C100.768 130.298 99.121 129.645 98.0895 128.622C97.04 127.574 96.5153 126.048 96.4338 123.88L110.729 123.891C110.729 123.891 111.105 123.887 111.144 123.521C111.16 123.369 111.634 120.594 110.717 117.388L110.707 117.386ZM65.6502 129.668C65.0902 129.222 65.0124 129.113 64.8269 128.823C64.5437 128.387 64.3989 127.766 64.3989 126.972C64.3989 125.725 64.8151 124.822 65.6746 124.217C65.6656 124.219 66.9051 123.151 69.8184 123.187C71.1152 123.211 72.4089 123.321 73.6908 123.517V129.993H73.6926C73.6926 129.993 71.8831 130.382 69.8384 130.505C66.9341 130.679 65.6493 129.67 65.6583 129.673L65.6502 129.668ZM71.3321 119.643C70.7531 119.601 70.0021 119.58 69.1064 119.58C67.885 119.58 66.6997 119.732 65.5959 120.03C64.4831 120.33 63.4788 120.794 62.6193 121.412C61.7574 122.026 61.0485 122.829 60.5473 123.76C60.0416 124.699 59.7837 125.801 59.7837 127.047C59.7837 128.312 60.0036 129.405 60.4379 130.299C60.8634 131.186 61.5041 131.952 62.3017 132.529C63.0952 133.106 64.075 133.532 65.206 133.785C66.3279 134.04 67.5945 134.17 68.9879 134.17C70.4536 134.17 71.9103 134.047 73.3217 133.809C74.5238 133.602 75.7214 133.37 76.9136 133.112C77.3895 133.003 77.9179 132.859 77.9179 132.859C78.2707 132.77 78.2436 132.393 78.2436 132.393L78.2354 119.388C78.2354 116.534 77.4718 114.412 75.9645 113.102C74.4626 111.792 72.264 111.133 69.414 111.133C68.3464 111.133 66.6183 111.278 65.5869 111.484C65.5869 111.484 62.4745 112.088 61.1897 113.092C61.1897 113.092 60.9074 113.265 61.0613 113.658L62.0746 116.368C62.2003 116.719 62.5433 116.599 62.5433 116.599C62.5433 116.599 62.6509 116.557 62.7776 116.482C65.519 114.991 68.9933 115.037 68.9933 115.037C70.5314 115.037 71.7257 115.348 72.5219 115.958C73.3009 116.555 73.6981 117.457 73.6981 119.354V119.956C72.4766 119.779 71.3457 119.677 71.3457 119.677L71.3321 119.643ZM186.237 112.301C186.257 112.253 186.268 112.202 186.269 112.15C186.269 112.098 186.259 112.047 186.239 111.999C186.219 111.951 186.189 111.908 186.152 111.872C186.115 111.835 186.071 111.807 186.022 111.788C185.779 111.696 184.566 111.44 183.634 111.382C181.842 111.27 180.847 111.572 179.951 111.973C179.067 112.371 178.088 113.012 177.545 113.752L177.543 112.018C177.543 111.78 177.374 111.587 177.133 111.587H173.478C173.241 111.587 173.069 111.78 173.069 112.018V133.242C173.069 133.357 173.115 133.467 173.196 133.548C173.277 133.629 173.387 133.674 173.502 133.675H177.248C177.363 133.674 177.473 133.629 177.554 133.548C177.635 133.467 177.681 133.357 177.681 133.242V122.585C177.681 121.158 177.838 119.74 178.152 118.846C178.461 117.962 178.882 117.256 179.4 116.751C179.895 116.262 180.5 115.9 181.165 115.694C181.788 115.515 182.434 115.425 183.083 115.425C183.829 115.425 184.648 115.616 184.648 115.616C184.923 115.647 185.076 115.479 185.169 115.232C185.414 114.58 186.11 112.631 186.246 112.242" fill="#FFFFFE"/>
<path fill-rule="evenodd" clip-rule="evenodd" d="M151.252 102.505C150.789 102.366 150.318 102.254 149.842 102.171C149.201 102.064 148.552 102.014 147.902 102.021C145.321 102.021 143.286 102.749 141.857 104.187C140.439 105.614 139.473 107.788 138.989 110.648L138.815 111.613H135.575C135.575 111.613 135.179 111.597 135.096 112.028L134.564 114.99C134.527 115.274 134.649 115.451 135.029 115.449H138.183L134.983 133.28C134.732 134.716 134.445 135.897 134.128 136.792C133.815 137.675 133.509 138.337 133.133 138.818C132.768 139.283 132.422 139.625 131.826 139.825C131.334 139.99 130.768 140.066 130.147 140.066C129.801 140.066 129.342 140.008 129.002 139.94C128.663 139.874 128.487 139.798 128.232 139.691C128.232 139.691 127.862 139.55 127.717 139.921C127.598 140.223 126.758 142.531 126.658 142.816C126.557 143.098 126.699 143.32 126.878 143.384C127.298 143.534 127.61 143.63 128.182 143.764C128.976 143.951 129.646 143.963 130.273 143.963C131.586 143.963 132.783 143.779 133.776 143.421C134.775 143.061 135.644 142.433 136.413 141.583C137.245 140.667 137.768 139.707 138.268 138.397C138.763 137.099 139.185 135.488 139.522 133.61L142.738 115.449H147.439C147.439 115.449 147.835 115.464 147.917 115.035L148.449 112.072C148.486 111.789 148.365 111.612 147.983 111.613H143.421C143.443 111.51 143.651 109.908 144.174 108.4C144.398 107.756 144.819 107.237 145.175 106.88C145.508 106.54 145.918 106.286 146.37 106.138C146.866 105.985 147.383 105.91 147.902 105.917C148.332 105.917 148.753 105.969 149.075 106.036C149.517 106.13 149.689 106.179 149.805 106.214C150.27 106.355 150.332 106.218 150.424 105.993L151.515 103.002C151.627 102.68 151.354 102.545 151.252 102.505ZM87.4901 133.318C87.4901 133.556 87.3201 133.75 87.0812 133.75H83.2966C83.0568 133.75 82.8867 133.556 82.8867 133.318V102.911C82.8867 102.673 83.0568 102.481 83.2966 102.481H87.0812C87.3201 102.481 87.4901 102.673 87.4901 102.911V133.318Z" fill="#FFFFFE"/>
</svg>
