<svg width="512" height="512" viewBox="0 0 512 512" fill="none" xmlns="http://www.w3.org/2000/svg">
<g clip-path="url(#clip0_2763_4480)">
<path d="M345.94 325.078C336.652 324.79 327.598 328.067 320.576 334.257C313.554 340.446 309.079 349.096 308.038 358.488C307.992 358.67 307.988 358.86 308.026 359.044C308.065 359.227 308.145 359.399 308.261 359.546C308.376 359.693 308.523 359.81 308.691 359.889C308.859 359.968 309.042 360.005 309.227 359.999H382.802C382.971 360.001 383.139 359.965 383.294 359.895C383.449 359.825 383.587 359.722 383.7 359.594C383.812 359.465 383.896 359.313 383.947 359.148C383.997 358.984 384.012 358.81 383.991 358.639C383.267 349.077 378.867 340.191 371.743 333.908C364.62 327.625 355.349 324.452 345.94 325.078Z" fill="#01A71C"/>
<path d="M505.209 75.6501L347.608 252.5C347.158 252.986 346.613 253.374 346.006 253.64C345.399 253.905 344.743 254.042 344.081 254.042C343.418 254.042 342.763 253.905 342.156 253.64C341.549 253.374 341.003 252.986 340.553 252.5L260.102 169.55C259.42 168.699 259.048 167.64 259.048 166.55C259.048 165.459 259.42 164.401 260.102 163.55L286.669 129.5C287.113 128.88 287.699 128.376 288.378 128.028C289.057 127.68 289.808 127.498 290.571 127.498C291.334 127.498 292.086 127.68 292.765 128.028C293.443 128.376 294.029 128.88 294.474 129.5L339.503 179.3C339.954 179.836 340.516 180.267 341.152 180.563C341.787 180.859 342.479 181.012 343.18 181.012C343.881 181.012 344.573 180.859 345.209 180.563C345.844 180.267 346.407 179.836 346.857 179.3L472.338 7.40004C472.687 6.89204 472.894 6.29986 472.936 5.68508C472.979 5.0703 472.856 4.45534 472.58 3.90415C472.304 3.35296 471.886 2.88564 471.368 2.55079C470.85 2.21593 470.252 2.02576 469.636 2.00004L3.99886 0C3.00366 0 2.04922 0.395088 1.34551 1.09835C0.641795 1.80161 0.246452 2.75544 0.246452 3.75L-0.251953 508.25C-0.251953 509.245 0.143386 510.199 0.847099 510.902C1.55081 511.605 2.50525 512 3.50045 512H508.061C509.056 512 510.01 511.605 510.714 510.902C511.418 510.199 511.813 509.245 511.813 508.25V77.9001C512.111 77.0249 512.05 76.067 511.642 75.2371C511.234 74.4073 510.513 73.7734 509.637 73.4751C508.761 73.1767 507.802 73.2382 506.972 73.6461C506.142 74.054 505.508 74.7748 505.209 75.6501ZM159.987 456.05C128.456 457.638 97.5482 446.876 73.8318 426.05C73.0825 425.201 72.6691 424.108 72.6691 422.975C72.6691 421.843 73.0825 420.75 73.8318 419.9L92.5938 393.65C92.9036 393.113 93.3179 392.642 93.8124 392.267C94.3068 391.892 94.8714 391.62 95.4729 391.466C96.0743 391.312 96.7005 391.28 97.3145 391.372C97.9285 391.464 98.5179 391.677 99.0479 392C116.187 407.88 138.717 416.672 162.089 416.6C186.705 416.6 198.712 405.2 198.712 393.2C198.712 356 77.4341 381.5 77.4341 302.3C77.4341 267.35 107.454 238.25 157.286 238.25C185.883 237.234 213.88 246.614 236.086 264.65C236.921 265.517 237.387 266.673 237.387 267.875C237.387 269.078 236.921 270.234 236.086 271.1L217.624 296.75C217.243 297.26 216.761 297.687 216.208 298.003C215.655 298.32 215.043 298.519 214.41 298.59C213.777 298.66 213.136 298.599 212.527 298.412C211.918 298.225 211.354 297.914 210.87 297.5C194.496 284.494 174.148 277.504 153.233 277.7C134.021 277.7 123.214 286.25 123.214 298.85C123.214 332.3 244.191 309.95 244.191 388.85C244.191 426.95 216.724 456.05 159.837 456.05H159.987ZM424.457 383C424.478 383.557 424.384 384.113 424.18 384.632C423.977 385.151 423.668 385.623 423.273 386.017C422.879 386.411 422.407 386.72 421.887 386.923C421.368 387.127 420.812 387.221 420.255 387.2H309.183C309.005 387.219 308.833 387.273 308.676 387.358C308.519 387.444 308.381 387.56 308.269 387.7C308.158 387.839 308.075 387.999 308.025 388.171C307.976 388.343 307.962 388.523 307.982 388.7C309.784 399.073 315.404 408.396 323.737 414.836C332.07 421.276 342.513 424.367 353.011 423.5C366.788 423.209 380.165 418.822 391.436 410.9C391.876 410.532 392.389 410.261 392.942 410.105C393.494 409.95 394.073 409.914 394.641 409.999C395.208 410.084 395.752 410.288 396.234 410.599C396.717 410.91 397.128 411.319 397.44 411.8L410.949 431.45C411.512 432.323 411.731 433.373 411.565 434.398C411.398 435.423 410.858 436.35 410.048 437C392.214 450.006 370.579 456.756 348.509 456.2C337.483 456.815 326.451 455.12 316.12 451.225C305.788 447.33 296.385 441.32 288.513 433.58C280.642 425.841 274.476 416.543 270.41 406.283C266.345 396.023 264.469 385.027 264.905 374C264.599 363.238 266.479 352.526 270.433 342.51C274.386 332.495 280.33 323.384 287.906 315.729C295.482 308.074 304.532 302.034 314.51 297.972C324.487 293.911 335.185 291.913 345.957 292.1C392.637 292.1 424.307 327.05 424.307 378.2L424.457 383Z" fill="#01A71C"/>
</g>
<defs>
<clipPath id="clip0_2763_4480">
<rect width="512" height="512" fill="white"/>
</clipPath>
</defs>
</svg>
