<svg width="256" height="256" viewBox="0 0 256 256" fill="none" xmlns="http://www.w3.org/2000/svg">
<rect width="256" height="256" fill="black"/>
<path d="M210.382 142.304C213.528 139.202 218.593 139.237 221.696 142.382C224.798 145.528 224.763 150.593 221.618 153.696L148.618 225.696C145.472 228.798 140.407 228.763 137.304 225.618C134.202 222.472 134.237 217.407 137.382 214.304L210.382 142.304Z" fill="white"/>
<path d="M195.843 62.3431C198.967 59.219 204.032 59.219 207.157 62.3431C210.281 65.4673 210.281 70.5324 207.157 73.6566L69.6566 211.157C66.5324 214.281 61.4673 214.281 58.3431 211.157C55.219 208.032 55.219 202.967 58.3431 199.843L195.843 62.3431Z" fill="white"/>
</svg>
