<svg width="256" height="256" viewBox="0 0 256 256" fill="none" xmlns="http://www.w3.org/2000/svg">
<rect width="256" height="256" fill="white"/>
<path d="M223.074 25.5463C219.855 33.2665 215.69 40.5567 210.672 47.2492C199.93 36.1363 187.068 27.2909 172.848 21.2364C158.627 15.1819 143.336 12.0413 127.88 12.0004C112.424 11.9595 97.117 15.0192 82.8643 20.9984C68.6117 26.9776 55.7032 35.7548 44.9025 46.8108C34.1018 57.8667 25.6285 70.9767 19.9838 85.3651C14.3391 99.7535 11.6377 115.128 12.0396 130.579C12.4414 146.029 15.9382 161.243 22.3232 175.318C28.7082 189.394 37.8516 202.046 49.2123 212.525L53.5052 216.341C69.796 230.08 89.5717 239.042 110.642 242.235C131.713 245.428 153.256 242.726 172.885 234.43C192.515 226.134 209.466 212.566 221.86 195.23C234.254 177.894 241.608 157.465 243.107 136.207C246.446 107.111 237.622 69.9061 223.074 25.5463ZM65.9069 213.479C64.6806 214.986 63.0352 216.096 61.1786 216.668C59.322 217.24 57.3374 217.248 55.4758 216.693C53.6142 216.137 51.959 215.042 50.7194 213.546C49.4799 212.051 48.7116 210.221 48.5117 208.288C48.3118 206.356 48.6892 204.408 49.5963 202.69C50.5034 200.972 51.8994 199.561 53.6079 198.636C55.3163 197.711 57.2607 197.314 59.1951 197.493C61.1295 197.673 62.9672 198.423 64.4759 199.646C66.4537 201.322 67.7071 203.697 67.9738 206.275C68.2405 208.853 67.4998 211.435 65.9069 213.479ZM222.359 178.898C193.978 216.818 132.923 203.939 94.0491 205.847C94.0491 205.847 87.1328 206.324 80.2165 207.278C80.2165 207.278 82.8399 206.086 86.1788 204.893C113.606 195.354 126.484 193.446 143.179 184.86C174.421 168.881 205.664 133.822 211.865 97.5713C199.94 132.391 163.689 162.442 130.777 174.605C108.12 182.952 67.3378 191.061 67.3378 191.061L65.6684 190.107C38.0031 176.513 37.0492 116.412 87.6097 97.0943C109.79 88.5086 130.777 93.2784 154.865 87.5546C180.384 81.5923 209.957 62.5128 221.882 37.471C235.237 77.7764 251.455 140.262 222.359 178.898Z" fill="#6DB33F"/>
</svg>
