<svg width="256" height="256" viewBox="0 0 256 256" fill="none" xmlns="http://www.w3.org/2000/svg">
<g clip-path="url(#clip0_2928_10502)">
<path d="M101.75 93C101.75 91.9064 101.228 90.5137 99.5444 88.875C97.8493 87.2248 95.2011 85.5662 91.624 84.0933C84.4875 81.1547 74.3695 79.25 63 79.25C51.6305 79.25 41.5125 81.1547 34.376 84.0933C30.7989 85.5662 28.1507 87.2248 26.4556 88.875C24.7723 90.5137 24.25 91.9064 24.25 93C24.25 94.0936 24.7723 95.4863 26.4556 97.125C28.1507 98.7752 30.7989 100.434 34.376 101.907C41.5125 104.845 51.6305 106.75 63 106.75C74.3695 106.75 84.4875 104.845 91.624 101.907C95.2011 100.434 97.8493 98.7752 99.5444 97.125C101.228 95.4863 101.75 94.0936 101.75 93ZM109.25 93C109.25 96.7389 107.394 99.9499 104.776 102.499C102.17 105.036 98.5938 107.148 94.48 108.842C86.2345 112.237 75.1026 114.25 63 114.25C50.8974 114.25 39.7655 112.237 31.52 108.842C27.4062 107.148 23.8302 105.036 21.2241 102.499C18.6062 99.9499 16.75 96.7389 16.75 93C16.75 89.2611 18.6062 86.0501 21.2241 83.5015C23.8302 80.9644 27.4062 78.8522 31.52 77.1582C39.7655 73.763 50.8974 71.75 63 71.75C75.1026 71.75 86.2345 73.763 94.48 77.1582C98.5938 78.8522 102.17 80.9644 104.776 83.5015C107.394 86.0501 109.25 89.2611 109.25 93Z" fill="#DF6C20"/>
<path d="M24.25 93V117.798C24.3769 118.858 25.0323 120.282 26.8428 121.944C28.7197 123.666 31.5753 125.388 35.3936 126.909C39.1877 128.421 43.7191 129.649 48.7402 130.494C53.7556 131.339 59.1123 131.776 64.4956 131.776C69.8795 131.776 75.1522 131.338 80.0054 130.497C84.8668 129.654 89.1512 128.434 92.6357 126.945C96.1507 125.442 98.6022 123.773 100.076 122.169C101.195 120.952 101.646 119.9 101.75 119.021V93H109.25V117.873C109.285 118.382 109.284 118.884 109.25 119.379V142.873C109.285 143.382 109.284 143.884 109.25 144.379V167.873C109.49 171.397 108.029 174.6 105.598 177.245C103.163 179.894 99.6836 182.088 95.5835 183.841C91.4528 185.606 86.587 186.968 81.2861 187.887C75.977 188.807 70.274 189.276 64.4956 189.276C58.7166 189.276 52.9427 188.807 47.4951 187.89C42.0534 186.974 36.9942 185.62 32.6177 183.876C28.2652 182.143 24.5296 180.001 21.772 177.47C19.0157 174.941 17.0651 171.851 16.7637 168.319L16.75 168.16V93H24.25ZM24.25 167.798C24.3769 168.858 25.0323 170.282 26.8428 171.944C28.7197 173.666 31.5753 175.388 35.3936 176.909C39.1877 178.421 43.7191 179.649 48.7402 180.494C53.7556 181.339 59.1123 181.776 64.4956 181.776C69.8795 181.776 75.1522 181.338 80.0054 180.497C84.8668 179.654 89.1512 178.434 92.6357 176.945C96.1507 175.442 98.6022 173.773 100.076 172.169C101.51 170.609 101.849 169.323 101.764 168.319L101.75 168.16V155.521C99.9325 156.764 97.8533 157.871 95.5835 158.841C91.4528 160.606 86.587 161.968 81.2861 162.887C75.977 163.807 70.274 164.276 64.4956 164.276C58.7166 164.276 52.9427 163.807 47.4951 162.89C42.0534 161.974 36.9942 160.62 32.6177 158.876C29.4569 157.617 26.6218 156.143 24.25 154.46V167.798ZM24.25 142.798C24.3769 143.858 25.0323 145.282 26.8428 146.944C28.7197 148.666 31.5753 150.388 35.3936 151.909C39.1877 153.421 43.7191 154.649 48.7402 155.494C53.7556 156.339 59.1123 156.776 64.4956 156.776C69.8795 156.776 75.1522 156.338 80.0054 155.497C84.8668 154.654 89.1512 153.434 92.6357 151.945C96.1507 150.442 98.6022 148.773 100.076 147.169C101.195 145.952 101.646 144.9 101.75 144.021V130.521C99.9325 131.764 97.8533 132.871 95.5835 133.841C91.4528 135.606 86.587 136.968 81.2861 137.887C75.977 138.807 70.274 139.276 64.4956 139.276C58.7166 139.276 52.9427 138.807 47.4951 137.89C42.0534 136.974 36.9942 135.62 32.6177 133.876C29.4569 132.617 26.6218 131.143 24.25 129.46V142.798Z" fill="#DF6C20"/>
<path d="M140.5 101.75C142.634 101.75 144.747 102.17 146.718 102.987C148.69 103.803 150.481 105 151.99 106.509C153.499 108.018 154.696 109.81 155.513 111.781C156.329 113.753 156.75 115.866 156.75 118H149.25C149.25 116.851 149.024 115.713 148.584 114.651C148.144 113.59 147.499 112.625 146.687 111.813C145.874 111 144.91 110.356 143.848 109.916C142.787 109.476 141.649 109.25 140.5 109.25C139.351 109.25 138.213 109.476 137.151 109.916C136.09 110.356 135.125 111 134.312 111.813C133.5 112.625 132.856 113.59 132.416 114.651C131.976 115.713 131.75 116.851 131.75 118V118.063L131.747 118.125C131.698 119.616 131.93 121.077 132.404 122.384C132.879 123.692 133.568 124.766 134.358 125.557C135.145 126.344 135.998 126.818 136.823 127.033C137.639 127.246 138.482 127.22 139.313 126.943L139.873 126.756L140.463 126.75C142.411 126.731 144.314 127.197 146.051 128.084C147.783 128.969 149.295 130.244 150.527 131.784C151.759 133.323 152.699 135.111 153.326 137.029C153.953 138.947 154.263 140.983 154.25 143.024L154.248 143.199L154.231 143.373C153.801 147.678 151.678 151.635 148.33 154.375C144.981 157.115 140.682 158.412 136.377 157.981C132.072 157.551 128.115 155.428 125.375 152.08C122.635 148.731 121.338 144.432 121.768 140.127L129.231 140.873C128.999 143.199 129.7 145.521 131.18 147.33C132.66 149.139 134.797 150.286 137.123 150.519C139.449 150.751 141.771 150.05 143.58 148.57C145.344 147.127 146.478 145.057 146.749 142.798C146.739 141.602 146.548 140.434 146.197 139.359C145.828 138.23 145.299 137.254 144.671 136.469C144.044 135.686 143.344 135.123 142.639 134.763C142.088 134.481 141.529 134.321 140.979 134.269C138.997 134.799 136.93 134.812 134.932 134.291C132.702 133.71 130.699 132.504 129.055 130.86C127.416 129.221 126.167 127.182 125.354 124.944C124.547 122.719 124.177 120.317 124.251 117.919C124.262 115.813 124.68 113.728 125.487 111.781C126.303 109.81 127.5 108.018 129.009 106.509C130.518 105 132.31 103.803 134.281 102.987C136.253 102.17 138.366 101.75 140.5 101.75Z" fill="#DF6C20"/>
<path d="M177.352 103.556C184.211 101.27 191.68 101.652 198.27 104.626C204.86 107.601 210.088 112.948 212.911 119.605C215.734 126.261 215.946 133.737 213.503 140.542C211.557 145.965 208.04 150.645 203.447 154.013L208.499 160.75L202.499 165.25L187.499 145.25L193.499 140.75L198.946 148.012C202.372 145.519 204.997 142.042 206.444 138.009C208.249 132.979 208.093 127.453 206.006 122.533C203.92 117.614 200.056 113.661 195.185 111.462C190.314 109.264 184.793 108.981 179.724 110.671C174.654 112.361 170.407 115.9 167.829 120.581C165.251 125.262 164.532 130.743 165.814 135.931C167.097 141.119 170.287 145.633 174.749 148.574C179.212 151.515 184.618 152.666 189.891 151.799L191.108 159.2C183.973 160.373 176.659 158.815 170.622 154.836C164.585 150.857 160.269 144.75 158.534 137.731C156.798 130.712 157.772 123.297 161.259 116.963C164.747 110.63 170.493 105.843 177.352 103.556Z" fill="#DF6C20"/>
<path d="M219.25 143V103H226.75V143C226.75 145.321 227.672 147.546 229.313 149.187C230.954 150.828 233.179 151.75 235.5 151.75H245.5V159.25H235.5C231.19 159.25 227.057 157.538 224.009 154.491C221.057 151.538 219.358 147.567 219.255 143.403L219.25 143Z" fill="#DF6C20"/>
</g>
<defs>
<clipPath id="clip0_2928_10502">
<rect width="250" height="120" fill="white" transform="translate(3 68)"/>
</clipPath>
</defs>
</svg>
