<svg width="256" height="256" viewBox="0 0 256 256" fill="none" xmlns="http://www.w3.org/2000/svg">
<rect width="256" height="256" fill="white"/>
<path d="M187.358 22.2949H41.7448C37.0426 22.308 32.5368 24.1818 29.2118 27.5067C25.8869 30.8317 24.0131 35.3375 24 40.0397V200.63C24.0131 205.332 25.8869 209.838 29.2118 213.163C32.5368 216.488 37.0426 218.361 41.7448 218.374H137.654C136.56 170.652 152.863 78.0406 187.358 22.2949Z" fill="#0F80CC"/>
<path d="M182.071 27.4756H41.7454C38.4144 27.48 35.221 28.8052 32.8656 31.1606C30.5102 33.516 29.185 36.7093 29.1807 40.0403V188.911C65.1811 175.333 103.183 167.816 141.642 166.666C151.814 119.372 165.324 72.8591 182.071 27.4756Z" fill="url(#paint0_linear_2662_8575)"/>
<path d="M221.323 17.041C211.377 8.14791 199.277 11.7201 187.342 22.2957C185.576 23.8704 183.811 25.6109 182.054 27.4757C159.602 54.0289 144.078 85.73 136.867 119.747C139.093 124.603 140.852 129.659 142.122 134.848C142.42 136.008 142.694 137.102 142.951 138.03C143.465 140.227 143.78 141.652 143.78 141.652C143.78 141.652 143.597 140.964 142.843 138.785L142.354 137.376C142.271 137.152 142.163 136.887 142.039 136.597C140.713 133.505 137.066 126.982 135.409 124.165C134.024 128.251 132.798 132.071 131.778 135.527C135.22 142.929 137.747 150.722 139.304 158.734C139.304 158.734 139.055 157.781 137.887 154.466C135.641 149.624 133.152 144.899 130.427 140.31C128.666 144.856 127.919 149.733 128.239 154.598C130.065 158.238 131.437 162.087 132.325 166.061C135.094 176.694 137.016 189.649 137.016 189.649C137.016 189.649 137.083 190.477 137.182 191.828C136.818 200.686 136.998 209.557 137.721 218.392C138.132 227.139 139.761 235.787 142.561 244.085L144.053 243.256C140.58 230.785 139.241 217.816 140.091 204.899C141.651 177.513 147.059 150.483 156.154 124.604C172.813 80.6106 195.936 45.3034 217.071 28.462C197.793 45.867 171.702 102.226 163.886 123.095C155.656 144.583 149.403 166.776 145.205 189.4C150.202 176.774 159.985 166.634 172.423 161.187C172.423 161.187 182.642 148.581 194.585 130.579C186.87 132.189 179.247 134.217 171.752 136.655C165.95 139.091 164.384 139.92 164.384 139.92C175.459 133.251 187.159 127.679 199.318 123.286C221.497 88.3517 245.665 38.7475 221.331 16.9996" fill="#003B57"/>
<defs>
<linearGradient id="paint0_linear_2662_8575" x1="105.448" y1="31.1178" x2="105.448" y2="180.291" gradientUnits="userSpaceOnUse">
<stop stop-color="#97D9F6"/>
<stop offset="0.92" stop-color="#0F80CC"/>
<stop offset="1" stop-color="#0F80CC"/>
</linearGradient>
</defs>
</svg>
