<svg width="256" height="256" viewBox="0 0 256 256" fill="none" xmlns="http://www.w3.org/2000/svg">
<rect width="256" height="256" fill="white"/>
<path d="M211.901 42.6562C190.48 11.8033 147.837 2.76363 117.18 22.2186L63.1386 56.8053C48.3999 66.0415 38.1811 81.1732 35.2334 98.27C32.6787 112.616 34.8404 127.354 41.7184 140.128C37.002 147.202 33.8578 155.063 32.4822 163.317C29.338 180.806 33.4648 198.886 43.6836 213.231C65.3002 244.084 107.747 253.124 138.404 233.669L192.446 199.279C207.184 190.043 217.403 174.911 220.351 157.814C222.905 143.468 220.744 128.73 213.866 115.956C218.582 108.882 221.726 101.021 223.102 92.7676C226.443 75.0812 222.316 57.0018 211.901 42.6562Z" fill="#FF3E00"/>
<path d="M111.874 216.179C94.3846 220.699 76.1087 213.821 65.8899 199.082C59.6014 190.436 57.2432 179.627 59.0118 169.016C59.4049 167.247 59.7979 165.675 60.1909 163.906L61.1735 160.762L63.9247 162.727C70.4097 167.443 77.4843 170.981 85.1484 173.339L87.1135 173.928L86.917 175.894C86.7205 178.645 87.5065 181.593 89.0787 183.951C92.2229 188.471 97.7253 190.632 103.031 189.257C104.21 188.864 105.389 188.471 106.372 187.881L160.217 153.491C162.968 151.722 164.737 149.168 165.327 146.023C165.916 142.879 165.13 139.538 163.361 136.984C160.217 132.464 154.715 130.499 149.409 131.874C148.23 132.267 147.051 132.66 146.068 133.25L125.434 146.416C122.093 148.578 118.359 150.15 114.429 151.133C96.9393 155.653 78.6634 148.775 68.4446 134.036C62.3526 125.389 59.7979 114.581 61.7631 103.969C63.5317 93.7503 69.8202 84.5141 78.6634 79.0117L132.705 44.6215C136.046 42.4599 139.78 40.8877 143.71 39.7086C161.2 35.1888 179.476 42.0668 189.694 56.8055C195.983 65.4521 198.341 76.2605 196.572 86.8723C196.179 88.6409 195.786 90.213 195.197 91.9817L194.214 95.1259L191.463 93.1608C184.978 88.4444 177.904 84.9071 170.239 82.5489L168.274 81.9594L168.471 79.9942C168.667 77.243 167.881 74.2953 166.309 71.9371C163.165 67.4173 157.662 65.4521 152.357 66.8277C151.177 67.2208 149.998 67.6138 149.016 68.2033L95.1706 102.593C92.4194 104.362 90.6508 106.917 90.0612 110.061C89.4717 113.205 90.2578 116.546 92.0264 119.101C95.1706 123.621 100.673 125.586 105.979 124.21C107.158 123.817 108.337 123.424 109.32 122.835L129.954 109.668C133.295 107.506 137.028 105.934 140.959 104.755C158.449 100.235 176.724 107.113 186.943 121.852C193.232 130.499 195.59 141.307 193.821 151.919C192.053 162.138 185.764 171.374 176.921 176.876L122.879 211.266C119.539 213.428 115.805 215 111.874 216.179Z" fill="white"/>
</svg>
