<svg width="256" height="256" viewBox="0 0 256 256" fill="none" xmlns="http://www.w3.org/2000/svg">
<rect width="256" height="256" fill="white"/>
<path fill-rule="evenodd" clip-rule="evenodd" d="M128 56.8611C97.0667 56.8611 77.7333 72.3278 70 103.261C81.6 87.7944 95.1333 81.9944 110.6 85.8611C119.425 88.0651 125.732 94.4709 132.713 101.555C144.085 113.1 157.249 126.461 186 126.461C216.933 126.461 236.267 110.994 244 80.0611C232.4 95.5277 218.867 101.328 203.4 97.4611C194.575 95.2571 188.268 88.8513 181.287 81.7667C169.915 70.2226 156.751 56.8611 128 56.8611ZM70 126.461C39.0667 126.461 19.7333 141.928 12 172.861C23.6 157.394 37.1333 151.594 52.6 155.461C61.4246 157.669 67.7316 164.071 74.713 171.155C86.0853 182.7 99.2492 196.061 128 196.061C158.933 196.061 178.267 180.594 186 149.661C174.4 165.128 160.867 170.928 145.4 167.061C136.575 164.857 130.268 158.451 123.287 151.367C111.915 139.823 98.7508 126.461 70 126.461Z" fill="#38BDF8"/>
</svg>
