<svg width="256" height="256" viewBox="0 0 256 256" fill="none" xmlns="http://www.w3.org/2000/svg">
<g clip-path="url(#clip0_2930_6948)">
<path d="M99.9625 16.8623L127.261 60.0723C128.26 61.6485 128.817 63.4639 128.875 65.329C128.932 67.1941 128.488 69.0404 127.588 70.6751C126.688 72.3098 125.366 73.6728 123.759 74.622C122.153 75.5711 120.321 76.0714 118.455 76.0707H107.29V140.76H91.1465V12C94.5298 12 97.9132 13.624 99.9625 16.8623Z" fill="#8FBCFA"/>
<path d="M55.0636 60.0821L82.3623 16.8624C83.296 15.3682 84.5959 14.1372 86.1388 13.2862C87.6816 12.4353 89.4163 11.9926 91.1783 12.0001V140.76C85.4272 140.435 79.736 142.071 75.035 145.4V76.0708H63.8699C55.6533 76.0708 50.675 67.0228 55.0636 60.0821Z" fill="#468BFF"/>
<path d="M176.718 183.49H108.78C112.869 179.072 115.257 173.35 115.547 167.347H240.788C240.788 170.73 239.164 174.113 235.936 176.163L192.706 203.452C191.13 204.448 189.316 205.003 187.452 205.059C185.589 205.115 183.744 204.671 182.111 203.771C180.478 202.872 179.116 201.55 178.167 199.945C177.219 198.34 176.718 196.51 176.718 194.645V183.49Z" fill="#FDBB11"/>
<path d="M192.706 131.235L235.916 158.533C239.164 160.583 240.779 163.966 240.779 167.349H115.547C115.822 161.585 114.143 155.897 110.781 151.206H176.727V140.051C176.727 131.834 185.766 126.846 192.706 131.235Z" fill="#F6D785"/>
<path d="M54.4793 201.516L15.0586 240.937C16.2979 242.189 17.8363 243.103 19.5279 243.594C21.2196 244.084 23.0086 244.135 24.7253 243.74L74.5859 232.479C76.4058 232.07 78.0825 231.18 79.4412 229.902C80.7999 228.624 81.7906 227.005 82.3101 225.213C82.8295 223.422 82.8586 221.524 82.3943 219.717C81.9301 217.911 80.9894 216.262 79.6706 214.943L71.7826 207.055L101.488 177.34C104.404 174.422 106.042 170.465 106.042 166.339C106.042 162.214 104.404 158.257 101.488 155.339L101.082 154.923L54.4793 201.516Z" fill="#FF9A9D"/>
<path d="M48.9495 184.232L78.6552 154.517C80.1004 153.072 81.8162 151.925 83.7045 151.143C85.5928 150.361 87.6167 149.958 89.6607 149.958C91.7046 149.958 93.7286 150.361 95.6169 151.143C97.5052 151.925 99.221 153.072 100.666 154.517L101.072 154.933L54.4982 201.516L15.0582 240.947C13.8082 239.706 12.8955 238.168 12.4066 236.476C11.9178 234.784 11.8688 232.996 12.2645 231.28L23.5262 181.419C23.9351 179.599 24.8249 177.923 26.1028 176.564C27.3807 175.205 28.9999 174.215 30.7913 173.695C32.5827 173.176 34.4807 173.147 36.2873 173.611C38.0938 174.075 39.7425 175.016 41.0615 176.335L48.9495 184.232Z" fill="#FE363B"/>
</g>
<defs>
<clipPath id="clip0_2930_6948">
<rect width="232" height="232" fill="white" transform="translate(12 12)"/>
</clipPath>
</defs>
</svg>
