<svg width="256" height="256" viewBox="0 0 256 256" fill="none" xmlns="http://www.w3.org/2000/svg">
<rect width="256" height="256" fill="#007ACC"/>
<path d="M62.8662 128.406V137.86H93.0262V223.7H114.428V137.86H144.588V128.58C144.588 123.36 144.588 119.126 144.356 119.01C144.356 118.836 125.97 118.778 103.64 118.778L63.0402 118.952V128.464L62.8662 128.406ZM198.412 118.72C204.328 120.112 208.852 122.78 212.912 127.014C215.058 129.334 218.248 133.394 218.48 134.438C218.48 134.786 208.446 141.572 202.356 145.342C202.124 145.516 201.196 144.53 200.268 143.022C197.252 138.73 194.178 136.874 189.364 136.526C182.404 136.062 177.764 139.716 177.764 145.806C177.764 147.662 178.112 148.706 178.808 150.214C180.374 153.404 183.274 155.318 192.264 159.262C208.852 166.396 216.044 171.094 220.394 177.822C225.324 185.362 226.426 197.194 223.12 206.068C219.408 215.754 210.36 222.308 197.426 224.454C193.366 225.15 184.086 225.034 179.736 224.28C170.456 222.54 161.582 217.9 156.13 211.926C153.984 209.606 149.866 203.4 150.098 202.994L152.302 201.602L161.002 196.556L167.556 192.728L169.064 194.758C170.978 197.774 175.27 201.834 177.764 203.226C185.304 207.112 195.396 206.59 200.384 202.066C202.53 200.094 203.458 198.006 203.458 195.106C203.458 192.438 203.052 191.22 201.718 189.19C199.862 186.638 196.15 184.55 185.71 179.91C173.704 174.806 168.6 171.558 163.844 166.57C161.118 163.554 158.624 158.856 157.464 154.97C156.594 151.606 156.304 143.37 157.116 140.064C159.61 128.464 168.368 120.344 180.896 118.024C184.956 117.212 194.526 117.56 198.528 118.604L198.412 118.72Z" fill="white"/>
</svg>
