<svg width="256" height="256" viewBox="0 0 256 256" fill="none" xmlns="http://www.w3.org/2000/svg">
<path d="M226.379 151.373C224.914 149.613 222.86 148.445 220.599 148.083C218.338 147.721 216.022 148.191 214.081 149.405L127.992 212.619V215.325C129.234 215.178 130.493 215.295 131.687 215.67C132.88 216.045 133.98 216.668 134.915 217.499C135.85 218.329 136.599 219.349 137.111 220.49C137.624 221.631 137.889 222.867 137.889 224.118C137.889 225.369 137.624 226.605 137.111 227.746C136.599 228.887 135.85 229.907 134.915 230.737C133.98 231.568 132.88 232.191 131.687 232.566C130.493 232.941 129.234 233.059 127.992 232.911C129.989 232.92 131.934 232.272 133.526 231.067L224.658 163.794C226.433 162.306 227.593 160.21 227.911 157.915C228.229 155.62 227.683 153.289 226.379 151.373Z" fill="#669DF6"/>
<path d="M127.996 232.911C125.843 232.656 123.858 231.62 122.418 229.999C120.978 228.379 120.183 226.286 120.183 224.118C120.183 221.95 120.978 219.857 122.418 218.236C123.858 216.616 125.843 215.58 127.996 215.325V212.619L41.9071 149.405C39.9736 148.164 37.6509 147.679 35.3824 148.042C33.1139 148.405 31.0585 149.591 29.6087 151.373C28.312 153.289 27.7937 155.627 28.1593 157.911C28.5248 160.196 29.7466 162.256 31.5764 163.671L122.708 230.944C124.262 232.132 126.162 232.78 128.119 232.788L127.996 232.911Z" fill="#AECBFA"/>
<path d="M127.983 206.102C124.407 206.102 120.912 207.162 117.939 209.148C114.966 211.135 112.649 213.958 111.28 217.262C109.912 220.565 109.554 224.2 110.252 227.707C110.949 231.214 112.671 234.435 115.199 236.964C117.728 239.492 120.949 241.214 124.456 241.911C127.963 242.609 131.598 242.251 134.901 240.883C138.205 239.514 141.028 237.197 143.015 234.224C145.001 231.251 146.062 227.756 146.062 224.18C146.062 219.385 144.157 214.787 140.766 211.397C137.376 208.006 132.778 206.102 127.983 206.102ZM127.983 232.912C126.226 232.912 124.51 232.389 123.051 231.411C121.592 230.432 120.457 229.042 119.791 227.417C119.125 225.792 118.957 224.005 119.308 222.284C119.66 220.563 120.516 218.986 121.766 217.752C123.017 216.519 124.606 215.685 126.332 215.358C128.058 215.03 129.842 215.223 131.458 215.912C133.073 216.601 134.448 217.755 135.406 219.228C136.364 220.7 136.862 222.424 136.838 224.18C136.838 225.337 136.608 226.483 136.162 227.55C135.715 228.618 135.061 229.586 134.237 230.398C133.413 231.211 132.436 231.852 131.362 232.283C130.289 232.715 129.14 232.928 127.983 232.912Z" fill="#4285F4"/>
<path d="M54.1915 55.6926C51.7551 55.6608 49.4275 54.6787 47.7046 52.9558C45.9816 51.2329 44.9996 48.9052 44.9677 46.4688V23.3478C44.8168 22.0387 44.9444 20.7125 45.3422 19.4562C45.7399 18.1999 46.3989 17.0419 47.2757 16.0582C48.1525 15.0745 49.2274 14.2873 50.4299 13.7483C51.6324 13.2093 52.9353 12.9307 54.253 12.9307C55.5708 12.9307 56.8737 13.2093 58.0762 13.7483C59.2786 14.2873 60.3536 15.0745 61.2304 16.0582C62.1072 17.0419 62.7661 18.1999 63.1639 19.4562C63.5616 20.7125 63.6892 22.0387 63.5383 23.3478V46.4688C63.506 48.9264 62.507 51.2723 60.7576 52.9986C59.0082 54.725 56.6493 55.6928 54.1915 55.6926Z" fill="#AECBFA"/>
<path d="M53.964 137.476C59.1261 137.476 63.3108 133.291 63.3108 128.129C63.3108 122.967 59.1261 118.782 53.964 118.782C48.8019 118.782 44.6172 122.967 44.6172 128.129C44.6172 133.291 48.8019 137.476 53.964 137.476Z" fill="#AECBFA"/>
<path d="M53.964 110.296C59.1261 110.296 63.3108 106.111 63.3108 100.949C63.3108 95.7872 59.1261 91.6025 53.964 91.6025C48.8019 91.6025 44.6172 95.7872 44.6172 100.949C44.6172 106.111 48.8019 110.296 53.964 110.296Z" fill="#AECBFA"/>
<path d="M53.964 82.9943C59.1261 82.9943 63.3108 78.8097 63.3108 73.6476C63.3108 68.4855 59.1261 64.3008 53.964 64.3008C48.8019 64.3008 44.6172 68.4855 44.6172 73.6476C44.6172 78.8097 48.8019 82.9943 53.964 82.9943Z" fill="#AECBFA"/>
<path d="M201.782 82.7463C199.325 82.7139 196.979 81.7149 195.253 79.9655C193.526 78.2162 192.558 75.8572 192.559 73.3995V50.2785C192.559 47.8322 193.53 45.4861 195.26 43.7563C196.99 42.0265 199.336 41.0547 201.782 41.0547C204.229 41.0547 206.575 42.0265 208.305 43.7563C210.034 45.4861 211.006 47.8322 211.006 50.2785V73.3995C211.022 74.6211 210.796 75.8337 210.34 76.967C209.883 78.1004 209.207 79.1318 208.348 80.0013C207.49 80.8709 206.468 81.5613 205.341 82.0326C204.214 82.5038 203.004 82.7464 201.782 82.7463Z" fill="#4285F4"/>
<path d="M202.026 137.599C207.189 137.599 211.373 133.414 211.373 128.252C211.373 123.09 207.189 118.905 202.026 118.905C196.864 118.905 192.68 123.09 192.68 128.252C192.68 133.414 196.864 137.599 202.026 137.599Z" fill="#4285F4"/>
<path d="M202.026 109.927C207.189 109.927 211.373 105.742 211.373 100.58C211.373 95.4181 207.189 91.2334 202.026 91.2334C196.864 91.2334 192.68 95.4181 192.68 100.58C192.68 105.742 196.864 109.927 202.026 109.927Z" fill="#4285F4"/>
<path d="M202.026 32.6926C207.189 32.6926 211.373 28.5079 211.373 23.3458C211.373 18.1837 207.189 13.999 202.026 13.999C196.864 13.999 192.68 18.1837 192.68 23.3458C192.68 28.5079 196.864 32.6926 202.026 32.6926Z" fill="#4285F4"/>
<path d="M127.993 165.023C125.557 164.991 123.229 164.009 121.506 162.287C119.783 160.564 118.801 158.236 118.77 155.8V132.31C119.032 130.031 120.123 127.929 121.836 126.403C123.548 124.877 125.761 124.033 128.055 124.033C130.348 124.033 132.562 124.877 134.274 126.403C135.986 127.929 137.077 130.031 137.34 132.31V155.554C137.356 156.791 137.127 158.02 136.664 159.168C136.202 160.316 135.516 161.361 134.646 162.242C133.777 163.123 132.741 163.823 131.599 164.3C130.457 164.778 129.231 165.023 127.993 165.023Z" fill="#669DF6"/>
<path d="M127.995 192.202C133.157 192.202 137.342 188.018 137.342 182.856C137.342 177.694 133.157 173.509 127.995 173.509C122.833 173.509 118.648 177.694 118.648 182.856C118.648 188.018 122.833 192.202 127.995 192.202Z" fill="#669DF6"/>
<path d="M127.995 114.599C133.157 114.599 137.342 110.414 137.342 105.252C137.342 100.09 133.157 95.9053 127.995 95.9053C122.833 95.9053 118.648 100.09 118.648 105.252C118.648 110.414 122.833 114.599 127.995 114.599Z" fill="#669DF6"/>
<path d="M127.995 87.2971C133.157 87.2971 137.342 83.1124 137.342 77.9503C137.342 72.7882 133.157 68.6035 127.995 68.6035C122.833 68.6035 118.648 72.7882 118.648 77.9503C118.648 83.1124 122.833 87.2971 127.995 87.2971Z" fill="#669DF6"/>
<path d="M164.877 110.173C162.441 110.141 160.113 109.159 158.39 107.436C156.667 105.713 155.685 103.386 155.653 100.949V77.8283C155.502 76.5192 155.63 75.193 156.028 73.9367C156.425 72.6804 157.084 71.5224 157.961 70.5387C158.838 69.555 159.913 68.7678 161.115 68.2288C162.318 67.6898 163.621 67.4111 164.939 67.4111C166.256 67.4111 167.559 67.6898 168.762 68.2288C169.964 68.7678 171.039 69.555 171.916 70.5387C172.793 71.5224 173.452 72.6804 173.849 73.9367C174.247 75.193 174.375 76.5192 174.224 77.8283V100.949C174.192 103.407 173.193 105.753 171.443 107.479C169.694 109.205 167.335 110.173 164.877 110.173Z" fill="#4285F4"/>
<path d="M165.011 59.8713C170.173 59.8713 174.358 55.6866 174.358 50.5245C174.358 45.3624 170.173 41.1777 165.011 41.1777C159.849 41.1777 155.664 45.3624 155.664 50.5245C155.664 55.6866 159.849 59.8713 165.011 59.8713Z" fill="#4285F4"/>
<path d="M165.011 164.408C170.173 164.408 174.358 160.224 174.358 155.062C174.358 149.9 170.173 145.715 165.011 145.715C159.849 145.715 155.664 149.9 155.664 155.062C155.664 160.224 159.849 164.408 165.011 164.408Z" fill="#4285F4"/>
<path d="M165.011 137.106C170.173 137.106 174.358 132.921 174.358 127.759C174.358 122.597 170.173 118.412 165.011 118.412C159.849 118.412 155.664 122.597 155.664 127.759C155.664 132.921 159.849 137.106 165.011 137.106Z" fill="#4285F4"/>
<path d="M90.9796 164.408C96.1417 164.408 100.326 160.224 100.326 155.062C100.326 149.9 96.1417 145.715 90.9796 145.715C85.8175 145.715 81.6328 149.9 81.6328 155.062C81.6328 160.224 85.8175 164.408 90.9796 164.408Z" fill="#AECBFA"/>
<path d="M90.9796 87.2971C96.1417 87.2971 100.326 83.1124 100.326 77.9503C100.326 72.7882 96.1417 68.6035 90.9796 68.6035C85.8175 68.6035 81.6328 72.7882 81.6328 77.9503C81.6328 83.1124 85.8175 87.2971 90.9796 87.2971Z" fill="#AECBFA"/>
<path d="M90.9796 59.8713C96.1417 59.8713 100.326 55.6866 100.326 50.5245C100.326 45.3624 96.1417 41.1777 90.9796 41.1777C85.8175 41.1777 81.6328 45.3624 81.6328 50.5245C81.6328 55.6866 85.8175 59.8713 90.9796 59.8713Z" fill="#AECBFA"/>
<path d="M91.1007 137.108C88.6844 137.11 86.3613 136.176 84.6186 134.502C82.876 132.828 81.8493 130.544 81.7539 128.13V104.763C81.7539 102.317 82.7257 99.9704 84.4555 98.2406C86.1853 96.5108 88.5314 95.5391 90.9777 95.5391C93.424 95.5391 95.7701 96.5108 97.4999 98.2406C99.2297 99.9704 100.202 102.317 100.202 104.763V128.13C100.138 130.512 99.1552 132.777 97.4587 134.451C95.7621 136.125 93.4836 137.077 91.1007 137.108Z" fill="#AECBFA"/>
</svg>
