<svg width="256" height="256" viewBox="0 0 256 256" fill="none" xmlns="http://www.w3.org/2000/svg">
<rect width="256" height="256" fill="white"/>
<path d="M238.138 47.1822L134.022 233.36C131.873 237.203 126.35 237.226 124.168 233.401L17.9875 47.2001C15.6105 43.0316 19.175 37.9825 23.8987 38.8268L128.126 57.4568C128.791 57.5757 129.472 57.5745 130.137 57.4534L232.184 38.8535C236.892 37.9954 240.473 43.0055 238.138 47.1822Z" fill="url(#paint0_linear_2657_7633)"/>
<path d="M177.775 14.3911L100.726 29.4885C99.4599 29.7366 98.5223 30.8098 98.4459 32.0978L93.7063 112.145C93.5948 114.031 95.3263 115.494 97.1665 115.07L118.618 110.119C120.625 109.656 122.439 111.424 122.026 113.442L115.653 144.651C115.224 146.751 117.196 148.547 119.247 147.924L132.497 143.899C134.551 143.275 136.524 145.076 136.09 147.179L125.962 196.2C125.328 199.267 129.407 200.939 131.108 198.31L132.244 196.554L195.027 71.258C196.079 69.1601 194.266 66.7679 191.962 67.2126L169.881 71.4742C167.806 71.8742 166.04 69.9418 166.626 67.9117L181.038 17.9517C181.624 15.9182 179.852 13.9841 177.775 14.3911Z" fill="url(#paint1_linear_2657_7633)"/>
<defs>
<linearGradient id="paint0_linear_2657_7633" x1="15.3951" y1="32.1731" x2="144.975" y2="208.154" gradientUnits="userSpaceOnUse">
<stop stop-color="#41D1FF"/>
<stop offset="1" stop-color="#BD34FE"/>
</linearGradient>
<linearGradient id="paint1_linear_2657_7633" x1="122.144" y1="18.49" x2="145.584" y2="179.289" gradientUnits="userSpaceOnUse">
<stop stop-color="#FFEA83"/>
<stop offset="0.0833333" stop-color="#FFDD35"/>
<stop offset="1" stop-color="#FFA800"/>
</linearGradient>
</defs>
</svg>
