<svg width="256" height="256" viewBox="0 0 256 256" fill="none" xmlns="http://www.w3.org/2000/svg">
<g clip-path="url(#clip0_2657_7634)">
<rect width="256" height="256" fill="white"/>
<path d="M128 -12.3447L252 57.7686V198.042L128 268.155L4 198.042V57.7686L128 -12.3447Z" fill="white"/>
<path d="M229.808 193.36L132.055 248.655V205.653L192.981 172.139L229.808 193.36ZM236.5 187.33V71.7848L200.749 92.3979V166.717L236.5 187.33ZM25.6916 193.36L123.445 248.609V205.606L62.5187 172.139L25.6916 193.36ZM19 187.33V71.7848L54.7509 92.3979V166.717L19 187.33ZM23.1647 64.3062L123.445 7.65527V49.2554L59.1963 84.5453L58.6816 84.8258L23.1647 64.3062ZM232.289 64.3062L132.055 7.65527V49.2554L196.257 84.5921L196.772 84.8725L232.289 64.3062Z" fill="#8ED6FB"/>
<path d="M123.454 195.655L63.5 162.645V97.3234L123.454 131.922V195.655ZM132.046 195.655L192 162.691V97.3234L132.046 131.922V195.655ZM67.5156 89.7594L127.75 56.6553L187.938 89.7594L127.75 124.498L67.5156 89.7594Z" fill="#1C78C0"/>
</g>
<defs>
<clipPath id="clip0_2657_7634">
<rect width="256" height="256" fill="white"/>
</clipPath>
</defs>
</svg>
