<svg width="48" height="48" viewBox="0 0 48 48" fill="none" xmlns="http://www.w3.org/2000/svg">
<path d="M39.3877 24.3273C39.3877 22.8807 39.4761 21.4406 39.5375 20.1416C39.6004 18.8126 39.636 17.6189 39.5562 16.5286C39.3997 14.3891 38.8223 12.8947 37.3273 11.8244C37.0477 11.6243 36.5202 11.3758 35.6842 11.1311C34.8719 10.8933 33.8677 10.6873 32.713 10.5201C30.4047 10.1859 27.6062 10.0224 24.7623 10.0316C21.9199 10.0408 19.0768 10.2223 16.6822 10.563C14.2137 10.9141 12.4546 11.4045 11.6041 11.906C9.18077 13.3346 8.31291 15.7247 8.3446 18.7667C8.37682 21.8599 9.35297 25.2855 10.2917 28.2192C11.0209 30.4977 12.2814 32.1405 14.3683 33.2649C16.4963 34.4113 19.6126 35.0873 24.1696 35.1082L24.3877 35.1086L24.4312 35.1092C25.3431 35.1323 26.0752 35.8787 26.0752 36.7961C26.0752 37.7135 25.3431 38.46 24.4312 38.4831L24.3877 38.4836L24.1572 38.4831C19.335 38.4614 15.5868 37.7548 12.7676 36.236C9.82888 34.6528 8.04257 32.2642 7.07733 29.2479C6.14111 26.3222 5.00788 22.4587 4.96979 18.8019C4.93116 15.0939 6.03205 11.2731 9.89001 8.99861C11.3598 8.13211 13.7023 7.57785 16.2069 7.22158C18.7854 6.85479 21.7871 6.66619 24.7513 6.6566C27.714 6.64703 30.6841 6.81612 33.1966 7.17992C34.4523 7.36174 35.6216 7.59617 36.6321 7.89193C37.6188 8.18071 38.5635 8.55882 39.2918 9.08019C41.9218 10.963 42.7272 13.617 42.9222 16.2823C43.0182 17.5943 42.9718 18.967 42.9087 20.3011C42.8442 21.6651 42.7627 22.9848 42.7627 24.3273C42.7627 25.2593 42.0071 26.0148 41.0752 26.0148C40.1432 26.0148 39.3877 25.2593 39.3877 24.3273Z" fill="#404040"/>
<path d="M22.0439 20.5304C22.0439 22.6015 20.365 24.2804 18.2939 24.2804C16.2228 24.2804 14.5439 22.6015 14.5439 20.5304C14.5439 18.4594 16.2228 16.7804 18.2939 16.7804C20.365 16.7804 22.0439 18.4594 22.0439 20.5304Z" fill="#404040"/>
<path d="M33.4814 20.5304C33.4814 22.6015 31.8025 24.2804 29.7314 24.2804C27.6603 24.2804 25.9814 22.6015 25.9814 20.5304C25.9814 18.4594 27.6603 16.7804 29.7314 16.7804C31.8025 16.7804 33.4814 18.4594 33.4814 20.5304Z" fill="#404040"/>
<path d="M36.2398 27.2691C36.4895 26.6359 37.3855 26.6359 37.6352 27.2691L39.5227 32.0548C39.5989 32.2481 39.7519 32.4011 39.9452 32.4773L44.7309 34.3648C45.3641 34.6145 45.3641 35.5105 44.7309 35.7602L39.9452 37.6477C39.7519 37.7239 39.5989 37.8769 39.5227 38.0702L37.6352 42.856C37.3855 43.4891 36.4895 43.4891 36.2398 42.856L34.3523 38.0702C34.2761 37.8769 34.1231 37.7239 33.9298 37.6477L29.144 35.7602C28.5109 35.5105 28.5109 34.6145 29.144 34.3648L33.9298 32.4773C34.1231 32.4011 34.2761 32.2481 34.3523 32.0548L36.2398 27.2691Z" fill="#404040"/>
</svg>
