<svg width="48" height="48" viewBox="0 0 48 48" fill="none" xmlns="http://www.w3.org/2000/svg">
<path d="M39.75 9.375C39.75 7.30393 32.6985 5.625 24 5.625C15.3015 5.625 8.25 7.30393 8.25 9.375C8.25 11.4461 15.3015 13.125 24 13.125C32.6985 13.125 39.75 11.4461 39.75 9.375ZM43.125 9.375C43.125 11.904 41.083 13.2605 40.1678 13.7757C38.9775 14.4458 37.4789 14.9384 35.9186 15.3099C32.7447 16.0656 28.5324 16.5 24 16.5C19.4676 16.5 15.2553 16.0656 12.0814 15.3099C10.5211 14.9384 9.02255 14.4458 7.83215 13.7757C6.91704 13.2605 4.875 11.904 4.875 9.375C4.875 6.84597 6.91704 5.48947 7.83215 4.97433C9.02255 4.30424 10.5211 3.81159 12.0814 3.44009C15.2553 2.68441 19.4676 2.25 24 2.25C28.5324 2.25 32.7447 2.68441 35.9186 3.44009C37.4789 3.81159 38.9775 4.30424 40.1678 4.97433C41.083 5.48947 43.125 6.84597 43.125 9.375Z" fill="#404040"/>
<path d="M24 22.875C15.3015 22.875 8.25 21.1961 8.25 19.125H4.875C4.875 21.654 6.91704 23.0105 7.83215 23.5257C9.02255 24.1958 10.5211 24.6884 12.0814 25.0599C15.2553 25.8156 19.4676 26.25 24 26.25C28.5324 26.25 32.7447 25.8156 35.9186 25.0599C37.4789 24.6884 38.9775 24.1958 40.1678 23.5257C41.083 23.0105 43.125 21.654 43.125 19.125H39.75C39.75 21.1961 32.6985 22.875 24 22.875Z" fill="#404040"/>
<path d="M24 32.625C15.3015 32.625 8.25 30.9461 8.25 28.875H4.875C4.875 31.404 6.91704 32.7605 7.83215 33.2757C9.02255 33.9458 10.5211 34.4384 12.0814 34.8099C15.2553 35.5656 19.4676 36 24 36C28.5324 36 32.7447 35.5656 35.9186 34.8099C37.4789 34.4384 38.9775 33.9458 40.1678 33.2757C41.083 32.7605 43.125 31.404 43.125 28.875H39.75C39.75 30.9461 32.6985 32.625 24 32.625Z" fill="#404040"/>
<path d="M24 42.375C15.3015 42.375 8.25 40.6961 8.25 38.625H4.875C4.875 41.154 6.91704 42.5105 7.83215 43.0257C9.02255 43.6958 10.5211 44.1884 12.0814 44.5599C15.2553 45.3156 19.4676 45.75 24 45.75C28.5324 45.75 32.7447 45.3156 35.9186 44.5599C37.4789 44.1884 38.9775 43.6958 40.1678 43.0257C41.083 42.5105 43.125 41.154 43.125 38.625H39.75C39.75 40.6961 32.6985 42.375 24 42.375Z" fill="#404040"/>
<path d="M8.25 39H4.875L4.875 9.375H8.25L8.25 39Z" fill="#404040"/>
<path d="M43.125 39H39.75V9.375H43.125V39Z" fill="#404040"/>
<circle cx="23.0625" cy="19.6875" r="1.6875" fill="#404040"/>
<circle cx="23.0625" cy="29.4375" r="1.6875" fill="#404040"/>
<circle cx="23.0625" cy="39.1875" r="1.6875" fill="#404040"/>
<path d="M10.0042 17.6184C10.2149 17.0339 10.8595 16.731 11.444 16.9417C11.4441 16.9418 11.4444 16.9418 11.4447 16.9419C11.4454 16.9422 11.4466 16.9426 11.4483 16.9432C11.4517 16.9444 11.4571 16.9463 11.4643 16.9489C11.4787 16.954 11.5005 16.9618 11.5292 16.9719C11.5865 16.9921 11.671 17.0216 11.7772 17.058C11.9899 17.1309 12.2889 17.2309 12.632 17.3393C13.3293 17.5594 14.1676 17.8005 14.833 17.9257C15.5266 18.0561 16.4785 18.1814 17.276 18.2754C17.6707 18.3219 18.0205 18.36 18.2714 18.3864C18.3968 18.3995 18.4974 18.4098 18.5663 18.4167C18.6007 18.4202 18.6273 18.4228 18.645 18.4245C18.6539 18.4254 18.6606 18.4261 18.665 18.4265C18.6671 18.4268 18.6687 18.4269 18.6697 18.427C18.6703 18.4271 18.6707 18.4271 18.6709 18.4271H18.6711L18.6999 18.4303C19.3035 18.5043 19.7413 19.0467 19.6823 19.6555C19.6223 20.2739 19.0724 20.7266 18.4539 20.6667L18.5625 19.5469C18.454 20.6666 18.4539 20.6667 18.4539 20.6667L18.4538 20.6666C18.4537 20.6666 18.4535 20.6666 18.4533 20.6666C18.4529 20.6665 18.4523 20.6664 18.4517 20.6664C18.4503 20.6663 18.4484 20.6661 18.4459 20.6658C18.4408 20.6653 18.4335 20.6646 18.4239 20.6636C18.4048 20.6617 18.3768 20.659 18.3409 20.6554C18.269 20.6482 18.1651 20.6376 18.0361 20.624C17.7782 20.5969 17.4188 20.5578 17.0126 20.5099C16.2084 20.4151 15.1916 20.2826 14.417 20.1368C13.6143 19.9858 12.6714 19.7112 11.9544 19.4848C11.5905 19.3699 11.274 19.264 11.0482 19.1866C10.9351 19.1479 10.8445 19.1162 10.7816 19.0941C10.7501 19.083 10.7256 19.0743 10.7086 19.0682C10.7001 19.0652 10.6934 19.0628 10.6888 19.0612C10.6865 19.0604 10.6847 19.0596 10.6834 19.0592C10.6828 19.0589 10.6822 19.0588 10.6819 19.0586C10.6817 19.0586 10.6814 19.0585 10.6813 19.0584L10.6811 19.0583C10.6813 19.0576 10.6911 19.0301 11.0625 18C11.0748 17.9659 11.0867 17.9328 11.0982 17.9008L10.6809 19.0583C10.0965 18.8476 9.79346 18.2029 10.0042 17.6184Z" fill="#E01236"/>
<path d="M10.0042 27.3684C10.2149 26.7839 10.8595 26.481 11.444 26.6917C11.4441 26.6918 11.4444 26.6918 11.4447 26.6919C11.4454 26.6922 11.4466 26.6926 11.4483 26.6932C11.4517 26.6944 11.4571 26.6963 11.4643 26.6989C11.4787 26.704 11.5005 26.7118 11.5292 26.7219C11.5865 26.7421 11.671 26.7716 11.7772 26.808C11.9899 26.8809 12.2889 26.9809 12.632 27.0893C13.3293 27.3094 14.1676 27.5505 14.833 27.6757C15.5266 27.8061 16.4785 27.9314 17.276 28.0254C17.6707 28.0719 18.0205 28.11 18.2714 28.1364C18.3968 28.1495 18.4974 28.1598 18.5663 28.1667C18.6007 28.1702 18.6273 28.1728 18.645 28.1745C18.6539 28.1754 18.6606 28.1761 18.665 28.1765C18.6671 28.1768 18.6687 28.1769 18.6697 28.177C18.6703 28.1771 18.6707 28.1771 18.6709 28.1771H18.6711L18.6999 28.1803C19.3035 28.2543 19.7413 28.7967 19.6823 29.4055C19.6223 30.0239 19.0724 30.4766 18.4539 30.4167L18.5625 29.2969C18.454 30.4166 18.4539 30.4167 18.4539 30.4167L18.4538 30.4166C18.4537 30.4166 18.4535 30.4166 18.4533 30.4166C18.4529 30.4165 18.4523 30.4164 18.4517 30.4164C18.4503 30.4163 18.4484 30.4161 18.4459 30.4158C18.4408 30.4153 18.4335 30.4146 18.4239 30.4136C18.4048 30.4117 18.3768 30.409 18.3409 30.4054C18.269 30.3982 18.1651 30.3876 18.0361 30.374C17.7782 30.3469 17.4188 30.3078 17.0126 30.2599C16.2084 30.1651 15.1916 30.0326 14.417 29.8868C13.6143 29.7358 12.6714 29.4612 11.9544 29.2348C11.5905 29.1199 11.274 29.014 11.0482 28.9366C10.9351 28.8979 10.8445 28.8662 10.7816 28.8441C10.7501 28.833 10.7256 28.8243 10.7086 28.8182C10.7001 28.8152 10.6934 28.8128 10.6888 28.8112C10.6865 28.8104 10.6847 28.8096 10.6834 28.8092C10.6828 28.8089 10.6822 28.8088 10.6819 28.8086C10.6817 28.8086 10.6814 28.8085 10.6813 28.8084L10.6811 28.8084C10.6813 28.8076 10.6911 28.7801 11.0625 27.75C11.0748 27.7159 11.0867 27.6828 11.0982 27.6508L10.6809 28.8084C10.0965 28.5976 9.79346 27.9529 10.0042 27.3684Z" fill="#E01236"/>
<path d="M10.0042 37.1184C10.2149 36.5339 10.8595 36.231 11.444 36.4417C11.4441 36.4418 11.4444 36.4418 11.4447 36.4419C11.4454 36.4422 11.4466 36.4426 11.4483 36.4432C11.4517 36.4444 11.4571 36.4463 11.4643 36.4489C11.4787 36.454 11.5005 36.4618 11.5292 36.4719C11.5865 36.4921 11.671 36.5216 11.7772 36.558C11.9899 36.6309 12.2889 36.7309 12.632 36.8393C13.3293 37.0594 14.1676 37.3005 14.833 37.4257C15.5266 37.5561 16.4785 37.6814 17.276 37.7754C17.6707 37.8219 18.0205 37.86 18.2714 37.8864C18.3968 37.8995 18.4974 37.9098 18.5663 37.9167C18.6007 37.9202 18.6273 37.9228 18.645 37.9245C18.6539 37.9254 18.6606 37.9261 18.665 37.9265C18.6671 37.9268 18.6687 37.9269 18.6697 37.927C18.6703 37.9271 18.6707 37.9271 18.6709 37.9271H18.6711L18.6999 37.9303C19.3035 38.0043 19.7413 38.5467 19.6823 39.1555C19.6223 39.7739 19.0724 40.2266 18.4539 40.1667L18.5625 39.0469C18.454 40.1666 18.4539 40.1667 18.4539 40.1667L18.4538 40.1666C18.4537 40.1666 18.4535 40.1666 18.4533 40.1666C18.4529 40.1665 18.4523 40.1664 18.4517 40.1664C18.4503 40.1663 18.4484 40.1661 18.4459 40.1658C18.4408 40.1653 18.4335 40.1646 18.4239 40.1636C18.4048 40.1617 18.3768 40.159 18.3409 40.1554C18.269 40.1482 18.1651 40.1376 18.0361 40.124C17.7782 40.0969 17.4188 40.0578 17.0126 40.0099C16.2084 39.9151 15.1916 39.7826 14.417 39.6368C13.6143 39.4858 12.6714 39.2112 11.9544 38.9848C11.5905 38.8699 11.274 38.764 11.0482 38.6866C10.9351 38.6479 10.8445 38.6162 10.7816 38.5941C10.7501 38.583 10.7256 38.5743 10.7086 38.5682C10.7001 38.5652 10.6934 38.5628 10.6888 38.5612C10.6865 38.5604 10.6847 38.5596 10.6834 38.5592C10.6828 38.5589 10.6822 38.5588 10.6819 38.5586C10.6817 38.5586 10.6814 38.5585 10.6813 38.5584L10.6811 38.5584C10.6813 38.5576 10.6911 38.5301 11.0625 37.5C11.0748 37.4659 11.0867 37.4328 11.0982 37.4008L10.6809 38.5584C10.0965 38.3476 9.79346 37.7029 10.0042 37.1184Z" fill="#E01236"/>
</svg>
