<svg width="256" height="256" viewBox="0 0 256 256" fill="none" xmlns="http://www.w3.org/2000/svg">
<path d="M13 181V75C13 40.7584 40.7583 13 75 13V31L74.4312 31.0034C50.3928 31.308 31 50.8894 31 75V181C31 205.301 50.6995 225 75 225H181C205.111 225 224.692 205.607 224.997 181.569L225 181V75C225 50.8894 205.607 31.308 181.569 31.0034L181 31V13C215.242 13 243 40.7583 243 75V181C243 215.242 215.242 243 181 243H75C40.7584 243 13 215.242 13 181ZM181 13V31H75V13H181Z" fill="#404040"/>
<path d="M177 86C177 102.016 164.016 115 148 115C131.984 115 119 102.016 119 86C119 69.9837 131.984 57 148 57C164.016 57 177 69.9837 177 86ZM134.619 86C134.619 93.3901 140.61 99.3809 148 99.3809C155.39 99.3809 161.381 93.3901 161.381 86C161.381 78.6099 155.39 72.6191 148 72.6191C140.61 72.6191 134.619 78.6099 134.619 86Z" fill="#404040"/>
<path d="M104.002 77.0134C108.973 77.0147 113.001 81.0451 113 86.0157C112.999 90.9862 108.968 95.0147 103.998 95.0134L50.9977 95C46.0272 94.9988 41.9987 90.9683 42 85.9977C42.0013 81.0272 46.0317 76.9988 51.0023 77L104.002 77.0134Z" fill="#404040"/>
<path d="M205 77C209.971 77 214 81.0294 214 86C214 90.9706 209.971 95 205 95H192C187.029 95 183 90.9706 183 86C183 81.0294 187.029 77 192 77H205Z" fill="#404040"/>
<path d="M137 170C137 186.016 124.016 199 108 199C91.9837 199 79 186.016 79 170C79 153.984 91.9837 141 108 141C124.016 141 137 153.984 137 170ZM94.6191 170C94.6191 177.39 100.61 183.381 108 183.381C115.39 183.381 121.381 177.39 121.381 170C121.381 162.61 115.39 156.619 108 156.619C100.61 156.619 94.6191 162.61 94.6191 170Z" fill="#404040"/>
<path d="M205.002 161.013C209.973 161.015 214.001 165.045 214 170.016C213.999 174.986 209.968 179.015 204.998 179.013L151.998 179C147.027 178.999 142.999 174.968 143 169.998C143.001 165.027 147.032 160.999 152.002 161L205.002 161.013Z" fill="#404040"/>
<path d="M64 163C68.9706 163 73 167.029 73 172C73 176.971 68.9706 181 64 181H51C46.0294 181 42 176.971 42 172C42 167.029 46.0294 163 51 163H64Z" fill="#404040"/>
</svg>
