<svg width="48" height="48" viewBox="0 0 48 48" fill="none" xmlns="http://www.w3.org/2000/svg">
<path d="M24.0525 17.1093C26.1798 17.1164 28.5858 17.9487 30.326 18.6903C31.2256 19.0735 32.0093 19.4599 32.5749 19.7606C32.8566 19.9103 33.0941 20.044 33.2707 20.1501C33.3554 20.201 33.4454 20.257 33.5251 20.3119C33.5597 20.3358 33.627 20.3829 33.6993 20.444C33.7307 20.4705 33.8084 20.5373 33.8927 20.6338C33.9338 20.681 34.0118 20.775 34.0878 20.9075C34.1464 21.0096 34.3125 21.3167 34.3125 21.75C34.3125 25.7871 34.8503 28.1219 33.0191 31.9068C32.1643 33.6736 30.6094 35.2864 29.2043 36.5191C27.7674 37.7799 26.3304 38.777 25.5497 39.2916C24.6349 39.8947 23.4572 39.8938 22.5434 39.2907C21.7599 38.7736 20.3146 37.7699 18.8685 36.5008C17.4542 35.2597 15.8896 33.6371 15.0285 31.8613C13.2033 28.0973 13.6875 26.0139 13.6875 21.75C13.6875 21.3147 13.8556 21.0072 13.9115 20.9097C13.9859 20.7799 14.0618 20.6882 14.1008 20.6432C14.1809 20.5507 14.2537 20.4876 14.2801 20.4649C14.3423 20.4115 14.3963 20.3731 14.4152 20.3597C14.463 20.3259 14.5084 20.297 14.5366 20.2793C14.5998 20.2397 14.6763 20.1943 14.7587 20.1469C14.927 20.0499 15.1597 19.9214 15.4428 19.7729C16.0091 19.4757 16.7987 19.0867 17.7073 18.6991C19.4627 17.9505 21.899 17.1022 24.0525 17.1093ZM24.0413 20.4843C22.6172 20.4796 20.7176 21.0844 19.0314 21.8036C18.2436 22.1396 17.5544 22.4778 17.0568 22.7375C17.0144 26.6472 16.7734 27.7245 18.0653 30.3887C18.6259 31.5447 19.7756 32.8067 21.0946 33.9642C22.1906 34.926 23.3011 35.7278 24.0474 36.2356C24.7896 35.7309 25.8916 34.9357 26.9785 33.9821C28.2879 32.8333 29.4269 31.5822 29.981 30.4369C31.274 27.7643 30.9928 26.5267 30.944 22.7161C30.4577 22.4593 29.7799 22.1262 29.003 21.7952C27.34 21.0866 25.4569 20.4891 24.0413 20.4843Z" fill="#404040"/>
<path d="M26.7508 24.3031C27.2336 24.4901 27.522 24.7337 27.7031 25.2188C27.9027 25.753 27.7743 26.2018 27.5175 26.6909C27.4427 26.8086 27.3666 26.9255 27.2895 27.0416C27.2481 27.1058 27.2067 27.17 27.1641 27.2362C27.0276 27.4469 26.8894 27.6563 26.7508 27.8656C26.6798 27.9738 26.6798 27.9738 26.6073 28.0842C26.3092 28.5382 26.008 28.9899 25.7045 29.4402C25.5475 29.6735 25.3916 29.9075 25.2356 30.1416C25.1347 30.2917 25.0337 30.4417 24.9326 30.5917C24.8637 30.6955 24.8637 30.6955 24.7935 30.8015C24.5044 31.227 24.3813 31.5659 23.8594 31.7813C23.7063 31.8444 23.5091 31.8664 23.3438 31.875C23.1758 31.8837 22.9439 31.871 22.7813 31.8281C21.9752 31.6157 21.6359 31.1095 21.1406 30.6094C20.9194 30.3902 20.7518 30.1701 20.5431 29.9321C20.1094 29.4375 19.9688 29.0625 20.1094 28.5C20.1923 28.1683 20.4014 27.731 20.7977 27.4554C21.183 27.1875 21.9548 27.0437 22.2508 27.3031C22.5469 27.5625 22.7269 27.7746 22.9203 27.9375C23.1546 27.6094 23.2669 27.3112 23.4333 27.0555C23.5203 26.9248 23.6073 26.7941 23.6943 26.6633C23.8308 26.4563 23.9672 26.2491 24.1034 26.0418C24.2349 25.8422 24.3673 25.6432 24.4997 25.4442C24.5398 25.3826 24.5798 25.3209 24.6211 25.2574C25.1928 24.4 25.901 23.9739 26.7508 24.3031Z" fill="#404040"/>
<path d="M2.25 24.75C2.25 21.1324 4.12466 17.9852 6.75879 16.8031C6.78889 16.5733 6.78134 16.2612 6.79074 15.6159C6.81002 14.2924 6.94703 12.2021 8.98123 10.5852C9.86259 9.88465 10.7205 9.48298 11.5776 9.30924C12.4218 9.13811 13.1514 9.21325 13.693 9.29295C14.8932 9.46956 14.8675 9.47901 15.0961 9.30311C16.5575 8.17896 17.8996 7.04933 19.3361 6.28077C20.8823 5.45355 22.5478 5.02016 24.7822 5.06285C28.7752 5.13914 31.5864 6.21111 33.726 8.13059C35.7232 9.92227 36.9902 12.3382 38.1645 14.7962C38.2671 14.8416 38.4247 14.9009 38.6715 14.9823C39.2654 15.1782 40.2977 15.4689 41.2928 15.9885C42.3358 16.5331 43.4153 17.3575 44.2555 18.6915C45.0891 20.015 45.6174 21.729 45.7472 23.9483C46.0351 28.8729 42.75 31.9725 39.5587 33.0923C38.6793 33.4008 37.7163 32.9381 37.4077 32.0587C37.0992 31.1793 37.5619 30.2163 38.4413 29.9077C40.5938 29.1524 42.5563 27.1975 42.3778 24.1454C42.2733 22.357 41.864 21.2271 41.3998 20.4901C40.9422 19.7636 40.3634 19.3106 39.7307 18.9802C39.0499 18.6248 38.3888 18.4429 37.6146 18.1876C37.2684 18.0734 36.8365 17.923 36.449 17.7105C36.0596 17.497 35.5353 17.1254 35.2258 16.4743C34.0031 13.9016 32.9661 11.9829 31.4724 10.6428C30.0589 9.3748 28.0842 8.50152 24.7178 8.4372C23.0234 8.40483 21.9336 8.71873 20.9282 9.2566C19.8132 9.85314 18.8071 10.7064 17.1539 11.9782C15.5545 13.2085 13.8881 12.733 13.2016 12.632C12.7998 12.5728 12.5245 12.5609 12.2481 12.617C11.9846 12.6704 11.6061 12.81 11.0813 13.2272C10.303 13.8459 10.1816 14.5544 10.1654 15.6651C10.1587 16.125 10.1841 16.9526 10.0391 17.6264C9.85731 18.4717 9.36123 19.3864 8.22693 19.8455C7.0291 20.3303 5.625 22.1026 5.625 24.75C5.625 26.9931 6.5899 28.2275 7.50861 28.9463C7.99077 29.3235 8.47936 29.5698 8.84775 29.7205C9.02998 29.795 9.17695 29.8437 9.27072 29.8721C9.31742 29.8862 9.35032 29.8951 9.36713 29.8995C9.37545 29.9016 9.37976 29.9027 9.37976 29.9027C9.37973 29.9027 9.37855 29.9024 9.37628 29.9018C9.37516 29.9016 9.37375 29.9013 9.37207 29.9009C9.37123 29.9007 9.37031 29.9005 9.36932 29.9003C9.36884 29.9002 9.36805 29.9 9.36777 29.8999H9.36768C10.2765 30.1028 10.8493 31.0036 10.6473 31.9129C10.4451 32.8227 9.54375 33.3963 8.63397 33.1942L9.00558 31.5218C9.00374 31.5301 9.00187 31.5384 9 31.5469C8.63393 33.1942 8.63304 33.194 8.63214 33.1938C8.63181 33.1937 8.63087 33.1935 8.63022 33.1933C8.62892 33.193 8.62755 33.1928 8.6261 33.1924C8.62317 33.1918 8.61987 33.191 8.6163 33.1901C8.60918 33.1885 8.6008 33.1866 8.59122 33.1843C8.572 33.1797 8.54786 33.1737 8.51917 33.1662C8.46181 33.1514 8.38595 33.1305 8.29422 33.1028C8.11114 33.0475 7.86259 32.964 7.57022 32.8444C6.98939 32.6069 6.21234 32.2174 5.42889 31.6044C3.81635 30.3428 2.25 28.1788 2.25 24.75Z" fill="#404040"/>
</svg>
