<svg width="256" height="256" viewBox="0 0 256 256" fill="none" xmlns="http://www.w3.org/2000/svg">
<path d="M150.56 215C150.56 230.989 137.632 244 121.747 244C105.861 244 92.9334 230.989 92.9334 215V209.954C82.8776 206.377 73.5709 200.974 65.4936 194.014L61.1716 196.517C54.5157 200.374 46.7457 201.409 39.3023 199.369C31.878 197.358 25.6736 192.544 21.8318 185.826C13.9081 171.964 18.6719 154.206 32.4447 146.231L36.7763 143.718C35.7966 138.459 35.3068 133.201 35.3068 128.01C35.3068 122.819 35.7966 117.55 36.7763 112.301L32.4447 109.798C18.6719 101.823 13.9081 84.0553 21.8318 70.1933C25.664 63.475 31.8684 58.6707 39.3023 56.6503C46.7265 54.63 54.5061 55.645 61.1716 59.5117L65.4936 62.0057C73.5709 55.0457 82.8776 49.6323 92.9334 46.0653V41.0193C92.9334 25.0307 105.861 12.0193 121.747 12.0193C137.632 12.0193 150.56 25.0307 150.56 41.0193C150.56 46.3553 146.267 50.686 140.956 50.686C135.644 50.686 131.351 46.3553 131.351 41.0193C131.351 35.6833 127.039 31.3527 121.747 31.3527C116.455 31.3527 112.142 35.693 112.142 41.0193V53.2187C112.142 57.6267 109.175 61.474 104.939 62.576C93.0583 65.6597 82.2629 71.9333 73.7246 80.7107C70.6607 83.862 65.8681 84.5387 62.0744 82.3347L51.5959 76.2737C47.0146 73.6153 41.1271 75.22 38.4859 79.831C35.8447 84.4517 37.439 90.3677 42.0299 93.0357L52.5276 99.1063C56.3213 101.301 58.1558 105.805 57.0032 110.049C55.3609 116.081 54.5253 122.132 54.5253 128.019C54.5253 133.906 55.3609 139.958 57.0032 145.99C58.1654 150.233 56.3213 154.738 52.5276 156.932L42.0299 163.003C37.439 165.661 35.8447 171.577 38.4859 176.198C41.1367 180.828 47.0146 182.414 51.5959 179.765L62.0744 173.704C65.8777 171.5 70.6704 172.186 73.7246 175.328C82.2629 184.105 93.0487 190.379 104.939 193.463C109.184 194.565 112.142 198.412 112.142 202.82V215.019C112.142 220.346 116.455 224.686 121.747 224.686C127.039 224.686 131.351 220.346 131.351 215.019C131.351 209.693 135.644 205.353 140.956 205.353C146.267 205.353 150.56 209.683 150.56 215.019V215ZM121.747 108.667C127.048 108.667 131.351 104.336 131.351 99C131.351 93.664 127.048 89.3333 121.747 89.3333C100.559 89.3333 83.329 106.675 83.329 128C83.329 149.325 100.559 166.667 121.747 166.667C127.048 166.667 131.351 162.336 131.351 157C131.351 151.664 127.048 147.333 121.747 147.333C111.153 147.333 102.538 138.662 102.538 128C102.538 117.338 111.153 108.667 121.747 108.667ZM198.582 70H150.56C145.249 70 140.956 74.3307 140.956 79.6667C140.956 85.0027 145.249 89.3333 150.56 89.3333H198.582C214.468 89.3333 227.396 76.322 227.396 60.3333V47.989C233.11 44.6443 237 38.477 237 31.3333C237 20.6517 228.404 12 217.791 12C207.178 12 198.582 20.6517 198.582 31.3333C198.582 38.4673 202.472 44.6347 208.187 47.989V60.3333C208.187 65.6597 203.884 70 198.582 70ZM227.396 208.011V195.667C227.396 179.678 214.468 166.667 198.582 166.667H150.56C145.249 166.667 140.956 170.997 140.956 176.333C140.956 181.669 145.249 186 150.56 186H198.582C203.884 186 208.187 190.34 208.187 195.667V208.011C202.472 211.356 198.582 217.523 198.582 224.667C198.582 235.348 207.178 244 217.791 244C228.404 244 237 235.348 237 224.667C237 217.533 233.11 211.365 227.396 208.011ZM217.791 108.667C210.703 108.667 204.575 112.582 201.243 118.333H150.56C145.249 118.333 140.956 122.664 140.956 128C140.956 133.336 145.249 137.667 150.56 137.667H201.243C204.566 143.418 210.693 147.333 217.791 147.333C228.404 147.333 237 138.682 237 128C237 117.318 228.404 108.667 217.791 108.667Z" fill="#262626"/>
<circle cx="217.5" cy="31.5" r="19.5" fill="#262626"/>
<circle cx="217.5" cy="127.5" r="19.5" fill="#262626"/>
<circle cx="217.5" cy="224.5" r="19.5" fill="#262626"/>
</svg>
