<svg width="256" height="256" viewBox="0 0 256 256" fill="none" xmlns="http://www.w3.org/2000/svg">
<path d="M240 118.667C240 104.032 232.981 90.2933 221.333 81.5293V81.3333C221.333 63.628 208.948 48.7693 192.381 44.952C188.564 28.3947 173.696 16 156 16C144.856 16 134.841 20.9093 128 28.6653C121.159 20.9 111.144 16 100 16C82.304 16 67.436 28.3853 63.6187 44.952C47.0613 48.7693 34.6667 63.628 34.6667 81.3333V81.5293C23.0187 90.2933 16 104.023 16 118.667C16 126.936 18.1933 134.879 22.4027 142C18.2027 149.121 16 157.064 16 165.333C16 181.069 24.008 195.611 37.1587 204.216C43.8693 225.477 63.404 240 86 240C103.341 240 118.704 231.357 128 218.141C137.296 231.348 152.659 240 170 240C192.605 240 212.14 225.477 218.841 204.216C231.983 195.611 240 181.069 240 165.333C240 157.064 237.807 149.121 233.597 142C237.797 134.879 240 126.936 240 118.667ZM86 221.333C70.7493 221.333 57.692 210.927 54.2573 196.021C53.6507 193.399 51.9427 191.168 49.572 189.899C40.3787 184.971 34.6667 175.563 34.6667 165.343C34.6667 159.043 36.8507 153.004 41.004 147.871C43.7667 144.445 43.7667 139.564 41.004 136.139C36.86 131.015 34.6667 124.976 34.6667 118.667C34.6667 108.68 40.1827 99.3747 49.068 94.372C52.5213 92.4307 54.3693 88.52 53.6787 84.6187C53.492 83.5453 53.3333 82.4627 53.3333 81.3333C53.3333 71.0387 61.7053 62.6667 72 62.6667C77.1613 62.6667 81.3333 58.4853 81.3333 53.3333C81.3333 43.0387 89.7053 34.6667 100 34.6667C110.295 34.6667 118.667 43.0387 118.667 53.3333V90.6667H97.4987C94.2693 85.0853 88.24 81.3333 81.3333 81.3333C71.02 81.3333 62.6667 89.6867 62.6667 100C62.6667 110.313 71.02 118.667 81.3333 118.667C88.24 118.667 94.2693 114.915 97.4987 109.333H118.667V156H97.4987C94.2693 150.419 88.24 146.667 81.3333 146.667C71.02 146.667 62.6667 155.02 62.6667 165.333C62.6667 175.647 71.02 184 81.3333 184C88.24 184 94.2693 180.248 97.4987 174.667H118.667V188.667C118.667 206.68 104.013 221.333 86 221.333ZM214.996 147.861C219.14 152.985 221.333 159.024 221.333 165.333C221.333 175.563 215.631 184.971 206.428 189.889C204.057 191.159 202.349 193.389 201.743 196.012C198.308 210.917 185.241 221.324 170 221.324C151.987 221.324 137.333 206.671 137.333 188.657V146.657H156C171.437 146.657 184 134.095 184 118.657V116.156C189.581 112.927 193.333 106.897 193.333 99.9907C193.333 89.6773 184.98 81.324 174.667 81.324C164.353 81.324 156 89.6773 156 99.9907C156 106.897 159.752 112.927 165.333 116.156V118.657C165.333 123.8 161.152 127.991 156 127.991H137.333V53.3333C137.333 43.0387 145.705 34.6667 156 34.6667C166.295 34.6667 174.667 43.0387 174.667 53.3333C174.667 58.4853 178.839 62.6667 184 62.6667C194.295 62.6667 202.667 71.0387 202.667 81.3333C202.667 82.4627 202.499 83.5453 202.321 84.6187C201.631 88.52 203.479 92.4307 206.932 94.372C215.817 99.3653 221.333 108.68 221.333 118.667C221.333 124.967 219.149 131.005 214.996 136.139C212.233 139.564 212.233 144.436 214.996 147.861Z" fill="black"/>
<circle cx="80.5" cy="99.5" r="19.5" fill="#E01236"/>
<circle cx="174.5" cy="99.5" r="19.5" fill="#E01236"/>
<circle cx="80.5" cy="165.5" r="19.5" fill="#E01236"/>
</svg>
