<svg width="256" height="256" viewBox="0 0 256 256" fill="none" xmlns="http://www.w3.org/2000/svg">
<rect width="256" height="256" fill="white"/>
<path d="M25.5 208V48C25.5 28.1178 41.6177 12 61.5 12V30C51.5589 30 43.5 38.0589 43.5 48V208L43.5059 208.464C43.7522 218.191 51.7141 226 61.5 226H194L194.464 225.994C204.037 225.752 211.752 218.037 211.994 208.464L212 208V48C212 38.2141 204.191 30.2522 194.464 30.0059L194 30V12C213.882 12 230 28.1177 230 48V208C230 227.882 213.882 244 194 244H61.5C41.6178 244 25.5 227.882 25.5 208ZM194 12V30H61.5V12H194Z" fill="#262626"/>
<path d="M186.5 52C191.471 52 195.5 56.0294 195.5 61C195.5 65.9706 191.471 70 186.5 70H68.25C63.2794 70 59.25 65.9706 59.25 61C59.25 56.0294 63.2794 52 68.25 52H186.5Z" fill="#E01236"/>
<path d="M140.25 92C145.221 92 149.25 96.0294 149.25 101C149.25 105.971 145.221 110 140.25 110H68.25C63.2794 110 59.25 105.971 59.25 101C59.25 96.0294 63.2794 92 68.25 92H140.25Z" fill="#404040"/>
<path d="M140.25 132C145.221 132 149.25 136.029 149.25 141C149.25 145.971 145.221 150 140.25 150H68.25C63.2794 150 59.25 145.971 59.25 141C59.25 136.029 63.2794 132 68.25 132H140.25Z" fill="#404040"/>
<path d="M96.25 172C101.221 172 105.25 176.029 105.25 181C105.25 185.971 101.221 190 96.25 190H68.25C63.2794 190 59.25 185.971 59.25 181C59.25 176.029 63.2794 172 68.25 172H96.25Z" fill="#404040"/>
</svg>
