<svg width="256" height="256" viewBox="0 0 256 256" fill="none" xmlns="http://www.w3.org/2000/svg">
<rect width="256" height="256" fill="white"/>
<path d="M219 128C219 103.865 209.412 80.7191 192.347 63.6533C175.281 46.5875 152.135 37 128 37C103.865 37 80.7191 46.5875 63.6533 63.6533C46.5875 80.7191 37 103.865 37 128C37 132.971 32.9706 137 28 137C23.0294 137 19 132.971 19 128C19 99.0914 30.4838 71.3668 50.9253 50.9253C71.3668 30.4838 99.0914 19 128 19C156.909 19 184.633 30.4838 205.075 50.9253C225.516 71.3668 237 99.0914 237 128C237 132.971 232.971 137 228 137C223.029 137 219 132.971 219 128Z" fill="#262626"/>
<path d="M56.5 132C66.4411 132 74.5 140.059 74.5 150V218.5C74.5 228.441 66.4411 236.5 56.5 236.5C46.5589 236.5 38.5 228.441 38.5 218.5V216.826C37.6829 216.94 36.8484 217 36 217C26.0589 217 18 208.941 18 199V170C18 160.059 26.0589 152 36 152C36.8484 152 37.6829 152.06 38.5 152.173V150C38.5 140.059 46.5589 132 56.5 132Z" fill="#262626"/>
<path d="M198.5 132C208.441 132 216.5 140.059 216.5 150V152.857C218.234 152.301 220.082 152 222 152C231.941 152 240 160.059 240 170V199C240 208.941 231.941 217 222 217C220.082 217 218.234 216.698 216.5 216.143V218.5C216.5 228.441 208.441 236.5 198.5 236.5C188.559 236.5 180.5 228.441 180.5 218.5V150C180.5 140.059 188.559 132 198.5 132Z" fill="#262626"/>
<path d="M90.5 199.25V164.5C90.5 161.186 93.1863 158.5 96.5 158.5C99.8137 158.5 102.5 161.186 102.5 164.5V199.25C102.5 202.564 99.8137 205.25 96.5 205.25C93.1863 205.25 90.5 202.564 90.5 199.25Z" fill="#E01236"/>
<path d="M121.5 215.75V145.5C121.5 142.186 124.186 139.5 127.5 139.5C130.814 139.5 133.5 142.186 133.5 145.5V215.75C133.5 219.064 130.814 221.75 127.5 221.75C124.186 221.75 121.5 219.064 121.5 215.75Z" fill="#E01236"/>
<path d="M152.5 202.279V161.471C152.5 158.381 155.186 155.875 158.5 155.875C161.814 155.875 164.5 158.381 164.5 161.471V202.279C164.5 205.369 161.814 207.875 158.5 207.875C155.186 207.875 152.5 205.369 152.5 202.279Z" fill="#E01236"/>
</svg>
