<svg width="48" height="48" viewBox="0 0 48 48" fill="none" xmlns="http://www.w3.org/2000/svg">
<g clip-path="url(#clip0_1914_2466)">
<path d="M5.62573 17.683C5.65603 18.8796 6.62043 19.844 7.81696 19.8743L7.875 19.875H40.125L40.183 19.8743C41.3989 19.8435 42.375 18.8482 42.375 17.625V10.875C42.375 9.63236 41.3676 8.625 40.125 8.625V5.25C43.2316 5.25 45.75 7.7684 45.75 10.875V17.625C45.75 20.7316 43.2316 23.25 40.125 23.25H7.875C4.7684 23.25 2.25 20.7316 2.25 17.625V10.875C2.25 7.7684 4.7684 5.25 7.875 5.25V8.625C6.63236 8.625 5.625 9.63236 5.625 10.875V17.625L5.62573 17.683ZM40.125 5.25V8.625H7.875V5.25H40.125Z" fill="#404040"/>
<circle cx="10.875" cy="14.25" r="1.875" fill="#404040"/>
<circle cx="17.625" cy="14.25" r="1.875" fill="#404040"/>
<rect x="28.5" y="12.375" width="10.5" height="3.75" rx="1.875" fill="#404040"/>
</g>
<g clip-path="url(#clip1_1914_2466)">
<path d="M5.62573 37.183C5.65603 38.3796 6.62043 39.344 7.81696 39.3743L7.875 39.375H40.125L40.183 39.3743C41.3989 39.3435 42.375 38.3482 42.375 37.125V30.375C42.375 29.1324 41.3676 28.125 40.125 28.125V24.75C43.2316 24.75 45.75 27.2684 45.75 30.375V37.125C45.75 40.2316 43.2316 42.75 40.125 42.75H7.875C4.7684 42.75 2.25 40.2316 2.25 37.125V30.375C2.25 27.2684 4.7684 24.75 7.875 24.75V28.125C6.63236 28.125 5.625 29.1324 5.625 30.375V37.125L5.62573 37.183ZM40.125 24.75V28.125H7.875V24.75H40.125Z" fill="#404040"/>
<circle cx="10.875" cy="33.75" r="1.875" fill="#404040"/>
<circle cx="17.625" cy="33.75" r="1.875" fill="#404040"/>
<rect x="28.5" y="31.875" width="10.5" height="3.75" rx="1.875" fill="#404040"/>
</g>
<defs>
<clipPath id="clip0_1914_2466">
<rect width="43.5" height="18" fill="white" transform="translate(2.25 5.25)"/>
</clipPath>
<clipPath id="clip1_1914_2466">
<rect width="43.5" height="18" fill="white" transform="translate(2.25 24.75)"/>
</clipPath>
</defs>
</svg>
