<svg width="24" height="24" viewBox="0 0 24 24" fill="none" xmlns="http://www.w3.org/2000/svg">
<path d="M5.08923 5.08878C5.41874 4.75957 6.01312 4.82044 6.41736 5.22452L11.9906 10.7968L17.556 5.23038C17.9594 4.82706 18.5537 4.76709 18.8832 5.09659C19.2126 5.42612 19.1527 6.02045 18.7494 6.42374L13.184 11.9901L18.7826 17.5888C19.1869 17.9931 19.2469 18.5884 18.9174 18.9179C18.5878 19.2471 17.9935 19.1864 17.5892 18.7821L11.9906 13.1835L6.41541 18.7577C6.01209 19.1608 5.41768 19.22 5.08826 18.8905C4.75929 18.561 4.81915 17.9675 5.22205 17.5644L10.7972 11.9901L5.22498 6.41788C4.82064 6.01355 4.75973 5.41829 5.08923 5.08878Z" fill="#404040"/>
</svg>
