<svg width="48" height="48" viewBox="0 0 48 48" fill="none" xmlns="http://www.w3.org/2000/svg">
<path d="M40.125 6C43.2316 6 45.75 8.5184 45.75 11.625V32.25C45.75 35.3566 43.2316 37.875 40.125 37.875H29.0566L30.1699 40.125H33.5625L33.6064 40.126C34.5181 40.1493 35.25 40.8952 35.25 41.8125C35.25 42.7298 34.5181 43.4757 33.6064 43.499L33.5625 43.5H14.4375C13.5055 43.5 12.75 42.7445 12.75 41.8125C12.75 40.8805 13.5055 40.125 14.4375 40.125H17.8418L19.0723 37.875H7.875C4.7684 37.875 2.25 35.3566 2.25 32.25V11.625C2.25 8.5184 4.7684 6 7.875 6H40.125ZM7.875 9.375C6.63236 9.375 5.625 10.3824 5.625 11.625V32.25C5.625 33.4732 6.60157 34.4682 7.81738 34.499H40.1826C41.3984 34.4682 42.375 33.4732 42.375 32.25V11.625C42.375 10.3824 41.3676 9.375 40.125 9.375H7.875Z" fill="#404040"/>
<path d="M30.75 30.375C31.3713 30.375 31.875 30.8787 31.875 31.5C31.875 32.1213 31.3713 32.625 30.75 32.625H17.25C16.6287 32.625 16.125 32.1213 16.125 31.5C16.125 30.8787 16.6287 30.375 17.25 30.375H30.75Z" fill="#404040"/>
</svg>
