<svg width="24" height="24" viewBox="0 0 24 24" fill="none" xmlns="http://www.w3.org/2000/svg">
<path d="M19.7118 5.625C20.2161 5.625 20.625 6.00276 20.625 6.46875C20.625 6.93474 20.2161 7.3125 19.7118 7.3125L4.28824 7.3125C3.78387 7.3125 3.375 6.93474 3.375 6.46875C3.375 6.00276 3.78387 5.625 4.28824 5.625L19.7118 5.625Z" fill="#404040"/>
<path d="M19.7118 11.1563C20.2161 11.1563 20.625 11.534 20.625 12C20.625 12.466 20.2161 12.8437 19.7118 12.8437L4.28824 12.8437C3.78387 12.8437 3.375 12.466 3.375 12C3.375 11.534 3.78387 11.1563 4.28824 11.1563L19.7118 11.1563Z" fill="#404040"/>
<path d="M19.7118 16.6875C20.2161 16.6875 20.625 17.0653 20.625 17.5313C20.625 17.9972 20.2161 18.375 19.7118 18.375L4.28824 18.375C3.78387 18.375 3.375 17.9972 3.375 17.5312C3.375 17.0653 3.78387 16.6875 4.28824 16.6875L19.7118 16.6875Z" fill="#404040"/>
</svg>
