<svg width="48" height="48" viewBox="0 0 48 48" fill="none" xmlns="http://www.w3.org/2000/svg">
<path d="M25.9716 17.432C26.2745 17.6835 26.4863 17.9124 26.533 18.3163C26.5343 18.9427 26.4353 19.5121 26.2905 20.12C26.2668 20.2227 26.2432 20.3254 26.2198 20.428C26.1563 20.7041 26.0917 20.9798 26.0267 21.2554C25.9586 21.5454 25.8916 21.8356 25.8245 22.1257C25.7117 22.6124 25.5981 23.099 25.484 23.5854C25.3524 24.1464 25.2218 24.7076 25.0919 25.269C24.9529 25.8691 24.8133 26.469 24.6735 27.0689C24.6334 27.2408 24.5935 27.4127 24.5536 27.5847C24.4907 27.8554 24.4274 28.1261 24.3638 28.3967C24.3296 28.5424 24.2958 28.6883 24.262 28.8341C23.9376 30.2069 23.9376 30.2069 23.458 30.578C23.0493 30.7995 22.6479 30.7838 22.2107 30.6619C21.8801 30.461 21.6654 30.2332 21.49 29.8825C21.4319 29.1866 21.5497 28.5469 21.7083 27.8723C21.7318 27.7689 21.7552 27.6655 21.7786 27.562C21.8417 27.2839 21.9061 27.006 21.9707 26.7283C22.0385 26.4361 22.1053 26.1438 22.1722 25.8514C22.2846 25.361 22.3979 24.8708 22.5117 24.3807C22.6429 23.8154 22.7728 23.2499 22.9019 22.6842C23.0268 22.1378 23.1525 21.5917 23.2786 21.0456C23.3321 20.8141 23.3852 20.5826 23.4381 20.351C23.5004 20.0781 23.5636 19.8054 23.6274 19.5328C23.6615 19.386 23.6949 19.239 23.7282 19.092C23.8989 18.3683 24.0711 17.7692 24.7059 17.3327C25.1154 17.1954 25.5968 17.21 25.9716 17.432Z" fill="#404040"/>
<path d="M19.1477 19.0307C19.4418 19.1801 19.6446 19.386 19.7911 19.6815C19.931 20.1169 19.9092 20.4895 19.7117 20.8991C19.5413 21.1792 19.325 21.3941 19.0781 21.6075C19.0362 21.6447 18.9944 21.682 18.9513 21.7204C18.8308 21.8273 18.7094 21.9331 18.5879 22.0389C18.5048 22.1117 18.5048 22.1117 18.42 22.1859C18.3226 22.271 18.2251 22.3559 18.1274 22.4406C17.9104 22.6321 17.6977 22.8281 17.4849 23.0242C17.1524 23.3305 16.7812 23.7188 16.4531 24C16.6875 24.2812 16.8483 24.4593 17.1074 24.691C17.1537 24.733 17.1999 24.775 17.2476 24.8183C17.5318 25.0757 17.8191 25.3295 18.1093 25.5801C18.3697 25.8095 18.624 26.0456 18.8782 26.2818C19.0579 26.4478 19.2389 26.6067 19.4311 26.7582C19.7057 26.9818 19.8203 27.206 19.868 27.5579C19.8898 28.0365 19.8196 28.3237 19.5291 28.7059C19.2399 28.9879 18.9949 29.0463 18.6026 29.0687C17.8896 29.0431 17.4691 28.6328 16.9977 28.1388C16.8136 27.9501 16.6149 27.7811 16.4153 27.6091C16.195 27.4161 15.9795 27.218 15.7642 27.0196C15.4579 26.7375 15.1485 26.4597 14.8337 26.1871C14.5726 25.9566 14.3172 25.7198 14.062 25.4827C13.8823 25.3166 13.7014 25.1578 13.5092 25.0063C13.2349 24.783 13.1229 24.5592 13.0695 24.2093C13.0403 23.6958 13.1525 23.3664 13.4895 22.9801C13.7406 22.7321 14.0057 22.5033 14.2739 22.2742C14.405 22.1569 14.5357 22.0393 14.6661 21.9212C16.2348 20.5094 16.2348 20.5094 16.4297 20.3341C16.5646 20.2126 16.6994 20.0908 16.8341 19.9689C18.1923 18.7408 18.1923 18.7408 19.1477 19.0307Z" fill="#404040"/>
<path d="M29.8827 18.9799C30.3314 19.1758 30.6682 19.5107 31.0022 19.8608C31.1864 20.0495 31.3851 20.2184 31.5847 20.3905C31.805 20.5835 32.0204 20.7815 32.2358 20.98C32.5421 21.2621 32.8514 21.5399 33.1663 21.8125C33.4274 22.043 33.6827 22.2798 33.9379 22.5168C34.1176 22.6829 34.2986 22.8418 34.4908 22.9933C34.765 23.2166 34.877 23.4404 34.9305 23.7902C34.9596 24.3038 34.8474 24.6332 34.5104 25.0194C34.2593 25.2674 33.9943 25.4963 33.726 25.7254C33.595 25.8426 33.4642 25.9603 33.3339 26.0783C31.7651 27.4902 31.7651 27.4902 31.5694 27.6657C31.4368 27.7855 31.305 27.9063 31.1741 28.0279C30.9818 28.2053 30.787 28.3785 30.5886 28.5491C30.5315 28.5982 30.4743 28.6473 30.4155 28.698C30.0097 29.0094 29.6727 29.0884 29.1617 29.0604C28.7228 28.9792 28.4956 28.7707 28.2404 28.4167C28.0893 27.9456 28.0716 27.5505 28.2879 27.1001C28.4585 26.8203 28.6751 26.6053 28.9218 26.3921C28.9846 26.3362 28.9846 26.3362 29.0487 26.2792C29.1691 26.1722 29.2906 26.0664 29.4121 25.9607C29.4675 25.9121 29.5229 25.8636 29.58 25.8136C29.6773 25.7285 29.7748 25.6437 29.8726 25.559C30.0896 25.3675 30.3022 25.1714 30.5151 24.9753C30.8475 24.6691 31.2009 24.2909 31.5469 24C31.2656 23.6718 31.1521 23.5443 30.8925 23.3086C30.8463 23.2666 30.8 23.2246 30.7524 23.1813C30.4681 22.9239 30.1808 22.6701 29.8906 22.4194C29.6303 22.19 29.376 21.954 29.1217 21.7178C28.942 21.5517 28.7611 21.3929 28.5689 21.2413C28.2942 21.0177 28.1797 20.7935 28.132 20.4417C28.1102 19.9631 28.1804 19.6758 28.4708 19.2936C28.8755 18.8991 29.3477 18.8896 29.8827 18.9799Z" fill="#404040"/>
<path d="M17.69 3.39689C17.7669 3.40085 17.8439 3.40481 17.9232 3.40889C18.7385 3.59945 19.2841 4.0418 19.8389 4.64525C20.3401 5.16713 20.8028 5.60917 21.4676 5.9162C21.537 5.95068 21.6064 5.98517 21.6779 6.0207C23.0104 6.6534 24.4726 6.68062 25.8673 6.21558C26.0308 6.14913 26.1929 6.07938 26.3536 6.00658C26.4357 5.97023 26.5179 5.93388 26.6025 5.89643C27.3372 5.52151 27.8598 4.98617 28.4143 4.38358C28.9446 3.82062 29.5 3.45774 30.2896 3.39689C30.3652 3.38967 30.4408 3.38244 30.5187 3.375C31.259 3.40419 31.9096 3.67098 32.58 3.9674C32.7157 4.02719 32.7157 4.02719 32.8543 4.08819C34.736 4.93158 37.8189 6.3284 38.7384 8.31689C39.0235 9.2019 38.8467 10.1038 38.5663 10.9633C38.1354 12.3597 38.4286 13.7982 39.0823 15.0715C39.765 16.3235 40.8561 17.1823 42.188 17.6654C42.4484 17.734 42.7107 17.7906 42.9741 17.8462C43.813 18.0268 44.4434 18.2875 44.9873 18.9816C45.8324 20.3091 45.7515 22.2455 45.7451 23.7717C45.745 23.851 45.7449 23.9303 45.7447 24.0121C45.7325 28.0311 45.7325 28.0311 44.6205 29.1697C44.0581 29.6801 43.5111 29.8421 42.7758 30.0011C41.2985 30.3257 39.9946 31.0553 39.1456 32.3238C38.2489 33.7951 38.0186 35.2197 38.3998 36.8914C38.4643 37.1347 38.5396 37.3601 38.631 37.594C38.863 38.2548 38.8704 39.0545 38.6083 39.7066C37.6836 41.4334 35.4507 42.5449 33.7845 43.4178C33.691 43.4669 33.5975 43.5161 33.5011 43.5667C32.3575 44.154 31.2259 44.6571 29.939 44.2481C29.311 43.9793 28.9016 43.5465 28.4856 43.0167C27.5799 41.8746 26.1873 41.2635 24.7589 41.0962C23.216 40.9915 21.7142 41.5029 20.5433 42.5115C20.2307 42.813 19.9656 43.1302 19.7088 43.4799C19.259 44.0725 18.6782 44.4664 17.9388 44.5983C15.5729 44.8972 12.5303 42.6133 10.7691 41.2681C10.6454 41.1718 10.6454 41.1718 10.5192 41.0736C10.4489 41.0196 10.3786 40.9657 10.3061 40.9101C9.69718 40.416 9.31764 39.8147 9.22455 39.0309C9.18997 38.2207 9.39238 37.5722 9.66777 36.8229C10.1357 35.5367 9.94286 34.0797 9.40445 32.8466C8.72014 31.515 7.67954 30.543 6.26673 30.0133C5.90648 29.9013 5.53475 29.842 5.1638 29.7762C4.26318 29.6158 3.51851 29.3528 2.94062 28.6027C2.17547 27.3626 2.2534 25.7223 2.25677 24.3151C2.25705 24.0672 2.25492 23.8195 2.25264 23.5717C2.23944 19.8509 2.23944 19.8509 3.19015 18.6201C3.84948 17.9601 4.65628 17.7288 5.54837 17.5844C6.52842 17.4204 7.29676 16.9998 8.0762 16.4001C8.17138 16.3312 8.26655 16.2622 8.36461 16.1911C9.44304 15.1618 9.98356 13.7373 10.0668 12.2717C10.0668 11.5488 9.92248 10.8862 9.69357 10.2035C9.45172 9.45349 9.39345 8.67074 9.68509 7.9236C10.7808 5.93806 13.8048 4.609 15.8294 3.7923C15.9052 3.76169 15.981 3.73109 16.0591 3.69956C16.6054 3.48617 17.0978 3.35616 17.69 3.39689ZM12.6003 9.07946C12.6474 9.48427 12.7289 9.86632 12.8297 10.2614C12.9771 10.8891 13.0075 11.4868 13.0018 12.1297C13.0011 12.2404 13.0003 12.351 12.9996 12.465C12.9579 14.7048 12.0858 16.631 10.5595 18.267C10.1558 18.6536 9.71303 18.9769 9.25247 19.2923C9.18004 19.3425 9.10761 19.3927 9.03298 19.4444C7.97522 20.1281 6.77221 20.4468 5.54269 20.6479C5.37647 21.3093 5.30246 21.9567 5.25428 22.6363C5.24643 22.746 5.23858 22.8558 5.23049 22.9689C5.15134 24.2245 5.11538 25.5529 5.36173 26.7937C5.53564 26.8332 5.53564 26.8332 5.71306 26.8735C8.17176 27.4482 10.2216 28.6188 11.622 30.7873C12.7674 32.729 13.1984 35.1025 12.6374 37.3066C12.5447 37.6299 12.4412 37.9484 12.331 38.2662C12.2288 38.5229 12.2288 38.5229 12.2384 38.7237C12.4579 38.9261 12.7082 39.0926 12.9509 39.266C13.0611 39.3448 13.0611 39.3448 13.1734 39.4253C14.3902 40.2808 15.9291 41.2818 17.3959 41.6158C17.4376 41.56 17.4794 41.5042 17.5224 41.4467C18.8323 39.7479 20.7116 38.6398 22.8248 38.2718C22.9387 38.2513 23.0525 38.2308 23.1698 38.2097C25.6783 37.9633 28.0036 38.6836 29.9574 40.2778C30.2831 40.5552 30.5543 40.8681 30.8102 41.2105C30.9596 41.3674 30.9596 41.3674 31.1722 41.3405C31.4904 41.2301 31.7885 41.0907 32.088 40.938C32.1512 40.9059 32.2144 40.8739 32.2796 40.8409C33.3603 40.2855 34.3543 39.6518 35.3114 38.9045C35.4318 38.8138 35.5524 38.7233 35.6733 38.6333C35.6252 38.2201 35.5437 37.8237 35.4471 37.4189C34.9042 35.0911 35.3507 32.7996 36.5602 30.7614C36.8273 30.3381 37.1438 29.9632 37.483 29.5954C37.5575 29.5102 37.5575 29.5102 37.6335 29.4232C38.9038 28.0481 40.7588 27.3384 42.55 26.9745C42.7155 26.0503 42.7594 25.1571 42.7545 24.2208C42.7536 23.9982 42.7545 23.7756 42.7557 23.553C42.7564 22.6596 42.695 21.8013 42.55 20.9191C42.4417 20.8837 42.3335 20.8482 42.222 20.8118C42.1473 20.7866 42.0727 20.7614 41.9958 20.7355C41.8133 20.6741 41.6304 20.6139 41.4472 20.5547C40.2444 20.1506 39.1533 19.6064 38.2068 18.75C38.1328 18.6844 38.0587 18.6188 37.9824 18.5512C36.3663 17.0371 35.5046 14.9164 35.3835 12.7232C35.3694 11.5924 35.5294 10.5258 35.8543 9.44097C34.5453 8.37601 33.1243 7.54237 31.6016 6.81999C31.5164 6.77676 31.4311 6.73354 31.3432 6.68901C30.9935 6.49775 30.9935 6.49775 30.6134 6.50719C30.4 6.65701 30.2564 6.83647 30.0949 7.03927C28.9533 8.3704 26.9788 9.20879 25.2678 9.44097C22.4688 9.63574 20.2449 9.03842 18.0909 7.20529C17.8231 6.97202 17.6087 6.74389 17.3959 6.45847C15.8573 6.45847 13.7915 8.19324 12.6003 9.07946Z" fill="#404040"/>
</svg>
