<svg width="256" height="256" viewBox="0 0 256 256" fill="none" xmlns="http://www.w3.org/2000/svg">
<rect width="256" height="256" fill="white"/>
<path d="M30 158C30 164.524 35.2061 169.832 41.6904 169.996H214.31C220.794 169.832 226 164.524 226 158V48C226 41.3726 220.627 36 214 36V18C230.569 18 244 31.4315 244 48V158C244 174.569 230.569 188 214 188H42C25.4314 188 12 174.569 12 158V48C12 31.4315 25.4315 18 42 18V36C35.3726 36 30 41.3726 30 48V158ZM214 18V36H42V18H214Z" fill="#262626"/>
<path d="M160.982 90.1184C170.673 95.9339 170.673 110.01 160.982 115.825L160.75 115.962L121 138.912C111 144.685 98.5 137.469 98.5 125.922L98.5 80.0222C98.5001 68.4753 111 61.2585 121 67.032L160.75 89.9817L160.982 90.1184Z" fill="#E01236"/>
<path d="M235 211C239.971 211 244 215.029 244 220C244 224.971 239.971 229 235 229H115C110.029 229 106 224.971 106 220C106 215.029 110.029 211 115 211H235Z" fill="#262626"/>
<path d="M72 202C81.9411 202 90 210.059 90 220C90 229.941 81.9411 238 72 238C65.3376 238 59.521 234.38 56.4087 229H21C16.0294 229 12 224.971 12 220C12 215.029 16.0294 211 21 211H56.4087C59.521 205.62 65.3376 202 72 202Z" fill="#262626"/>
</svg>
