<svg width="456" height="320" viewBox="0 0 456 320" fill="none" xmlns="http://www.w3.org/2000/svg">
<g clip-path="url(#clip0_2944_8256)">
<path d="M113.419 302.579C122.692 309.79 133.63 312.274 145.102 313.031C156.96 313.813 168.554 316.841 180.722 316.979C220.934 317.437 260.796 310.254 300.367 303.096C309.315 301.477 318.435 299.8 326.432 295.472C333.447 291.681 342.087 285.803 346.217 278.749C350.116 272.091 350.825 260.132 349.149 252.674C345.993 238.631 332.485 229.308 326.742 216.11C320.361 201.448 326.496 189.84 331.932 176.273C337.642 162.022 336.511 144.053 322.831 134.668C315.16 129.405 305.727 126.919 298.814 120.518C291.52 113.764 287.522 103.503 281.979 95.3472C272.863 81.9342 256.233 70.9523 239.46 76.448C222.659 81.9525 212.913 102.125 195.442 104.838C177.28 107.658 159.194 89.9156 141.995 96.3962C138.171 97.8367 135.057 99.7135 133.718 103.594C132.156 108.122 131.75 112.967 130.051 117.465C127.104 125.268 121.018 131.454 114.622 136.809C108.225 142.163 101.305 146.986 95.8054 153.259C90.306 159.531 86.2695 167.672 87.1112 175.97C87.8757 183.505 92.4484 190.011 95.6815 196.86C100.771 207.64 97.9075 214.951 93.5617 225.163C87.8298 238.633 86.8026 253.925 90.1155 268.143C91.7852 275.308 94.5317 282.397 98.4739 288.63C101.903 294.051 108.4 298.675 113.419 302.579Z" fill="#F8E3E6"/>
<path d="M239.692 264.591C232.718 269.86 225.381 269.604 220.138 266.3C219.417 265.846 218.482 266.332 218.482 267.187V296.93C218.482 297.521 218.006 298 217.42 298H130.064C129.477 298 129 297.521 129 296.93V209.07C129 208.48 129.476 208.001 130.064 208.001H160.213C161.076 208.001 161.579 208.981 161.074 209.686C157.282 214.988 156.686 222.748 162.239 230.178C162.307 230.27 162.392 230.355 162.483 230.423C175.3 240.076 189.335 231.092 189.335 218.811C189.335 215.4 188.246 212.249 186.405 209.677C185.903 208.977 186.414 208 187.273 208H217.421C218.008 208 218.484 208.479 218.484 209.069V238.813C218.484 239.668 219.417 240.154 220.137 239.7C222.534 238.189 225.369 237.315 228.407 237.315C240.625 237.315 249.561 251.448 239.935 264.345C239.866 264.439 239.782 264.523 239.692 264.591Z" fill="#FEE356"/>
<path opacity="0.1" d="M130.049 298C129.47 298 129 297.521 129 296.93V209.069C129 208.479 129.469 208 130.049 208H159.785C160.637 208 161.132 208.98 160.634 209.685C156.895 214.987 156.306 222.748 161.782 230.178C161.85 230.269 161.933 230.354 162.023 230.423C164.959 232.664 167.959 233.89 170.836 234.314L192 298H130.049Z" fill="#231F20"/>
<path d="M273.962 186.345C279.172 193.38 278.919 200.78 275.652 206.069C275.203 206.796 275.683 207.738 276.529 207.738H305.942C306.526 207.738 307 208.218 307 208.81V296.927C307 297.52 306.527 298 305.942 298H219.059C218.475 298 218.001 297.52 218.001 296.927V266.517C218.001 265.645 218.969 265.139 219.667 265.647C224.91 269.471 232.585 270.073 239.932 264.473C240.022 264.404 240.106 264.319 240.174 264.227C249.72 251.297 240.835 237.141 228.691 237.141C225.318 237.141 222.202 238.239 219.659 240.096C218.966 240.603 218 240.087 218 239.22V208.81C218 208.218 218.473 207.738 219.058 207.738H248.472C249.317 207.738 249.798 206.797 249.349 206.07C247.855 203.652 246.99 200.793 246.99 197.729C246.99 185.405 260.966 176.391 273.72 186.1C273.811 186.169 273.895 186.254 273.962 186.345Z" fill="#FB4C69"/>
<path opacity="0.1" d="M307 296.901C307 297.508 306.527 298 305.942 298H219.058C218.474 298 218 297.508 218 296.901V265.75C218 264.858 218.968 264.339 219.666 264.861C224.909 268.778 232.584 269.395 239.931 263.656C240.022 263.586 240.106 263.499 240.173 263.405C242.39 260.328 243.603 257.186 244.021 254.172L306.999 232V296.901H307Z" fill="#231F20"/>
<path d="M164.481 223.25C158.232 217.06 157.381 209.674 159.853 203.925C160.193 203.134 159.573 202.271 158.729 202.401L129.369 206.889C128.786 206.979 128.242 206.574 128.153 205.986L115.012 118.496C114.924 117.908 115.325 117.358 115.908 117.269L202.633 104.012C203.216 103.923 203.76 104.328 203.849 104.916L208.383 135.111C208.513 135.976 207.622 136.626 206.85 136.228C201.046 133.23 193.295 133.804 186.797 140.486C186.717 140.568 186.646 140.665 186.592 140.767C178.992 155.06 189.971 167.761 202.093 165.908C205.46 165.394 208.406 163.827 210.667 161.595C211.284 160.987 212.324 161.351 212.453 162.211L216.988 192.405C217.076 192.993 216.675 193.542 216.092 193.632L186.731 198.12C185.888 198.249 185.548 199.257 186.104 199.909C187.956 202.082 189.245 204.79 189.702 207.832C191.54 220.069 178.933 231.15 164.755 223.457C164.658 223.402 164.562 223.33 164.481 223.25Z" fill="#4FCCEA"/>
<path d="M302 77.7694L249.044 42L219 93" stroke="#4266B0" stroke-width="2" stroke-miterlimit="10"/>
<path opacity="0.1" d="M115.012 118.607C114.924 118.015 115.324 117.461 115.904 117.371L202.261 104.012C202.842 103.922 203.384 104.33 203.472 104.923L207.987 135.35C208.116 136.222 207.229 136.878 206.46 136.476C200.681 133.455 192.962 134.034 186.492 140.767C186.413 140.85 186.342 140.948 186.287 141.05C184.529 144.396 183.78 147.651 183.801 150.66L124.419 182L115.012 118.607Z" fill="#231F20"/>
<path d="M201.451 128.338C207.379 121.798 214.633 120.725 220.367 123.084C221.155 123.409 221.987 122.753 221.838 121.896L216.611 92.1064C216.508 91.5152 216.891 90.949 217.468 90.843L303.312 75.0175C303.889 74.9106 304.441 75.3048 304.545 75.896L319.983 163.893C320.087 164.484 319.703 165.05 319.126 165.156L289.5 170.618C288.651 170.774 287.985 169.884 288.357 169.087C291.151 163.089 290.374 155.208 283.611 148.773C283.528 148.694 283.43 148.624 283.328 148.572C269.036 141.227 256.823 152.767 258.981 165.067C259.581 168.483 261.205 171.441 263.466 173.684C264.083 174.295 263.752 175.366 262.907 175.521L233.281 180.983C232.704 181.089 232.152 180.695 232.049 180.104L226.822 150.313C226.671 149.457 225.669 149.139 225.042 149.725C222.951 151.672 220.319 153.061 217.334 153.612C205.328 155.825 194.063 143.289 201.256 128.627C201.307 128.522 201.374 128.423 201.451 128.338Z" fill="#1F143F"/>
<path opacity="0.5" d="M303.4 75.0174C303.974 74.9112 304.524 75.3018 304.626 75.8901L319.983 163.302C320.086 163.889 319.705 164.451 319.131 164.557L289.661 169.982C288.817 170.137 288.155 169.254 288.524 168.461C291.304 162.504 290.531 154.675 283.804 148.282C283.721 148.204 283.623 148.135 283.522 148.083C280.22 146.388 277.033 145.716 274.107 145.819L242 86.3217L303.4 75.0174Z" fill="#593D6F"/>
<path d="M249 43V-52" stroke="#4266B0" stroke-width="2" stroke-miterlimit="10"/>
<path d="M364.208 304.144H74.2922C72.4736 304.144 71 302.669 71 300.852V300.851C71 299.032 72.4736 297.559 74.2922 297.559H364.208C366.026 297.559 367.5 299.033 367.5 300.851V300.852C367.5 302.669 366.026 304.144 364.208 304.144Z" fill="#F15671"/>
<path d="M159.361 75.9068C162.047 75.7167 166.355 75.2082 167.739 72.4702C169.73 68.5312 164.814 64.9534 161.335 64.5915C158.973 64.3454 156.317 65.0645 154.386 63.6822C153.409 62.9829 152.832 61.8698 152.063 60.9469C149.913 58.369 146.028 57.4121 142.927 58.6976C141.754 59.1836 140.623 59.9681 139.355 59.8972C137.893 59.8154 136.756 58.626 135.874 57.4577C133.851 54.779 133.377 50.1693 129.505 49.8557C127.116 49.6622 125.614 51.0799 124.214 52.8167C121.591 56.0727 120.217 62.6271 115.319 63.2637C113.306 63.5241 111.369 62.5548 109.41 62.0225C107.452 61.4901 104.97 61.5835 103.875 63.2923C102.976 64.6951 103.371 66.6901 102.343 68.0009C101.335 69.2843 99.4643 69.3443 97.8905 69.7751C96.0242 70.2856 93.2017 70.655 91.5788 71.5984C90.3757 72.297 89.5312 73.8259 90.0744 75.1066C90.7438 76.6859 92.8581 76.8979 94.5731 76.8666C116.192 76.4685 137.677 77.4418 159.361 75.9068Z" fill="#F8E3E6"/>
<path d="M351.803 89.9583C353.693 89.8247 356.723 89.4668 357.696 87.5406C359.097 84.7699 355.639 82.2534 353.192 81.9985C351.531 81.8253 349.662 82.3311 348.304 81.3591C347.617 80.8677 347.211 80.0838 346.67 79.4349C345.158 77.6218 342.425 76.9484 340.244 77.8529C339.418 78.1951 338.623 78.7465 337.731 78.6967C336.702 78.6395 335.903 77.8025 335.282 76.9805C333.86 75.0958 333.526 71.8541 330.803 71.6332C329.122 71.4969 328.066 72.4941 327.081 73.7162C325.236 76.0064 324.27 80.6168 320.824 81.0647C319.408 81.248 318.046 80.5657 316.668 80.1915C315.291 79.8173 313.545 79.8827 312.775 81.0844C312.142 82.0714 312.421 83.4741 311.697 84.3964C310.989 85.2995 309.673 85.3411 308.565 85.6444C307.253 86.0036 305.267 86.2633 304.125 86.9265C303.279 87.4179 302.685 88.4935 303.067 89.3946C303.538 90.5056 305.025 90.6542 306.232 90.6324C321.438 90.3536 336.551 91.038 351.803 89.9583Z" fill="#F8E3E6"/>
</g>
<defs>
<clipPath id="clip0_2944_8256">
<rect width="455.385" height="320" rx="18.6047" fill="white"/>
</clipPath>
</defs>
</svg>
