<svg width="24" height="24" viewBox="0 0 24 24" fill="none" xmlns="http://www.w3.org/2000/svg">
<path d="M20.0625 3C21.6158 3 22.875 4.2592 22.875 5.8125V16.125C22.875 17.6783 21.6158 18.9375 20.0625 18.9375H14.5283L15.085 20.0625H16.8027C17.2587 20.0741 17.625 20.4475 17.625 20.9062C17.625 21.365 17.2587 21.7384 16.8027 21.75H7.21875C6.75276 21.75 6.375 21.3722 6.375 20.9062C6.375 20.4403 6.75276 20.0625 7.21875 20.0625H8.9209L9.53613 18.9375H3.9375C2.3842 18.9375 1.125 17.6783 1.125 16.125V5.8125C1.125 4.2592 2.3842 3 3.9375 3H20.0625ZM3.9375 4.6875C3.31618 4.6875 2.8125 5.19118 2.8125 5.8125V16.125C2.8125 16.7365 3.30042 17.2345 3.9082 17.25H20.0918C20.6996 17.2345 21.1875 16.7365 21.1875 16.125V5.8125C21.1875 5.19118 20.6838 4.6875 20.0625 4.6875H3.9375Z" fill="#262626"/>
<path d="M12.9685 7.7814C13.12 7.90714 13.2259 8.02159 13.2492 8.22354C13.2499 8.53673 13.2004 8.82143 13.128 9.12542C13.1161 9.17674 13.1043 9.22808 13.0926 9.27942C13.0609 9.41743 13.0286 9.55529 12.9961 9.69312C12.962 9.83809 12.9285 9.98318 12.895 10.1283C12.8386 10.3716 12.7818 10.6149 12.7247 10.8581C12.6589 11.1386 12.5937 11.4192 12.5287 11.6999C12.4592 11.9999 12.3894 12.2999 12.3195 12.5998C12.2995 12.6858 12.2795 12.7718 12.2595 12.8577C12.2281 12.9931 12.1964 13.1284 12.1646 13.2637C12.1475 13.3366 12.1306 13.4095 12.1137 13.4825C11.9515 14.1688 11.9515 14.1688 11.7117 14.3544C11.5074 14.4652 11.3067 14.4573 11.0881 14.3964C10.9228 14.2959 10.8154 14.182 10.7277 14.0066C10.6987 13.6587 10.7576 13.3388 10.8369 13.0016C10.8486 12.9498 10.8604 12.8981 10.872 12.8464C10.9036 12.7073 10.9358 12.5684 10.9681 12.4295C11.002 12.2835 11.0354 12.1373 11.0688 11.9911C11.125 11.7459 11.1817 11.5008 11.2386 11.2557C11.3042 10.9731 11.3691 10.6903 11.4337 10.4075C11.4961 10.1343 11.559 9.86123 11.622 9.5882C11.6488 9.47246 11.6753 9.35669 11.7018 9.24089C11.7329 9.10444 11.7645 8.96809 11.7964 8.83181C11.8135 8.7584 11.8302 8.6849 11.8468 8.61139C11.9322 8.24955 12.0183 7.94998 12.3357 7.73176C12.5404 7.6631 12.7811 7.6704 12.9685 7.7814Z" fill="#E01236"/>
<path d="M9.6038 8.58028C9.75088 8.65494 9.85226 8.75789 9.92551 8.90567C9.99545 9.12335 9.98454 9.30965 9.88583 9.51446C9.80064 9.65452 9.69245 9.76198 9.56902 9.86865C9.54809 9.88728 9.52716 9.90591 9.5056 9.9251C9.44537 9.97857 9.38465 10.0315 9.32391 10.0843C9.28235 10.1207 9.28235 10.1207 9.23996 10.1579C9.19128 10.2004 9.14252 10.2429 9.09366 10.2852C8.98516 10.3809 8.87882 10.479 8.77241 10.577C8.60618 10.7302 8.42057 10.9243 8.25651 11.0649C8.3737 11.2055 8.45412 11.2946 8.58367 11.4104C8.6068 11.4314 8.62992 11.4524 8.65375 11.4741C8.79587 11.6028 8.93952 11.7296 9.08462 11.855C9.21481 11.9697 9.34196 12.0877 9.46907 12.2058C9.55892 12.2888 9.6494 12.3683 9.7455 12.444C9.88283 12.5558 9.94011 12.6679 9.96396 12.8439C9.97485 13.0832 9.93976 13.2268 9.79453 13.4179C9.64991 13.5589 9.52743 13.588 9.33126 13.5993C8.97477 13.5865 8.76451 13.3813 8.52883 13.1343C8.43675 13.0399 8.3374 12.9555 8.2376 12.8694C8.12746 12.7729 8.01973 12.6739 7.91206 12.5747C7.75889 12.4336 7.60422 12.2948 7.44681 12.1585C7.31626 12.0432 7.18857 11.9248 7.06099 11.8063C6.97114 11.7232 6.88065 11.6438 6.78455 11.568C6.64743 11.4564 6.59142 11.3445 6.56471 11.1696C6.55014 10.9128 6.60622 10.7481 6.77474 10.555C6.90028 10.431 7.0328 10.3165 7.16692 10.202C7.23246 10.1434 7.29783 10.0845 7.36301 10.0255C8.14737 9.3196 8.14737 9.3196 8.2448 9.23197C8.31229 9.17119 8.37969 9.11032 8.44702 9.04936C9.12613 8.43532 9.12613 8.43532 9.6038 8.58028Z" fill="#262626"/>
<path d="M14.8778 8.55558C15.1021 8.65356 15.2705 8.82098 15.4375 8.99602C15.5296 9.09038 15.629 9.17485 15.7288 9.26089C15.8389 9.35739 15.9466 9.45641 16.0543 9.55564C16.2075 9.69669 16.3621 9.83558 16.5196 9.97187C16.6501 10.0871 16.7778 10.2055 16.9054 10.3241C16.9952 10.4071 17.0857 10.4865 17.1818 10.5623C17.3189 10.6739 17.375 10.7858 17.4017 10.9607C17.4162 11.2175 17.3602 11.3822 17.1916 11.5754C17.0661 11.6993 16.9336 11.8138 16.7995 11.9283C16.7339 11.987 16.6685 12.0458 16.6034 12.1048C15.819 12.8107 15.819 12.8107 15.7211 12.8985C15.6548 12.9584 15.5889 13.0188 15.5235 13.0796C15.4273 13.1683 15.3299 13.2549 15.2307 13.3402C15.2022 13.3647 15.1736 13.3893 15.1442 13.4146C14.9413 13.5704 14.7728 13.6099 14.5173 13.5959C14.2978 13.5553 14.1842 13.451 14.0566 13.274C13.9811 13.0384 13.9722 12.8409 14.0804 12.6157C14.1657 12.4758 14.274 12.3683 14.3974 12.2617C14.4287 12.2337 14.4287 12.2337 14.4608 12.2052C14.521 12.1518 14.5817 12.0989 14.6425 12.046C14.6702 12.0217 14.6979 11.9975 14.7264 11.9724C14.7751 11.9299 14.8239 11.8875 14.8727 11.8451C14.9812 11.7494 15.0876 11.6514 15.194 11.5533C15.3602 11.4002 15.5369 11.2111 15.7099 11.0656C15.5692 10.9016 15.5125 10.8378 15.3827 10.7199C15.3596 10.6989 15.3365 10.6779 15.3126 10.6563C15.1705 10.5276 15.0269 10.4007 14.8818 10.2754C14.7516 10.1606 14.6244 10.0426 14.4973 9.92453C14.4075 9.8415 14.317 9.76208 14.2209 9.68632C14.0835 9.5745 14.0263 9.46241 14.0024 9.28648C13.9915 9.04717 14.0266 8.90355 14.1718 8.71245C14.3742 8.51519 14.6103 8.51043 14.8778 8.55558Z" fill="#262626"/>
</svg>
