<svg width="24" height="24" viewBox="0 0 24 24" fill="none" xmlns="http://www.w3.org/2000/svg">
<path d="M6.17013 12.7581C6.69618 11.8748 7.91085 11.7141 8.64851 12.4302L8.66595 12.4474L11.8272 15.6087C12.5382 16.3197 12.4212 17.5034 11.5847 18.0614L4.28442 22.9313C3.65228 23.353 2.81032 23.2698 2.273 22.7325L1.96585 22.4253C1.45633 21.9158 1.35208 21.1277 1.71156 20.5033L6.15777 12.7793L6.17013 12.7581ZM3.20986 21.2828L3.41187 21.4848L10.5531 16.721L7.55921 13.7272L3.20986 21.2828Z" fill="#262626"/>
<path d="M15.8416 14.6801C16.4764 15.3189 16.3556 16.3813 15.5936 16.8612L13.5913 18.1226C13.0357 18.4726 12.3118 18.3914 11.8474 17.9271L6.08476 12.1644C5.61966 11.6993 5.53911 10.9739 5.89084 10.4181L7.17148 8.39441C7.6543 7.63143 8.72079 7.51466 9.35725 8.15511L15.8416 14.6801ZM7.43713 11.1303L12.8819 16.5751L14.3971 15.6205L8.40884 9.59474L7.43713 11.1303Z" fill="#262626"/>
<path d="M19.125 7.68256C19.125 5.86201 18.5 4.61829 17.492 3.45205C17.4957 3.67754 17.4938 3.89352 17.4826 4.09109C17.4633 4.4329 17.4133 4.8321 17.256 5.1699C17.1729 5.34842 17.0419 5.54922 16.8323 5.70635C16.6111 5.87215 16.3513 5.95212 16.0844 5.95212C15.4991 5.95212 15.012 5.89613 14.5679 5.63796C14.4265 5.55573 14.2957 5.45389 14.1738 5.34426C13.6692 6.1429 13.4062 6.96896 13.4062 7.68256C13.4063 9.49399 14.6209 10.6871 16.0844 10.6871C17.7802 10.6871 19.125 9.49327 19.125 7.68256ZM20.8125 7.68256C20.8125 10.5002 18.6354 12.3746 16.0844 12.3746C13.5598 12.3746 11.7188 10.2915 11.7188 7.68256C11.7187 6.30078 12.3371 4.86097 13.3027 3.66953L13.3216 3.64692C13.7165 3.18636 14.4126 3.17477 14.8281 3.59418L14.848 3.61478L14.9703 3.74612C15.0804 3.86485 15.1574 3.94913 15.2364 4.02782C15.331 4.12197 15.3816 4.15906 15.4161 4.17907C15.4519 4.1999 15.5259 4.23749 15.7731 4.25506C15.7828 4.18776 15.7918 4.10231 15.7978 3.99573C15.8304 3.42019 15.7671 2.66406 15.7255 1.79783C15.6807 0.867263 16.7863 0.372089 17.455 1.00118C19.2433 2.68356 20.8125 4.51038 20.8125 7.68256Z" fill="#E01236"/>
<path d="M11.1756 1.2039C11.5916 1.01046 12.0843 1.18497 12.2871 1.5935L12.2965 1.61314L12.7653 2.62095L12.7742 2.64082C12.956 3.05908 12.7719 3.54838 12.356 3.74183C11.9401 3.93527 11.4473 3.76076 11.2446 3.35223L11.2351 3.33259L10.7664 2.32478L10.7575 2.30491C10.5757 1.88665 10.7597 1.39735 11.1756 1.2039Z" fill="#E01236"/>
<path d="M21.1131 1.2039C21.5291 1.01046 22.0218 1.18497 22.2246 1.5935L22.234 1.61314L22.7028 2.62095L22.7117 2.64082C22.8935 3.05908 22.7094 3.54838 22.2935 3.74183C21.8776 3.93527 21.3848 3.76076 21.1821 3.35223L21.1726 3.33259L20.7039 2.32478L20.695 2.30491C20.5132 1.88665 20.6972 1.39735 21.1131 1.2039Z" fill="#E01236"/>
</svg>
