<svg width="24" height="24" viewBox="0 0 24 24" fill="none" xmlns="http://www.w3.org/2000/svg">
<path d="M11.2725 1.22079C11.7343 1.09708 12.2198 1.09319 12.6831 1.20916L12.7279 1.22079L19.4207 3.01348C20.7147 3.36008 21.5905 4.57462 21.4958 5.92069C21.3936 7.37357 21.1758 10.2887 20.924 12.5478C20.3661 17.5523 16.9383 19.7267 13.7258 22.2581C12.733 23.0404 11.3298 23.0762 10.2987 22.3176H10.2986C6.714 19.6804 3.63419 17.5518 3.07639 12.5478C2.82456 10.2887 2.60674 7.37357 2.50455 5.92069C2.40988 4.57463 3.28566 3.36008 4.57964 3.01348L11.2725 1.22079ZM12.2913 2.85079C12.1006 2.79971 11.8998 2.79971 11.7091 2.85079L5.01625 4.64353C4.49816 4.78231 4.15025 5.26728 4.18789 5.80232C4.28999 7.25397 4.50582 10.139 4.7535 12.3609C5.21875 16.5346 7.63563 18.2635 11.2986 20.9583C11.7054 21.2575 12.2609 21.2504 12.6624 20.9473L12.6814 20.9326C16.0561 18.2734 18.7408 16.5486 19.2356 12.4579L19.2468 12.3609C19.479 10.2779 19.6832 7.61202 19.792 6.0908L19.8125 5.80232C19.8495 5.27564 19.513 4.79749 19.0083 4.65031L18.9841 4.64353L12.2913 2.85079Z" fill="#262626"/>
<path d="M15.5284 7.37213C15.8579 7.04262 16.3921 7.04262 16.7216 7.37213C17.0511 7.70163 17.0511 8.23583 16.7216 8.56534L11.7545 13.5324C11.3335 13.9535 10.6508 13.9535 10.2298 13.5324L7.74713 11.0497C7.41762 10.7202 7.41762 10.186 7.74713 9.8565C8.07148 9.53215 8.59422 9.52704 8.92477 9.84126L8.94034 9.8565L10.9921 11.9083L15.5284 7.37213Z" fill="#E01236"/>
</svg>
