<svg width="24" height="24" viewBox="0 0 24 24" fill="none" xmlns="http://www.w3.org/2000/svg">
<path d="M2.81333 13.1255C3.31267 12.1017 4.54743 11.6765 5.57123 12.1759C6.59504 12.6752 7.0202 13.91 6.52086 14.9338L5.04135 17.9672C4.54201 18.991 3.30725 19.4162 2.28345 18.9168C1.25965 18.4175 0.834485 17.1827 1.33383 16.1589L2.81333 13.1255Z" fill="#E84367"/>
<path d="M10.621 10.1116C11.1203 9.0878 12.3551 8.66264 13.3789 9.16198C14.4027 9.66132 14.8278 10.8961 14.3285 11.9199L11.3695 17.9867C10.8701 19.0105 9.63538 19.4357 8.61158 18.9364C7.58777 18.437 7.16261 17.2023 7.66195 16.1785L10.621 10.1116Z" fill="#E84367"/>
<path d="M18.9628 7.05767C19.4621 6.03386 20.6969 5.6087 21.7207 6.10804C22.7445 6.60739 23.1696 7.84214 22.6703 8.86595L18.2318 17.9662C17.7324 18.99 16.4977 19.4152 15.4739 18.9159C14.4501 18.4165 14.0249 17.1818 14.5243 16.158L18.9628 7.05767Z" fill="#E84367"/>
<circle cx="3.1875" cy="17.0671" r="2.0625" fill="#E02C4B"/>
<path d="M14.5374 11.0156C14.5374 12.1547 13.6139 13.0781 12.4749 13.0781C11.3358 13.0781 10.4124 12.1547 10.4124 11.0156C10.4124 9.87654 11.3358 8.95312 12.4749 8.95312C13.6139 8.95312 14.5374 9.87654 14.5374 11.0156Z" fill="#542056"/>
<circle cx="20.8167" cy="7.96167" r="2.0625" fill="#542056"/>
<circle cx="9.51562" cy="17.0828" r="2.0625" fill="#E02C4B"/>
<circle cx="16.3782" cy="17.062" r="2.0625" fill="#E02C4B"/>
</svg>
