<svg width="456" height="320" viewBox="0 0 456 320" fill="none" xmlns="http://www.w3.org/2000/svg">
<path d="M343.297 266.497C288.276 324.4 203.761 307.271 191.269 304.518C175.53 301.05 138.086 292.799 110.144 260.223C67.3642 210.348 71.6843 132.402 104.723 79.8506C114.336 64.5598 146.688 19.1185 207.442 9.23834C210.992 8.66089 274.433 -0.615089 325.478 42.0959C332.36 47.8549 343.469 58.2837 353.205 73.4695C383.408 120.577 397.702 209.243 343.297 266.497Z" fill="#F8E3E6"/>
<path d="M325.716 301H250V101.92C250 99.2026 251.581 97 253.532 97H323.468C325.419 97 327 99.2026 327 101.92V299.212C327 300.199 326.425 301 325.716 301Z" fill="#F15671"/>
<path d="M236.565 96.6253L288.544 39.3508C289.373 38.4923 290.76 38.5623 291.5 39.5L341.565 97.7616C342.602 99.0749 341.666 101.016 340.003 101L237.959 100.013C236.221 99.996 235.351 97.8821 236.565 96.6253Z" fill="#F15671"/>
<path d="M266.833 301H198V138.927C198 136.206 199.438 134 201.211 134H264.789C266.562 134 268 136.206 268 138.927V299.209C268 300.198 267.477 301 266.833 301Z" fill="#593D6F"/>
<path d="M212 301H141V190.919C141 188.202 142.673 186 144.737 186H208.263C210.327 186 212 188.202 212 190.919V301Z" fill="#F15671"/>
<path d="M169 301H110.332C109.596 301 109 300.202 109 299.217V224.906C109 222.196 110.641 220 112.665 220H165.335C167.359 220 169 222.196 169 224.906V301Z" fill="#593D6F"/>
<g opacity="0.3">
<path d="M126.391 73.3634C125.879 73.43 125.389 73.1002 125.267 72.5871C125 71.465 124.778 70.3146 124.607 69.168C124.524 68.6101 124.908 68.0904 125.466 68.0071C125.473 68.0062 125.479 68.0054 125.486 68.0045C126.036 67.9331 126.544 68.3151 126.627 68.8663C126.789 69.9556 127 71.0484 127.254 72.1144C127.385 72.663 127.046 73.2138 126.497 73.3442C126.462 73.3526 126.426 73.3589 126.391 73.3634ZM125.31 64.5335C125.271 64.5387 125.23 64.5415 125.189 64.542C124.626 64.5485 124.163 64.0966 124.156 63.5327C124.143 62.3744 124.18 61.204 124.264 60.0544C124.306 59.4919 124.793 59.071 125.358 59.1108C125.92 59.1523 126.342 59.642 126.301 60.2042C126.22 61.297 126.186 62.4087 126.199 63.5096C126.205 64.0325 125.816 64.4678 125.31 64.5335ZM126.201 55.6854C126.088 55.7 125.971 55.6959 125.853 55.6706C125.302 55.5511 124.952 55.0078 125.071 54.4566C125.315 53.3268 125.612 52.1934 125.953 51.0881C126.119 50.5492 126.691 50.2477 127.229 50.413C127.768 50.5792 128.071 51.1509 127.904 51.6897C127.581 52.7393 127.299 53.8152 127.067 54.8883C126.973 55.3219 126.617 55.6313 126.201 55.6854ZM129.048 47.2567C128.862 47.2809 128.667 47.254 128.484 47.1683C127.973 46.929 127.754 46.3208 127.993 45.8103C128.484 44.763 129.027 43.7245 129.605 42.7234C129.888 42.2358 130.512 42.0686 131 42.3504C131.489 42.6325 131.656 43.2571 131.374 43.7455C130.824 44.6961 130.309 45.6825 129.842 46.6779C129.688 47.0054 129.382 47.2132 129.048 47.2567ZM133.703 39.6748C133.442 39.7087 133.168 39.6421 132.944 39.4673C132.499 39.1204 132.42 38.4787 132.767 38.0342C133.476 37.1243 134.235 36.2319 135.021 35.3823C135.404 34.9681 136.05 34.9429 136.464 35.3264C136.878 35.7094 136.903 36.3553 136.52 36.7695C135.772 37.5769 135.051 38.4252 134.377 39.2899C134.205 39.5106 133.96 39.6414 133.703 39.6748ZM139.919 33.3119C139.581 33.3559 139.228 33.2295 138.996 32.9459C138.639 32.5092 138.704 31.8662 139.14 31.509C140.035 30.7774 140.972 30.0749 141.926 29.4216C142.392 29.1029 143.027 29.2219 143.346 29.6874C143.664 30.1523 143.546 30.7881 143.08 31.1067C142.174 31.7275 141.283 32.3947 140.433 33.0899C140.28 33.2151 140.102 33.2881 139.919 33.3119ZM176.712 26.0809C176.571 26.0991 176.425 26.0883 176.281 26.0443C175.233 25.7228 174.155 25.4428 173.08 25.2125C172.529 25.0943 172.178 24.5515 172.296 24.0004C172.414 23.4489 172.957 23.0976 173.508 23.2158C174.641 23.4585 175.775 23.7531 176.88 24.0915C177.419 24.2567 177.722 24.8279 177.557 25.367C177.436 25.7625 177.096 26.0309 176.712 26.0809ZM147.386 28.4879C146.966 28.5425 146.539 28.3301 146.34 27.9295C146.089 27.4243 146.295 26.8116 146.8 26.5606C147.835 26.0461 148.905 25.5704 149.98 25.1467C150.506 24.9425 151.098 25.1974 151.305 25.7224C151.512 26.247 151.254 26.84 150.729 27.0469C149.708 27.449 148.692 27.9008 147.709 28.3893C147.604 28.441 147.495 28.4736 147.386 28.4879ZM167.967 24.4503C167.9 24.459 167.832 24.4616 167.762 24.4565C166.667 24.3779 165.554 24.3459 164.454 24.3604C163.89 24.3677 163.427 23.9167 163.419 23.353C163.412 22.7893 163.862 22.3233 164.427 22.3184C165.584 22.3032 166.755 22.3369 167.907 22.4193C168.47 22.4596 168.893 22.9484 168.853 23.5107C168.818 24.0032 168.439 24.3892 167.967 24.4503ZM155.743 25.4527C155.232 25.5191 154.743 25.1905 154.62 24.6784C154.488 24.1299 154.826 23.5789 155.375 23.4468C156.497 23.1775 157.647 22.953 158.791 22.7802C158.798 22.7788 158.806 22.7778 158.813 22.7769C159.362 22.7055 159.87 23.0865 159.953 23.6367C160.038 24.1945 159.654 24.715 159.096 24.7991C158.009 24.9636 156.918 25.1771 155.851 25.4331C155.815 25.4413 155.779 25.4481 155.743 25.4527Z" fill="#F15671"/>
<path d="M183.349 28.7932C183.149 28.8191 182.94 28.7867 182.748 28.687C182.281 28.4444 181.801 28.208 181.321 27.9831C180.81 27.7442 180.59 27.1361 180.829 26.6256C181.068 26.1148 181.676 25.8937 182.187 26.1339C182.691 26.37 183.196 26.6189 183.688 26.874C184.189 27.1335 184.384 27.75 184.125 28.2504C183.965 28.5592 183.669 28.7516 183.349 28.7932Z" fill="#F15671"/>
</g>
<g opacity="0.3">
<path d="M203.192 52.7804C202.704 52.8439 202.228 52.5454 202.083 52.0577C201.933 51.553 201.771 51.0428 201.6 50.5418C201.417 50.008 201.702 49.4276 202.236 49.2453C202.772 49.0622 203.35 49.3479 203.532 49.8813C203.712 50.4089 203.884 50.9461 204.041 51.4775C204.201 52.0182 203.893 52.5864 203.352 52.7467C203.299 52.7625 203.246 52.7734 203.192 52.7804Z" fill="#F15671"/>
<path d="M170.233 103.54C169.767 103.6 169.298 103.653 168.827 103.698C168.266 103.752 167.767 103.341 167.713 102.779C167.659 102.218 168.073 101.717 168.632 101.665C169.72 101.561 170.801 101.413 171.858 101.222C172.413 101.123 172.944 101.491 173.044 102.046C173.144 102.601 172.775 103.132 172.22 103.232C171.566 103.35 170.898 103.454 170.233 103.54ZM163.438 103.845C163.381 103.852 163.323 103.855 163.264 103.852C162.126 103.807 160.977 103.712 159.849 103.572C159.289 103.502 158.892 102.992 158.962 102.432C159.032 101.873 159.543 101.474 160.102 101.545C161.173 101.679 162.264 101.769 163.346 101.812C163.91 101.835 164.348 102.31 164.326 102.873C164.305 103.378 163.922 103.782 163.438 103.845ZM177.429 101.915C176.952 101.977 176.483 101.694 176.328 101.219C176.153 100.683 176.446 100.107 176.982 99.9317C178.008 99.5974 179.033 99.2144 180.03 98.7929C180.55 98.5742 181.149 98.8166 181.368 99.3359C181.588 99.8556 181.344 100.455 180.825 100.674C179.775 101.118 178.696 101.521 177.616 101.873C177.554 101.894 177.492 101.907 177.429 101.915ZM154.781 102.532C154.652 102.549 154.518 102.541 154.386 102.505C153.286 102.211 152.186 101.866 151.116 101.48C150.585 101.289 150.31 100.704 150.502 100.174C150.693 99.6427 151.278 99.3677 151.809 99.5594C152.825 99.9257 153.869 100.253 154.914 100.533C155.458 100.678 155.782 101.239 155.636 101.783C155.526 102.195 155.179 102.481 154.781 102.532ZM185.395 98.2982C185.004 98.3491 184.601 98.169 184.386 97.8079C184.097 97.3234 184.256 96.6965 184.741 96.4079C185.667 95.8564 186.583 95.2572 187.463 94.6272C187.922 94.299 188.56 94.4044 188.888 94.8632C189.216 95.3218 189.111 95.9594 188.652 96.2876C187.726 96.9509 186.761 97.5818 185.786 98.1626C185.662 98.2363 185.529 98.2808 185.395 98.2982ZM192.375 93.0208C192.062 93.0614 191.734 92.9567 191.5 92.71C191.113 92.3002 191.131 91.6539 191.541 91.2664C192.327 90.5232 193.09 89.7383 193.81 88.9335C194.186 88.5127 194.831 88.4768 195.252 88.8533C195.672 89.2294 195.708 89.8748 195.332 90.2953C194.574 91.1423 193.771 91.9682 192.944 92.7502C192.781 92.9041 192.581 92.994 192.375 93.0208ZM198.038 86.3472C197.799 86.3782 197.55 86.3258 197.335 86.1807C196.868 85.8653 196.745 85.2305 197.06 84.7631C197.666 83.8659 198.241 82.9338 198.768 81.9917C199.043 81.4998 199.665 81.3237 200.158 81.5995C200.65 81.8752 200.825 82.497 200.55 82.9894C199.995 83.9806 199.39 84.962 198.753 85.906C198.582 86.1586 198.318 86.3107 198.038 86.3472ZM202.11 78.598C201.945 78.6194 201.773 78.6008 201.607 78.5358C201.082 78.3301 200.823 77.7379 201.029 77.2128C201.423 76.2054 201.78 75.1701 202.087 74.135C202.248 73.5945 202.817 73.2865 203.356 73.4468C203.897 73.6074 204.205 74.176 204.044 74.7166C203.721 75.8068 203.346 76.8973 202.93 77.9576C202.789 78.3171 202.467 78.5516 202.11 78.598ZM204.383 70.1407C204.29 70.1527 204.194 70.1519 204.097 70.1371C203.539 70.0523 203.156 69.5313 203.241 68.974C203.404 67.9071 203.523 66.8194 203.595 65.7402C203.633 65.1773 204.121 64.7523 204.682 64.7897C205.245 64.8272 205.67 65.3141 205.633 65.8769C205.557 67.013 205.431 68.1583 205.26 69.2813C205.19 69.7417 204.823 70.0834 204.383 70.1407ZM204.742 61.3964C204.721 61.3992 204.7 61.4011 204.679 61.4026C204.116 61.441 203.629 61.0161 203.591 60.4536C203.536 59.6594 203.457 58.8576 203.354 58.0697C203.317 57.7846 203.277 57.5002 203.234 57.2174C203.149 56.6597 203.533 56.1389 204.09 56.0544C204.653 55.9576 205.168 56.3528 205.253 56.9101C205.298 57.2079 205.341 57.5065 205.38 57.8067C205.487 58.6354 205.571 59.4792 205.628 60.3145C205.665 60.8557 205.273 61.3275 204.742 61.3964Z" fill="#F15671"/>
<path d="M146.604 99.3337C146.403 99.3599 146.192 99.3266 145.998 99.2253C145.509 98.9684 145.016 98.6962 144.532 98.4163C144.044 98.1338 143.877 97.5091 144.16 97.0211C144.443 96.5331 145.067 96.3659 145.555 96.6487C146.015 96.9145 146.483 97.1729 146.948 97.4171C147.447 97.6789 147.639 98.2963 147.377 98.7956C147.216 99.1018 146.922 99.2924 146.604 99.3337Z" fill="#F15671"/>
</g>
<path d="M146.445 87.4112C146.593 87.551 146.813 87.5816 146.993 87.4873L152.141 84.797C154.486 86.1615 157.065 87.162 159.8 87.7217L161.846 93.1538C161.918 93.3444 162.102 93.4684 162.306 93.4626L169.271 93.266C169.474 93.2603 169.652 93.126 169.712 92.9319L171.449 87.3929C174.148 86.6797 176.667 85.5353 178.93 84.0407L184.222 86.4363C184.407 86.5202 184.625 86.4773 184.765 86.3293L189.551 81.2656C189.691 81.1176 189.721 80.8971 189.627 80.7167L186.937 75.5689C188.301 73.2244 189.302 70.6455 189.861 67.9107L195.294 65.8642C195.484 65.7924 195.608 65.6078 195.602 65.4042L195.406 58.4397C195.4 58.2361 195.266 58.0587 195.072 57.9978L189.533 56.2611C188.82 53.5621 187.675 51.0438 186.18 48.7802L188.576 43.4886C188.66 43.3033 188.617 43.0848 188.469 42.945L183.405 38.1595C183.258 38.0195 183.037 37.9891 182.857 38.0833L177.709 40.7737C175.364 39.4091 172.785 38.4086 170.051 37.8489L168.004 32.4167C167.932 32.2262 167.748 32.1023 167.544 32.1079L160.58 32.3046C160.376 32.3103 160.199 32.4445 160.138 32.6389L158.401 38.1779C155.702 38.8909 153.184 40.0354 150.92 41.53L145.629 39.1344C145.443 39.0504 145.225 39.0934 145.085 39.2413L140.299 44.305C140.159 44.453 140.129 44.6734 140.223 44.8538L142.913 50.0017C141.549 52.3461 140.548 54.925 139.989 57.6599L134.556 59.7063C134.366 59.778 134.242 59.9628 134.248 60.1664L134.444 67.1308C134.45 67.3344 134.584 67.5119 134.779 67.5728L140.317 69.3095C141.031 72.0084 142.175 74.5268 143.67 76.7904L141.274 82.0819C141.19 82.2674 141.233 82.4857 141.381 82.6257L146.445 87.4112Z" fill="#F15671"/>
<path d="M165.823 69.7313C162.437 70.1711 159.142 68.0713 158.186 64.6905C157.135 60.9741 159.304 57.0965 163.02 56.0459C164.82 55.5365 166.711 55.7596 168.343 56.6725C169.976 57.5854 171.155 59.0796 171.664 60.8798C172.715 64.5962 170.546 68.4737 166.83 69.5243C166.495 69.6191 166.158 69.6877 165.823 69.7313ZM164.245 57.4579C163.983 57.4919 163.723 57.545 163.464 57.618C160.615 58.4233 158.953 61.3969 159.758 64.2457C160.563 67.095 163.536 68.759 166.386 67.9523C169.235 67.147 170.898 64.1735 170.092 61.3246C169.702 59.9442 168.798 58.7987 167.546 58.0985C166.528 57.5297 165.38 57.3105 164.245 57.4579Z" fill="#FBA2B0"/>
<path d="M167.268 79.7439C166.686 79.8194 166.098 79.8662 165.504 79.883C165.317 79.8884 165.13 79.8906 164.943 79.8899C164.02 79.8863 163.099 79.8092 162.194 79.6601C162.182 79.6581 162.17 79.656 162.157 79.654C162.122 79.6481 162.087 79.6422 162.052 79.6358C161.984 79.6242 161.916 79.6116 161.848 79.5991C161.67 79.5659 161.54 79.4215 161.518 79.2506C161.513 79.2091 161.514 79.1659 161.522 79.1226C161.563 78.9009 161.776 78.7553 161.998 78.7961C163.139 79.0087 164.311 79.0995 165.48 79.0661C171.291 78.903 176.318 75.7208 179.102 71.0682C180.651 68.4806 181.506 65.438 181.414 62.2063C181.398 61.6396 181.354 61.0778 181.282 60.5233C180.796 56.791 179.057 53.3676 176.285 50.7477C173.1 47.7382 168.934 46.1488 164.555 46.2724C155.51 46.5288 148.366 54.0913 148.621 63.1321C148.637 63.6896 148.681 64.2441 148.752 64.7935C149.062 67.1743 149.889 69.4609 151.182 71.4861C151.216 71.5384 151.236 71.5954 151.243 71.6531C151.263 71.805 151.196 71.9621 151.058 72.05C150.867 72.1708 150.615 72.1163 150.494 71.9254C149.136 69.7991 148.267 67.3984 147.942 64.8991C147.867 64.3224 147.821 63.7404 147.804 63.1553C147.536 53.6632 155.043 45.7237 164.532 45.4556C169.13 45.3257 173.503 46.9944 176.846 50.1539C179.756 52.9042 181.582 56.4982 182.092 60.4163C182.168 60.9985 182.214 61.5882 182.231 62.1828C182.361 66.781 180.693 71.1543 177.533 74.4973C174.782 77.4087 171.187 79.2348 167.268 79.7439Z" fill="#FBA2B0"/>
<g opacity="0.3">
<path d="M95.3024 104.537C95.0318 104.572 94.7597 104.428 94.6443 104.165C94.4285 103.676 94.2246 103.172 94.0385 102.67C93.9175 102.343 94.0841 101.981 94.4108 101.859C94.7374 101.737 95.1002 101.905 95.2212 102.232C95.3986 102.71 95.5928 103.19 95.7987 103.658C95.9391 103.976 95.7943 104.348 95.4757 104.489C95.4189 104.514 95.3608 104.529 95.3024 104.537Z" fill="#F15671"/>
<path d="M93.7635 99.9361C93.4465 99.9773 93.1435 99.7726 93.0691 99.455C92.8581 98.5576 92.6909 97.639 92.5722 96.7253C92.5472 96.533 92.5244 96.3397 92.5031 96.1455C92.4658 95.7989 92.7361 95.4986 93.0621 95.45C93.4085 95.4125 93.7195 95.6628 93.7573 96.0087C93.7774 96.1943 93.7992 96.3791 93.823 96.5628C93.9363 97.4344 94.0958 98.3105 94.2966 99.1662C94.3764 99.5055 94.1661 99.8446 93.8272 99.9246C93.8058 99.9294 93.7845 99.9334 93.7635 99.9361ZM93.0575 93.4259C93.0279 93.4298 92.9974 93.4319 92.967 93.4315C92.6185 93.4264 92.34 93.1403 92.3448 92.7919C92.3599 91.6745 92.4446 90.548 92.5966 89.4445C92.6439 89.0993 92.9639 88.8589 93.3073 88.9056C93.6527 88.9533 93.8935 89.2711 93.8462 89.6163C93.7013 90.6692 93.6207 91.7436 93.606 92.8093C93.6015 93.1268 93.3636 93.3862 93.0575 93.4259ZM93.9514 86.9391C93.872 86.9494 93.7894 86.9445 93.7074 86.923C93.3709 86.8331 93.1712 86.4871 93.2611 86.1505C93.5496 85.0727 93.9085 84.0008 94.3286 82.9656C94.4596 82.6423 94.8264 82.4873 95.1502 82.6185C95.4728 82.7492 95.6283 83.1172 95.4976 83.4398C95.097 84.4271 94.7545 85.4486 94.4798 86.4767C94.4116 86.7308 94.1972 86.9071 93.9514 86.9391ZM96.4127 80.87C96.2832 80.8869 96.1476 80.8636 96.0248 80.7956C95.7207 80.6258 95.6114 80.2413 95.7813 79.9373C96.3262 78.961 96.9362 78.0105 97.5951 77.1112C97.8011 76.8304 98.1961 76.7705 98.4764 76.9757C98.7574 77.1813 98.8183 77.5759 98.6124 77.8573C97.9844 78.714 97.4022 79.6212 96.8829 80.5519C96.7816 80.7334 96.6042 80.8452 96.4127 80.87ZM100.282 75.5866C100.101 75.61 99.9111 75.5552 99.7678 75.4204C99.5142 75.182 99.5022 74.783 99.7405 74.5291C100.506 73.7161 101.328 72.9422 102.185 72.2297C102.453 72.0062 102.851 72.0433 103.073 72.3112C103.296 72.5792 103.259 72.977 102.992 73.1994C102.174 73.8795 101.389 74.6174 100.66 75.3935C100.556 75.5038 100.421 75.5684 100.282 75.5866ZM105.315 71.4026C105.081 71.433 104.839 71.3296 104.702 71.1175C104.514 70.8246 104.6 70.4347 104.893 70.2463C105.832 69.6435 106.819 69.0937 107.824 68.6128C108.139 68.4632 108.515 68.5958 108.665 68.9097C108.815 69.2237 108.682 69.6006 108.368 69.7506C107.41 70.2093 106.47 70.7332 105.574 71.308C105.493 71.3602 105.404 71.391 105.315 71.4026ZM111.217 68.577C110.924 68.6152 110.635 68.4421 110.538 68.1516C110.428 67.8213 110.606 67.4639 110.936 67.3534C111.992 67.0008 113.083 66.71 114.18 66.4885C114.524 66.4253 114.855 66.6413 114.923 66.9826C114.992 67.324 114.771 67.6564 114.43 67.7255C113.383 67.9361 112.342 68.2135 111.336 68.5497C111.296 68.563 111.257 68.5719 111.217 68.577ZM120.917 67.2363C120.881 67.241 120.843 67.2428 120.805 67.2409C119.887 67.1981 118.95 67.2049 118.02 67.2611C117.88 67.2688 117.741 67.2781 117.604 67.2891C117.256 67.3156 116.953 67.0563 116.926 66.7089C116.899 66.3608 117.16 66.0475 117.506 66.0311C117.653 66.0201 117.8 66.0097 117.948 66.0017C118.919 65.9432 119.901 65.9361 120.864 65.9811C121.212 65.9974 121.481 66.2924 121.465 66.6403C121.45 66.9502 121.214 67.1977 120.917 67.2363Z" fill="#F15671"/>
</g>
<g opacity="0.3">
<path d="M123.458 120.153C123.117 120.197 122.802 119.959 122.753 119.617C122.703 119.272 122.943 118.952 123.288 118.903C124.326 118.755 125.363 118.542 126.372 118.27C126.707 118.183 127.055 118.378 127.145 118.715C127.236 119.051 127.037 119.397 126.701 119.488C125.643 119.772 124.555 119.996 123.467 120.152C123.464 120.152 123.461 120.153 123.458 120.153ZM120.242 120.417C120.22 120.42 120.197 120.422 120.174 120.423C119.076 120.447 117.966 120.405 116.874 120.298C116.527 120.263 116.274 119.955 116.308 119.609C116.342 119.261 116.652 119.009 116.997 119.042C118.039 119.145 119.099 119.185 120.146 119.162C120.494 119.154 120.783 119.43 120.79 119.778C120.798 120.104 120.557 120.376 120.242 120.417ZM129.675 118.476C129.398 118.512 129.12 118.359 129.01 118.088C128.879 117.766 129.034 117.398 129.357 117.267C130.328 116.871 131.284 116.413 132.198 115.905C132.503 115.737 132.886 115.845 133.055 116.15C133.224 116.454 133.115 116.838 132.81 117.008C131.853 117.54 130.851 118.02 129.832 118.434C129.78 118.455 129.728 118.469 129.675 118.476ZM113.83 119.783C113.759 119.793 113.685 119.79 113.611 119.773C112.539 119.533 111.471 119.224 110.437 118.855C110.109 118.738 109.938 118.377 110.055 118.048C110.172 117.721 110.533 117.55 110.861 117.667C111.847 118.019 112.865 118.313 113.887 118.543C114.227 118.619 114.441 118.956 114.364 119.296C114.305 119.562 114.086 119.75 113.83 119.783ZM135.302 115.346C135.081 115.374 134.851 115.285 134.711 115.092C134.505 114.81 134.568 114.415 134.849 114.21C135.696 113.595 136.513 112.921 137.279 112.207C137.534 111.969 137.933 111.983 138.17 112.238C138.408 112.493 138.394 112.892 138.139 113.13C137.336 113.878 136.479 114.585 135.592 115.231C135.503 115.295 135.403 115.333 135.302 115.346ZM140.014 110.957C139.845 110.979 139.667 110.933 139.527 110.814C139.26 110.59 139.226 110.192 139.45 109.925C140.126 109.123 140.759 108.272 141.331 107.398C141.522 107.106 141.914 107.025 142.204 107.216C142.496 107.406 142.577 107.797 142.387 108.088C141.787 109.005 141.123 109.897 140.415 110.738C140.31 110.863 140.165 110.937 140.014 110.957ZM143.54 105.565C143.421 105.581 143.296 105.563 143.18 105.505C142.867 105.351 142.739 104.973 142.893 104.661C143.358 103.72 143.768 102.743 144.113 101.756C144.228 101.428 144.588 101.254 144.916 101.369C145.245 101.484 145.418 101.843 145.303 102.172C144.942 103.207 144.511 104.232 144.025 105.219C143.928 105.416 143.742 105.539 143.54 105.565Z" fill="#F15671"/>
<path d="M107.735 117.606C107.615 117.621 107.488 117.602 107.371 117.544C106.889 117.301 106.412 117.044 105.953 116.778C105.651 116.603 105.548 116.217 105.723 115.916C105.898 115.616 106.283 115.512 106.585 115.686C107.022 115.939 107.478 116.185 107.938 116.417C108.249 116.573 108.375 116.952 108.218 117.263C108.12 117.458 107.936 117.58 107.735 117.606Z" fill="#F15671"/>
</g>
<path d="M107.206 109.459C107.305 109.552 107.452 109.573 107.573 109.51L111.018 107.71C112.587 108.623 114.312 109.292 116.143 109.667L117.512 113.302C117.56 113.429 117.684 113.512 117.82 113.508L122.48 113.377C122.616 113.373 122.735 113.283 122.776 113.153L123.938 109.447C125.744 108.97 127.429 108.204 128.944 107.204L132.485 108.807C132.609 108.863 132.755 108.834 132.849 108.735L136.051 105.347C136.145 105.248 136.165 105.1 136.102 104.979L134.302 101.535C135.215 99.966 135.884 98.2403 136.259 96.4102L139.894 95.0408C140.021 94.9928 140.104 94.8692 140.1 94.733L139.969 90.0727C139.965 89.9365 139.875 89.8177 139.745 89.777L136.039 88.6149C135.562 86.8088 134.796 85.1237 133.796 83.609L135.399 80.068C135.455 79.9439 135.426 79.7978 135.327 79.7043L131.939 76.502C131.84 76.4083 131.692 76.388 131.571 76.451L128.127 78.2513C126.558 77.3381 124.832 76.6687 123.002 76.2942L121.633 72.6591C121.585 72.5317 121.461 72.4486 121.325 72.4525L116.664 72.5841C116.528 72.588 116.41 72.6777 116.369 72.8078L115.207 76.5142C113.401 76.9914 111.716 77.7571 110.201 78.7573L106.66 77.1543C106.536 77.0981 106.39 77.1268 106.296 77.2259L103.094 80.6142C103 80.7132 102.98 80.8608 103.043 80.9815L104.843 84.4262C103.93 85.995 103.261 87.7207 102.886 89.5507L99.2511 90.9201C99.1236 90.968 99.0406 91.0917 99.0446 91.2279L99.1761 95.8881C99.1801 96.0243 99.2698 96.143 99.3998 96.1839L103.106 97.346C103.583 99.152 104.349 100.837 105.349 102.352L103.746 105.893C103.69 106.017 103.719 106.163 103.818 106.257L107.206 109.459Z" fill="#F15671"/>
<path d="M120.176 97.7131C119.167 97.8441 118.147 97.6494 117.243 97.1439C116.131 96.5219 115.328 95.504 114.981 94.2777C114.266 91.7473 115.743 89.1059 118.274 88.3896C120.81 87.6777 123.447 89.1517 124.162 91.6827C124.509 92.909 124.357 94.1969 123.735 95.3087C123.114 96.4211 122.096 97.2247 120.869 97.5709C120.64 97.6355 120.408 97.6829 120.176 97.7131ZM119.122 89.4998C118.953 89.5217 118.785 89.556 118.617 89.6033C116.755 90.1302 115.669 92.073 116.195 93.9349C116.45 94.8365 117.041 95.5857 117.859 96.0428C118.677 96.5004 119.624 96.611 120.526 96.3571C121.428 96.1021 122.177 95.511 122.635 94.6933C123.092 93.8748 123.203 92.9276 122.948 92.0254C122.47 90.3319 120.818 89.2795 119.122 89.4998Z" fill="#FBA2B0"/>
<path d="M121.174 104.684C120.778 104.735 120.377 104.767 119.969 104.779C119.161 104.802 118.349 104.742 117.555 104.602C117.519 104.596 117.484 104.589 117.448 104.582C117.173 104.531 116.973 104.308 116.938 104.044C116.93 103.98 116.931 103.914 116.944 103.847C117.007 103.504 117.337 103.28 117.679 103.343C118.419 103.481 119.178 103.539 119.933 103.517H119.934C119.975 103.516 120.017 103.515 120.058 103.513C121.846 103.445 123.549 102.935 125.047 102.045C125.86 101.561 126.613 100.965 127.286 100.266C127.291 100.261 127.297 100.255 127.302 100.249C127.319 100.231 127.336 100.214 127.352 100.197C129.3 98.1352 130.329 95.4383 130.249 92.6031C130.239 92.2361 130.21 91.8728 130.163 91.5136C129.849 89.0975 128.723 86.8813 126.928 85.1848C124.866 83.2367 122.17 82.2082 119.335 82.2883C116.501 82.3694 113.865 83.5478 111.916 85.6089C109.968 87.6705 108.939 90.3673 109.019 93.2026C109.029 93.5634 109.058 93.9224 109.104 94.2778C109.305 95.8194 109.84 97.2993 110.677 98.6103C110.729 98.6912 110.76 98.7791 110.771 98.8683C110.802 99.1028 110.698 99.3455 110.485 99.4812C110.191 99.6678 109.802 99.583 109.614 99.2887C108.677 97.8218 108.078 96.1656 107.853 94.4415C107.802 94.0433 107.77 93.6419 107.758 93.2384C107.669 90.0658 108.82 87.0488 111 84.7423C113.18 82.4363 116.125 81.1147 119.299 81.0272C122.471 80.9374 125.488 82.0883 127.794 84.2686C129.802 86.166 131.062 88.6455 131.414 91.3487C131.466 91.7499 131.498 92.1569 131.51 92.5671C131.683 98.7089 127.14 103.909 121.174 104.684Z" fill="#FBA2B0"/>
<path d="M176.288 97.7642L168.578 109.625C172.165 116.612 176.148 120.469 180.133 122.303C180.845 117.95 183.387 114.336 185.254 112.19C178.145 108.146 176.288 97.7642 176.288 97.7642Z" fill="url(#paint0_linear_2944_8257)"/>
<path d="M202.776 110.061C194.883 114.732 189.242 114.458 185.254 112.19C183.387 114.336 180.845 117.949 180.133 122.302C192.802 128.132 205.489 113.46 205.489 113.46L202.776 110.061Z" fill="url(#paint1_linear_2944_8257)"/>
<path d="M203.205 112.092C203.205 112.092 201.075 108.377 204.139 105.525C204.139 105.525 205.127 104.398 206.212 106.054C206.212 106.054 209.508 103.061 210.41 104.267C211.311 105.472 213.701 108.457 211.367 111.862C209.007 115.305 204.246 113.77 203.205 112.092Z" fill="url(#paint2_linear_2944_8257)"/>
<path d="M206.445 110.025C206.13 110.025 205.793 109.966 205.495 109.79C205.204 109.617 204.838 109.258 204.744 108.522C204.717 108.311 204.866 108.118 205.078 108.091C205.288 108.066 205.482 108.213 205.509 108.425C205.553 108.771 205.677 109 205.886 109.125C206.179 109.299 206.614 109.264 206.936 109.194L206.19 106.826C206.126 106.623 206.238 106.406 206.441 106.343C206.644 106.278 206.861 106.391 206.925 106.594L207.79 109.338C207.851 109.531 207.752 109.738 207.563 109.812C207.484 109.844 206.999 110.025 206.445 110.025Z" fill="#F79E6D"/>
<path d="M91.0622 189.714C90.3762 190.126 90.0257 190.996 90.1892 191.848C90.8326 195.202 92.9479 204.06 98.0859 209.304C98.4253 209.65 98.9189 209.62 99.2172 209.307C97.9161 207.952 96.303 205.635 94.4171 201.7C91.5189 195.653 90.9821 191.923 91.0622 189.714Z" fill="url(#paint3_linear_2944_8257)"/>
<path d="M97.6967 189.588C97.6967 189.588 94.3838 187.786 91.0851 189.697C91.0768 189.702 91.0702 189.709 91.0621 189.714C90.9819 191.923 91.5186 195.653 94.417 201.7C96.3028 205.635 97.916 207.952 99.2171 209.307C99.3115 209.209 99.3875 209.083 99.4315 208.931C100.397 205.578 102.434 196.262 97.6967 189.588Z" fill="url(#paint4_linear_2944_8257)"/>
<path d="M102.482 189.797L99.4801 192.677C98.9491 193.187 98.1348 193.269 97.5217 192.862C96.9869 192.507 96.3915 191.925 95.9952 190.981C95.7574 190.415 95.8715 189.76 96.2847 189.305L99.2819 186.009C99.9972 185.222 101.27 185.352 101.811 186.267L102.748 187.852C103.122 188.484 103.011 189.289 102.482 189.797Z" fill="url(#paint5_linear_2944_8257)"/>
<path d="M199.515 175.349C200.213 175.741 201.142 175.616 201.802 175.053C204.399 172.836 211.055 166.619 213.074 159.56C213.207 159.094 212.936 158.68 212.518 158.575C211.982 160.376 210.766 162.924 208.277 166.508C204.452 172.016 201.475 174.326 199.515 175.349Z" fill="url(#paint6_linear_2944_8257)"/>
<path d="M196.126 169.643C196.126 169.643 196.197 173.413 199.489 175.336C199.497 175.341 199.506 175.344 199.515 175.348C201.475 174.326 204.452 172.016 208.277 166.508C210.765 162.924 211.982 160.376 212.517 158.575C212.385 158.542 212.238 158.538 212.084 158.575C208.692 159.393 199.586 162.226 196.126 169.643Z" fill="url(#paint7_linear_2944_8257)"/>
<path d="M195.894 163.399L199.031 166.132C199.586 166.615 199.741 167.419 199.39 168.066C199.084 168.63 198.558 169.275 197.653 169.754C197.111 170.042 196.448 169.987 195.959 169.616L192.407 166.925C191.56 166.283 191.575 165.004 192.439 164.383L193.934 163.308C194.529 162.879 195.341 162.917 195.894 163.399Z" fill="url(#paint8_linear_2944_8257)"/>
<path d="M132.954 135.74C132.954 135.74 126.833 156.593 122.875 165.759C122.875 165.759 115.957 166.814 111.676 169.316C107.394 171.818 98.1709 185.684 98.1709 185.684C98.1709 185.684 100.58 190.256 103.486 190.958L129.741 172.766L150.695 148.398L149.7 137.096L132.954 135.74Z" fill="url(#paint9_linear_2944_8257)"/>
<path d="M133.331 134.038L131.54 139.749C131.54 139.749 133.178 154.72 152.053 152.196C170.927 149.671 173.299 146.59 173.299 146.59C173.299 146.59 171.661 156.152 192.299 167.648C192.299 167.648 195.436 165.28 196.127 162.591L181.664 138.753C179.652 135.626 177.786 134.803 174.113 135.377C165.991 136.647 150.782 138.303 148.48 137.91L133.331 134.038Z" fill="url(#paint10_linear_2944_8257)"/>
<path d="M148.072 91.5745C142.572 91.8543 133.877 94.4689 128.261 99.6393C129.988 101.545 132.644 104.643 134.624 107.704C136.393 106.043 138.933 104.659 142.51 103.773C139.419 115.329 135.764 126.339 131.311 136.572C131.032 137.213 131.349 137.954 132.009 138.184C135.455 139.384 145.618 142.244 153.769 137.638L171.84 111.763C173.783 108.98 175.061 105.787 175.574 102.432L176.287 97.7642C176.287 97.7642 160.057 90.9652 148.072 91.5745Z" fill="url(#paint11_linear_2944_8257)"/>
<path d="M138.217 130.732C137.432 128.997 134.743 127.377 133.459 126.681C132.343 124.379 127.886 114.029 134.624 107.704C132.644 104.643 129.988 101.545 128.261 99.6393C121.781 105.605 119.409 114.976 130.773 128.098C130.152 131.329 132.176 135.093 133.27 135.62C133.775 135.863 139.261 133.036 138.217 130.732Z" fill="url(#paint12_linear_2944_8257)"/>
<path d="M160.279 84.7015L155.558 93.9426C155.27 94.5063 155.355 95.1876 155.778 95.6586C156.922 96.9319 159.622 99.0001 164.318 97.5179C164.836 97.3545 165.209 96.8993 165.288 96.362L166.517 87.9695L160.279 84.7015Z" fill="url(#paint13_linear_2944_8257)"/>
<path d="M168.149 73.9711C168.149 73.9711 170.918 80.3323 171.104 83.6709C171.29 87.0097 172.01 89.1761 168.149 89.8485C164.289 90.5208 161.036 88.5976 159.275 85.2719C159.275 85.2719 156.514 80.1473 157.133 78.0486C157.753 75.9498 168.149 73.9711 168.149 73.9711Z" fill="url(#paint14_linear_2944_8257)"/>
<path d="M160.594 82.8807L160.814 82.7838C161.094 82.6604 161.214 82.3275 161.073 82.0558C160.529 81.004 159.467 78.5937 160.838 78.0315C162.605 77.3069 169.604 75.8797 171.114 73.3964C172.565 71.0096 171.279 67.9288 169.347 67.0525C169.217 66.9938 169.065 67.0403 168.999 67.1659L168.838 67.4706C168.727 67.6792 168.419 67.6476 168.354 67.4209C168.291 67.2033 168.001 67.1612 167.881 67.3532C167.417 68.0962 166.164 69.3006 162.813 69.9191C158.05 70.7981 154.902 72.7253 154.823 76.0163C154.818 76.2254 154.596 76.3416 154.417 76.2328C154.066 76.0185 153.503 75.9179 152.751 76.5503C151.443 77.6501 151.978 80.5031 154.845 82.8497C154.982 82.9613 154.981 83.1739 154.833 83.2699C154.313 83.6082 153.538 84.4133 155.546 85.4866C157.623 86.5968 159.174 86.5057 159.771 86.4071C159.919 86.3825 160.015 86.2387 159.983 86.0917L159.346 83.1992C159.309 83.0355 159.434 82.8805 159.602 82.8805H160.594V82.8807Z" fill="url(#paint15_linear_2944_8257)"/>
<path d="M160.714 83.491C160.714 83.491 159.658 79.4277 157.836 80.567C156.014 81.7063 158.781 85.1198 160.246 85.2719L160.714 83.491Z" fill="url(#paint16_linear_2944_8257)"/>
<defs>
<linearGradient id="paint0_linear_2944_8257" x1="112.38" y1="191.056" x2="166.312" y2="124.677" gradientUnits="userSpaceOnUse">
<stop stop-color="#4F52FF"/>
<stop offset="1" stop-color="#4042E2"/>
</linearGradient>
<linearGradient id="paint1_linear_2944_8257" x1="208.546" y1="107.915" x2="150.624" y2="135.974" gradientUnits="userSpaceOnUse">
<stop stop-color="#FEBBBA"/>
<stop offset="1" stop-color="#FF928E"/>
</linearGradient>
<linearGradient id="paint2_linear_2944_8257" x1="208.822" y1="108.485" x2="150.901" y2="136.544" gradientUnits="userSpaceOnUse">
<stop stop-color="#FEBBBA"/>
<stop offset="1" stop-color="#FF928E"/>
</linearGradient>
<linearGradient id="paint3_linear_2944_8257" x1="90.1494" y1="199.633" x2="99.2173" y2="199.633" gradientUnits="userSpaceOnUse">
<stop stop-color="#09005D"/>
<stop offset="1" stop-color="#1A0F91"/>
</linearGradient>
<linearGradient id="paint4_linear_2944_8257" x1="91.0546" y1="199.063" x2="100.704" y2="199.063" gradientUnits="userSpaceOnUse">
<stop stop-color="#09005D"/>
<stop offset="1" stop-color="#1A0F91"/>
</linearGradient>
<linearGradient id="paint5_linear_2944_8257" x1="95.8725" y1="189.306" x2="102.968" y2="189.306" gradientUnits="userSpaceOnUse">
<stop stop-color="#FEBBBA"/>
<stop offset="1" stop-color="#FF928E"/>
</linearGradient>
<linearGradient id="paint6_linear_2944_8257" x1="199.515" y1="167.076" x2="213.108" y2="167.076" gradientUnits="userSpaceOnUse">
<stop stop-color="#09005D"/>
<stop offset="1" stop-color="#1A0F91"/>
</linearGradient>
<linearGradient id="paint7_linear_2944_8257" x1="196.127" y1="166.949" x2="212.517" y2="166.949" gradientUnits="userSpaceOnUse">
<stop stop-color="#09005D"/>
<stop offset="1" stop-color="#1A0F91"/>
</linearGradient>
<linearGradient id="paint8_linear_2944_8257" x1="191.781" y1="166.474" x2="199.577" y2="166.474" gradientUnits="userSpaceOnUse">
<stop stop-color="#FEBBBA"/>
<stop offset="1" stop-color="#FF928E"/>
</linearGradient>
<linearGradient id="paint9_linear_2944_8257" x1="98.1709" y1="163.349" x2="150.695" y2="163.349" gradientUnits="userSpaceOnUse">
<stop stop-color="#09005D"/>
<stop offset="1" stop-color="#1A0F91"/>
</linearGradient>
<linearGradient id="paint10_linear_2944_8257" x1="226.434" y1="164.725" x2="150.376" y2="140.525" gradientUnits="userSpaceOnUse">
<stop stop-color="#09005D"/>
<stop offset="1" stop-color="#1A0F91"/>
</linearGradient>
<linearGradient id="paint11_linear_2944_8257" x1="94.1864" y1="176.274" x2="148.119" y2="109.895" gradientUnits="userSpaceOnUse">
<stop stop-color="#4F52FF"/>
<stop offset="1" stop-color="#4042E2"/>
</linearGradient>
<linearGradient id="paint12_linear_2944_8257" x1="136.664" y1="126.855" x2="102.192" y2="65.9273" gradientUnits="userSpaceOnUse">
<stop stop-color="#FEBBBA"/>
<stop offset="1" stop-color="#FF928E"/>
</linearGradient>
<linearGradient id="paint13_linear_2944_8257" x1="158.456" y1="100.781" x2="162.063" y2="90.4923" gradientUnits="userSpaceOnUse">
<stop stop-color="#FEBBBA"/>
<stop offset="1" stop-color="#FF928E"/>
</linearGradient>
<linearGradient id="paint14_linear_2944_8257" x1="168.73" y1="79.5703" x2="152.899" y2="91.6827" gradientUnits="userSpaceOnUse">
<stop stop-color="#FEBBBA"/>
<stop offset="1" stop-color="#FF928E"/>
</linearGradient>
<linearGradient id="paint15_linear_2944_8257" x1="157.586" y1="69.9798" x2="172.33" y2="88.9617" gradientUnits="userSpaceOnUse">
<stop stop-color="#09005D"/>
<stop offset="1" stop-color="#1A0F91"/>
</linearGradient>
<linearGradient id="paint16_linear_2944_8257" x1="166.766" y1="77.004" x2="150.936" y2="89.1165" gradientUnits="userSpaceOnUse">
<stop stop-color="#FEBBBA"/>
<stop offset="1" stop-color="#FF928E"/>
</linearGradient>
</defs>
</svg>
