<svg width="456" height="320" viewBox="0 0 456 320" fill="none" xmlns="http://www.w3.org/2000/svg">
<rect width="455.385" height="320" rx="18.6047" fill="#FFF2F4"/>
<path d="M207.428 304.701C284.207 304.701 346.449 242.459 346.449 165.68C346.449 88.9008 284.207 26.6589 207.428 26.6589C130.648 26.6589 68.4065 88.9008 68.4065 165.68C68.4065 242.459 130.648 304.701 207.428 304.701Z" fill="#FECAD2"/>
<path d="M240.064 39.3458C240.064 39.3458 221.872 28.0891 201.086 31.1983C180.299 34.3075 181.287 38.7912 160.33 41.2423C139.373 43.6933 103.61 76.7271 103.61 76.7271C103.61 76.7271 131.748 58.1221 136.243 58.5359C140.74 58.9498 142.152 55.0853 144.089 55.1097C146.026 55.1341 149.926 57.9845 154.044 57.6188C158.162 57.253 154.386 63.6743 165.705 66.7071C177.025 69.74 181.668 77.4887 190.233 71.9317C198.799 66.375 202.221 57.2363 206.34 56.8702C210.458 56.5042 210.787 61.1588 220.4 52.8725C230.013 44.5861 237.678 53.8332 240.064 39.3458Z" fill="url(#paint0_linear_2952_5107)"/>
<path d="M243.38 183.864C250.197 184.054 256.018 178.974 256.868 172.208C257.25 169.166 257.912 165.371 259.058 161.156C261.943 150.54 254.034 141.785 251.702 133.697C249.369 125.61 250.869 120.522 240.237 115.762C229.605 111.002 234.388 104.772 222.042 104.831C209.695 104.89 211.431 108.283 205.168 123.373C198.904 138.464 198.482 153.139 189.236 149.194C179.99 145.249 178.36 148.021 172.914 149.668C167.468 151.316 164.255 148.68 154.104 142.71C143.953 136.741 139.143 135.404 128.659 134.835C118.174 134.265 106.043 134.592 108.881 150.066C111.72 165.54 123.656 168.082 123.037 179.285C122.419 190.486 140.893 190.159 144.041 196.86C147.189 203.561 157.265 235.08 166.4 230.529C175.534 225.978 177.534 210.961 192.128 214.694C206.722 218.426 203.951 223.139 209.804 217.627C215.657 212.115 225.817 219.582 227.055 209.864C228.293 200.145 233.607 183.497 243.097 183.855C243.192 183.858 243.286 183.861 243.38 183.864Z" fill="url(#paint1_linear_2952_5107)"/>
<path d="M138.045 215.162C134.786 213.008 131.855 210.367 129.485 207.261C128.663 206.182 127.925 205.072 127.419 204.029C125.397 199.855 115.596 189.241 112.612 188.605C109.628 187.969 111.341 206.139 120.009 213.848C128.677 221.557 130.911 224.736 133.031 227.476C135.035 230.065 152.729 224.867 138.045 215.162Z" fill="url(#paint2_linear_2952_5107)"/>
<path d="M270.981 58.3684C270.981 58.3684 259.287 54.2103 255.995 54.7216C252.703 55.2329 250.421 56.3382 249.137 52.0484C247.854 47.7586 246.617 44.3125 252.702 45.9875C258.787 47.6624 260.314 45.8413 263.383 46.0147C266.452 46.1882 265.366 49.4711 266.907 51.6798C268.449 53.8882 277.6 56.8226 270.981 58.3684Z" fill="url(#paint3_linear_2952_5107)"/>
<path d="M305.982 190.39C306.165 189.789 306.013 189.139 305.685 188.602C304.985 187.456 303.212 185.383 299.617 185.544C294.669 185.765 294.243 183.213 292.529 179.984C290.815 176.754 290.995 189.145 291.859 190.135C292.722 191.124 295.182 188.957 297.889 190.309C300.306 191.515 305.231 192.852 305.982 190.39Z" fill="url(#paint4_linear_2952_5107)"/>
<path d="M314.991 115.925C320.547 115.011 318.598 118.325 324.922 120.371C331.246 122.418 326.664 116.935 328.857 117.946C331.051 118.957 335.889 125.427 334.194 115.509C332.5 105.591 316.963 91.7147 321.532 91.0563C326.101 90.3979 324.201 95.9998 328.387 97.8895C328.554 97.9651 328.734 98.0264 328.912 98.0915C317.522 77.6544 301.066 60.204 280.952 47.6599C280.71 48.7431 279.337 49.4929 275.995 49.4996C263.713 49.5253 282.552 49.7266 291.764 66.2986C300.976 82.8703 307.752 94.1036 303.974 91.0457C300.197 87.9878 301.891 97.9058 303.804 99.8674C305.717 101.829 307.374 93.324 310.7 96.6746C314.027 100.024 309.435 116.839 314.991 115.925Z" fill="url(#paint5_linear_2952_5107)"/>
<path d="M186.404 303.102C235.491 310.612 282.496 291.459 312.726 256.463L316.501 251.014C316.501 251.014 308.027 250.437 300.533 256.312C293.039 262.186 283.17 269.602 288.69 261.465C294.21 253.328 297.274 249.989 293.727 247.903C290.181 245.817 291.833 242.383 295.187 241.051C298.541 239.718 295.14 247.999 301.767 242.35C308.395 236.7 312.433 233.2 306.208 219.624C299.982 206.049 306.562 207.348 299.982 206.049C293.402 204.749 296.838 212.644 293.692 212.998C290.547 213.351 286.476 211.324 289.434 218.572C292.393 225.821 289.104 234.535 287.371 234.985C285.638 235.434 287.473 226.599 283.2 222.985C278.928 219.371 285.508 208.92 288.5 206.273C291.492 203.626 292.163 204.359 289.203 198.777C286.243 193.195 287.238 189.007 288.441 183.839C289.644 178.671 284.766 179.474 282.711 180.469C280.657 181.465 274.142 181.305 280.593 174.082C287.043 166.86 273.915 161.71 274.701 158.5C275.487 155.29 267.697 151.677 266.883 164.301C266.069 176.924 274.062 190.805 270.388 192.683C266.713 194.561 268.044 200.43 260.798 199.655C246.705 198.148 241.919 209.779 250.378 214.754C258.836 219.728 258.371 233.72 255.402 235.646C252.434 237.572 246.833 236.482 245.646 243.495C244.459 250.508 236.995 241.345 244.762 235.631C252.529 229.917 239.337 223.628 242.081 220.835C244.825 218.042 231.809 213.325 230.575 233.53C229.341 253.735 213.788 232.104 198.67 229.088C183.553 226.072 169.415 235.751 177.44 247.08C185.465 258.41 188.178 258.169 194.917 252.952C201.657 247.736 205.846 248.73 206.616 249.918C207.387 251.105 201.128 258.626 194.541 261.085C187.953 263.545 186.398 271.81 182.273 271.955C178.148 272.1 169.993 264.547 153.481 269.711C140.268 273.843 175.02 285.465 175.101 289.769C175.299 300.346 145.667 276.131 132.041 276.197C127.467 276.218 133.724 281.906 144.046 289.448C157.003 296.08 171.226 300.78 186.404 303.102Z" fill="url(#paint6_linear_2952_5107)"/>
<path d="M324.366 162.267C323.102 166.553 331.027 175.74 330.851 181.169C330.676 186.597 331.392 196.07 330.876 200.796C330.359 205.522 332.261 206.137 333.854 205.565C335.448 204.994 333.767 212.555 334.383 214.928C334.679 216.071 334.825 218.753 334.896 221.231C338.918 211.987 341.979 202.172 343.946 191.891C343.357 189.817 342.907 187.814 342.754 186.157C342.138 179.508 340.391 179.486 338.84 172.288C337.29 165.09 336.015 159.562 332.157 156.288C328.299 153.013 325.629 157.981 324.366 162.267Z" fill="url(#paint7_linear_2952_5107)"/>
<path d="M328.463 124.207C326.719 125.124 333.338 132.71 332.124 136.413C330.91 140.115 332.879 145.368 336.09 146.052C339.301 146.736 336.256 152.171 344.038 154.579C344.796 154.814 345.464 154.881 346.051 154.818C345.712 150.435 345.165 146.096 344.42 141.815C344.257 141.784 344.092 141.757 343.922 141.745C343.922 141.745 339.659 142.851 338.016 138.272C336.373 133.693 340.105 129.805 335.702 128.691C331.299 127.577 330.206 123.29 328.463 124.207Z" fill="url(#paint8_linear_2952_5107)"/>
<path d="M93.0851 33.4959L144.599 17.7815L153.85 24.7316L144.786 28.9163C145.734 31.2292 145.643 33.4545 144.303 34.6004C142.542 36.1063 139.282 35.2143 136.666 32.6652L128.046 36.6451C129.13 39.0636 129.081 41.4324 127.684 42.6274C125.916 44.1391 122.638 43.2335 120.017 40.6613L111.626 50.9646L138.265 72.0375L154.902 69.9726L161.609 75.7723L145.518 79.2443C145.518 79.2443 150.387 84.7244 149.185 89.0195C147.983 93.3152 137.346 90.1265 137.346 90.1265L135.73 105.757L129.46 102.701L127.765 85.6781L100.461 65.2691L92.3723 75.5262L92.0737 77.5067C95.4264 79.0865 97.4335 81.8833 96.6137 84.0791C95.9379 85.8899 93.5436 86.7578 90.7261 86.4424L89.3237 95.7423C92.772 97.3073 94.856 100.156 94.0237 102.386C93.3347 104.232 90.8581 105.089 87.9694 104.72L86.2943 115.829L76.6845 108.704L79.4315 48.3619C79.4315 48.3619 48.3119 29.3504 56.3169 17.802C64.085 6.59638 93.0851 33.4959 93.0851 33.4959Z" fill="#3A1A53"/>
<path d="M150.448 92.0994C150.448 92.0994 343.488 239.678 348.542 262.425C353.836 286.257 308.834 262.425 308.834 262.425" stroke="#634399" stroke-width="1.03347" stroke-miterlimit="10" stroke-linecap="round" stroke-dasharray="3.1 3.1"/>
<path d="M299.056 56.7741C299.056 56.7741 327.828 27.0195 338.76 40.0051C352.877 56.7741 123.875 307.67 91.7133 288.009C75.8318 278.301 101.419 257.119 101.419 257.119" stroke="#634399" stroke-width="1.03347" stroke-miterlimit="10" stroke-linecap="round" stroke-dasharray="3.1 3.1"/>
<path d="M371.959 302.758H383.427V297.757H371.959V302.758Z" fill="url(#paint9_linear_2952_5107)"/>
<path d="M332.55 302.758H344.018V297.757H332.55V302.758Z" fill="url(#paint10_linear_2952_5107)"/>
<path d="M380.997 170.84L381.118 117.614C381.132 116.326 380.463 115.141 379.284 114.363C378.431 113.8 377.342 113.484 376.219 113.472L336.294 113.038C333.525 113.008 331.331 114.78 331.306 117.073L331.175 171.355L336.254 172.644L336.374 118.121L376.028 118.551L375.917 171.097L380.997 170.84Z" fill="url(#paint11_linear_2952_5107)"/>
<path d="M321.308 291.542H392.53C396.655 291.542 400 288.197 400 284.072V169.366C400 165.24 396.655 161.895 392.53 161.895H321.308C317.182 161.895 313.838 165.24 313.838 169.366V284.072C313.838 288.197 317.182 291.542 321.308 291.542Z" fill="url(#paint12_linear_2952_5107)"/>
<path d="M321.308 298.12H392.53C396.655 298.12 400 294.775 400 290.649V175.943C400 171.817 396.655 168.473 392.53 168.473H321.308C317.182 168.473 313.838 171.817 313.838 175.943V290.649C313.838 294.775 317.182 298.12 321.308 298.12Z" fill="url(#paint13_linear_2952_5107)"/>
<path d="M377.338 298.211H385.276V190.208C385.276 186.671 383.499 183.805 381.307 183.805C379.115 183.805 377.339 186.671 377.339 190.208L377.338 298.211Z" fill="url(#paint14_linear_2952_5107)"/>
<path d="M362.102 298.211H370.039V190.208C370.039 186.671 368.263 183.805 366.071 183.805C363.879 183.805 362.102 186.671 362.102 190.208L362.102 298.211Z" fill="url(#paint15_linear_2952_5107)"/>
<path d="M346.654 298.211H354.591V190.208C354.591 186.671 352.815 183.805 350.623 183.805C348.431 183.805 346.654 186.671 346.654 190.208L346.654 298.211Z" fill="url(#paint16_linear_2952_5107)"/>
<path d="M330.799 298.211H338.736V190.208C338.736 186.671 336.959 183.805 334.768 183.805C332.576 183.805 330.799 186.671 330.799 190.208V298.211H330.799Z" fill="url(#paint17_linear_2952_5107)"/>
<path d="M341.185 120.128H371.375C371.589 120.128 371.763 119.954 371.763 119.74V112.44C371.763 112.226 371.589 112.052 371.375 112.052H341.185C340.971 112.052 340.798 112.226 340.798 112.44V119.74C340.798 119.954 340.971 120.128 341.185 120.128Z" fill="url(#paint18_linear_2952_5107)"/>
<path d="M342.018 265.716H228.578V304.074H342.018V265.716Z" fill="url(#paint19_linear_2952_5107)"/>
<path d="M329.496 266.499C329.977 269.235 332.06 275.948 341.01 279.152C341.662 279.385 342.355 278.904 342.361 278.211L342.455 266.535C342.459 265.984 342.019 265.531 341.468 265.521L330.505 265.322C329.872 265.31 329.386 265.876 329.496 266.499Z" fill="url(#paint20_linear_2952_5107)"/>
<path d="M240.954 266.405C240.428 269.133 238.237 275.811 229.237 278.871C228.582 279.094 227.896 278.601 227.902 277.908L227.996 266.233C228 265.681 228.448 265.236 228.999 265.235L239.963 265.212C240.596 265.21 241.074 265.783 240.954 266.405Z" fill="url(#paint21_linear_2952_5107)"/>
<path d="M241.099 303.938C240.618 301.202 238.535 294.489 229.585 291.285C228.933 291.051 228.24 291.533 228.234 292.226L228.14 303.902C228.136 304.453 228.576 304.905 229.127 304.916L240.089 305.115C240.723 305.127 241.209 304.561 241.099 303.938Z" fill="url(#paint22_linear_2952_5107)"/>
<path d="M329.403 303.522C328.929 305.981 333.119 293.775 341.119 291.056C341.775 290.833 342.46 291.326 342.455 292.019L342.361 303.695C342.357 304.246 341.909 304.691 341.358 304.692L330.393 304.715C329.76 304.717 329.283 304.143 329.403 303.522Z" fill="url(#paint23_linear_2952_5107)"/>
<path d="M266.87 289.261H265.923C264.848 289.261 263.968 288.381 263.968 287.306V279.354C263.968 278.279 264.848 277.399 265.923 277.399H267.052C268.127 277.399 269.007 278.279 269.007 279.354V287.123C269.007 288.299 268.046 289.261 266.87 289.261Z" fill="url(#paint24_linear_2952_5107)"/>
<path d="M304.107 289.261H302.978C301.902 289.261 301.022 288.381 301.022 287.306V279.354C301.022 278.279 301.902 277.399 302.978 277.399H304.107C305.182 277.399 306.062 278.279 306.062 279.354V287.306C306.062 288.381 305.182 289.261 304.107 289.261Z" fill="url(#paint25_linear_2952_5107)"/>
<path d="M268.733 280.619C273.149 281.472 287.013 283.655 300.904 280.662C301.676 280.495 302.405 281.08 302.405 281.87V284.417C302.405 284.965 302.045 285.446 301.52 285.6C298.084 286.611 284.986 289.8 268.153 285.573C267.583 285.43 267.186 284.914 267.199 284.327L267.255 281.812C267.272 281.042 267.977 280.473 268.733 280.619Z" fill="url(#paint26_linear_2952_5107)"/>
<path d="M315.668 265.515H213.388C210.165 265.515 207.551 262.902 207.551 259.678V232.821C207.551 229.597 210.165 226.984 213.388 226.984H315.668C318.892 226.984 321.505 229.597 321.505 232.821V259.678C321.505 262.902 318.891 265.515 315.668 265.515Z" fill="url(#paint27_linear_2952_5107)"/>
<path d="M321.566 238.838H207.49" stroke="white" stroke-width="1.03323" stroke-miterlimit="10"/>
<path d="M321.566 244.538H207.49" stroke="white" stroke-width="1.03323" stroke-miterlimit="10"/>
<path d="M246.243 253.72H245.021C243.965 253.72 243.101 252.856 243.101 251.8V243.723C243.101 242.668 243.965 241.803 245.021 241.803H246.243C247.299 241.803 248.163 242.668 248.163 243.723V251.8C248.163 252.856 247.299 253.72 246.243 253.72Z" fill="url(#paint28_linear_2952_5107)"/>
<path d="M283.326 253.719H282.383C281.25 253.719 280.323 252.793 280.323 251.66V243.863C280.323 242.73 281.25 241.803 282.383 241.803H283.326C284.459 241.803 285.386 242.73 285.386 243.863V251.66C285.386 252.793 284.459 253.719 283.326 253.719Z" fill="url(#paint29_linear_2952_5107)"/>
<path d="M247.816 245.024C252.176 245.871 266.209 248.11 280.258 245.069C281.005 244.908 281.712 245.461 281.712 246.226V248.886C281.712 249.415 281.373 249.879 280.865 250.029C277.477 251.031 264.259 254.284 247.256 250.002C246.715 249.866 246.334 249.365 246.346 248.807L246.405 246.172C246.421 245.433 247.09 244.883 247.816 245.024Z" fill="url(#paint30_linear_2952_5107)"/>
<defs>
<linearGradient id="paint0_linear_2952_5107" x1="117.981" y1="37.7178" x2="226.435" y2="77.6716" gradientUnits="userSpaceOnUse">
<stop stop-color="white"/>
<stop offset="1" stop-color="#EDF5FB"/>
</linearGradient>
<linearGradient id="paint1_linear_2952_5107" x1="110.815" y1="136.946" x2="251.179" y2="188.656" gradientUnits="userSpaceOnUse">
<stop stop-color="white"/>
<stop offset="1" stop-color="#EDF5FB"/>
</linearGradient>
<linearGradient id="paint2_linear_2952_5107" x1="106.889" y1="202.258" x2="146.145" y2="216.72" gradientUnits="userSpaceOnUse">
<stop stop-color="white"/>
<stop offset="1" stop-color="#EDF5FB"/>
</linearGradient>
<linearGradient id="paint3_linear_2952_5107" x1="248.051" y1="47.0307" x2="273.579" y2="56.4349" gradientUnits="userSpaceOnUse">
<stop stop-color="white"/>
<stop offset="1" stop-color="#EDF5FB"/>
</linearGradient>
<linearGradient id="paint4_linear_2952_5107" x1="290.07" y1="184.145" x2="306.109" y2="190.054" gradientUnits="userSpaceOnUse">
<stop stop-color="white"/>
<stop offset="1" stop-color="#EDF5FB"/>
</linearGradient>
<linearGradient id="paint5_linear_2952_5107" x1="264.543" y1="69.8791" x2="342.367" y2="98.5489" gradientUnits="userSpaceOnUse">
<stop stop-color="white"/>
<stop offset="1" stop-color="#EDF5FB"/>
</linearGradient>
<linearGradient id="paint6_linear_2952_5107" x1="157.298" y1="204.22" x2="312.655" y2="261.453" gradientUnits="userSpaceOnUse">
<stop stop-color="white"/>
<stop offset="1" stop-color="#EDF5FB"/>
</linearGradient>
<linearGradient id="paint7_linear_2952_5107" x1="316.872" y1="182.45" x2="345.534" y2="193.009" gradientUnits="userSpaceOnUse">
<stop stop-color="white"/>
<stop offset="1" stop-color="#EDF5FB"/>
</linearGradient>
<linearGradient id="paint8_linear_2952_5107" x1="324.398" y1="134.853" x2="349.94" y2="144.262" gradientUnits="userSpaceOnUse">
<stop stop-color="white"/>
<stop offset="1" stop-color="#EDF5FB"/>
</linearGradient>
<linearGradient id="paint9_linear_2952_5107" x1="383.427" y1="300.258" x2="371.959" y2="300.258" gradientUnits="userSpaceOnUse">
<stop stop-color="#C3D6FB"/>
<stop offset="0.5158" stop-color="#9FA8EF"/>
<stop offset="1" stop-color="#8181E5"/>
</linearGradient>
<linearGradient id="paint10_linear_2952_5107" x1="344.018" y1="300.258" x2="332.55" y2="300.258" gradientUnits="userSpaceOnUse">
<stop stop-color="#C3D6FB"/>
<stop offset="0.5158" stop-color="#9FA8EF"/>
<stop offset="1" stop-color="#8181E5"/>
</linearGradient>
<linearGradient id="paint11_linear_2952_5107" x1="362.339" y1="-3.03786" x2="354.864" y2="174.518" gradientUnits="userSpaceOnUse">
<stop stop-color="#C3D6FB"/>
<stop offset="0.5158" stop-color="#9FA8EF"/>
<stop offset="1" stop-color="#8181E5"/>
</linearGradient>
<linearGradient id="paint12_linear_2952_5107" x1="354.09" y1="40.4599" x2="356.455" y2="196.171" gradientUnits="userSpaceOnUse">
<stop stop-color="#342A6B"/>
<stop offset="0.8427" stop-color="#5352B2"/>
</linearGradient>
<linearGradient id="paint13_linear_2952_5107" x1="355.777" y1="158.119" x2="358.142" y2="313.83" gradientUnits="userSpaceOnUse">
<stop stop-color="#C3D6FB"/>
<stop offset="0.5158" stop-color="#9FA8EF"/>
<stop offset="1" stop-color="#8181E5"/>
</linearGradient>
<linearGradient id="paint14_linear_2952_5107" x1="379.42" y1="283.93" x2="383.812" y2="191.204" gradientUnits="userSpaceOnUse">
<stop stop-color="#342A6B"/>
<stop offset="0.8427" stop-color="#5352B2"/>
</linearGradient>
<linearGradient id="paint15_linear_2952_5107" x1="366.157" y1="286.753" x2="365.959" y2="189.409" gradientUnits="userSpaceOnUse">
<stop stop-color="#342A6B"/>
<stop offset="0.8427" stop-color="#5352B2"/>
</linearGradient>
<linearGradient id="paint16_linear_2952_5107" x1="350.159" y1="293.78" x2="351.15" y2="187.728" gradientUnits="userSpaceOnUse">
<stop stop-color="#342A6B"/>
<stop offset="0.8427" stop-color="#5352B2"/>
</linearGradient>
<linearGradient id="paint17_linear_2952_5107" x1="334.304" y1="293.78" x2="335.295" y2="187.728" gradientUnits="userSpaceOnUse">
<stop stop-color="#342A6B"/>
<stop offset="0.8427" stop-color="#5352B2"/>
</linearGradient>
<linearGradient id="paint18_linear_2952_5107" x1="371.763" y1="116.09" x2="340.798" y2="116.09" gradientUnits="userSpaceOnUse">
<stop stop-color="#342A6B"/>
<stop offset="0.8427" stop-color="#5352B2"/>
</linearGradient>
<linearGradient id="paint19_linear_2952_5107" x1="228.578" y1="284.895" x2="342.018" y2="284.895" gradientUnits="userSpaceOnUse">
<stop stop-color="#342A6B"/>
<stop offset="0.8427" stop-color="#5352B2"/>
</linearGradient>
<linearGradient id="paint20_linear_2952_5107" x1="342.455" y1="272.266" x2="329.48" y2="272.266" gradientUnits="userSpaceOnUse">
<stop stop-color="#DD9689"/>
<stop offset="0.8135" stop-color="#E9AC79"/>
</linearGradient>
<linearGradient id="paint21_linear_2952_5107" x1="240.972" y1="272.068" x2="227.902" y2="272.068" gradientUnits="userSpaceOnUse">
<stop stop-color="#DD9689"/>
<stop offset="0.8135" stop-color="#E9AC79"/>
</linearGradient>
<linearGradient id="paint22_linear_2952_5107" x1="241.115" y1="298.17" x2="228.14" y2="298.17" gradientUnits="userSpaceOnUse">
<stop stop-color="#DD9689"/>
<stop offset="0.8135" stop-color="#E9AC79"/>
</linearGradient>
<linearGradient id="paint23_linear_2952_5107" x1="342.455" y1="297.858" x2="329.366" y2="297.858" gradientUnits="userSpaceOnUse">
<stop stop-color="#DD9689"/>
<stop offset="0.8135" stop-color="#E9AC79"/>
</linearGradient>
<linearGradient id="paint24_linear_2952_5107" x1="269.007" y1="283.33" x2="263.968" y2="283.33" gradientUnits="userSpaceOnUse">
<stop stop-color="#C3D6FB"/>
<stop offset="0.5158" stop-color="#9FA8EF"/>
<stop offset="1" stop-color="#8181E5"/>
</linearGradient>
<linearGradient id="paint25_linear_2952_5107" x1="306.062" y1="283.33" x2="301.023" y2="283.33" gradientUnits="userSpaceOnUse">
<stop stop-color="#C3D6FB"/>
<stop offset="0.5158" stop-color="#9FA8EF"/>
<stop offset="1" stop-color="#8181E5"/>
</linearGradient>
<linearGradient id="paint26_linear_2952_5107" x1="302.405" y1="284.151" x2="267.199" y2="284.151" gradientUnits="userSpaceOnUse">
<stop stop-color="#C3D6FB"/>
<stop offset="0.5158" stop-color="#9FA8EF"/>
<stop offset="1" stop-color="#8181E5"/>
</linearGradient>
<linearGradient id="paint27_linear_2952_5107" x1="321.505" y1="246.249" x2="207.551" y2="246.249" gradientUnits="userSpaceOnUse">
<stop stop-color="#DD9689"/>
<stop offset="0.8135" stop-color="#E9AC79"/>
</linearGradient>
<linearGradient id="paint28_linear_2952_5107" x1="243.101" y1="247.762" x2="248.163" y2="247.762" gradientUnits="userSpaceOnUse">
<stop stop-color="#342A6B"/>
<stop offset="0.8427" stop-color="#5352B2"/>
</linearGradient>
<linearGradient id="paint29_linear_2952_5107" x1="280.323" y1="247.761" x2="285.386" y2="247.761" gradientUnits="userSpaceOnUse">
<stop stop-color="#342A6B"/>
<stop offset="0.8427" stop-color="#5352B2"/>
</linearGradient>
<linearGradient id="paint30_linear_2952_5107" x1="246.346" y1="248.579" x2="281.712" y2="248.579" gradientUnits="userSpaceOnUse">
<stop stop-color="#342A6B"/>
<stop offset="0.8427" stop-color="#5352B2"/>
</linearGradient>
</defs>
</svg>
