<svg width="456" height="320" viewBox="0 0 456 320" fill="none" xmlns="http://www.w3.org/2000/svg">
<path d="M227.924 310C310.767 310 377.924 242.843 377.924 160C377.924 77.1573 310.767 10 227.924 10C145.082 10 77.9243 77.1573 77.9243 160C77.9243 242.843 145.082 310 227.924 310Z" fill="#F8E3E6"/>
<path d="M214.54 274.443C283.317 274.443 339.072 218.689 339.072 149.912C339.072 81.1349 283.317 25.3801 214.54 25.3801C145.764 25.3801 90.0088 81.1349 90.0088 149.912C90.0088 218.689 145.764 274.443 214.54 274.443Z" fill="#FECAD2"/>
<path d="M243.776 36.7445C243.776 36.7445 227.48 26.661 208.86 29.4462C190.24 32.2313 191.124 36.2477 172.352 38.4433C153.579 40.6389 121.543 70.2297 121.543 70.2297C121.543 70.2297 146.748 53.5638 150.776 53.9345C154.803 54.3052 156.068 50.8436 157.803 50.8654C159.539 50.8872 163.032 53.4406 166.721 53.1129C170.41 52.7853 167.027 58.5373 177.167 61.2541C187.307 63.9709 191.466 70.912 199.138 65.9342C206.811 60.9566 209.877 52.7704 213.566 52.4425C217.255 52.1145 217.55 56.284 226.161 48.8613C234.772 41.4386 241.638 49.7219 243.776 36.7445Z" fill="url(#paint0_linear_2952_5107)"/>
<path d="M246.746 166.2C252.853 166.371 258.066 161.82 258.828 155.759C259.17 153.034 259.763 149.635 260.79 145.859C263.374 136.35 256.289 128.507 254.2 121.262C252.11 114.018 253.454 109.461 243.93 105.197C234.406 100.932 238.691 95.3519 227.632 95.4044C216.572 95.4573 218.126 98.4965 212.516 112.014C206.906 125.532 206.527 138.678 198.245 135.144C189.963 131.61 188.502 134.093 183.624 135.569C178.746 137.045 175.867 134.683 166.775 129.336C157.682 123.989 153.373 122.792 143.981 122.281C134.589 121.771 123.722 122.064 126.265 135.925C128.808 149.786 139.5 152.064 138.946 162.098C138.392 172.133 154.941 171.839 157.76 177.842C160.58 183.845 169.606 212.078 177.789 208.002C185.971 203.925 187.763 190.473 200.836 193.817C213.909 197.161 211.426 201.382 216.669 196.444C221.912 191.507 231.013 198.196 232.122 189.49C233.231 180.785 237.991 165.872 246.492 166.192C246.577 166.195 246.662 166.198 246.746 166.2Z" fill="url(#paint1_linear_2952_5107)"/>
<path d="M152.389 194.236C149.47 192.307 146.844 189.941 144.722 187.159C143.985 186.193 143.324 185.198 142.871 184.263C141.06 180.524 132.28 171.017 129.607 170.447C126.934 169.878 128.468 186.154 136.233 193.059C143.997 199.965 145.999 202.813 147.898 205.267C149.693 207.587 165.543 202.93 152.389 194.236Z" fill="url(#paint2_linear_2952_5107)"/>
<path d="M271.47 53.7847C271.47 53.7847 260.994 50.06 258.046 50.518C255.097 50.976 253.053 51.9661 251.903 48.1234C250.753 44.2807 249.646 41.1938 255.096 42.6942C260.547 44.1946 261.914 42.5632 264.664 42.7186C267.413 42.8739 266.44 45.8147 267.821 47.7932C269.202 49.7714 277.399 52.4 271.47 53.7847Z" fill="url(#paint3_linear_2952_5107)"/>
<path d="M302.823 172.047C302.987 171.508 302.851 170.925 302.557 170.445C301.93 169.419 300.342 167.561 297.121 167.705C292.689 167.904 292.307 165.617 290.772 162.725C289.237 159.832 289.398 170.931 290.172 171.818C290.945 172.704 293.148 170.763 295.574 171.974C297.739 173.054 302.151 174.252 302.823 172.047Z" fill="url(#paint4_linear_2952_5107)"/>
<path d="M310.894 105.343C315.87 104.523 314.124 107.492 319.789 109.325C325.454 111.158 321.35 106.247 323.315 107.153C325.279 108.059 329.613 113.854 328.095 104.97C326.577 96.0855 312.66 83.6554 316.753 83.0656C320.846 82.4757 319.143 87.4938 322.893 89.1866C323.043 89.2543 323.204 89.3092 323.363 89.3675C313.161 71.0604 298.419 55.4288 280.402 44.1921C280.186 45.1624 278.956 45.8341 275.961 45.8401C264.96 45.8631 281.836 46.0434 290.087 60.8882C298.339 75.7328 304.409 85.7953 301.025 83.0561C297.641 80.3169 299.159 89.2012 300.873 90.9583C302.586 92.7154 304.07 85.0969 307.05 88.0983C310.03 91.099 305.917 106.162 310.894 105.343Z" fill="url(#paint5_linear_2952_5107)"/>
<path d="M195.708 273.011C239.679 279.738 281.785 262.581 308.864 231.233L312.246 226.352C312.246 226.352 304.655 225.835 297.942 231.097C291.229 236.36 282.389 243.002 287.333 235.713C292.278 228.424 295.023 225.434 291.846 223.565C288.669 221.697 290.149 218.62 293.153 217.427C296.158 216.233 293.111 223.651 299.048 218.591C304.984 213.53 308.602 210.394 303.025 198.234C297.449 186.073 303.343 187.237 297.449 186.073C291.555 184.909 294.632 191.981 291.814 192.298C288.997 192.614 285.35 190.799 288 197.291C290.651 203.784 287.704 211.591 286.152 211.993C284.599 212.396 286.243 204.481 282.416 201.244C278.589 198.006 284.483 188.645 287.163 186.274C289.844 183.903 290.444 184.56 287.793 179.56C285.142 174.559 286.033 170.807 287.111 166.178C288.188 161.549 283.818 162.268 281.978 163.159C280.138 164.051 274.301 163.908 280.08 157.438C285.858 150.969 274.099 146.355 274.803 143.48C275.507 140.605 268.529 137.368 267.799 148.676C267.07 159.984 274.23 172.418 270.939 174.1C267.647 175.783 268.839 181.04 262.348 180.346C249.725 178.996 245.437 189.415 253.014 193.871C260.591 198.326 260.175 210.86 257.515 212.586C254.856 214.311 249.839 213.334 248.775 219.616C247.712 225.899 241.026 217.691 247.984 212.572C254.941 207.454 243.124 201.82 245.582 199.318C248.04 196.816 236.381 192.591 235.276 210.69C234.17 228.789 220.238 209.412 206.696 206.711C193.154 204.01 180.489 212.679 187.678 222.828C194.867 232.977 197.297 232.761 203.334 228.088C209.371 223.415 213.124 224.306 213.814 225.37C214.504 226.434 208.897 233.171 202.997 235.373C197.096 237.576 195.702 244.98 192.007 245.11C188.313 245.24 181.007 238.475 166.217 243.1C154.381 246.801 185.511 257.212 185.583 261.068C185.76 270.542 159.217 248.851 147.011 248.91C142.914 248.929 148.519 254.024 157.765 260.78C169.372 266.721 182.112 270.931 195.708 273.011Z" fill="url(#paint6_linear_2952_5107)"/>
<path d="M319.291 146.854C318.159 150.694 325.258 158.923 325.1 163.786C324.943 168.649 325.584 177.135 325.122 181.368C324.66 185.601 326.363 186.152 327.79 185.64C329.218 185.128 327.712 191.901 328.264 194.027C328.529 195.05 328.659 197.453 328.724 199.673C332.326 191.392 335.069 182.601 336.831 173.391C336.303 171.533 335.9 169.739 335.762 168.254C335.211 162.298 333.645 162.279 332.257 155.831C330.868 149.383 329.725 144.431 326.27 141.498C322.814 138.565 320.422 143.015 319.291 146.854Z" fill="url(#paint7_linear_2952_5107)"/>
<path d="M322.961 112.761C321.399 113.583 327.328 120.379 326.241 123.695C325.153 127.011 326.917 131.717 329.794 132.329C332.67 132.942 329.942 137.811 336.913 139.968C337.592 140.178 338.191 140.239 338.717 140.182C338.412 136.255 337.923 132.369 337.255 128.534C337.109 128.506 336.961 128.482 336.809 128.472C336.809 128.472 332.99 129.462 331.519 125.36C330.047 121.258 333.39 117.775 329.446 116.778C325.501 115.78 324.523 111.94 322.961 112.761Z" fill="url(#paint8_linear_2952_5107)"/>
<path d="M112.115 31.5046L158.26 17.428L166.547 23.6537L158.428 27.4022C159.277 29.4741 159.195 31.4675 157.995 32.4939C156.418 33.8429 153.497 33.0438 151.154 30.7604L143.433 34.3255C144.403 36.492 144.36 38.6139 143.108 39.6843C141.525 41.0384 138.588 40.2273 136.241 37.9231L128.723 47.1526L152.586 66.0292L167.49 64.1795L173.497 69.3747L159.083 72.4848C159.083 72.4848 163.445 77.3938 162.369 81.2412C161.292 85.0892 151.763 82.2329 151.763 82.2329L150.315 96.2344L144.699 93.4971L143.181 78.2481L118.723 59.9662L111.477 69.1543L111.209 70.9284C114.213 72.3434 116.01 74.8488 115.276 76.8157C114.671 78.4378 112.526 79.2153 110.002 78.9327L108.746 87.2634C111.835 88.6652 113.702 91.2169 112.956 93.2146C112.339 94.8679 110.12 95.6357 107.533 95.3057L106.032 105.256L97.424 98.874L99.8847 44.8212C99.8847 44.8212 72.0085 27.7911 79.1792 17.4464C86.1377 7.4086 112.115 31.5046 112.115 31.5046Z" fill="#3A1A53"/>
<path d="M163.5 84C163.5 84 336.42 216.197 340.947 236.574C345.69 257.922 305.377 236.574 305.377 236.574" stroke="#634399" stroke-width="1.03347" stroke-miterlimit="10" stroke-linecap="round" stroke-dasharray="3.1 3.1"/>
<path d="M296.619 52.3565C296.619 52.3565 322.392 25.7031 332.185 37.3353C344.831 52.3565 139.696 277.103 110.887 259.491C96.6602 250.795 119.58 231.821 119.58 231.821" stroke="#634399" stroke-width="1.03347" stroke-miterlimit="10" stroke-linecap="round" stroke-dasharray="3.1 3.1"/>
<path d="M380.328 307.83H390.6V303.35H380.328V307.83Z" fill="url(#paint9_linear_2952_5107)"/>
<path d="M345.026 307.83H355.299V303.35H345.026V307.83Z" fill="url(#paint10_linear_2952_5107)"/>
<path d="M388.423 189.66L388.532 141.982C388.544 140.828 387.945 139.767 386.889 139.07C386.125 138.566 385.15 138.282 384.143 138.272L348.38 137.883C345.899 137.857 343.934 139.444 343.912 141.498L343.794 190.122L348.344 191.276L348.452 142.436L383.973 142.822L383.874 189.891L388.423 189.66Z" fill="url(#paint11_linear_2952_5107)"/>
<path d="M334.956 297.783H398.755C402.45 297.783 405.446 294.787 405.446 291.091V188.34C405.446 184.644 402.45 181.648 398.755 181.648H334.956C331.26 181.648 328.264 184.644 328.264 188.34V291.091C328.264 294.787 331.26 297.783 334.956 297.783Z" fill="url(#paint12_linear_2952_5107)"/>
<path d="M334.956 303.675H398.755C402.45 303.675 405.446 300.679 405.446 296.983V194.232C405.446 190.536 402.45 187.54 398.755 187.54H334.956C331.26 187.54 328.264 190.536 328.264 194.232V296.983C328.264 300.679 331.26 303.675 334.956 303.675Z" fill="url(#paint13_linear_2952_5107)"/>
<path d="M385.146 303.757H392.256V207.01C392.256 203.842 390.665 201.275 388.702 201.275C386.738 201.275 385.147 203.842 385.147 207.01L385.146 303.757Z" fill="url(#paint14_linear_2952_5107)"/>
<path d="M371.498 303.757H378.608V207.01C378.608 203.842 377.017 201.275 375.053 201.275C373.09 201.275 371.498 203.842 371.498 207.01L371.498 303.757Z" fill="url(#paint15_linear_2952_5107)"/>
<path d="M357.66 303.757H364.77V207.01C364.77 203.842 363.179 201.275 361.215 201.275C359.252 201.275 357.66 203.842 357.66 207.01L357.66 303.757Z" fill="url(#paint16_linear_2952_5107)"/>
<path d="M343.458 303.757H350.567V207.01C350.567 203.842 348.976 201.275 347.013 201.275C345.049 201.275 343.458 203.842 343.458 207.01V303.757H343.458Z" fill="url(#paint17_linear_2952_5107)"/>
<path d="M352.761 144.234H379.805C379.996 144.234 380.152 144.079 380.152 143.887V137.347C380.152 137.155 379.996 137 379.805 137H352.761C352.57 137 352.414 137.155 352.414 137.347V143.887C352.414 144.079 352.57 144.234 352.761 144.234Z" fill="url(#paint18_linear_2952_5107)"/>
<path d="M353.507 274.648H251.89V309.008H353.507V274.648Z" fill="url(#paint19_linear_2952_5107)"/>
<path d="M342.29 275.35C342.722 277.8 344.587 283.814 352.604 286.684C353.189 286.893 353.81 286.462 353.815 285.841L353.899 275.382C353.903 274.888 353.509 274.483 353.015 274.474L343.195 274.295C342.628 274.285 342.192 274.792 342.29 275.35Z" fill="url(#paint20_linear_2952_5107)"/>
<path d="M262.977 275.266C262.506 277.709 260.543 283.692 252.481 286.433C251.894 286.632 251.28 286.191 251.285 285.57L251.369 275.111C251.373 274.617 251.774 274.219 252.268 274.218L262.089 274.197C262.656 274.195 263.084 274.709 262.977 275.266Z" fill="url(#paint21_linear_2952_5107)"/>
<path d="M263.107 308.886C262.676 306.436 260.81 300.422 252.793 297.552C252.208 297.343 251.588 297.775 251.583 298.395L251.498 308.854C251.494 309.348 251.889 309.753 252.382 309.762L262.202 309.941C262.77 309.951 263.206 309.445 263.107 308.886Z" fill="url(#paint22_linear_2952_5107)"/>
<path d="M342.207 308.514C341.782 310.717 345.536 299.784 352.702 297.348C353.29 297.148 353.904 297.589 353.899 298.21L353.815 308.669C353.811 309.163 353.41 309.561 352.916 309.562L343.094 309.583C342.527 309.584 342.1 309.071 342.207 308.514Z" fill="url(#paint23_linear_2952_5107)"/>
<path d="M286.191 295.74H285.343C284.38 295.74 283.592 294.951 283.592 293.988V286.865C283.592 285.902 284.38 285.114 285.343 285.114H286.355C287.318 285.114 288.106 285.902 288.106 286.865V293.825C288.106 294.878 287.245 295.74 286.191 295.74Z" fill="url(#paint24_linear_2952_5107)"/>
<path d="M319.547 295.74H318.536C317.573 295.74 316.785 294.951 316.785 293.988V286.865C316.785 285.902 317.573 285.114 318.536 285.114H319.547C320.511 285.114 321.299 285.902 321.299 286.865V293.988C321.299 294.951 320.511 295.74 319.547 295.74Z" fill="url(#paint25_linear_2952_5107)"/>
<path d="M287.861 287.998C291.816 288.762 304.235 290.717 316.679 288.036C317.37 287.887 318.023 288.411 318.023 289.118V291.401C318.023 291.891 317.701 292.322 317.23 292.46C314.152 293.365 302.42 296.222 287.341 292.436C286.831 292.308 286.475 291.846 286.487 291.32L286.537 289.067C286.552 288.377 287.183 287.867 287.861 287.998Z" fill="url(#paint26_linear_2952_5107)"/>
<path d="M329.903 274.468H238.284C235.396 274.468 233.055 272.127 233.055 269.24V245.182C233.055 242.294 235.396 239.953 238.284 239.953H329.904C332.791 239.953 335.132 242.294 335.132 245.182V269.24C335.132 272.127 332.791 274.468 329.903 274.468Z" fill="url(#paint27_linear_2952_5107)"/>
<path d="M335.187 250.572H233" stroke="white" stroke-width="1.03323" stroke-miterlimit="10"/>
<path d="M335.187 255.677H233" stroke="white" stroke-width="1.03323" stroke-miterlimit="10"/>
<path d="M267.715 263.902H266.62C265.674 263.902 264.9 263.128 264.9 262.182V254.948C264.9 254.002 265.674 253.228 266.62 253.228H267.715C268.661 253.228 269.435 254.002 269.435 254.948V262.182C269.434 263.128 268.661 263.902 267.715 263.902Z" fill="url(#paint28_linear_2952_5107)"/>
<path d="M300.932 263.902H300.088C299.073 263.902 298.243 263.072 298.243 262.057V255.073C298.243 254.058 299.073 253.228 300.088 253.228H300.932C301.947 253.228 302.778 254.058 302.778 255.073V262.057C302.778 263.072 301.947 263.902 300.932 263.902Z" fill="url(#paint29_linear_2952_5107)"/>
<path d="M269.123 256.113C273.029 256.872 285.6 258.877 298.184 256.154C298.854 256.009 299.487 256.505 299.487 257.19V259.572C299.487 260.047 299.183 260.462 298.728 260.597C295.693 261.494 283.853 264.408 268.622 260.572C268.137 260.45 267.796 260.001 267.807 259.501L267.859 257.141C267.874 256.479 268.473 255.986 269.123 256.113Z" fill="url(#paint30_linear_2952_5107)"/>
<defs>
<linearGradient id="paint0_linear_2952_5107" x1="134.416" y1="35.2861" x2="231.567" y2="71.0758" gradientUnits="userSpaceOnUse">
<stop stop-color="white"/>
<stop offset="1" stop-color="#EDF5FB"/>
</linearGradient>
<linearGradient id="paint1_linear_2952_5107" x1="127.997" y1="124.173" x2="253.732" y2="170.493" gradientUnits="userSpaceOnUse">
<stop stop-color="white"/>
<stop offset="1" stop-color="#EDF5FB"/>
</linearGradient>
<linearGradient id="paint2_linear_2952_5107" x1="124.481" y1="182.677" x2="159.645" y2="195.632" gradientUnits="userSpaceOnUse">
<stop stop-color="white"/>
<stop offset="1" stop-color="#EDF5FB"/>
</linearGradient>
<linearGradient id="paint3_linear_2952_5107" x1="250.93" y1="43.6287" x2="273.797" y2="52.0528" gradientUnits="userSpaceOnUse">
<stop stop-color="white"/>
<stop offset="1" stop-color="#EDF5FB"/>
</linearGradient>
<linearGradient id="paint4_linear_2952_5107" x1="288.57" y1="166.453" x2="302.937" y2="171.745" gradientUnits="userSpaceOnUse">
<stop stop-color="white"/>
<stop offset="1" stop-color="#EDF5FB"/>
</linearGradient>
<linearGradient id="paint5_linear_2952_5107" x1="265.704" y1="64.0955" x2="335.417" y2="89.7772" gradientUnits="userSpaceOnUse">
<stop stop-color="white"/>
<stop offset="1" stop-color="#EDF5FB"/>
</linearGradient>
<linearGradient id="paint6_linear_2952_5107" x1="169.635" y1="184.435" x2="308.801" y2="235.703" gradientUnits="userSpaceOnUse">
<stop stop-color="white"/>
<stop offset="1" stop-color="#EDF5FB"/>
</linearGradient>
<linearGradient id="paint7_linear_2952_5107" x1="312.578" y1="164.934" x2="338.253" y2="174.393" gradientUnits="userSpaceOnUse">
<stop stop-color="white"/>
<stop offset="1" stop-color="#EDF5FB"/>
</linearGradient>
<linearGradient id="paint8_linear_2952_5107" x1="319.32" y1="122.297" x2="342.2" y2="130.726" gradientUnits="userSpaceOnUse">
<stop stop-color="white"/>
<stop offset="1" stop-color="#EDF5FB"/>
</linearGradient>
<linearGradient id="paint9_linear_2952_5107" x1="390.6" y1="305.59" x2="380.328" y2="305.59" gradientUnits="userSpaceOnUse">
<stop stop-color="#C3D6FB"/>
<stop offset="0.5158" stop-color="#9FA8EF"/>
<stop offset="1" stop-color="#8181E5"/>
</linearGradient>
<linearGradient id="paint10_linear_2952_5107" x1="355.299" y1="305.59" x2="345.026" y2="305.59" gradientUnits="userSpaceOnUse">
<stop stop-color="#C3D6FB"/>
<stop offset="0.5158" stop-color="#9FA8EF"/>
<stop offset="1" stop-color="#8181E5"/>
</linearGradient>
<linearGradient id="paint11_linear_2952_5107" x1="371.71" y1="33.9052" x2="365.014" y2="192.955" gradientUnits="userSpaceOnUse">
<stop stop-color="#C3D6FB"/>
<stop offset="0.5158" stop-color="#9FA8EF"/>
<stop offset="1" stop-color="#8181E5"/>
</linearGradient>
<linearGradient id="paint12_linear_2952_5107" x1="364.321" y1="72.8696" x2="366.44" y2="212.351" gradientUnits="userSpaceOnUse">
<stop stop-color="#342A6B"/>
<stop offset="0.8427" stop-color="#5352B2"/>
</linearGradient>
<linearGradient id="paint13_linear_2952_5107" x1="365.832" y1="178.266" x2="367.951" y2="317.748" gradientUnits="userSpaceOnUse">
<stop stop-color="#C3D6FB"/>
<stop offset="0.5158" stop-color="#9FA8EF"/>
<stop offset="1" stop-color="#8181E5"/>
</linearGradient>
<linearGradient id="paint14_linear_2952_5107" x1="387.011" y1="290.964" x2="390.945" y2="207.902" gradientUnits="userSpaceOnUse">
<stop stop-color="#342A6B"/>
<stop offset="0.8427" stop-color="#5352B2"/>
</linearGradient>
<linearGradient id="paint15_linear_2952_5107" x1="375.131" y1="293.493" x2="374.953" y2="206.295" gradientUnits="userSpaceOnUse">
<stop stop-color="#342A6B"/>
<stop offset="0.8427" stop-color="#5352B2"/>
</linearGradient>
<linearGradient id="paint16_linear_2952_5107" x1="360.8" y1="299.787" x2="361.687" y2="204.789" gradientUnits="userSpaceOnUse">
<stop stop-color="#342A6B"/>
<stop offset="0.8427" stop-color="#5352B2"/>
</linearGradient>
<linearGradient id="paint17_linear_2952_5107" x1="346.597" y1="299.787" x2="347.485" y2="204.789" gradientUnits="userSpaceOnUse">
<stop stop-color="#342A6B"/>
<stop offset="0.8427" stop-color="#5352B2"/>
</linearGradient>
<linearGradient id="paint18_linear_2952_5107" x1="380.152" y1="140.617" x2="352.414" y2="140.617" gradientUnits="userSpaceOnUse">
<stop stop-color="#342A6B"/>
<stop offset="0.8427" stop-color="#5352B2"/>
</linearGradient>
<linearGradient id="paint19_linear_2952_5107" x1="251.89" y1="291.828" x2="353.507" y2="291.828" gradientUnits="userSpaceOnUse">
<stop stop-color="#342A6B"/>
<stop offset="0.8427" stop-color="#5352B2"/>
</linearGradient>
<linearGradient id="paint20_linear_2952_5107" x1="353.899" y1="280.516" x2="342.276" y2="280.516" gradientUnits="userSpaceOnUse">
<stop stop-color="#DD9689"/>
<stop offset="0.8135" stop-color="#E9AC79"/>
</linearGradient>
<linearGradient id="paint21_linear_2952_5107" x1="262.993" y1="280.339" x2="251.285" y2="280.339" gradientUnits="userSpaceOnUse">
<stop stop-color="#DD9689"/>
<stop offset="0.8135" stop-color="#E9AC79"/>
</linearGradient>
<linearGradient id="paint22_linear_2952_5107" x1="263.121" y1="303.72" x2="251.498" y2="303.72" gradientUnits="userSpaceOnUse">
<stop stop-color="#DD9689"/>
<stop offset="0.8135" stop-color="#E9AC79"/>
</linearGradient>
<linearGradient id="paint23_linear_2952_5107" x1="353.899" y1="303.441" x2="342.175" y2="303.441" gradientUnits="userSpaceOnUse">
<stop stop-color="#DD9689"/>
<stop offset="0.8135" stop-color="#E9AC79"/>
</linearGradient>
<linearGradient id="paint24_linear_2952_5107" x1="288.106" y1="290.427" x2="283.592" y2="290.427" gradientUnits="userSpaceOnUse">
<stop stop-color="#C3D6FB"/>
<stop offset="0.5158" stop-color="#9FA8EF"/>
<stop offset="1" stop-color="#8181E5"/>
</linearGradient>
<linearGradient id="paint25_linear_2952_5107" x1="321.299" y1="290.427" x2="316.785" y2="290.427" gradientUnits="userSpaceOnUse">
<stop stop-color="#C3D6FB"/>
<stop offset="0.5158" stop-color="#9FA8EF"/>
<stop offset="1" stop-color="#8181E5"/>
</linearGradient>
<linearGradient id="paint26_linear_2952_5107" x1="318.023" y1="291.162" x2="286.486" y2="291.162" gradientUnits="userSpaceOnUse">
<stop stop-color="#C3D6FB"/>
<stop offset="0.5158" stop-color="#9FA8EF"/>
<stop offset="1" stop-color="#8181E5"/>
</linearGradient>
<linearGradient id="paint27_linear_2952_5107" x1="335.132" y1="257.211" x2="233.055" y2="257.211" gradientUnits="userSpaceOnUse">
<stop stop-color="#DD9689"/>
<stop offset="0.8135" stop-color="#E9AC79"/>
</linearGradient>
<linearGradient id="paint28_linear_2952_5107" x1="264.9" y1="258.565" x2="269.435" y2="258.565" gradientUnits="userSpaceOnUse">
<stop stop-color="#342A6B"/>
<stop offset="0.8427" stop-color="#5352B2"/>
</linearGradient>
<linearGradient id="paint29_linear_2952_5107" x1="298.243" y1="258.565" x2="302.778" y2="258.565" gradientUnits="userSpaceOnUse">
<stop stop-color="#342A6B"/>
<stop offset="0.8427" stop-color="#5352B2"/>
</linearGradient>
<linearGradient id="paint30_linear_2952_5107" x1="267.807" y1="259.298" x2="299.487" y2="259.298" gradientUnits="userSpaceOnUse">
<stop stop-color="#342A6B"/>
<stop offset="0.8427" stop-color="#5352B2"/>
</linearGradient>
</defs>
</svg>
