<svg width="456" height="320" viewBox="0 0 456 320" fill="none" xmlns="http://www.w3.org/2000/svg">
<path d="M228.385 310C311.227 310 378.385 242.843 378.385 160C378.385 77.1573 311.227 10 228.385 10C145.542 10 78.3848 77.1573 78.3848 160C78.3848 242.843 145.542 310 228.385 310Z" fill="#F8E3E6"/>
<path d="M272.627 260.702C272.262 262.057 270.542 263.047 269.788 263.603C269.034 264.16 266.643 269.462 266.57 270.559C266.498 271.658 266.411 275.457 265.834 276.687C265.257 277.918 263.969 279.873 263.969 279.873C263.969 279.873 262.236 280.808 262.828 282.388C263.423 283.973 264.312 286.079 263.989 286.883C263.674 287.685 264.992 288.6 266.01 289.052C267.027 289.506 268.772 290.669 268.53 291.811C268.289 292.954 267.755 294.353 267.755 294.353L263.792 296.173L249.321 298.151L237.465 300.056C237.465 300.056 231.183 301.699 229.834 302.051C228.488 302.403 227.255 302.725 223.904 302.76C220.554 302.794 221.456 302.558 220.894 302.253C220.33 301.94 219.701 301.824 219.701 301.824C219.701 301.824 218.453 300.71 218.672 300.171C218.891 299.632 218.761 298.227 218.402 297.76C218.036 297.294 217.207 297.317 216.752 296.953C216.298 296.597 216.208 293.498 216.023 292.352C215.843 291.196 214.565 287.214 214.565 287.214C214.565 287.214 211.89 284.798 210.439 283.378C208.989 281.958 204.592 278.432 203.421 277.177C202.258 275.919 200.344 276.42 199.786 276.566C199.227 276.711 195.821 277.005 195.821 277.005C195.821 277.005 195.801 274.614 195.697 272.843C195.593 271.071 193.544 269.203 193.544 269.203C193.544 269.203 190.004 269.892 186.719 270.153C183.426 270.41 182.882 269.235 182.109 268.12C181.334 266.999 179.679 264.799 178.91 263.676C178.136 262.561 175.371 262.083 174.695 261.785C174.019 261.481 172.473 262.007 170.448 262.054C168.423 262.101 165.791 260.753 165.174 260.677C164.548 260.596 162.48 261.381 162.48 261.381C162.48 261.381 159.038 260.597 158.497 260.379C157.958 260.16 154.995 258.899 154.701 257.775C154.409 256.656 154.516 256.629 155.072 256.002C155.628 255.375 154.86 251.503 154.814 249.954C154.768 248.404 154.068 246.192 153.555 245.607C153.042 245.022 151.927 245.794 151.214 245.377C150.508 244.964 150.183 243.25 150.313 242.376C150.446 241.506 151.475 240.877 151.893 240.163C152.306 239.458 149.933 238.639 149.933 238.639C149.933 238.639 148.13 238.154 147.241 237.063C146.359 235.977 144.879 234.443 143.914 233.5C142.946 232.552 142.289 231.882 141.936 230.535C141.583 229.188 140.091 228.981 139.578 228.396C139.065 227.81 138.947 227.36 138.567 225.905C138.186 224.444 137.454 224.397 135.973 222.864C134.493 221.329 131.909 218.767 131.909 218.767L131.82 215.675L132.395 211.927C132.395 211.927 133.608 211.969 133.634 211.603C133.653 211.238 133.929 210.446 133.929 210.446C133.929 210.446 133.694 209.551 133.486 208.749C133.276 207.948 134.381 208.515 134.381 208.515C134.381 208.515 134.164 206.305 134.076 205.969C133.988 205.632 132.812 205.703 132.812 205.703C132.812 205.703 130.043 204.75 129.283 204.59C128.521 204.43 127.501 204.213 126.792 203.32C126.078 202.429 125.172 202.183 125.172 202.183L123.142 196.239L122.908 193.062L123.465 192.441C123.465 192.441 122.249 191.918 121.854 191.783C121.458 191.643 121.59 190.773 121.838 190.348C122.087 189.923 122.815 189.488 122.815 189.488L122.424 187.554L121.648 185.958L122.74 185.075C122.74 185.075 123.721 187.452 124.693 188.882C125.662 190.305 127.081 191.135 127.767 191.914C128.446 192.693 128.999 191.592 128.999 191.592L128.06 188.002C128.06 188.002 126.538 185.401 125.948 184.957C125.349 184.51 125.322 184.876 124.984 184.49C124.643 184.097 124.631 183.144 124.484 182.577C124.338 182.019 125.345 181.274 125.478 180.878C125.612 180.483 125.3 179.73 125.3 179.73C125.3 179.73 124.057 179.573 123.839 180.112C123.619 180.644 122.873 181.919 123.021 182.484C123.168 183.043 122.452 184.431 122.142 184.628C121.835 184.83 119.635 184.205 119.152 183.734C118.67 183.263 117.219 181.843 116.092 181.657C114.964 181.469 114.059 181.23 113.911 180.665C113.764 180.107 114.716 179.62 114.905 178.966C115.095 178.319 113.764 175.07 113.764 175.07C113.764 175.07 112.542 170.835 112.137 170.221C111.738 169.606 111.009 170.034 110.361 169.844C109.713 169.654 107.754 168.129 106.951 166.9C106.154 165.67 103.55 162.149 103.009 161.455C102.467 160.755 101.587 160.144 101.441 159.585C101.294 159.026 101.631 158.937 102.067 157.384C102.502 155.832 101.727 154.711 101.551 154.037C101.375 153.363 100.72 152.699 100.494 152.277C100.262 151.856 100.696 147.547 101.243 146.446C101.795 145.338 101.549 143.488 101.736 142.36C101.924 141.232 99.992 139.816 99.4202 139.008C98.8472 138.194 97.3129 136.919 96.0487 134.371C94.7859 131.823 93.1165 130.943 93.1165 130.943L92.1172 127.125C92.1172 127.125 91.8274 124.2 92.1592 123.156C92.4844 122.114 97.4886 114.208 97.4886 114.208C97.4886 114.208 96.9601 112.187 96.6086 110.84C96.2559 109.493 96.7044 108.894 96.8381 108.499C96.9719 108.105 98.2413 105.614 97.9921 105.319C97.743 105.024 97.4938 103.414 97.4938 103.414C97.4938 103.414 98.3711 101.983 98.1377 101.087C97.903 100.192 97.2578 97.7199 96.3031 97.3724C95.3406 97.0196 95.8035 95.4604 95.8035 95.4604L96.964 91.5591C96.964 91.5591 127.924 91.8594 141.051 91.845C145.338 91.8397 154.614 91.7374 165.177 91.6024L165.924 159.451L263.156 244.63C263.475 246.18 264.186 249.419 264.705 250.362C265.393 251.621 267.364 254.343 267.585 255.185C267.805 256.027 269.219 257.995 269.856 258.368C270.496 258.741 272.993 259.347 272.627 260.702Z" fill="#B6C0CA"/>
<path d="M140.249 189.257C140.261 189.257 140.285 189.245 140.297 189.245L140.261 189.305L140.249 189.257Z" fill="white"/>
<path d="M282.987 252.105C282.62 253.469 280.902 254.452 280.142 255.016C279.394 255.567 276.994 260.865 276.929 261.966C276.85 263.068 276.772 266.871 276.195 268.103C275.618 269.323 274.319 271.277 274.319 271.277C274.319 271.277 272.588 272.221 273.178 273.795C273.782 275.382 274.66 277.493 274.346 278.293C274.031 279.093 275.342 280.011 276.365 280.47C277.388 280.916 279.132 282.083 278.883 283.224C278.765 283.787 278.568 284.43 278.411 284.928C278.24 285.414 278.109 285.768 278.109 285.768L274.149 287.577L259.671 289.557L247.817 291.472C247.817 291.472 241.535 293.111 240.184 293.465C238.847 293.819 237.614 294.134 234.257 294.173C230.913 294.2 231.818 293.964 231.254 293.662C230.69 293.347 230.061 293.229 230.061 293.229C230.061 293.229 228.815 292.115 229.025 291.577C229.248 291.039 229.116 289.636 228.762 289.177C228.395 288.705 227.569 288.731 227.11 288.364C226.651 288.01 226.559 284.915 226.376 283.761C226.205 282.607 224.92 278.621 224.92 278.621C224.92 278.621 222.245 276.208 220.789 274.791C219.347 273.375 214.954 269.848 213.773 268.589C212.619 267.33 210.705 267.828 210.141 267.972C209.577 268.13 206.181 268.418 206.181 268.418C206.181 268.418 206.154 266.032 206.049 264.261C205.945 262.478 203.899 260.616 203.899 260.616C203.899 260.616 200.358 261.297 197.08 261.56C193.788 261.822 193.237 260.642 192.464 259.527C191.69 258.412 190.038 256.209 189.264 255.095C188.49 253.98 185.723 253.495 185.054 253.193C184.373 252.892 182.825 253.416 180.806 253.469C178.786 253.508 176.15 252.17 175.534 252.092C174.905 252.013 172.833 252.8 172.833 252.8C172.833 252.8 169.397 252.013 168.859 251.79C168.321 251.567 165.358 250.308 165.056 249.194C164.768 248.066 164.873 248.04 165.423 247.41C165.987 246.781 165.213 242.912 165.174 241.365C165.122 239.817 164.427 237.601 163.915 237.011C163.404 236.434 162.289 237.208 161.568 236.788C160.873 236.368 160.545 234.664 160.676 233.785C160.807 232.919 161.83 232.29 162.25 231.569C162.669 230.874 160.296 230.048 160.296 230.048C160.296 230.048 158.486 229.562 157.594 228.474C156.716 227.386 155.234 225.851 154.277 224.907C153.306 223.963 152.651 223.294 152.297 221.943C151.942 220.593 150.447 220.396 149.936 219.806C149.425 219.216 149.307 218.77 148.926 217.314C148.546 215.859 147.812 215.806 146.33 214.272C144.848 212.738 142.265 210.18 142.265 210.18L142.173 207.086L142.75 203.335C142.75 203.335 143.969 203.374 143.996 203.007C144.009 202.653 144.284 201.853 144.284 201.853C144.284 201.853 144.048 200.961 143.838 200.162C143.628 199.362 144.743 199.925 144.743 199.925C144.743 199.925 144.52 197.722 144.428 197.381C144.35 197.04 143.169 197.119 143.169 197.119C143.169 197.119 140.402 196.162 139.642 196.004C138.881 195.834 137.858 195.624 137.15 194.732C136.429 193.841 135.524 193.592 135.524 193.592L133.492 187.651L133.269 184.464L133.819 183.848C133.819 183.848 132.6 183.324 132.206 183.192C131.813 183.048 131.944 182.183 132.193 181.763C132.442 181.33 133.177 180.898 133.177 180.898L132.783 178.957L132.01 177.37L133.098 176.478C133.098 176.478 133.872 178.353 134.724 179.783C134.829 179.966 134.947 180.137 135.052 180.294C136.022 181.711 137.439 182.55 138.121 183.324C138.803 184.097 139.353 182.996 139.353 182.996L138.501 179.691L138.422 179.416C138.422 179.416 136.888 176.806 136.298 176.36C136.285 176.347 136.272 176.334 136.258 176.334C135.708 175.927 135.668 176.268 135.341 175.901C135.183 175.718 135.091 175.403 135.026 175.062C134.973 174.787 134.947 174.498 134.895 174.236C134.882 174.144 134.868 174.065 134.842 173.987C134.711 173.475 135.537 172.793 135.786 172.387C135.813 172.347 135.826 172.308 135.839 172.282C135.904 172.098 135.865 171.836 135.8 171.613C135.747 171.351 135.655 171.141 135.655 171.141C135.655 171.141 134.409 170.984 134.2 171.521C133.977 172.059 133.229 173.331 133.373 173.895C133.387 173.934 133.387 173.974 133.387 174.013C133.426 174.616 132.783 175.849 132.495 176.032C132.193 176.242 129.99 175.613 129.505 175.141C129.02 174.669 127.577 173.252 126.449 173.069C125.322 172.872 124.417 172.636 124.259 172.072C124.115 171.508 125.073 171.023 125.256 170.38C125.453 169.725 124.115 166.472 124.115 166.472C124.115 166.472 122.896 162.237 122.489 161.634C122.096 161.017 121.361 161.437 120.719 161.253C120.063 161.057 118.109 159.535 117.309 158.303C116.509 157.083 113.9 153.556 113.362 152.86C112.824 152.165 111.946 151.549 111.801 150.998C111.644 150.434 111.985 150.343 112.418 148.795C112.864 147.235 112.077 146.12 111.906 145.451C111.736 144.769 111.08 144.114 110.844 143.681C110.621 143.261 111.054 138.96 111.592 137.858C112.156 136.744 111.906 134.895 112.09 133.767C112.274 132.639 110.346 131.223 109.782 130.423C109.205 129.597 107.671 128.325 106.399 125.781C105.14 123.237 103.474 122.358 103.474 122.358L102.478 118.529C102.478 118.529 102.189 115.605 102.517 114.569C102.845 113.519 107.841 105.612 107.841 105.612C107.841 105.612 107.317 103.592 106.963 102.255C106.608 100.904 107.054 100.301 107.199 99.9075C107.33 99.5141 108.602 97.0225 108.353 96.734C108.103 96.4323 107.854 94.8194 107.854 94.8194C107.854 94.8194 108.733 93.39 108.497 92.4982C108.261 91.6065 107.618 89.128 106.661 88.7871C105.691 88.433 106.163 86.8725 106.163 86.8725L107.317 82.9646C107.317 82.9646 107.999 82.9777 109.192 82.9777C116.09 83.0433 140.219 83.2662 151.405 83.2531C155.693 83.2531 164.964 83.1482 175.534 83.0039L176.281 150.854L273.506 236.041C273.834 237.588 274.542 240.827 275.067 241.771C275.749 243.03 277.716 245.758 277.939 246.597C278.162 247.436 279.578 249.403 280.207 249.784C280.85 250.151 283.341 250.754 282.987 252.105Z" fill="white"/>
<path d="M107.318 82.9671C107.318 82.9671 136.808 83.2529 150.429 83.2529C150.765 83.2529 151.09 83.2529 151.405 83.2529C155.692 83.2477 164.968 83.1454 175.531 83.009L176.277 150.858L273.51 236.036C273.829 237.586 274.539 240.826 275.06 241.768C275.749 243.027 277.72 245.75 277.94 246.592C278.16 247.434 279.574 249.402 280.211 249.776C280.848 250.148 283.345 250.755 282.979 252.11C282.615 253.465 280.894 254.455 280.14 255.011C279.386 255.568 276.996 260.87 276.923 261.967C276.851 263.065 276.765 266.865 276.188 268.095C275.611 269.326 274.323 271.282 274.323 271.282C274.323 271.282 272.589 272.217 273.182 273.797C273.776 275.383 274.665 277.489 274.343 278.293C274.028 279.095 275.346 280.009 276.364 280.462C277.381 280.915 279.125 282.079 278.884 283.221C278.643 284.363 278.109 285.762 278.109 285.762L274.146 287.582L259.675 289.56L247.819 291.467C247.819 291.467 241.536 293.11 240.188 293.461C238.841 293.814 237.609 294.135 234.258 294.169C234.039 294.172 233.839 294.173 233.654 294.173C231.019 294.173 231.773 293.948 231.247 293.662C230.683 293.35 230.055 293.233 230.055 293.233C230.055 293.233 228.807 292.12 229.026 291.581C229.245 291.042 229.115 289.636 228.754 289.169C228.388 288.704 227.56 288.726 227.105 288.363C226.651 288.006 226.56 284.907 226.376 283.761C226.196 282.607 224.917 278.624 224.917 278.624C224.917 278.624 222.242 276.209 220.792 274.789C219.341 273.368 214.944 269.842 213.773 268.587C213.167 267.933 212.36 267.754 211.645 267.754C210.985 267.754 210.406 267.907 210.138 267.976C209.58 268.122 206.174 268.415 206.174 268.415C206.174 268.415 206.153 266.025 206.049 264.253C205.946 262.481 203.896 260.614 203.896 260.614C203.896 260.614 200.357 261.303 197.072 261.564C196.761 261.587 196.475 261.599 196.211 261.599C193.674 261.599 193.161 260.541 192.461 259.531C191.686 258.41 190.031 256.209 189.263 255.087C188.489 253.972 185.723 253.493 185.048 253.196C184.897 253.127 184.704 253.101 184.472 253.101C183.66 253.101 182.375 253.428 180.802 253.465C180.767 253.466 180.732 253.466 180.697 253.466C178.688 253.466 176.134 252.162 175.527 252.088C175.497 252.084 175.463 252.081 175.425 252.081C174.704 252.081 172.834 252.792 172.834 252.792C172.834 252.792 169.391 252.008 168.851 251.79C168.312 251.571 165.348 250.309 165.055 249.186C164.762 248.067 164.87 248.039 165.426 247.413C165.982 246.786 165.213 242.913 165.167 241.363C165.122 239.814 164.421 237.601 163.909 237.016C163.755 236.84 163.547 236.788 163.312 236.788C162.946 236.788 162.516 236.918 162.121 236.918C161.923 236.918 161.734 236.885 161.568 236.788C160.862 236.375 160.537 234.661 160.667 233.785C160.799 232.915 161.829 232.286 162.247 231.573C162.66 230.867 160.287 230.049 160.287 230.049C160.287 230.049 158.483 229.564 157.594 228.472C156.713 227.387 155.233 225.852 154.267 224.911C153.3 223.963 152.643 223.293 152.29 221.946C151.937 220.599 150.445 220.392 149.932 219.807C149.419 219.221 149.301 218.771 148.921 217.315C148.539 215.854 147.808 215.809 146.327 214.274C144.846 212.74 142.263 210.178 142.263 210.178L142.174 207.085L142.748 203.337C142.748 203.337 142.792 203.339 142.861 203.339C143.163 203.339 143.965 203.311 143.988 203.014C144.007 202.649 144.283 201.857 144.283 201.857C144.283 201.857 144.048 200.961 143.839 200.16C143.753 199.828 143.892 199.731 144.083 199.731C144.356 199.731 144.735 199.925 144.735 199.925C144.735 199.925 144.517 197.716 144.429 197.38C144.368 197.143 143.763 197.107 143.413 197.107C143.268 197.107 143.165 197.114 143.165 197.114C143.165 197.114 140.397 196.16 139.636 196C138.875 195.84 137.854 195.624 137.146 194.731C136.43 193.839 135.525 193.594 135.525 193.594L133.495 187.65L133.262 184.472L133.819 183.852C133.819 183.852 132.602 183.329 132.208 183.194C131.811 183.053 131.944 182.184 132.192 181.759C132.441 181.334 133.169 180.899 133.169 180.899L132.778 178.964L132.002 177.368L133.094 176.486C133.094 176.486 134.075 178.862 135.047 180.293C136.016 181.716 137.435 182.546 138.12 183.325C138.298 183.528 138.467 183.604 138.619 183.604C139.05 183.604 139.353 183.003 139.353 183.003L138.414 179.414C138.414 179.414 136.892 176.812 136.302 176.369C135.702 175.922 135.676 176.288 135.338 175.902C134.998 175.509 134.985 174.556 134.838 173.989C134.693 173.43 135.698 172.686 135.833 172.29C135.967 171.895 135.655 171.142 135.655 171.142C135.655 171.142 135.486 171.121 135.263 171.121C134.879 171.121 134.332 171.184 134.194 171.525C133.974 172.057 133.228 173.332 133.375 173.897C133.522 174.456 132.806 175.845 132.496 176.041C132.455 176.069 132.381 176.081 132.282 176.081C131.636 176.081 129.924 175.555 129.506 175.147C129.024 174.676 127.573 173.256 126.444 173.07C125.316 172.882 124.411 172.644 124.263 172.078C124.116 171.52 125.068 171.033 125.257 170.379C125.447 169.732 124.116 166.483 124.116 166.483C124.116 166.483 122.894 162.248 122.489 161.635C122.3 161.344 122.038 161.286 121.745 161.286C121.554 161.286 121.348 161.311 121.144 161.311C120.999 161.311 120.855 161.299 120.715 161.257C120.067 161.067 118.108 159.543 117.304 158.313C116.508 157.083 113.902 153.562 113.362 152.868C112.819 152.168 111.939 151.557 111.793 150.997C111.647 150.438 111.984 150.35 112.419 148.796C112.854 147.244 112.079 146.123 111.904 145.448C111.728 144.774 111.072 144.111 110.847 143.689C110.615 143.268 111.049 138.959 111.595 137.858C112.148 136.75 111.901 134.9 112.089 133.772C112.276 132.644 110.344 131.228 109.773 130.42C109.2 129.606 107.665 128.331 106.401 125.783C105.138 123.235 103.469 122.355 103.469 122.355L102.47 118.537C102.47 118.537 102.18 115.612 102.512 114.568C102.837 113.526 107.842 105.62 107.842 105.62C107.842 105.62 107.314 103.599 106.962 102.252C106.61 100.905 107.058 100.306 107.192 99.9112C107.326 99.5165 108.596 97.0262 108.346 96.7312C108.097 96.4361 107.848 94.8257 107.848 94.8257C107.848 94.8257 108.725 93.395 108.491 92.4994C108.257 91.6037 107.612 89.1318 106.657 88.7843C105.694 88.4315 106.157 86.8723 106.157 86.8723L107.318 82.9671ZM107.318 81C106.448 81 105.681 81.5718 105.432 82.4058L104.271 86.3071C103.725 88.1535 104.313 89.8334 105.706 90.5113C105.856 90.7356 106.147 91.3283 106.558 92.8757C106.518 93.0987 106.322 93.5498 106.172 93.7937C105.928 94.191 105.833 94.6618 105.904 95.1221C106.037 95.9811 106.18 96.5725 106.316 96.9895C106.141 97.4472 105.827 98.137 105.686 98.4425C105.484 98.8844 105.393 99.089 105.328 99.2765L105.3 99.3408C105.07 99.868 104.593 100.966 105.058 102.746L105.723 105.288C103.477 108.852 100.945 112.983 100.634 113.98C100.227 115.259 100.413 117.726 100.513 118.727C100.524 118.829 100.542 118.931 100.567 119.031L101.566 122.85C101.705 123.383 102.063 123.835 102.551 124.092C102.567 124.102 103.708 124.776 104.639 126.654C105.665 128.725 106.843 130.043 107.622 130.915C107.851 131.172 108.068 131.414 108.164 131.549C108.426 131.92 108.771 132.271 109.137 132.643C109.42 132.93 109.916 133.435 110.107 133.734C110.053 134.189 110.041 134.669 110.031 135.135C110.017 135.74 109.994 136.657 109.834 136.98C109.264 138.126 108.36 143.253 109.124 144.637C109.256 144.885 109.434 145.127 109.609 145.362C109.74 145.54 109.96 145.839 110.007 145.965C110.074 146.222 110.178 146.478 110.278 146.724C110.527 147.339 110.672 147.742 110.527 148.263C110.372 148.815 110.238 149.126 110.132 149.375C109.923 149.86 109.639 150.523 109.892 151.493C110.118 152.357 110.727 152.96 111.264 153.492C111.468 153.694 111.679 153.903 111.809 154.071C112.349 154.763 114.909 158.228 115.654 159.379C116.614 160.848 118.927 162.778 120.16 163.14C120.439 163.223 120.732 163.266 121.052 163.273C121.365 164.156 121.848 165.705 122.228 167.024C122.248 167.093 122.271 167.159 122.298 167.225C122.692 168.19 123.07 169.272 123.231 169.881C122.813 170.345 122.02 171.268 122.36 172.573C122.855 174.465 124.981 174.818 126.121 175.007C126.208 175.028 126.752 175.207 128.124 176.545C128.562 176.971 129.295 177.325 130.045 177.582C130.069 177.803 130.13 178.023 130.233 178.231L130.9 179.602L131.004 180.113C130.814 180.309 130.635 180.528 130.495 180.766C130.069 181.493 129.799 182.665 130.155 183.643C130.368 184.228 130.787 184.695 131.325 184.955L131.533 187.795C131.545 187.963 131.579 188.128 131.633 188.287L133.663 194.231C133.887 194.888 134.328 195.351 135.007 195.494C135.011 195.498 135.344 195.631 135.612 195.964C136.754 197.406 138.366 197.746 139.231 197.928C139.589 198.004 140.949 198.441 142.15 198.849C141.93 199.226 141.723 199.839 141.938 200.662L142.152 201.481C141.464 201.711 140.92 202.301 140.806 203.044L140.232 206.792C140.213 206.908 140.207 207.028 140.209 207.146L140.299 210.238C140.313 210.743 140.522 211.223 140.88 211.578C140.906 211.603 143.466 214.143 144.913 215.643C145.477 216.228 145.957 216.632 146.307 216.928C146.922 217.448 146.926 217.461 147.019 217.818C147.43 219.386 147.636 220.173 148.454 221.108C148.863 221.575 149.351 221.838 149.782 222.07C149.986 222.179 150.325 222.363 150.395 222.459C150.888 224.356 151.907 225.355 152.892 226.321C153.865 227.27 155.272 228.736 156.069 229.718C157.091 230.971 158.692 231.609 159.438 231.853C159.112 232.295 158.826 232.831 158.725 233.495C158.556 234.627 158.789 237.445 160.576 238.491C161.029 238.756 161.549 238.891 162.124 238.891C162.313 238.891 162.491 238.877 162.654 238.857C162.903 239.539 163.179 240.607 163.204 241.427C163.221 242.016 163.317 242.803 163.418 243.637C163.514 244.425 163.68 245.809 163.665 246.451C162.874 247.423 162.765 248.201 163.154 249.69C163.527 251.113 165.196 252.436 168.114 253.621C168.682 253.851 170.758 254.344 172.4 254.718C172.544 254.751 172.689 254.767 172.836 254.767C173.074 254.767 173.311 254.723 173.534 254.638C174.177 254.394 174.955 254.153 175.329 254.077C175.483 254.131 175.703 254.213 175.89 254.284C177.111 254.744 178.955 255.438 180.699 255.438L180.85 255.437C181.845 255.413 182.717 255.291 183.418 255.193C183.826 255.135 184.211 255.081 184.438 255.075C184.704 255.176 185.01 255.262 185.377 255.367C185.909 255.518 187.309 255.917 187.673 256.249C188.091 256.857 188.733 257.734 189.352 258.583C189.921 259.362 190.482 260.13 190.847 260.656L190.991 260.867C191.918 262.236 193.086 263.573 196.215 263.573C196.526 263.573 196.863 263.559 197.228 263.531C199.508 263.348 201.871 262.976 203.2 262.745C203.671 263.322 204.065 263.979 204.089 264.372C204.188 266.073 204.209 268.414 204.209 268.438C204.215 268.986 204.448 269.506 204.853 269.875C205.217 270.205 205.689 270.386 206.177 270.386C206.233 270.386 206.289 270.384 206.346 270.38C207.976 270.24 210.042 270.039 210.639 269.884C210.85 269.829 211.242 269.727 211.649 269.727C212.147 269.727 212.288 269.879 212.333 269.929C213.051 270.698 214.614 272.03 216.269 273.439C217.516 274.5 218.804 275.599 219.42 276.201C220.561 277.318 222.402 278.999 223.207 279.733C223.706 281.314 224.339 283.449 224.436 284.071C224.483 284.364 224.53 284.897 224.576 285.412C224.802 287.932 224.951 289.176 225.892 289.915C226.32 290.259 226.785 290.424 227.152 290.541C227.169 290.693 227.175 290.853 227.165 290.957C226.648 292.423 227.733 293.801 228.749 294.707C229.017 294.946 229.346 295.107 229.699 295.173C229.754 295.184 229.936 295.23 230.117 295.304C230.918 296.147 232.038 296.147 233.656 296.147L234.28 296.143C237.875 296.106 239.241 295.748 240.689 295.371L248.228 293.4L259.99 291.509L274.415 289.538C274.606 289.511 274.794 289.456 274.97 289.376L278.933 287.556C279.401 287.341 279.765 286.952 279.949 286.47C279.972 286.407 280.54 284.912 280.81 283.634C281.285 281.382 279.144 279.554 277.166 278.673C276.83 278.523 276.555 278.353 276.369 278.217C276.483 277.056 275.994 275.65 275.242 273.684L275.057 273.198C275.118 273.131 275.213 273.05 275.291 273.004C275.578 272.849 275.789 272.645 275.968 272.372C276.023 272.288 277.339 270.283 277.97 268.94C278.513 267.783 278.704 265.81 278.853 262.792C278.866 262.51 278.877 262.274 278.889 262.106C279.039 261.241 280.789 257.379 281.433 256.515C281.505 256.464 281.584 256.41 281.668 256.352C282.684 255.649 284.385 254.474 284.882 252.63C285.62 249.891 282.684 248.692 281.58 248.243C281.453 248.19 281.339 248.147 281.247 248.105C280.846 247.743 279.984 246.512 279.839 246.08C279.651 245.359 279.106 244.471 277.906 242.623C277.469 241.951 277.018 241.256 276.788 240.836C276.63 240.542 276.147 239.088 275.44 235.651C275.354 235.231 275.132 234.85 274.81 234.568L178.238 149.969L177.501 82.9985C177.496 82.4766 177.282 81.9783 176.908 81.6124C176.541 81.2531 176.047 81.0525 175.534 81.0525C175.525 81.0525 175.517 81.0525 175.509 81.0525C163.342 81.2085 155.233 81.2898 151.405 81.2951H150.432C136.976 81.2951 107.634 81.0118 107.34 81.0092C107.33 81 107.324 81 107.318 81Z" fill="#2C282E"/>
<path d="M282.986 252.105C282.619 253.468 280.901 254.452 280.141 255.016C279.393 255.567 276.993 260.865 276.928 261.966C276.849 263.068 276.771 266.871 276.194 268.103C275.617 269.323 274.318 271.277 274.318 271.277C274.318 271.277 272.587 272.221 273.177 273.795C273.781 275.381 274.659 277.493 274.344 278.293C274.03 279.093 275.341 280.011 276.364 280.47C277.387 280.915 279.131 282.082 278.882 283.223C278.764 283.787 278.567 284.43 278.41 284.928L276.548 285.781L262.083 287.761L250.228 289.662C250.228 289.662 243.947 291.301 242.596 291.655C241.246 292.01 240.013 292.337 236.669 292.364C233.312 292.403 234.217 292.167 233.653 291.865C233.089 291.551 232.459 291.433 232.459 291.433C232.459 291.433 231.214 290.318 231.437 289.78C231.646 289.243 231.515 287.839 231.161 287.367C230.794 286.908 229.968 286.921 229.509 286.567C229.063 286.2 228.971 283.105 228.788 281.964C228.604 280.81 227.319 276.824 227.319 276.824C227.319 276.824 224.644 274.411 223.201 272.982C221.746 271.565 217.352 268.038 216.185 266.779C215.018 265.533 213.104 266.031 212.54 266.176C211.989 266.32 208.579 266.608 208.579 266.608C208.579 266.608 208.566 264.222 208.461 262.451C208.356 260.681 206.298 258.819 206.298 258.819C206.298 258.819 202.77 259.501 199.478 259.763C196.187 260.025 195.636 258.845 194.862 257.73C194.089 256.616 192.436 254.413 191.676 253.285C190.902 252.17 188.135 251.698 187.453 251.396C186.784 251.095 185.237 251.619 183.204 251.659C181.185 251.711 178.549 250.361 177.933 250.282C177.303 250.203 175.244 250.99 175.244 250.99C175.244 250.99 171.796 250.203 171.258 249.993C170.72 249.77 167.757 248.511 167.468 247.384C167.166 246.269 167.271 246.243 167.835 245.613C168.386 244.984 167.625 241.115 167.573 239.568C167.534 238.007 166.825 235.804 166.314 235.214C165.803 234.624 164.688 235.398 163.98 234.978C163.272 234.572 162.944 232.854 163.075 231.988C163.206 231.11 164.242 230.48 164.649 229.772C165.068 229.064 162.695 228.251 162.695 228.251C162.695 228.251 160.898 227.766 160.006 226.664C159.115 225.589 157.646 224.054 156.675 223.11C155.705 222.153 155.049 221.484 154.695 220.147C154.341 218.796 152.846 218.586 152.335 218.009C151.823 217.419 151.705 216.96 151.325 215.517C150.945 214.049 150.21 214.009 148.729 212.475C147.26 210.941 144.663 208.371 144.663 208.371L144.585 205.276L145.149 201.538C145.149 201.538 146.368 201.578 146.394 201.21C146.407 200.843 146.683 200.056 146.683 200.056C146.683 200.056 146.46 199.152 146.25 198.352C146.04 197.552 147.142 198.116 147.142 198.116C147.142 198.116 146.919 195.913 146.84 195.572C146.748 195.244 145.568 195.309 145.568 195.309C145.568 195.309 142.801 194.352 142.041 194.195C141.28 194.037 140.257 193.814 139.549 192.923C138.841 192.031 137.936 191.795 137.936 191.795L135.903 185.841C135.86 185.26 135.827 184.678 135.774 184.098C135.698 183.272 135.644 182.905 136.271 182.243C136.576 181.919 136.976 181.663 137.419 181.615C138.097 181.54 138.719 181.946 139.337 182.234C139.869 182.481 140.439 182.649 141.022 182.729C141.155 182.748 141.302 182.758 141.411 182.678C141.496 182.615 141.538 182.509 141.569 182.407C142.021 180.908 141.197 179.061 140.821 177.605C140.821 177.605 139.3 175.008 138.71 174.562C138.106 174.116 138.08 174.483 137.739 174.09C137.398 173.697 137.385 172.752 137.241 172.175C137.097 171.625 138.106 170.877 138.238 170.484C138.31 170.269 138.28 169.618 138.096 169.453C137.91 169.285 137.419 169.339 137.158 169.31C136.322 169.218 135.42 169.268 134.706 169.763C134.305 170.041 134.002 170.434 133.704 170.822C133.338 171.299 132.958 171.814 132.915 172.413C132.875 172.953 132.798 173.399 132.184 173.525C131.757 173.613 131.514 173.454 131.283 173.122C130.68 172.253 129.983 171.444 128.847 171.259C127.719 171.075 126.814 170.839 126.67 170.275C126.526 169.711 127.47 169.226 127.667 168.571C127.85 167.928 126.526 164.676 126.526 164.676C126.526 164.676 125.293 160.44 124.9 159.824C124.493 159.207 123.772 159.64 123.116 159.443C122.474 159.26 120.507 157.739 119.707 156.506C118.907 155.273 116.31 151.759 115.773 151.064C115.222 150.356 114.343 149.752 114.199 149.188C114.055 148.625 114.383 148.546 114.828 146.985C115.261 145.438 114.487 144.31 114.304 143.641C114.133 142.973 113.478 142.304 113.255 141.884C113.019 141.465 113.451 137.15 114.002 136.049C114.553 134.947 114.304 133.098 114.487 131.97C114.684 130.842 112.743 129.426 112.179 128.613C111.602 127.8 110.068 126.528 108.809 123.971C107.537 121.427 105.872 120.548 105.872 120.548L104.875 116.732C104.875 116.732 104.587 113.808 104.914 112.759C105.242 111.723 110.252 103.815 110.252 103.815C110.252 103.815 109.714 101.796 109.373 100.445C109.019 99.0942 109.465 98.5041 109.596 98.1107C109.727 97.7042 110.999 95.2257 110.75 94.9241C110.501 94.6356 110.252 93.0226 110.252 93.0226C110.252 93.0226 111.13 91.5932 110.894 90.6884C110.658 89.7967 110.016 87.3313 109.058 86.9772C108.101 86.6231 108.56 85.0626 108.56 85.0626L109.19 82.9775C116.087 83.0431 140.216 83.266 151.402 83.2529C155.691 83.2529 164.962 83.148 175.532 83.0038L176.279 150.854L273.504 236.04C273.832 237.588 274.54 240.827 275.064 241.771C275.746 243.03 277.713 245.758 277.936 246.597C278.159 247.436 279.576 249.403 280.205 249.783C280.849 250.151 283.34 250.754 282.986 252.105Z" fill="#F77B90"/>
<g opacity="0.7">
<path d="M269.936 239.455C269.629 239.455 269.321 239.348 269.072 239.13L171.502 153.641C171.221 153.395 171.059 153.043 171.055 152.669L170.336 87.4586C170.328 86.7347 170.909 86.1407 171.633 86.1328C172.315 86.1433 172.951 86.7059 172.959 87.4298L173.671 152.054L270.8 237.156C271.344 237.634 271.399 238.463 270.922 239.007C270.664 239.304 270.299 239.455 269.936 239.455Z" fill="white"/>
</g>
<path d="M262.338 196.693L275.875 189.325C306.281 172.775 325.242 140.686 325.242 105.778V70.5355C325.242 67.7919 323.091 65.5147 320.378 65.4403C288.387 64.564 268.541 55.2292 262.008 51.616C260.523 50.7947 258.719 50.7947 257.234 51.616C250.701 55.2292 230.855 64.5636 198.864 65.4403C196.151 65.5147 194 67.7919 194 70.5355V105.778C194 140.686 212.961 172.775 243.367 189.325L256.904 196.693C258.6 197.616 260.642 197.616 262.338 196.693Z" fill="white"/>
<path d="M318.753 74.6844V104.591C318.753 137.883 300.758 168.354 271.793 184.123L262.19 189.348C261.391 189.782 260.506 190.003 259.621 190.003C258.736 190.003 257.851 189.782 257.052 189.348L247.449 184.123C218.484 168.354 200.488 137.883 200.488 104.591V74.6844C200.488 73.2699 201.608 72.1112 203.018 72.0113C230.269 70.1584 248.98 62.9376 258.449 58.312C258.826 58.1255 259.221 58.0344 259.62 58.0344C260.02 58.0344 260.415 58.1255 260.792 58.312C270.261 62.9379 288.976 70.1584 316.223 72.0113C317.634 72.1112 318.753 73.2699 318.753 74.6844Z" fill="#E01236"/>
<path d="M318.754 74.6844V104.591C318.754 137.883 300.758 168.354 271.793 184.123L262.19 189.348C261.391 189.782 260.506 190.003 259.621 190.003V58.0344C260.02 58.0344 260.415 58.1255 260.793 58.312C270.261 62.9379 288.977 70.1584 316.224 72.0113C317.634 72.1112 318.754 73.2699 318.754 74.6844Z" fill="#B90827"/>
<path d="M251.167 91C252.249 91 253.1 91 254.492 90.3847C259.286 87.8849 275.486 48.5416 292.575 36.4272C292.691 36.3502 292.807 36.2349 292.884 36.1195C293 35.9657 293 35.8118 293 35.8118C293 35.8118 293 35.0042 290.487 35.0042C275.292 34.5811 259.479 66.3095 251.167 78.8471C251.051 79.0009 250.509 78.8471 250.509 78.8471C250.509 78.8471 244.942 72.3091 240.109 69.8093C239.993 69.7708 239.452 69.5785 238.872 69.617C238.485 69.617 236.243 70.0785 235.199 71.1553C233.961 72.4629 234 73.1936 234 74.7704C234 74.8858 234.077 75.4242 234.232 75.6935C235.431 77.7702 240.805 85.1543 245.251 89.2309C245.908 89.7309 246.952 91 251.167 91Z" fill="white"/>
<path d="M219.884 128.456C217.832 128.456 215.919 128.127 214.146 127.468C212.398 126.784 210.878 125.821 209.586 124.58C208.294 123.339 207.281 121.882 206.546 120.21C205.837 118.538 205.482 116.701 205.482 114.7C205.482 112.699 205.837 110.862 206.546 109.19C207.281 107.518 208.294 106.061 209.586 104.82C210.903 103.579 212.436 102.629 214.184 101.97C215.932 101.286 217.845 100.944 219.922 100.944C222.227 100.944 224.305 101.349 226.154 102.16C228.029 102.945 229.599 104.111 230.866 105.656L226.914 109.304C226.002 108.265 224.989 107.493 223.874 106.986C222.759 106.454 221.543 106.188 220.226 106.188C218.985 106.188 217.845 106.391 216.806 106.796C215.767 107.201 214.868 107.784 214.108 108.544C213.348 109.304 212.753 110.203 212.322 111.242C211.917 112.281 211.714 113.433 211.714 114.7C211.714 115.967 211.917 117.119 212.322 118.158C212.753 119.197 213.348 120.096 214.108 120.856C214.868 121.616 215.767 122.199 216.806 122.604C217.845 123.009 218.985 123.212 220.226 123.212C221.543 123.212 222.759 122.959 223.874 122.452C224.989 121.92 226.002 121.122 226.914 120.058L230.866 123.706C229.599 125.251 228.029 126.429 226.154 127.24C224.305 128.051 222.215 128.456 219.884 128.456ZM247.197 128.456C245.145 128.456 243.232 128.127 241.459 127.468C239.711 126.784 238.191 125.821 236.898 124.58C235.607 123.339 234.593 121.882 233.859 120.21C233.149 118.538 232.795 116.701 232.795 114.7C232.795 112.699 233.149 110.862 233.859 109.19C234.593 107.518 235.607 106.061 236.898 104.82C238.216 103.579 239.749 102.629 241.497 101.97C243.245 101.286 245.157 100.944 247.235 100.944C249.54 100.944 251.617 101.349 253.467 102.16C255.341 102.945 256.912 104.111 258.179 105.656L254.227 109.304C253.315 108.265 252.301 107.493 251.187 106.986C250.072 106.454 248.856 106.188 247.539 106.188C246.297 106.188 245.157 106.391 244.119 106.796C243.08 107.201 242.181 107.784 241.421 108.544C240.661 109.304 240.065 110.203 239.635 111.242C239.229 112.281 239.027 113.433 239.027 114.7C239.027 115.967 239.229 117.119 239.635 118.158C240.065 119.197 240.661 120.096 241.421 120.856C242.181 121.616 243.08 122.199 244.119 122.604C245.157 123.009 246.297 123.212 247.539 123.212C248.856 123.212 250.072 122.959 251.187 122.452C252.301 121.92 253.315 121.122 254.227 120.058L258.179 123.706C256.912 125.251 255.341 126.429 253.467 127.24C251.617 128.051 249.527 128.456 247.197 128.456ZM262.336 128V101.4H273.85C276.231 101.4 278.283 101.793 280.006 102.578C281.728 103.338 283.058 104.44 283.996 105.884C284.933 107.328 285.402 109.051 285.402 111.052C285.402 113.028 284.933 114.738 283.996 116.182C283.058 117.626 281.728 118.741 280.006 119.526C278.283 120.286 276.231 120.666 273.85 120.666H265.756L268.492 117.892V128H262.336ZM268.492 118.576L265.756 115.65H273.508C275.408 115.65 276.826 115.245 277.764 114.434C278.701 113.623 279.17 112.496 279.17 111.052C279.17 109.583 278.701 108.443 277.764 107.632C276.826 106.821 275.408 106.416 273.508 106.416H265.756L268.492 103.49V118.576ZM284.965 128L296.821 101.4H302.901L314.795 128H308.335L298.607 104.516H301.039L291.273 128H284.965ZM290.893 122.3L292.527 117.626H306.207L307.879 122.3H290.893Z" fill="white"/>
<path d="M219.312 143.321L222.142 144.17C221.953 144.972 221.67 145.633 221.246 146.151C220.821 146.67 220.349 147.095 219.736 147.331C219.123 147.614 218.368 147.755 217.425 147.755C216.293 147.755 215.396 147.614 214.642 147.284C213.934 146.953 213.321 146.387 212.802 145.538C212.283 144.736 212 143.651 212 142.378C212 140.68 212.472 139.359 213.368 138.415C214.264 137.472 215.585 137.047 217.236 137.047C218.557 137.047 219.547 137.33 220.302 137.849C221.057 138.368 221.623 139.17 221.953 140.302L219.123 140.915C219.029 140.585 218.934 140.349 218.793 140.208C218.604 139.972 218.415 139.783 218.132 139.642C217.849 139.5 217.566 139.453 217.283 139.453C216.576 139.453 216.01 139.736 215.632 140.349C215.349 140.774 215.208 141.482 215.208 142.378C215.208 143.51 215.396 144.312 215.727 144.736C216.057 145.161 216.576 145.397 217.189 145.397C217.802 145.397 218.274 145.208 218.557 144.878C218.934 144.453 219.17 143.982 219.312 143.321Z" fill="white"/>
<path d="M223.273 142.378C223.273 140.679 223.745 139.359 224.689 138.415C225.632 137.472 226.953 137 228.651 137C230.396 137 231.717 137.472 232.661 138.368C233.604 139.311 234.076 140.585 234.076 142.283C234.076 143.51 233.887 144.5 233.463 145.255C233.038 146.01 232.472 146.623 231.67 147.048C230.915 147.472 229.925 147.708 228.793 147.708C227.613 147.708 226.67 147.519 225.868 147.142C225.113 146.765 224.5 146.198 223.981 145.349C223.462 144.5 223.273 143.604 223.273 142.378ZM226.481 142.378C226.481 143.415 226.67 144.17 227.047 144.642C227.425 145.114 227.943 145.349 228.651 145.349C229.359 145.349 229.877 145.114 230.255 144.689C230.632 144.217 230.821 143.415 230.821 142.283C230.821 141.293 230.632 140.585 230.208 140.161C229.83 139.689 229.264 139.5 228.604 139.5C227.943 139.5 227.425 139.736 227.047 140.208C226.67 140.585 226.481 141.34 226.481 142.378Z" fill="white"/>
<path d="M235.728 137.189H239.926L241.53 143.51L243.134 137.189H247.332V147.566H244.691V139.642L242.662 147.566H240.304L238.275 139.642V147.566H235.634V137.189H235.728Z" fill="white"/>
<path d="M249.407 137.189H254.738C255.917 137.189 256.766 137.472 257.332 138.038C257.898 138.604 258.181 139.359 258.181 140.396C258.181 141.434 257.851 142.283 257.238 142.849C256.624 143.463 255.634 143.746 254.36 143.746H252.615V147.614H249.407V137.189ZM252.615 141.623H253.417C254.03 141.623 254.455 141.528 254.738 141.293C254.973 141.057 255.115 140.821 255.115 140.491C255.115 140.161 255.021 139.877 254.785 139.642C254.549 139.406 254.172 139.311 253.558 139.311H252.662V141.623H252.615Z" fill="white"/>
<path d="M259.879 137.189H263.087V145.019H268.087V147.566H259.879V137.189Z" fill="white"/>
<path d="M269.69 137.189H272.898V147.566H269.69V137.189Z" fill="white"/>
<path d="M281.578 145.821H277.946L277.427 147.519H274.172L278.087 137.142H281.578L285.493 147.519H282.144L281.578 145.821ZM280.917 143.604L279.785 139.878L278.653 143.604H280.917Z" fill="white"/>
<path d="M286.483 137.189H289.455L293.37 142.944V137.189H296.389V147.566H293.37L289.502 141.859V147.566H286.483V137.189Z" fill="white"/>
<path d="M297.805 137.189H307.569V139.736H304.314V147.566H301.107V139.736H297.852V137.189H297.805Z" fill="white"/>
</svg>
