<svg width="456" height="320" viewBox="0 0 456 320" fill="none" xmlns="http://www.w3.org/2000/svg">
<path d="M228.309 310C311.152 310 378.309 242.843 378.309 160C378.309 77.1573 311.152 10 228.309 10C145.466 10 78.3091 77.1573 78.3091 160C78.3091 242.843 145.466 310 228.309 310Z" fill="#F8E3E6"/>
<path d="M346.709 196.645C353.533 190.679 356.105 180.746 356.154 171.527C356.175 167.37 355.727 163.167 354.484 159.187C353.322 155.461 352.256 153.455 348.72 151.365C350.283 146.666 351.01 142.242 348.917 137.602C347.145 133.68 343.74 130.414 339.586 129.286L339.601 129.479C339.448 129.38 339.294 129.284 339.137 129.198C339.078 127.452 338.685 125.715 337.93 124.151C336.953 122.133 335.485 120.391 333.743 118.99C331.682 117.331 329.231 116.859 326.729 116.096C326.339 115.977 325.941 115.855 325.602 115.626C325.107 115.292 324.783 114.765 324.446 114.273C322.273 111.104 318.873 108.801 315.124 107.96C314.732 107.871 314.313 107.788 314.015 107.516C313.735 107.261 313.61 106.883 313.477 106.529C312.053 102.734 308.365 99.8899 304.332 99.4777C304.019 99.4462 303.686 99.4195 303.435 99.2304C303.235 99.0789 303.12 98.8449 303.006 98.6219C301.039 94.75 297.723 91.5825 293.765 89.7956C289.807 88.01 285.237 87.6184 281.033 88.707C280.313 84.7988 277.636 81.4337 274.27 79.322C270.889 77.2005 267.104 75.5083 263.081 75.4877C258.769 75.4658 255.59 77.8054 252.448 80.5427C252.563 79.128 251.819 77.7776 250.906 76.6902C248.861 74.2536 245.826 72.6753 242.657 72.4001C239.488 72.1249 236.226 73.1565 233.792 75.204L233.822 75.2222C233.786 75.2307 233.75 75.2367 233.713 75.244C233.633 75.0755 233.557 74.9046 233.441 74.7543C232.974 74.1542 232.263 73.8015 231.568 73.496C219.762 68.3258 204.708 72.0001 196.612 82.0276C192.1 79.4286 186.475 78.8419 181.524 80.4542C176.574 82.0664 172.372 85.851 170.254 90.609C169.578 89.461 168.151 89.0186 166.837 88.7919C160.742 87.7385 154.23 89.3798 149.363 93.1984C144.496 97.0169 141.351 102.951 140.924 109.122C133.73 109.185 126.661 112.903 122.532 118.796C120.773 121.306 119.547 124.418 119.879 127.4C118.48 128.529 117.283 129.808 116.437 131.091C114.517 134.003 113.685 137.72 114.614 141.125C115.027 142.642 115.853 143.965 116.689 145.273C109.783 146.859 104.986 153.927 104.657 161.015C104.423 166.056 106.098 170.974 108.811 175.275L108.681 175.199C106.389 179.773 106.377 185.422 108.65 190.007C110.922 194.592 115.426 198.003 120.453 198.949C123.44 199.511 126.634 199.209 129.326 197.799C129.363 197.807 129.401 197.808 129.44 197.814C130.511 202.677 134.279 206.521 139.11 207.746C142.063 208.495 145.174 208.226 148.189 207.793C152.394 207.189 156.675 206.226 160.182 203.827C160.45 203.644 160.71 203.45 160.965 203.246C161.183 203.41 161.401 203.577 161.619 203.742C161.24 209.112 163.667 214.609 167.844 218.036C172.521 221.876 177.22 223.327 183.061 221.803C184.346 226.437 188 230.224 192.377 232.215C196.755 234.205 201.778 234.509 206.511 233.656C210.356 232.963 214.475 231.133 215.839 227.471C218.703 229.574 223.109 230.541 226.566 229.806C229.309 229.223 231.936 226.724 234.626 226.402C235.701 226.272 236.78 226.16 237.858 226.037C242.458 239.253 257.394 245.533 270.697 240.834C277.214 249.614 287.785 255.081 298.682 256.001C309.577 256.921 320.667 253.457 329.527 247.049C337.949 240.957 344.788 230.462 341.696 220.537C351.148 216.868 354.958 203.71 348.044 196.295L346.709 196.645Z" fill="#FECAD2"/>
<path d="M342.229 189.48C349.053 183.513 351.625 173.58 351.674 164.361C351.696 160.205 351.247 156.002 350.005 152.022C348.841 148.296 347.777 146.289 344.241 144.2C345.803 139.501 346.53 135.076 344.437 130.437C342.666 126.514 339.261 123.249 335.106 122.121L335.121 122.314C334.968 122.215 334.814 122.119 334.658 122.033C334.6 120.287 334.206 118.55 333.45 116.987C332.473 114.969 331.005 113.227 329.263 111.826C327.203 110.167 324.752 109.695 322.249 108.932C321.859 108.813 321.462 108.691 321.122 108.462C320.628 108.128 320.304 107.601 319.967 107.109C317.795 103.94 314.393 101.637 310.645 100.796C310.252 100.707 309.834 100.624 309.536 100.352C309.256 100.097 309.131 99.7192 308.997 99.3652C307.573 95.5697 303.885 92.7258 299.852 92.3137C299.54 92.2821 299.206 92.2555 298.955 92.0664C298.755 91.9148 298.64 91.6809 298.526 91.4578C296.56 87.586 293.243 84.4184 289.285 82.6316C285.327 80.846 280.757 80.4544 276.553 81.543C275.833 77.6348 273.157 74.2696 269.79 72.1579C266.409 70.0377 262.625 68.343 258.601 68.3236C254.289 68.3018 251.111 70.6414 247.969 73.3786C248.084 71.9639 247.34 70.6135 246.427 69.5261C244.382 67.0896 241.346 65.5112 238.178 65.2361C235.009 64.9609 231.747 65.9925 229.313 68.0399L229.343 68.0593C229.307 68.0678 229.27 68.0739 229.234 68.0812C229.154 67.9127 229.077 67.7417 228.96 67.5914C228.494 66.9902 227.783 66.6386 227.087 66.3331C215.281 61.163 200.228 64.8372 192.131 74.8648C187.618 72.2658 181.994 71.6791 177.042 73.2913C172.09 74.9036 167.89 78.6882 165.772 83.4462C165.096 82.297 163.669 81.8557 162.355 81.6291C156.26 80.5744 149.748 82.217 144.881 86.0355C140.014 89.854 136.869 95.7879 136.442 101.959C129.248 102.022 122.179 105.74 118.05 111.633C116.291 114.144 115.065 117.255 115.397 120.237C113.998 121.366 112.801 122.645 111.955 123.929C110.035 126.842 109.203 130.557 110.133 133.962C110.547 135.479 111.372 136.803 112.209 138.111C105.303 139.696 100.506 146.765 100.176 153.853C99.942 158.893 101.617 163.811 104.33 168.112L104.201 168.036C101.908 172.611 101.896 178.26 104.169 182.844C106.441 187.429 110.945 190.84 115.973 191.786C118.96 192.348 122.154 192.045 124.845 190.637C124.882 190.643 124.92 190.645 124.959 190.651C126.03 195.515 129.798 199.359 134.629 200.583C137.582 201.332 140.694 201.063 143.708 200.63C147.914 200.026 152.194 199.063 155.7 196.664C155.968 196.481 156.228 196.287 156.483 196.083C156.701 196.247 156.919 196.414 157.138 196.579C156.758 201.949 159.185 207.447 163.362 210.873C168.039 214.713 172.738 216.164 178.579 214.64C179.864 219.273 183.518 223.061 187.895 225.052C192.273 227.042 197.296 227.347 202.029 226.493C205.874 225.8 209.993 223.97 211.357 220.308C214.221 222.413 218.627 223.378 222.084 222.643C224.829 222.06 227.454 219.562 230.145 219.239C231.221 219.109 232.3 218.995 233.377 218.874C237.978 232.09 252.914 238.371 266.217 233.67C272.733 242.45 283.304 247.917 294.201 248.837C305.096 249.757 316.186 246.292 325.046 239.883C333.469 233.792 340.307 223.296 337.216 213.373C346.667 209.704 350.477 196.546 343.563 189.131L342.229 189.48Z" stroke="#7D7D7D" stroke-width="2" stroke-miterlimit="10" stroke-linecap="round" stroke-linejoin="round"/>
<path d="M175.912 174.271L173.888 200.653" stroke="#EA0029" stroke-miterlimit="10"/>
<path d="M210.959 159.15L208.081 180.927L212.57 204.279L191.643 195.146L173.888 200.653L148.1 181.715" stroke="#EA0029" stroke-miterlimit="10"/>
<path d="M231.427 189.549L265.009 201.046" stroke="#EA0029" stroke-miterlimit="10"/>
<path d="M287.92 147.465L283.161 182.893" stroke="#EA0029" stroke-miterlimit="10"/>
<path d="M163.412 156.33L175.911 174.271L200.482 136.183" stroke="#EA0029" stroke-miterlimit="10"/>
<path d="M185.977 106.366L198.467 122.484L238.762 115.23L269.385 112.41" stroke="#EA0029" stroke-miterlimit="10"/>
<path d="M285.43 229.333L220.585 209.567" stroke="#EA0029" stroke-miterlimit="10"/>
<path d="M318.86 213.148L292.994 204.827L264.151 202.709" stroke="#EA0029" stroke-miterlimit="10"/>
<path d="M259.714 164.792L283.161 182.893L309.331 182.742" stroke="#EA0029" stroke-miterlimit="10"/>
<path d="M304.893 113.158L292.792 145.832" stroke="#EA0029" stroke-miterlimit="10"/>
<path d="M184.835 102.419L238.737 111.948L218.719 84.8718" stroke="#EA0029" stroke-miterlimit="10"/>
<path d="M161.39 153.094L146.716 181.078L175.004 174.573" stroke="#EA0029" stroke-miterlimit="10"/>
<path d="M320.827 212.996L311.448 182.137" stroke="#EA0029" stroke-miterlimit="10"/>
<path d="M172.679 127.318L163.81 150.371" stroke="#EA0029" stroke-miterlimit="10"/>
<path d="M161.087 155.816L201.626 130.403" stroke="#EA0029" stroke-miterlimit="10"/>
<path d="M317.198 212.391L285.431 229.333L266.673 200.894L213.427 210.575L231.427 189.549" stroke="#EA0029" stroke-miterlimit="10"/>
<path d="M242.471 112.553L211.157 157.178L251.244 158.539L242.471 112.553Z" stroke="#EA0029" stroke-miterlimit="10"/>
<path d="M289.666 141.597C289.666 140.689 272.421 111.343 272.421 111.343L253.966 163.379L289.666 141.597Z" stroke="#EA0029" stroke-miterlimit="10"/>
<path d="M142.028 118.906L121.909 159.296" stroke="#EA0029" stroke-miterlimit="10"/>
<path d="M142.027 118.906L164.113 158.539L120.245 160.052" stroke="#EA0029" stroke-miterlimit="10"/>
<path d="M218.721 84.8718L186.803 101.965L153.523 95.9152L171.47 126.514L203.139 126.775L211.156 157.18C211.156 157.18 175.003 174.274 175.911 174.274C176.819 174.274 191.643 195.148 191.643 195.148L208.081 180.929L231.881 191.215L251.242 158.54L265.008 201.047L281.194 183.046L292.993 204.828L309.33 182.743L287.547 145.228L320.827 159.749L304.893 113.158L270.908 112.553L271.362 88.5012L218.721 84.8718Z" stroke="#EA0029" stroke-miterlimit="10"/>
<path d="M343.184 143.976C342.583 143.298 341.87 142.717 341.086 142.264C340.075 141.679 338.921 141.305 337.754 141.333C335.277 141.391 333.011 143.484 332.757 145.949C332.579 147.675 333.278 149.372 334.13 150.884C334.982 152.395 336.008 153.828 336.585 155.465C337.327 157.57 337.26 159.951 336.401 162.012" stroke="#7D7D7D" stroke-width="2" stroke-miterlimit="10" stroke-linecap="round"/>
<path d="M341.097 173.666L322.944 159.144L311.448 182.137L341.097 173.666Z" stroke="#EA0029" stroke-miterlimit="10"/>
<path d="M337.764 212.076C335.799 212.762 333.772 213.27 331.717 213.59" stroke="#7D7D7D" stroke-width="2" stroke-miterlimit="10" stroke-linecap="round"/>
<path d="M119.175 141.175C115.614 141.478 112.176 143.062 109.631 145.573C107.087 148.083 105.458 151.501 105.107 155.057" stroke="#7D7D7D" stroke-width="2" stroke-miterlimit="10" stroke-linecap="round"/>
<path d="M123.113 127.376C124.458 127.868 125.975 127.676 127.305 127.147C128.635 126.619 129.813 125.776 130.977 124.943" stroke="#7D7D7D" stroke-width="2" stroke-miterlimit="10" stroke-linecap="round"/>
<path d="M192.784 72.8572C189.71 76.1666 187.355 80.1415 185.929 84.4291" stroke="#7D7D7D" stroke-width="2" stroke-miterlimit="10" stroke-linecap="round" stroke-linejoin="round"/>
<path d="M165.171 81.9976C164.328 84.3384 163.571 86.7107 162.901 89.1073" stroke="#7D7D7D" stroke-width="2" stroke-miterlimit="10" stroke-linecap="round" stroke-linejoin="round"/>
<path d="M276.411 81.3879C276.608 84.6391 275.996 87.9376 274.646 90.9027" stroke="#7D7D7D" stroke-width="2" stroke-miterlimit="10" stroke-linecap="round" stroke-linejoin="round"/>
<path d="M321.595 108.588C316.458 107.309 311.028 108.958 306.301 111.337" stroke="#7D7D7D" stroke-width="2" stroke-miterlimit="10" stroke-linecap="round"/>
<path d="M320.004 216.903C321.535 221.346 320.943 226.47 318.438 230.445C315.934 234.421 311.567 237.168 306.899 237.705" stroke="#7D7D7D" stroke-width="2" stroke-miterlimit="10" stroke-linecap="round"/>
<path d="M304.894 106.396C308.628 106.397 311.655 109.424 311.655 113.158C311.654 116.892 308.628 119.919 304.894 119.919C301.16 119.919 298.132 116.892 298.132 113.158C298.132 109.424 301.16 106.396 304.894 106.396Z" fill="#E93353" stroke="#EA0029"/>
<path d="M246.638 121.962C251.829 119.656 254.169 113.579 251.863 108.387C249.557 103.196 243.479 100.856 238.288 103.162C233.096 105.468 230.757 111.546 233.063 116.737C235.368 121.929 241.446 124.268 246.638 121.962Z" fill="#EFEFEF"/>
<path d="M277.866 88.5009C277.866 92.0928 274.955 95.0058 271.362 95.0058C267.77 95.0058 264.857 92.094 264.857 88.5009C264.857 84.9079 267.768 81.9961 271.362 81.9961C274.955 81.9973 277.866 84.9091 277.866 88.5009Z" fill="#EFEFEF"/>
<path d="M277.866 111.494C277.866 115.254 274.819 118.301 271.06 118.301C267.3 118.301 264.253 115.254 264.253 111.494C264.253 107.735 267.3 104.688 271.06 104.688C274.819 104.687 277.866 107.734 277.866 111.494Z" fill="#634399"/>
<path d="M130.603 161.352C131.739 156.556 128.772 151.747 123.975 150.611C119.179 149.475 114.37 152.442 113.234 157.238C112.098 162.034 115.065 166.843 119.861 167.979C124.657 169.116 129.467 166.148 130.603 161.352Z" fill="#EFEFEF"/>
<path d="M147.472 118.906C147.472 121.914 145.034 124.351 142.027 124.351C139.019 124.351 136.582 121.914 136.582 118.906C136.582 115.898 139.019 113.461 142.027 113.461C145.034 113.461 147.472 115.898 147.472 118.906Z" fill="#EFEFEF"/>
<path d="M166.155 162.519C170.699 160.228 172.525 154.687 170.233 150.143C167.942 145.599 162.401 143.773 157.857 146.065C153.313 148.356 151.487 153.897 153.779 158.441C156.07 162.985 161.611 164.811 166.155 162.519Z" fill="#EFEFEF"/>
<path d="M289.5 153C294.194 153 298 149.194 298 144.5C298 139.806 294.194 136 289.5 136C284.806 136 281 139.806 281 144.5C281 149.194 284.806 153 289.5 153Z" fill="#634399"/>
<path d="M146.716 176.586C149.197 176.586 151.208 178.597 151.208 181.078C151.208 183.559 149.197 185.57 146.716 185.57C144.236 185.57 142.224 183.559 142.224 181.078C142.224 178.597 144.235 176.586 146.716 176.586Z" fill="#E93353" stroke="#EA0029"/>
<path d="M184.5 110C188.642 110 192 106.642 192 102.5C192 98.3579 188.642 95 184.5 95C180.358 95 177 98.3579 177 102.5C177 106.642 180.358 110 184.5 110Z" fill="#EFEFEF"/>
<path d="M179.05 126.725C179.05 130.433 176.043 133.44 172.335 133.44C168.627 133.44 165.621 130.433 165.621 126.725C165.621 123.017 168.627 120.01 172.335 120.01C176.043 120.01 179.05 123.017 179.05 126.725Z" fill="#634399"/>
<path d="M201.747 118.527C207.278 118.13 212.059 122.077 212.472 127.288C212.884 132.496 208.781 137.076 203.253 137.473C197.722 137.87 192.941 133.923 192.528 128.712C192.116 123.504 196.219 118.924 201.747 118.527Z" fill="#E93353" stroke="#EA0029"/>
<path d="M191.644 200.289C194.485 200.289 196.788 197.987 196.788 195.146C196.788 192.305 194.485 190.002 191.644 190.002C188.804 190.002 186.501 192.305 186.501 195.146C186.501 197.987 188.804 200.289 191.644 200.289Z" fill="#634399"/>
<path d="M215.882 181.075C215.882 184.911 212.773 188.02 208.937 188.02C205.102 188.02 201.992 184.911 201.992 181.075C201.992 177.24 205.102 174.131 208.937 174.131C212.773 174.132 215.882 177.24 215.882 181.075Z" fill="#EFEFEF"/>
<path d="M252.5 153.5C256.366 153.5 259.5 156.634 259.5 160.5C259.5 164.366 256.366 167.5 252.5 167.5C248.634 167.5 245.5 164.366 245.5 160.5C245.5 156.634 248.634 153.5 252.5 153.5Z" fill="#E93353" stroke="#EA0029"/>
<path d="M237.932 189.549C237.932 193.141 235.02 196.054 231.427 196.054C227.834 196.054 224.922 193.142 224.922 189.549C224.922 185.956 227.834 183.044 231.427 183.044C235.02 183.044 237.932 185.957 237.932 189.549Z" fill="#EFEFEF"/>
<path d="M273.63 201.046C273.63 205.807 269.77 209.668 265.008 209.668C260.246 209.668 256.385 205.807 256.385 201.046C256.385 196.284 260.245 192.423 265.008 192.423C269.771 192.423 273.63 196.284 273.63 201.046Z" fill="#EFEFEF"/>
<path d="M283.162 178.099C285.81 178.099 287.956 180.245 287.956 182.893C287.956 185.54 285.81 187.686 283.162 187.687C280.515 187.687 278.368 185.54 278.368 182.893C278.368 180.245 280.515 178.099 283.162 178.099Z" fill="#E93353" stroke="#EA0029"/>
<path d="M211.158 167.791C217.019 167.791 221.771 163.039 221.771 157.178C221.771 151.316 217.019 146.564 211.158 146.564C205.296 146.564 200.545 151.316 200.545 157.178C200.545 163.039 205.296 167.791 211.158 167.791Z" fill="#EFEFEF"/>
<path d="M320.827 168.22C325.506 168.22 329.299 164.427 329.299 159.749C329.299 155.07 325.506 151.278 320.827 151.278C316.149 151.278 312.356 155.07 312.356 159.749C312.356 164.427 316.149 168.22 320.827 168.22Z" fill="#EFEFEF"/>
<path d="M310.39 174.976C314.262 174.976 317.399 178.114 317.399 181.986C317.399 185.857 314.261 188.996 310.39 188.996C306.519 188.996 303.38 185.857 303.38 181.986C303.38 178.115 306.519 174.976 310.39 174.976Z" fill="#E93353" stroke="#EA0029"/>
<path d="M348.056 173.666C348.056 177.509 344.941 180.624 341.098 180.624C337.255 180.624 334.14 177.509 334.14 173.666C334.14 169.823 337.255 166.708 341.098 166.708C344.941 166.708 348.056 169.822 348.056 173.666Z" fill="#EFEFEF"/>
<path d="M318.86 221.77C323.622 221.77 327.483 217.91 327.483 213.148C327.483 208.385 323.622 204.525 318.86 204.525C314.098 204.525 310.237 208.385 310.237 213.148C310.237 217.91 314.098 221.77 318.86 221.77Z" fill="#EFEFEF"/>
<path d="M292.994 209.062C295.333 209.062 297.229 207.166 297.229 204.827C297.229 202.487 295.333 200.591 292.994 200.591C290.654 200.591 288.758 202.487 288.758 204.827C288.758 207.166 290.654 209.062 292.994 209.062Z" fill="#EFEFEF"/>
<path d="M285.5 220.5C289.366 220.5 292.5 223.634 292.5 227.5C292.5 231.366 289.366 234.5 285.5 234.5C281.634 234.5 278.5 231.366 278.5 227.5C278.5 223.634 281.634 220.5 285.5 220.5Z" fill="#E93353" stroke="#EA0029"/>
<path d="M212.761 78.9154C216.051 75.6257 221.385 75.6262 224.675 78.9161C227.964 82.2059 227.964 87.5392 224.675 90.829C221.385 94.1189 216.051 94.1194 212.761 90.8297C209.471 87.5398 209.471 82.2053 212.761 78.9154Z" fill="#E93353" stroke="#EA0029"/>
<path d="M154.129 90.3635C158.03 90.3625 161.192 93.5257 161.192 97.427C161.192 101.328 158.03 104.489 154.129 104.49C150.228 104.49 147.066 101.328 147.066 97.427C147.066 93.5258 150.228 90.3635 154.129 90.3635Z" fill="#E93353" stroke="#EA0029"/>
<path d="M175.912 167.961C179.397 167.961 182.222 170.786 182.222 174.271C182.222 177.757 179.397 180.582 175.912 180.582C172.426 180.582 169.601 177.757 169.601 174.271C169.601 170.786 172.426 167.961 175.912 167.961Z" fill="#E93353" stroke="#EA0029"/>
<path d="M171.98 208.761C177.16 208.761 181.359 204.561 181.359 199.381C181.359 194.202 177.16 190.002 171.98 190.002C166.8 190.002 162.601 194.202 162.601 199.381C162.601 204.561 166.8 208.761 171.98 208.761Z" fill="#EFEFEF"/>
<path d="M207.373 203.315C210.297 200.392 215.037 200.393 217.96 203.316C220.883 206.239 220.883 210.978 217.96 213.902C215.037 216.825 210.297 216.826 207.373 213.902C204.45 210.979 204.45 206.239 207.373 203.315Z" fill="#E93353" stroke="#EA0029"/>
<path d="M248.015 73.1216C247.789 75.5776 247.322 78.0117 246.626 80.378" stroke="#7D7D7D" stroke-width="2" stroke-miterlimit="10" stroke-linecap="round" stroke-linejoin="round"/>
<path d="M228.303 67.4595C230.084 68.8172 231.762 70.3082 233.32 71.9156" stroke="#7D7D7D" stroke-width="2" stroke-miterlimit="10" stroke-linecap="round" stroke-linejoin="round"/>
<path d="M125.052 190.984C125.005 188.893 125.169 186.796 125.539 184.738" stroke="#7D7D7D" stroke-width="2" stroke-miterlimit="10" stroke-linecap="round" stroke-linejoin="round"/>
<path d="M140.898 195.456C142.937 196.65 145.545 195.986 147.698 195.012C149.886 194.02 151.944 192.739 153.796 191.209" stroke="#7D7D7D" stroke-width="2" stroke-miterlimit="10" stroke-linecap="round" stroke-linejoin="round"/>
<path d="M133.846 168.73C135.928 170.499 136.807 173.39 136.677 176.119C136.548 178.847 135.531 181.455 134.356 183.922" stroke="#7D7D7D" stroke-width="2" stroke-miterlimit="10" stroke-linecap="round"/>
<path d="M108.559 171.427C107.814 174.59 108.534 178.067 110.473 180.672" stroke="#7D7D7D" stroke-width="2" stroke-miterlimit="10" stroke-linecap="round"/>
<path d="M343.565 189.128C341.231 188.355 334.11 186.055 331.882 185.017" stroke="#7D7D7D" stroke-width="2" stroke-miterlimit="10" stroke-linecap="round"/>
<path d="M299.531 93.5282C298.353 92.2917 296.301 92.9718 294.77 93.7294C290.927 95.629 287.084 97.5286 283.241 99.4281" stroke="#7D7D7D" stroke-width="2" stroke-miterlimit="10" stroke-linecap="round"/>
</svg>
