<svg width="457" height="320" viewBox="0 0 457 320" fill="none" xmlns="http://www.w3.org/2000/svg">
<path d="M155.271 33.3096C145.733 47.2139 156.917 69.7562 142.764 80.2134C128.987 90.3927 112.062 73.7074 99.0777 82.4697C79.8166 95.4681 83.3341 154.946 111.495 191.901C119.964 203.015 127.04 207.339 130.174 219.908C136.904 246.896 113.252 262.951 117.753 276.299C127.887 306.354 283.746 331.574 346.283 241.248C375.491 199.062 379.861 138.146 353.765 91.8789C306.61 8.27584 176.674 2.11085 155.271 33.3096Z" fill="#F8E3E6"/>
<path d="M252.131 32.4997L112.559 27.7757C109.368 27.6678 106.776 30.14 106.776 33.298V286.834C106.776 289.992 109.368 292.404 112.559 292.223L252.131 284.286C255.017 284.122 257.353 281.561 257.353 278.566V38.0998C257.353 35.1046 255.017 32.5974 252.131 32.4997Z" fill="url(#paint0_linear_2952_654)"/>
<g opacity="0.3">
<path d="M194.864 219.717C192.491 190.727 210.299 178.761 203.508 152.496C195.114 120.03 162.829 118.639 151.834 86.8021C147.622 74.604 145.957 56.1627 158.016 29.3143L112.559 27.7757C109.368 27.6678 106.776 30.14 106.776 33.298V286.834C106.776 289.992 109.368 292.404 112.559 292.223L237.01 285.146C205.347 260.629 196.323 237.535 194.864 219.717Z" fill="#D8DEE8"/>
</g>
<path opacity="0.3" d="M252.13 35.701L112.558 31.138C111.25 31.0952 110.185 32.113 110.185 33.4067V286.646C110.185 287.94 111.25 288.933 112.558 288.861L252.13 281.085C253.315 281.019 254.278 279.965 254.278 278.735V38.0017C254.278 36.7718 253.315 35.7397 252.13 35.701Z" fill="url(#paint1_linear_2952_654)"/>
<path opacity="0.6" d="M225.77 227.413L141.081 230.464C139.082 230.536 137.459 232.214 137.459 234.211C137.459 236.209 139.082 237.766 141.081 237.689L225.77 234.425C227.651 234.353 229.174 232.726 229.174 230.792C229.174 228.858 227.651 227.345 225.77 227.413Z" fill="url(#paint2_linear_2952_654)"/>
<path opacity="0.6" d="M225.77 239.904L141.081 243.333C139.082 243.414 137.459 245.099 137.459 247.096C137.459 249.093 139.082 250.643 141.081 250.557L225.77 246.916C227.651 246.835 229.174 245.202 229.174 243.268C229.174 241.334 227.651 239.827 225.77 239.904Z" fill="url(#paint3_linear_2952_654)"/>
<path opacity="0.6" d="M225.77 252.394L141.081 256.201C139.082 256.291 137.459 257.983 137.459 259.98C137.459 261.978 139.082 263.52 141.081 263.425L225.77 259.407C227.651 259.317 229.174 257.677 229.174 255.743C229.174 253.809 227.651 252.31 225.77 252.394Z" fill="url(#paint4_linear_2952_654)"/>
<path opacity="0.6" d="M181.853 45.8396L139.253 44.6331C138.262 44.605 137.459 45.3837 137.459 46.3723C137.459 47.3609 138.262 48.1842 139.253 48.211L181.853 49.3648C182.814 49.3908 183.593 48.6233 183.593 47.6505C183.593 46.6775 182.814 45.8669 181.853 45.8396Z" fill="url(#paint5_linear_2952_654)"/>
<path opacity="0.6" d="M181.853 52.1187L139.253 51.0061C138.262 50.9802 137.459 51.7606 137.459 52.7493C137.459 53.7379 138.262 54.5594 139.253 54.5841L181.853 55.6439C182.814 55.6678 183.593 54.8984 183.593 53.9256C183.593 52.9529 182.814 52.1439 181.853 52.1187Z" fill="url(#paint6_linear_2952_654)"/>
<path opacity="0.6" d="M181.853 58.398L139.253 57.3793C138.262 57.3556 137.459 58.1379 137.459 59.1265C137.459 60.1151 138.262 60.9348 139.253 60.9572L181.853 61.9231C182.814 61.9449 183.593 61.1738 183.593 60.201C183.593 59.2283 182.814 58.4209 181.853 58.398Z" fill="url(#paint7_linear_2952_654)"/>
<path opacity="0.35" d="M195.185 219.706C192.812 190.72 210.616 178.755 203.826 152.493C195.434 120.031 163.157 118.64 152.165 86.8067C148.127 75.1131 146.431 57.6803 156.929 32.5887L112.898 31.1491C111.591 31.1064 110.526 32.124 110.526 33.4177V286.628C110.526 287.921 111.591 288.914 112.898 288.842L233.542 282.12C204.934 258.716 196.583 236.785 195.185 219.706Z" fill="white"/>
<path d="M277.494 27.0651L131.973 22.1397C128.646 22.027 125.944 24.6047 125.944 27.8973V292.24C125.944 295.532 128.646 298.048 131.973 297.859L277.494 289.584C280.504 289.412 282.939 286.743 282.939 283.62V32.9038C282.939 29.7809 280.504 27.1669 277.494 27.0651Z" fill="url(#paint8_linear_2952_654)"/>
<g opacity="0.3">
<path d="M217.787 222.262C215.312 192.037 233.879 179.561 226.799 152.176C218.047 118.327 184.386 116.876 172.923 83.6822C168.53 70.9641 166.795 51.7369 179.368 23.744L131.973 22.1399C128.646 22.0273 125.944 24.6049 125.944 27.8976V292.24C125.944 295.533 128.646 298.048 131.973 297.859L261.729 290.48C228.716 264.919 219.308 240.84 217.787 222.262Z" fill="#D8DEE8"/>
</g>
<path d="M277.494 30.4029L131.973 25.6454C130.609 25.6008 129.499 26.6619 129.499 28.0108V292.045C129.499 293.394 130.609 294.429 131.973 294.353L277.494 286.246C278.73 286.177 279.734 285.078 279.734 283.796V32.8017C279.734 31.5194 278.73 30.4433 277.494 30.4029Z" fill="url(#paint9_linear_2952_654)"/>
<path d="M250.011 230.286L161.711 233.468C159.627 233.543 157.935 235.292 157.935 237.375C157.935 239.457 159.627 241.08 161.711 241L250.011 237.597C251.972 237.522 253.56 235.826 253.56 233.809C253.56 231.793 251.972 230.215 250.011 230.286Z" fill="#D8DEE8"/>
<path d="M250.011 243.309L161.711 246.884C159.627 246.969 157.935 248.726 157.935 250.808C157.935 252.891 159.627 254.506 161.711 254.417L250.011 250.62C251.972 250.536 253.56 248.833 253.56 246.817C253.56 244.8 251.972 243.23 250.011 243.309Z" fill="#D8DEE8"/>
<path d="M250.011 256.333L161.711 260.301C159.627 260.395 157.935 262.159 157.935 264.242C157.935 266.324 159.627 267.932 161.711 267.834L250.011 263.644C251.972 263.551 253.56 261.841 253.56 259.824C253.56 257.808 251.972 256.244 250.011 256.333Z" fill="#D8DEE8"/>
<path d="M204.222 40.9735L159.805 39.7155C158.772 39.6862 157.935 40.4981 157.935 41.5289C157.935 42.5597 158.773 43.418 159.805 43.446L204.222 44.649C205.224 44.6761 206.035 43.8759 206.035 42.8616C206.035 41.8471 205.224 41.0018 204.222 40.9735Z" fill="#D8DEE8"/>
<path d="M204.222 47.5203L159.805 46.3603C158.772 46.3333 157.935 47.147 157.935 48.1779C157.935 49.2086 158.773 50.0651 159.805 50.0908L204.222 51.1958C205.224 51.2207 206.035 50.4186 206.035 49.4043C206.035 48.39 205.224 47.5465 204.222 47.5203Z" fill="#D8DEE8"/>
<path d="M204.222 54.0671L159.805 53.0051C158.772 52.9803 157.935 53.7959 157.935 54.8267C157.935 55.8574 158.773 56.712 159.805 56.7355L204.222 57.7425C205.224 57.7652 206.035 56.9613 206.035 55.947C206.035 54.9327 205.224 54.0911 204.222 54.0671Z" fill="#D8DEE8"/>
<path d="M187.108 124.387C189.991 118.932 195.389 115.056 201.713 114.334L202.154 87.3756C184.13 87.8467 168.603 98.9602 161.647 114.89L187.108 124.387Z" fill="url(#paint10_linear_2952_654)"/>
<path d="M222.461 136.646C220.922 145.603 213.234 152.477 203.928 152.563C201.176 152.588 198.558 152.018 196.191 150.97L182.064 174.191C188.594 177.659 196.046 179.554 203.928 179.41C227.362 178.98 246.344 160.642 248.484 137.63L222.461 136.646Z" fill="#7A5CE0"/>
<path d="M177.701 171.547L191.868 148.306C187.6 144.803 184.871 139.452 184.871 133.44C184.871 131.988 185.031 130.573 185.333 129.212L159.842 119.751C158.5 124.101 157.776 128.724 157.776 133.517C157.776 149.387 165.687 163.308 177.701 171.547Z" fill="url(#paint11_linear_2952_654)"/>
<path d="M206.76 114.434C215.264 115.759 221.873 122.818 222.662 131.568L265.73 133.27C265.73 133.251 265.731 133.231 265.731 133.212C265.731 99.833 240.245 72.0977 207.493 69.6342L206.76 114.434Z" fill="#E93353"/>
<path d="M169.455 98.6409L99.0274 97.9399C97.4348 97.9241 96.1421 96.6553 96.1421 95.1062V68.3192C96.1421 66.7701 97.4348 65.545 99.0274 65.583L160.338 67.0434C161.846 67.0793 163.067 68.3283 163.067 69.833V92.8558L169.455 98.6409Z" fill="#F77B90"/>
<path opacity="0.67" d="M153.175 76.7239L106.535 75.8146V72.6033L153.175 73.577V76.7239Z" fill="white"/>
<path opacity="0.67" d="M153.175 83.0179L106.535 82.2372V79.026L153.175 79.8709V83.0179Z" fill="white"/>
<path opacity="0.67" d="M153.175 89.3116L106.535 88.6598V85.4485L153.175 86.1646V89.3116Z" fill="white"/>
<path opacity="0.6" d="M206.642 176.218L291.327 174.397C293.532 174.35 295.317 176.16 295.317 178.44V217.869C295.317 220.15 293.532 222.058 291.327 222.133L202.07 225.141C199.761 225.219 197.887 223.388 197.887 221.051V169.51L206.642 176.218Z" fill="url(#paint12_linear_2952_654)"/>
<path opacity="0.67" d="M212.96 209.597L280.861 207.567V212.333L212.96 214.445V209.597Z" fill="white"/>
<path opacity="0.67" d="M212.96 199.901L280.861 198.036V202.802L212.96 204.749V199.901Z" fill="white"/>
<path opacity="0.67" d="M212.96 190.205L280.861 188.505V193.27L212.96 195.053V190.205Z" fill="white"/>
<path d="M239.419 49.2927V99.1249C239.419 100.779 240.759 102.121 242.409 102.121H337.799C339.235 102.121 340.396 100.873 340.396 99.3337V52.9742L239.419 49.2927Z" fill="url(#paint13_linear_2952_654)"/>
<path d="M337.799 46.9829L242.409 43.0886C240.759 43.0212 239.419 44.3077 239.419 45.9621V51.0683L340.397 54.6261V49.8757C340.397 48.3366 339.235 47.0415 337.799 46.9829Z" fill="url(#paint14_linear_2952_654)"/>
<path d="M246.27 47.2227C246.27 47.9548 245.679 48.5263 244.949 48.4992C244.219 48.4721 243.626 47.8555 243.626 47.1221C243.626 46.3887 244.219 45.8173 244.949 45.8457C245.679 45.8742 246.27 46.4907 246.27 47.2227Z" fill="white"/>
<path d="M259.934 95.6651L252.452 95.6313V58.5665L259.934 58.7935V95.6651Z" fill="white"/>
<path d="M259.934 95.6652L252.452 95.6313V78.0338L259.934 78.1593V95.6652Z" fill="url(#paint15_linear_2952_654)"/>
<path d="M270.214 95.7116L262.84 95.6783V58.8816L270.214 59.1053V95.7116Z" fill="white"/>
<path d="M270.214 95.7117L262.84 95.6784V86.9432L270.214 87.0218V95.7117Z" fill="url(#paint16_linear_2952_654)"/>
<path d="M280.347 95.7574L273.079 95.7246V59.1923L280.347 59.4127V95.7574Z" fill="white"/>
<path d="M280.347 95.7574L273.079 95.7246V91.1716L280.347 91.2278V95.7574Z" fill="url(#paint17_linear_2952_654)"/>
<path d="M290.337 95.8024L283.171 95.77V59.4982L290.337 59.7155V95.8024Z" fill="white"/>
<path d="M290.337 95.8025L283.171 95.7701V67.3553L290.337 67.5327V95.8025Z" fill="url(#paint18_linear_2952_654)"/>
<path d="M300.186 95.8471L293.121 95.8152V59.8002L300.186 60.0145V95.8471Z" fill="white"/>
<path d="M300.186 95.847L293.121 95.8151V70.8076L300.186 70.9661V95.847Z" fill="url(#paint19_linear_2952_654)"/>
<path d="M309.897 95.8909L302.931 95.8594V60.0977L309.897 60.3089V95.8909Z" fill="white"/>
<path d="M309.897 95.8909L302.931 95.8594V65.2974L309.897 65.4826V95.8909Z" fill="url(#paint20_linear_2952_654)"/>
<path d="M319.473 95.9341L312.604 95.9031V60.391L319.473 60.5993V95.9341Z" fill="white"/>
<path d="M319.473 95.9341L312.604 95.9031V74.09L319.473 74.2299V95.9341Z" fill="url(#paint21_linear_2952_654)"/>
<path d="M328.917 95.9768L322.143 95.9463V60.6803L328.917 60.8858V95.9768Z" fill="white"/>
<path d="M328.917 95.9768L322.143 95.9463V83.7026L328.917 83.7939V95.9768Z" fill="url(#paint22_linear_2952_654)"/>
<defs>
<linearGradient id="paint0_linear_2952_654" x1="152.206" y1="106.586" x2="228.812" y2="249.896" gradientUnits="userSpaceOnUse">
<stop stop-color="#FF9085"/>
<stop offset="1" stop-color="#FB6FBB"/>
</linearGradient>
<linearGradient id="paint1_linear_2952_654" x1="251.111" y1="43.3713" x2="148.091" y2="211.95" gradientUnits="userSpaceOnUse">
<stop stop-color="white"/>
<stop offset="0.9964" stop-color="#EBEFF2"/>
</linearGradient>
<linearGradient id="paint2_linear_2952_654" x1="137.459" y1="232.551" x2="229.174" y2="232.551" gradientUnits="userSpaceOnUse">
<stop stop-color="white"/>
<stop offset="0.9964" stop-color="#EBEFF2"/>
</linearGradient>
<linearGradient id="paint3_linear_2952_654" x1="137.459" y1="245.231" x2="229.174" y2="245.231" gradientUnits="userSpaceOnUse">
<stop stop-color="white"/>
<stop offset="0.9964" stop-color="#EBEFF2"/>
</linearGradient>
<linearGradient id="paint4_linear_2952_654" x1="137.459" y1="257.91" x2="229.174" y2="257.91" gradientUnits="userSpaceOnUse">
<stop stop-color="white"/>
<stop offset="0.9964" stop-color="#EBEFF2"/>
</linearGradient>
<linearGradient id="paint5_linear_2952_654" x1="137.459" y1="46.9989" x2="183.593" y2="46.9989" gradientUnits="userSpaceOnUse">
<stop stop-color="white"/>
<stop offset="0.9964" stop-color="#EBEFF2"/>
</linearGradient>
<linearGradient id="paint6_linear_2952_654" x1="137.459" y1="53.325" x2="183.593" y2="53.325" gradientUnits="userSpaceOnUse">
<stop stop-color="white"/>
<stop offset="0.9964" stop-color="#EBEFF2"/>
</linearGradient>
<linearGradient id="paint7_linear_2952_654" x1="137.459" y1="59.6512" x2="183.593" y2="59.6512" gradientUnits="userSpaceOnUse">
<stop stop-color="white"/>
<stop offset="0.9964" stop-color="#EBEFF2"/>
</linearGradient>
<linearGradient id="paint8_linear_2952_654" x1="264.224" y1="40.6461" x2="193.872" y2="176.139" gradientUnits="userSpaceOnUse">
<stop offset="0.0036" stop-color="#E38DDD"/>
<stop offset="1" stop-color="#9571F6"/>
</linearGradient>
<linearGradient id="paint9_linear_2952_654" x1="276.432" y1="38.4002" x2="169.02" y2="214.164" gradientUnits="userSpaceOnUse">
<stop stop-color="white"/>
<stop offset="0.9964" stop-color="#EBEFF2"/>
</linearGradient>
<linearGradient id="paint10_linear_2952_654" x1="179.91" y1="83.1344" x2="189.518" y2="169.991" gradientUnits="userSpaceOnUse">
<stop stop-color="#FFC444"/>
<stop offset="0.9964" stop-color="#F36F56"/>
</linearGradient>
<linearGradient id="paint11_linear_2952_654" x1="157.362" y1="121.08" x2="208.874" y2="187.31" gradientUnits="userSpaceOnUse">
<stop stop-color="#AA80F9"/>
<stop offset="0.9964" stop-color="#6165D7"/>
</linearGradient>
<linearGradient id="paint12_linear_2952_654" x1="184.258" y1="281.324" x2="261.488" y2="173.627" gradientUnits="userSpaceOnUse">
<stop stop-color="#FF9085"/>
<stop offset="1" stop-color="#FB6FBB"/>
</linearGradient>
<linearGradient id="paint13_linear_2952_654" x1="297.522" y1="41.5881" x2="277.145" y2="129.631" gradientUnits="userSpaceOnUse">
<stop stop-color="#D8DEE8"/>
<stop offset="1" stop-color="white"/>
</linearGradient>
<linearGradient id="paint14_linear_2952_654" x1="297.614" y1="37.2821" x2="255.964" y2="105.371" gradientUnits="userSpaceOnUse">
<stop stop-color="#FF9085"/>
<stop offset="1" stop-color="#FB6FBB"/>
</linearGradient>
<linearGradient id="paint15_linear_2952_654" x1="260.186" y1="74.3882" x2="250.695" y2="104.009" gradientUnits="userSpaceOnUse">
<stop stop-color="#FF9085"/>
<stop offset="1" stop-color="#FB6FBB"/>
</linearGradient>
<linearGradient id="paint16_linear_2952_654" x1="268.743" y1="84.4138" x2="263.479" y2="100.842" gradientUnits="userSpaceOnUse">
<stop stop-color="#FF9085"/>
<stop offset="1" stop-color="#FB6FBB"/>
</linearGradient>
<linearGradient id="paint17_linear_2952_654" x1="278.086" y1="89.1799" x2="274.825" y2="99.3558" gradientUnits="userSpaceOnUse">
<stop stop-color="#FF9085"/>
<stop offset="1" stop-color="#FB6FBB"/>
</linearGradient>
<linearGradient id="paint18_linear_2952_654" x1="292.89" y1="62.4312" x2="278.304" y2="107.95" gradientUnits="userSpaceOnUse">
<stop stop-color="#FF9085"/>
<stop offset="1" stop-color="#FB6FBB"/>
</linearGradient>
<linearGradient id="paint19_linear_2952_654" x1="302.102" y1="66.3239" x2="289.15" y2="106.743" gradientUnits="userSpaceOnUse">
<stop stop-color="#FF9085"/>
<stop offset="1" stop-color="#FB6FBB"/>
</linearGradient>
<linearGradient id="paint20_linear_2952_654" x1="312.967" y1="60.1444" x2="297.389" y2="108.757" gradientUnits="userSpaceOnUse">
<stop stop-color="#FF9085"/>
<stop offset="1" stop-color="#FB6FBB"/>
</linearGradient>
<linearGradient id="paint21_linear_2952_654" x1="320.837" y1="70.0384" x2="309.432" y2="105.63" gradientUnits="userSpaceOnUse">
<stop stop-color="#FF9085"/>
<stop offset="1" stop-color="#FB6FBB"/>
</linearGradient>
<linearGradient id="paint22_linear_2952_654" x1="328.409" y1="80.8543" x2="321.567" y2="102.207" gradientUnits="userSpaceOnUse">
<stop stop-color="#FF9085"/>
<stop offset="1" stop-color="#FB6FBB"/>
</linearGradient>
</defs>
</svg>
