<svg width="102" height="100" viewBox="0 0 102 100" fill="none" xmlns="http://www.w3.org/2000/svg">
<path d="M48.7579 69.021C50.5948 69.021 52.084 70.588 52.084 72.521C52.084 74.454 50.5948 76.021 48.7579 76.021H4.41007C2.57313 76.021 1.08398 74.454 1.08398 72.521C1.08398 70.588 2.57313 69.021 4.41007 69.021H48.7579Z" fill="#737373"/>
<path d="M45.4318 66.2827C45.4318 62.3014 44.8596 61.1733 44.4526 60.7637C44.0363 60.345 42.8898 59.7642 38.9128 59.7642H14.2552C10.2781 59.7642 9.13162 60.345 8.71541 60.7637C8.30833 61.1733 7.73617 62.3014 7.73616 66.2827V84.7592C7.73616 88.7406 8.30833 89.8687 8.71541 90.2782C9.13162 90.697 10.2781 91.2777 14.2552 91.2777H38.9128C42.8898 91.2777 44.0363 90.697 44.4526 90.2782C44.8597 89.8687 45.4318 88.7406 45.4318 84.7592V66.2827ZM52.084 84.7592C52.084 88.6899 51.6806 92.5069 49.1386 95.0644C46.6057 97.6126 42.8296 98.021 38.9128 98.021H14.2552C10.3383 98.021 6.56225 97.6126 4.02939 95.0644C1.48741 92.5069 1.08398 88.6898 1.08398 84.7592V66.2827C1.08399 62.3521 1.48742 58.5351 4.02939 55.9776C6.56225 53.4293 10.3383 53.021 14.2552 53.021H38.9128C42.8296 53.021 46.6057 53.4294 49.1386 55.9776C51.6806 58.5351 52.084 62.352 52.084 66.2827V84.7592Z" fill="#737373"/>
<path d="M90.3781 63.3739C90.3781 61.5222 91.8793 60.021 93.731 60.021C95.5828 60.021 97.084 61.5222 97.084 63.3739C97.084 82.5269 81.5899 98.021 62.4369 98.021C61.229 98.021 60.1144 97.3712 59.5192 96.32C58.9241 95.2689 58.9403 93.9788 59.5618 92.943L64.2559 85.1195C65.2086 83.5316 67.2682 83.0167 68.8561 83.9694C70.444 84.9221 70.9589 86.9817 70.0062 88.5696L68.7932 90.5909C81.1727 87.7189 90.3781 76.6363 90.3781 63.3739Z" fill="#737373"/>
<path d="M1.08398 36.668C1.08401 17.5151 16.5781 2.02102 35.731 2.021C36.939 2.021 38.0536 2.67079 38.6488 3.72196C39.2439 4.77313 39.2277 6.06318 38.6062 7.099L33.9122 14.9225C32.9595 16.5104 30.8999 17.0253 29.312 16.0726C27.7241 15.1199 27.2092 13.0603 28.1619 11.4724L29.3746 9.45091C16.9952 12.323 7.78989 23.4058 7.78987 36.668C7.78987 38.5198 6.28871 40.021 4.43693 40.021C2.58515 40.021 1.08398 38.5198 1.08398 36.668Z" fill="#737373"/>
<path d="M94.3697 25.521C94.3697 16.2505 86.8546 8.73528 77.584 8.73528C68.3134 8.73528 60.7983 16.2505 60.7983 25.521C60.7983 34.7915 68.3134 42.3067 77.584 42.3067C86.8546 42.3067 94.3697 34.7915 94.3697 25.521ZM101.084 25.521C101.084 38.4997 90.5628 49.021 77.584 49.021C64.6052 49.021 54.084 38.4997 54.084 25.521C54.084 12.5423 64.6052 2.021 77.584 2.021C90.5628 2.021 101.084 12.5423 101.084 25.521Z" fill="#737373"/>
</svg>
