<svg width="100" height="100" viewBox="0 0 100 100" fill="none" xmlns="http://www.w3.org/2000/svg">
<path d="M39.8572 12.5H57.7604C74.6395 12.5 83.0795 12.5 88.3229 17.6804C92.0987 21.4104 93.1559 26.7771 93.4517 35.7143H4.16602C4.462 26.7771 5.51909 21.4104 9.2946 17.6804C14.5384 12.5 22.978 12.5 39.8572 12.5Z" fill="#737373"/>
<path fill-rule="evenodd" clip-rule="evenodd" d="M93.4495 52.037L91.6258 50.2232C87.7031 46.3216 81.3433 46.3216 77.4205 50.2232L73.8428 53.7815C72.4151 49.9936 68.741 47.2971 64.4339 47.2971C58.8866 47.2971 54.3892 51.7701 54.3892 57.2874V65.119C52.2022 65.361 50.0799 66.316 48.4026 67.9838C44.4799 71.8853 44.4799 78.2108 48.4026 82.1123L50.2285 83.9284H39.8803C23.0444 83.9284 14.6265 83.9284 9.39624 78.7263C4.16602 73.5246 4.16602 65.1518 4.16602 48.4071C4.16602 46.445 4.16602 44.5975 4.17445 42.8569H93.4433C93.4517 44.5975 93.4517 46.445 93.4517 48.4071C93.4517 49.6637 93.4517 50.8727 93.4495 52.037ZM22.0232 62.8376C20.174 62.8376 18.6749 64.3286 18.6749 66.1677C18.6749 68.0069 20.174 69.4979 22.0232 69.4979H39.8803C41.7294 69.4979 43.2285 68.0069 43.2285 66.1677C43.2285 64.3286 41.7294 62.8376 39.8803 62.8376H22.0232Z" fill="#737373"/>
<path fill-rule="evenodd" clip-rule="evenodd" d="M64.4939 53.5713C66.3184 53.5713 67.7975 55.0637 67.7975 56.9046V75.5237L70.9676 72.3255C72.2578 71.0237 74.3492 71.0237 75.6393 72.3255C76.9295 73.6273 76.9295 75.7375 75.6393 77.0393L66.8298 85.9282C65.5396 87.23 63.4482 87.23 62.158 85.9282L53.3485 77.0393C52.0583 75.7375 52.0583 73.6273 53.3485 72.3255C54.6386 71.0237 56.73 71.0237 58.0202 72.3255L61.1903 75.5237V56.9046C61.1903 55.0637 62.6694 53.5713 64.4939 53.5713ZM81.9796 54.5477C83.2697 53.246 85.3611 53.246 86.6513 54.5477L95.4609 63.4366C96.751 64.7384 96.751 66.8486 95.4609 68.1504C94.1707 69.4522 92.0793 69.4522 90.7891 68.1504L87.619 64.9522V83.5713C87.619 85.4122 86.1399 86.9046 84.3154 86.9046C82.491 86.9046 81.0118 85.4122 81.0118 83.5713V64.9522L77.8417 68.1504C76.5516 69.4522 74.4602 69.4522 73.17 68.1504C71.8798 66.8486 71.8798 64.7384 73.17 63.4366L81.9796 54.5477Z" fill="#737373"/>
</svg>
