<svg width="100" height="100" viewBox="0 0 100 100" fill="none" xmlns="http://www.w3.org/2000/svg">
<path d="M3.01159e-06 50.0001C3.01159e-06 41.2639 -0.00740284 34.3582 0.712287 28.9657C1.44547 23.4721 2.99033 19.0256 6.4712 15.519L6.635 15.3561C10.0902 11.964 14.4511 10.4446 19.8193 9.71755C25.1723 8.99254 32.0273 9 40.6994 9H59.3048C67.9768 9 74.8318 8.99255 80.1848 9.71755C85.6381 10.4561 90.0521 12.0123 93.5329 15.519L93.6795 15.6685C96.7356 18.82 98.2678 22.7253 99.0665 27.4669C99.8607 32.1816 99.979 38.0547 100 45.3041C100.006 47.2449 98.4483 48.8229 96.5217 48.8285C94.595 48.8342 93.0286 47.2654 93.0229 45.3246C93.0016 37.9812 92.8696 32.6898 92.1879 28.6428C91.5234 24.6981 90.3902 22.2931 88.5993 20.489V20.4888C86.6311 18.5059 83.9349 17.3172 79.2552 16.6834C74.4751 16.036 68.174 16.0286 59.3048 16.0286H40.6994C31.8301 16.0286 25.5291 16.036 20.749 16.6834C16.0694 17.3172 13.3731 18.5059 11.4046 20.489C9.43614 22.472 8.2562 25.1881 7.62705 29.9023C6.9844 34.7177 6.97704 41.0653 6.97704 50.0001C6.97704 58.9348 6.98439 65.2824 7.62705 70.0978C8.24638 74.7384 9.39945 77.4427 11.3129 79.4174L11.4046 79.5109L11.4047 79.511C13.3732 81.4941 16.0694 82.6828 20.749 83.3166C25.5291 83.964 31.8301 83.9714 40.6994 83.9714H47.6765C49.6031 83.9714 51.1649 85.5449 51.165 87.4857C51.165 89.4266 49.6031 91 47.6765 91H40.6994C32.0273 91 25.1723 91.0075 19.8193 90.2824C14.3659 89.5438 9.95211 87.9875 6.4712 84.4808V84.481C2.99024 80.9745 1.44546 76.5279 0.712287 71.0343C-0.00740104 65.6418 2.98491e-06 58.7361 3.01159e-06 50.0001Z" fill="#737373"/>
<path d="M84.091 87.5V67.9498L80.8197 71.3083C79.4884 72.6751 77.3298 72.6751 75.9985 71.3083C74.6672 69.9414 74.6672 67.7253 75.9985 66.3585L85.0895 57.0251L85.1524 56.9621C86.488 55.6586 88.6001 55.6796 89.9107 57.0251L99.0015 66.3585C100.333 67.7253 100.333 69.9414 99.0015 71.3083C97.6702 72.675 95.5116 72.6751 94.1803 71.3083L90.9092 67.9498V87.5C90.9092 89.433 89.3828 91 87.5001 91C85.6173 91 84.091 89.433 84.091 87.5Z" fill="#737373"/>
<path d="M63.091 59.5C63.091 57.567 64.6173 56 66.5001 56C68.3828 56 69.9092 57.567 69.9092 59.5V79.0501L73.1803 75.6917C74.5116 74.3249 76.6702 74.325 78.0015 75.6917C79.3328 77.0586 79.3328 79.2747 78.0015 80.6415L68.9107 89.9749C67.5793 91.3417 65.4208 91.3417 64.0895 89.9749L54.9985 80.6415C53.6672 79.2747 53.6672 77.0586 54.9985 75.6917C56.3298 74.3249 58.4884 74.3249 59.8197 75.6917L63.091 79.0502V59.5Z" fill="#737373"/>
<path d="M40.4545 65C42.4126 65 44 66.567 44 68.5C44 70.433 42.4126 72 40.4545 72H21.5455C19.5874 72 18 70.433 18 68.5C18 66.567 19.5874 65 21.5455 65H40.4545Z" fill="#737373"/>
<path d="M96.5116 37C98.4382 37 100 38.567 100 40.5C100 42.433 98.4382 44 96.5116 44H3.48837C1.5618 44 0 42.433 0 40.5C0 38.567 1.5618 37 3.48837 37H96.5116Z" fill="#737373"/>
</svg>
