<svg width="100" height="100" viewBox="0 0 100 100" fill="none" xmlns="http://www.w3.org/2000/svg">
<g clip-path="url(#clip0_3312_2743)">
<path d="M45 55V30C45 27.2385 47.2385 25 50 25C52.7615 25 55 27.2385 55 30V55C55 57.7614 52.7614 60 50 60C47.2386 60 45 57.7614 45 55Z" fill="#737373"/>
<path d="M45 70.0277V69.9721C45 67.2261 47.2385 65 50 65C52.7615 65 55 67.2261 55 69.9721V70.0277C55 72.7738 52.7615 75 50 75C47.2385 75 45 72.7738 45 70.0277Z" fill="#737373"/>
<path d="M90.0001 50C90.0001 40.8498 89.5032 33.838 88.2991 28.4199C87.1076 23.0585 85.2909 19.5689 82.861 17.139C80.4311 14.7091 76.9415 12.8924 71.5801 11.7009C66.162 10.4968 59.1502 9.99991 50 9.99991C40.8498 9.99991 33.838 10.4968 28.4199 11.7009C23.0585 12.8924 19.5689 14.7091 17.139 17.139C14.7091 19.5689 12.8924 23.0585 11.7009 28.4199C10.4968 33.838 9.99991 40.8498 9.99991 50C9.99991 59.1502 10.4968 66.162 11.7009 71.5801C12.8924 76.9415 14.7091 80.4311 17.139 82.861C19.5689 85.2909 23.0585 87.1076 28.4199 88.2991C33.838 89.5032 40.8498 90.0001 50 90.0001C59.1502 90.0001 66.162 89.5032 71.5801 88.2991C76.9415 87.1076 80.4311 85.2909 82.861 82.861C85.2909 80.4311 87.1076 76.9415 88.2991 71.5801C89.5032 66.162 90.0001 59.1502 90.0001 50ZM100 50C100 59.3785 99.5041 67.2562 98.061 73.7497C96.6052 80.3 94.12 85.7442 89.9321 89.9321C85.7442 94.12 80.3 96.6052 73.7497 98.061C67.2562 99.5041 59.3785 100 50 100C40.6215 100 32.7438 99.5041 26.2503 98.061C19.7 96.6052 14.2558 94.12 10.0679 89.9321C5.87999 85.7442 3.39476 80.3 1.93902 73.7497C0.495886 67.2562 6.05247e-08 59.3785 0 50C0 40.6215 0.495886 32.7438 1.93902 26.2503C3.39476 19.7 5.87999 14.2558 10.0679 10.0679C14.2558 5.87999 19.7 3.39476 26.2503 1.93902C32.7438 0.495886 40.6215 0 50 0C59.3785 6.0538e-08 67.2562 0.495886 73.7497 1.93902C80.3 3.39476 85.7442 5.87999 89.9321 10.0679C94.12 14.2558 96.6052 19.7 98.061 26.2503C99.5041 32.7438 100 40.6215 100 50Z" fill="#737373"/>
</g>
<defs>
<clipPath id="clip0_3312_2743">
<rect width="100" height="100" fill="white"/>
</clipPath>
</defs>
</svg>
