<svg width="100" height="100" viewBox="0 0 100 100" fill="none" xmlns="http://www.w3.org/2000/svg">
<g clip-path="url(#clip0_3313_3693)">
<path fill-rule="evenodd" clip-rule="evenodd" d="M94 26.7683C94 38.2383 84.6636 47.5368 73.1466 47.5368C71.0448 47.5368 66.2598 47.0537 63.9322 45.1217L61.022 48.0195C59.3113 49.7236 59.7733 50.2252 60.5345 51.0515C60.8522 51.3965 61.2218 51.7978 61.5073 52.3663C61.5073 52.3663 63.9322 55.7472 61.5073 59.1282C60.0522 61.0602 55.9787 63.7649 51.3231 59.1282L50.3529 60.0944C50.3529 60.0944 53.2626 63.4749 50.8378 66.8559C49.3831 68.7879 45.5032 70.72 42.1086 67.339L38.7138 70.72C36.3859 73.0383 33.5409 71.6858 32.4093 70.72L29.4995 67.8221C26.7837 65.1175 28.368 62.1871 29.4995 61.0602L54.7177 35.945C54.7177 35.945 52.2928 32.0811 52.2928 26.7683C52.2928 15.2983 61.6292 6 73.1466 6C84.6636 6 94 15.2983 94 26.7683ZM80.4216 26.7681C80.4216 30.7692 77.1647 34.0128 73.1471 34.0128C69.1294 34.0128 65.8726 30.7692 65.8726 26.7681C65.8726 22.7669 69.1294 19.5233 73.1471 19.5233C77.1647 19.5233 80.4216 22.7669 80.4216 26.7681Z" fill="#737373"/>
<path d="M0.875002 49.9539C0.875002 39.269 0.867729 30.9105 1.74295 24.4008C2.63142 17.7924 4.48534 12.5783 8.57778 8.48591C14.7602 2.30349 23.6026 1.16494 36.2445 0.875913C38.1368 0.832649 39.706 2.33162 39.7493 4.22398C39.7926 6.11633 38.2936 7.68541 36.4012 7.72869C23.5067 8.02349 17.4334 9.32421 13.4248 13.3329C10.8182 15.9394 9.32269 19.4659 8.53641 25.3141C7.73688 31.2609 7.72965 39.0752 7.72965 49.9539C7.72965 60.8326 7.73688 68.6469 8.53641 74.5938C9.32268 80.442 10.8182 83.9685 13.4248 86.5752C16.0313 89.1817 19.5578 90.6772 25.4061 91.4635C31.353 92.263 39.1673 92.2703 50.0461 92.2703C60.9247 92.2703 68.7389 92.263 74.6858 91.4635C80.534 90.6772 84.0605 89.1818 86.6672 86.5752C90.6757 82.5663 91.9763 76.4929 92.2712 63.5989C92.3145 61.7065 93.8837 60.2076 95.776 60.2508C97.6684 60.2941 99.1674 61.8633 99.1241 63.7557C98.835 76.3973 97.6962 85.2397 91.5142 91.4222L91.5141 91.4224C87.4215 95.5146 82.2075 97.3686 75.5991 98.2571C69.0894 99.1322 60.7309 99.125 50.0461 99.125C39.3611 99.125 31.0025 99.1322 24.4928 98.2571C17.8844 97.3686 12.6704 95.5147 8.57791 91.4224L8.57778 91.4222C4.48541 87.3297 2.63142 82.1156 1.74295 75.5072C0.867731 68.9974 0.875002 60.6389 0.875002 49.9539Z" fill="#737373"/>
</g>
<defs>
<clipPath id="clip0_3313_3693">
<rect width="100" height="100" fill="white"/>
</clipPath>
</defs>
</svg>
