<svg width="100" height="100" viewBox="0 0 100 100" fill="none" xmlns="http://www.w3.org/2000/svg">
<path fill-rule="evenodd" clip-rule="evenodd" d="M94 26.7683C94 38.2383 84.6636 47.5368 73.1466 47.5368C71.0448 47.5368 66.2598 47.0537 63.9322 45.1217L61.022 48.0195C59.3113 49.7236 59.7733 50.2252 60.5345 51.0515C60.8522 51.3965 61.2218 51.7978 61.5073 52.3663C61.5073 52.3663 63.9322 55.7472 61.5073 59.1282C60.0522 61.0602 55.9787 63.7649 51.3231 59.1282L50.3529 60.0944C50.3529 60.0944 53.2626 63.4749 50.8378 66.8559C49.3831 68.7879 45.5032 70.72 42.1086 67.339L38.7138 70.72C36.3859 73.0383 33.5409 71.6858 32.4093 70.72L29.4995 67.8221C26.7837 65.1175 28.368 62.1871 29.4995 61.0602L54.7177 35.945C54.7177 35.945 52.2928 32.0811 52.2928 26.7683C52.2928 15.2983 61.6292 6 73.1466 6C84.6636 6 94 15.2983 94 26.7683ZM80.4216 26.7681C80.4216 30.7692 77.1647 34.0128 73.1471 34.0128C69.1294 34.0128 65.8726 30.7692 65.8726 26.7681C65.8726 22.7669 69.1294 19.5233 73.1471 19.5233C77.1647 19.5233 80.4216 22.7669 80.4216 26.7681Z" fill="#737373"/>
<path d="M55.2611 6.00444C49.406 11.0195 45.6928 18.4548 45.6928 26.7684C45.6928 29.7655 46.2521 32.3869 46.8958 34.4199L24.8419 56.384C23.5284 57.6921 22.0129 59.9092 21.5429 62.7846C21.0053 66.0741 21.9588 69.6271 24.8419 72.4985L27.7517 75.3964C27.8713 75.5156 27.9955 75.63 28.1239 75.7396C29.4222 76.8479 31.5298 78.0936 34.1476 78.4808C37.0816 78.9142 40.5257 78.2075 43.3362 75.4307C45.0346 75.8588 46.7695 75.8922 48.442 75.5719C51.76 74.9366 54.4818 72.9882 56.1098 70.8265C56.1406 70.7856 56.171 70.7442 56.2009 70.7024C56.7857 69.8876 57.2327 69.0648 57.5662 68.2499C57.9922 68.2147 58.419 68.1566 58.8449 68.0761C62.6368 67.3567 65.3366 65.0137 66.779 63.0988C66.8098 63.0579 66.8401 63.0165 66.87 62.9747C69.1946 59.7341 69.4344 56.3686 69.012 53.8192C70.6083 54.0511 72.0752 54.1369 73.1462 54.1369C81.478 54.1369 88.9558 50.4316 93.9952 44.5752C94 46.3005 94 48.1071 94 50C94 70.7416 94 81.1128 87.5562 87.5562C81.1128 94 70.7416 94 50 94C29.2582 94 18.8873 94 12.4437 87.5562C6 81.1128 6 70.7416 6 50C6 29.2582 6 18.8873 12.4437 12.4437C18.8873 6 29.2582 6 50 6C51.833 6 53.5856 6 55.2611 6.00444Z" fill="#737373"/>
</svg>
