<svg width="100" height="100" viewBox="0 0 100 100" fill="none" xmlns="http://www.w3.org/2000/svg">
<path d="M50.0006 13.5415C55.8646 13.5415 60.6019 15.4849 68.7141 18.7297L80.4163 23.4105C84.4807 25.0363 87.7692 26.3472 90.0155 27.5249C91.1346 28.1116 92.2188 28.7768 93.0548 29.5787C93.9138 30.4027 94.7923 31.6523 94.7924 33.3331C94.7924 35.014 93.9138 36.2636 93.0548 37.0875C92.2188 37.8894 91.1347 38.5547 90.0155 39.1415C88.05 40.1719 85.2865 41.3044 81.9036 42.6605L68.7142 47.9368C60.602 51.1814 55.8646 53.1249 50.0006 53.1249C44.1366 53.1249 39.3993 51.1814 31.2872 47.9368L19.5852 43.2559C15.5208 41.6301 12.2323 40.3191 9.98596 39.1415C8.86681 38.5547 7.78256 37.8895 6.94653 37.0876C6.08754 36.2637 5.20898 35.0141 5.20898 33.3331C5.209 31.6522 6.08754 30.4027 6.94653 29.5787C7.78256 28.7768 8.8668 28.1116 9.98596 27.5249C12.2323 26.3472 15.5208 25.0363 19.5852 23.4105L31.2871 18.7297C39.3993 15.4849 44.1366 13.5415 50.0006 13.5415ZM50.0006 19.7915C45.5821 19.7915 42.045 21.158 33.6083 24.5327L21.9064 29.2135C17.6962 30.8975 14.7789 32.069 12.8879 33.0603C12.7032 33.1572 12.5367 33.2481 12.3868 33.3331C12.5367 33.4182 12.7032 33.5092 12.8879 33.6061C14.7789 34.5974 17.6962 35.7688 21.9064 37.4529L33.6084 42.1338C42.0452 45.5083 45.5821 46.8749 50.0006 46.8749C54.4191 46.8749 57.956 45.5083 66.3929 42.1338L78.0951 37.4529C82.3052 35.7689 85.2225 34.5974 87.1134 33.6061C87.2981 33.5092 87.4646 33.4182 87.6144 33.3331C87.4646 33.2481 87.2981 33.1572 87.1134 33.0603C85.2225 32.069 82.3052 30.8975 78.0951 29.2135L66.3929 24.5327C57.9561 21.158 54.4191 19.7915 50.0006 19.7915Z" fill="#737373"/>
<path d="M89.5848 47.6701C90.8696 46.5216 92.8423 46.6299 93.9935 47.9132C95.146 49.198 95.0387 51.1737 93.754 52.3262L91.6673 50C93.7509 52.3226 93.7534 52.3268 93.7528 52.3274C93.7526 52.3276 93.7518 52.3282 93.7513 52.3286C93.7504 52.3295 93.7493 52.3304 93.7483 52.3313C93.7461 52.3333 93.7436 52.3355 93.741 52.3379C93.7356 52.3427 93.7291 52.3484 93.7217 52.355C93.7068 52.3682 93.6877 52.3848 93.6645 52.4048C93.6182 52.4449 93.5554 52.4985 93.4762 52.5647C93.3176 52.6971 93.0931 52.8797 92.8025 53.1043C92.2213 53.5534 91.3755 54.171 90.2649 54.8913C88.1131 56.2868 84.965 58.0695 80.8204 59.7596L80.4162 59.9228L68.7141 64.6035V64.6037C60.6019 67.8483 55.8646 69.7917 50.0006 69.7917C44.1366 69.7916 39.3993 67.8483 31.2872 64.6037L31.2871 64.6035L19.5852 59.9228H19.5851C15.2405 58.1848 11.9578 56.3318 9.73656 54.8913C8.62589 54.171 7.78002 53.5534 7.19884 53.1043C6.90825 52.8797 6.68367 52.6972 6.52513 52.5648C6.44585 52.4987 6.38307 52.4449 6.33678 52.4048C6.31363 52.3848 6.29456 52.3682 6.27965 52.355C6.27219 52.3484 6.26575 52.3427 6.26036 52.3379C6.25767 52.3355 6.25521 52.3334 6.25303 52.3315C6.25194 52.3305 6.25095 52.3295 6.24998 52.3286C6.2495 52.3282 6.24876 52.3276 6.24852 52.3274C6.24803 52.3267 6.26584 52.3056 8.33397 50L6.2473 52.3262C4.96257 51.1737 4.85535 49.1981 6.0078 47.9134C7.15956 46.6294 9.13353 46.5215 10.4183 47.6718C10.4176 47.6711 10.417 47.6705 10.4164 47.67C10.4152 47.6689 10.4143 47.6681 10.4137 47.6675L10.4282 47.6802C10.4466 47.6961 10.4808 47.7254 10.5307 47.7671C10.6308 47.8506 10.7941 47.9839 11.0206 48.159C11.4737 48.5091 12.1794 49.0263 13.1373 49.6475C15.0533 50.8901 17.9764 52.5477 21.9064 54.1198L33.6081 58.8006C42.045 62.1751 45.5821 63.5416 50.0006 63.5417C54.4191 63.5417 57.956 62.1751 66.3929 58.8006L78.095 54.1198C82.0249 52.5477 84.948 50.8901 86.864 49.6475C87.8219 49.0262 88.5276 48.5091 88.9807 48.159C89.2072 47.9839 89.3705 47.8506 89.4706 47.7671C89.5205 47.7254 89.5548 47.6961 89.5731 47.6802L89.5876 47.6675C89.587 47.6681 89.586 47.669 89.5848 47.6701Z" fill="#737373"/>
<path d="M89.5848 64.3366C90.8696 63.1881 92.8423 63.2965 93.9935 64.5797C95.146 65.8645 95.0387 67.8402 93.754 68.9927L91.6673 66.6665C93.7519 68.9903 93.7534 68.9933 93.7528 68.9939C93.7526 68.9941 93.7518 68.9947 93.7513 68.9951C93.7504 68.996 93.7493 68.9969 93.7483 68.9978C93.7461 68.9998 93.7436 69.002 93.741 69.0044C93.7356 69.0092 93.7291 69.0149 93.7217 69.0215C93.7068 69.0347 93.6877 69.0513 93.6645 69.0713C93.6182 69.1114 93.5554 69.1651 93.4762 69.2312C93.3176 69.3636 93.0931 69.5462 92.8025 69.7708C92.2213 70.2199 91.3755 70.8375 90.2649 71.5578C88.1131 72.9533 84.965 74.736 80.8204 76.4261L80.4162 76.5893L68.7141 81.2701V81.2702C60.6019 84.5148 55.8646 86.4582 50.0006 86.4582C44.1366 86.4582 39.3993 84.5148 31.2872 81.2702L31.2871 81.2701L19.5852 76.5893H19.5851C15.2405 74.8513 11.9578 72.9983 9.73656 71.5578C8.62589 70.8375 7.78002 70.2199 7.19884 69.7708C6.90825 69.5462 6.68367 69.3637 6.52513 69.2314C6.44585 69.1652 6.38307 69.1114 6.33678 69.0713C6.31363 69.0513 6.29456 69.0347 6.27965 69.0215C6.27219 69.0149 6.26576 69.0092 6.26036 69.0044C6.25767 69.002 6.25521 68.9999 6.25304 68.998C6.25194 68.997 6.25095 68.996 6.24998 68.9951C6.2495 68.9947 6.24876 68.9941 6.24852 68.9939C6.24802 68.9932 6.26518 68.9728 8.33397 66.6665L6.2473 68.9927C4.96257 67.8403 4.85535 65.8646 6.0078 64.5799C7.15956 63.2959 9.13353 63.188 10.4183 64.3383C10.4176 64.3377 10.417 64.337 10.4164 64.3365C10.4152 64.3354 10.4143 64.3346 10.4137 64.334L10.4282 64.3467C10.4466 64.3626 10.4808 64.3919 10.5307 64.4336C10.6308 64.5171 10.7941 64.6504 11.0206 64.8255C11.4737 65.1756 12.1794 65.6928 13.1373 66.314C15.0533 67.5566 17.9764 69.2142 21.9064 70.7863L33.6081 75.4671C42.045 78.8416 45.5821 80.2082 50.0006 80.2082C54.4191 80.2082 57.956 78.8416 66.3929 75.4671L78.095 70.7863C82.0249 69.2142 84.948 67.5566 86.864 66.314C87.8219 65.6927 88.5276 65.1756 88.9807 64.8255C89.2072 64.6504 89.3705 64.5171 89.4706 64.4336C89.5205 64.3919 89.5548 64.3626 89.5731 64.3467L89.5876 64.334C89.587 64.3346 89.586 64.3355 89.5848 64.3366Z" fill="#737373"/>
</svg>
