<svg width="100" height="100" viewBox="0 0 100 100" fill="none" xmlns="http://www.w3.org/2000/svg">
<path d="M31.7691 18.5369C39.589 15.408 44.254 13.5415 50.0006 13.5415C55.7473 13.5415 60.4123 15.408 68.2323 18.5369L80.6052 23.4861C84.5823 25.077 87.804 26.3655 90.0152 27.5249C91.1344 28.1116 92.2186 28.7768 93.0548 29.5788C93.914 30.4027 94.7923 31.6523 94.7923 33.3332C94.7923 35.0141 93.914 36.2637 93.0548 37.0876C92.2186 37.8895 91.1344 38.5547 90.0152 39.1415C87.804 40.3008 84.5823 41.5893 80.6052 43.1803L68.2323 48.1294C60.4123 51.2582 55.7473 53.1248 50.0006 53.1248C44.254 53.1248 39.589 51.2582 31.7691 48.1294L19.3963 43.1803C15.4189 41.5894 12.1973 40.3008 9.98594 39.1415C8.86673 38.5547 7.78253 37.8895 6.94653 37.0876C6.08753 36.2637 5.20898 35.0141 5.20898 33.3332C5.20898 31.6523 6.08753 30.4027 6.94653 29.5788C7.78253 28.7768 8.86673 28.1116 9.98594 27.5249C12.1974 26.3655 15.4189 25.077 19.3963 23.486L31.7691 18.5369Z" fill="#737373"/>
<path fill-rule="evenodd" clip-rule="evenodd" d="M10.419 47.673L10.4131 47.6676L10.4276 47.6801C10.446 47.6963 10.4802 47.7255 10.5302 47.7671C10.6302 47.8509 10.7935 47.9838 11.0201 48.1588C11.4732 48.5092 12.1788 49.0263 13.1368 49.6476C15.0528 50.8901 17.9759 52.548 21.9058 54.1196L33.6078 58.8005C42.0447 62.1751 45.5818 63.5417 50.0001 63.5417C54.4184 63.5417 57.9555 62.1751 66.3926 58.8005L78.0943 54.1196C82.0243 52.548 84.9476 50.8901 86.8634 49.6476C87.8214 49.0263 88.5272 48.5092 88.9801 48.1588C89.2068 47.9838 89.3701 47.8509 89.4701 47.7671C89.5201 47.7255 89.5543 47.6963 89.5726 47.6801L89.5814 47.673C89.5834 47.6709 89.5859 47.6688 89.588 47.6667C90.873 46.5217 92.843 46.6313 93.993 47.9134C95.1455 49.198 95.0384 51.1738 93.7534 52.3263L91.6668 50.0001C93.7534 52.3263 93.7543 52.3255 93.7534 52.3263L93.7476 52.3313L93.7405 52.338L93.7209 52.3551L93.6638 52.4051C93.6176 52.4451 93.5551 52.4988 93.4755 52.5646C93.3172 52.6971 93.0926 52.8796 92.8018 53.1042C92.2205 53.5534 91.3747 54.1709 90.2643 54.8913C88.043 56.3317 84.7601 58.1851 80.4155 59.9226L68.7134 64.6034C68.5518 64.6684 68.3909 64.7326 68.2318 64.7963C60.4118 67.9251 55.7468 69.7917 50.0001 69.7917C44.2534 69.7917 39.5885 67.9251 31.7685 64.7963C31.6092 64.7326 31.4486 64.6684 31.2866 64.6034L19.5846 59.9226C15.2401 58.1851 11.9572 56.3317 9.73602 54.8913C8.62531 54.1709 7.77948 53.5534 7.19831 53.1042C6.90769 52.8796 6.68311 52.6971 6.52456 52.5646C6.44527 52.4988 6.38248 52.4451 6.33619 52.4051L6.27911 52.3551L6.25981 52.338L6.25248 52.3313L6.24802 52.3276C6.24736 52.3267 6.24673 52.3263 8.33344 50.0001L6.24802 52.3276C4.96327 51.1751 4.85477 49.198 6.00723 47.9134C7.1574 46.6313 9.12823 46.5226 10.4131 47.6676M10.4124 64.3338C9.12752 63.1884 7.1574 63.298 6.00723 64.5801L10.4124 64.3338ZM10.4124 64.3338L10.4276 64.3467C10.446 64.363 10.4802 64.3921 10.5302 64.4338C10.6302 64.5176 10.7935 64.6505 11.0201 64.8255C11.4732 65.1759 12.1788 65.693 13.1368 66.3142C15.0528 67.5567 17.9759 69.2142 21.9058 70.7863L33.6078 75.4671C42.0447 78.8417 45.5818 80.2084 50.0001 80.2084C54.4184 80.2084 57.9555 78.8417 66.3926 75.4671L78.0943 70.7863C82.0243 69.2142 84.9476 67.5567 86.8634 66.3142C87.8214 65.693 88.5272 65.1759 88.9801 64.8255C89.2068 64.6505 89.3701 64.5176 89.4701 64.4338C89.5201 64.3921 89.5543 64.363 89.5726 64.3467L89.5814 64.3396C89.5834 64.3376 89.5859 64.3355 89.588 64.3334C90.873 63.1884 92.843 63.298 93.993 64.5801C95.1455 65.8646 95.0384 67.8405 93.7534 68.993L91.7359 66.7438C93.7534 68.993 93.7543 68.9921 93.7534 68.993L93.7476 68.998L93.7405 69.0046L93.7209 69.0217L93.6638 69.0717C93.6176 69.1117 93.5551 69.1655 93.4755 69.2313C93.3172 69.3638 93.0926 69.5463 92.8018 69.7709C92.2205 70.2201 91.3747 70.8376 90.2643 71.558C88.043 72.9984 84.7601 74.8517 80.4155 76.5892L68.7134 81.2701C68.5518 81.3351 68.3909 81.3992 68.2318 81.463C60.4118 84.5917 55.7468 86.4584 50.0001 86.4584C44.2534 86.4584 39.5885 84.5917 31.7686 81.463C31.6092 81.3992 31.4486 81.3351 31.2866 81.2701L19.5846 76.5892C15.2401 74.8517 11.9572 72.9984 9.73602 71.558C8.62531 70.8376 7.77948 70.2201 7.19831 69.7709C6.90769 69.5463 6.68311 69.3638 6.52456 69.2313C6.44527 69.1655 6.38248 69.1117 6.33619 69.0717L6.27911 69.0217L6.25981 69.0046L6.25248 68.998L6.24802 68.9942C6.24736 68.9934 6.24673 68.993 8.33344 66.6667L6.24802 68.9942C4.96327 67.8417 4.85477 65.8646 6.00723 64.5801" fill="#737373"/>
</svg>
