<svg width="100" height="101" viewBox="0 0 100 101" fill="none" xmlns="http://www.w3.org/2000/svg">
<path d="M84.0692 37.4621L89 35.9228L87.3981 32.3977C86.2218 33.8624 85.0454 35.7492 84.0692 37.4621ZM82.3924 21.3502L72.7313 0L2 3.97213L21.5975 57L59.3159 45.2078C56.913 41.7819 56.0371 37.7104 58.8153 35.7244C61.9189 33.49 66.5993 36.0718 69.5777 39.7212C72.456 34.9548 80.5402 23.8576 82.3924 21.3502Z" fill="#737373"/>
<path d="M70.5001 15.3443C73.5328 15.3443 76 13.0397 76 10.1721C76 7.30441 73.5328 5 70.5001 5C67.4674 5 65 7.30441 65 10.1721C65 13.0143 67.4674 15.3443 70.5001 15.3443ZM66.0024 17.5718H74.9976V41H66.0024V17.5718Z" fill="#FEFEFE"/>
<path d="M61.3909 24.2443C61.464 24.2697 61.5127 24.2443 61.5127 24.1678V18.2581C61.5127 18.1817 61.464 18.1052 61.3909 18.0543C61.3909 18.0543 60.2703 17.29 56.8594 17.0862C56.6889 16.9843 53.6922 16.9589 52.8882 17.0862C40.4629 18.1307 40 27.5303 40 27.9379V30.2304C40 30.5107 40 40.114 52.8882 40.9547C54.1551 41.0566 56.6158 40.9547 56.8594 40.9547C59.8317 40.9547 61.8782 40.0121 61.8782 40.0121C61.9513 39.9867 62 39.9103 62 39.8338V34.3062C62 34.2298 61.9513 34.2043 61.9025 34.2552C61.9025 34.2552 60.9769 35.0195 56.9325 35.4526C55.7874 35.5797 55.227 35.529 54.8128 35.4526C49.0631 34.4336 48.7951 30.0521 48.7951 30.0521C48.7951 29.9757 48.7707 29.8483 48.7707 29.7974V28.1162C48.7707 28.0398 48.7707 27.9124 48.7951 27.8615C48.7951 27.8615 49.1849 23.1488 54.8128 22.6394H56.9325C59.3932 22.9705 61.3909 24.2443 61.3909 24.2443Z" fill="#FEFEFE"/>
<path d="M16 40.8746C16 40.9499 16.0488 41 16.1221 41H24.4483C24.5216 41 24.5704 40.9499 24.5704 40.8746V34.2063C24.5704 34.131 24.6193 34.0809 24.6925 34.0809C24.6925 34.0809 38 35.0587 38 25.9085C38 18.6635 29.6493 17.8863 26.9144 18.0116C26.8658 18.0116 16.1221 18.0116 16.1221 18.0116C16.0488 18.0116 16 18.0618 16 18.137V40.8746ZM24.4239 28.992V23.0005H26.4751C26.4751 23.0005 29.4296 23.1258 29.6738 25.2065C29.7226 25.3569 29.7226 26.3848 29.6738 26.4349C29.2831 28.8666 26.7193 28.992 26.7193 28.992H24.4239Z" fill="#FEFEFE"/>
<path d="M71.0564 52C71.7537 52 72.3016 52 73.1979 51.5934C76.2857 49.9418 86.7195 23.9473 97.7261 15.943C97.8008 15.8922 97.8755 15.8159 97.9253 15.7397C98 15.6381 98 15.5364 98 15.5364C98 15.5364 98 15.0028 96.3813 15.0028C86.595 14.7232 76.4102 35.6867 71.0564 43.9705C70.9817 44.0721 70.6331 43.9705 70.6331 43.9705C70.6331 43.9705 67.0473 39.6507 63.9346 37.999C63.8599 37.9735 63.5112 37.8467 63.1377 37.8721C62.8886 37.8721 61.4445 38.1768 60.7721 38.8884C59.9752 39.7524 60.0001 40.2352 60.0001 41.277C60.0001 41.3531 60.0499 41.7089 60.1495 41.8867C60.9215 43.259 64.3828 48.1376 67.2465 50.8313C67.6698 51.1616 68.3422 52 71.0564 52Z" fill="#737373"/>
<path d="M17.7675 97.6873L20 98.3216C19.8511 98.9207 19.6279 99.4141 19.293 99.8018C18.9581 100.189 18.586 100.507 18.1024 100.683C17.6186 100.894 17.0233 101 16.279 101C15.3861 101 14.6791 100.894 14.0838 100.648C13.5257 100.401 13.0419 99.9779 12.6327 99.3435C12.2234 98.7444 12 97.9339 12 96.9824C12 95.7136 12.3721 94.7268 13.0791 94.0221C13.7861 93.3172 14.828 93 16.1303 93C17.1722 93 17.9535 93.2114 18.5488 93.5991C19.1441 93.9868 19.5907 94.5859 19.8511 95.4317L17.6186 95.8899C17.5441 95.6433 17.4698 95.467 17.3582 95.3612C17.2092 95.185 17.0605 95.044 16.8373 94.9384C16.6139 94.8326 16.3907 94.7973 16.1675 94.7973C15.6093 94.7973 15.1629 95.0089 14.8652 95.467C14.6418 95.7841 14.5303 96.3127 14.5303 96.9824C14.5303 97.8281 14.6791 98.4273 14.9395 98.7444C15.2001 99.0616 15.6093 99.2379 16.0931 99.2379C16.5767 99.2379 16.9488 99.0969 17.1722 98.8502C17.4698 98.533 17.6558 98.1806 17.7675 97.6873Z" fill="#737373"/>
<path d="M21 97.0176C21 95.7489 21.3929 94.7621 22.179 94.0573C22.965 93.3524 24.0655 93 25.4802 93C26.9345 93 28.035 93.3525 28.821 94.0221C29.607 94.727 30 95.6784 30 96.9471C30 97.8634 29.8429 98.6036 29.4892 99.1674C29.1354 99.7313 28.6638 100.189 27.9956 100.507C27.3668 100.824 26.5414 101 25.5982 101C24.6157 101 23.8296 100.859 23.1615 100.577C22.5327 100.295 22.0218 99.8723 21.5895 99.2379C21.1571 98.6036 21 97.9339 21 97.0176ZM23.6725 97.0176C23.6725 97.7931 23.8296 98.3569 24.144 98.7093C24.4584 99.0616 24.8908 99.2379 25.4802 99.2379C26.0699 99.2379 26.5021 99.0616 26.8167 98.7444C27.1311 98.3922 27.2882 97.7931 27.2882 96.9471C27.2882 96.2071 27.1311 95.6784 26.7774 95.3612C26.463 95.0089 25.9913 94.8679 25.4411 94.8679C24.8908 94.8679 24.4584 95.0442 24.144 95.3964C23.8296 95.6784 23.6725 96.2424 23.6725 97.0176Z" fill="#737373"/>
<path d="M31.0726 93H34.3025L35.5363 97.8726L36.7702 93H40V101H37.9677V94.8909L36.4072 101H34.5928L33.0323 94.8909V101H31V93H31.0726Z" fill="#737373"/>
<path d="M41 93H45.2526C46.1935 93 46.8709 93.2171 47.3226 93.6516C47.7741 94.0859 48 94.6651 48 95.4615C48 96.2578 47.7364 96.9094 47.2473 97.3439C46.7579 97.8146 45.9677 98.0317 44.9516 98.0317H43.5591V101H41V93ZM43.5591 96.4027H44.1989C44.6882 96.4027 45.0269 96.3303 45.2526 96.1494C45.4407 95.9683 45.5537 95.7873 45.5537 95.534C45.5537 95.2806 45.4784 95.0633 45.2903 94.8824C45.102 94.7013 44.801 94.629 44.3118 94.629H43.5967V96.4027H43.5591Z" fill="#737373"/>
<path d="M50 93H52.345V99.0363H56V101H50V93Z" fill="#737373"/>
<path d="M57 93H60V101H57V93Z" fill="#737373"/>
<path d="M66.8876 99.6909H64.0001L63.5875 101H61L64.1124 93H66.8876L70 101H67.3375L66.8876 99.6909ZM66.3624 97.9817L65.4625 95.109L64.5625 97.9817H66.3624Z" fill="#737373"/>
<path d="M70 93H72.4L75.5618 97.4363V93H78V101H75.5618L72.4382 96.5999V101H70V93Z" fill="#737373"/>
<path d="M79 93H87V94.9637H84.3333V101H81.7053V94.9637H79.0385V93H79Z" fill="#737373"/>
<path d="M12 62H23.9818C26.3633 62 28.2687 62.3287 29.6978 62.9494C31.1633 63.6068 32.3725 64.5197 33.2885 65.6881C34.2411 66.8932 34.9373 68.2809 35.3404 69.8511C35.7802 71.4213 36 73.1011 36 74.8904C36 77.6658 35.6702 79.8203 35.0473 81.3539C34.4244 82.8876 33.5451 84.1657 32.4091 85.2248C31.2733 86.2473 30.0642 86.941 28.7818 87.3061C27.0229 87.781 25.4107 88 23.9818 88H12V62ZM20.0611 67.8791V82.0843H22.0398C23.7251 82.0843 24.9344 81.9016 25.6305 81.5364C26.3267 81.1714 26.9129 80.5141 27.316 79.601C27.7191 78.6881 27.9389 77.1545 27.9389 75.0731C27.9389 72.2977 27.4993 70.4353 26.5831 69.4128C25.6671 68.3905 24.2016 67.8791 22.0762 67.8791H20.0611Z" fill="#737373"/>
<path d="M38 79.9268L45.7898 79.4513C45.9752 80.6952 46.3091 81.6464 46.8285 82.3049C47.6816 83.3658 48.8685 83.8781 50.4265 83.8781C51.5765 83.8781 52.5038 83.622 53.1344 83.0731C53.765 82.5244 54.0989 81.9024 54.0989 81.2073C54.0989 80.5487 53.8021 79.9268 53.2086 79.3781C52.6152 78.8293 51.2055 78.3536 49.017 77.8781C45.4188 77.0732 42.8965 76.0121 41.3385 74.695C39.7804 73.3781 39.0387 71.6952 39.0387 69.6463C39.0387 68.2928 39.4466 67.0487 40.2256 65.8415C41.0047 64.6342 42.1916 63.7196 43.7867 63.0244C45.3817 62.3293 47.5331 62 50.2782 62C53.6537 62 56.2503 62.6219 57.9938 63.8658C59.7744 65.1099 60.8129 67.0853 61.1467 69.7927L53.4311 70.2318C53.2086 69.061 52.8006 68.2196 52.1328 67.6708C51.4651 67.1219 50.5749 66.8659 49.4251 66.8659C48.4606 66.8659 47.7558 67.0487 47.2735 67.4512C46.7914 67.8537 46.5687 68.3292 46.5687 68.9147C46.5687 69.317 46.7542 69.7195 47.1623 70.0488C47.5331 70.3781 48.4606 70.7073 49.9072 71C53.4683 71.7684 56.0278 72.5366 57.5857 73.3049C59.1438 74.0731 60.2565 75.0609 60.9613 76.1952C61.6661 77.3292 62 78.6463 62 80.0732C62 81.756 61.5177 83.2927 60.5904 84.6829C59.663 86.1098 58.3276 87.1706 56.6583 87.9024C54.9891 88.6341 52.8377 89 50.2782 89C45.7898 89 42.6738 88.1584 40.9305 86.439C39.2241 84.7195 38.2596 82.561 38 79.9268Z" fill="#737373"/>
<path d="M64 79.9268L71.7898 79.4513C71.9752 80.6952 72.3091 81.6464 72.8285 82.3049C73.6816 83.3658 74.8685 83.8781 76.4266 83.8781C77.5765 83.8781 78.5038 83.622 79.1344 83.0731C79.765 82.5244 80.0989 81.9024 80.0989 81.2073C80.0989 80.5487 79.8021 79.9268 79.2086 79.3781C78.6152 78.8293 77.2055 78.3536 75.017 77.8781C71.4188 77.0732 68.8965 76.0121 67.3385 74.695C65.8175 73.3781 65.0387 71.6952 65.0387 69.6463C65.0387 68.2928 65.4468 67.0487 66.2256 65.8415C67.0047 64.6342 68.1916 63.7196 69.7867 63.0244C71.3817 62.3293 73.5333 62 76.2782 62C79.6538 62 82.2504 62.6219 83.9938 63.8658C85.7744 65.1099 86.8129 67.0853 87.1467 69.7927L79.4311 70.2318C79.2086 69.061 78.8006 68.2196 78.1328 67.6708C77.4651 67.1219 76.5749 66.8659 75.4251 66.8659C74.4606 66.8659 73.7558 67.0487 73.2735 67.4512C72.7914 67.8537 72.5687 68.3292 72.5687 68.9147C72.5687 69.317 72.7542 69.7195 73.1623 70.0488C73.5333 70.3781 74.4606 70.7073 75.9072 71C79.4683 71.7684 82.0277 72.5366 83.5858 73.3049C85.1438 74.0731 86.2565 75.0609 86.9613 76.1952C87.6661 77.3292 88 78.6463 88 80.0732C88 81.756 87.5177 83.2927 86.5904 84.6829C85.663 86.1098 84.3276 87.1706 82.6583 87.9024C80.9892 88.6341 78.8377 89 76.2782 89C71.7898 89 68.6738 88.1584 66.9305 86.439C65.187 84.7195 64.2225 82.561 64 79.9268Z" fill="#737373"/>
</svg>
