<svg width="28" height="28" viewBox="0 0 28 28" fill="none" xmlns="http://www.w3.org/2000/svg">
<path d="M25.743 7.90661C25.2134 7.37851 24.3541 7.37876 23.8241 7.90661L21.0806 10.6397L17.2167 6.79087L19.9606 4.05751C20.4905 3.52966 20.4905 2.67387 19.9606 2.14589C19.4309 1.61816 18.5719 1.61791 18.0415 2.14589L15.2847 4.89199C13.4462 3.35436 10.6917 3.44611 8.9628 5.16798L8.95862 5.1637L7.74265 6.37499C4.32396 9.78051 3.98369 15.0909 6.72159 18.8759C6.87137 19.0831 6.84887 19.3683 6.66761 19.5487L2.25689 23.9427C1.72687 24.4706 1.72687 25.3262 2.25689 25.8542C2.52178 26.1179 2.86918 26.25 3.21633 26.25C3.56361 26.25 3.91089 26.1179 4.1759 25.8541L8.64577 21.4012C8.82113 21.2265 9.09438 21.1988 9.30183 21.334C13.0721 23.7913 18.1795 23.3703 21.4917 20.0709L22.6546 18.9126C22.6727 18.8949 22.6924 18.88 22.7105 18.8623C24.4391 17.1399 24.5306 14.3956 22.9867 12.5638L25.7431 9.81787C26.2731 9.29038 26.2731 8.43447 25.743 7.90661ZM21.2928 17.4502C20.2479 18.4908 18.5478 18.4908 17.503 17.4498L10.3808 10.3553C9.33577 9.31439 9.33578 7.62094 10.3807 6.58018C11.327 5.63778 12.81 5.54896 13.8579 6.31349L12.4775 7.68856C11.9475 8.21641 11.9475 9.0722 12.4775 9.60018C12.7425 9.86417 13.0898 9.99611 13.4371 9.99611C13.7842 9.99611 14.1316 9.86405 14.3965 9.60018L15.7991 8.20306L19.6629 12.0519L18.2604 13.4492C17.7304 13.9771 17.7304 14.8328 18.2605 15.3609C18.5254 15.6246 18.8728 15.7567 19.2201 15.7567C19.5671 15.7567 19.9145 15.6247 20.1796 15.3607L21.5599 13.9857C22.328 15.0295 22.2387 16.5076 21.2928 17.4502Z" fill="#737373"/>
</svg>
