<svg width="100" height="100" viewBox="0 0 100 100" fill="none" xmlns="http://www.w3.org/2000/svg">
<path d="M50 61C56.075 61 61 56.075 61 50C61 43.9251 56.075 39 50 39C43.9251 39 39 43.9251 39 50C39 56.075 43.9251 61 50 61Z" fill="#737373"/>
<path d="M85.4296 80C84.6982 80 84.0125 79.7778 83.3726 79.3334C81.8641 78.2223 81.5441 76.1334 82.6869 74.6668C88.2179 67.5114 91.1434 58.9783 91.1434 50.0007C91.1434 41.023 88.2179 32.4898 82.6869 25.3344C81.5441 23.8678 81.8641 21.779 83.3726 20.6679C84.881 19.5568 87.0294 19.8679 88.1722 21.3345C94.6174 29.6454 98 39.5563 98 50.0007C98 60.4449 94.6174 70.3558 88.1722 78.6667C87.4865 79.5556 86.4809 80 85.4296 80Z" fill="#737373"/>
<path d="M14.5704 80C13.5191 80 12.5135 79.5556 11.8278 78.6667C5.38259 70.3558 2 60.4449 2 50.0007C2 39.5563 5.38259 29.6454 11.8278 21.3345C12.9706 19.8679 15.119 19.5568 16.6274 20.6679C18.1359 21.779 18.4559 23.8678 17.3131 25.3344C11.7821 32.4898 8.85661 41.023 8.85661 50.0007C8.85661 58.9783 11.7821 67.5114 17.3131 74.6668C18.4559 76.1334 18.1359 78.2223 16.6274 79.3334C16.0332 79.7778 15.3018 80 14.5704 80Z" fill="#737373"/>
<path d="M71.3342 69C70.6232 69 69.9566 68.7816 69.3344 68.3448C67.8679 67.2529 67.5568 65.2001 68.6678 63.7588C71.7342 59.7842 73.334 55.0234 73.334 50.0006C73.334 44.9777 71.7342 40.217 68.6678 36.2424C67.5568 34.8011 67.8679 32.7483 69.3344 31.6563C70.8009 30.5644 72.8896 30.8702 74.0006 32.3115C77.9113 37.4654 80 43.5801 80 50.0006C80 56.4211 77.9113 62.5795 74.0006 67.6897C73.334 68.5632 72.3563 69 71.3342 69Z" fill="#737373"/>
<path d="M28.6658 69C27.6437 69 26.666 68.5632 25.9994 67.6897C22.0887 62.5795 20 56.4211 20 50.0006C20 43.5801 22.0887 37.4217 25.9994 32.3115C27.1104 30.8702 29.1991 30.5644 30.6656 31.6563C32.1321 32.7483 32.4432 34.8011 31.3322 36.2424C28.2658 40.217 26.666 44.9777 26.666 50.0006C26.666 55.0234 28.2658 59.7842 31.3322 63.7588C32.4432 65.2001 32.1321 67.2529 30.6656 68.3448C30.0879 68.7816 29.3768 69 28.6658 69Z" fill="#737373"/>
</svg>
