<svg width="100" height="100" viewBox="0 0 100 100" fill="none" xmlns="http://www.w3.org/2000/svg">
<g clip-path="url(#clip0_3312_1972)">
<path d="M96.0436 55.0891C96.9448 53.9305 97.3824 52.4372 96.9834 50.9139L85.1527 6.07174C84.4662 3.47986 81.8013 1.9266 79.2138 2.61312L3.61734 22.5453C1.03839 23.2276 -0.519244 25.9011 0.158715 28.4886L11.9894 73.3264C12.6673 75.9139 15.345 77.4674 17.9327 76.7894L44.6448 69.7434V84.758C44.6448 93.1557 58.5609 97.5499 72.3182 97.5499C86.067 97.5499 100 93.1557 100 84.7582V61.9893C100 59.2557 98.5024 56.9557 96.0436 55.0891ZM87.4828 39.6325L88.7186 44.3013L73.691 48.2705L72.4638 43.5933L87.4828 39.6325ZM78.7632 10.0926L81.1104 18.9838L57.6337 25.1801L55.2865 16.2889L78.7632 10.0926ZM68.2286 44.7089L69.4301 49.2745C63.8732 49.5234 58.4664 50.4932 54.1237 52.1495L53.2055 48.6823L68.2286 44.7089ZM15.9113 63.5039L14.6841 58.8438L29.7072 54.8701L30.943 59.5559L15.9113 63.5039ZM33.9427 53.7589L48.9573 49.7896L50.0944 54.0678C49.7295 54.291 49.3864 54.5226 49.0516 54.7587L35.1699 58.4232L33.9427 53.7589ZM94.9881 84.3888C94.9881 89.2849 84.844 93.25 72.3182 93.25C59.8054 93.25 49.6525 89.2807 49.6525 84.3888V78.8748C49.6525 78.6902 49.7598 78.5229 49.7898 78.347C50.5063 82.9901 60.2643 86.6717 72.3182 86.6717C84.3763 86.6717 94.1384 82.9899 94.8508 78.347C94.8809 78.5229 94.9881 78.6904 94.9881 78.8748V84.3888ZM94.9881 73.5408C94.9881 78.4328 84.844 82.3977 72.3182 82.3977C59.8054 82.3977 49.6525 78.4328 49.6525 73.5408V68.0268C49.6525 67.8466 49.7598 67.6749 49.7898 67.4991C50.5063 72.1378 60.2643 75.8282 72.3182 75.8282C84.3763 75.8282 94.1384 72.1378 94.8508 67.4991C94.8809 67.6749 94.9881 67.8466 94.9881 68.0268V73.5408ZM72.318 70.8417C59.8052 70.8417 49.6523 66.8768 49.6523 61.9891C49.6523 57.1015 59.805 53.1366 72.318 53.1366C84.8438 53.1366 94.9879 57.1015 94.9879 61.9891C94.9881 66.8768 84.8438 70.8417 72.318 70.8417Z" fill="#737373"/>
</g>
<defs>
<clipPath id="clip0_3312_1972">
<rect width="100" height="100" fill="white"/>
</clipPath>
</defs>
</svg>
