<svg width="100" height="100" viewBox="0 0 100 100" fill="none" xmlns="http://www.w3.org/2000/svg">
<g clip-path="url(#clip0_3313_2800)">
<path d="M86.8058 20.5554C80.5112 18.8754 74.3618 16.6925 68.4169 14.0276C62.5681 11.4904 56.922 8.50951 51.528 5.11095L50.0002 4.1665L48.5002 5.13873C43.1062 8.53729 37.4601 11.5182 31.6113 14.0554C25.6566 16.7122 19.4978 18.8858 13.1947 20.5554L11.1113 21.0832V44.2498C11.1113 81.4443 48.6947 95.3609 49.0558 95.4998L50.0002 95.8332L50.9447 95.4998C51.3335 95.4998 88.8891 81.4721 88.8891 44.2498V21.0832L86.8058 20.5554ZM74.1113 39.0276L43.0835 69.1665L25.528 51.5832C24.7913 50.8465 24.3774 49.8473 24.3774 48.8054C24.3774 47.7635 24.7913 46.7643 25.528 46.0276C26.2647 45.2909 27.2639 44.877 28.3058 44.877C29.3476 44.877 30.3468 45.2909 31.0835 46.0276L43.1669 58.3332L68.6947 33.3332C69.0594 32.9684 69.4925 32.679 69.9691 32.4816C70.4457 32.2842 70.9566 32.1826 71.4724 32.1826C71.9883 32.1826 72.4991 32.2842 72.9758 32.4816C73.4524 32.679 73.8854 32.9684 74.2502 33.3332C74.615 33.698 74.9044 34.131 75.1018 34.6076C75.2992 35.0842 75.4008 35.5951 75.4008 36.1109C75.4008 36.6268 75.2992 37.1377 75.1018 37.6143C74.9044 38.0909 74.615 38.5239 74.2502 38.8887L74.1113 39.0276Z" fill="#737373"/>
</g>
<defs>
<clipPath id="clip0_3313_2800">
<rect width="100" height="100" fill="white"/>
</clipPath>
</defs>
</svg>
