<svg width="100" height="100" viewBox="0 0 100 100" fill="none" xmlns="http://www.w3.org/2000/svg">
<path d="M50 40C61.0457 40 70 31.0457 70 20C70 8.9543 61.0457 0 50 0C38.9543 0 30 8.9543 30 20C30 31.0457 38.9543 40 50 40Z" fill="#737373"/>
<path fill-rule="evenodd" clip-rule="evenodd" d="M72.5 100C64.2505 100 60.1255 100 57.563 97.437C55 94.8745 55 90.7495 55 82.5C55 74.2505 55 70.1255 57.563 67.563C60.1255 65 64.2505 65 72.5 65C80.7495 65 84.8745 65 87.437 67.563C90 70.1255 90 74.2505 90 82.5C90 90.7495 90 94.8745 87.437 97.437C84.8745 100 80.7495 100 72.5 100ZM75.4165 74.722C75.4165 73.1115 74.111 71.8055 72.5 71.8055C70.889 71.8055 69.5835 73.1115 69.5835 74.722V79.5835H64.722C63.1115 79.5835 61.8055 80.889 61.8055 82.5C61.8055 84.111 63.1115 85.4165 64.722 85.4165H69.5835V90.278C69.5835 91.8885 70.889 93.1945 72.5 93.1945C74.111 93.1945 75.4165 91.8885 75.4165 90.278V85.4165H80.278C81.8885 85.4165 83.1945 84.111 83.1945 82.5C83.1945 80.889 81.8885 79.5835 80.278 79.5835H75.4165V74.722Z" fill="#737373"/>
<path d="M68 57.514C65.6503 57.5425 63.4606 57.629 61.552 57.887C58.359 58.3195 54.8645 59.3525 51.9765 62.2595C49.089 65.1665 48.0629 68.685 47.6338 71.8995C47.2479 74.788 47.2484 78.3175 47.2489 82.07V82.93C47.2484 86.6825 47.2479 90.212 47.6338 93.1005C47.9348 95.356 48.5298 97.761 49.8558 100C49.8146 100 49.7734 100 49.7322 100C10 100 10 89.9265 10 77.5C10 65.0735 27.7887 55 49.7322 55C56.3187 55 62.5309 55.9075 68 57.514Z" fill="#737373"/>
</svg>
