<svg width="100" height="100" viewBox="0 0 100 100" fill="none" xmlns="http://www.w3.org/2000/svg">
<path d="M56.0329 22.1874C56.0329 13.8505 49.2744 7.0921 40.9374 7.0921C32.6005 7.09212 25.8421 13.8505 25.8421 22.1874C25.8421 30.5244 32.6005 37.2829 40.9374 37.2829C49.2744 37.2829 56.0329 30.5244 56.0329 22.1874ZM63 22.1874C63 34.3722 53.1222 44.25 40.9374 44.25C28.7527 44.25 18.875 34.3722 18.875 22.1874C18.875 10.0027 28.7527 0.125024 40.9374 0.125C53.1222 0.125 63 10.0027 63 22.1874Z" fill="#737373"/>
<path d="M79.2728 50.0227V44.2273H73.4773C71.5568 44.2273 70 42.6705 70 40.7501C70 38.8296 71.5568 37.2728 73.4773 37.2728H79.2728V31.4773C79.2728 29.5568 80.8296 28 82.7501 28C84.6705 28 86.2273 29.5568 86.2273 31.4773V37.2728H92.0227C93.9432 37.2728 95.5 38.8296 95.5 40.7501C95.5 42.6705 93.9432 44.2273 92.0227 44.2273H86.2273V50.0227C86.2273 51.9432 84.6705 53.5 82.7501 53.5C80.8296 53.5 79.2728 51.9432 79.2728 50.0227Z" fill="#737373"/>
<path d="M74.5465 75.5C74.5465 71.5473 71.6661 67.2595 65.4568 63.7614C59.3565 60.3246 50.6948 58.0893 40.9379 58.0893C31.181 58.0893 22.5193 60.3248 16.419 63.7615C10.2097 67.2596 7.32914 71.5473 7.32914 75.5C7.32914 81.572 7.51602 84.99 10.6834 87.5734C12.4011 88.9743 15.2725 90.3416 20.1876 91.338C25.0873 92.3313 31.786 92.9107 40.9379 92.9107C51.1563 92.9107 58.3046 92.188 63.3009 90.9807C65.1675 90.5297 67.0457 91.6797 67.496 93.5492C67.9463 95.4187 66.7982 97.2997 64.9316 97.7508C59.1713 99.1426 51.4039 99.875 40.9379 99.875C31.547 99.875 24.3386 99.2852 18.808 98.164C13.2928 97.0459 9.21065 95.3535 6.29264 92.9736C0.188755 87.9952 0.375622 80.9669 0.375622 75.5C0.375622 67.9138 5.79701 61.7551 13.01 57.6916C20.3319 53.5666 30.213 51.125 40.9379 51.125C51.6628 51.125 61.5439 53.5666 68.8658 57.6916C76.0787 61.7551 81.5 67.9138 81.5 75.5C81.5 76.2798 81.5001 77.081 81.4881 77.8744C81.4588 79.7973 79.8787 81.3325 77.9587 81.3032C76.0388 81.2739 74.5061 79.6913 74.5353 77.7684C74.5465 77.0371 74.5465 76.2894 74.5465 75.5Z" fill="#737373"/>
</svg>
