<svg width="456" height="320" viewBox="0 0 456 320" fill="none" xmlns="http://www.w3.org/2000/svg">
<circle cx="227.5" cy="160.5" r="151.5" fill="#F8E3E6"/>
<path d="M407.934 243.198L294.548 207.332L321.96 176.16C291.556 141.424 253.539 97.8102 252.526 95.7498C250.831 92.3037 221.328 160.071 221.328 160.071L141.672 61.1773L112.591 104.401L49 24.5622L108.368 70.0013L140.446 23.001L212.048 104.722L242.577 34.6162L349.02 145.389L378.483 111.886L407.934 243.198Z" fill="#D03240"/>
<path d="M243.698 34.4256L351.102 142.993L344.996 151.212L243.698 34.4256Z" fill="#AE2436"/>
<path d="M140.448 23L216.134 95.52L212.091 104.708L140.448 23Z" fill="#AE2436"/>
<path d="M108.369 70.0012L49 24.5612L112.379 64.1251L108.369 70.0012Z" fill="#AE2436"/>
<path d="M277.753 172.87C264.44 150 228.859 160.233 228.728 160.27C218.488 173.388 205.087 193.709 198.875 216.605C188.101 256.314 201.338 276.324 201.338 276.324C201.338 276.324 208.725 291.715 251.822 287.405C266.522 285.936 279.89 286.457 291.177 286.215C310.285 247.306 291.091 195.783 277.753 172.87Z" fill="#404799"/>
<path d="M327.855 256.006C328.779 221.222 296.726 160.177 273.985 144.879H242.068C242.068 144.879 236.248 150.635 228.728 160.269C228.859 160.232 264.44 149.999 277.753 172.869C291.091 195.782 310.284 247.305 291.178 286.213C313.089 285.744 327.155 282.395 327.855 256.006Z" fill="#3B448E"/>
<path d="M242.068 144.88C242.068 144.88 215.339 105.703 234.146 106.351C252.952 107 249.47 113.809 261.264 112.512C273.056 111.216 275.327 102.785 288.945 107.973C302.564 113.161 271.111 148.505 271.111 148.505L242.068 144.88Z" fill="#404799"/>
<path d="M258.242 286.884C258.242 286.884 230.886 286.884 223.779 271.936C223.779 271.936 222.446 283.699 233.273 288.085C233.273 288.085 252.499 288.646 258.242 286.884Z" fill="#3B448E"/>
<path d="M268.155 135.938C268.155 135.938 277.116 122.449 279.528 106.301C279.528 106.301 298.011 104.585 291.179 118.799C291.179 118.799 288.228 128.153 276.849 141.604L268.155 135.938Z" fill="#3B448E"/>
<path d="M242.331 146.353C241.33 146.371 240.343 145.892 239.756 144.996C238.847 143.609 239.225 141.751 240.609 140.836C241.234 140.422 256.198 130.772 277.006 138.197C278.571 138.755 279.388 140.477 278.829 142.044C278.272 143.609 276.552 144.426 274.982 143.867C257.113 137.494 244.45 145.522 243.92 145.866C243.428 146.185 242.877 146.343 242.331 146.353Z" fill="#18186B"/>
<path d="M281.059 151.234C280.729 151.234 280.394 151.18 280.065 151.065C253.835 141.893 237.031 150.775 236.865 150.867C235.408 151.662 233.578 151.124 232.781 149.663C231.985 148.202 232.525 146.374 233.985 145.578C234.763 145.155 253.331 135.341 282.053 145.381C283.623 145.929 284.45 147.647 283.902 149.217C283.468 150.458 282.303 151.234 281.059 151.234Z" fill="#1C1980"/>
<path d="M263.047 173.123C262.655 173.123 262.258 173.046 261.874 172.884C260.344 172.236 259.627 170.469 260.275 168.938C267.969 150.762 261.372 147.163 261.303 147.129C261.367 147.16 260.988 146.936 260.988 146.936L263.693 141.604C264.031 141.743 267.053 143.088 268.796 147.326C271.138 153.024 270.138 161.085 265.821 171.284C265.334 172.433 264.219 173.123 263.047 173.123Z" fill="#1C1980"/>
<path d="M288.57 181.7C286.923 181.922 285.408 180.768 285.184 179.123C285.177 179.068 284.395 173.558 281.575 167.252C277.918 159.07 272.719 153.444 266.124 150.53C264.603 149.858 263.915 148.08 264.586 146.559C265.259 145.038 267.035 144.351 268.558 145.021C287.588 153.43 291.015 177.301 291.151 178.313C291.373 179.962 290.217 181.478 288.57 181.7Z" fill="#1C1980"/>
<path fill-rule="evenodd" clip-rule="evenodd" d="M92.9087 269.579C92.9087 269.579 139.941 266.9 186.973 269.579H92.9087Z" fill="#F1E28E"/>
<path d="M92.9087 269.579V282.121H186.973V269.579H92.9087Z" fill="#CA9A27"/>
<mask id="mask0_2944_8255" style="mask-type:luminance" maskUnits="userSpaceOnUse" x="92" y="269" width="95" height="14">
<path d="M92.9087 269.579V282.121H186.973V269.579H92.9087Z" fill="white"/>
</mask>
<g mask="url(#mask0_2944_8255)">
<path d="M97.1421 286.063V267.613" stroke="#ECD757" stroke-width="1.56103" stroke-miterlimit="10"/>
<path d="M104.332 285.704V267.253" stroke="#ECD757" stroke-width="1.56103" stroke-miterlimit="10"/>
<path d="M111.521 285.345V266.894" stroke="#ECD757" stroke-width="1.56103" stroke-miterlimit="10"/>
<path d="M118.711 284.564V266.113" stroke="#ECD757" stroke-width="1.56103" stroke-miterlimit="10"/>
<path d="M125.901 285.162V266.711" stroke="#ECD757" stroke-width="1.56103" stroke-miterlimit="10"/>
<path d="M133.09 285.162V266.711" stroke="#ECD757" stroke-width="1.56103" stroke-miterlimit="10"/>
<path d="M140.281 286.096V267.646" stroke="#ECD757" stroke-width="1.56103" stroke-miterlimit="10"/>
<path d="M147.47 285.162V266.711" stroke="#ECD757" stroke-width="1.56103" stroke-miterlimit="10"/>
<path d="M169.04 285.993V267.542" stroke="#ECD757" stroke-width="1.56103" stroke-miterlimit="10"/>
<path d="M154.66 285.162V266.711" stroke="#ECD757" stroke-width="1.56103" stroke-miterlimit="10"/>
<path d="M176.229 285.142V266.691" stroke="#ECD757" stroke-width="1.56103" stroke-miterlimit="10"/>
<path d="M161.85 285.512V267.062" stroke="#ECD757" stroke-width="1.56103" stroke-miterlimit="10"/>
<path d="M183.418 284.905V266.456" stroke="#ECD757" stroke-width="1.56103" stroke-miterlimit="10"/>
</g>
<path fill-rule="evenodd" clip-rule="evenodd" d="M88.8691 255.038C88.8691 255.038 135.901 252.359 182.933 255.038H88.8691Z" fill="#F1E28E"/>
<path d="M88.8691 255.038V267.58H182.933V255.038H88.8691Z" fill="#CA9A27"/>
<mask id="mask1_2944_8255" style="mask-type:luminance" maskUnits="userSpaceOnUse" x="88" y="255" width="95" height="13">
<path d="M88.8691 255.038V267.58H182.933V255.038H88.8691Z" fill="white"/>
</mask>
<g mask="url(#mask1_2944_8255)">
<path d="M93.1025 271.523V253.073" stroke="#ECD757" stroke-width="1.56103" stroke-miterlimit="10"/>
<path d="M100.292 271.163V252.714" stroke="#ECD757" stroke-width="1.56103" stroke-miterlimit="10"/>
<path d="M107.481 270.804V252.354" stroke="#ECD757" stroke-width="1.56103" stroke-miterlimit="10"/>
<path d="M114.67 270.024V251.574" stroke="#ECD757" stroke-width="1.56103" stroke-miterlimit="10"/>
<path d="M121.86 270.621V252.171" stroke="#ECD757" stroke-width="1.56103" stroke-miterlimit="10"/>
<path d="M129.05 270.621V252.171" stroke="#ECD757" stroke-width="1.56103" stroke-miterlimit="10"/>
<path d="M136.24 271.555V253.105" stroke="#ECD757" stroke-width="1.56103" stroke-miterlimit="10"/>
<path d="M143.429 270.621V252.171" stroke="#ECD757" stroke-width="1.56103" stroke-miterlimit="10"/>
<path d="M164.999 271.452V253.002" stroke="#ECD757" stroke-width="1.56103" stroke-miterlimit="10"/>
<path d="M150.619 270.621V252.171" stroke="#ECD757" stroke-width="1.56103" stroke-miterlimit="10"/>
<path d="M172.188 270.601V252.151" stroke="#ECD757" stroke-width="1.56103" stroke-miterlimit="10"/>
<path d="M157.809 270.972V252.521" stroke="#ECD757" stroke-width="1.56103" stroke-miterlimit="10"/>
<path d="M179.378 270.365V251.915" stroke="#ECD757" stroke-width="1.56103" stroke-miterlimit="10"/>
</g>
<path d="M171.313 287.056C195.022 287.056 214.241 267.837 214.241 244.128C214.241 220.42 195.022 201.201 171.313 201.201C147.605 201.201 128.385 220.42 128.385 244.128C128.385 267.837 147.605 287.056 171.313 287.056Z" fill="#CA9A27"/>
<path d="M169.453 287.056C193.162 287.056 212.381 267.837 212.381 244.128C212.381 220.42 193.162 201.201 169.453 201.201C145.745 201.201 126.525 220.42 126.525 244.128C126.525 267.837 145.745 287.056 169.453 287.056Z" fill="#ECD757"/>
<path d="M169.453 287.056C193.162 287.056 212.381 267.837 212.381 244.128C212.381 220.42 193.162 201.201 169.453 201.201C145.745 201.201 126.525 220.42 126.525 244.128C126.525 267.837 145.745 287.056 169.453 287.056Z" fill="#ECD757"/>
<path d="M169.453 278.743C188.57 278.743 204.067 263.245 204.067 244.128C204.067 225.012 188.57 209.514 169.453 209.514C150.336 209.514 134.839 225.012 134.839 244.128C134.839 263.245 150.336 278.743 169.453 278.743Z" fill="#CA9A27"/>
<path d="M169.453 209.514C169.199 209.514 168.947 209.518 168.694 209.524C187.46 209.928 202.549 225.266 202.549 244.128C202.549 262.991 187.46 278.329 168.694 278.733C168.946 278.738 169.199 278.743 169.453 278.743C188.57 278.743 204.067 263.245 204.067 244.128C204.067 225.012 188.57 209.514 169.453 209.514Z" fill="#F1E28E"/>
<path d="M137.163 244.128C137.163 225.401 152.037 210.149 170.615 209.536C170.229 209.523 169.841 209.514 169.453 209.514C150.336 209.514 134.839 225.012 134.839 244.128C134.839 263.245 150.336 278.743 169.453 278.743C169.842 278.743 170.229 278.734 170.615 278.721C152.037 278.107 137.163 262.856 137.163 244.128Z" fill="#B68D24"/>
</svg>
