<svg width="456" height="320" viewBox="0 0 456 320" fill="none" xmlns="http://www.w3.org/2000/svg">
<g opacity="0.41">
<path d="M232.5 313C317.276 313 386 244.276 386 159.5C386 74.7243 317.276 6 232.5 6C147.724 6 79 74.7243 79 159.5C79 244.276 147.724 313 232.5 313Z" fill="#FECAD2"/>
</g>
<path d="M110.648 219.518C110.648 223.73 107.234 227.145 103.021 227.145H66.6269C62.415 227.145 59 223.73 59 219.518V214.426C59 210.214 62.415 206.799 66.6269 206.799H103.021C107.234 206.799 110.648 210.214 110.648 214.426V219.518Z" fill="#96520E"/>
<path d="M101.399 225.229H97.178V224.275H101.399C101.572 224.275 101.743 224.269 101.913 224.258L101.976 225.209C101.786 225.223 101.593 225.229 101.399 225.229ZM92.4111 225.229H87.6443V224.275H92.4111V225.229ZM82.8775 225.229H78.1107V224.275H82.8775V225.229ZM73.3438 225.229H68.577V224.275H73.3438V225.229ZM63.7806 223.955C62.219 222.949 61.1999 221.49 60.9091 219.846L61.8472 219.68C62.0913 221.06 62.9607 222.292 64.2954 223.152L63.7806 223.955ZM106.62 223.398L106.004 222.67C107.206 221.654 107.868 220.313 107.868 218.892L108.821 218.851V218.892C108.822 220.6 108.041 222.2 106.62 223.398ZM60.8252 215.002V214.981C60.8252 213.282 61.6003 211.686 63.0103 210.489L63.6271 211.215C62.4345 212.228 61.7786 213.566 61.7786 214.981L60.8252 215.002ZM107.797 214.175C107.548 212.798 106.673 211.567 105.335 210.71L105.849 209.907C107.413 210.907 108.438 212.363 108.735 214.006L107.797 214.175ZM67.7152 209.616L67.6494 208.665C67.8477 208.65 68.0479 208.645 68.25 208.645H72.4486V209.598H68.25C68.0698 209.598 67.8915 209.605 67.7152 209.616ZM101.05 209.598H96.2827V208.645H101.05V209.598ZM91.5159 209.598H86.7491V208.645H91.5159V209.598ZM81.9823 209.598H77.2154V208.645H81.9823V209.598Z" fill="#FFAB50"/>
<path d="M69.1578 223.134C72.5802 223.134 75.3547 220.36 75.3547 216.937C75.3547 213.515 72.5802 210.74 69.1578 210.74C65.7354 210.74 62.9609 213.515 62.9609 216.937C62.9609 220.36 65.7354 223.134 69.1578 223.134Z" fill="#222328"/>
<path d="M368.043 267.117C368.043 271.09 364.821 274.312 360.848 274.312H102.788C98.8152 274.312 95.5947 271.09 95.5947 267.117V159.444C95.5947 155.471 98.8152 152.251 102.788 152.251H360.848C364.821 152.251 368.043 155.471 368.043 159.444V267.117Z" fill="#A86011"/>
<path d="M360.848 152.251H236.185V274.311H360.848C364.821 274.311 368.042 271.089 368.042 267.116V159.444C368.042 155.471 364.821 152.251 360.848 152.251Z" fill="#A86011"/>
<path d="M231.644 152.251H102.788C98.8152 152.251 95.5947 155.471 95.5947 159.444V267.116C95.5947 271.089 98.8152 274.311 102.788 274.311H231.644V152.251Z" fill="#B56616"/>
<path d="M361.859 166.228C361.859 167.987 360.433 169.413 358.673 169.413H105.523C103.763 169.413 102.337 167.987 102.337 166.228C102.337 164.468 103.763 163.042 105.523 163.042H358.673C360.433 163.042 361.859 164.468 361.859 166.228Z" fill="#633104"/>
<path d="M226.876 206.195V274.312" stroke="#FFAB50" stroke-miterlimit="10" stroke-dasharray="5 5"/>
<path d="M227.956 200.329C228.252 202.216 226.964 203.985 225.076 204.281L111.041 222.196C109.154 222.495 107.385 221.204 107.089 219.316L96.6957 153.163C96.3973 151.275 97.6882 149.508 99.5758 149.211L213.609 131.296C215.495 130.999 217.264 132.288 217.561 134.175L227.956 200.329Z" fill="#B5B5B5"/>
<path d="M225.925 199.68C226.221 201.568 224.933 203.337 223.043 203.634L109.01 221.548C107.124 221.846 105.354 220.555 105.059 218.668L94.6642 152.515C94.3668 150.628 95.6567 148.859 97.5443 148.563L211.577 130.647C213.463 130.35 215.233 131.64 215.53 133.526L225.925 199.68Z" fill="#F4F4F4"/>
<path d="M191.517 193.204C191.099 190.543 191.859 187.977 193.401 186.013C191.517 184.741 189.172 184.144 186.751 184.522C181.671 185.321 178.197 190.088 178.996 195.17C179.794 200.251 184.559 203.723 189.642 202.925C192.064 202.545 194.113 201.256 195.515 199.469C193.448 198.073 191.936 195.863 191.517 193.204Z" fill="#F15671"/>
<path d="M200.865 182.307C198.442 182.688 196.395 183.976 194.993 185.763C193.453 187.726 192.692 190.294 193.109 192.952C193.527 195.614 195.038 197.824 197.106 199.219C198.99 200.491 201.335 201.09 203.756 200.708C208.837 199.91 212.309 195.145 211.511 190.063C210.712 184.98 205.947 181.51 200.865 182.307Z" fill="#2B3868"/>
<path d="M206.739 159.681L143.383 169.635L143.513 170.465L206.869 160.512L206.739 159.681Z" fill="#FBA2B0"/>
<path d="M205.508 151.846L142.152 161.8L142.935 166.781L206.291 156.828L205.508 151.846Z" fill="#FBA2B0"/>
<path d="M146.183 187.542L114.533 192.514L114.663 193.345L146.313 188.373L146.183 187.542Z" fill="#FBA2B0"/>
<path d="M146.845 191.687L115.194 196.659L115.325 197.49L146.975 192.518L146.845 191.687Z" fill="#FBA2B0"/>
<path d="M147.628 196.66L115.978 201.632L115.849 200.803L147.498 195.83L147.628 196.66Z" fill="#FBA2B0"/>
<path d="M166.515 197.095L116.511 204.951L116.642 205.782L166.645 197.926L166.515 197.095Z" fill="#FBA2B0"/>
<path d="M167.285 202.078L117.283 209.933L117.151 209.104L167.156 201.248L167.285 202.078Z" fill="#FBA2B0"/>
<path d="M95.5947 206.195V267.116C95.5947 271.088 98.8152 274.311 102.788 274.311H231.644V206.195H95.5947Z" fill="#C1691A"/>
<path d="M158.121 269.713H154.729V270.395H158.121V269.713Z" fill="#FFAB50"/>
<path d="M192.031 269.713H188.64V270.395H192.031V269.713Z" fill="#FFAB50"/>
<path d="M198.812 269.713H195.421V270.395H198.812V269.713Z" fill="#FFAB50"/>
<path d="M185.248 269.713H181.857V270.395H185.248V269.713Z" fill="#FFAB50"/>
<path d="M171.686 269.713H168.293V270.395H171.686V269.713Z" fill="#FFAB50"/>
<path d="M164.902 269.713H161.511V270.395H164.902V269.713Z" fill="#FFAB50"/>
<path d="M205.595 269.713H202.203V270.395H205.595V269.713Z" fill="#FFAB50"/>
<path d="M178.467 269.713H175.076V270.395H178.467V269.713Z" fill="#FFAB50"/>
<path d="M232.721 269.713H229.33V270.395H232.721V269.713Z" fill="#FFAB50"/>
<path d="M239.505 269.713H236.113V270.395H239.505V269.713Z" fill="#FFAB50"/>
<path d="M246.286 269.713H242.896V270.395H246.286V269.713Z" fill="#FFAB50"/>
<path d="M225.941 269.713H222.55V270.395H225.941V269.713Z" fill="#FFAB50"/>
<path d="M212.376 269.713H208.985V270.395H212.376V269.713Z" fill="#FFAB50"/>
<path d="M219.158 269.713H215.767V270.395H219.158V269.713Z" fill="#FFAB50"/>
<path d="M99.9522 213.724H99.2715V217.115H99.9522V213.724Z" fill="#FFAB50"/>
<path d="M99.9522 240.852H99.2715V244.242H99.9522V240.852Z" fill="#FFAB50"/>
<path d="M99.9522 200.159H99.2715V203.55H99.9522V200.159Z" fill="#FFAB50"/>
<path d="M99.9522 206.942H99.2715V210.333H99.9522V206.942Z" fill="#FFAB50"/>
<path d="M99.9522 227.287H99.2715V230.677H99.9522V227.287Z" fill="#FFAB50"/>
<path d="M99.9522 234.069H99.2715V237.461H99.9522V234.069Z" fill="#FFAB50"/>
<path d="M99.9522 220.505H99.2715V223.896H99.9522V220.505Z" fill="#FFAB50"/>
<path d="M99.9522 193.378H99.2715V196.768H99.9522V193.378Z" fill="#FFAB50"/>
<path d="M99.9522 186.596H99.2715V189.987H99.9522V186.596Z" fill="#FFAB50"/>
<path d="M130.993 269.713H127.602V270.395H130.993V269.713Z" fill="#FFAB50"/>
<path d="M124.212 269.713H120.821V270.395H124.212V269.713Z" fill="#FFAB50"/>
<path d="M117.43 269.713H114.038V270.395H117.43V269.713Z" fill="#FFAB50"/>
<path d="M151.338 269.713H147.947V270.395H151.338V269.713Z" fill="#FFAB50"/>
<path d="M99.9522 247.633H99.2715V251.024H99.9522V247.633Z" fill="#FFAB50"/>
<path d="M144.557 269.713H141.166V270.395H144.557V269.713Z" fill="#FFAB50"/>
<path d="M137.776 269.713H134.384V270.395H137.776V269.713Z" fill="#FFAB50"/>
<path d="M99.9522 261.197H99.2715V263.339C99.2715 263.778 99.3134 264.217 99.3964 264.645L100.065 264.514C99.9903 264.13 99.9522 263.734 99.9522 263.339V261.197Z" fill="#FFAB50"/>
<path d="M99.9522 254.415H99.2715V257.806H99.9522V254.415Z" fill="#FFAB50"/>
<path d="M110.647 269.713H107.256V270.395H110.647V269.713Z" fill="#FFAB50"/>
<path d="M101.456 267.373L100.937 267.816C101.703 268.712 102.694 269.419 103.804 269.862L104.056 269.229C103.048 268.827 102.15 268.186 101.456 267.373Z" fill="#FFAB50"/>
<path d="M363.422 266.408L364.012 266.747C364.608 265.71 364.923 264.531 364.923 263.34V263.311L364.243 263.34C364.243 264.412 363.958 265.472 363.422 266.408Z" fill="#FFAB50"/>
<path d="M364.924 242.964H364.243V246.356H364.924V242.964Z" fill="#FFAB50"/>
<path d="M358.16 269.69L358.214 270.369C359.4 270.272 360.556 269.893 361.558 269.272L361.199 268.695C360.289 269.258 359.238 269.602 358.16 269.69Z" fill="#FFAB50"/>
<path d="M356.926 155.79H353.534V156.47H356.926V155.79Z" fill="#FFAB50"/>
<path d="M364.924 249.747H364.243V253.139H364.924V249.747Z" fill="#FFAB50"/>
<path d="M364.924 256.528H364.243V259.92H364.924V256.528Z" fill="#FFAB50"/>
<path d="M360.376 156.318L360.125 156.951C361.134 157.349 362.034 157.989 362.73 158.799L363.247 158.355C362.479 157.462 361.486 156.757 360.376 156.318Z" fill="#FFAB50"/>
<path d="M343.361 155.79H339.969V156.47H343.361V155.79Z" fill="#FFAB50"/>
<path d="M354.797 269.713H351.405V270.395H354.797V269.713Z" fill="#FFAB50"/>
<path d="M341.234 269.713H337.843V270.395H341.234V269.713Z" fill="#FFAB50"/>
<path d="M350.143 155.79H346.752V156.47H350.143V155.79Z" fill="#FFAB50"/>
<path d="M348.016 269.713H344.624V270.395H348.016V269.713Z" fill="#FFAB50"/>
<path d="M364.924 181.927H364.243V185.318H364.924V181.927Z" fill="#FFAB50"/>
<path d="M364.924 175.146H364.243V178.537H364.924V175.146Z" fill="#FFAB50"/>
<path d="M336.579 155.79H333.188V156.47H336.579V155.79Z" fill="#FFAB50"/>
<path d="M364.924 188.71H364.243V192.101H364.924V188.71Z" fill="#FFAB50"/>
<path d="M364.795 161.525L364.128 161.656C364.204 162.046 364.243 162.446 364.243 162.844V164.973H364.924V162.844C364.924 162.402 364.881 161.957 364.795 161.525Z" fill="#FFAB50"/>
<path d="M364.924 195.491H364.243V198.883H364.924V195.491Z" fill="#FFAB50"/>
<path d="M364.924 168.363H364.243V171.755H364.924V168.363Z" fill="#FFAB50"/>
<path d="M364.924 222.618H364.243V226.011H364.924V222.618Z" fill="#FFAB50"/>
<path d="M364.924 229.401H364.243V232.792H364.924V229.401Z" fill="#FFAB50"/>
<path d="M364.924 236.182H364.243V239.574H364.924V236.182Z" fill="#FFAB50"/>
<path d="M364.924 209.055H364.243V212.446H364.924V209.055Z" fill="#FFAB50"/>
<path d="M364.924 202.273H364.243V205.665H364.924V202.273Z" fill="#FFAB50"/>
<path d="M364.924 215.837H364.243V219.228H364.924V215.837Z" fill="#FFAB50"/>
<path d="M300.542 269.713H297.15V270.395H300.542V269.713Z" fill="#FFAB50"/>
<path d="M280.195 269.713H276.805V270.395H280.195V269.713Z" fill="#FFAB50"/>
<path d="M275.541 155.79H273.421V156.47H275.541V155.79Z" fill="#FFAB50"/>
<path d="M282.325 155.79H278.934V156.47H282.325V155.79Z" fill="#FFAB50"/>
<path d="M286.978 269.713H283.586V270.395H286.978V269.713Z" fill="#FFAB50"/>
<path d="M273.415 269.713H270.022V270.395H273.415V269.713Z" fill="#FFAB50"/>
<path d="M289.106 155.79H285.714V156.47H289.106V155.79Z" fill="#FFAB50"/>
<path d="M293.759 269.713H290.368V270.395H293.759V269.713Z" fill="#FFAB50"/>
<path d="M259.85 269.713H256.458V270.395H259.85V269.713Z" fill="#FFAB50"/>
<path d="M266.633 269.713H263.241V270.395H266.633V269.713Z" fill="#FFAB50"/>
<path d="M329.798 155.79H326.407V156.47H329.798V155.79Z" fill="#FFAB50"/>
<path d="M323.016 155.79H319.624V156.47H323.016V155.79Z" fill="#FFAB50"/>
<path d="M320.888 269.713H317.497V270.395H320.888V269.713Z" fill="#FFAB50"/>
<path d="M295.888 155.79H292.497V156.47H295.888V155.79Z" fill="#FFAB50"/>
<path d="M327.669 269.713H324.278V270.395H327.669V269.713Z" fill="#FFAB50"/>
<path d="M316.234 155.79H312.843V156.47H316.234V155.79Z" fill="#FFAB50"/>
<path d="M334.451 269.713H331.059V270.395H334.451V269.713Z" fill="#FFAB50"/>
<path d="M302.669 155.79H299.278V156.47H302.669V155.79Z" fill="#FFAB50"/>
<path d="M314.105 269.713H310.714V270.395H314.105V269.713Z" fill="#FFAB50"/>
<path d="M253.068 269.713H249.677V270.395H253.068V269.713Z" fill="#FFAB50"/>
<path d="M309.453 155.79H306.061V156.47H309.453V155.79Z" fill="#FFAB50"/>
<path d="M307.323 269.713H303.932V270.395H307.323V269.713Z" fill="#FFAB50"/>
<path d="M231.644 209.623H229.066V208.67H231.644V209.623ZM224.299 209.623H219.532V208.67H224.299V209.623ZM214.765 209.623H209.999V208.67H214.765V209.623ZM205.232 209.623H200.465V208.67H205.232V209.623ZM195.698 209.623H190.931V208.67H195.698V209.623ZM186.164 209.623H181.398V208.67H186.164V209.623ZM176.631 209.623H171.864V208.67H176.631V209.623ZM167.097 209.623H162.33V208.67H167.097V209.623ZM157.563 209.623H152.797V208.67H157.563V209.623ZM148.03 209.623H143.263V208.67H148.03V209.623ZM138.496 209.623H133.729V208.67H138.496V209.623ZM128.962 209.623H124.196V208.67H128.962V209.623ZM119.429 209.623H114.662V208.67H119.429V209.623ZM109.895 209.623H105.128V208.67H109.895V209.623ZM100.362 209.623H95.5947V208.67H100.362V209.623Z" fill="#FFAB50"/>
<path d="M224.412 216.983C224.412 217.745 223.794 218.363 223.032 218.363H104.463C103.7 218.363 103.083 217.745 103.083 216.983C103.083 216.221 103.7 215.604 104.463 215.604H223.032C223.794 215.603 224.412 216.221 224.412 216.983Z" fill="#633104"/>
<path d="M229 274.312H228.046V272.931H229V274.312ZM229 268.164H228.046V263.397H229V268.164ZM229 258.63H228.046V253.863H229V258.63ZM229 249.096H228.046V244.329H229V249.096ZM229 239.563H228.046V234.796H229V239.563ZM229 230.029H228.046V225.262H229V230.029ZM229 220.495H228.046V215.728H229V220.495ZM229 210.962H228.046V206.195H229V210.962Z" fill="#FFAB50"/>
<path d="M230.898 44.6425C230.908 58.9382 230.943 75.8766 231.025 77.1512C231.183 79.6004 231.945 84.311 233.111 86.743C234.002 88.605 235.653 92.4423 236.766 94.0191C237.507 95.0716 238.254 95.9011 238.973 96.5656L251.249 50.007L230.898 44.6425Z" fill="#B5B5B5"/>
<path d="M282.352 24.9069V75.3799C282.352 75.3799 282.275 81.2183 284.463 87.1606C285.441 89.8129 286.351 90.9255 287.669 92.7388C290.85 97.1185 296.27 99.1521 296.27 99.1521H246.224C246.224 99.1521 242.379 99.2846 238.672 94.0201C237.558 92.4432 235.907 88.6059 235.017 86.744C233.851 84.311 233.089 79.6014 232.931 77.1522C232.792 75.0109 232.787 28.7079 232.816 24.9069H282.352Z" fill="#F2F2F2"/>
<path d="M264.525 63.8576C267.897 59.1146 275.144 59.1146 275.144 59.1146H309.774C309.774 59.1146 310.062 72.6515 309.774 77.1513C309.616 79.6005 308.853 84.3111 307.688 86.745C306.796 88.606 304.448 91.6186 303.101 93.0001C301.423 94.7209 295.855 99.1512 295.855 99.1512H246.435C246.435 99.1512 252.516 100.094 257.353 89.3506C259.955 83.5751 260.352 75.38 260.352 75.38C260.352 75.38 260.419 73.6782 260.429 73.5152C260.663 70.0812 262.416 66.8216 264.525 63.8576Z" fill="#DCE0EF"/>
<path d="M282.352 23.0001V73.4732C282.352 73.4732 282.275 79.3116 284.463 85.2539C285.441 87.9062 286.351 89.0187 287.669 90.832C290.85 95.2118 296.27 97.2453 296.27 97.2453H246.224C246.224 97.2453 242.379 97.3778 238.672 92.1134C237.558 90.5365 235.907 86.6992 235.017 84.8373C233.851 82.4043 233.089 77.6947 232.931 75.2455C232.792 73.1042 232.787 26.8012 232.816 23.0001H282.352Z" fill="#F2F2F2"/>
<path opacity="0.4" d="M265.616 69.3021H236.998V70.5539H265.616V69.3021Z" fill="#4C505C"/>
<path opacity="0.4" d="M265.616 62.5153H236.998V63.767H265.616V62.5153Z" fill="#4C505C"/>
<path opacity="0.4" d="M277.834 55.7274H236.998V56.9791H277.834V55.7274Z" fill="#4C505C"/>
<path opacity="0.4" d="M277.834 48.9402H236.998V50.192H277.834V48.9402Z" fill="#4C505C"/>
<path opacity="0.4" d="M277.834 42.1526H236.998V43.4043H277.834V42.1526Z" fill="#4C505C"/>
<path opacity="0.4" d="M277.834 35.3652H236.998V36.6169H277.834V35.3652Z" fill="#4C505C"/>
<path opacity="0.4" d="M270.986 75.9748H236.998V77.2266H270.986V75.9748Z" fill="#4C505C"/>
<path opacity="0.4" d="M278.181 86.1929H244.191V87.4428H278.181V86.1929Z" fill="#4C505C"/>
<path opacity="0.4" d="M269.215 90.0896H249.744V91.3414H269.215V90.0896Z" fill="#4C505C"/>
<path opacity="0.4" d="M273.463 92.9561H253.992V94.2079H273.463V92.9561Z" fill="#4C505C"/>
<path d="M264.525 63.8576C267.897 59.1146 275.144 59.1146 275.144 59.1146H309.774C309.774 59.1146 310.062 72.6515 309.774 77.1513C309.616 79.6005 308.853 84.3111 307.688 86.745C306.796 88.606 304.448 91.6186 303.101 93.0001C301.423 94.7209 295.855 99.1512 295.855 99.1512H246.435C246.435 99.1512 252.516 100.094 257.353 89.3506C259.955 83.5751 260.352 75.38 260.352 75.38C260.352 75.38 260.419 73.6782 260.429 73.5152C260.663 70.0812 262.416 66.8216 264.525 63.8576Z" fill="#B9BFD6"/>
<path opacity="0.4" d="M312.901 62.6298H271.719V63.8815H312.901V62.6298Z" fill="#4C505C"/>
<path opacity="0.4" d="M305.708 69.3024H277.089V70.5542H305.708V69.3024Z" fill="#4C505C"/>
<path opacity="0.4" d="M305.708 75.9752H271.719V77.2269H305.708V75.9752Z" fill="#4C505C"/>
<path opacity="0.4" d="M298.514 86.1932H264.525V87.445H298.514V86.1932Z" fill="#4C505C"/>
<path opacity="0.4" d="M292.962 90.0905H273.491V91.3423H292.962V90.0905Z" fill="#4C505C"/>
<path opacity="0.4" d="M288.714 92.9584H269.242V94.2082H288.714V92.9584Z" fill="#4C505C"/>
<path d="M386.103 231.382C386.103 233.982 383.251 236.767 379.732 237.603C373.542 239.074 370.449 239.808 364.259 241.278C360.741 242.116 357.889 240.418 357.889 237.488C357.889 201.532 357.889 165.576 357.889 129.622C357.889 126.692 360.74 124.995 364.259 125.829C370.449 127.302 373.542 128.036 379.732 129.508C383.25 130.344 386.103 133.129 386.103 135.726C386.103 167.612 386.103 199.499 386.103 231.382Z" fill="#222328"/>
<path d="M376.719 128.792C372.359 127.758 369.358 127.044 364.259 125.83C360.741 124.995 357.889 126.692 357.889 129.622V237.489C357.889 240.418 360.74 242.117 364.259 241.279C369.359 240.068 372.359 239.355 376.719 238.318V128.792Z" fill="#4C505C"/>
<path d="M381.827 130.274V236.84C384.315 235.605 386.102 233.438 386.102 231.382V135.728C386.103 133.673 384.316 131.505 381.827 130.274Z" fill="#4C505C"/>
<path d="M360.849 152.251H253.143V271.705C253.143 272.609 253.267 273.48 253.481 274.311H360.849C364.822 274.311 368.043 271.089 368.043 267.116V159.444C368.043 155.471 364.822 152.251 360.849 152.251Z" fill="#B5B5B5"/>
<path d="M371.996 271.705C371.996 277.115 367.89 281.501 362.823 281.501H264.222C259.156 281.501 255.049 277.114 255.049 271.705V95.4032C255.049 89.9928 259.157 85.6083 264.222 85.6083H362.823C367.891 85.6083 371.996 89.9938 371.996 95.4032V271.705Z" fill="#898989"/>
<path d="M362.175 85.6083H264.87V275.319H362.175V85.6083Z" fill="#B7B7B7"/>
<path d="M323.703 267.213C323.703 268.338 322.791 269.251 321.665 269.251H306.633C305.505 269.251 304.594 268.338 304.594 267.213V260.759C304.594 259.63 305.505 258.718 306.633 258.718H321.665C322.791 258.718 323.703 259.63 323.703 260.759V267.213Z" fill="#C6C8D4"/>
<path d="M323.076 266.588C323.076 267.713 322.163 268.625 321.038 268.625H306.007C304.88 268.625 303.967 267.713 303.967 266.588V260.133C303.967 259.007 304.88 258.092 306.007 258.092H321.038C322.163 258.092 323.076 259.007 323.076 260.133V266.588Z" fill="#DBB619"/>
<path d="M322.078 266.25C322.078 267.26 321.262 268.073 320.254 268.073H306.791C305.782 268.073 304.965 267.259 304.965 266.25V260.47C304.965 259.459 305.783 258.643 306.791 258.643H320.254C321.262 258.643 322.078 259.459 322.078 260.47V266.25Z" fill="#FFDA3E"/>
<path d="M344.217 258.718H330.089C328.962 258.718 328.051 259.631 328.051 260.76V267.214C328.051 268.339 328.962 269.251 330.089 269.251H339.696C340.629 269.251 341.191 268.976 341.567 268.702C343.86 267.022 344.901 263.751 345.359 261.403C345.629 260.022 345.251 258.718 344.217 258.718Z" fill="#C6C8D4"/>
<path d="M343.59 258.093H329.464C328.338 258.093 327.426 259.007 327.426 260.134V266.588C327.426 267.713 328.338 268.626 329.464 268.626H339.07C340.003 268.626 340.566 268.35 340.942 268.075C343.235 266.395 344.277 263.126 344.734 260.78C345.003 259.398 344.626 258.093 343.59 258.093Z" fill="#769B26"/>
<path d="M343.916 260.778C344.079 259.891 343.916 259.096 343.214 258.746C343.04 258.685 342.858 258.644 342.665 258.644H329.99C329.038 258.644 328.27 259.459 328.27 260.471V266.251C328.27 267.261 329.038 268.074 329.99 268.074H338.814C341.295 268.074 343.309 264.063 343.916 260.778Z" fill="#A6BF49"/>
<path d="M284.066 258.718H298.193C299.318 258.718 300.232 259.631 300.232 260.76V267.214C300.232 268.339 299.318 269.251 298.193 269.251H288.587C287.654 269.251 287.09 268.976 286.716 268.702C284.421 267.022 283.381 263.751 282.923 261.403C282.653 260.022 283.031 258.718 284.066 258.718Z" fill="#C6C8D4"/>
<path d="M283.454 258.093H297.581C298.707 258.093 299.621 259.008 299.621 260.134V266.589C299.621 267.714 298.707 268.626 297.581 268.626H287.975C287.042 268.626 286.479 268.351 286.104 268.075C283.81 266.395 282.769 263.126 282.31 260.78C282.043 259.398 282.419 258.093 283.454 258.093Z" fill="#EA4D52"/>
<path d="M283.13 260.778C282.966 259.891 283.13 259.096 283.832 258.746C284.006 258.685 284.188 258.644 284.379 258.644H297.056C298.006 258.644 298.776 259.459 298.776 260.471V266.251C298.776 267.261 298.006 268.074 297.056 268.074H288.232C285.749 268.074 283.736 264.063 283.13 260.778Z" fill="#F15671"/>
<path d="M288.255 186.531C288.255 188.316 285.26 189.764 281.566 189.764C277.87 189.764 274.875 188.316 274.875 186.531C274.875 184.745 277.87 183.298 281.566 183.298C285.26 183.299 288.255 184.745 288.255 186.531Z" fill="#C6C8D4"/>
<path d="M287.734 185.945C287.734 187.73 284.739 189.177 281.044 189.177C277.35 189.177 274.354 187.73 274.354 185.945C274.354 184.159 277.35 182.712 281.044 182.712C284.739 182.712 287.734 184.159 287.734 185.945Z" fill="#C6C8D4"/>
<path d="M286.774 185.944C286.774 187.73 284.208 189.177 281.044 189.177C277.881 189.177 275.315 187.73 275.315 185.944C275.315 184.159 277.88 182.712 281.044 182.712C284.208 182.712 286.774 184.159 286.774 185.944Z" fill="#DCE0EF"/>
<path d="M304.363 186.531C304.363 188.316 301.368 189.763 297.674 189.763C293.979 189.763 290.983 188.316 290.983 186.531C290.983 184.745 293.979 183.298 297.674 183.298C301.368 183.298 304.363 184.745 304.363 186.531Z" fill="#C6C8D4"/>
<path d="M297.153 189.177C300.848 189.177 303.844 187.73 303.844 185.944C303.844 184.159 300.848 182.712 297.153 182.712C293.458 182.712 290.462 184.159 290.462 185.944C290.462 187.73 293.458 189.177 297.153 189.177Z" fill="#C6C8D4"/>
<path d="M297.153 189.177C300.317 189.177 302.882 187.73 302.882 185.944C302.882 184.159 300.317 182.712 297.153 182.712C293.989 182.712 291.424 184.159 291.424 185.944C291.424 187.73 293.989 189.177 297.153 189.177Z" fill="#DCE0EF"/>
<path d="M320.472 186.531C320.472 188.316 317.477 189.763 313.783 189.763C310.088 189.763 307.092 188.316 307.092 186.531C307.092 184.745 310.088 183.298 313.783 183.298C317.477 183.298 320.472 184.745 320.472 186.531Z" fill="#C6C8D4"/>
<path d="M313.262 189.177C316.957 189.177 319.952 187.73 319.952 185.944C319.952 184.159 316.957 182.712 313.262 182.712C309.566 182.712 306.571 184.159 306.571 185.944C306.571 187.73 309.566 189.177 313.262 189.177Z" fill="#C6C8D4"/>
<path d="M318.991 185.944C318.991 187.73 316.426 189.177 313.262 189.177C310.097 189.177 307.534 187.73 307.534 185.944C307.534 184.159 310.097 182.712 313.262 182.712C316.426 182.712 318.991 184.159 318.991 185.944Z" fill="#DCE0EF"/>
<path d="M336.58 186.531C336.58 188.316 333.586 189.763 329.891 189.763C326.195 189.763 323.201 188.316 323.201 186.531C323.201 184.745 326.196 183.298 329.891 183.298C333.587 183.299 336.58 184.745 336.58 186.531Z" fill="#C6C8D4"/>
<path d="M336.06 185.944C336.06 187.73 333.065 189.177 329.37 189.177C325.675 189.177 322.679 187.73 322.679 185.944C322.679 184.159 325.675 182.712 329.37 182.712C333.066 182.712 336.06 184.159 336.06 185.944Z" fill="#C6C8D4"/>
<path d="M335.1 185.944C335.1 187.73 332.535 189.177 329.371 189.177C326.207 189.177 323.642 187.73 323.642 185.944C323.642 184.159 326.206 182.712 329.371 182.712C332.534 182.712 335.1 184.159 335.1 185.944Z" fill="#DCE0EF"/>
<path d="M352.69 186.531C352.69 188.316 349.695 189.763 346 189.763C342.306 189.763 339.309 188.316 339.309 186.531C339.309 184.745 342.306 183.298 346 183.298C349.695 183.299 352.69 184.745 352.69 186.531Z" fill="#C6C8D4"/>
<path d="M345.479 189.177C349.174 189.177 352.17 187.73 352.17 185.944C352.17 184.159 349.174 182.712 345.479 182.712C341.784 182.712 338.789 184.159 338.789 185.944C338.789 187.73 341.784 189.177 345.479 189.177Z" fill="#C6C8D4"/>
<path d="M351.207 185.944C351.207 187.73 348.643 189.177 345.479 189.177C342.315 189.177 339.75 187.73 339.75 185.944C339.75 184.159 342.315 182.712 345.479 182.712C348.643 182.712 351.207 184.159 351.207 185.944Z" fill="#DCE0EF"/>
<path d="M350.817 248.448C350.817 251.482 348.049 253.941 344.633 253.941H282.139C278.723 253.941 275.956 251.482 275.956 248.448V198.467C275.956 195.432 278.723 192.972 282.139 192.972H344.633C348.049 192.972 350.817 195.432 350.817 198.467V248.448Z" fill="#383B44"/>
<path d="M344.039 173.121C344.039 175.886 341.798 178.126 339.035 178.126H288.454C285.691 178.126 283.449 175.886 283.449 173.121V127.584C283.449 124.82 285.691 122.58 288.454 122.58H339.035C341.798 122.58 344.039 124.82 344.039 127.584V173.121Z" fill="#383B44"/>
<path d="M341.651 171.324C341.651 173.869 339.587 175.936 337.041 175.936H290.448C287.901 175.936 285.838 173.869 285.838 171.324V129.379C285.838 126.832 287.901 124.768 290.448 124.768H337.041C339.587 124.768 341.651 126.832 341.651 129.379V171.324Z" fill="#6EA095"/>
<path d="M298.574 205.688C298.574 206.817 297.662 207.727 296.536 207.727H281.504C280.377 207.727 279.465 206.817 279.465 205.688V199.235C279.465 198.109 280.377 197.196 281.504 197.196H296.536C297.662 197.196 298.574 198.109 298.574 199.235V205.688Z" fill="#C6C8D4"/>
<path d="M297.949 205.064C297.949 206.191 297.036 207.102 295.909 207.102H280.879C279.752 207.102 278.839 206.191 278.839 205.064V198.61C278.839 197.483 279.752 196.571 280.879 196.571H295.909C297.036 196.571 297.949 197.483 297.949 198.61V205.064Z" fill="#C6C8D4"/>
<path d="M296.95 204.727C296.95 205.735 296.134 206.552 295.126 206.552H281.663C280.655 206.552 279.838 205.734 279.838 204.727V198.947C279.838 197.937 280.655 197.122 281.663 197.122H295.126C296.134 197.122 296.95 197.937 296.95 198.947V204.727Z" fill="#DCE0EF"/>
<path d="M323.703 205.688C323.703 206.817 322.791 207.727 321.665 207.727H306.633C305.505 207.727 304.594 206.817 304.594 205.688V199.235C304.594 198.109 305.505 197.196 306.633 197.196H321.665C322.791 197.196 323.703 198.109 323.703 199.235V205.688Z" fill="#C6C8D4"/>
<path d="M323.076 205.064C323.076 206.191 322.163 207.102 321.038 207.102H306.007C304.88 207.102 303.967 206.191 303.967 205.064V198.61C303.967 197.483 304.88 196.571 306.007 196.571H321.038C322.163 196.571 323.076 197.483 323.076 198.61V205.064Z" fill="#C6C8D4"/>
<path d="M322.078 204.727C322.078 205.735 321.262 206.552 320.254 206.552H306.791C305.782 206.552 304.965 205.734 304.965 204.727V198.947C304.965 197.937 305.783 197.122 306.791 197.122H320.254C321.262 197.122 322.078 197.937 322.078 198.947V204.727Z" fill="#DCE0EF"/>
<path d="M348.83 205.688C348.83 206.817 347.918 207.727 346.792 207.727H331.759C330.635 207.727 329.721 206.817 329.721 205.688V199.235C329.721 198.109 330.635 197.196 331.759 197.196H346.792C347.918 197.196 348.83 198.109 348.83 199.235V205.688Z" fill="#C6C8D4"/>
<path d="M348.205 205.064C348.205 206.191 347.292 207.101 346.168 207.101H331.135C330.009 207.101 329.097 206.191 329.097 205.064V198.61C329.097 197.483 330.009 196.571 331.135 196.571H346.168C347.292 196.571 348.205 197.483 348.205 198.61V205.064Z" fill="#C6C8D4"/>
<path d="M347.208 204.727C347.208 205.735 346.391 206.552 345.383 206.552H331.919C330.911 206.552 330.095 205.734 330.095 204.727V198.947C330.095 197.937 330.912 197.122 331.919 197.122H345.383C346.391 197.122 347.208 197.937 347.208 198.947V204.727Z" fill="#DCE0EF"/>
<path d="M298.574 219.869C298.574 220.996 297.662 221.909 296.536 221.909H281.504C280.377 221.909 279.465 220.996 279.465 219.869V213.413C279.465 212.288 280.377 211.376 281.504 211.376H296.536C297.662 211.376 298.574 212.288 298.574 213.413V219.869Z" fill="#C6C8D4"/>
<path d="M297.949 219.244C297.949 220.371 297.036 221.283 295.909 221.283H280.879C279.752 221.283 278.839 220.371 278.839 219.244V212.79C278.839 211.661 279.752 210.75 280.879 210.75H295.909C297.036 210.75 297.949 211.661 297.949 212.79V219.244Z" fill="#C6C8D4"/>
<path d="M296.95 218.906C296.95 219.914 296.134 220.731 295.126 220.731H281.663C280.655 220.731 279.838 219.914 279.838 218.906V213.126C279.838 212.117 280.655 211.301 281.663 211.301H295.126C296.134 211.301 296.95 212.117 296.95 213.126V218.906Z" fill="#DCE0EF"/>
<path d="M323.703 219.869C323.703 220.996 322.791 221.909 321.665 221.909H306.633C305.505 221.909 304.594 220.996 304.594 219.869V213.413C304.594 212.288 305.505 211.376 306.633 211.376H321.665C322.791 211.376 323.703 212.288 323.703 213.413V219.869Z" fill="#C6C8D4"/>
<path d="M323.076 219.244C323.076 220.371 322.163 221.283 321.038 221.283H306.007C304.88 221.283 303.967 220.371 303.967 219.244V212.79C303.967 211.661 304.88 210.75 306.007 210.75H321.038C322.163 210.75 323.076 211.661 323.076 212.79V219.244Z" fill="#C6C8D4"/>
<path d="M322.078 218.906C322.078 219.914 321.262 220.731 320.254 220.731H306.791C305.782 220.731 304.965 219.914 304.965 218.906V213.126C304.965 212.117 305.783 211.301 306.791 211.301H320.254C321.262 211.301 322.078 212.117 322.078 213.126V218.906Z" fill="#DCE0EF"/>
<path d="M348.83 219.869C348.83 220.996 347.918 221.909 346.792 221.909H331.759C330.635 221.909 329.721 220.996 329.721 219.869V213.413C329.721 212.288 330.635 211.376 331.759 211.376H346.792C347.918 211.376 348.83 212.288 348.83 213.413V219.869Z" fill="#C6C8D4"/>
<path d="M348.205 219.244C348.205 220.371 347.292 221.283 346.168 221.283H331.135C330.009 221.283 329.097 220.371 329.097 219.244V212.79C329.097 211.661 330.009 210.75 331.135 210.75H346.168C347.292 210.75 348.205 211.661 348.205 212.79V219.244Z" fill="#C6C8D4"/>
<path d="M347.208 218.906C347.208 219.914 346.391 220.731 345.383 220.731H331.919C330.911 220.731 330.095 219.914 330.095 218.906V213.126C330.095 212.117 330.912 211.301 331.919 211.301H345.383C346.391 211.301 347.208 212.117 347.208 213.126V218.906Z" fill="#DCE0EF"/>
<path d="M298.574 234.047C298.574 235.174 297.662 236.088 296.536 236.088H281.504C280.377 236.088 279.465 235.174 279.465 234.047V227.592C279.465 226.467 280.377 225.555 281.504 225.555H296.536C297.662 225.555 298.574 226.467 298.574 227.592V234.047Z" fill="#C6C8D4"/>
<path d="M297.949 233.421C297.949 234.55 297.036 235.461 295.909 235.461H280.879C279.752 235.461 278.839 234.55 278.839 233.421V226.969C278.839 225.84 279.752 224.93 280.879 224.93H295.909C297.036 224.93 297.949 225.84 297.949 226.969V233.421Z" fill="#C6C8D4"/>
<path d="M296.95 233.086C296.95 234.093 296.134 234.91 295.126 234.91H281.663C280.655 234.91 279.838 234.093 279.838 233.086V227.305C279.838 226.296 280.655 225.479 281.663 225.479H295.126C296.134 225.479 296.95 226.296 296.95 227.305V233.086Z" fill="#DCE0EF"/>
<path d="M323.703 234.047C323.703 235.174 322.791 236.088 321.665 236.088H306.633C305.505 236.088 304.594 235.174 304.594 234.047V227.592C304.594 226.467 305.505 225.555 306.633 225.555H321.665C322.791 225.555 323.703 226.467 323.703 227.592V234.047Z" fill="#C6C8D4"/>
<path d="M323.076 233.421C323.076 234.55 322.163 235.461 321.038 235.461H306.007C304.88 235.461 303.967 234.55 303.967 233.421V226.969C303.967 225.84 304.88 224.93 306.007 224.93H321.038C322.163 224.93 323.076 225.84 323.076 226.969V233.421Z" fill="#C6C8D4"/>
<path d="M322.078 233.086C322.078 234.093 321.262 234.91 320.254 234.91H306.791C305.782 234.91 304.965 234.093 304.965 233.086V227.305C304.965 226.296 305.783 225.479 306.791 225.479H320.254C321.262 225.479 322.078 226.296 322.078 227.305V233.086Z" fill="#DCE0EF"/>
<path d="M348.83 234.047C348.83 235.174 347.918 236.088 346.792 236.088H331.759C330.635 236.088 329.721 235.174 329.721 234.047V227.592C329.721 226.467 330.635 225.555 331.759 225.555H346.792C347.918 225.555 348.83 226.467 348.83 227.592V234.047Z" fill="#C6C8D4"/>
<path d="M348.205 233.421C348.205 234.55 347.292 235.461 346.168 235.461H331.135C330.009 235.461 329.097 234.55 329.097 233.421V226.969C329.097 225.84 330.009 224.93 331.135 224.93H346.168C347.292 224.93 348.205 225.84 348.205 226.969V233.421Z" fill="#C6C8D4"/>
<path d="M347.208 233.086C347.208 234.093 346.391 234.91 345.383 234.91H331.919C330.911 234.91 330.095 234.093 330.095 233.086V227.305C330.095 226.296 330.912 225.479 331.919 225.479H345.383C346.391 225.479 347.208 226.296 347.208 227.305V233.086Z" fill="#DCE0EF"/>
<path d="M298.574 248.228C298.574 249.353 297.662 250.265 296.536 250.265H281.504C280.377 250.265 279.465 249.353 279.465 248.228V241.774C279.465 240.647 280.377 239.735 281.504 239.735H296.536C297.662 239.735 298.574 240.647 298.574 241.774V248.228Z" fill="#C6C8D4"/>
<path d="M297.949 247.601C297.949 248.729 297.036 249.642 295.909 249.642H280.879C279.752 249.642 278.839 248.729 278.839 247.601V241.146C278.839 240.021 279.752 239.109 280.879 239.109H295.909C297.036 239.109 297.949 240.021 297.949 241.146V247.601Z" fill="#C6C8D4"/>
<path d="M296.95 247.265C296.95 248.275 296.134 249.09 295.126 249.09H281.663C280.655 249.09 279.838 248.275 279.838 247.265V241.484C279.838 240.477 280.655 239.661 281.663 239.661H295.126C296.134 239.661 296.95 240.477 296.95 241.484V247.265Z" fill="#DCE0EF"/>
<path d="M323.703 248.228C323.703 249.353 322.791 250.265 321.665 250.265H306.633C305.505 250.265 304.594 249.353 304.594 248.228V241.774C304.594 240.647 305.505 239.735 306.633 239.735H321.665C322.791 239.735 323.703 240.647 323.703 241.774V248.228Z" fill="#C6C8D4"/>
<path d="M323.076 247.601C323.076 248.729 322.163 249.642 321.038 249.642H306.007C304.88 249.642 303.967 248.729 303.967 247.601V241.146C303.967 240.021 304.88 239.109 306.007 239.109H321.038C322.163 239.109 323.076 240.021 323.076 241.146V247.601Z" fill="#C6C8D4"/>
<path d="M322.078 247.265C322.078 248.275 321.262 249.09 320.254 249.09H306.791C305.782 249.09 304.965 248.275 304.965 247.265V241.484C304.965 240.477 305.783 239.661 306.791 239.661H320.254C321.262 239.661 322.078 240.477 322.078 241.484V247.265Z" fill="#DCE0EF"/>
<path d="M348.83 248.228C348.83 249.353 347.918 250.265 346.792 250.265H331.759C330.635 250.265 329.721 249.353 329.721 248.228V241.774C329.721 240.647 330.635 239.735 331.759 239.735H346.792C347.918 239.735 348.83 240.647 348.83 241.774V248.228Z" fill="#C6C8D4"/>
<path d="M348.205 247.601C348.205 248.729 347.292 249.642 346.168 249.642H331.135C330.009 249.642 329.097 248.729 329.097 247.601V241.146C329.097 240.021 330.009 239.109 331.135 239.109H346.168C347.292 239.109 348.205 240.021 348.205 241.146V247.601Z" fill="#C6C8D4"/>
<path d="M347.208 247.265C347.208 248.275 346.391 249.09 345.383 249.09H331.919C330.911 249.09 330.095 248.275 330.095 247.265V241.484C330.095 240.477 330.912 239.661 331.919 239.661H345.383C346.391 239.661 347.208 240.477 347.208 241.484V247.265Z" fill="#DCE0EF"/>
<path opacity="0.4" d="M320.473 131.362H294.931V133.865H320.473V131.362Z" fill="#4C505C"/>
<path opacity="0.4" d="M312.238 136.367H294.931V138.868H312.238V136.367Z" fill="#4C505C"/>
<path opacity="0.4" d="M329.547 141.371H294.931V143.873H329.547V141.371Z" fill="#4C505C"/>
<path opacity="0.4" d="M334.134 157.531H294.931V160.034H334.134V157.531Z" fill="#4C505C"/>
<path opacity="0.4" d="M317.244 162.641H294.931V165.144H317.244V162.641Z" fill="#4C505C"/>
<path opacity="0.4" d="M304.732 167.75H294.931V170.253H304.732V167.75Z" fill="#4C505C"/>
<path d="M357.294 141.597C357.294 142.968 354.999 144.076 352.164 144.076C349.328 144.076 347.032 142.968 347.032 141.597C347.032 140.228 349.328 139.118 352.164 139.118C354.999 139.118 357.294 140.228 357.294 141.597Z" fill="#C6C8D4"/>
<path d="M356.896 141.148C356.896 142.517 354.598 143.627 351.764 143.627C348.93 143.627 346.634 142.517 346.634 141.148C346.634 139.777 348.93 138.667 351.764 138.667C354.598 138.667 356.896 139.777 356.896 141.148Z" fill="#093D49"/>
<path d="M356.159 141.148C356.159 142.517 354.192 143.627 351.765 143.627C349.338 143.627 347.371 142.517 347.371 141.148C347.371 139.777 349.338 138.667 351.765 138.667C354.192 138.667 356.159 139.777 356.159 141.148Z" fill="#F15671"/>
<path d="M357.294 150.934C357.294 152.305 354.999 153.414 352.164 153.414C349.328 153.414 347.032 152.305 347.032 150.934C347.032 149.565 349.328 148.453 352.164 148.453C354.999 148.454 357.294 149.566 357.294 150.934Z" fill="#C6C8D4"/>
<path d="M356.896 150.486C356.896 151.855 354.598 152.967 351.764 152.967C348.93 152.967 346.634 151.855 346.634 150.486C346.634 149.117 348.93 148.005 351.764 148.005C354.598 148.005 356.896 149.117 356.896 150.486Z" fill="#093D49"/>
<path d="M356.159 150.486C356.159 151.855 354.192 152.967 351.765 152.967C349.338 152.967 347.371 151.855 347.371 150.486C347.371 149.117 349.338 148.005 351.765 148.005C354.192 148.005 356.159 149.117 356.159 150.486Z" fill="#F15671"/>
<path d="M357.294 160.26C357.294 161.629 354.999 162.741 352.164 162.741C349.328 162.741 347.032 161.629 347.032 160.26C347.032 158.891 349.328 157.779 352.164 157.779C354.999 157.779 357.294 158.891 357.294 160.26Z" fill="#C6C8D4"/>
<path d="M356.896 159.811C356.896 161.18 354.598 162.29 351.764 162.29C348.93 162.29 346.634 161.18 346.634 159.811C346.634 158.44 348.93 157.33 351.764 157.33C354.598 157.33 356.896 158.441 356.896 159.811Z" fill="#093D49"/>
<path d="M356.159 159.811C356.159 161.18 354.192 162.29 351.765 162.29C349.338 162.29 347.371 161.18 347.371 159.811C347.371 158.44 349.338 157.33 351.765 157.33C354.192 157.33 356.159 158.441 356.159 159.811Z" fill="#F15671"/>
<path d="M269.749 141.597C269.749 142.968 272.047 144.076 274.879 144.076C277.715 144.076 280.011 142.968 280.011 141.597C280.011 140.228 277.715 139.118 274.879 139.118C272.047 139.118 269.749 140.228 269.749 141.597Z" fill="#C6C8D4"/>
<path d="M270.149 141.148C270.149 142.517 272.445 143.627 275.279 143.627C278.114 143.627 280.411 142.517 280.411 141.148C280.411 139.777 278.114 138.667 275.279 138.667C272.445 138.667 270.149 139.777 270.149 141.148Z" fill="#093D49"/>
<path d="M270.886 141.148C270.886 142.517 272.853 143.627 275.279 143.627C277.707 143.627 279.673 142.517 279.673 141.148C279.673 139.777 277.706 138.667 275.279 138.667C272.853 138.667 270.886 139.777 270.886 141.148Z" fill="#F15671"/>
<path d="M269.749 150.934C269.749 152.305 272.047 153.414 274.879 153.414C277.715 153.414 280.011 152.305 280.011 150.934C280.011 149.565 277.715 148.453 274.879 148.453C272.047 148.454 269.749 149.566 269.749 150.934Z" fill="#C6C8D4"/>
<path d="M270.149 150.486C270.149 151.855 272.445 152.967 275.279 152.967C278.114 152.967 280.411 151.855 280.411 150.486C280.411 149.117 278.114 148.005 275.279 148.005C272.445 148.005 270.149 149.117 270.149 150.486Z" fill="#093D49"/>
<path d="M270.886 150.486C270.886 151.855 272.853 152.967 275.279 152.967C277.707 152.967 279.673 151.855 279.673 150.486C279.673 149.117 277.706 148.005 275.279 148.005C272.853 148.005 270.886 149.117 270.886 150.486Z" fill="#F15671"/>
<path d="M269.749 160.26C269.749 161.629 272.047 162.741 274.879 162.741C277.715 162.741 280.011 161.629 280.011 160.26C280.011 158.891 277.715 157.779 274.879 157.779C272.047 157.779 269.749 158.891 269.749 160.26Z" fill="#C6C8D4"/>
<path d="M270.149 159.811C270.149 161.18 272.445 162.29 275.279 162.29C278.114 162.29 280.411 161.18 280.411 159.811C280.411 158.44 278.114 157.33 275.279 157.33C272.445 157.33 270.149 158.441 270.149 159.811Z" fill="#093D49"/>
<path d="M270.886 159.811C270.886 161.18 272.853 162.29 275.279 162.29C277.707 162.29 279.673 161.18 279.673 159.811C279.673 158.44 277.706 157.33 275.279 157.33C272.853 157.33 270.886 158.441 270.886 159.811Z" fill="#F15671"/>
<path d="M267.6 85.6083V106.872C267.6 112.488 272.153 117.041 277.769 117.041H349.276C354.892 117.041 359.444 112.488 359.444 106.872V85.6083H267.6Z" fill="#4C505C"/>
<path d="M349.984 96.9296C349.984 98.1795 348.97 99.1939 347.72 99.1939H279.323C278.073 99.1939 277.059 98.1795 277.059 96.9296C277.059 95.6788 278.073 94.6654 279.323 94.6654H347.72C348.97 94.6654 349.984 95.6788 349.984 96.9296Z" fill="#0E0F11"/>
<path d="M289.324 99.1627H338.746C338.746 99.1627 339.034 85.6249 338.746 81.125C338.589 78.6758 337.825 73.9662 336.66 71.5323C335.768 69.6703 333.964 66.7855 332.763 65.2753C329.362 61.0014 325.451 59.1252 325.451 59.1252H275.405C275.405 59.1252 280.828 61.1578 284.007 65.5366C285.323 67.3489 286.236 68.4605 287.213 71.1147C289.403 77.057 289.324 82.8954 289.324 82.8954V99.1627Z" fill="#F4F4F4"/>
<path opacity="0.4" d="M334.678 92.49H293.494V93.7418H334.678V92.49Z" fill="#4C505C"/>
<path opacity="0.4" d="M334.679 85.8165H306.059V87.0682H334.679V85.8165Z" fill="#4C505C"/>
<path opacity="0.4" d="M334.678 79.1437H300.69V80.3955H334.678V79.1437Z" fill="#4C505C"/>
<path opacity="0.4" d="M327.484 68.9265H293.494V70.1773H327.484V68.9265Z" fill="#4C505C"/>
<path opacity="0.4" d="M321.932 65.029H302.462V66.2808H321.932V65.029Z" fill="#4C505C"/>
<path opacity="0.4" d="M317.684 62.1616H298.213V63.4134H317.684V62.1616Z" fill="#4C505C"/>
<path d="M115.939 160.147C111.873 160.873 109.107 164.71 109.741 168.813L110.042 170.756L117.403 169.619L115.939 160.147Z" fill="#F15671"/>
<path d="M127.664 158.334L116.829 160.008L118.293 169.488L129.129 167.814L127.664 158.334Z" fill="#F15671"/>
<path d="M128.659 158.176L130.123 167.654L137.601 166.499L137.301 164.555C136.661 160.414 132.799 157.57 128.659 158.176Z" fill="#F15671"/>
<path d="M117.548 170.561L110.188 171.698L110.397 173.053C111.031 177.155 114.826 179.979 118.921 179.443L117.548 170.561Z" fill="#F15671"/>
<path d="M129.275 168.757L118.439 170.431L119.813 179.323L130.649 177.649L129.275 168.757Z" fill="#F15671"/>
<path d="M130.268 168.597L131.641 177.485C135.771 176.815 138.595 172.938 137.956 168.795L137.747 167.442L130.268 168.597Z" fill="#F15671"/>
</svg>
