<svg width="456" height="320" viewBox="0 0 456 320" fill="none" xmlns="http://www.w3.org/2000/svg">
<path d="M228 312C311.947 312 380 243.947 380 160C380 76.0527 311.947 8 228 8C144.053 8 76 76.0527 76 160C76 243.947 144.053 312 228 312Z" fill="#F8E3E6"/>
<path d="M226.531 77.2364C226.895 77.2364 227.261 77.2594 227.623 77.2319C228.702 77.1504 229.737 77.4234 230.763 77.6674C231.429 77.8254 232.045 78.1909 232.687 78.4554C233.077 78.6164 233.464 78.7954 233.868 78.9089C234.451 79.0724 235.044 79.2074 235.64 79.3124C236.812 79.5189 237.928 79.8879 239.023 80.3479C239.409 80.5099 239.843 80.5534 240.254 80.6564C240.576 80.7369 240.907 80.7964 241.213 80.9174C241.533 81.0439 241.799 81.0124 242.062 80.8074C242.253 80.6584 242.469 80.5374 242.641 80.3699C242.89 80.1259 243.187 80.0179 243.512 79.9154C243.998 79.7619 244.38 79.8194 244.753 80.1914C245.161 80.5989 245.705 80.7604 246.263 80.6629C247.038 80.5274 247.799 80.3169 248.564 80.1289C248.709 80.0934 248.859 80.0349 248.979 79.9484C249.837 79.3274 250.81 79.2999 251.772 79.5019C252.825 79.7229 253.822 79.5019 254.828 79.3039C255.083 79.2539 255.32 79.0819 255.551 78.9429C256.184 78.5629 256.84 78.2789 257.603 78.3274C257.905 78.3469 258.211 78.3109 258.513 78.3339C259.252 78.3894 259.793 78.0574 260.246 77.5124C260.535 77.1644 260.834 76.8249 261.146 76.4969C261.341 76.2914 261.311 76.0704 261.288 75.8214C261.252 75.4484 261.338 75.3099 261.655 75.1929C261.851 75.1209 262.064 75.0759 262.272 75.0619C262.605 75.0394 262.94 75.0624 263.273 75.0494C263.745 75.0314 264.175 75.1339 264.554 75.4259C265.022 75.7864 265.563 75.8779 266.108 75.7189C266.874 75.4954 267.657 75.4709 268.44 75.4054C269.114 75.3489 269.755 75.1969 270.183 74.5794C270.405 74.2589 270.773 74.1979 271.145 74.1404C271.711 74.0529 272.274 73.9309 272.832 73.7969C273.064 73.7409 273.319 73.6629 273.497 73.5154C274.243 72.8969 275.227 72.7994 276.034 72.3204C276.135 72.2599 276.261 72.2219 276.379 72.2099C277.794 72.0669 279.162 71.6124 280.595 71.5854C281.285 71.5724 281.89 71.2834 282.463 70.9324C283.102 70.5414 283.813 70.4054 284.538 70.3244C285.062 70.2654 285.564 70.3814 286.051 70.5694C286.565 70.7669 287.089 70.8919 287.649 70.8739C287.886 70.8664 288.139 70.9059 288.361 70.9889C288.943 71.2069 289.543 71.2134 290.151 71.2399C290.935 71.2749 291.725 71.3359 292.497 71.4714C293.566 71.6589 294.357 72.3109 294.995 73.1669C295.157 73.3844 295.317 73.6174 295.526 73.7819C295.963 74.1244 296.457 74.3234 297.035 74.3309C297.546 74.3379 298.058 74.4154 298.568 74.4734C299.025 74.5254 299.474 74.5119 299.918 74.3734C300.561 74.1729 301.222 74.1174 301.895 74.1374C302.502 74.1554 303.11 74.1689 303.715 74.1344C304.664 74.0799 305.585 74.2849 306.518 74.3734C306.969 74.4159 307.419 74.4619 307.87 74.5069C308.23 74.5429 308.59 74.5874 308.952 74.6149C309.374 74.6469 309.797 74.6849 310.22 74.6839C310.656 74.6829 311.063 74.7564 311.444 74.9724C311.865 75.2114 312.29 75.4454 312.716 75.6759C313.036 75.8489 313.353 76.0309 313.686 76.1769C314.655 76.6019 315.633 76.8319 316.658 76.3174C317.144 76.0734 317.679 75.9269 318.162 75.6764C319.038 75.2219 319.953 75.1704 320.906 75.2814C321.926 75.3999 322.949 75.4889 323.97 75.5974C325.142 75.7224 326.344 75.7344 327.476 76.0194C328.497 76.2759 329.559 76.4004 330.539 76.8354C331.568 77.2919 332.638 77.3229 333.747 77.1284C334.925 76.9219 336.103 77.0444 337.254 77.3834C337.486 77.4519 337.719 77.5594 337.955 77.5699C338.494 77.5934 338.934 77.7899 339.369 78.1099C339.817 78.4399 340.399 78.4819 340.934 78.4934C342.602 78.5284 344.272 78.5104 345.94 78.5034C346.149 78.5024 346.367 78.4694 346.566 78.4064C347.904 77.9829 349.262 78.1129 350.619 78.2539C351.371 78.3324 352.122 78.4199 352.871 78.5169C354.461 78.7234 356.057 78.8779 357.627 79.2249C358.245 79.3619 358.882 79.4144 359.507 79.5209C361.096 79.7914 362.65 80.1924 364.113 80.8794C365.006 81.2989 365.959 81.4494 366.916 81.6049C367.752 81.7409 368.61 81.7994 369.392 82.1554C369.969 82.4179 370.52 82.7364 371.082 83.0329C371.445 83.2249 371.551 83.5814 371.614 83.9414C371.692 84.3884 371.386 84.8174 370.939 84.8549C370.398 84.9004 369.86 84.9194 369.325 84.7129C368.676 84.4624 368.001 84.2809 367.337 84.0689C366.963 83.9494 366.588 83.8284 366.213 83.7094C365.567 83.5044 364.7 83.8219 364.385 84.3789C364.18 84.7424 364.226 85.0174 364.581 85.2299C365.099 85.5404 365.61 85.8659 366.224 85.9854C366.546 86.0479 366.867 86.1709 367.155 86.3269C367.486 86.5064 367.47 86.8784 367.137 87.0359C366.923 87.1369 366.674 87.2419 366.448 87.2269C365.504 87.1649 364.835 87.6634 364.208 88.2584C363.812 88.6339 363.429 89.0244 363.049 89.4159C362.587 89.8919 362.037 90.0929 361.396 89.9029C360.923 89.7629 360.515 89.8299 360.096 90.0814C359.761 90.2829 359.366 90.3874 359.034 90.5929C358.513 90.9149 358.4 91.4609 358.808 91.9074C359.275 92.4174 359.505 93.1104 360.133 93.5044C360.362 93.6484 360.478 93.9914 360.614 94.2594C360.849 94.7209 361.077 95.1799 361.477 95.5299C361.817 95.8274 361.971 96.2404 361.991 96.6634C362.018 97.2339 362.002 97.8159 361.916 98.3799C361.812 99.0674 361.618 99.7409 361.459 100.419C361.431 100.536 361.395 100.654 361.342 100.761C361.208 101.033 360.917 101.126 360.65 100.982C360.545 100.925 360.451 100.844 360.358 100.768C359.681 100.21 359.002 99.6539 358.331 99.0889C358.123 98.9134 357.908 98.7329 357.745 98.5179C357.007 97.5409 355.998 96.8554 355.129 96.0219C354.482 95.4009 353.948 94.6414 353.459 93.8824C353.185 93.4574 353.144 92.9004 353.316 92.3839C353.44 92.0104 353.601 91.6499 353.733 91.2789C353.874 90.8804 354.031 90.4839 354.126 90.0734C354.262 89.4869 353.999 89.1564 353.391 89.0769C353.002 89.0264 352.612 88.9824 352.223 88.9284C351.883 88.8814 351.583 88.7514 351.347 88.4894C350.923 88.0184 350.345 87.9254 349.766 87.9204C348.734 87.9109 348.255 88.8014 348.796 89.6879C348.954 89.9454 349.161 90.1724 349.312 90.4334C349.457 90.6849 349.384 90.9239 349.116 91.0374C348.871 91.1414 348.6 91.2179 348.336 91.2374C347.883 91.2704 347.426 91.2434 346.971 91.2519C346.597 91.2589 346.269 91.1774 345.949 90.9519C345.742 90.8059 345.446 90.7139 345.192 90.7189C343.983 90.7444 342.768 90.5784 341.564 90.8429C341.31 90.8989 341.016 90.8584 340.757 90.7959C340.023 90.6194 339.313 90.7219 338.602 90.9124C338.196 91.0209 337.9 91.2399 337.717 91.6279C337.446 92.2029 337.077 92.7449 336.895 93.3454C336.696 94.0019 336.647 94.7064 336.563 95.3944C336.532 95.6519 336.693 95.8549 336.923 95.9824C337.505 96.3054 338.084 96.6359 338.675 96.9424C338.83 97.0224 339.036 97.0864 339.199 97.0549C340.167 96.8684 341.126 97.1799 342.091 97.0849C342.482 97.0464 342.883 97.0879 343.271 97.0369C343.641 96.9884 343.928 97.0984 344.176 97.3484C344.346 97.5204 344.531 97.6879 344.66 97.8889C344.93 98.3099 345.278 98.6219 345.718 98.8609C345.919 98.9699 346.064 99.1834 346.229 99.3549C346.27 99.3969 346.281 99.4664 346.318 99.5124C347.039 100.406 347.742 101.315 348.495 102.18C348.723 102.442 349.08 102.606 349.4 102.771C349.74 102.946 349.992 103.18 350.146 103.531C350.425 104.167 350.832 104.746 350.972 105.446C351.012 105.647 351.141 105.832 351.241 106.018C351.327 106.178 351.441 106.323 351.525 106.484C351.779 106.964 351.751 107.232 351.438 107.442C351.055 107.699 350.589 107.653 350.277 107.324C350.236 107.281 350.198 107.231 350.167 107.18C349.731 106.456 349.275 105.742 348.868 105.002C348.599 104.513 348.186 104.242 347.695 104.059C347.441 103.965 347.225 104.059 347.054 104.273C346.58 104.867 346.367 105.544 346.37 106.3C346.373 106.844 346.433 107.405 346.183 107.913C345.777 108.739 345.597 109.621 345.411 110.514C345.185 111.599 344.601 111.999 343.441 111.965C342.714 111.943 342.226 112.28 341.933 112.912C341.806 113.185 341.702 113.482 341.666 113.778C341.594 114.358 341.289 114.788 340.892 115.178C340.763 115.305 340.621 115.424 340.52 115.571C340.371 115.79 340.355 116.043 340.542 116.244C340.768 116.486 340.999 116.742 341.277 116.913C342.175 117.466 342.812 118.285 343.461 119.072C343.96 119.677 344.267 120.426 344.476 121.194C344.598 121.64 344.47 121.884 344.054 122.071C343.614 122.268 343.172 122.462 342.723 122.636C342.558 122.7 342.371 122.721 342.191 122.733C341.887 122.754 341.659 122.62 341.547 122.331C341.438 122.049 341.331 121.763 341.249 121.472C341.006 120.603 340.584 119.856 339.891 119.257C339.456 118.882 339.092 118.428 338.549 118.184C338.225 118.039 338.057 117.762 337.982 117.408C337.85 116.788 337.511 116.313 336.969 115.961C336.724 115.802 336.516 115.728 336.217 115.769C335.624 115.849 335.094 116.016 334.695 116.489C334.618 116.581 334.523 116.661 334.427 116.734C334.173 116.928 333.969 116.906 333.829 116.635C333.678 116.342 333.544 116.035 333.451 115.72C333.217 114.926 332.549 114.717 331.937 115.245C331.294 115.801 331.135 116.774 331.74 117.627C331.896 117.848 332.109 118.028 332.295 118.227C332.571 118.52 332.915 118.632 333.289 118.506C333.783 118.339 334.238 118.425 334.711 118.58C334.995 118.673 335.303 118.694 335.6 118.748C335.748 118.775 335.917 118.768 336.037 118.841C336.151 118.909 336.274 119.06 336.281 119.181C336.287 119.301 336.183 119.471 336.076 119.543C335.931 119.639 335.737 119.663 335.564 119.715C334.95 119.901 334.651 120.397 334.417 120.931C334.289 121.225 334.378 121.53 334.572 121.789C334.898 122.225 335.223 122.662 335.558 123.092C335.985 123.641 336.41 124.187 336.728 124.816C336.871 125.099 337.134 125.339 337.386 125.546C337.75 125.845 338.025 126.185 338.174 126.634C338.25 126.863 338.347 127.088 338.457 127.303C338.989 128.353 338.943 129.476 338.877 130.599C338.867 130.77 338.744 130.932 338.685 131.103C338.576 131.417 338.476 131.733 338.372 132.049C338.269 132.363 338.171 132.68 338.063 132.993C338.003 133.164 337.865 133.332 337.87 133.498C337.903 134.542 337.145 135.199 336.664 135.982C336.265 136.631 335.652 137.107 335.064 137.574C334.694 137.868 334.218 138.037 333.777 138.231C333.387 138.403 333.05 138.604 332.743 138.928C332.419 139.269 331.953 139.479 331.539 139.73C330.918 140.108 330.296 140.486 329.659 140.837C329.37 140.996 329.048 141.103 328.734 141.212C328.214 141.394 327.72 141.331 327.26 141.018C326.883 140.762 326.496 140.523 326.125 140.259C325.842 140.058 325.581 140.081 325.275 140.217C324.322 140.641 323.879 141.47 323.657 142.394C323.508 143.017 323.666 143.636 324.224 144.113C324.632 144.462 324.986 144.888 325.308 145.322C325.938 146.172 326.849 146.777 327.371 147.717C327.533 148.008 327.762 148.273 327.863 148.582C328.145 149.443 328.469 150.308 328.596 151.197C328.682 151.798 328.539 152.466 328.357 153.06C328.195 153.588 327.71 153.917 327.213 154.179C326.728 154.435 326.271 154.729 325.981 155.223C325.921 155.325 325.824 155.408 325.734 155.489C325.33 155.851 324.911 156.189 324.571 156.627C324.245 157.048 323.922 157.041 323.582 156.646C323.288 156.304 323.061 155.904 322.803 155.531C322.563 155.183 322.349 154.811 322.069 154.498C321.861 154.266 321.683 154.036 321.597 153.737C321.358 152.908 320.764 152.338 320.148 151.795C319.602 151.314 318.61 151.405 318.202 152.012C317.586 152.929 317.161 153.928 317.242 155.077C317.263 155.37 317.322 155.622 317.629 155.73C317.987 155.856 318.105 156.139 318.214 156.477C318.545 157.511 319.104 158.392 320.026 159.015C320.792 159.532 321.374 160.23 321.868 161.001C322.3 161.676 322.62 162.387 322.523 163.223C322.446 163.893 322.81 164.45 323.015 165.047C323.113 165.333 323.242 165.611 323.32 165.902C323.401 166.203 323.171 166.44 322.86 166.406C322.771 166.396 322.676 166.382 322.598 166.342C321.278 165.665 320.121 164.811 319.493 163.403C319.283 162.932 319.066 162.463 318.887 161.981C318.568 161.123 318.155 160.317 317.633 159.567C317.22 158.975 316.895 158.334 316.352 157.814C315.995 157.471 315.977 156.877 316.038 156.354C316.062 156.145 316.134 155.941 316.182 155.734C316.216 155.587 316.302 155.424 316.268 155.293C316.082 154.564 316.337 153.841 316.289 153.136C316.224 152.183 316.095 151.205 315.646 150.32C315.427 149.887 315.2 149.457 315 149.015C314.876 148.742 314.76 148.455 314.707 148.162C314.649 147.845 314.509 147.602 314.293 147.375C313.675 146.722 313.125 146.665 312.38 147.199C312.258 147.287 312.165 147.426 312.033 147.488C311.91 147.547 311.754 147.546 311.611 147.551C311.559 147.553 311.5 147.505 311.451 147.47C311.187 147.28 310.768 147.376 310.597 147.014C310.452 146.706 310.652 146.421 310.654 146.126C310.656 145.828 310.629 145.521 310.558 145.232C310.33 144.311 309.874 143.483 309.433 142.653C309.337 142.471 309.199 142.271 309.027 142.178C308.21 141.732 307.828 140.92 307.319 140.215C307.142 139.97 307.006 139.695 306.827 139.451C306.552 139.078 306.178 138.923 305.712 139.008C304.909 139.154 304.108 139.306 303.303 139.435C302.801 139.515 302.398 139.77 302.019 140.078C301.803 140.254 301.631 140.465 301.599 140.757C301.509 141.55 300.954 141.995 300.314 142.28C299.863 142.481 299.577 142.777 299.317 143.156C299.147 143.405 298.943 143.631 298.759 143.871C298.575 144.11 298.394 144.351 298.216 144.595C298.092 144.765 298.013 145.016 297.847 145.101C297.249 145.406 296.926 145.952 296.531 146.444C296.325 146.701 296.046 146.899 295.795 147.117C295.636 147.256 295.445 147.364 295.305 147.52C294.951 147.914 294.7 148.351 294.827 148.92C294.887 149.185 294.918 149.458 294.945 149.728C294.978 150.059 295.037 150.395 295.006 150.721C294.943 151.383 294.825 152.039 294.734 152.698C294.705 152.907 294.648 153.123 294.672 153.329C294.791 154.351 294.239 155.121 293.73 155.908C293.665 156.007 293.575 156.095 293.484 156.172C293.14 156.467 292.795 156.761 292.441 157.044C292.019 157.382 291.724 157.359 291.318 156.993C290.994 156.702 290.773 156.343 290.611 155.946C290.427 155.497 290.241 155.048 290.085 154.589C289.908 154.069 289.718 153.569 289.342 153.146C289.187 152.973 289.105 152.725 289.023 152.499C288.807 151.901 288.63 151.289 288.4 150.697C288.17 150.106 287.939 149.519 287.592 148.973C287.237 148.415 286.982 147.791 286.716 147.182C286.547 146.795 286.47 146.367 286.293 145.985C285.72 144.753 285.558 143.428 285.39 142.107C285.329 141.633 285.202 141.226 284.858 140.89C284.622 140.66 284.356 140.563 284.03 140.65C283.825 140.704 283.609 140.729 283.412 140.804C282.997 140.961 282.71 140.79 282.466 140.476C282.41 140.405 282.35 140.334 282.307 140.255C282.015 139.716 281.361 139.584 281.015 139.137C280.669 138.689 280.468 138.133 280.153 137.656C279.99 137.411 279.74 137.208 279.495 137.035C278.868 136.593 278.332 136.062 277.89 135.441C277.562 134.98 277.125 134.73 276.574 134.774C275.852 134.831 275.137 134.978 274.415 135.039C273.303 135.132 272.193 135.272 271.075 135.018C270.249 134.83 269.405 134.726 268.569 134.583C268.39 134.552 268.215 134.495 268.035 134.476C267.322 134.4 266.867 134.024 266.668 133.336C266.643 133.249 266.612 133.161 266.57 133.081C266.334 132.634 266.091 132.563 265.609 132.767C265.246 132.919 264.874 133.049 264.507 133.189C264.268 133.28 264.038 133.259 263.8 133.164C263.406 133.006 263.009 132.852 262.603 132.729C262.101 132.577 261.663 132.32 261.244 132.012C261.002 131.834 260.753 131.637 260.476 131.541C260.05 131.393 259.839 131.097 259.724 130.701C259.57 130.17 259.345 129.678 258.997 129.246C258.683 128.858 258.315 128.587 257.795 128.498C256.969 128.357 256.336 128.909 256.463 129.733C256.494 129.938 256.579 130.143 256.678 130.328C256.894 130.728 257.127 131.119 257.369 131.504C257.447 131.628 257.56 131.741 257.681 131.826C258.201 132.192 258.731 132.544 259.256 132.902C259.406 133.004 259.571 133.092 259.699 133.218C260.676 134.175 260.647 134.022 260.602 135.337C260.579 136.022 260.626 136.063 261.312 136.235C261.885 136.378 262.435 136.398 263.01 136.226C263.555 136.063 263.991 135.804 264.325 135.326C264.836 134.597 265.651 134.574 266.214 135.252C266.503 135.601 266.761 135.978 267.02 136.351C267.207 136.621 267.443 136.796 267.778 136.761C268.519 136.683 268.97 137.095 269.341 137.653C269.392 137.729 269.44 137.806 269.491 137.882C270.234 138.979 270.23 139.383 269.511 140.518C269.22 140.977 268.96 141.456 268.69 141.928C268.63 142.033 268.557 142.144 268.543 142.259C268.394 143.486 267.437 144.071 266.583 144.734C266.442 144.843 266.26 144.897 266.1 144.982C265.941 145.067 265.746 145.126 265.636 145.255C265.202 145.766 264.606 145.997 264.011 146.217C263.159 146.531 262.462 147.017 261.98 147.801C261.707 148.245 261.243 148.469 260.772 148.542C260.025 148.657 259.41 149.036 258.761 149.358C258.571 149.452 258.403 149.619 258.206 149.661C257.126 149.891 256.202 150.521 255.15 150.824C254.806 150.923 254.481 151.102 254.162 151.271C253.895 151.412 253.627 151.442 253.383 151.285C252.897 150.972 252.41 150.639 252.282 150.018C252.175 149.501 251.949 149.045 251.649 148.619C251.184 147.96 251.063 147.162 250.78 146.431C250.56 145.86 250.323 145.313 249.972 144.811C249.817 144.589 249.668 144.351 249.578 144.099C249.19 143.012 248.583 142.111 247.567 141.509C247.371 141.393 247.201 141.188 247.086 140.986C246.814 140.51 246.667 139.992 246.594 139.439C246.435 138.228 245.907 137.188 244.954 136.408C244.635 136.146 244.416 135.854 244.255 135.482C244.088 135.096 243.916 134.692 243.657 134.368C242.468 132.887 241.675 131.195 240.902 129.48C240.569 128.74 240.368 128.003 240.419 127.199C240.433 126.992 240.47 126.776 240.547 126.584C240.829 125.879 241.06 125.166 241.167 124.408C241.213 124.088 241.352 123.766 241.513 123.48C241.824 122.925 241.924 122.347 241.845 121.726C241.826 121.576 241.817 121.424 241.81 121.273C241.78 120.634 241.273 120.058 240.656 119.969C240.338 119.923 240.047 120.006 239.8 120.199C239.146 120.709 238.483 120.649 237.762 120.331C237.295 120.126 236.783 120.01 236.28 119.912C236.101 119.877 235.859 119.971 235.697 120.081C235.324 120.333 234.99 120.297 234.589 120.131C233.976 119.876 233.349 119.656 232.663 119.63C232.103 119.609 231.73 119.207 231.44 118.778C231.116 118.297 230.893 117.765 230.943 117.155C230.992 116.545 230.881 115.949 230.767 115.351C230.704 115.018 230.545 114.797 230.241 114.669C230.185 114.646 230.131 114.619 230.074 114.599C228.877 114.17 228.769 114.371 228.2 115.344C228.115 115.489 228.061 115.709 228.105 115.863C228.235 116.327 228.151 116.835 228.425 117.273C228.509 117.406 228.52 117.631 228.475 117.789C228.309 118.371 228.112 118.944 227.914 119.517C227.768 119.94 227.581 120.054 227.161 119.972C226.954 119.932 226.754 119.855 226.551 119.792C226.234 119.693 226.017 119.476 225.967 119.155C225.844 118.367 225.383 117.781 224.9 117.185C224.579 116.789 224.351 116.316 224.085 115.875C223.96 115.668 223.864 115.442 223.722 115.25C223.549 115.017 223.483 114.765 223.485 114.485C223.485 114.394 223.479 114.303 223.482 114.212C223.518 113.226 223.022 112.532 222.231 112.039C221.842 111.796 221.477 111.542 221.139 111.232C220.97 111.077 220.731 110.974 220.506 110.907C219.929 110.737 219.475 110.415 219.123 109.931C218.669 109.307 218.048 108.871 217.417 108.448C217.1 108.236 216.773 108.251 216.49 108.486C216.23 108.701 216.041 108.961 216.126 109.354C216.211 109.752 216.354 110.095 216.656 110.383C216.895 110.611 217.18 110.852 217.287 111.145C217.551 111.873 218.191 112.174 218.739 112.589C218.786 112.625 218.843 112.657 218.9 112.67C220.161 112.952 221.007 113.939 222.074 114.548C222.224 114.634 222.343 114.796 222.442 114.945C222.547 115.103 222.584 115.316 222.402 115.43C222.302 115.493 222.116 115.466 221.988 115.423C221.762 115.346 221.56 115.183 221.331 115.132C220.874 115.03 220.529 115.414 220.718 115.835C220.89 116.218 220.986 116.559 220.781 116.957C220.531 117.442 220.341 117.974 219.734 118.134C219.282 118.252 219.141 118.556 219.089 119C219.017 119.618 218.661 119.766 218.145 119.478C217.67 119.214 217.181 118.977 216.704 118.717C216.52 118.617 216.344 118.498 216.18 118.368C216.073 118.283 216.118 118.031 216.246 117.974C216.381 117.915 216.528 117.856 216.672 117.847C217.005 117.826 217.341 117.853 217.673 117.828C218.033 117.801 218.397 117.765 218.749 117.683C219.405 117.531 219.662 117.182 219.65 116.53C219.642 116.114 219.494 115.771 219.165 115.497C218.935 115.305 218.719 115.091 218.53 114.859C218.265 114.535 217.899 114.392 217.536 114.245C216.654 113.889 215.912 113.328 215.187 112.73C214.526 112.184 213.947 111.588 213.56 110.806C213.447 110.577 213.204 110.395 212.989 110.234C212.348 109.754 212.301 109.764 211.664 110.246C211.544 110.337 211.423 110.46 211.286 110.488C210.795 110.588 210.378 110.808 210.009 111.144C209.793 111.341 209.523 111.371 209.239 111.299C208.798 111.188 208.355 111.086 207.913 110.979C207.549 110.891 207.192 110.889 206.845 111.048C206.458 111.225 206.147 111.5 206.199 111.946C206.315 112.938 205.715 113.452 204.982 113.885C204.753 114.021 204.495 114.135 204.236 114.184C203.874 114.252 203.641 114.446 203.447 114.738C203.23 115.066 203.026 115.416 202.751 115.689C202.375 116.062 202.116 116.404 202.421 116.954C202.479 117.059 202.382 117.316 202.277 117.433C201.989 117.754 201.741 118.089 201.61 118.504C201.584 118.588 201.542 118.691 201.475 118.736C200.636 119.291 199.95 120.159 198.756 119.975C198.344 119.911 197.916 119.994 197.522 120.199C196.84 120.554 196.17 120.327 195.66 119.908C195.099 119.448 194.533 119.227 193.832 119.286C193.772 119.291 193.711 119.288 193.65 119.287C192.774 119.27 192.733 119.242 192.718 118.354C192.711 117.919 192.676 117.514 192.358 117.173C192.14 116.94 192.207 116.669 192.335 116.409C192.588 115.894 192.896 115.412 193.047 114.843C193.134 114.515 193.2 114.223 193.15 113.874C193.09 113.462 193.147 113.034 193.153 112.613C193.157 112.345 193.205 112.068 193.156 111.81C193.087 111.449 193.21 111.227 193.514 111.065C193.701 110.965 193.888 110.862 194.065 110.745C194.307 110.586 194.572 110.513 194.845 110.592C195.5 110.784 196.169 110.712 196.834 110.735C197.136 110.745 197.437 110.791 197.739 110.804C198.672 110.843 199.605 110.892 200.539 110.901C200.966 110.905 201.12 110.739 201.232 110.317C201.348 109.878 201.461 109.438 201.564 108.996C201.714 108.35 201.669 107.723 201.295 107.159C201.028 106.756 200.752 106.352 200.428 105.995C200.029 105.555 199.499 105.321 198.905 105.257C198.406 105.204 198.155 104.906 198.069 104.438C198.03 104.225 198.122 104.07 198.329 104.031C198.774 103.946 199.222 103.847 199.672 103.823C200.219 103.795 200.683 103.646 201.023 103.198C201.388 102.718 201.865 102.617 202.397 102.848C202.742 102.998 203.024 102.916 203.35 102.785C203.984 102.53 204.532 102.212 204.899 101.596C205.044 101.353 205.339 101.188 205.589 101.024C206.018 100.743 206.487 100.52 206.897 100.216C207.183 100.004 207.425 99.7174 207.642 99.4304C208.093 98.8339 208.638 98.4034 209.351 98.1379C209.914 97.9284 210.436 97.6039 210.966 97.3114C211.32 97.1159 211.492 96.8014 211.38 96.3949C211.158 95.5869 211.349 94.8319 211.647 94.0899C211.846 93.5969 212.565 93.0994 213.073 93.1259C213.191 93.1319 213.385 93.2689 213.401 93.3684C213.49 93.9264 213.731 94.4854 213.446 95.0579C213.38 95.1914 213.345 95.3454 213.322 95.4939C213.177 96.4319 214.085 97.2279 214.995 96.9529C215.224 96.8834 215.439 96.7629 215.658 96.6599C216.057 96.4709 216.421 96.5114 216.748 96.8169C216.837 96.8999 216.929 96.9794 217.01 97.0699C217.283 97.3779 217.593 97.4539 217.99 97.3034C218.527 97.0994 219.08 96.9374 219.625 96.7544C220.378 96.5019 221.16 96.3714 221.945 96.3629C222.772 96.3534 223.35 96.0454 223.653 95.2719C223.795 94.9079 223.96 94.5424 224.028 94.1619C224.169 93.3619 224.53 92.8154 225.389 92.6834C225.799 92.6204 226.106 92.3929 226.287 91.9954C226.648 91.2059 226.438 90.5769 225.655 90.1934C225.301 90.0204 224.937 89.8674 224.579 89.7044C224.035 89.4574 223.736 89.0389 223.668 88.4429C223.62 88.0224 223.537 87.6059 223.486 87.1854C223.417 86.6194 223.599 86.1769 224.132 85.9024C224.922 85.4954 225.581 84.9169 226.196 84.2834C226.28 84.1969 226.378 84.1224 226.453 84.0289C226.563 83.8909 226.5 83.6499 226.341 83.5554C225.738 83.1974 224.243 83.4314 223.798 83.9589C223.701 84.0739 223.616 84.2029 223.543 84.3349C223.007 85.3064 222.163 85.9209 221.188 86.3889C220.97 86.4939 220.745 86.5944 220.545 86.7284C220.156 86.9884 219.992 87.3639 220.076 87.8284C220.168 88.3424 220.321 88.8234 220.757 89.1739C220.992 89.3629 221.186 89.6019 221.4 89.8174C221.596 90.0164 221.604 90.2329 221.495 90.4839C221.281 90.9754 220.996 91.3994 220.453 91.5544C219.86 91.7239 219.672 92.1154 219.639 92.7059C219.608 93.2434 219.446 93.7744 219.328 94.3049C219.246 94.6749 219.01 94.8949 218.62 94.8799C218.168 94.8629 217.808 95.0259 217.458 95.3054C217.254 95.4674 216.973 95.5524 216.714 95.6194C216.216 95.7479 215.71 95.8494 215.203 95.9414C214.97 95.9839 214.79 95.8654 214.692 95.6474C214.585 95.4099 214.69 95.2389 214.884 95.1059C215.135 94.9349 215.397 94.7794 215.636 94.5934C216.023 94.2924 216.071 94.0454 215.779 93.6704C215.185 92.9089 214.68 92.0784 213.893 91.4689C213.443 91.1209 213.144 90.9959 212.625 91.4799C212.212 91.8649 211.762 92.1579 211.213 92.2579C210.891 92.3169 210.545 92.3424 210.225 92.2894C209.791 92.2179 209.435 91.9839 209.301 91.5169C209.093 90.7894 208.857 90.0689 208.679 89.3339C208.588 88.9569 208.582 88.5559 208.561 88.1649C208.537 87.7209 208.764 87.4164 209.155 87.2289C209.292 87.1639 209.432 87.0999 209.577 87.0609C210.054 86.9324 210.47 86.7029 210.853 86.3889C211.06 86.2189 211.307 86.0779 211.558 85.9819C212.36 85.6759 213.089 85.2404 213.767 84.7279C214.15 84.4379 214.525 84.1129 214.821 83.7384C215.428 82.9729 216.11 82.2989 216.871 81.6884C217.317 81.3304 217.692 80.8834 218.102 80.4799C218.337 80.2489 218.566 80.0094 218.82 79.8014C219.383 79.3424 219.952 78.8904 220.535 78.4584C220.722 78.3204 220.953 78.2144 221.18 78.1644C221.592 78.0729 222.014 78.0094 222.436 77.9809C222.908 77.9484 223.329 77.8234 223.679 77.4974C223.919 77.2744 224.215 77.2344 224.526 77.2349C225.193 77.2364 225.861 77.2354 226.528 77.2354C226.531 77.2379 226.531 77.2364 226.531 77.2364ZM260.347 119.329C260.338 119.307 260.334 119.273 260.319 119.266C260.301 119.259 260.274 119.277 260.251 119.285C260.267 119.317 260.283 119.348 260.299 119.38C260.315 119.363 260.331 119.346 260.347 119.329Z" fill="#FBA2B0"/>
<path d="M261.161 153.704C261.112 154.735 260.979 155.73 260.511 156.689C259.688 158.377 258.984 160.123 258.167 161.814C257.855 162.461 257.386 163.037 256.958 163.622C256.492 164.258 255.955 164.836 255.301 165.284C254.953 165.523 254.577 165.723 254.201 165.917C253.845 166.101 253.579 166.366 253.3 166.654C252.539 167.442 251.889 168.312 251.234 169.182C250.997 169.496 250.768 169.818 250.516 170.119C250.305 170.372 250.083 170.619 249.836 170.836C249.352 171.261 248.96 171.728 248.715 172.346C248.425 173.075 248.056 173.776 247.687 174.471C247.405 175.001 247.252 175.521 247.423 176.125C247.579 176.677 247.716 177.24 247.79 177.807C247.848 178.25 247.843 178.713 247.78 179.155C247.731 179.501 247.725 179.821 247.864 180.132C248.111 180.685 248.347 181.247 248.642 181.774C249.142 182.668 249.313 183.584 248.966 184.565C248.737 185.215 248.704 185.886 248.861 186.539C249.171 187.827 248.673 188.857 247.901 189.804C247.437 190.373 246.847 190.804 246.19 191.138C246.055 191.207 245.917 191.272 245.784 191.345C245.097 191.723 244.39 192.063 243.974 192.801C243.834 193.049 243.528 193.201 243.305 193.405C243.128 193.567 242.953 193.734 242.796 193.915C242.131 194.68 242.115 195.576 242.335 196.492C242.506 197.204 242.626 197.911 242.602 198.648C242.578 199.366 242.334 200.017 242.038 200.646C241.93 200.876 241.691 201.058 241.482 201.224C241.127 201.508 240.757 201.774 240.379 202.025C239.898 202.344 239.626 202.785 239.472 203.335C239.268 204.064 238.996 204.774 238.802 205.505C238.701 205.883 238.508 206.171 238.222 206.402C237.498 206.986 236.982 207.726 236.568 208.545C236.305 209.067 235.933 209.494 235.51 209.895C235.093 210.288 234.714 210.723 234.338 211.157C233.689 211.903 232.947 212.495 231.955 212.716C231.779 212.755 231.604 212.817 231.444 212.899C230.724 213.265 229.951 213.409 229.159 213.406C228.48 213.404 227.829 213.518 227.195 213.734C226.699 213.903 226.2 213.978 225.677 213.969C225.376 213.964 225.067 213.986 224.776 214.056C224.235 214.187 223.751 214.016 223.283 213.808C222.823 213.604 222.52 213.255 222.389 212.733C222.249 212.177 222.056 211.652 222.192 211.053C222.294 210.603 222.136 210.153 221.982 209.72C221.728 209.009 221.43 208.31 221.37 207.542C221.356 207.363 221.297 207.186 221.244 207.012C221.145 206.684 220.963 206.415 220.683 206.206C219.657 205.437 219.173 204.357 218.923 203.138C218.735 202.219 218.729 201.272 218.458 200.363C218.366 200.054 218.367 199.695 218.414 199.372C218.568 198.321 218.344 197.388 217.647 196.581C217.162 196.019 216.886 195.342 216.605 194.673C216.288 193.92 216.039 193.137 215.541 192.47C215.436 192.329 215.332 192.146 215.327 191.979C215.298 190.984 215.177 189.987 215.565 189.013C215.878 188.23 216.116 187.417 216.232 186.573C216.316 185.962 216.565 185.447 217.023 184.987C217.812 184.196 218.076 183.245 217.606 182.159C217.402 181.687 217.213 181.203 217.073 180.709C216.975 180.365 216.937 179.995 216.936 179.637C216.934 178.647 216.731 177.729 216.246 176.849C215.973 176.354 215.785 175.783 215.693 175.224C215.594 174.618 215.299 174.144 214.948 173.691C214.374 172.949 213.761 172.238 213.173 171.506C212.812 171.055 212.527 170.565 212.308 170.021C212.109 169.528 212.12 169.075 212.311 168.614C212.594 167.933 212.749 167.235 212.755 166.493C212.758 166.197 212.84 165.892 212.936 165.609C213.086 165.168 213.093 164.719 213.112 164.263C213.139 163.632 212.831 163.234 212.309 162.954C211.451 162.494 210.534 162.365 209.576 162.467C209.456 162.479 209.34 162.526 209.22 162.541C208.742 162.6 208.388 162.429 208.171 162.005C208.061 161.79 207.975 161.558 207.914 161.325C207.703 160.515 207.093 160.085 206.36 159.96C205.471 159.809 204.541 159.754 203.665 160.099C202.88 160.408 202.112 160.763 201.337 161.096C201.225 161.144 201.11 161.181 200.998 161.228C199.248 161.961 199.239 161.998 197.431 161.507C196.611 161.284 195.87 161.474 195.117 161.679C194.533 161.838 193.962 162.054 193.401 162.28C192.845 162.505 192.343 162.479 191.86 162.11C191.668 161.963 191.427 161.87 191.26 161.701C190.423 160.848 189.334 160.346 188.41 159.619C187.452 158.864 186.575 158.032 186.23 156.787C186.126 156.411 185.941 156.052 185.753 155.707C185.61 155.445 185.412 155.211 185.221 154.979C185.088 154.816 184.864 154.704 184.787 154.524C184.508 153.869 183.944 153.485 183.415 153.104C182.763 152.636 182.396 151.999 182.069 151.314C181.939 151.041 181.849 150.749 181.724 150.473C181.183 149.27 181.366 148.052 182.279 147.125C182.633 146.765 182.891 146.398 182.937 145.876C182.971 145.486 183.093 145.105 183.171 144.718C183.28 144.174 183.326 143.637 183.017 143.13C182.956 143.03 182.935 142.904 182.905 142.787C182.772 142.26 182.664 141.725 182.508 141.205C182.212 140.217 182.289 139.295 182.909 138.446C182.98 138.348 183.065 138.248 183.097 138.136C183.336 137.3 183.89 136.647 184.337 135.928C184.67 135.392 184.916 134.797 185.153 134.209C185.305 133.832 185.465 133.501 185.831 133.28C186.321 132.985 186.573 132.478 186.806 131.991C187.047 131.487 187.402 131.158 187.92 130.998C188.252 130.896 188.508 130.699 188.745 130.455C189.293 129.89 189.869 129.356 190.296 128.677C190.638 128.132 190.88 127.562 191.093 126.955C191.331 126.279 191.713 125.653 192.033 125.005C192.648 124.617 193.07 123.972 193.759 123.688C194.326 123.454 194.699 123.057 194.943 122.498C195.088 122.168 195.301 121.865 195.498 121.56C195.785 121.115 196.25 120.928 196.65 121.235C197.369 121.788 198.107 121.649 198.899 121.537C199.802 121.41 200.692 121.278 201.552 120.957C201.846 120.847 202.105 120.739 202.306 120.49C202.672 120.033 203.169 119.834 203.745 119.84C204.632 119.849 205.493 119.68 206.346 119.471C207.006 119.309 207.643 119.192 208.301 119.501C208.464 119.577 208.726 119.54 208.904 119.464C209.448 119.232 209.971 119.148 210.578 119.25C211.19 119.352 211.829 119.366 212.442 119.047C212.908 118.804 213.456 118.89 213.964 118.978C214.353 119.046 214.599 119.397 214.508 119.792C214.389 120.308 214.41 120.8 214.484 121.32C214.523 121.592 214.373 121.907 214.256 122.181C213.923 122.963 214.012 123.529 214.673 124.013C215.261 124.444 215.901 124.802 216.68 124.755C216.952 124.738 217.229 124.729 217.499 124.759C217.828 124.794 218.155 124.86 218.477 124.938C218.95 125.054 219.313 125.325 219.43 125.816C219.583 126.457 220.029 126.724 220.621 126.732C221.427 126.742 222.093 127.077 222.701 127.541C223.077 127.828 223.458 127.903 223.892 127.783C224.279 127.676 224.491 127.348 224.443 126.955C224.435 126.895 224.42 126.835 224.397 126.779C224.266 126.466 224.12 126.137 224.367 125.833C224.669 125.462 224.952 125.047 225.477 124.947C225.745 124.896 226.01 124.827 226.28 124.788C226.932 124.693 227.546 124.742 228.068 125.224C228.241 125.383 228.465 125.524 228.689 125.585C229.306 125.755 229.918 125.917 230.459 126.278C230.554 126.342 230.688 126.352 230.806 126.373C231.522 126.498 232.241 126.603 232.952 126.748C233.365 126.832 233.782 126.939 234.168 127.104C234.596 127.287 234.969 127.327 235.361 127.031C235.552 126.887 235.796 126.814 235.997 126.681C236.509 126.344 237.03 126.374 237.555 126.624C238.514 127.079 239.279 127.683 239.622 128.778C239.941 129.8 240.14 130.832 240.22 131.889C240.253 132.328 240.352 132.732 240.588 133.09C241.23 134.059 241.658 135.127 242.081 136.2C242.191 136.478 242.346 136.747 242.521 136.99C242.893 137.504 243.303 137.991 243.675 138.505C243.851 138.748 244.026 139.013 244.115 139.295C244.361 140.074 244.603 140.858 244.764 141.657C244.856 142.116 244.993 142.538 245.245 142.918C245.546 143.373 245.844 143.836 246.202 144.244C246.771 144.89 247.017 145.655 247.135 146.475C247.271 147.422 247.732 148.104 248.652 148.44C248.851 148.513 249.056 148.576 249.245 148.672C249.431 148.766 249.639 148.863 249.769 149.016C250.51 149.894 251.229 150.791 251.959 151.678C252.119 151.872 252.25 152.071 252.18 152.337C252.05 152.826 252.342 153.139 252.639 153.452C252.986 153.819 253.394 154.107 253.912 154.048C254.57 153.973 255.231 153.866 255.869 153.695C256.746 153.46 257.603 153.15 258.47 152.876C258.585 152.84 258.707 152.81 258.826 152.807C259.382 152.797 259.899 152.673 260.398 152.413C260.76 152.224 261.064 152.404 261.142 152.792C261.154 152.851 261.159 152.913 261.16 152.973C261.162 153.219 261.161 153.461 261.161 153.704Z" fill="#FBA2B0"/>
<path d="M136.881 74.3918C137.693 74.3168 138.504 74.2003 139.317 74.1763C140.464 74.1428 141.617 74.0243 142.759 74.3008C143.263 74.4228 143.635 74.6408 143.879 75.1238C144.312 75.9843 145.007 76.5263 145.975 76.7038C146.581 76.8148 147.121 77.0843 147.618 77.4498C148.1 77.8043 148.377 78.2613 148.24 78.8558C148.13 79.3368 148.286 79.6873 148.606 80.0018C148.949 80.3393 149.254 80.7118 149.72 80.9193C150.114 81.0943 150.494 81.9218 150.408 82.3083C150.377 82.4473 150.294 82.5993 150.189 82.6938C149.693 83.1378 149.199 83.5873 148.67 83.9893C148.271 84.2923 147.684 84.1893 147.353 83.8128C147.214 83.6543 147.117 83.4558 146.97 83.3058C146.781 83.1133 146.577 82.9258 146.35 82.7833C146.161 82.6648 145.936 82.6933 145.761 82.8558C145.599 83.0053 145.643 83.1858 145.717 83.3583C145.848 83.6648 145.985 83.9683 146.12 84.2728C146.498 85.1273 146.253 85.8778 145.469 86.3853C144.988 86.6968 144.51 87.0243 144.081 87.4018C143.544 87.8753 143.007 87.8588 142.4 87.5828C141.932 87.3698 141.445 87.1998 140.963 87.0188C140.374 86.7978 139.878 86.4983 139.701 85.8258C139.642 85.6008 139.475 85.3988 139.336 85.2013C139.108 84.8778 138.805 84.7318 138.394 84.8093C137.453 84.9873 136.522 84.8513 135.596 84.6778C135.255 84.6138 135.164 84.3933 135.33 84.0713C135.641 83.4658 136.275 83.1648 136.92 83.3788C137.479 83.5643 138.039 83.6553 138.619 83.5893C139.051 83.5403 139.416 83.4103 139.655 82.9683C139.804 82.6948 140.109 82.4938 140.372 82.2983C140.663 82.0823 140.998 81.9258 141.291 81.7118C141.483 81.5713 141.668 81.3963 141.795 81.1983C142.028 80.8378 141.928 80.3648 141.556 80.1748C141.143 79.9638 140.753 79.7618 140.552 79.3093C140.507 79.2098 140.39 79.1168 140.284 79.0743C139.67 78.8278 139.091 78.4673 138.388 78.5053C138.025 78.5253 137.658 78.4893 137.297 78.5218C136.73 78.5728 136.257 78.7903 135.949 79.3193C135.784 79.6028 135.542 79.8423 135.324 80.0928C135.165 80.2758 134.929 80.4163 134.833 80.6248C134.575 81.1873 134.094 81.4888 133.612 81.8033C133.409 81.9358 133.203 82.0678 133.02 82.2258C132.686 82.5148 132.309 82.6498 131.869 82.7053C130.819 82.8383 130.604 83.2598 131.105 84.1703C131.263 84.4583 131.501 84.7018 131.693 84.9728C131.844 85.1878 131.735 85.5013 131.479 85.5488C131.306 85.5808 131.114 85.5813 130.945 85.5388C130.742 85.4878 130.545 85.3928 130.362 85.2873C130.041 85.1023 129.722 85.1173 129.403 85.2623C129.073 85.4123 128.748 85.5768 128.426 85.7433C128.265 85.8263 128.119 85.9398 127.957 86.0203C127.658 86.1688 127.385 86.1603 127.132 85.8968C126.685 85.4308 126.095 85.3028 125.48 85.2453C124.652 85.1678 123.915 85.3488 123.321 85.9713C122.816 86.5013 122.172 86.7873 121.464 86.8358C120.324 86.9143 119.365 87.4488 118.437 88.0063C117.665 88.4708 116.996 89.1058 116.283 89.6683C115.771 90.0723 115.601 90.5503 115.881 91.1863C116.05 91.5713 116.119 91.9993 116.243 92.4053C116.347 92.7493 116.572 92.9653 116.927 93.0673C117.275 93.1673 117.616 93.2988 117.952 93.4343C118.349 93.5943 118.699 93.8198 118.982 94.1563C119.154 94.3603 119.362 94.5553 119.593 94.6848C120.463 95.1713 121.318 95.6878 122.387 95.6423C122.732 95.6273 123.091 95.7868 123.433 95.9003C123.618 95.9618 123.663 96.1868 123.562 96.3603C123.196 96.9873 122.816 97.6063 122.463 98.2398C122.117 98.8588 122.35 99.7673 122.932 100.182C123.123 100.318 123.326 100.347 123.533 100.249C123.917 100.068 124.306 99.8938 124.67 99.6778C125.051 99.4518 125.309 99.1043 125.338 98.6503C125.382 97.9508 125.808 97.3378 125.773 96.6158C125.767 96.4863 125.952 96.2978 126.095 96.2218C126.468 96.0218 126.851 95.7968 127.257 95.7128C128.058 95.5463 128.699 95.0713 129.366 94.6733C130.034 94.2748 130.376 93.5618 130.584 92.8188C130.625 92.6703 130.534 92.4668 130.459 92.3098C130.396 92.1783 130.262 92.0823 130.17 91.9623C129.852 91.5513 129.89 91.3848 130.365 91.1178C130.577 90.9988 130.796 90.8928 131.015 90.7883C131.653 90.4843 132.015 89.9918 131.958 89.2753C131.929 88.8998 132.049 88.6318 132.31 88.3913C132.557 88.1628 132.757 87.9113 132.835 87.5623C132.96 87.0073 133.399 86.7593 133.906 86.7318C134.599 86.6943 135.297 86.7443 135.993 86.7723C136.203 86.7808 136.413 86.8843 136.618 86.8703C137.312 86.8218 137.761 87.2593 138.172 87.6868C138.487 88.0133 138.768 88.3588 139.145 88.6278C139.568 88.9303 139.604 89.1778 139.4 89.6488C139.304 89.8708 139.187 90.0858 139.114 90.3148C138.956 90.8158 139.046 91.1368 139.479 91.4198C140.037 91.7848 140.573 91.9133 141.154 91.4738C141.877 90.9268 142.657 90.4543 143.417 89.9563C143.881 89.6518 144.094 89.6793 144.419 90.0993C144.915 90.7398 145.218 91.4508 145.198 92.2818C145.185 92.8278 145.174 93.3753 145.205 93.9198C145.225 94.2783 145.27 94.6518 145.395 94.9838C145.624 95.5933 145.972 96.1228 146.684 96.2748C146.83 96.3058 146.972 96.3723 147.103 96.4463C147.176 96.4878 147.278 96.5858 147.27 96.6443C147.195 97.1753 147.492 97.4698 147.877 97.7603C148.015 97.8648 148.105 98.1393 148.088 98.3243C148.045 98.8033 147.948 99.2798 147.839 99.7498C147.724 100.249 147.542 100.734 147.439 101.236C147.282 101.995 147.478 102.357 148.169 102.707C148.304 102.775 148.452 102.818 148.58 102.898C148.751 103.005 148.841 103.183 148.736 103.365C148.359 104.019 148.416 104.714 148.562 105.398C148.653 105.826 148.516 106.122 148.19 106.334C148.026 106.44 147.785 106.522 147.603 106.488C147.041 106.382 146.459 106.334 145.953 106.014C145.299 105.601 144.598 105.561 143.852 105.73C143.539 105.801 143.184 105.79 142.868 105.724C141.874 105.515 141.854 105.678 142.322 104.58C142.435 104.313 142.684 104.104 142.869 103.867C143.055 103.63 143.26 103.404 143.419 103.15C143.57 102.908 143.573 102.633 143.45 102.365C143.335 102.116 143.142 102.005 142.865 102.038C142.835 102.042 142.803 102.042 142.775 102.054C141.991 102.39 141.202 102.35 140.371 102.208C139.663 102.088 138.922 102.118 138.219 102.402C137.77 102.584 137.509 102.862 137.555 103.359C137.611 103.977 137.415 104.467 136.945 104.891C136.357 105.422 136.4 106.142 136.511 106.843C136.536 106.997 136.695 107.149 136.826 107.263C137.258 107.64 137.809 107.707 138.344 107.813C138.578 107.86 138.823 107.896 139.034 107.998C139.227 108.092 139.378 108.3 139.288 108.524C139.23 108.669 139.065 108.789 138.921 108.874C138.795 108.948 138.632 108.985 138.484 108.989C137.571 109.016 136.741 109.496 135.819 109.469C135.527 109.46 135.301 109.615 135.101 109.814C134.886 110.028 134.68 110.253 134.45 110.45C133.989 110.843 133.714 110.808 133.318 110.349C133.201 110.215 133.077 110.036 132.924 109.992C132.101 109.759 131.273 109.651 130.465 110.079C130.228 110.205 129.98 110.316 129.727 110.404C129.201 110.587 128.747 110.866 128.357 111.269C128.009 111.63 127.726 112.01 127.719 112.533C127.714 112.925 127.506 113.147 127.149 113.257C126.542 113.443 125.934 113.628 125.329 113.818C125.043 113.908 124.75 113.987 124.478 114.11C123.922 114.361 123.446 114.697 123.093 115.231C122.848 115.603 122.447 115.869 122.151 116.214C121.56 116.902 120.976 117.597 120.423 118.315C119.939 118.943 119.557 119.627 119.407 120.428C119.329 120.846 119.155 121.241 118.785 121.508C118.737 121.543 118.68 121.587 118.662 121.639C118.393 122.413 117.697 122.658 117.052 122.99C116.004 123.53 114.923 124.012 114.004 124.778C113.518 125.183 112.912 125.413 112.455 125.883C111.911 126.44 111.607 127.137 111.256 127.796C111.092 128.105 111.145 128.575 111.213 128.951C111.357 129.752 111.418 130.563 111.626 131.362C111.789 131.987 111.729 132.694 111.655 133.351C111.581 134.017 111.148 134.505 110.56 134.831C110.381 134.93 110.2 134.896 110.076 134.725C109.331 133.697 108.853 132.566 108.788 131.284C108.771 130.951 108.802 130.614 108.771 130.283C108.689 129.428 108.16 128.966 107.299 129.056C106.889 129.1 106.615 129.031 106.365 128.687C105.945 128.11 105.362 127.953 104.672 128.144C104.293 128.249 103.903 128.315 103.519 128.4C102.942 128.529 102.417 128.735 102.124 129.308C101.96 129.629 101.676 129.672 101.347 129.625C100.509 129.505 99.6689 129.403 98.8309 129.285C98.6529 129.26 98.4624 129.229 98.3079 129.146C97.7004 128.819 97.1334 128.964 96.5729 129.257C95.9569 129.579 95.3639 129.958 94.7214 130.215C94.0034 130.503 93.4514 131.025 92.8104 131.418C92.5769 131.562 92.4309 131.876 92.2929 132.138C92.1964 132.32 92.1439 132.543 92.1359 132.751C92.0899 133.936 91.4644 134.938 91.1339 136.032C90.9329 136.697 90.7929 137.381 90.6259 138.056C90.6184 138.086 90.6089 138.117 90.6134 138.146C90.8264 139.51 90.6619 140.941 91.3929 142.213C91.7079 142.76 92.0834 143.189 92.7024 143.397C93.2549 143.583 93.8044 143.714 94.3929 143.69C94.9379 143.667 95.4854 143.696 96.0309 143.678C96.3004 143.669 96.5714 143.62 96.8364 143.563C97.2864 143.467 97.5939 143.207 97.7179 142.746C97.8829 142.133 98.2204 141.578 98.2839 140.928C98.3259 140.499 98.5844 140.223 99.0209 140.109C99.5779 139.963 100.119 139.714 100.683 139.65C101.242 139.587 101.824 139.676 102.391 139.745C102.689 139.782 102.804 140.127 102.644 140.389C102.581 140.492 102.503 140.589 102.416 140.672C102.159 140.917 102.1 141.227 102.029 141.564C101.809 142.599 101.587 143.644 100.852 144.477C100.364 145.029 100.333 145.688 100.45 146.364C100.54 146.879 100.774 147.086 101.303 147.139C101.633 147.173 101.967 147.169 102.299 147.169C102.693 147.168 103.087 147.162 103.481 147.144C104.271 147.108 104.863 147.538 105.442 147.983C105.55 148.066 105.65 148.237 105.649 148.367C105.648 148.817 105.639 149.273 105.562 149.714C105.473 150.218 105.305 150.708 105.178 151.205C105.074 151.613 104.956 152.02 104.887 152.434C104.797 152.97 104.736 153.512 104.696 154.053C104.686 154.185 104.792 154.335 104.871 154.46C105.317 155.166 105.909 155.728 106.635 156.132C107.036 156.356 107.472 156.491 107.945 156.322C108.057 156.282 108.183 156.273 108.303 156.27C108.614 156.264 108.826 156.496 108.753 156.807C108.658 157.211 108.44 157.583 108.522 158.03C108.539 158.12 108.371 158.307 108.254 158.347C107.863 158.48 107.461 158.496 107.188 158.11C106.897 157.699 106.5 157.551 106.022 157.509C105.754 157.486 105.483 157.415 105.232 157.318C105.073 157.257 104.879 157.136 104.819 156.993C104.476 156.161 103.756 155.752 103.014 155.413C102.337 155.103 101.967 154.63 101.834 153.92C101.721 153.322 101.473 152.77 101.241 152.208C100.94 151.479 100.384 151.126 99.6724 150.986C98.5689 150.768 97.5179 150.381 96.4604 150.023C95.7884 149.795 95.3049 149.267 94.8459 148.73C94.4739 148.295 94.0734 147.881 93.6624 147.482C93.1889 147.021 92.6469 146.892 91.9924 147.117C90.9134 147.489 89.8519 147.403 88.8134 146.905C88.3234 146.67 87.7969 146.512 87.2874 146.317C86.3804 145.97 85.4749 145.627 84.7729 144.904C84.6124 144.739 84.3694 144.644 84.1514 144.547C83.5954 144.3 83.0539 144.055 82.6669 143.54C82.5159 143.338 82.2409 143.197 81.9939 143.108C81.5449 142.947 81.3019 142.644 81.1919 142.2C81.1554 142.053 81.1069 141.908 81.0514 141.768C80.9064 141.402 80.9199 141.037 81.1524 140.726C81.7274 139.958 81.3884 139.203 81.0844 138.496C80.7874 137.804 80.3584 137.168 79.9724 136.517C79.6144 135.912 79.1824 135.366 78.5959 134.962C78.2154 134.7 77.9909 134.365 78.0969 133.885C78.1859 133.482 77.9664 133.176 77.7794 132.872C77.5554 132.509 77.3639 132.146 77.2459 131.727C77.1594 131.42 76.9674 131.12 76.7549 130.876C76.3034 130.357 75.9774 129.818 75.9814 129.093C75.9849 128.552 75.8804 128.011 75.8284 127.47C75.7869 127.039 75.6429 126.824 75.3599 126.788C75.0269 126.745 74.7044 126.927 74.5554 127.255C74.3864 127.626 74.3679 127.999 74.4649 128.406C74.6469 129.169 74.7724 129.946 74.9364 130.714C74.9994 131.009 75.0509 131.324 75.1974 131.579C75.4929 132.09 75.6224 132.647 75.7589 133.206C75.9169 133.852 76.0494 134.506 76.2179 135.149C76.2694 135.347 76.3919 135.529 76.5009 135.707C76.6434 135.939 76.8134 136.155 76.9569 136.386C77.1274 136.66 77.1294 136.964 77.0559 137.267C76.9729 137.611 76.5699 137.752 76.3584 137.488C75.8814 136.894 75.3414 136.375 74.7659 135.876C74.5464 135.686 74.4904 135.286 74.4039 134.97C74.3494 134.77 74.3829 134.547 74.3669 134.336C74.3299 133.852 74.1434 133.502 73.6709 133.258C73.3089 133.07 72.9989 132.744 72.7299 132.426C72.4469 132.091 72.5244 131.673 72.8399 131.368C73.5699 130.664 73.6014 130.641 72.9984 129.812C72.5274 129.164 72.3519 128.485 72.3544 127.692C72.3564 126.972 72.2019 126.251 72.1119 125.531C72.0934 125.381 72.0194 125.231 72.0309 125.085C72.1104 124.063 71.3269 123.603 70.6949 123.064C70.5314 122.925 70.2349 122.946 70.0034 122.88C69.4764 122.729 69.2809 122.529 69.2929 121.975C69.3179 120.832 69.0139 119.695 69.2469 118.544C69.2904 118.33 69.1679 118.075 69.0984 117.847C69.0194 117.586 68.9079 117.336 68.8209 117.077C68.7209 116.78 68.7219 116.482 68.8404 116.187C68.8969 116.046 69.0164 115.891 68.9914 115.764C68.8459 115.025 69.3439 114.566 69.7299 114.085C70.1214 113.597 70.3714 113.068 70.5399 112.476C70.6119 112.224 70.7294 111.956 70.9034 111.766C71.8049 110.782 72.6359 109.741 73.4224 108.666C73.8519 108.079 74.3019 107.495 74.6339 106.853C74.9509 106.24 75.1759 105.566 75.3484 104.895C75.4744 104.404 75.2254 103.939 74.9129 103.557C74.6374 103.22 74.4419 102.858 74.3134 102.446C74.2254 102.164 74.2359 101.92 74.4099 101.672C74.6019 101.4 74.8044 101.127 74.9439 100.828C75.2774 100.111 75.5514 99.3818 75.4744 98.5568C75.3494 97.2203 75.6554 95.9013 75.6779 94.5698C75.6809 94.3908 75.7209 94.1833 75.6474 94.0373C75.3234 93.3903 74.9704 92.7568 74.6154 92.1258C74.4374 91.8098 74.2169 91.5173 74.0434 91.1988C73.7464 90.6548 73.2809 90.3383 72.7009 90.1953C71.7629 89.9638 70.8599 89.5978 69.8654 89.5773C69.4974 89.5698 69.1209 89.3438 68.7724 89.1693C68.3524 88.9588 67.9249 88.8563 67.4574 88.8858C66.9429 88.9178 66.4889 89.0803 66.2489 89.5608C66.0944 89.8698 65.8529 90.0093 65.5554 90.0923C64.4754 90.3948 63.3954 90.6978 62.3104 90.9808C62.1144 91.0318 61.8799 91.0373 61.6869 90.9813C61.1604 90.8288 60.6704 90.9183 60.1739 91.0968C59.0644 91.4943 57.9424 91.8583 56.8414 92.2778C55.5954 92.7523 54.3669 93.2723 53.1309 93.7728C52.6814 93.9548 52.2354 94.1463 51.7819 94.3183C51.0999 94.5763 50.4249 94.8433 49.8369 95.2888C49.4814 95.5583 49.0729 95.6643 48.6359 95.6023C48.4659 95.5783 48.2964 95.4908 48.1469 95.3998C47.9479 95.2783 47.9514 95.1068 48.1554 94.9728C48.3824 94.8243 48.6199 94.6888 48.8644 94.5713C49.5734 94.2303 50.2859 93.8978 51.0004 93.5693C51.3029 93.4303 51.6119 93.3048 51.9209 93.1798C52.2984 93.0268 52.5999 92.7828 52.8229 92.4438C53.0254 92.1358 52.9379 91.8358 52.6089 91.7033C52.5254 91.6698 52.4349 91.6373 52.3469 91.6343C51.9994 91.6228 51.7159 91.5273 51.4749 91.2378C51.1719 90.8738 50.9829 90.4768 50.9154 90.0173C50.8984 89.9008 50.8809 89.7333 50.9449 89.6643C51.3269 89.2523 51.3689 88.6728 51.6734 88.2363C51.8169 88.0303 52.0889 87.8923 52.3289 87.7793C53.0134 87.4563 53.7049 87.1463 54.4064 86.8623C54.9089 86.6588 55.4369 86.5193 55.9444 86.3278C56.5944 86.0828 57.2374 85.8193 57.8784 85.5513C57.9849 85.5068 58.0744 85.4088 58.1559 85.3208C58.3974 85.0603 58.2969 84.6998 57.9449 84.6183C57.7759 84.5793 57.5894 84.6088 57.4114 84.6173C57.2314 84.6258 57.0499 84.6708 56.8729 84.6553C56.7119 84.6413 56.5879 84.5228 56.6084 84.3458C56.6459 84.0153 56.6974 83.6858 56.7624 83.3593C56.8089 83.1268 56.9919 82.9968 57.2049 82.9468C57.6164 82.8503 58.0314 82.7533 58.4504 82.7038C59.4759 82.5828 60.4719 82.3773 61.4274 81.9593C61.8974 81.7538 62.1369 81.4123 62.2809 80.9663C62.3359 80.7958 62.3499 80.6098 62.3689 80.4298C62.3939 80.1968 62.5204 80.0578 62.7169 79.9363C63.2204 79.6253 63.7704 79.4538 64.3504 79.4333C65.0914 79.4068 65.7809 79.2198 66.4614 78.9423C66.9649 78.7373 67.4914 78.5883 68.0069 78.4133C68.3229 78.3063 68.6624 78.2408 68.9494 78.0813C69.8824 77.5623 70.8909 77.4638 71.9299 77.4038C72.8649 77.3498 73.7939 77.2008 74.7354 77.2108C74.9089 77.2128 75.0934 77.1373 75.2549 77.0603C75.7214 76.8383 76.1839 76.8618 76.6729 76.9888C77.4354 77.1868 78.2034 77.3718 78.9779 77.5118C79.7209 77.6458 80.4749 77.7173 81.2249 77.8128C82.0939 77.9233 82.9624 78.0418 83.8339 78.1308C84.0689 78.1548 84.3229 78.1178 84.5514 78.0518C85.0904 77.8968 85.5824 78.0233 86.0354 78.2898C86.5124 78.5703 86.9629 78.8378 87.5629 78.7233C87.7754 78.6828 88.0284 78.8188 88.2554 78.8968C88.8979 79.1168 89.5324 79.1773 90.2134 79.0293C90.9789 78.8633 91.7674 78.8038 92.5449 78.6918C92.8729 78.6448 93.2039 78.6028 93.5254 78.5233C94.5879 78.2608 95.6459 78.0443 96.7569 78.2058C97.0624 78.2503 97.4239 78.1478 97.7139 78.0138C98.2184 77.7803 98.6979 77.7458 99.2059 77.9568C99.6354 78.1348 100.089 78.1448 100.547 78.1503C101.03 78.1558 101.514 78.1888 101.996 78.2273C102.805 78.2913 103.516 78.6448 104.19 79.0543C104.624 79.3188 105.06 79.4673 105.563 79.4208C106.096 79.3723 106.569 79.5013 107.022 79.8023C108 80.4518 109.054 80.7168 110.22 80.3563C110.594 80.2408 110.987 80.1913 111.371 80.1073C111.519 80.0753 111.662 80.0183 111.811 79.9953C112.528 79.8833 113.245 79.7743 113.964 79.6738C114.527 79.5953 115.103 79.6718 115.494 80.0693C116.187 80.7748 117.004 80.7383 117.863 80.6523C118.373 80.6008 118.884 80.5458 119.397 80.5188C119.82 80.4963 120.243 80.5338 120.629 80.2843C120.742 80.2113 120.918 80.2218 121.065 80.2218C121.215 80.2218 121.383 80.3088 121.51 80.2648C122.007 80.0938 122.477 80.2268 122.938 80.3658C123.327 80.4833 123.649 80.3793 123.976 80.1953C124.387 79.9643 124.635 79.6438 124.501 79.1548C124.223 78.1383 124.794 77.5528 125.543 77.0583C126.163 76.6483 126.872 76.4793 127.594 76.3683C127.925 76.3173 128.12 76.4403 128.222 76.7553C128.316 77.0428 128.351 77.3513 128.457 77.6333C128.595 77.9993 128.738 78.3748 128.95 78.6988C129.591 79.6783 130.979 79.2018 131.37 78.4373C131.441 78.2993 131.441 78.0653 131.371 77.9268C131.214 77.6138 131.165 77.2983 131.186 76.9593C131.201 76.7048 131.287 76.4838 131.487 76.3208C131.955 75.9378 132.458 75.5918 132.891 75.1728C133.582 74.5043 134.449 74.4048 135.326 74.3343C135.838 74.2933 136.357 74.3268 136.872 74.3268C136.877 74.3483 136.879 74.3703 136.881 74.3918Z" fill="#FBA2B0"/>
<path d="M161.267 177.788C161.296 179.716 160.448 181.235 159.165 182.575C158.94 182.811 158.745 183.088 158.587 183.373C158.28 183.929 158.011 184.496 157.57 184.979C157.271 185.307 157.08 185.742 156.879 186.148C156.717 186.475 156.662 186.824 156.751 187.207C156.907 187.882 156.854 188.592 157.113 189.258C157.19 189.457 157.092 189.729 157.059 189.965C156.993 190.444 156.932 190.924 156.838 191.397C156.78 191.689 156.714 191.999 156.563 192.248C156.325 192.64 156.241 193.035 156.37 193.463C156.475 193.812 156.405 194.116 156.242 194.422C156.07 194.743 155.937 195.087 155.74 195.391C155.457 195.831 155.188 196.241 155.341 196.821C155.39 197.005 155.218 197.272 155.095 197.47C155.003 197.617 154.782 197.686 154.698 197.835C154.183 198.743 153.276 198.774 152.416 198.831C151.844 198.869 151.369 199.035 150.897 199.346C150.524 199.592 150.103 199.797 149.674 199.923C149.01 200.116 148.465 200.488 147.966 200.926C147.268 201.538 146.879 202.253 147.138 203.26C147.324 203.984 147.444 204.742 147.385 205.511C147.358 205.861 147.279 206.165 147.015 206.406C146.459 206.914 146.15 207.569 145.938 208.272C145.864 208.515 145.778 208.727 145.554 208.862C145.002 209.196 144.735 209.735 144.501 210.304C144.099 211.284 143.686 212.26 143.272 213.235C143.038 213.785 142.601 214.198 142.145 214.523C141.32 215.111 140.972 215.965 140.634 216.839C140.47 217.261 140.355 217.704 140.246 218.145C140.137 218.585 139.928 218.913 139.49 219.096C138.959 219.317 138.451 219.594 137.918 219.811C137.195 220.106 136.689 220.587 136.521 221.362C136.423 221.816 136.231 222.212 135.988 222.604C135.686 223.091 135.449 223.606 135.327 224.187C135.238 224.614 134.986 225.023 134.742 225.397C134.548 225.695 134.387 225.986 134.504 226.324C134.673 226.813 134.499 227.211 134.269 227.615C134.149 227.824 134.009 228.033 133.948 228.261C133.781 228.89 134.165 229.843 134.749 230.147C135.151 230.356 135.488 230.569 135.525 231.059C135.562 231.553 135.353 231.949 134.973 232.245C134.666 232.484 134.519 232.782 134.443 233.16C134.379 233.478 134.24 233.789 134.089 234.08C133.84 234.56 133.845 235.011 134.161 235.446C134.356 235.715 134.541 236.007 134.791 236.216C135.221 236.576 135.551 236.98 135.735 237.519C135.81 237.738 135.958 237.964 136.135 238.111C137 238.826 137.866 239.554 139.063 239.637C139.385 239.659 139.651 239.77 139.812 240.07C139.962 240.347 139.835 240.684 139.531 240.687C138.868 240.695 138.192 240.717 137.544 240.603C136.981 240.505 136.434 240.303 135.853 240.294C135.507 240.288 135.276 240.145 135.186 239.799C135.038 239.229 134.635 238.87 134.154 238.585C133.72 238.329 133.261 238.191 132.767 238.404C131.89 238.782 131.202 238.324 130.624 237.803C130.093 237.324 129.661 236.712 129.271 236.104C128.898 235.522 128.634 234.869 128.324 234.246C128.23 234.056 128.164 233.85 128.048 233.675C127.399 232.691 127.109 231.596 126.973 230.439C126.939 230.15 126.821 229.848 126.664 229.601C126.297 229.021 126.122 228.407 126.069 227.721C125.969 226.424 125.512 225.217 124.725 224.2C123.916 223.155 123.48 222.009 123.334 220.722C123.23 219.814 122.989 218.942 122.58 218.123C122.384 217.73 122.332 217.343 122.41 216.897C122.604 215.796 122.741 214.685 122.899 213.578C122.924 213.399 122.985 213.211 122.955 213.04C122.733 211.762 122.718 210.446 122.23 209.214C121.892 208.361 121.871 207.437 121.733 206.541C121.684 206.223 121.737 205.87 121.822 205.554C122.032 204.774 121.983 204.004 121.854 203.221C121.776 202.746 121.712 202.259 121.724 201.78C121.748 200.81 121.767 199.845 121.559 198.888C121.509 198.655 121.533 198.404 121.532 198.162C121.529 197.312 121.521 196.463 121.532 195.614C121.538 195.094 121.502 194.586 121.315 194.093C121.251 193.925 121.199 193.744 121.185 193.565C121.109 192.54 120.551 191.828 119.729 191.282C119.552 191.165 119.344 191.074 119.206 190.921C118.311 189.926 117.063 189.584 115.886 189.12C115.473 188.958 115.149 188.751 114.897 188.375C114.63 187.975 114.299 187.615 113.976 187.255C113.628 186.867 113.301 186.48 113.276 185.921C113.271 185.812 113.175 185.704 113.113 185.6C112.553 184.664 112.001 183.724 111.426 182.797C111.172 182.388 110.885 181.997 110.591 181.615C110.108 180.987 109.688 180.34 109.475 179.556C109.25 178.726 108.81 177.999 108.178 177.401C108.068 177.297 107.962 177.183 107.836 177.103C106.733 176.396 106.769 175.288 106.83 174.188C106.84 174.003 107.027 173.826 107.136 173.649C107.31 173.368 107.51 173.1 107.658 172.807C107.831 172.466 107.784 172.133 107.635 171.763C107.013 170.219 107.245 168.741 108.082 167.334C108.128 167.257 108.182 167.173 108.253 167.125C108.898 166.69 109.277 166.022 109.757 165.442C109.892 165.279 110.023 165.105 110.188 164.977C111.032 164.326 111.459 163.469 111.526 162.411C111.557 161.93 111.655 161.452 111.692 160.971C111.74 160.347 111.553 159.776 111.261 159.229C110.994 158.73 110.62 158.274 110.638 157.652C110.641 157.548 110.472 157.411 110.353 157.339C110.103 157.19 110.059 156.969 110.078 156.715C110.096 156.479 110.21 156.291 110.459 156.283C110.789 156.273 111.134 156.257 111.449 156.337C111.905 156.452 112.273 156.345 112.652 156.106C113.206 155.758 113.693 155.373 113.833 154.682C113.909 154.303 114.163 154.059 114.478 153.843C115.033 153.462 115.586 153.153 116.289 153.081C116.987 153.009 117.632 152.713 118.089 152.132C118.263 151.91 118.497 151.849 118.737 151.892C119.531 152.032 120.349 152.023 121.072 152.524C121.687 152.951 122.424 153.19 123.044 153.632C123.212 153.752 123.424 153.83 123.627 153.879C124.419 154.072 125.219 154.228 125.981 154.534C126.349 154.682 126.719 154.538 127.028 154.36C127.444 154.121 127.874 154.082 128.334 154.05C128.783 154.019 129.224 153.881 129.672 153.812C129.937 153.771 130.23 153.699 130.473 153.771C131.258 154.002 131.441 154.237 131.308 155.008C131.113 156.138 131.367 156.667 132.383 157.094C132.918 157.319 133.334 157.654 133.572 158.158C133.897 158.845 134.462 159.301 135 159.784C135.43 160.17 135.998 160.259 136.535 160.238C137.59 160.198 138.572 160.462 139.567 160.748C140.006 160.874 140.322 161.104 140.615 161.419C140.82 161.639 141.011 161.898 141.263 162.046C141.831 162.38 142.109 162.894 142.292 163.486C142.364 163.716 142.423 163.953 142.463 164.191C142.539 164.647 142.708 165.056 142.948 165.454C143.181 165.839 143.35 166.263 143.54 166.673C143.655 166.92 143.753 167.175 143.866 167.423C144.039 167.802 144.339 168.038 144.72 168.197C146.145 168.791 147.569 169.39 148.99 169.997C149.324 170.139 149.642 170.318 149.968 170.481C150.753 170.872 151.531 171.275 152.323 171.651C152.936 171.942 153.579 172.06 154.265 171.931C155.25 171.746 156.032 172.191 156.737 172.807C157.056 173.086 157.352 173.394 157.64 173.706C158.109 174.213 158.678 174.517 159.351 174.674C160.396 174.917 160.654 174.816 161.076 176.356C161.204 176.816 161.207 177.31 161.267 177.788Z" fill="#FBA2B0"/>
<path d="M369.765 188.684C369.778 188.757 369.811 188.965 369.852 189.172C370.023 190.03 370.231 190.883 370.127 191.77C370.117 191.857 370.162 191.95 370.161 192.039C370.158 192.779 370.311 193.426 371.123 193.69C371.648 194.22 372.338 194.624 372.477 195.452C373.264 196.781 373.824 198.236 374.723 199.503C375.108 200.045 375.488 200.59 375.869 201.134C376.354 201.825 376.334 202.551 376.008 203.292C375.702 203.984 375.375 204.665 375.257 205.427C375.221 205.659 375.079 205.876 374.972 206.093C374.406 207.233 373.836 208.37 373.265 209.507C373.197 209.642 373.144 209.814 373.031 209.893C372.232 210.449 371.732 211.308 370.931 211.881C370.174 212.422 369.54 213.135 368.864 213.786C368.738 213.907 368.655 214.082 368.582 214.245C368.417 214.613 368.179 214.912 367.868 215.171C367.662 215.342 367.484 215.557 367.325 215.775C366.896 216.36 366.488 216.961 366.062 217.548C365.957 217.693 365.836 217.844 365.688 217.935C365.2 218.234 364.704 218.522 364.196 218.785C363.958 218.908 363.691 219.004 363.427 219.039C362.76 219.126 362.114 219.265 361.516 219.586C361.267 219.719 361.014 219.748 360.727 219.696C360.372 219.631 360.005 219.602 359.644 219.609C358.753 219.625 357.897 219.458 357.054 219.193C356.678 219.075 356.299 218.967 355.922 218.854C355.228 218.644 355.007 218.359 354.933 217.616C354.894 217.226 354.823 216.84 354.776 216.45C354.725 216.025 354.485 215.704 354.153 215.485C353.704 215.188 353.216 214.948 352.74 214.69C352.529 214.575 352.307 214.48 352.093 214.371C351.637 214.139 351.428 213.765 351.474 213.257C351.522 212.722 351.326 212.251 351.143 211.765C350.976 211.325 350.676 211.068 350.257 210.92C349.771 210.749 349.297 210.582 348.872 210.259C348.563 210.024 348.167 209.978 347.745 210.058C346.853 210.226 345.959 210.35 345.105 210.697C344.518 210.935 343.89 211.074 343.24 211.052C342.71 211.034 342.233 211.234 341.758 211.442C341.315 211.635 340.853 211.786 340.42 211.999C340.042 212.185 339.67 212.401 339.336 212.656C338.752 213.102 338.118 213.308 337.385 213.234C336.49 213.144 335.637 213.326 334.808 213.655C334.554 213.755 334.294 213.863 334.028 213.9C333.472 213.976 333.003 214.183 332.551 214.532C331.824 215.095 330.826 214.997 330.131 214.372C329.951 214.21 329.779 214.037 329.616 213.859C329.286 213.499 329.269 213.18 329.551 212.809C329.606 212.737 329.672 212.669 329.747 212.621C330.464 212.155 330.666 211.361 330.972 210.646C331.084 210.384 331.111 210.035 331.046 209.757C330.834 208.855 330.892 207.945 330.907 207.039C330.923 206.118 330.765 205.234 330.524 204.352C330.39 203.857 330.29 203.349 330.228 202.84C330.2 202.615 330.281 202.366 330.354 202.142C330.542 201.567 330.741 200.996 330.959 200.433C331.077 200.126 331.203 199.808 331.396 199.547C331.682 199.161 331.832 198.754 331.808 198.281C331.781 197.73 332.007 197.392 332.539 197.168C333.202 196.888 333.856 196.573 334.383 196.037C334.58 195.836 334.902 195.727 335.186 195.647C335.919 195.441 336.606 195.146 337.288 194.807C337.766 194.57 338.319 194.449 338.853 194.368C340.563 194.106 341.607 193.028 342.254 191.543C342.586 190.783 342.985 190.166 343.73 189.783C343.91 189.691 344.065 189.525 344.194 189.363C344.824 188.57 345.561 187.911 346.485 187.474C346.593 187.423 346.706 187.362 346.79 187.278C347.305 186.763 348.026 186.68 348.645 186.385C348.865 186.28 349.07 186.364 349.225 186.525C349.569 186.883 349.991 187.117 350.434 187.32C350.937 187.551 350.972 187.538 351.322 187.061C351.751 186.475 352.163 185.876 352.618 185.31C352.92 184.934 353.271 184.594 353.622 184.262C353.951 183.951 354.328 183.689 354.652 183.373C355.028 183.007 355.446 182.917 355.896 183.15C356.638 183.533 357.428 183.711 358.247 183.797C358.608 183.835 358.967 183.881 359.327 183.925C359.536 183.951 359.754 183.952 359.953 184.014C360.337 184.133 360.53 184.507 360.393 184.878C360.121 185.615 359.869 186.364 359.529 187.069C359.267 187.611 359.367 188.065 359.646 188.526C359.936 189.005 360.382 189.323 360.85 189.611C361.366 189.928 361.877 190.255 362.409 190.543C362.751 190.729 363.114 190.896 363.489 190.993C363.832 191.082 364.061 190.915 364.2 190.578C364.28 190.382 364.329 190.174 364.389 189.971C364.467 189.709 364.499 189.424 364.624 189.189C365.087 188.319 365.256 187.365 365.512 186.43C365.768 185.498 366.133 184.596 366.454 183.683C366.494 183.569 366.548 183.458 366.611 183.356C366.83 183.004 367.265 182.964 367.526 183.286C367.637 183.423 367.706 183.6 367.768 183.769C368.073 184.592 368.353 185.425 368.674 186.241C368.874 186.747 369.101 187.243 369.483 187.654C369.779 187.973 369.763 187.988 369.765 188.684Z" fill="#FBA2B0"/>
<path d="M157.993 82.5414C157.835 81.7954 158.267 81.2369 158.632 80.6969C159.023 80.1194 159.637 79.8424 160.339 79.7804C160.487 79.7674 160.643 79.7404 160.778 79.6804C161.165 79.5089 161.251 79.1519 161.022 78.7839C160.75 78.3474 160.508 77.8924 160.217 77.4694C159.894 76.9984 159.893 76.5044 160.034 75.9904C160.13 75.6399 160.267 75.3004 160.367 74.9509C160.725 73.7044 159.984 72.4279 158.718 72.1624C157.949 72.0009 157.169 71.8749 156.388 71.7969C155.975 71.7554 155.545 71.8339 155.127 71.8884C154.306 71.9949 153.492 72.0344 152.713 71.6899C152.136 71.4354 151.824 70.9724 151.762 70.3544C151.709 69.8239 151.84 69.6114 152.352 69.4974C152.911 69.3729 153.486 69.3204 154.053 69.2254C155.063 69.0569 156.115 69.1464 157.088 68.7469C157.309 68.6564 157.58 68.5784 157.713 68.4064C158.047 67.9754 158.51 67.8394 158.988 67.8059C159.572 67.7649 160.115 67.5954 160.672 67.4534C161.346 67.2814 162.034 67.1664 162.715 67.0199C162.922 66.9754 163.132 66.9294 163.327 66.8499C164.043 66.5579 164.783 66.4424 165.552 66.4964C166.348 66.5524 167.124 66.4174 167.892 66.2344C168.405 66.1124 168.91 66.0979 169.422 66.2234C169.931 66.3484 170.441 66.3264 170.956 66.2499C171.374 66.1879 171.799 66.1269 172.218 66.1389C173.317 66.1699 174.392 66.0339 175.463 65.8059C176.979 65.4829 178.513 65.3294 180.066 65.4044C180.187 65.4104 180.317 65.3839 180.428 65.4194C181.248 65.6859 182.044 65.4359 182.848 65.3229C183.177 65.2764 183.508 65.2314 183.839 65.2244C184.537 65.2094 185.235 65.2419 185.932 65.2149C187.394 65.1579 188.833 65.2739 190.255 65.6429C190.897 65.8094 191.548 65.9209 192.18 66.1474C192.862 66.3914 193.584 66.5139 194.322 66.4984C194.989 66.4844 195.658 66.4719 196.323 66.5059C196.679 66.5239 197.03 66.6379 197.38 66.7199C197.419 66.7289 197.462 66.8139 197.461 66.8629C197.46 66.9109 197.416 66.9859 197.373 67.0014C196.834 67.1979 196.305 67.4669 195.748 67.5569C194.811 67.7084 193.911 67.9154 193.081 68.3959C192.821 68.5464 192.526 68.6369 192.244 68.7474C191.649 68.9804 191.281 69.4079 191.277 70.0474C191.273 70.6209 191.15 71.1129 190.757 71.5464C190.622 71.6954 190.563 71.9229 190.499 72.1234C190.268 72.8374 189.75 73.3799 189.251 73.8679C188.795 74.3149 188.114 74.5349 187.528 74.8449C187.37 74.9284 187.173 74.9464 187.027 75.0449C186.643 75.3039 186.466 75.6629 186.565 76.1409C186.627 76.4359 186.69 76.7369 186.696 77.0364C186.716 77.9534 186.249 78.4599 185.355 78.7014C184.599 78.9059 183.854 79.1764 183.135 79.4889C182.405 79.8059 181.659 80.0264 180.876 80.1519C180.339 80.2384 179.808 80.3669 179.271 80.4619C178.766 80.5509 178.251 80.5944 177.751 80.7069C177.344 80.7989 176.946 80.9454 176.557 81.1024C176.365 81.1799 176.19 81.3189 176.033 81.4594C174.933 82.4494 173.575 82.8734 172.176 83.1759C171.5 83.3219 170.799 83.3719 170.107 83.4214C169.114 83.4924 168.386 83.9439 167.93 84.8264C167.547 85.5669 167.042 86.1939 166.327 86.6454C166.18 86.7379 166.057 86.8949 165.969 87.0489C165.448 87.9619 164.654 88.6314 163.926 89.3574C163.407 89.8754 162.805 89.8839 162.231 89.4099C162.093 89.2954 161.992 89.1369 161.865 89.0069C161.477 88.6094 161.021 88.4629 160.46 88.5669C159.612 88.7244 159.608 88.7069 159.2 87.9434C159.029 87.6234 158.845 87.3089 158.697 86.9784C158.282 86.0539 158.177 85.0659 158.122 84.0669C158.095 83.5574 158.037 83.0499 157.993 82.5414Z" fill="#FBA2B0"/>
<path d="M356.575 168.809C357.51 168.834 358.148 169.301 358.418 170.242C358.546 170.686 358.711 171.091 359.069 171.413C359.336 171.653 359.586 171.689 359.891 171.52C360.551 171.154 361.235 170.826 361.871 170.42C362.247 170.18 362.575 170.159 362.974 170.307C364.846 170.998 366.703 171.741 368.608 172.327C369.53 172.611 370.169 173.22 370.867 173.767C371.359 174.153 371.73 174.693 372.152 175.167C372.434 175.483 372.707 175.778 373.142 175.927C374.068 176.245 374.375 176.773 374.157 177.759C374.036 178.309 374.151 178.775 374.36 179.251C374.499 179.568 374.705 179.837 375.068 179.899C375.529 179.977 375.817 180.286 376.077 180.621C376.392 181.028 376.678 181.457 376.968 181.882C377.068 182.03 377.042 182.171 376.871 182.258C376.617 182.387 376.358 182.439 376.088 182.299C375.927 182.214 375.751 182.151 375.607 182.044C375.271 181.795 374.897 181.699 374.493 181.742C373.519 181.844 372.871 181.389 372.419 180.574C372.317 180.388 372.197 180.213 372.096 180.026C371.701 179.293 371.053 178.866 370.314 178.552C369.965 178.404 369.638 178.501 369.403 178.767C369.124 179.082 368.86 179.422 368.655 179.788C368.313 180.401 367.831 180.641 367.148 180.513C366.97 180.48 366.785 180.458 366.606 180.468C366.149 180.494 365.79 180.333 365.475 180.001C364.879 179.373 364.141 179.223 363.311 179.409C363.049 179.468 362.776 179.515 362.509 179.513C362.222 179.51 362.075 179.293 362.14 179.011C362.194 178.776 362.292 178.551 362.35 178.316C362.437 177.965 362.528 177.612 362.578 177.254C362.723 176.23 362.24 175.488 361.411 174.987C360.925 174.693 360.359 174.53 359.828 174.311C359.495 174.173 359.15 174.06 358.829 173.899C358.297 173.63 357.802 173.443 357.206 173.799C356.821 174.029 356.561 173.849 356.394 173.385C356.332 173.214 356.318 173.009 356.212 172.876C355.856 172.43 355.672 171.973 355.806 171.38C355.873 171.08 355.672 170.794 355.407 170.609C355.159 170.436 354.893 170.289 354.644 170.118C354.523 170.035 354.391 169.939 354.322 169.817C354.278 169.739 354.328 169.507 354.355 169.503C355.139 169.407 355.751 168.787 356.575 168.809Z" fill="#FBA2B0"/>
<path d="M335.737 173.712C335.448 173.619 335.186 173.543 334.93 173.451C334.531 173.308 334.137 173.149 333.738 173.007C333.596 172.956 333.427 172.873 333.3 172.909C332.657 173.09 332.122 172.867 331.582 172.554C331.411 172.454 331.172 172.463 330.962 172.443C330.61 172.409 330.421 172.222 330.347 171.881C330.218 171.28 329.958 170.75 329.589 170.247C329.366 169.942 329.249 169.53 329.177 169.149C329.048 168.467 328.91 167.771 328.921 167.083C328.932 166.327 329.273 165.691 330.035 165.363C330.366 165.221 330.676 165.028 330.997 164.86C331.424 164.636 331.857 164.422 332.279 164.187C332.991 163.79 333.719 163.418 334.202 162.709C334.439 162.361 334.744 162.078 335.123 161.852C336.046 161.3 336.789 160.543 337.374 159.641C337.973 158.716 338.21 158.74 338.77 159.596C338.991 159.935 339.29 160.185 339.656 160.356C339.766 160.408 339.875 160.462 339.981 160.521C341.022 161.103 340.877 161.238 340.302 162.209C340.242 162.311 340.146 162.397 340.053 162.473C339.257 163.129 339.337 163.947 339.636 164.791C339.877 165.475 340.157 166.144 340.401 166.826C340.434 166.916 340.393 167.069 340.33 167.149C340.219 167.289 340.063 167.394 339.93 167.517C339.524 167.892 339.157 168.289 339.07 168.871C339.027 169.161 338.83 169.352 338.593 169.506C338.441 169.605 338.299 169.724 338.139 169.808C337.695 170.044 337.562 170.425 337.662 170.881C337.798 171.503 337.606 172.079 337.483 172.669C337.414 172.997 337.244 173.23 336.936 173.338C336.538 173.478 336.13 173.591 335.737 173.712Z" fill="#FBA2B0"/>
<path d="M329.36 177.026C329.639 176.995 329.842 177.021 329.995 176.947C330.745 176.582 331.479 176.783 332.201 176.996C332.675 177.136 333.146 177.208 333.633 177.187C334.058 177.168 334.384 177.293 334.63 177.677C334.895 178.089 335.261 178.411 335.759 178.545C335.845 178.568 335.925 178.619 336.002 178.666C336.193 178.783 336.328 178.939 336.311 179.181C336.292 179.454 336.087 179.502 335.872 179.555C335.338 179.685 334.817 179.788 334.268 179.569C334.032 179.475 333.736 179.486 333.473 179.51C332.241 179.625 331.06 179.488 329.95 178.9C329.379 178.598 328.774 178.435 328.116 178.456C327.338 178.481 326.646 178.176 325.976 177.818C325.843 177.747 325.724 177.63 325.584 177.597C324.562 177.36 323.918 176.656 323.381 175.825C322.95 175.156 322.443 174.563 321.801 174.088C321.658 173.982 321.522 173.849 321.43 173.699C320.968 172.947 320.4 172.284 319.807 171.635C319.588 171.395 319.4 171.102 319.283 170.8C319.071 170.257 318.775 169.779 318.437 169.307C317.838 168.471 317.27 167.613 316.878 166.648C316.663 166.119 316.422 165.591 315.884 165.272C315.746 165.191 315.648 164.995 315.592 164.831C315.437 164.384 315.135 164.053 314.808 163.733C314.31 163.245 313.813 162.756 313.331 162.251C313.168 162.08 313.001 161.881 312.926 161.663C312.728 161.089 312.998 160.8 313.593 160.89C313.892 160.936 314.195 160.951 314.493 161.002C315.234 161.13 315.876 161.409 316.273 162.114C316.4 162.341 316.628 162.513 316.821 162.699C317.19 163.055 317.575 163.394 317.938 163.755C318.968 164.778 320.041 165.748 321.21 166.613C321.792 167.044 322.334 167.529 322.888 167.998C323.312 168.357 323.624 168.793 323.789 169.334C323.894 169.681 324.042 170.015 324.158 170.359C324.277 170.712 324.453 171.006 324.772 171.23C325.327 171.621 325.48 172.185 325.338 172.833C325.199 173.469 325.268 174.086 325.402 174.72C325.614 175.72 326.278 176.231 327.197 176.416C327.678 176.513 328.13 176.632 328.577 176.83C328.846 176.95 329.156 176.977 329.36 177.026Z" fill="#FBA2B0"/>
<path d="M260.084 188.286C260.124 188.792 259.987 189.247 259.746 189.683C259.585 189.974 259.452 190.281 259.296 190.575C259.11 190.928 258.997 191.292 258.971 191.698C258.951 192.025 258.871 192.357 258.761 192.667C258.427 193.606 258.055 194.532 257.716 195.469C257.314 196.579 256.94 197.7 256.536 198.809C256.277 199.519 255.977 200.214 255.714 200.923C255.563 201.331 255.269 201.561 254.879 201.693C254.678 201.76 254.458 201.778 254.269 201.866C253.75 202.108 253.286 202.187 252.727 201.865C252.103 201.505 251.653 201.068 251.548 200.36C251.437 199.613 251.144 198.905 251.146 198.131C251.148 197.493 251.294 196.922 251.69 196.44C252.086 195.958 252.26 195.374 252.501 194.825C252.712 194.343 252.611 193.816 252.552 193.301C252.488 192.732 252.425 192.156 252.446 191.587C252.487 190.462 253.142 189.631 254.233 189.359C255.535 189.035 256.41 188.236 257.038 187.094C257.475 186.299 257.945 185.522 258.401 184.737C258.431 184.684 258.461 184.632 258.497 184.583C258.678 184.332 258.921 184.317 259.087 184.558C259.19 184.707 259.276 184.869 259.352 185.033C259.829 186.066 259.983 187.171 260.084 188.286Z" fill="#FBA2B0"/>
<path d="M351.344 108.394C351.399 108.41 351.552 108.434 351.688 108.493C352.299 108.76 352.928 108.996 353.506 109.323C354.05 109.63 354.594 109.851 355.223 109.827C355.628 109.811 355.926 109.964 356.098 110.344C356.161 110.481 356.228 110.628 356.331 110.733C356.867 111.281 356.675 111.475 356.261 111.853C355.86 112.22 355.459 112.599 355.009 112.898C354.683 113.113 354.568 113.362 354.564 113.721C354.559 114.133 354.677 114.495 354.93 114.82C355.078 115.01 355.27 115.197 355.335 115.417C355.592 116.293 356.016 117.096 356.379 117.925C356.452 118.09 356.51 118.271 356.526 118.449C356.607 119.322 356.699 120.196 356.733 121.071C356.761 121.771 356.527 122.035 355.853 122.24C355.302 122.409 354.757 122.597 354.2 122.744C353.847 122.838 353.593 123.031 353.453 123.351C353.135 124.076 352.591 124.392 351.805 124.406C351.386 124.413 350.958 124.503 350.555 124.626C349.766 124.866 349.114 125.288 348.929 126.171C348.856 126.522 348.675 126.793 348.377 126.966C348.266 127.031 348.047 127.059 347.963 126.994C347.217 126.419 346.49 125.826 346.163 124.885C346.068 124.611 346.052 124.366 346.138 124.091C346.397 123.271 346.76 122.5 347.387 121.909C347.822 121.499 348.324 121.141 348.975 121.112C349.988 121.068 350.788 120.632 351.286 119.739C351.642 119.099 352.286 118.783 352.781 118.301C352.888 118.197 353.032 118.131 353.152 118.04C353.553 117.737 353.719 117.356 353.595 116.846C353.403 116.053 353.208 115.269 352.726 114.582C352.538 114.314 352.453 113.974 352.283 113.69C351.941 113.12 351.63 112.527 351.102 112.089C350.794 111.832 350.697 111.498 350.83 111.105C350.879 110.962 350.893 110.808 350.941 110.664C351.071 110.274 351.068 109.906 350.885 109.521C350.787 109.313 350.77 109.053 350.768 108.816C350.766 108.535 350.967 108.381 351.344 108.394Z" fill="#FBA2B0"/>
<path d="M370.122 224.879C369.463 224.786 368.892 224.722 368.328 224.617C368.029 224.562 367.9 224.21 368.088 223.973C368.254 223.764 368.454 223.561 368.681 223.424C369.742 222.78 370.801 222.128 371.896 221.545C372.478 221.235 373.125 221.037 373.756 220.831C374.629 220.546 375.461 220.215 376.119 219.533C376.451 219.188 376.899 218.971 377.179 218.55C377.276 218.403 377.536 218.348 377.733 218.286C378.063 218.183 378.344 218.032 378.533 217.729C378.811 217.283 379.237 217.099 379.744 217.023C380.251 216.946 380.755 216.843 381.191 216.528C381.515 216.293 381.832 216.065 381.969 215.67C382.088 215.326 382.337 215.136 382.666 215.006C383.225 214.785 383.618 214.374 383.907 213.857C384.202 213.331 384.518 212.825 384.602 212.197C384.66 211.769 384.683 211.367 384.595 210.941C384.478 210.376 384.428 209.799 384.689 209.248C384.827 208.957 385.047 208.918 385.252 209.152C385.491 209.424 385.748 209.684 385.953 209.98C386.065 210.142 386.096 210.364 386.149 210.563C386.289 211.088 386.408 211.619 386.559 212.14C386.682 212.561 386.991 212.776 387.424 212.837C387.691 212.874 387.962 212.918 388.216 213.004C388.435 213.079 388.503 213.31 388.426 213.535C388.334 213.804 388.155 213.992 387.918 214.151C387.569 214.386 387.243 214.656 386.908 214.912C386.787 215.003 386.68 215.12 386.547 215.185C385.85 215.524 385.293 216.02 384.816 216.626C384.454 217.086 383.956 217.392 383.442 217.655C382.715 218.028 381.98 218.384 381.159 218.522C380.956 218.556 380.741 218.638 380.577 218.76C379.608 219.485 378.608 220.178 377.708 220.982C377.185 221.449 376.596 221.717 375.976 221.92C374.991 222.242 374.06 222.628 373.248 223.29C372.518 223.885 371.737 224.409 370.825 224.694C370.568 224.775 370.303 224.832 370.122 224.879Z" fill="#FBA2B0"/>
<path d="M199.922 91.6249C200.156 91.6394 200.536 91.5419 200.768 91.8364C201.101 92.2579 201.537 92.6269 201.61 93.2104C201.621 93.3004 201.638 93.3934 201.627 93.4819C201.505 94.4804 201.933 95.3104 202.431 96.1189C202.479 96.1959 202.509 96.3009 202.578 96.3459C203.1 96.6869 203.275 97.2304 203.446 97.7819C203.587 98.2394 203.85 98.5429 204.346 98.7034C204.975 98.9064 205.051 99.2974 204.638 99.8004C204.412 100.075 204.091 100.276 204.078 100.7C204.075 100.806 203.901 100.938 203.777 101.004C203.292 101.261 202.781 101.422 202.221 101.455C201.559 101.495 200.892 101.554 200.243 101.681C199.867 101.755 199.519 101.978 199.161 102.139C198.855 102.277 198.535 102.463 198.223 102.217C197.875 101.943 198.072 101.581 198.211 101.303C198.517 100.691 198.543 100.018 198.694 99.3744C198.829 98.7954 199.034 98.3909 199.725 98.3074C200.333 98.2339 200.487 97.8094 200.241 97.2279C200.105 96.9084 199.894 96.6504 199.576 96.5129C198.94 96.2384 198.543 95.6794 198.045 95.2434C197.909 95.1239 197.858 94.8754 197.825 94.6769C197.761 94.2909 197.736 93.8979 197.698 93.5074C197.689 93.4174 197.675 93.3229 197.694 93.2369C197.82 92.6679 198.296 92.3424 198.635 91.9239C198.837 91.6739 199.153 91.6294 199.464 91.6254C199.586 91.6234 199.707 91.6249 199.922 91.6249Z" fill="#FBA2B0"/>
<path d="M341.104 174.865C341.13 174.744 341.174 174.537 341.218 174.329C341.328 173.809 341.181 173.389 340.781 173.025C340.298 172.584 340.23 172.222 340.545 171.667C340.76 171.287 340.912 170.911 340.933 170.473C340.941 170.296 341.034 170.126 341.072 169.949C341.146 169.597 341.253 169.245 341.269 168.889C341.308 168.012 341.554 167.282 342.436 166.911C342.517 166.877 342.593 166.813 342.649 166.745C342.928 166.407 343.274 166.428 343.645 166.536C344.318 166.732 345.001 166.825 345.707 166.82C346.272 166.817 346.724 166.691 346.99 166.156C347.003 166.13 347.023 166.105 347.044 166.083C347.187 165.927 347.326 165.73 347.574 165.848C347.814 165.962 347.806 166.185 347.742 166.4C347.611 166.835 347.468 167.242 347.087 167.563C346.628 167.95 346.22 168.401 346.154 169.065C346.119 169.421 345.859 169.677 345.548 169.812C345.138 169.989 344.801 170.214 344.652 170.652C344.488 171.133 344.554 171.603 344.697 172.079C344.933 172.863 345.148 173.653 345.362 174.443C345.409 174.616 345.437 174.801 345.431 174.979C345.419 175.323 345.094 175.509 344.779 175.369C344.697 175.332 344.602 175.296 344.546 175.23C344.194 174.819 343.683 174.826 343.218 174.716C342.818 174.622 342.506 174.789 342.26 175.091C342.146 175.231 342.068 175.401 341.95 175.538C341.795 175.718 341.584 175.743 341.368 175.665C341.169 175.593 341.122 175.414 341.106 175.226C341.098 175.137 341.104 175.045 341.104 174.865Z" fill="#FBA2B0"/>
<path d="M184.919 82.3539C185.129 82.4034 185.367 82.4519 185.6 82.5154C186.495 82.7594 187.388 82.7439 188.299 82.5829C189.041 82.4519 189.782 82.2739 190.551 82.3379C191.186 82.3909 191.726 82.6129 192.124 83.1279C192.395 83.4794 192.412 83.8014 192.096 84.1019C191.884 84.3029 191.613 84.4714 191.338 84.5679C190.712 84.7884 190.073 84.9784 189.428 85.1369C188.946 85.2554 188.526 85.4819 188.108 85.7274C187.774 85.9234 187.447 85.9299 187.064 85.8309C186.393 85.6574 185.705 85.5424 185.019 85.4399C184.581 85.3744 184.277 85.1834 184.152 84.7564C184.009 84.2674 183.661 83.9299 183.326 83.5784C183.214 83.4614 183.136 83.2869 183.295 83.1844C183.725 82.9069 184.175 82.6594 184.623 82.4094C184.698 82.3679 184.8 82.3749 184.919 82.3539Z" fill="#FBA2B0"/>
<path d="M338.423 144.875C339.412 144.789 339.869 145.227 340.043 146.236C340.16 146.912 340.003 147.564 339.626 148.14C339.169 148.837 339.318 149.526 339.625 150.208C339.756 150.498 340.06 150.526 340.335 150.505C340.991 150.456 341.59 150.676 342.193 150.873C342.728 151.046 343.004 151.796 342.718 152.286C342.665 152.376 342.537 152.455 342.431 152.477C342.065 152.552 341.704 152.517 341.375 152.327C341.139 152.191 340.908 152.045 340.687 151.886C340.337 151.634 339.963 151.48 339.531 151.399C337.984 151.105 336.846 149.705 336.807 148.113C336.786 147.222 337.025 146.375 337.24 145.526C337.35 145.095 337.639 144.86 338.102 144.875C338.223 144.879 338.344 144.875 338.423 144.875Z" fill="#FBA2B0"/>
<path d="M108.77 137.45C109.154 137.522 109.552 137.548 109.917 137.674C110.745 137.96 111.584 138.239 112.365 138.628C112.894 138.892 113.346 139.322 113.804 139.71C114.083 139.946 114.37 140.138 114.698 140.307C115.395 140.666 116.06 141.088 116.729 141.499C116.955 141.638 116.959 141.857 116.775 142.028C116.325 142.446 115.814 142.554 115.283 142.228C114.809 141.937 114.363 141.852 113.824 141.999C113.426 142.108 113.278 142.009 113.154 141.6C113.011 141.13 112.728 140.838 112.304 140.602C111.887 140.369 111.492 140.073 111.142 139.746C110.767 139.395 110.338 139.23 109.851 139.147C109.407 139.072 108.958 139.008 108.523 138.893C107.887 138.725 107.279 138.718 106.666 138.998C106.311 139.16 105.928 139.267 105.55 139.372C105.459 139.398 105.283 139.35 105.246 139.282C105.203 139.2 105.232 139.037 105.291 138.951C105.608 138.492 106.036 138.122 106.551 137.949C107.262 137.71 107.989 137.471 108.77 137.45Z" fill="#FBA2B0"/>
<path d="M196.517 95.7934C196.758 95.8119 197.003 95.8074 197.239 95.8534C197.577 95.9199 197.853 96.0944 198.018 96.4179C198.183 96.7434 198.156 96.9784 197.899 97.2379C197.836 97.3019 197.764 97.3614 197.687 97.4064C197.358 97.5959 197.27 97.8954 197.262 98.2504C197.257 98.4589 197.229 98.6754 197.164 98.8729C197.025 99.2939 196.802 99.6029 196.288 99.6614C195.777 99.7194 195.308 99.9414 194.875 100.241C194.683 100.374 194.443 100.47 194.212 100.51C193.47 100.638 192.863 99.9179 193.211 99.2614C193.522 98.6754 193.668 98.0949 193.638 97.4469C193.628 97.2259 193.698 96.9779 193.941 96.9509C194.496 96.8904 194.869 96.5184 195.267 96.2109C195.649 95.9159 196.031 95.7324 196.517 95.7934Z" fill="#FBA2B0"/>
<path d="M119.435 144.636C118.653 144.499 117.729 144.344 116.809 144.169C116.716 144.151 116.647 144.013 116.567 143.93C116.65 143.856 116.723 143.763 116.818 143.714C116.893 143.675 116.997 143.696 117.086 143.679C117.384 143.623 117.682 143.569 117.977 143.501C118.334 143.419 118.416 143.248 118.249 142.909C118.17 142.748 118.039 142.613 117.955 142.454C117.902 142.355 117.842 142.217 117.873 142.125C117.934 141.94 118.114 142.004 118.26 142.016C118.502 142.035 118.744 142.056 118.986 142.064C119.315 142.075 119.646 142.096 119.974 142.071C120.351 142.043 120.685 142.08 121.001 142.324C121.185 142.466 121.434 142.524 121.651 142.623C122.036 142.799 122.424 142.97 122.803 143.16C123.002 143.259 123.132 143.427 123.123 143.668C123.112 143.938 122.914 144.013 122.699 144.066C122.494 144.118 122.288 144.2 122.08 144.206C121.529 144.223 121.005 144.308 120.486 144.516C120.217 144.625 119.89 144.59 119.435 144.636Z" fill="#FBA2B0"/>
<path d="M105.226 109.786C105.312 109.698 105.443 109.576 105.615 109.425" stroke="#171717" stroke-width="0.25" stroke-linecap="round" stroke-linejoin="round"/>
<path d="M106.43 108.747C113.119 103.398 144.146 82.6954 179.636 95.5064C207.418 105.535 226.409 131.792 228.963 162.082" stroke="#171717" stroke-width="0.25" stroke-linecap="round" stroke-linejoin="round" stroke-dasharray="1.06 1.06"/>
<path d="M229.007 162.615C229.02 162.792 229.034 162.969 229.046 163.147" stroke="#171717" stroke-width="0.25" stroke-linecap="round" stroke-linejoin="round"/>
<path d="M139.241 188.302C146.79 167.37 164.548 152.31 185.35 149.474C207.977 146.389 225.74 160.393 229.047 163.007" stroke="#171717" stroke-width="0.25" stroke-miterlimit="10" stroke-linecap="round" stroke-linejoin="round" stroke-dasharray="1.07 1.07"/>
<path d="M82.3694 134.759C81.6079 120.005 88.4774 108.717 96.2854 107.169C97.7549 106.877 100.523 106.991 105.226 109.786" stroke="#171717" stroke-width="0.25" stroke-miterlimit="10" stroke-linecap="round" stroke-linejoin="round" stroke-dasharray="1.07 1.07"/>
<path d="M229.046 163.008C224.339 156.817 197.854 125.563 151.224 120.708C119.344 117.388 91.6779 129.577 82.3694 134.76" stroke="#171717" stroke-width="0.25" stroke-miterlimit="10" stroke-linecap="round" stroke-linejoin="round" stroke-dasharray="1.07 1.07"/>
<path d="M105.226 109.786C123.806 102.079 133.198 118.36 136.121 131.336C139.561 146.61 139.241 155.249 138.826 188.596" stroke="#171717" stroke-width="0.25" stroke-miterlimit="10" stroke-linecap="round" stroke-linejoin="round" stroke-dasharray="1.07 1.07"/>
<path d="M223.711 79.2669C231.613 57.5079 254.367 44.7484 276.083 48.7209C299.613 53.0254 315.942 76.3934 312.842 101.38" stroke="#171717" stroke-width="0.25" stroke-miterlimit="10" stroke-linecap="round" stroke-linejoin="round" stroke-dasharray="1.07 1.07"/>
<path d="M319.185 149.196C314.071 124.285 290.132 107.719 266.534 112.964C244.448 117.874 225.734 139.492 229.046 163.007" stroke="#171717" stroke-width="0.25" stroke-miterlimit="10" stroke-linecap="round" stroke-linejoin="round" stroke-dasharray="1.07 1.07"/>
<path d="M223.711 79.4059C243.923 64.7009 273.512 62.8519 294.169 75.1624C317.678 89.1719 327.34 121.097 319.185 148.689" stroke="#171717" stroke-width="0.25" stroke-miterlimit="10" stroke-linecap="round" stroke-linejoin="round" stroke-dasharray="1.07 1.07"/>
<path d="M355.016 117.974C354.954 109.567 349.127 100.772 342.09 97.0864C333.231 92.4469 319.943 92.1144 312.842 100.541" stroke="#171717" stroke-width="0.25" stroke-miterlimit="10" stroke-linecap="round" stroke-linejoin="round" stroke-dasharray="1.07 1.07"/>
<path d="M319.185 149.196C315.921 136.087 323.546 123.381 333.289 118.508C341.923 114.189 353.156 117.232 355.016 117.974" stroke="#171717" stroke-width="0.25" stroke-miterlimit="10" stroke-linecap="round" stroke-linejoin="round" stroke-dasharray="1.07 1.07"/>
<path d="M346.082 208.978C346.893 202.823 352.402 188.256 343.159 170.905C336.613 158.616 324.209 152.432 319.11 148.885" stroke="#171717" stroke-width="0.25" stroke-miterlimit="10" stroke-linecap="round" stroke-linejoin="round" stroke-dasharray="1.07 1.07"/>
<path d="M366.937 175.595C363.651 173.201 358.966 175.355 356.717 178.211C349.84 186.946 348.392 202.366 346.498 208.978" stroke="#171717" stroke-width="0.25" stroke-miterlimit="10" stroke-linecap="round" stroke-linejoin="round" stroke-dasharray="1.07 1.07"/>
<path d="M223.711 79.4059C227.901 87.6344 235.58 103.486 237.118 122.198C238.644 140.777 231.81 154.221 229.046 163.008" stroke="#171717" stroke-width="0.25" stroke-miterlimit="10" stroke-linecap="round" stroke-linejoin="round" stroke-dasharray="1.07 1.07"/>
<path d="M105.226 109.786C108.775 102.216 117.349 82.9364 137.686 72.1694C177.381 51.1534 221.731 77.4679 223.701 78.7249" stroke="#171717" stroke-width="0.25" stroke-miterlimit="10" stroke-linecap="round" stroke-linejoin="round" stroke-dasharray="1.07 1.07"/>
<path d="M303 76.6527C303 78.7281 303.686 80.6394 304.847 82.2031C307.543 85.8348 310.034 89.6056 311.561 93.8235L312.134 95.406C312.42 96.198 313.58 96.198 313.866 95.406L314.444 93.8107C315.919 89.7347 318.114 85.9443 320.881 82.552C322.648 80.3859 323.47 77.477 322.726 74.365C321.861 70.7494 318.73 67.868 314.952 67.1783C308.573 66.0146 303 70.7057 303 76.6527ZM309.269 76.6527C309.269 74.6635 310.94 73.0507 313.001 73.0507C315.062 73.0507 316.733 74.6635 316.733 76.6527C316.733 78.642 315.062 80.2548 313.001 80.2548C310.939 80.2548 309.269 78.642 309.269 76.6527Z" fill="#E01236"/>
<path d="M95 83.9852C95 86.1321 95.6861 88.1087 96.8472 89.727C99.5441 93.484 102.034 97.3848 103.561 101.748L104.133 103.386C104.42 104.205 105.58 104.205 105.866 103.386L106.444 101.735C107.919 97.5184 110.114 93.5973 112.881 90.088C114.648 87.8472 115.47 84.8379 114.726 81.6192C113.861 77.879 110.73 74.8982 106.952 74.1846C100.572 72.9801 95 77.8331 95 83.9852ZM101.268 83.9852C101.268 81.9273 102.939 80.2589 105 80.2589C107.061 80.2589 108.732 81.9273 108.732 83.9852C108.732 86.0431 107.061 87.7115 105 87.7115C102.939 87.7122 101.268 86.0431 101.268 83.9852Z" fill="#E01236"/>
<path d="M219 138.653C219 140.729 219.686 142.639 220.847 144.204C223.544 147.835 226.034 151.606 227.561 155.824L228.134 157.407C228.42 158.198 229.58 158.198 229.866 157.407L230.444 155.811C231.919 151.734 234.114 147.944 236.881 144.552C238.648 142.386 239.47 139.477 238.726 136.365C237.86 132.749 234.73 129.868 230.952 129.178C224.572 128.015 219 132.706 219 138.653ZM225.268 138.653C225.268 136.664 226.939 135.051 229 135.051C231.061 135.051 232.732 136.664 232.732 138.653C232.732 140.643 231.061 142.255 229 142.255C226.939 142.255 225.268 140.643 225.268 138.653Z" fill="#E01236"/>
<path d="M218.921 64.6679C218.921 65.6979 219.25 66.6459 219.806 67.4219C221.097 69.2239 222.29 71.0949 223.021 73.1879L223.296 73.9734C223.433 74.3659 223.988 74.3659 224.126 73.9734L224.402 73.1814C225.109 71.1589 226.16 69.2784 227.485 67.5949C228.332 66.5204 228.725 65.0769 228.369 63.5329C227.955 61.7389 226.455 60.3094 224.646 59.9669C221.59 59.3889 218.921 61.7169 218.921 64.6679ZM221.923 64.6679C221.923 63.6809 222.723 62.8804 223.71 62.8804C224.697 62.8804 225.498 63.6804 225.498 64.6679C225.498 65.6549 224.698 66.4554 223.71 66.4554C222.724 66.4549 221.923 65.6549 221.923 64.6679Z" fill="#3A1A53"/>
<path d="M134.037 173.662C134.037 174.691 134.365 175.64 134.921 176.416C136.213 178.218 137.406 180.089 138.137 182.182L138.411 182.967C138.548 183.36 139.104 183.36 139.241 182.967L139.518 182.175C140.224 180.153 141.275 178.272 142.601 176.589C143.447 175.514 143.841 174.071 143.484 172.527C143.07 170.733 141.57 169.303 139.761 168.961C136.706 168.383 134.037 170.711 134.037 173.662ZM137.039 173.662C137.039 172.675 137.839 171.874 138.826 171.874C139.813 171.874 140.614 172.674 140.614 173.662C140.614 174.649 139.814 175.449 138.826 175.449C137.839 175.449 137.039 174.649 137.039 173.662Z" fill="#3A1A53"/>
<path d="M362.147 161.068C362.147 162.098 362.476 163.046 363.032 163.822C364.323 165.624 365.516 167.495 366.247 169.588L366.522 170.374C366.659 170.766 367.214 170.766 367.352 170.374L367.628 169.582C368.335 167.559 369.386 165.679 370.711 163.995C371.558 162.921 371.951 161.477 371.595 159.933C371.181 158.139 369.681 156.71 367.872 156.367C364.816 155.79 362.147 158.117 362.147 161.068ZM365.149 161.068C365.149 160.081 365.949 159.281 366.937 159.281C367.924 159.281 368.724 160.081 368.724 161.068C368.724 162.055 367.924 162.856 366.937 162.856C365.949 162.856 365.149 162.055 365.149 161.068Z" fill="#3A1A53"/>
<path d="M341.293 194.338C341.293 195.368 341.621 196.316 342.177 197.092C343.469 198.894 344.662 200.765 345.393 202.858L345.667 203.643C345.804 204.036 346.36 204.036 346.497 203.643L346.774 202.851C347.48 200.829 348.531 198.948 349.857 197.265C350.703 196.19 351.097 194.747 350.74 193.203C350.326 191.409 348.826 189.979 347.017 189.637C343.962 189.059 341.293 191.387 341.293 194.338ZM344.295 194.338C344.295 193.351 345.095 192.55 346.082 192.55C347.069 192.55 347.87 193.35 347.87 194.338C347.87 195.325 347.07 196.125 346.082 196.125C345.095 196.125 344.295 195.325 344.295 194.338Z" fill="#E01236"/>
<path d="M314.396 134.522C314.396 135.552 314.725 136.5 315.281 137.276C316.572 139.078 317.765 140.949 318.496 143.042L318.771 143.827C318.908 144.22 319.463 144.22 319.601 143.827L319.877 143.035C320.584 141.013 321.635 139.132 322.96 137.449C323.807 136.374 324.2 134.931 323.844 133.387C323.43 131.593 321.93 130.163 320.121 129.821C317.065 129.243 314.396 131.571 314.396 134.522ZM317.398 134.522C317.398 133.535 318.198 132.734 319.186 132.734C320.173 132.734 320.973 133.534 320.973 134.522C320.973 135.509 320.173 136.309 319.186 136.309C318.198 136.309 317.398 135.509 317.398 134.522Z" fill="#3A1A53"/>
<path d="M349.812 103.334C349.812 104.364 350.14 105.312 350.696 106.088C351.988 107.89 353.181 109.761 353.912 111.854L354.186 112.64C354.323 113.032 354.879 113.032 355.016 112.64L355.293 111.848C355.999 109.825 357.05 107.945 358.376 106.261C359.222 105.187 359.616 103.743 359.259 102.199C358.845 100.405 357.345 98.9759 355.536 98.6334C352.481 98.0559 349.812 100.383 349.812 103.334ZM352.814 103.334C352.814 102.347 353.614 101.547 354.601 101.547C355.588 101.547 356.389 102.347 356.389 103.334C356.389 104.321 355.589 105.122 354.601 105.122C353.614 105.121 352.814 104.321 352.814 103.334Z" fill="#3A1A53"/>
<path d="M77.5803 119.825C77.5803 120.854 77.9088 121.803 78.4648 122.579C79.7563 124.381 80.9493 126.252 81.6803 128.345L81.9548 129.13C82.0918 129.523 82.6473 129.523 82.7848 129.13L83.0613 128.338C83.7678 126.316 84.8188 124.435 86.1443 122.752C86.9908 121.677 87.3843 120.234 87.0278 118.69C86.6138 116.896 85.1138 115.466 83.3048 115.124C80.2488 114.546 77.5803 116.874 77.5803 119.825ZM80.5823 119.825C80.5823 118.838 81.3823 118.037 82.3698 118.037C83.3568 118.037 84.1573 118.837 84.1573 119.825C84.1573 120.812 83.3573 121.612 82.3698 121.612C81.3823 121.612 80.5823 120.812 80.5823 119.825Z" fill="#3A1A53"/>
<path d="M84.1568 134.479C84.1568 135.466 83.3568 136.267 82.3693 136.267C81.3818 136.267 80.5818 135.467 80.5818 134.479C80.5818 133.492 81.3818 132.692 82.3693 132.692C83.3568 132.692 84.1568 133.492 84.1568 134.479Z" fill="#171717"/>
<path d="M107.013 109.786C107.013 110.773 106.213 111.574 105.226 111.574C104.239 111.574 103.438 110.774 103.438 109.786C103.438 108.799 104.238 107.999 105.226 107.999C106.213 107.999 107.013 108.799 107.013 109.786Z" fill="#171717"/>
<path d="M138.826 190.089C139.814 190.089 140.614 189.289 140.614 188.302C140.614 187.315 139.814 186.514 138.826 186.514C137.839 186.514 137.039 187.315 137.039 188.302C137.039 189.289 137.839 190.089 138.826 190.089Z" fill="#171717"/>
<path d="M229.046 164.795C230.034 164.795 230.834 163.995 230.834 163.008C230.834 162.021 230.034 161.22 229.046 161.22C228.059 161.22 227.259 162.021 227.259 163.008C227.259 163.995 228.059 164.795 229.046 164.795Z" fill="#171717"/>
<path d="M225.488 79.4059C225.488 80.3929 224.688 81.1934 223.701 81.1934C222.713 81.1934 221.913 80.3934 221.913 79.4059C221.913 78.4189 222.713 77.6184 223.701 77.6184C224.688 77.6184 225.488 78.4189 225.488 79.4059Z" fill="#171717"/>
<path d="M312.842 103.167C313.829 103.167 314.63 102.367 314.63 101.38C314.63 100.393 313.829 99.5924 312.842 99.5924C311.855 99.5924 311.055 100.393 311.055 101.38C311.055 102.367 311.855 103.167 312.842 103.167Z" fill="#171717"/>
<path d="M319.11 150.983C320.097 150.983 320.898 150.183 320.898 149.196C320.898 148.209 320.097 147.408 319.11 147.408C318.123 147.408 317.323 148.209 317.323 149.196C317.323 150.183 318.123 150.983 319.11 150.983Z" fill="#171717"/>
<path d="M354.601 119.5C355.588 119.5 356.389 118.7 356.389 117.712C356.389 116.725 355.588 115.925 354.601 115.925C353.614 115.925 352.814 116.725 352.814 117.712C352.814 118.7 353.614 119.5 354.601 119.5Z" fill="#171717"/>
<path d="M344.572 208.021C345.101 207.187 346.205 206.94 347.039 207.468C347.873 207.996 348.12 209.1 347.592 209.934C347.064 210.768 345.96 211.016 345.126 210.488C344.292 209.959 344.044 208.855 344.572 208.021Z" fill="#171717"/>
<path d="M364.748 174.162C365.276 173.328 366.38 173.08 367.214 173.608C368.048 174.136 368.296 175.241 367.768 176.075C367.24 176.909 366.135 177.156 365.301 176.628C364.467 176.1 364.219 174.995 364.748 174.162Z" fill="#171717"/>
</svg>
