<svg width="456" height="320" viewBox="0 0 456 320" fill="none" xmlns="http://www.w3.org/2000/svg">
<rect x="0.538574" width="455.385" height="320" rx="18.6047" fill="#FFF2F4"/>
<path d="M238.438 76.0943C238.895 76.0943 239.355 76.1232 239.81 76.0886C241.167 75.9861 242.469 76.3293 243.758 76.6361C244.596 76.8347 245.37 77.2942 246.177 77.6267C246.667 77.8291 247.153 78.0541 247.662 78.1968C248.395 78.4024 249.14 78.5721 249.889 78.7041C251.363 78.9637 252.766 79.4276 254.142 80.0058C254.627 80.2095 255.173 80.2642 255.689 80.3937C256.094 80.4949 256.51 80.5697 256.896 80.7218C257.297 80.8808 257.632 80.8412 257.962 80.5835C258.202 80.3962 258.474 80.2441 258.69 80.0335C259.004 79.7267 259.376 79.591 259.785 79.4621C260.396 79.2691 260.876 79.3414 261.345 79.8091C261.858 80.3214 262.542 80.5244 263.244 80.4018C264.218 80.2315 265.175 79.9669 266.136 79.7305C266.318 79.6859 266.508 79.6123 266.658 79.5036C267.736 78.7229 268.96 78.6884 270.17 78.9423C271.493 79.2201 272.746 78.9423 274.011 78.6934C274.332 78.6305 274.629 78.4143 274.92 78.2396C275.716 77.7618 276.541 77.4048 277.5 77.4658C277.88 77.4903 278.264 77.445 278.644 77.474C279.572 77.5437 280.253 77.1264 280.822 76.4412C281.185 76.0037 281.562 75.5769 281.953 75.1646C282.199 74.9063 282.161 74.6284 282.132 74.3154C282.087 73.8465 282.195 73.6724 282.594 73.5253C282.84 73.4348 283.108 73.3782 283.37 73.3606C283.788 73.3323 284.209 73.3612 284.628 73.3449C285.221 73.3223 285.762 73.4511 286.238 73.8182C286.826 74.2714 287.507 74.3864 288.191 74.1865C289.155 73.9056 290.139 73.8748 291.124 73.7924C291.97 73.7214 292.776 73.5303 293.314 72.754C293.593 72.3511 294.056 72.2744 294.524 72.2022C295.236 72.0922 295.943 71.9388 296.644 71.7703C296.937 71.6999 297.257 71.6019 297.481 71.4164C298.419 70.6389 299.656 70.5163 300.67 69.9142C300.797 69.8381 300.955 69.7903 301.104 69.7753C302.883 69.5955 304.603 69.0241 306.404 68.9902C307.271 68.9738 308.031 68.6105 308.752 68.1693C309.556 67.6777 310.449 67.5068 311.361 67.4049C312.019 67.3308 312.65 67.4766 313.263 67.7129C313.909 67.9612 314.568 68.1183 315.271 68.0957C315.569 68.0863 315.888 68.136 316.167 68.2403C316.899 68.5143 317.652 68.5225 318.417 68.5558C319.403 68.5998 320.395 68.6765 321.366 68.8469C322.71 69.0826 323.705 69.9022 324.506 70.9783C324.71 71.2518 324.911 71.5447 325.174 71.7515C325.723 72.182 326.345 72.4322 327.071 72.4416C327.714 72.4504 328.357 72.5479 328.998 72.6208C329.573 72.6862 330.137 72.6692 330.695 72.4951C331.504 72.243 332.335 72.1732 333.181 72.1984C333.944 72.221 334.708 72.238 335.469 72.1946C336.661 72.1261 337.819 72.3838 338.992 72.4951C339.559 72.5485 340.126 72.6063 340.692 72.6629C341.145 72.7082 341.598 72.7641 342.052 72.7987C342.583 72.8389 343.115 72.8867 343.647 72.8854C344.194 72.8842 344.706 72.9766 345.185 73.2481C345.715 73.5486 346.248 73.8427 346.785 74.1325C347.187 74.35 347.585 74.5788 348.003 74.7623C349.222 75.2966 350.451 75.5857 351.74 74.9389C352.351 74.6322 353.024 74.448 353.63 74.1331C354.732 73.5618 355.882 73.497 357.081 73.6366C358.362 73.7855 359.649 73.8974 360.932 74.0338C362.406 74.1909 363.916 74.206 365.34 74.5643C366.623 74.8868 367.959 75.0433 369.19 75.5901C370.483 76.164 371.829 76.203 373.223 75.9585C374.704 75.6989 376.185 75.8529 377.632 76.2791C377.924 76.3652 378.216 76.5003 378.513 76.5135C379.19 76.5431 379.744 76.7901 380.29 77.1924C380.854 77.6072 381.586 77.66 382.258 77.6745C384.355 77.7185 386.454 77.6958 388.552 77.687C388.814 77.6858 389.088 77.6443 389.339 77.5651C391.021 77.0327 392.727 77.1961 394.433 77.3734C395.379 77.4721 396.323 77.5821 397.265 77.704C399.263 77.9636 401.27 78.1578 403.244 78.5941C404.021 78.7663 404.821 78.8323 405.607 78.9662C407.604 79.3062 409.558 79.8103 411.397 80.674C412.52 81.2014 413.718 81.3906 414.921 81.5861C415.972 81.757 417.05 81.8306 418.033 82.2781C418.759 82.6081 419.452 83.0085 420.158 83.3812C420.615 83.6226 420.748 84.0708 420.827 84.5234C420.925 85.0853 420.54 85.6246 419.979 85.6717C419.299 85.7289 418.622 85.7528 417.95 85.4932C417.134 85.1783 416.285 84.9502 415.451 84.6836C414.98 84.5334 414.509 84.3813 414.038 84.2317C413.225 83.974 412.136 84.3731 411.74 85.0733C411.481 85.5303 411.54 85.876 411.986 86.1432C412.637 86.5335 413.279 86.9427 414.051 87.0929C414.456 87.1715 414.859 87.3261 415.222 87.5223C415.638 87.7479 415.618 88.2156 415.199 88.4136C414.93 88.5405 414.616 88.6725 414.333 88.6537C413.146 88.5757 412.305 89.2024 411.517 89.9504C411.019 90.4225 410.538 90.9134 410.059 91.4055C409.479 92.0039 408.788 92.2566 407.981 92.0178C407.387 91.8418 406.874 91.926 406.348 92.2422C405.926 92.4955 405.43 92.6269 405.012 92.8852C404.358 93.29 404.215 93.9764 404.729 94.5377C405.316 95.1788 405.605 96.05 406.394 96.5453C406.681 96.7264 406.828 97.1576 406.999 97.4945C407.294 98.0747 407.58 98.6517 408.083 99.0917C408.511 99.4657 408.705 99.9849 408.73 100.517C408.763 101.234 408.743 101.965 408.636 102.675C408.504 103.539 408.26 104.385 408.061 105.238C408.026 105.386 407.98 105.534 407.913 105.668C407.745 106.01 407.379 106.127 407.044 105.946C406.912 105.874 406.794 105.773 406.676 105.677C405.825 104.975 404.972 104.276 404.128 103.566C403.867 103.345 403.597 103.118 403.392 102.848C402.464 101.62 401.196 100.758 400.103 99.7102C399.289 98.9295 398.619 97.9747 398.003 97.0205C397.659 96.4863 397.608 95.786 397.824 95.1367C397.98 94.6672 398.182 94.214 398.348 93.7476C398.526 93.2466 398.723 92.7482 398.843 92.2321C399.014 91.4948 398.683 91.0793 397.918 90.9794C397.429 90.9159 396.939 90.8606 396.45 90.7927C396.022 90.7336 395.646 90.5702 395.349 90.2408C394.816 89.6487 394.089 89.5318 393.361 89.5255C392.063 89.5136 391.461 90.633 392.142 91.7475C392.34 92.0712 392.601 92.3566 392.79 92.6847C392.972 93.0009 392.881 93.3013 392.544 93.444C392.236 93.5747 391.896 93.6709 391.563 93.6954C390.994 93.7369 390.419 93.703 389.848 93.7136C389.377 93.7224 388.965 93.62 388.563 93.3365C388.303 93.153 387.931 93.0373 387.611 93.0436C386.091 93.0757 384.563 92.867 383.05 93.1995C382.73 93.2699 382.362 93.219 382.036 93.1404C381.113 92.9185 380.221 93.0474 379.327 93.2869C378.816 93.4233 378.444 93.6986 378.214 94.1863C377.874 94.9092 377.41 95.5906 377.181 96.3455C376.931 97.1708 376.869 98.0564 376.763 98.9213C376.724 99.245 376.926 99.5003 377.215 99.6605C377.948 100.067 378.676 100.482 379.419 100.867C379.613 100.968 379.872 101.048 380.077 101.009C381.294 100.774 382.499 101.166 383.713 101.047C384.204 100.998 384.708 101.05 385.196 100.986C385.661 100.925 386.022 101.063 386.333 101.378C386.548 101.594 386.78 101.805 386.942 102.057C387.281 102.587 387.719 102.979 388.272 103.279C388.525 103.416 388.708 103.685 388.915 103.9C388.966 103.953 388.98 104.04 389.027 104.098C389.933 105.221 390.816 106.364 391.764 107.452C392.05 107.782 392.498 107.988 392.901 108.195C393.328 108.415 393.645 108.709 393.839 109.15C394.189 109.95 394.702 110.677 394.878 111.558C394.928 111.811 395.09 112.043 395.216 112.277C395.324 112.478 395.467 112.661 395.573 112.862C395.891 113.466 395.856 113.803 395.463 114.067C394.981 114.39 394.396 114.332 394.004 113.919C393.952 113.864 393.905 113.802 393.866 113.737C393.317 112.827 392.744 111.93 392.232 110.999C391.894 110.385 391.375 110.044 390.757 109.814C390.438 109.696 390.167 109.814 389.952 110.083C389.356 110.83 389.088 111.681 389.092 112.631C389.095 113.316 389.171 114.02 388.857 114.659C388.347 115.697 388.12 116.807 387.886 117.929C387.602 119.293 386.868 119.796 385.409 119.753C384.496 119.725 383.882 120.149 383.514 120.944C383.355 121.286 383.224 121.66 383.178 122.032C383.088 122.762 382.705 123.302 382.205 123.793C382.043 123.952 381.864 124.101 381.738 124.286C381.55 124.561 381.53 124.879 381.766 125.133C382.049 125.437 382.34 125.759 382.69 125.974C383.819 126.668 384.619 127.698 385.435 128.688C386.062 129.448 386.448 130.39 386.711 131.355C386.864 131.916 386.704 132.223 386.18 132.457C385.627 132.705 385.072 132.949 384.507 133.168C384.299 133.249 384.064 133.274 383.839 133.29C383.456 133.317 383.17 133.148 383.029 132.785C382.891 132.43 382.757 132.071 382.654 131.704C382.349 130.612 381.818 129.673 380.947 128.92C380.4 128.448 379.943 127.878 379.26 127.571C378.852 127.389 378.642 127.04 378.547 126.596C378.381 125.817 377.955 125.219 377.274 124.776C376.966 124.576 376.704 124.484 376.328 124.535C375.583 124.635 374.917 124.845 374.415 125.44C374.318 125.556 374.199 125.656 374.078 125.749C373.758 125.992 373.502 125.965 373.326 125.624C373.136 125.256 372.968 124.869 372.851 124.473C372.557 123.476 371.717 123.213 370.948 123.877C370.139 124.576 369.94 125.798 370.7 126.871C370.896 127.148 371.164 127.375 371.398 127.626C371.744 127.994 372.177 128.135 372.648 127.976C373.268 127.766 373.841 127.874 374.435 128.069C374.792 128.186 375.179 128.213 375.552 128.281C375.738 128.314 375.951 128.305 376.102 128.397C376.245 128.483 376.4 128.672 376.408 128.824C376.416 128.975 376.285 129.189 376.151 129.279C375.968 129.4 375.725 129.43 375.507 129.496C374.735 129.73 374.359 130.353 374.066 131.024C373.904 131.394 374.017 131.777 374.261 132.103C374.67 132.651 375.079 133.201 375.499 133.741C376.037 134.431 376.571 135.117 376.97 135.909C377.15 136.265 377.481 136.566 377.798 136.827C378.255 137.202 378.601 137.63 378.788 138.194C378.884 138.482 379.006 138.764 379.144 139.035C379.813 140.355 379.755 141.767 379.673 143.179C379.66 143.394 379.505 143.597 379.431 143.812C379.293 144.207 379.168 144.604 379.038 145.001C378.908 145.396 378.785 145.794 378.649 146.188C378.574 146.403 378.4 146.615 378.407 146.823C378.447 148.136 377.495 148.961 376.89 149.946C376.388 150.762 375.618 151.36 374.878 151.947C374.413 152.317 373.815 152.529 373.26 152.773C372.77 152.99 372.347 153.242 371.961 153.649C371.553 154.078 370.967 154.342 370.448 154.658C369.667 155.133 368.884 155.608 368.084 156.049C367.72 156.249 367.316 156.383 366.921 156.521C366.268 156.749 365.647 156.67 365.068 156.276C364.594 155.955 364.107 155.654 363.641 155.323C363.286 155.069 362.957 155.098 362.572 155.269C361.375 155.803 360.817 156.845 360.539 158.006C360.351 158.79 360.55 159.568 361.251 160.167C361.765 160.606 362.21 161.142 362.614 161.688C363.406 162.756 364.551 163.516 365.208 164.698C365.411 165.064 365.699 165.397 365.826 165.785C366.18 166.868 366.588 167.955 366.747 169.073C366.855 169.828 366.676 170.668 366.447 171.415C366.243 172.079 365.633 172.492 365.009 172.821C364.399 173.143 363.824 173.514 363.46 174.134C363.384 174.262 363.262 174.366 363.149 174.468C362.642 174.924 362.115 175.349 361.688 175.9C361.278 176.428 360.872 176.419 360.445 175.923C360.075 175.493 359.79 174.991 359.465 174.521C359.163 174.084 358.894 173.616 358.542 173.223C358.28 172.931 358.057 172.642 357.949 172.266C357.649 171.224 356.901 170.507 356.127 169.825C355.441 169.22 354.194 169.334 353.681 170.098C352.907 171.251 352.373 172.507 352.474 173.951C352.5 174.319 352.574 174.636 352.961 174.772C353.41 174.93 353.559 175.286 353.696 175.71C354.112 177.01 354.815 178.118 355.974 178.901C356.937 179.552 357.669 180.428 358.29 181.398C358.833 182.246 359.235 183.14 359.113 184.191C359.016 185.033 359.473 185.734 359.731 186.485C359.855 186.844 360.017 187.193 360.115 187.559C360.217 187.938 359.928 188.235 359.537 188.192C359.425 188.181 359.306 188.163 359.208 188.113C357.548 187.261 356.093 186.187 355.304 184.417C355.04 183.826 354.767 183.236 354.542 182.63C354.141 181.551 353.622 180.538 352.965 179.596C352.446 178.851 352.037 178.045 351.355 177.391C350.906 176.961 350.883 176.213 350.96 175.556C350.991 175.293 351.081 175.037 351.142 174.777C351.185 174.592 351.292 174.387 351.25 174.222C351.015 173.306 351.337 172.397 351.276 171.511C351.195 170.312 351.032 169.083 350.468 167.971C350.192 167.426 349.907 166.886 349.655 166.33C349.5 165.986 349.354 165.626 349.287 165.258C349.215 164.859 349.038 164.553 348.767 164.268C347.99 163.448 347.299 163.375 346.362 164.047C346.208 164.157 346.091 164.332 345.925 164.411C345.771 164.485 345.575 164.483 345.395 164.49C345.329 164.492 345.256 164.432 345.194 164.388C344.862 164.148 344.335 164.27 344.12 163.814C343.938 163.428 344.189 163.069 344.192 162.698C344.194 162.323 344.161 161.938 344.071 161.575C343.784 160.417 343.211 159.376 342.657 158.332C342.536 158.104 342.363 157.852 342.147 157.735C341.119 157.175 340.639 156.154 339.999 155.267C339.777 154.959 339.606 154.613 339.381 154.307C339.036 153.837 338.565 153.643 337.979 153.749C336.97 153.934 335.962 154.124 334.95 154.286C334.32 154.387 333.813 154.707 333.336 155.095C333.065 155.316 332.849 155.582 332.808 155.949C332.696 156.945 331.997 157.505 331.194 157.863C330.626 158.115 330.266 158.488 329.94 158.965C329.726 159.278 329.47 159.562 329.238 159.863C329.007 160.163 328.78 160.467 328.556 160.773C328.4 160.987 328.301 161.303 328.092 161.41C327.34 161.793 326.934 162.479 326.437 163.098C326.179 163.421 325.828 163.67 325.513 163.944C325.312 164.118 325.072 164.255 324.897 164.45C324.452 164.946 324.136 165.496 324.296 166.211C324.37 166.544 324.409 166.887 324.443 167.227C324.485 167.642 324.56 168.064 324.521 168.475C324.441 169.307 324.293 170.132 324.178 170.96C324.142 171.223 324.071 171.495 324.1 171.753C324.25 173.038 323.556 174.006 322.916 174.995C322.835 175.12 322.721 175.23 322.607 175.328C322.174 175.698 321.741 176.067 321.296 176.423C320.765 176.849 320.395 176.82 319.884 176.36C319.477 175.993 319.199 175.543 318.995 175.043C318.764 174.479 318.53 173.915 318.334 173.338C318.112 172.684 317.872 172.055 317.4 171.523C317.205 171.305 317.102 170.994 316.999 170.71C316.728 169.958 316.505 169.188 316.215 168.444C315.926 167.701 315.636 166.964 315.2 166.277C314.754 165.575 314.433 164.791 314.098 164.025C313.886 163.539 313.79 163.001 313.567 162.52C312.846 160.972 312.643 159.307 312.431 157.646C312.355 157.05 312.196 156.538 311.763 156.116C311.466 155.827 311.132 155.705 310.722 155.814C310.464 155.882 310.193 155.914 309.945 156.007C309.423 156.205 309.063 155.99 308.756 155.596C308.686 155.506 308.61 155.416 308.556 155.317C308.189 154.64 307.367 154.474 306.932 153.912C306.497 153.349 306.244 152.649 305.848 152.05C305.643 151.742 305.329 151.487 305.021 151.269C304.232 150.713 303.559 150.046 303.003 149.265C302.591 148.686 302.041 148.371 301.349 148.427C300.441 148.499 299.543 148.683 298.635 148.76C297.237 148.877 295.841 149.053 294.436 148.733C293.398 148.497 292.336 148.367 291.286 148.187C291.061 148.148 290.84 148.076 290.614 148.052C289.717 147.957 289.145 147.485 288.895 146.619C288.864 146.51 288.825 146.4 288.772 146.299C288.475 145.736 288.171 145.648 287.564 145.904C287.108 146.095 286.641 146.258 286.179 146.434C285.878 146.549 285.59 146.523 285.29 146.403C284.795 146.205 284.295 146.011 283.786 145.857C283.154 145.665 282.603 145.342 282.077 144.955C281.772 144.731 281.46 144.484 281.111 144.362C280.576 144.176 280.31 143.805 280.166 143.306C279.973 142.64 279.69 142.02 279.252 141.478C278.858 140.99 278.395 140.649 277.741 140.537C276.703 140.36 275.907 141.054 276.066 142.09C276.106 142.348 276.213 142.606 276.337 142.838C276.608 143.34 276.901 143.832 277.205 144.316C277.303 144.472 277.446 144.614 277.598 144.721C278.252 145.181 278.917 145.623 279.578 146.074C279.767 146.202 279.974 146.313 280.134 146.471C281.363 147.674 281.326 147.481 281.27 149.135C281.241 149.996 281.3 150.048 282.162 150.263C282.883 150.444 283.574 150.468 284.297 150.252C284.982 150.047 285.53 149.722 285.95 149.121C286.592 148.205 287.617 148.176 288.325 149.028C288.689 149.466 289.012 149.941 289.338 150.41C289.574 150.749 289.87 150.969 290.291 150.925C291.222 150.827 291.789 151.345 292.256 152.047C292.32 152.142 292.38 152.239 292.444 152.334C293.378 153.714 293.374 154.222 292.469 155.648C292.104 156.225 291.777 156.827 291.438 157.42C291.362 157.552 291.271 157.692 291.253 157.837C291.065 159.379 289.863 160.114 288.788 160.948C288.612 161.085 288.383 161.153 288.182 161.26C287.982 161.367 287.737 161.441 287.599 161.603C287.052 162.246 286.303 162.536 285.555 162.812C284.485 163.207 283.608 163.818 283.002 164.803C282.659 165.362 282.076 165.644 281.483 165.736C280.545 165.88 279.771 166.357 278.955 166.761C278.717 166.879 278.506 167.09 278.257 167.142C276.9 167.431 275.738 168.223 274.416 168.604C273.984 168.728 273.575 168.953 273.174 169.166C272.839 169.344 272.501 169.381 272.195 169.184C271.584 168.79 270.972 168.371 270.81 167.591C270.676 166.941 270.392 166.367 270.015 165.832C269.43 165.004 269.278 164.001 268.923 163.081C268.645 162.364 268.348 161.676 267.907 161.045C267.712 160.766 267.525 160.467 267.411 160.15C266.924 158.783 266.161 157.65 264.883 156.894C264.636 156.748 264.423 156.491 264.279 156.237C263.937 155.638 263.751 154.987 263.66 154.291C263.46 152.77 262.797 151.462 261.598 150.481C261.197 150.152 260.922 149.785 260.72 149.317C260.509 148.832 260.294 148.324 259.967 147.917C258.473 146.055 257.476 143.927 256.505 141.771C256.085 140.841 255.833 139.915 255.897 138.905C255.914 138.644 255.961 138.372 256.058 138.131C256.412 137.245 256.703 136.348 256.838 135.396C256.895 134.993 257.07 134.588 257.272 134.229C257.663 133.532 257.789 132.805 257.689 132.024C257.666 131.835 257.655 131.645 257.646 131.455C257.608 130.651 256.97 129.927 256.195 129.815C255.796 129.758 255.43 129.862 255.119 130.104C254.297 130.745 253.464 130.67 252.557 130.271C251.97 130.013 251.326 129.867 250.693 129.744C250.468 129.7 250.165 129.817 249.961 129.956C249.492 130.273 249.072 130.228 248.568 130.018C247.797 129.699 247.009 129.422 246.147 129.389C245.443 129.362 244.973 128.857 244.61 128.318C244.202 127.714 243.922 127.045 243.984 126.278C244.046 125.511 243.907 124.762 243.763 124.01C243.684 123.591 243.484 123.314 243.102 123.153C243.032 123.123 242.963 123.09 242.892 123.064C241.387 122.525 241.252 122.778 240.536 124.001C240.43 124.183 240.362 124.459 240.416 124.653C240.58 125.236 240.474 125.875 240.819 126.426C240.924 126.593 240.938 126.876 240.881 127.075C240.673 127.807 240.426 128.527 240.177 129.247C239.993 129.779 239.758 129.922 239.23 129.819C238.97 129.768 238.718 129.672 238.463 129.593C238.064 129.468 237.791 129.196 237.729 128.792C237.574 127.801 236.995 127.065 236.388 126.316C235.984 125.817 235.697 125.223 235.363 124.668C235.206 124.409 235.085 124.124 234.906 123.883C234.689 123.59 234.606 123.273 234.608 122.921C234.609 122.806 234.601 122.692 234.605 122.578C234.65 121.339 234.026 120.466 233.032 119.846C232.543 119.541 232.084 119.221 231.659 118.831C231.447 118.636 231.147 118.507 230.864 118.423C230.139 118.21 229.568 117.804 229.125 117.196C228.554 116.411 227.774 115.863 226.981 115.332C226.582 115.065 226.17 115.084 225.815 115.38C225.488 115.65 225.251 115.977 225.357 116.471C225.465 116.971 225.644 117.403 226.023 117.764C226.324 118.051 226.683 118.354 226.817 118.722C227.149 119.637 227.954 120.016 228.642 120.537C228.702 120.582 228.773 120.623 228.845 120.639C230.43 120.994 231.493 122.234 232.835 123.001C233.024 123.108 233.173 123.312 233.297 123.499C233.429 123.698 233.476 123.965 233.247 124.109C233.122 124.188 232.887 124.155 232.727 124.1C232.443 124.003 232.189 123.798 231.901 123.734C231.326 123.606 230.893 124.089 231.131 124.618C231.347 125.099 231.467 125.529 231.21 126.028C230.895 126.639 230.657 127.307 229.893 127.508C229.325 127.657 229.147 128.039 229.083 128.597C228.992 129.374 228.544 129.56 227.895 129.198C227.299 128.866 226.684 128.568 226.084 128.242C225.853 128.115 225.631 127.966 225.425 127.802C225.291 127.696 225.347 127.379 225.508 127.307C225.678 127.233 225.862 127.159 226.044 127.148C226.462 127.121 226.885 127.155 227.302 127.124C227.755 127.09 228.213 127.045 228.655 126.942C229.48 126.75 229.802 126.312 229.787 125.492C229.777 124.969 229.591 124.537 229.178 124.193C228.888 123.952 228.617 123.683 228.379 123.392C228.047 122.984 227.586 122.804 227.13 122.619C226.022 122.172 225.088 121.467 224.177 120.714C223.346 120.029 222.618 119.279 222.132 118.296C221.989 118.008 221.684 117.78 221.413 117.577C220.608 116.974 220.549 116.986 219.748 117.592C219.598 117.707 219.445 117.861 219.273 117.896C218.655 118.022 218.132 118.299 217.668 118.721C217.396 118.969 217.057 119.006 216.7 118.916C216.145 118.777 215.589 118.648 215.032 118.513C214.575 118.403 214.126 118.4 213.69 118.601C213.204 118.823 212.813 119.169 212.878 119.729C213.023 120.976 212.269 121.622 211.348 122.167C211.06 122.337 210.735 122.481 210.41 122.542C209.955 122.628 209.662 122.872 209.419 123.239C209.146 123.652 208.889 124.091 208.543 124.435C208.07 124.904 207.745 125.333 208.129 126.025C208.202 126.157 208.079 126.48 207.948 126.627C207.586 127.031 207.274 127.451 207.109 127.974C207.076 128.079 207.023 128.208 206.939 128.265C205.884 128.963 205.022 130.054 203.521 129.822C203.003 129.743 202.465 129.846 201.969 130.105C201.112 130.551 200.27 130.265 199.629 129.739C198.924 129.16 198.212 128.883 197.331 128.957C197.256 128.963 197.178 128.959 197.102 128.957C196 128.937 195.949 128.901 195.93 127.785C195.921 127.238 195.878 126.729 195.477 126.3C195.204 126.007 195.288 125.667 195.449 125.339C195.767 124.693 196.154 124.086 196.344 123.371C196.454 122.958 196.537 122.591 196.473 122.153C196.398 121.635 196.469 121.097 196.478 120.567C196.483 120.23 196.542 119.883 196.481 119.558C196.395 119.104 196.549 118.826 196.931 118.621C197.166 118.496 197.401 118.366 197.623 118.22C197.928 118.02 198.261 117.927 198.604 118.027C199.428 118.268 200.269 118.178 201.105 118.206C201.485 118.219 201.862 118.277 202.242 118.293C203.415 118.343 204.589 118.404 205.762 118.415C206.299 118.42 206.493 118.211 206.633 117.682C206.779 117.13 206.921 116.577 207.051 116.021C207.24 115.209 207.183 114.42 206.713 113.711C206.377 113.204 206.03 112.696 205.623 112.248C205.121 111.694 204.455 111.4 203.708 111.32C203.081 111.254 202.766 110.879 202.658 110.29C202.609 110.022 202.724 109.828 202.984 109.779C203.544 109.672 204.106 109.548 204.673 109.518C205.36 109.482 205.943 109.295 206.371 108.732C206.829 108.128 207.429 108.001 208.099 108.292C208.532 108.481 208.886 108.378 209.296 108.213C210.093 107.892 210.782 107.492 211.244 106.717C211.426 106.413 211.797 106.205 212.111 105.999C212.65 105.646 213.24 105.365 213.756 104.983C214.115 104.716 214.419 104.356 214.692 103.995C215.259 103.245 215.944 102.704 216.84 102.37C217.548 102.107 218.205 101.699 218.87 101.331C219.316 101.085 219.532 100.69 219.391 100.179C219.112 99.1633 219.352 98.2142 219.727 97.2814C219.977 96.6616 220.88 96.0362 221.52 96.0695C221.667 96.0771 221.911 96.2493 221.931 96.3744C222.044 97.0759 222.346 97.7786 221.989 98.4983C221.905 98.6661 221.861 98.8597 221.832 99.0464C221.65 100.226 222.792 101.226 223.935 100.881C224.224 100.793 224.494 100.642 224.769 100.512C225.271 100.275 225.729 100.326 226.14 100.71C226.251 100.814 226.367 100.914 226.468 101.028C226.812 101.415 227.202 101.51 227.7 101.321C228.375 101.065 229.071 100.861 229.756 100.631C230.703 100.314 231.686 100.15 232.672 100.139C233.712 100.127 234.439 99.7397 234.82 98.7673C234.999 98.3097 235.206 97.8503 235.291 97.3719C235.469 96.3662 235.922 95.6792 237.002 95.5132C237.517 95.434 237.903 95.148 238.132 94.6483C238.585 93.6558 238.321 92.8651 237.336 92.383C236.891 92.1655 236.434 91.9731 235.984 91.7682C235.3 91.4577 234.924 90.9316 234.838 90.1824C234.778 89.6537 234.674 89.1301 234.61 88.6015C234.524 87.89 234.752 87.3337 235.422 86.9886C236.416 86.4769 237.244 85.7497 238.017 84.9533C238.123 84.8445 238.246 84.7509 238.34 84.6334C238.478 84.4599 238.399 84.1569 238.199 84.0381C237.441 83.588 235.561 83.8822 235.002 84.5454C234.88 84.6899 234.773 84.8521 234.681 85.018C234.008 86.2393 232.946 87.0119 231.721 87.6002C231.447 87.7322 231.164 87.8585 230.912 88.027C230.424 88.3539 230.217 88.8259 230.323 89.4098C230.439 90.056 230.631 90.6607 231.18 91.1013C231.475 91.3389 231.719 91.6394 231.987 91.9103C232.234 92.1605 232.244 92.4326 232.107 92.7482C231.838 93.3661 231.479 93.8991 230.797 94.0939C230.051 94.307 229.816 94.7992 229.773 95.5415C229.734 96.2172 229.531 96.8848 229.383 97.5517C229.279 98.0168 228.983 98.2934 228.492 98.2745C227.925 98.2532 227.472 98.4581 227.032 98.8095C226.776 99.0131 226.423 99.12 226.096 99.2042C225.47 99.3657 224.834 99.4933 224.197 99.609C223.904 99.6624 223.678 99.5134 223.555 99.2394C223.42 98.9408 223.552 98.7259 223.796 98.5587C224.111 98.3437 224.441 98.1482 224.742 97.9144C225.228 97.536 225.289 97.2255 224.921 96.754C224.174 95.7967 223.54 94.7527 222.551 93.9864C221.985 93.549 221.608 93.3918 220.957 94.0003C220.437 94.4843 219.872 94.8526 219.181 94.9783C218.777 95.0525 218.341 95.0846 217.939 95.0179C217.393 94.928 216.946 94.6339 216.778 94.0468C216.516 93.1322 216.22 92.2265 215.996 91.3025C215.881 90.8285 215.874 90.3244 215.848 89.8329C215.817 89.2747 216.102 88.8919 216.594 88.6562C216.766 88.5745 216.942 88.494 217.125 88.445C217.724 88.2834 218.247 87.9949 218.728 87.6002C218.989 87.3865 219.299 87.2092 219.615 87.0885C220.623 86.7039 221.539 86.1564 222.392 85.5121C222.873 85.1475 223.344 84.739 223.717 84.2682C224.48 83.3058 225.337 82.4585 226.294 81.691C226.855 81.241 227.326 80.679 227.842 80.1718C228.137 79.8814 228.425 79.5803 228.744 79.3188C229.452 78.7418 230.167 78.1736 230.9 77.6305C231.135 77.457 231.426 77.3237 231.711 77.2609C232.229 77.1458 232.76 77.066 233.29 77.0302C233.884 76.9893 234.412 76.8322 234.853 76.4224C235.155 76.142 235.527 76.0917 235.917 76.0924C236.756 76.0943 237.595 76.093 238.434 76.093C238.438 76.0961 238.438 76.0943 238.438 76.0943ZM280.95 129.01C280.938 128.983 280.933 128.94 280.914 128.932C280.892 128.923 280.857 128.946 280.828 128.955C280.848 128.995 280.868 129.035 280.889 129.074C280.909 129.053 280.929 129.032 280.95 129.01Z" fill="#FBA2B0"/>
<path d="M281.973 172.225C281.911 173.52 281.744 174.772 281.156 175.977C280.121 178.099 279.236 180.294 278.209 182.42C277.816 183.234 277.227 183.958 276.689 184.693C276.104 185.493 275.428 186.219 274.606 186.782C274.169 187.082 273.696 187.334 273.223 187.578C272.775 187.81 272.441 188.142 272.091 188.505C271.134 189.495 270.317 190.589 269.493 191.683C269.195 192.078 268.908 192.482 268.591 192.861C268.326 193.178 268.046 193.489 267.736 193.761C267.127 194.296 266.634 194.883 266.326 195.66C265.962 196.577 265.498 197.457 265.034 198.331C264.679 198.997 264.488 199.651 264.703 200.411C264.899 201.104 265.07 201.812 265.164 202.526C265.237 203.082 265.23 203.665 265.151 204.22C265.09 204.655 265.082 205.057 265.256 205.448C265.567 206.143 265.864 206.85 266.235 207.513C266.864 208.636 267.078 209.788 266.642 211.021C266.354 211.838 266.313 212.681 266.51 213.503C266.899 215.121 266.273 216.417 265.303 217.607C264.72 218.322 263.978 218.865 263.152 219.284C262.982 219.371 262.809 219.453 262.642 219.545C261.778 220.02 260.89 220.447 260.367 221.374C260.191 221.686 259.805 221.877 259.526 222.134C259.303 222.338 259.083 222.547 258.885 222.775C258.049 223.737 258.03 224.864 258.306 226.015C258.521 226.91 258.672 227.799 258.641 228.726C258.611 229.628 258.305 230.446 257.933 231.237C257.797 231.527 257.496 231.755 257.233 231.964C256.787 232.32 256.322 232.655 255.847 232.971C255.243 233.372 254.9 233.926 254.706 234.618C254.451 235.534 254.108 236.427 253.864 237.346C253.738 237.82 253.495 238.183 253.135 238.473C252.226 239.208 251.577 240.138 251.056 241.167C250.725 241.823 250.258 242.36 249.726 242.864C249.202 243.359 248.726 243.906 248.252 244.45C247.437 245.389 246.504 246.133 245.257 246.41C245.036 246.459 244.816 246.538 244.614 246.641C243.71 247.101 242.737 247.282 241.742 247.278C240.888 247.276 240.07 247.419 239.273 247.69C238.65 247.903 238.022 247.997 237.364 247.986C236.987 247.979 236.597 248.007 236.232 248.096C235.552 248.26 234.944 248.045 234.355 247.784C233.777 247.527 233.396 247.089 233.231 246.432C233.055 245.733 232.813 245.073 232.983 244.32C233.111 243.755 232.913 243.189 232.719 242.645C232.4 241.75 232.025 240.872 231.95 239.907C231.933 239.682 231.859 239.458 231.792 239.24C231.667 238.827 231.438 238.49 231.086 238.226C229.796 237.26 229.188 235.903 228.874 234.37C228.638 233.214 228.63 232.024 228.29 230.882C228.174 230.493 228.175 230.042 228.234 229.635C228.427 228.315 228.146 227.142 227.269 226.127C226.66 225.421 226.313 224.57 225.96 223.728C225.562 222.781 225.248 221.798 224.622 220.959C224.49 220.782 224.36 220.551 224.354 220.341C224.316 219.09 224.164 217.837 224.653 216.613C225.046 215.629 225.345 214.607 225.491 213.546C225.597 212.777 225.91 212.13 226.486 211.552C227.478 210.557 227.809 209.362 227.219 207.997C226.961 207.403 226.725 206.795 226.548 206.173C226.425 205.741 226.377 205.276 226.376 204.826C226.373 203.582 226.118 202.427 225.508 201.321C225.165 200.699 224.929 199.981 224.814 199.278C224.689 198.517 224.318 197.92 223.877 197.351C223.155 196.418 222.384 195.524 221.646 194.604C221.191 194.037 220.834 193.421 220.558 192.737C220.307 192.118 220.321 191.548 220.561 190.969C220.917 190.112 221.113 189.235 221.12 188.302C221.123 187.93 221.226 187.547 221.348 187.19C221.536 186.636 221.544 186.072 221.569 185.499C221.603 184.705 221.215 184.205 220.559 183.853C219.48 183.275 218.327 183.113 217.124 183.241C216.973 183.256 216.827 183.315 216.676 183.334C216.075 183.408 215.63 183.193 215.357 182.66C215.219 182.39 215.111 182.098 215.034 181.805C214.769 180.787 214.002 180.246 213.08 180.089C211.963 179.9 210.793 179.831 209.693 180.264C208.705 180.653 207.74 181.098 206.766 181.517C206.625 181.577 206.48 181.624 206.339 181.683C204.14 182.605 204.128 182.652 201.856 182.034C200.824 181.753 199.893 181.992 198.946 182.25C198.213 182.45 197.495 182.721 196.789 183.006C196.091 183.288 195.459 183.256 194.852 182.792C194.61 182.608 194.307 182.491 194.098 182.278C193.046 181.206 191.676 180.574 190.515 179.66C189.31 178.711 188.208 177.666 187.774 176.1C187.643 175.627 187.411 175.176 187.175 174.742C186.995 174.414 186.746 174.119 186.506 173.827C186.338 173.623 186.057 173.482 185.96 173.255C185.61 172.432 184.901 171.949 184.235 171.471C183.416 170.882 182.954 170.081 182.544 169.22C182.38 168.876 182.267 168.509 182.11 168.162C181.429 166.65 181.659 165.12 182.807 163.954C183.253 163.502 183.577 163.04 183.634 162.383C183.677 161.894 183.83 161.414 183.928 160.928C184.066 160.244 184.123 159.569 183.735 158.932C183.658 158.806 183.632 158.647 183.595 158.5C183.427 157.838 183.291 157.166 183.095 156.512C182.723 155.27 182.82 154.111 183.6 153.043C183.689 152.92 183.796 152.795 183.836 152.654C184.136 151.602 184.832 150.782 185.394 149.878C185.813 149.204 186.122 148.456 186.42 147.717C186.611 147.243 186.813 146.826 187.273 146.549C187.889 146.178 188.205 145.541 188.498 144.929C188.801 144.295 189.247 143.881 189.899 143.68C190.316 143.551 190.638 143.304 190.936 142.998C191.625 142.287 192.349 141.616 192.886 140.762C193.316 140.077 193.62 139.36 193.888 138.598C194.187 137.747 194.668 136.961 195.07 136.146C195.842 135.658 196.373 134.848 197.24 134.49C197.952 134.196 198.421 133.697 198.728 132.995C198.91 132.579 199.178 132.199 199.425 131.815C199.787 131.255 200.371 131.021 200.873 131.407C201.778 132.101 202.705 131.927 203.701 131.787C204.836 131.626 205.955 131.46 207.036 131.057C207.405 130.919 207.732 130.783 207.984 130.47C208.444 129.896 209.069 129.646 209.793 129.653C210.908 129.664 211.991 129.451 213.063 129.189C213.892 128.986 214.694 128.838 215.521 129.226C215.725 129.322 216.055 129.276 216.279 129.18C216.962 128.888 217.62 128.783 218.383 128.911C219.152 129.04 219.956 129.057 220.727 128.656C221.312 128.351 222.001 128.459 222.639 128.57C223.129 128.654 223.438 129.096 223.323 129.592C223.174 130.242 223.2 130.86 223.293 131.513C223.342 131.855 223.154 132.252 223.007 132.596C222.589 133.579 222.7 134.291 223.531 134.899C224.271 135.44 225.075 135.89 226.054 135.831C226.396 135.811 226.744 135.799 227.083 135.836C227.497 135.881 227.909 135.963 228.313 136.062C228.908 136.207 229.365 136.549 229.512 137.165C229.704 137.972 230.264 138.307 231.008 138.317C232.021 138.33 232.859 138.751 233.623 139.334C234.096 139.695 234.575 139.789 235.121 139.638C235.607 139.504 235.874 139.091 235.813 138.597C235.804 138.522 235.784 138.446 235.755 138.376C235.59 137.983 235.407 137.569 235.717 137.187C236.098 136.72 236.453 136.199 237.113 136.073C237.45 136.009 237.784 135.922 238.122 135.873C238.942 135.754 239.714 135.816 240.371 136.421C240.588 136.621 240.869 136.798 241.151 136.875C241.926 137.089 242.696 137.292 243.376 137.747C243.495 137.826 243.664 137.84 243.813 137.866C244.712 138.023 245.616 138.155 246.511 138.337C247.03 138.442 247.554 138.577 248.039 138.784C248.577 139.014 249.046 139.065 249.538 138.693C249.779 138.512 250.085 138.42 250.339 138.253C250.982 137.83 251.637 137.867 252.297 138.181C253.503 138.754 254.464 139.513 254.895 140.889C255.297 142.174 255.547 143.471 255.647 144.8C255.688 145.352 255.813 145.86 256.11 146.31C256.917 147.528 257.455 148.87 257.987 150.219C258.125 150.569 258.319 150.907 258.54 151.212C259.007 151.859 259.523 152.471 259.99 153.117C260.211 153.423 260.431 153.756 260.544 154.111C260.853 155.089 261.157 156.076 261.359 157.08C261.476 157.657 261.647 158.187 261.964 158.665C262.342 159.237 262.718 159.819 263.168 160.332C263.882 161.144 264.192 162.106 264.34 163.137C264.512 164.327 265.091 165.185 266.247 165.607C266.498 165.699 266.756 165.778 266.992 165.898C267.226 166.017 267.488 166.138 267.651 166.331C268.583 167.435 269.487 168.562 270.405 169.677C270.606 169.922 270.771 170.171 270.682 170.506C270.519 171.121 270.886 171.514 271.259 171.908C271.695 172.369 272.208 172.731 272.86 172.657C273.687 172.563 274.518 172.429 275.32 172.213C276.422 171.917 277.5 171.528 278.59 171.184C278.734 171.139 278.888 171.1 279.038 171.097C279.736 171.084 280.387 170.928 281.013 170.601C281.468 170.364 281.851 170.591 281.949 171.078C281.964 171.153 281.971 171.23 281.971 171.306C281.974 171.615 281.973 171.919 281.973 172.225Z" fill="#FBA2B0"/>
<path d="M125.736 72.5183C126.757 72.424 127.776 72.2775 128.798 72.2473C130.24 72.2052 131.689 72.0563 133.125 72.4039C133.758 72.5572 134.227 72.8313 134.533 73.4385C135.078 74.5202 135.951 75.2016 137.168 75.4248C137.93 75.5643 138.609 75.9031 139.233 76.3626C139.839 76.8082 140.187 77.3827 140.016 78.1301C139.877 78.7348 140.073 79.1754 140.475 79.5708C140.907 79.9951 141.29 80.4634 141.876 80.7242C142.372 80.9442 142.849 81.9845 142.741 82.4704C142.702 82.6451 142.598 82.8362 142.465 82.955C141.842 83.5132 141.221 84.0783 140.556 84.5836C140.055 84.9645 139.317 84.8351 138.901 84.3617C138.725 84.1625 138.604 83.9129 138.419 83.7244C138.182 83.4824 137.925 83.2467 137.64 83.0675C137.402 82.9185 137.119 82.9544 136.899 83.1587C136.695 83.3466 136.75 83.5735 136.843 83.7904C137.008 84.1757 137.181 84.5572 137.351 84.94C137.826 86.0142 137.517 86.9577 136.532 87.5957C135.928 87.9873 135.326 88.399 134.787 88.8736C134.112 89.4689 133.437 89.4481 132.674 89.1011C132.086 88.8334 131.473 88.6197 130.867 88.3921C130.127 88.1143 129.504 87.7378 129.281 86.8924C129.206 86.6095 128.997 86.3556 128.822 86.1073C128.536 85.7006 128.155 85.517 127.637 85.6145C126.455 85.8382 125.285 85.6673 124.121 85.4492C123.692 85.3687 123.578 85.0915 123.786 84.6867C124.177 83.9255 124.974 83.5471 125.784 83.8161C126.487 84.0493 127.191 84.1637 127.921 84.0808C128.464 84.0192 128.922 83.8557 129.223 83.3001C129.41 82.9563 129.794 82.7036 130.125 82.4578C130.491 82.1863 130.912 81.9895 131.28 81.7205C131.521 81.5439 131.753 81.3239 131.914 81.075C132.206 80.6218 132.08 80.0271 131.613 79.7883C131.094 79.523 130.604 79.2691 130.35 78.7002C130.294 78.5751 130.147 78.4582 130.014 78.4048C129.242 78.0949 128.514 77.6417 127.631 77.6895C127.174 77.7146 126.713 77.6694 126.258 77.7102C125.546 77.7743 124.952 78.0478 124.564 78.7128C124.357 79.0692 124.052 79.3703 123.778 79.6852C123.578 79.9152 123.281 80.0919 123.161 80.354C122.837 81.0611 122.232 81.4402 121.626 81.8355C121.371 82.0021 121.112 82.168 120.882 82.3667C120.462 82.73 119.988 82.8997 119.435 82.9695C118.115 83.1367 117.844 83.6665 118.474 84.8112C118.673 85.1732 118.973 85.4793 119.213 85.82C119.404 86.0903 119.266 86.4844 118.945 86.5441C118.728 86.5844 118.486 86.585 118.273 86.5316C118.018 86.4674 117.77 86.348 117.541 86.2154C117.137 85.9828 116.736 86.0017 116.335 86.184C115.92 86.3725 115.512 86.5793 115.106 86.7886C114.904 86.893 114.72 87.0357 114.517 87.1369C114.141 87.3236 113.798 87.3129 113.48 86.9816C112.918 86.3958 112.176 86.2349 111.403 86.1626C110.363 86.0652 109.435 86.2927 108.689 87.0753C108.054 87.7416 107.244 88.1011 106.354 88.1621C104.922 88.2607 103.715 88.9327 102.549 89.6335C101.579 90.2175 100.737 91.0158 99.8416 91.7229C99.1979 92.2308 98.9842 92.8317 99.3356 93.6312C99.548 94.1152 99.6354 94.6533 99.7906 95.1637C99.922 95.5961 100.204 95.8677 100.651 95.9959C101.089 96.1216 101.517 96.2869 101.94 96.4573C102.439 96.6584 102.878 96.9419 103.235 97.3649C103.451 97.6214 103.712 97.8665 104.002 98.0293C105.096 98.6409 106.171 99.2902 107.515 99.233C107.949 99.2142 108.4 99.4147 108.829 99.5574C109.063 99.6347 109.119 99.9175 108.992 100.136C108.532 100.924 108.054 101.702 107.61 102.498C107.176 103.277 107.469 104.419 108.2 104.94C108.44 105.111 108.695 105.147 108.955 105.025C109.438 104.796 109.928 104.578 110.385 104.306C110.864 104.022 111.188 103.585 111.224 103.015C111.28 102.135 111.815 101.365 111.772 100.457C111.764 100.294 111.997 100.057 112.176 99.9615C112.645 99.7101 113.127 99.4273 113.637 99.3217C114.644 99.1124 115.45 98.5152 116.289 98.0149C117.128 97.5139 117.558 96.6176 117.819 95.6835C117.871 95.4968 117.757 95.241 117.663 95.0436C117.584 94.8783 117.414 94.7576 117.299 94.6068C116.9 94.0901 116.947 93.8808 117.545 93.5451C117.81 93.3955 118.086 93.2623 118.361 93.1309C119.164 92.7487 119.618 92.1296 119.547 91.2288C119.51 90.7568 119.661 90.4199 119.989 90.1175C120.3 89.8303 120.551 89.5141 120.65 89.0754C120.807 88.3777 121.358 88.0659 121.995 88.0313C122.867 87.9842 123.745 88.047 124.619 88.0822C124.883 88.0929 125.148 88.223 125.405 88.2054C126.277 88.1445 126.842 88.6945 127.359 89.2319C127.754 89.6423 128.108 90.0767 128.582 90.4149C129.114 90.7951 129.159 91.1063 128.903 91.6984C128.782 91.9775 128.634 92.2478 128.543 92.5356C128.344 93.1655 128.458 93.569 129.001 93.9248C129.704 94.3836 130.377 94.5452 131.108 93.9927C132.017 93.305 132.997 92.711 133.952 92.085C134.536 91.7022 134.803 91.7367 135.212 92.2647C135.835 93.0699 136.217 93.9637 136.192 95.0084C136.175 95.6948 136.161 96.3831 136.2 97.0676C136.225 97.5183 136.282 97.9878 136.439 98.4052C136.727 99.1714 137.164 99.8371 138.06 100.028C138.243 100.067 138.422 100.151 138.587 100.244C138.678 100.296 138.807 100.419 138.796 100.493C138.702 101.16 139.076 101.53 139.559 101.896C139.733 102.027 139.846 102.372 139.825 102.605C139.77 103.207 139.648 103.806 139.512 104.397C139.367 105.025 139.138 105.634 139.008 106.265C138.812 107.219 139.058 107.674 139.926 108.114C140.096 108.2 140.282 108.254 140.443 108.354C140.658 108.489 140.771 108.712 140.639 108.941C140.165 109.764 140.236 110.637 140.42 111.498C140.535 112.036 140.362 112.407 139.952 112.674C139.747 112.808 139.443 112.911 139.214 112.868C138.509 112.735 137.777 112.674 137.141 112.272C136.319 111.753 135.437 111.702 134.499 111.915C134.105 112.004 133.66 111.99 133.262 111.907C132.012 111.645 131.988 111.849 132.576 110.469C132.718 110.134 133.031 109.87 133.264 109.573C133.498 109.275 133.755 108.991 133.955 108.672C134.145 108.367 134.149 108.022 133.994 107.684C133.85 107.371 133.606 107.232 133.258 107.274C133.22 107.278 133.18 107.279 133.146 107.293C132.159 107.716 131.168 107.665 130.123 107.487C129.233 107.337 128.302 107.374 127.418 107.731C126.854 107.959 126.526 108.309 126.583 108.934C126.654 109.711 126.407 110.327 125.817 110.86C125.077 111.528 125.131 112.432 125.271 113.314C125.302 113.507 125.502 113.698 125.667 113.842C126.21 114.316 126.903 114.4 127.575 114.534C127.869 114.592 128.177 114.638 128.442 114.766C128.685 114.884 128.874 115.146 128.762 115.427C128.689 115.609 128.482 115.761 128.3 115.867C128.142 115.96 127.937 116.006 127.751 116.012C126.603 116.046 125.56 116.649 124.4 116.615C124.033 116.604 123.75 116.799 123.498 117.049C123.228 117.318 122.969 117.601 122.679 117.848C122.1 118.342 121.755 118.298 121.256 117.722C121.11 117.553 120.954 117.328 120.762 117.273C119.726 116.98 118.685 116.844 117.67 117.382C117.372 117.541 117.061 117.68 116.743 117.791C116.081 118.021 115.511 118.371 115.02 118.878C114.582 119.332 114.227 119.81 114.218 120.467C114.211 120.96 113.95 121.239 113.501 121.377C112.738 121.611 111.974 121.843 111.213 122.082C110.853 122.195 110.486 122.295 110.143 122.449C109.444 122.765 108.846 123.187 108.403 123.858C108.094 124.327 107.591 124.661 107.218 125.094C106.475 125.959 105.741 126.833 105.045 127.736C104.438 128.525 103.957 129.385 103.768 130.392C103.67 130.918 103.451 131.414 102.986 131.75C102.926 131.793 102.854 131.849 102.832 131.915C102.494 132.887 101.619 133.195 100.808 133.613C99.4908 134.291 98.1312 134.897 96.9759 135.861C96.3656 136.37 95.6031 136.659 95.0286 137.249C94.3454 137.95 93.9632 138.826 93.5219 139.655C93.3158 140.043 93.3818 140.634 93.4672 141.106C93.6489 142.114 93.7256 143.133 93.9871 144.138C94.192 144.924 94.1159 145.812 94.0235 146.638C93.9299 147.476 93.3855 148.089 92.6463 148.498C92.4219 148.623 92.1938 148.581 92.0385 148.366C91.1019 147.073 90.501 145.652 90.4193 144.039C90.398 143.621 90.4369 143.198 90.3973 142.781C90.2942 141.707 89.6298 141.125 88.5474 141.239C88.032 141.294 87.6876 141.208 87.3727 140.775C86.8447 140.05 86.1124 139.852 85.245 140.092C84.7685 140.224 84.2782 140.307 83.7948 140.414C83.0695 140.576 82.4095 140.835 82.0418 141.556C81.8356 141.959 81.4786 142.013 81.065 141.954C80.0115 141.803 78.9549 141.675 77.9014 141.526C77.6776 141.495 77.4381 141.456 77.2439 141.352C76.4802 140.941 75.7674 141.123 75.0628 141.491C74.2884 141.896 73.5429 142.373 72.7352 142.696C71.8326 143.057 71.1386 143.714 70.3328 144.208C70.0393 144.389 69.8557 144.784 69.6822 145.113C69.5609 145.342 69.4949 145.623 69.4849 145.884C69.427 147.373 68.6407 148.633 68.2252 150.009C67.9725 150.845 67.7965 151.704 67.5866 152.553C67.5772 152.59 67.5652 152.63 67.5709 152.666C67.8386 154.38 67.6318 156.18 68.5508 157.779C68.9468 158.466 69.4189 159.005 70.197 159.268C70.8916 159.501 71.5824 159.665 72.3222 159.635C73.0074 159.607 73.6956 159.643 74.3814 159.621C74.7202 159.61 75.0609 159.548 75.394 159.476C75.9597 159.355 76.3463 159.029 76.5022 158.449C76.7096 157.679 77.1339 156.98 77.2137 156.163C77.2665 155.624 77.5915 155.277 78.1402 155.133C78.8405 154.951 79.5212 154.637 80.2296 154.557C80.933 154.478 81.6646 154.59 82.3768 154.677C82.752 154.722 82.896 155.157 82.6948 155.486C82.6163 155.615 82.5182 155.737 82.4088 155.841C82.0858 156.149 82.0116 156.54 81.9217 156.963C81.6451 158.264 81.3667 159.578 80.4421 160.625C79.8292 161.319 79.7896 162.147 79.9373 162.997C80.0498 163.645 80.3446 163.905 81.0097 163.972C81.4239 164.014 81.8438 164.009 82.2611 164.009C82.7564 164.008 83.2524 164 83.7471 163.977C84.7408 163.933 85.4844 164.473 86.2129 165.033C86.3481 165.137 86.4738 165.352 86.4732 165.515C86.4719 166.081 86.46 166.654 86.3632 167.209C86.2519 167.843 86.0407 168.458 85.8811 169.083C85.7503 169.596 85.6014 170.107 85.5146 170.628C85.4021 171.302 85.3248 171.983 85.2745 172.664C85.2619 172.829 85.3952 173.018 85.4945 173.175C86.0558 174.062 86.7994 174.769 87.7127 175.277C88.2168 175.558 88.7649 175.729 89.3596 175.516C89.4997 175.466 89.6588 175.454 89.8096 175.451C90.2006 175.443 90.4671 175.735 90.3747 176.126C90.2553 176.633 89.9818 177.101 90.0849 177.663C90.1057 177.776 89.8951 178.011 89.748 178.062C89.2565 178.229 88.7505 178.248 88.4073 177.763C88.0421 177.247 87.543 177.061 86.9415 177.008C86.6045 176.979 86.2639 176.89 85.9483 176.768C85.7484 176.691 85.5045 176.539 85.4297 176.359C84.9985 175.313 84.0928 174.799 83.16 174.373C82.3089 173.984 81.8444 173.389 81.6766 172.496C81.5351 171.744 81.2234 171.05 80.9317 170.344C80.5527 169.427 79.8537 168.984 78.9593 168.807C77.572 168.534 76.2508 168.047 74.9213 167.597C74.0765 167.31 73.4687 166.646 72.8917 165.971C72.424 165.424 71.9206 164.905 71.4039 164.402C70.8086 163.823 70.1273 163.661 69.3045 163.944C67.948 164.412 66.6136 164.303 65.308 163.677C64.692 163.382 64.0301 163.183 63.3896 162.938C62.2494 162.502 61.1111 162.07 60.2286 161.162C60.0268 160.955 59.7213 160.835 59.4472 160.713C58.7483 160.402 58.0675 160.095 57.581 159.447C57.3912 159.193 57.0455 159.016 56.735 158.904C56.1705 158.701 55.865 158.32 55.7268 157.763C55.6809 157.578 55.6199 157.396 55.5501 157.219C55.3678 156.759 55.3848 156.301 55.6771 155.91C56.4 154.944 55.9738 153.995 55.5916 153.106C55.2182 152.236 54.6789 151.437 54.1937 150.618C53.7436 149.858 53.2005 149.172 52.4632 148.664C51.9849 148.334 51.7027 147.913 51.8359 147.309C51.9478 146.803 51.6719 146.418 51.4368 146.036C51.1552 145.579 50.9144 145.123 50.7661 144.596C50.6574 144.21 50.416 143.834 50.1488 143.527C49.5812 142.875 49.1714 142.197 49.1764 141.285C49.1808 140.605 49.0495 139.925 48.9841 139.245C48.9319 138.703 48.7509 138.433 48.3951 138.388C47.9765 138.334 47.5711 138.563 47.3838 138.974C47.1713 139.441 47.1481 139.91 47.27 140.421C47.4988 141.381 47.6566 142.358 47.8627 143.323C47.9419 143.694 48.0067 144.09 48.1909 144.41C48.5623 145.053 48.7251 145.753 48.8967 146.455C49.0954 147.268 49.2619 148.09 49.4738 148.899C49.5385 149.147 49.6925 149.376 49.8295 149.6C50.0087 149.892 50.2224 150.163 50.4028 150.454C50.6171 150.798 50.6196 151.18 50.5272 151.561C50.4229 151.993 49.9163 152.171 49.6504 151.839C49.0507 151.092 48.3719 150.439 47.6484 149.813C47.3725 149.573 47.3021 149.071 47.1933 148.673C47.1248 148.422 47.1669 148.142 47.1468 147.876C47.1003 147.268 46.8658 146.828 46.2718 146.521C45.8168 146.285 45.427 145.875 45.0889 145.475C44.7331 145.054 44.8305 144.528 45.2272 144.145C46.1449 143.26 46.1845 143.232 45.4264 142.189C44.8343 141.374 44.6137 140.521 44.6168 139.524C44.6193 138.618 44.4251 137.712 44.312 136.807C44.2887 136.618 44.1957 136.43 44.2101 136.247C44.3101 134.961 43.3251 134.384 42.5306 133.706C42.3251 133.531 41.9523 133.558 41.6613 133.474C40.9988 133.284 40.753 133.033 40.7681 132.337C40.7995 130.9 40.4174 129.47 40.7103 128.024C40.7649 127.754 40.611 127.434 40.5236 127.147C40.4243 126.82 40.2841 126.505 40.1747 126.18C40.049 125.806 40.0503 125.431 40.1992 125.06C40.2703 124.884 40.4205 124.688 40.3891 124.529C40.2062 123.599 40.8322 123.022 41.3175 122.418C41.8096 121.805 42.1239 121.139 42.3357 120.396C42.4263 120.078 42.574 119.741 42.7927 119.502C43.926 118.265 44.9707 116.957 45.9594 115.606C46.4994 114.868 47.0651 114.133 47.4825 113.326C47.881 112.556 48.1638 111.708 48.3807 110.865C48.5391 110.248 48.2261 109.663 47.8332 109.183C47.4869 108.76 47.2411 108.304 47.0795 107.787C46.9689 107.432 46.9821 107.125 47.2009 106.814C47.4422 106.472 47.6968 106.128 47.8722 105.752C48.2914 104.851 48.6359 103.934 48.5391 102.897C48.3819 101.217 48.7666 99.5586 48.7949 97.8848C48.7987 97.6597 48.849 97.3989 48.7566 97.2153C48.3493 96.402 47.9055 95.6056 47.4592 94.8123C47.2354 94.4151 46.9582 94.0473 46.7401 93.647C46.3668 92.9631 45.7815 92.5652 45.0524 92.3854C43.8732 92.0944 42.738 91.6343 41.4878 91.6085C41.0252 91.5991 40.5519 91.315 40.1138 91.0956C39.5858 90.831 39.0483 90.7021 38.4606 90.7392C37.8138 90.7794 37.2431 90.9837 36.9414 91.5878C36.7471 91.9762 36.4435 92.1516 36.0695 92.2559C34.7118 92.6362 33.3541 93.0171 31.9901 93.3729C31.7437 93.437 31.4489 93.4439 31.2063 93.3735C30.5444 93.1818 29.9284 93.2943 29.3043 93.5187C27.9095 94.0184 26.499 94.476 25.1149 95.0034C23.5485 95.5999 22.0041 96.2536 20.4503 96.8828C19.8852 97.1116 19.3245 97.3524 18.7544 97.5686C17.897 97.8929 17.0484 98.2286 16.3092 98.7886C15.8623 99.1274 15.3488 99.2607 14.7994 99.1827C14.5857 99.1526 14.3726 99.0426 14.1847 98.9282C13.9345 98.7754 13.9389 98.5598 14.1954 98.3914C14.4807 98.2047 14.7793 98.0344 15.0867 97.8866C15.978 97.458 16.8737 97.04 17.7719 96.627C18.1522 96.4522 18.5407 96.2945 18.9291 96.1373C19.4037 95.945 19.7827 95.6382 20.0631 95.2121C20.3176 94.8249 20.2076 94.4477 19.794 94.2812C19.6891 94.2391 19.5753 94.1982 19.4647 94.1944C19.0278 94.18 18.6714 94.0599 18.3684 93.696C17.9875 93.2384 17.7499 92.7393 17.6651 92.1616C17.6437 92.0152 17.6217 91.8046 17.7022 91.7179C18.1824 91.1999 18.2352 90.4714 18.618 89.9227C18.7984 89.6637 19.1403 89.4902 19.442 89.3482C20.3025 88.9421 21.1718 88.5524 22.0537 88.1954C22.6854 87.9395 23.3492 87.7642 23.9872 87.5234C24.8043 87.2154 25.6127 86.8842 26.4185 86.5473C26.5524 86.4913 26.6649 86.3681 26.7674 86.2575C27.071 85.93 26.9446 85.4768 26.5021 85.3744C26.2897 85.3253 26.0552 85.3624 25.8314 85.3731C25.6051 85.3838 25.377 85.4404 25.1545 85.4209C24.9521 85.4033 24.7962 85.2543 24.8219 85.0318C24.8691 84.6163 24.9338 84.2021 25.0155 83.7916C25.074 83.4993 25.3041 83.3359 25.5718 83.2731C26.0891 83.1517 26.6108 83.0298 27.1376 82.9676C28.4268 82.8155 29.6789 82.5571 30.8801 82.0316C31.4709 81.7733 31.772 81.344 31.9531 80.7833C32.0222 80.569 32.0398 80.3351 32.0637 80.1088C32.0951 79.8159 32.2541 79.6412 32.5012 79.4884C33.1341 79.0975 33.8256 78.8819 34.5547 78.8561C35.4862 78.8228 36.353 78.5877 37.2085 78.2389C37.8415 77.9811 38.5034 77.7938 39.1514 77.5738C39.5487 77.4393 39.9755 77.357 40.3363 77.1565C41.5092 76.504 42.777 76.3802 44.0832 76.3048C45.2586 76.2369 46.4265 76.0496 47.6101 76.0621C47.8282 76.0646 48.0601 75.9697 48.2631 75.8729C48.8496 75.5938 49.431 75.6234 50.0458 75.783C51.0043 76.032 51.9698 76.2645 52.9435 76.4405C53.8775 76.609 54.8254 76.6989 55.7682 76.8189C56.8607 76.9578 57.9525 77.1068 59.0481 77.2187C59.3435 77.2489 59.6629 77.2023 59.9501 77.1194C60.6277 76.9245 61.2462 77.0835 61.8157 77.4186C62.4154 77.7712 62.9817 78.1075 63.736 77.9635C64.0031 77.9126 64.3212 78.0836 64.6065 78.1817C65.4142 78.4582 66.2119 78.5343 67.068 78.3482C68.0303 78.1395 69.0216 78.0647 69.999 77.9239C70.4114 77.8649 70.8275 77.8121 71.2316 77.7121C72.5674 77.3821 73.8974 77.1099 75.2941 77.313C75.6781 77.3689 76.1326 77.2401 76.4972 77.0716C77.1314 76.7781 77.7342 76.7347 78.3728 76.9999C78.9128 77.2237 79.4829 77.2363 80.0586 77.2432C80.6665 77.2501 81.2743 77.2916 81.8809 77.34C82.8972 77.4205 83.7917 77.8649 84.6384 78.3797C85.1846 78.7122 85.7327 78.8989 86.3644 78.8404C87.0345 78.7794 87.6297 78.9416 88.1992 79.32C89.4287 80.1365 90.7537 80.4696 92.2195 80.0164C92.6891 79.8712 93.1838 79.809 93.6659 79.7034C93.8519 79.6632 94.0317 79.5915 94.219 79.5626C95.1204 79.4218 96.0224 79.2848 96.9256 79.1585C97.6334 79.0598 98.3581 79.1559 98.849 79.6556C99.7209 80.5426 100.748 80.4967 101.827 80.3886C102.469 80.3238 103.111 80.2547 103.756 80.2207C104.287 80.1924 104.819 80.2396 105.304 79.9259C105.447 79.8342 105.668 79.8474 105.853 79.8474C106.041 79.8474 106.252 79.9567 106.413 79.9014C107.037 79.6864 107.628 79.8536 108.207 80.0284C108.697 80.1761 109.102 80.0454 109.513 79.814C110.029 79.5236 110.341 79.1207 110.172 78.506C109.823 77.2281 110.54 76.4921 111.482 75.8704C112.262 75.355 113.153 75.1425 114.06 75.003C114.477 74.9389 114.722 75.0935 114.851 75.4895C114.968 75.8509 115.012 76.2388 115.146 76.5933C115.319 77.0534 115.499 77.5254 115.766 77.9327C116.572 79.1641 118.316 78.5651 118.808 77.604C118.897 77.4305 118.897 77.1363 118.809 76.9622C118.611 76.5687 118.55 76.1721 118.576 75.746C118.596 75.426 118.704 75.1482 118.954 74.9433C119.543 74.4618 120.176 74.0268 120.72 73.5001C121.589 72.6597 122.679 72.5346 123.781 72.446C124.425 72.3944 125.077 72.4365 125.725 72.4365C125.731 72.4636 125.734 72.4912 125.736 72.5183Z" fill="#FBA2B0"/>
<path d="M156.392 202.502C156.429 204.925 155.362 206.835 153.75 208.52C153.467 208.816 153.222 209.164 153.023 209.523C152.637 210.222 152.299 210.935 151.745 211.542C151.369 211.954 151.128 212.5 150.876 213.011C150.672 213.423 150.603 213.861 150.715 214.342C150.911 215.191 150.845 216.083 151.17 216.921C151.267 217.171 151.144 217.513 151.103 217.81C151.019 218.412 150.942 219.016 150.824 219.61C150.751 219.977 150.668 220.367 150.478 220.679C150.179 221.173 150.074 221.669 150.236 222.207C150.368 222.646 150.28 223.028 150.075 223.413C149.859 223.817 149.691 224.249 149.444 224.631C149.088 225.184 148.75 225.699 148.943 226.428C149.004 226.66 148.788 226.996 148.633 227.244C148.517 227.429 148.24 227.516 148.134 227.704C147.487 228.845 146.347 228.883 145.266 228.955C144.547 229.003 143.949 229.212 143.356 229.603C142.887 229.912 142.357 230.17 141.818 230.328C140.984 230.571 140.298 231.039 139.671 231.589C138.794 232.359 138.305 233.257 138.63 234.524C138.864 235.434 139.015 236.387 138.941 237.353C138.907 237.793 138.808 238.176 138.476 238.478C137.776 239.117 137.388 239.94 137.121 240.824C137.029 241.129 136.92 241.396 136.639 241.566C135.945 241.986 135.61 242.663 135.315 243.379C134.81 244.611 134.29 245.837 133.77 247.063C133.476 247.755 132.927 248.274 132.353 248.683C131.316 249.421 130.879 250.495 130.453 251.594C130.248 252.125 130.103 252.682 129.966 253.236C129.829 253.789 129.566 254.202 129.015 254.432C128.348 254.709 127.709 255.058 127.04 255.33C126.13 255.701 125.494 256.305 125.283 257.28C125.16 257.85 124.919 258.348 124.613 258.842C124.234 259.453 123.936 260.101 123.782 260.832C123.67 261.369 123.354 261.882 123.047 262.353C122.803 262.727 122.6 263.093 122.747 263.518C122.96 264.133 122.742 264.633 122.452 265.141C122.302 265.403 122.125 265.667 122.049 265.953C121.838 266.744 122.321 267.941 123.055 268.324C123.561 268.587 123.984 268.855 124.031 269.47C124.078 270.092 123.815 270.59 123.337 270.961C122.951 271.262 122.767 271.636 122.671 272.111C122.591 272.511 122.416 272.903 122.226 273.268C121.912 273.871 121.919 274.439 122.317 274.986C122.562 275.323 122.794 275.69 123.108 275.953C123.649 276.406 124.064 276.914 124.295 277.591C124.39 277.867 124.575 278.151 124.798 278.335C125.885 279.235 126.974 280.15 128.479 280.254C128.884 280.282 129.218 280.421 129.421 280.798C129.609 281.147 129.45 281.57 129.067 281.574C128.234 281.584 127.384 281.612 126.57 281.469C125.862 281.345 125.174 281.091 124.443 281.08C124.008 281.073 123.718 280.893 123.605 280.458C123.419 279.741 122.913 279.29 122.307 278.932C121.762 278.61 121.185 278.436 120.564 278.704C119.462 279.179 118.597 278.604 117.87 277.948C117.202 277.346 116.66 276.577 116.169 275.813C115.7 275.081 115.368 274.26 114.978 273.477C114.86 273.238 114.777 272.979 114.632 272.759C113.815 271.522 113.451 270.145 113.28 268.691C113.237 268.328 113.089 267.948 112.892 267.638C112.431 266.908 112.211 266.136 112.144 265.274C112.018 263.643 111.443 262.127 110.454 260.848C109.437 259.534 108.889 258.094 108.705 256.476C108.575 255.334 108.272 254.238 107.758 253.208C107.511 252.714 107.446 252.227 107.544 251.667C107.787 250.282 107.959 248.886 108.158 247.494C108.19 247.269 108.266 247.033 108.229 246.818C107.95 245.211 107.931 243.557 107.318 242.009C106.893 240.936 106.866 239.774 106.693 238.648C106.631 238.248 106.697 237.804 106.804 237.407C107.069 236.426 107.007 235.458 106.845 234.475C106.747 233.877 106.666 233.265 106.681 232.663C106.712 231.443 106.735 230.231 106.474 229.027C106.411 228.734 106.441 228.419 106.44 228.114C106.436 227.046 106.426 225.979 106.44 224.911C106.448 224.257 106.402 223.619 106.167 222.999C106.086 222.788 106.021 222.56 106.004 222.336C105.908 221.046 105.207 220.152 104.173 219.466C103.95 219.318 103.689 219.204 103.516 219.012C102.391 217.76 100.822 217.33 99.3418 216.748C98.8233 216.544 98.4159 216.284 98.0992 215.811C97.7629 215.308 97.3474 214.855 96.9413 214.403C96.5038 213.915 96.0921 213.429 96.0613 212.726C96.055 212.588 95.9344 212.453 95.8564 212.323C95.1524 211.146 94.4579 209.964 93.7356 208.799C93.4163 208.284 93.0555 207.793 92.6859 207.313C92.0787 206.523 91.5507 205.709 91.283 204.724C90.9995 203.681 90.447 202.767 89.6524 202.015C89.5142 201.885 89.3809 201.741 89.2225 201.64C87.8353 200.751 87.8812 199.359 87.9572 197.976C87.9698 197.744 88.2049 197.521 88.3425 197.298C88.5613 196.945 88.8121 196.608 88.9987 196.239C89.2156 195.811 89.1571 195.392 88.9698 194.928C88.1873 192.986 88.4795 191.129 89.5311 189.36C89.589 189.263 89.6569 189.157 89.7467 189.096C90.557 188.55 91.034 187.71 91.6375 186.981C91.8066 186.776 91.9719 186.557 92.1793 186.397C93.2403 185.578 93.7765 184.501 93.8613 183.171C93.8997 182.566 94.0229 181.965 94.07 181.36C94.1304 180.576 93.8953 179.858 93.5282 179.171C93.1925 178.543 92.7218 177.97 92.7444 177.188C92.7482 177.057 92.5363 176.885 92.3861 176.795C92.0724 176.607 92.0165 176.33 92.041 176.01C92.0636 175.713 92.2069 175.477 92.52 175.467C92.9348 175.454 93.3685 175.434 93.7645 175.534C94.3372 175.68 94.7998 175.544 95.2769 175.245C95.9733 174.807 96.5849 174.323 96.7609 173.454C96.8571 172.978 97.1764 172.671 97.5724 172.399C98.2695 171.92 98.9653 171.532 99.8485 171.441C100.726 171.351 101.537 170.979 102.111 170.248C102.33 169.97 102.625 169.893 102.926 169.946C103.925 170.122 104.953 170.112 105.862 170.742C106.635 171.278 107.562 171.578 108.34 172.134C108.552 172.285 108.818 172.383 109.074 172.445C110.07 172.687 111.075 172.884 112.033 173.268C112.496 173.454 112.961 173.273 113.349 173.05C113.872 172.749 114.413 172.7 114.991 172.66C115.555 172.621 116.11 172.447 116.673 172.361C117.006 172.309 117.375 172.219 117.68 172.309C118.667 172.599 118.897 172.895 118.729 173.864C118.484 175.284 118.804 175.949 120.081 176.487C120.754 176.77 121.277 177.19 121.576 177.824C121.984 178.687 122.694 179.261 123.371 179.868C123.912 180.354 124.625 180.465 125.301 180.439C126.627 180.389 127.861 180.721 129.112 181.08C129.664 181.239 130.062 181.527 130.43 181.923C130.688 182.2 130.927 182.525 131.244 182.711C131.958 183.132 132.308 183.778 132.538 184.522C132.628 184.811 132.703 185.109 132.753 185.409C132.848 185.981 133.061 186.496 133.363 186.996C133.656 187.48 133.868 188.013 134.107 188.529C134.251 188.839 134.374 189.16 134.517 189.472C134.735 189.947 135.112 190.245 135.59 190.445C137.382 191.191 139.172 191.944 140.958 192.707C141.378 192.886 141.778 193.111 142.188 193.315C143.174 193.807 144.153 194.314 145.149 194.786C145.919 195.152 146.728 195.301 147.589 195.139C148.828 194.906 149.811 195.466 150.697 196.24C151.098 196.59 151.47 196.977 151.832 197.37C152.423 198.008 153.138 198.39 153.984 198.587C155.297 198.893 155.621 198.766 156.152 200.702C156.313 201.279 156.317 201.9 156.392 202.502Z" fill="#FBA2B0"/>
<path d="M418.503 216.2C418.519 216.291 418.561 216.553 418.612 216.813C418.827 217.891 419.088 218.964 418.958 220.079C418.945 220.189 419.001 220.305 419.001 220.417C418.997 221.348 419.189 222.16 420.21 222.492C420.87 223.159 421.738 223.667 421.912 224.707C422.901 226.379 423.606 228.207 424.736 229.8C425.219 230.481 425.697 231.167 426.177 231.85C426.786 232.719 426.761 233.632 426.351 234.563C425.967 235.434 425.556 236.29 425.407 237.248C425.361 237.539 425.183 237.812 425.048 238.085C424.337 239.518 423.62 240.948 422.902 242.377C422.817 242.547 422.751 242.762 422.609 242.862C421.604 243.561 420.975 244.641 419.968 245.361C419.017 246.042 418.219 246.938 417.37 247.756C417.212 247.908 417.107 248.128 417.015 248.333C416.808 248.796 416.509 249.172 416.118 249.497C415.859 249.712 415.635 249.982 415.435 250.256C414.896 250.992 414.383 251.747 413.847 252.486C413.715 252.667 413.564 252.857 413.377 252.972C412.764 253.348 412.14 253.71 411.501 254.04C411.203 254.195 410.867 254.316 410.535 254.359C409.696 254.469 408.884 254.644 408.133 255.047C407.82 255.215 407.501 255.251 407.14 255.185C406.694 255.104 406.233 255.067 405.779 255.076C404.659 255.097 403.583 254.886 402.523 254.553C402.05 254.405 401.574 254.27 401.1 254.127C400.227 253.864 399.95 253.505 399.856 252.571C399.807 252.081 399.719 251.595 399.66 251.105C399.595 250.571 399.293 250.168 398.877 249.892C398.311 249.518 397.698 249.217 397.1 248.892C396.835 248.748 396.556 248.629 396.286 248.492C395.713 248.2 395.451 247.73 395.509 247.091C395.569 246.419 395.323 245.827 395.092 245.216C394.883 244.662 394.505 244.339 393.978 244.153C393.368 243.938 392.771 243.728 392.237 243.322C391.849 243.027 391.351 242.969 390.82 243.069C389.699 243.28 388.575 243.437 387.501 243.872C386.763 244.172 385.974 244.346 385.157 244.319C384.491 244.296 383.891 244.548 383.294 244.809C382.737 245.052 382.157 245.242 381.612 245.51C381.137 245.744 380.669 246.015 380.25 246.336C379.515 246.896 378.718 247.155 377.797 247.062C376.672 246.949 375.599 247.178 374.557 247.591C374.238 247.717 373.911 247.853 373.577 247.9C372.877 247.995 372.288 248.255 371.72 248.694C370.806 249.402 369.551 249.278 368.678 248.493C368.451 248.289 368.235 248.072 368.03 247.848C367.615 247.396 367.593 246.995 367.948 246.528C368.017 246.438 368.101 246.352 368.194 246.291C369.096 245.705 369.35 244.708 369.734 243.809C369.875 243.48 369.91 243.041 369.827 242.691C369.561 241.557 369.634 240.413 369.653 239.274C369.673 238.116 369.474 237.005 369.172 235.896C369.003 235.274 368.877 234.635 368.799 233.996C368.764 233.713 368.866 233.4 368.958 233.118C369.194 232.395 369.444 231.678 369.718 230.969C369.867 230.583 370.025 230.183 370.267 229.856C370.627 229.371 370.815 228.859 370.786 228.264C370.752 227.572 371.035 227.147 371.704 226.865C372.538 226.513 373.36 226.117 374.022 225.443C374.271 225.19 374.675 225.053 375.032 224.953C375.954 224.694 376.818 224.323 377.675 223.897C378.275 223.599 378.971 223.447 379.642 223.345C381.792 223.015 383.105 221.66 383.918 219.794C384.335 218.838 384.837 218.062 385.773 217.581C385.999 217.465 386.194 217.257 386.356 217.053C387.149 216.056 388.075 215.227 389.236 214.679C389.373 214.614 389.515 214.538 389.62 214.432C390.267 213.784 391.173 213.68 391.952 213.31C392.229 213.178 392.487 213.283 392.681 213.486C393.114 213.936 393.644 214.229 394.201 214.484C394.834 214.775 394.878 214.759 395.317 214.159C395.856 213.422 396.375 212.669 396.946 211.958C397.326 211.485 397.767 211.057 398.209 210.64C398.623 210.249 399.096 209.92 399.503 209.523C399.976 209.063 400.502 208.949 401.068 209.242C402.001 209.724 402.993 209.948 404.023 210.056C404.476 210.104 404.928 210.162 405.38 210.217C405.644 210.249 405.918 210.25 406.168 210.328C406.651 210.478 406.893 210.949 406.721 211.415C406.379 212.341 406.062 213.283 405.634 214.169C405.305 214.85 405.431 215.422 405.781 216C406.147 216.603 406.707 217.003 407.295 217.364C407.944 217.763 408.587 218.174 409.255 218.537C409.685 218.77 410.142 218.981 410.613 219.102C411.044 219.214 411.332 219.004 411.506 218.58C411.608 218.334 411.669 218.073 411.745 217.817C411.842 217.488 411.882 217.13 412.039 216.834C412.621 215.741 412.834 214.541 413.156 213.366C413.478 212.194 413.937 211.061 414.34 209.912C414.39 209.769 414.458 209.629 414.538 209.501C414.813 209.059 415.36 209.008 415.688 209.414C415.827 209.586 415.915 209.808 415.992 210.02C416.376 211.055 416.727 212.102 417.131 213.129C417.382 213.764 417.668 214.388 418.148 214.905C418.521 215.305 418.5 215.324 418.503 216.2Z" fill="#FBA2B0"/>
<path d="M152.277 82.7634C152.078 81.8256 152.621 81.1235 153.08 80.4446C153.571 79.7186 154.343 79.3704 155.225 79.2925C155.412 79.2761 155.607 79.2422 155.777 79.1667C156.264 78.9511 156.372 78.5023 156.084 78.0397C155.743 77.491 155.438 76.919 155.073 76.3872C154.666 75.7951 154.665 75.1741 154.842 74.5279C154.963 74.0873 155.135 73.6605 155.26 73.2211C155.711 71.6541 154.78 70.0494 153.188 69.7156C152.221 69.5126 151.241 69.3542 150.259 69.2561C149.739 69.2039 149.199 69.3026 148.673 69.3711C147.641 69.505 146.618 69.5547 145.638 69.1216C144.914 68.8017 144.521 68.2196 144.443 67.4427C144.377 66.7758 144.541 66.5086 145.185 66.3653C145.888 66.2088 146.611 66.1428 147.323 66.0234C148.593 65.8116 149.916 65.9241 151.138 65.4218C151.416 65.3081 151.757 65.21 151.925 64.9938C152.345 64.452 152.927 64.281 153.527 64.2389C154.262 64.1873 154.944 63.9742 155.645 63.7957C156.492 63.5795 157.357 63.4349 158.212 63.2508C158.472 63.1948 158.737 63.137 158.982 63.0371C159.882 62.67 160.813 62.5248 161.779 62.5927C162.78 62.6631 163.756 62.4933 164.721 62.2633C165.365 62.1099 166.001 62.0917 166.644 62.2495C167.284 62.4066 167.925 62.3789 168.573 62.2828C169.098 62.2048 169.632 62.1281 170.159 62.1432C171.54 62.1822 172.892 62.0112 174.238 61.7246C176.145 61.3185 178.073 61.1256 180.025 61.2199C180.177 61.2274 180.341 61.1941 180.48 61.2387C181.511 61.5737 182.512 61.2595 183.522 61.1174C183.936 61.0589 184.352 61.0024 184.769 60.9936C185.645 60.9747 186.524 61.0156 187.399 60.9816C189.238 60.91 191.047 61.0558 192.834 61.5197C193.641 61.729 194.459 61.8692 195.254 62.1539C196.111 62.4607 197.019 62.6147 197.947 62.5952C198.785 62.5776 199.626 62.5619 200.463 62.6046C200.91 62.6272 201.351 62.7705 201.791 62.8736C201.84 62.8849 201.895 62.9918 201.893 63.0534C201.892 63.1137 201.836 63.208 201.782 63.2275C201.105 63.4745 200.44 63.8127 199.74 63.9258C198.562 64.1163 197.43 64.3765 196.387 64.9806C196.06 65.1698 195.689 65.2836 195.335 65.4225C194.587 65.7154 194.124 66.2528 194.119 67.0567C194.114 67.7777 193.959 68.3962 193.465 68.9412C193.295 69.1285 193.222 69.4145 193.14 69.6666C192.85 70.5642 192.199 71.2462 191.572 71.8596C190.998 72.4216 190.143 72.6981 189.406 73.0879C189.207 73.1928 188.959 73.2155 188.776 73.3393C188.294 73.6649 188.07 74.1162 188.196 74.7171C188.273 75.088 188.352 75.4664 188.36 75.8429C188.385 76.9957 187.798 77.6324 186.674 77.936C185.723 78.1931 184.787 78.5331 183.884 78.926C182.965 79.3245 182.027 79.6017 181.044 79.7595C180.368 79.8682 179.7 80.0298 179.026 80.1492C178.39 80.2611 177.744 80.3158 177.115 80.4572C176.603 80.5728 176.103 80.757 175.614 80.9544C175.373 81.0518 175.152 81.2266 174.955 81.4032C173.572 82.6478 171.865 83.1808 170.107 83.5611C169.256 83.7446 168.376 83.8075 167.505 83.8697C166.257 83.9589 165.342 84.5265 164.769 85.636C164.287 86.5669 163.652 87.3551 162.754 87.9227C162.569 88.039 162.414 88.2364 162.303 88.43C161.649 89.5777 160.65 90.4194 159.735 91.3321C159.082 91.9833 158.325 91.9939 157.604 91.3981C157.43 91.2541 157.304 91.0549 157.144 90.8914C156.656 90.3917 156.083 90.2075 155.377 90.3383C154.311 90.5363 154.306 90.5143 153.793 89.5545C153.578 89.1522 153.347 88.7568 153.161 88.3413C152.639 87.1791 152.507 85.937 152.439 84.6812C152.404 84.0407 152.332 83.4027 152.277 82.7634Z" fill="#FBA2B0"/>
<path d="M401.921 191.213C403.097 191.245 403.898 191.832 404.238 193.015C404.398 193.573 404.606 194.083 405.057 194.488C405.392 194.789 405.706 194.835 406.089 194.622C406.92 194.161 407.78 193.749 408.578 193.239C409.052 192.937 409.463 192.911 409.966 193.097C412.319 193.966 414.653 194.9 417.048 195.637C418.207 195.993 419.01 196.759 419.888 197.447C420.507 197.932 420.973 198.611 421.504 199.206C421.858 199.604 422.201 199.974 422.748 200.162C423.912 200.562 424.298 201.226 424.024 202.465C423.872 203.156 424.016 203.742 424.279 204.341C424.454 204.739 424.713 205.078 425.169 205.155C425.748 205.253 426.111 205.642 426.437 206.063C426.833 206.574 427.193 207.114 427.557 207.649C427.684 207.834 427.651 208.011 427.436 208.121C427.117 208.283 426.791 208.349 426.452 208.172C426.249 208.066 426.027 207.987 425.846 207.852C425.425 207.539 424.954 207.419 424.446 207.472C423.222 207.601 422.408 207.028 421.839 206.004C421.71 205.77 421.56 205.55 421.433 205.315C420.937 204.394 420.122 203.857 419.193 203.462C418.754 203.276 418.343 203.398 418.048 203.732C417.697 204.128 417.365 204.556 417.107 205.016C416.678 205.787 416.072 206.089 415.212 205.928C414.989 205.886 414.757 205.858 414.531 205.871C413.956 205.904 413.505 205.701 413.109 205.284C412.36 204.495 411.433 204.305 410.389 204.539C410.059 204.613 409.717 204.672 409.38 204.67C409.02 204.667 408.835 204.394 408.917 204.039C408.984 203.743 409.108 203.461 409.181 203.165C409.291 202.724 409.404 202.28 409.468 201.831C409.65 200.543 409.043 199.611 408 198.98C407.389 198.61 406.678 198.406 406.011 198.13C405.592 197.957 405.158 197.815 404.755 197.612C404.086 197.275 403.464 197.039 402.714 197.487C402.23 197.776 401.904 197.549 401.693 196.966C401.616 196.752 401.598 196.494 401.464 196.326C401.017 195.766 400.786 195.191 400.954 194.446C401.039 194.069 400.786 193.709 400.453 193.476C400.141 193.259 399.807 193.075 399.494 192.86C399.341 192.755 399.175 192.635 399.088 192.481C399.033 192.383 399.096 192.091 399.13 192.087C400.116 191.966 400.885 191.186 401.921 191.213Z" fill="#FBA2B0"/>
<path d="M375.725 197.377C375.362 197.261 375.033 197.165 374.711 197.05C374.209 196.87 373.714 196.67 373.212 196.491C373.034 196.427 372.821 196.323 372.662 196.368C371.853 196.596 371.18 196.315 370.502 195.921C370.287 195.796 369.986 195.807 369.722 195.782C369.28 195.74 369.042 195.505 368.95 195.075C368.787 194.32 368.46 193.654 367.997 193.022C367.716 192.638 367.569 192.12 367.479 191.641C367.317 190.784 367.143 189.908 367.156 189.044C367.17 188.094 367.599 187.294 368.557 186.882C368.973 186.703 369.363 186.461 369.766 186.25C370.303 185.967 370.848 185.699 371.378 185.403C372.273 184.904 373.189 184.437 373.795 183.545C374.093 183.107 374.477 182.752 374.954 182.467C376.114 181.774 377.047 180.822 377.783 179.688C378.536 178.525 378.834 178.556 379.538 179.632C379.816 180.058 380.191 180.372 380.652 180.587C380.791 180.652 380.928 180.72 381.06 180.794C382.369 181.526 382.187 181.696 381.464 182.917C381.388 183.044 381.268 183.153 381.151 183.249C380.151 184.073 380.251 185.101 380.626 186.163C380.93 187.022 381.281 187.864 381.589 188.721C381.63 188.834 381.579 189.027 381.5 189.127C381.36 189.303 381.164 189.435 380.996 189.59C380.486 190.061 380.025 190.56 379.916 191.291C379.861 191.656 379.614 191.896 379.316 192.09C379.124 192.214 378.946 192.364 378.745 192.47C378.187 192.766 378.019 193.245 378.145 193.818C378.316 194.6 378.075 195.324 377.92 196.067C377.834 196.479 377.619 196.771 377.232 196.908C376.732 197.084 376.22 197.225 375.725 197.377Z" fill="#FBA2B0"/>
<path d="M367.708 201.543C368.059 201.504 368.314 201.538 368.507 201.444C369.449 200.986 370.372 201.238 371.28 201.506C371.876 201.682 372.467 201.773 373.08 201.746C373.614 201.722 374.024 201.879 374.334 202.362C374.667 202.88 375.127 203.285 375.753 203.453C375.861 203.482 375.962 203.546 376.058 203.606C376.298 203.753 376.468 203.948 376.447 204.253C376.422 204.596 376.165 204.657 375.894 204.723C375.223 204.886 374.569 205.015 373.878 204.741C373.581 204.622 373.209 204.636 372.878 204.667C371.33 204.811 369.845 204.639 368.449 203.9C367.732 203.519 366.971 203.315 366.145 203.342C365.166 203.372 364.296 202.989 363.454 202.54C363.287 202.45 363.137 202.303 362.961 202.262C361.676 201.963 360.866 201.079 360.192 200.033C359.65 199.193 359.013 198.448 358.205 197.85C358.026 197.717 357.854 197.549 357.739 197.361C357.159 196.415 356.444 195.583 355.699 194.767C355.424 194.465 355.187 194.097 355.04 193.717C354.774 193.034 354.402 192.433 353.976 191.839C353.224 190.789 352.51 189.71 352.017 188.497C351.747 187.832 351.444 187.168 350.767 186.767C350.594 186.665 350.471 186.419 350.4 186.213C350.205 185.651 349.825 185.235 349.414 184.832C348.788 184.219 348.163 183.604 347.558 182.97C347.352 182.755 347.143 182.504 347.049 182.23C346.8 181.509 347.138 181.145 347.887 181.259C348.262 181.316 348.644 181.335 349.018 181.399C349.95 181.56 350.757 181.911 351.256 182.797C351.416 183.082 351.703 183.299 351.945 183.533C352.408 183.98 352.892 184.407 353.349 184.86C354.644 186.146 355.993 187.366 357.462 188.453C358.194 188.994 358.876 189.605 359.572 190.194C360.105 190.645 360.497 191.193 360.704 191.873C360.837 192.31 361.023 192.729 361.169 193.163C361.318 193.606 361.539 193.975 361.94 194.257C362.638 194.749 362.83 195.457 362.652 196.272C362.477 197.072 362.564 197.848 362.733 198.644C362.999 199.901 363.834 200.544 364.989 200.777C365.593 200.898 366.162 201.048 366.723 201.297C367.062 201.448 367.451 201.482 367.708 201.543Z" fill="#FBA2B0"/>
<path d="M280.619 215.699C280.669 216.335 280.497 216.907 280.194 217.455C279.992 217.821 279.824 218.207 279.628 218.577C279.394 219.021 279.252 219.478 279.22 219.988C279.194 220.399 279.094 220.817 278.956 221.207C278.535 222.387 278.068 223.551 277.641 224.729C277.136 226.125 276.666 227.533 276.158 228.927C275.833 229.821 275.456 230.694 275.125 231.586C274.935 232.098 274.565 232.388 274.075 232.553C273.823 232.638 273.546 232.66 273.308 232.77C272.656 233.075 272.073 233.174 271.369 232.769C270.585 232.317 270.02 231.767 269.888 230.877C269.748 229.938 269.379 229.049 269.383 228.075C269.385 227.274 269.569 226.556 270.066 225.949C270.564 225.343 270.782 224.609 271.085 223.919C271.351 223.314 271.224 222.651 271.15 222.004C271.069 221.288 270.99 220.564 271.016 219.848C271.068 218.435 271.891 217.389 273.263 217.047C274.9 216.64 276 215.636 276.789 214.2C277.339 213.201 277.93 212.224 278.502 211.237C278.541 211.171 278.579 211.105 278.623 211.043C278.851 210.728 279.156 210.71 279.366 211.013C279.494 211.199 279.603 211.403 279.699 211.61C280.298 212.908 280.492 214.297 280.619 215.699Z" fill="#FBA2B0"/>
<path d="M395.345 115.264C395.415 115.284 395.606 115.314 395.777 115.389C396.545 115.724 397.337 116.021 398.063 116.431C398.747 116.817 399.431 117.096 400.221 117.065C400.73 117.045 401.105 117.237 401.322 117.716C401.4 117.888 401.485 118.072 401.615 118.204C402.288 118.893 402.047 119.137 401.527 119.613C401.023 120.074 400.519 120.55 399.952 120.926C399.543 121.197 399.398 121.51 399.393 121.961C399.387 122.479 399.535 122.933 399.853 123.342C400.039 123.581 400.281 123.816 400.362 124.092C400.685 125.194 401.218 126.203 401.675 127.246C401.766 127.453 401.839 127.681 401.86 127.905C401.961 129.002 402.077 130.1 402.12 131.2C402.155 132.081 401.86 132.412 401.014 132.67C400.321 132.882 399.635 133.119 398.936 133.304C398.492 133.422 398.173 133.664 397.996 134.067C397.597 134.978 396.912 135.376 395.924 135.393C395.398 135.402 394.859 135.515 394.353 135.669C393.362 135.971 392.541 136.502 392.309 137.612C392.217 138.053 391.99 138.394 391.615 138.612C391.476 138.693 391.201 138.729 391.094 138.646C390.157 137.923 389.243 137.178 388.832 135.995C388.712 135.65 388.692 135.343 388.801 134.997C389.126 133.967 389.583 132.997 390.37 132.254C390.917 131.738 391.549 131.288 392.367 131.252C393.641 131.197 394.646 130.649 395.272 129.526C395.719 128.722 396.53 128.324 397.152 127.719C397.286 127.587 397.467 127.504 397.618 127.39C398.122 127.01 398.33 126.53 398.175 125.889C397.934 124.892 397.689 123.906 397.083 123.043C396.846 122.706 396.74 122.279 396.525 121.922C396.096 121.205 395.704 120.459 395.041 119.909C394.653 119.586 394.531 119.166 394.699 118.672C394.76 118.492 394.778 118.298 394.838 118.118C395.002 117.628 394.998 117.165 394.768 116.68C394.645 116.419 394.624 116.092 394.621 115.794C394.618 115.441 394.871 115.247 395.345 115.264Z" fill="#FBA2B0"/>
<path d="M418.951 261.702C418.123 261.584 417.405 261.504 416.696 261.372C416.32 261.302 416.158 260.86 416.395 260.562C416.603 260.299 416.855 260.044 417.139 259.872C418.474 259.063 419.805 258.243 421.182 257.51C421.913 257.121 422.726 256.872 423.52 256.612C424.617 256.254 425.663 255.838 426.49 254.981C426.908 254.547 427.471 254.274 427.823 253.745C427.945 253.56 428.272 253.491 428.52 253.413C428.934 253.284 429.287 253.093 429.525 252.712C429.875 252.152 430.41 251.921 431.048 251.825C431.685 251.729 432.318 251.599 432.866 251.203C433.273 250.908 433.673 250.621 433.845 250.124C433.994 249.692 434.307 249.453 434.721 249.289C435.423 249.012 435.917 248.495 436.281 247.845C436.651 247.184 437.049 246.548 437.155 245.759C437.227 245.221 437.256 244.715 437.145 244.18C436.998 243.469 436.936 242.743 437.264 242.051C437.438 241.685 437.714 241.636 437.972 241.931C438.272 242.273 438.595 242.599 438.853 242.971C438.994 243.175 439.033 243.454 439.1 243.704C439.275 244.364 439.425 245.031 439.615 245.686C439.769 246.216 440.158 246.486 440.702 246.563C441.038 246.61 441.378 246.664 441.698 246.773C441.973 246.867 442.058 247.157 441.962 247.44C441.846 247.779 441.621 248.015 441.323 248.215C440.884 248.51 440.474 248.85 440.053 249.171C439.902 249.286 439.767 249.433 439.599 249.515C438.724 249.941 438.023 250.564 437.423 251.326C436.968 251.904 436.342 252.289 435.697 252.62C434.783 253.088 433.858 253.537 432.827 253.709C432.571 253.752 432.3 253.855 432.095 254.009C430.876 254.92 429.62 255.792 428.488 256.803C427.831 257.389 427.09 257.727 426.311 257.981C425.073 258.386 423.902 258.871 422.881 259.704C421.964 260.451 420.981 261.11 419.835 261.469C419.512 261.57 419.179 261.643 418.951 261.702Z" fill="#FBA2B0"/>
<path d="M204.987 94.1825C205.281 94.2007 205.758 94.0782 206.051 94.4484C206.469 94.9783 207.017 95.4422 207.108 96.1757C207.122 96.2888 207.144 96.4058 207.13 96.517C206.977 97.7723 207.514 98.8157 208.141 99.8321C208.201 99.9289 208.239 100.061 208.325 100.117C208.982 100.546 209.202 101.229 209.417 101.923C209.594 102.498 209.924 102.879 210.548 103.081C211.339 103.336 211.435 103.828 210.915 104.46C210.631 104.805 210.227 105.059 210.212 105.591C210.208 105.724 209.989 105.89 209.833 105.973C209.224 106.297 208.581 106.499 207.877 106.541C207.044 106.591 206.206 106.665 205.39 106.825C204.917 106.918 204.48 107.198 204.03 107.401C203.646 107.574 203.243 107.807 202.851 107.498C202.414 107.154 202.661 106.699 202.835 106.35C203.221 105.58 203.253 104.734 203.443 103.925C203.613 103.197 203.87 102.688 204.739 102.583C205.503 102.491 205.697 101.957 205.387 101.226C205.217 100.825 204.952 100.5 204.551 100.327C203.753 99.9823 203.253 99.2796 202.627 98.7315C202.456 98.5812 202.392 98.2688 202.35 98.0193C202.27 97.534 202.238 97.04 202.191 96.5491C202.179 96.4359 202.162 96.3171 202.185 96.209C202.344 95.4937 202.943 95.0845 203.368 94.5584C203.622 94.2441 204.02 94.1882 204.411 94.1831C204.564 94.1806 204.716 94.1825 204.987 94.1825Z" fill="#FBA2B0"/>
<path d="M382.472 198.827C382.504 198.675 382.56 198.414 382.615 198.153C382.753 197.499 382.569 196.972 382.066 196.514C381.459 195.96 381.374 195.504 381.769 194.806C382.039 194.329 382.23 193.856 382.257 193.305C382.268 193.083 382.384 192.869 382.432 192.647C382.525 192.205 382.659 191.762 382.679 191.314C382.729 190.212 383.038 189.294 384.147 188.828C384.248 188.785 384.344 188.705 384.415 188.619C384.765 188.194 385.2 188.221 385.666 188.357C386.513 188.603 387.371 188.719 388.259 188.714C388.969 188.709 389.537 188.551 389.872 187.879C389.888 187.846 389.913 187.815 389.939 187.786C390.119 187.59 390.294 187.343 390.606 187.492C390.908 187.634 390.898 187.915 390.817 188.185C390.653 188.732 390.472 189.244 389.993 189.648C389.417 190.134 388.903 190.701 388.821 191.535C388.777 191.983 388.45 192.305 388.059 192.474C387.543 192.698 387.12 192.98 386.932 193.53C386.726 194.135 386.809 194.726 386.989 195.325C387.286 196.31 387.556 197.303 387.825 198.296C387.884 198.514 387.919 198.747 387.911 198.971C387.896 199.402 387.488 199.637 387.092 199.46C386.989 199.414 386.87 199.369 386.799 199.286C386.356 198.769 385.714 198.778 385.129 198.64C384.627 198.522 384.234 198.731 383.925 199.111C383.782 199.287 383.684 199.501 383.536 199.673C383.341 199.9 383.076 199.93 382.804 199.832C382.554 199.742 382.494 199.517 382.474 199.281C382.464 199.169 382.472 199.054 382.472 198.827Z" fill="#FBA2B0"/>
<path d="M186.126 82.5276C186.39 82.5899 186.689 82.6508 186.982 82.7307C188.107 83.0374 189.229 83.0179 190.375 82.8155C191.308 82.6508 192.24 82.4271 193.206 82.5075C194.005 82.5741 194.683 82.8532 195.183 83.5007C195.525 83.9425 195.546 84.3473 195.148 84.7251C194.882 84.9778 194.541 85.1896 194.195 85.3109C193.408 85.5881 192.605 85.827 191.794 86.0262C191.189 86.1752 190.66 86.46 190.135 86.7686C189.715 87.015 189.304 87.0232 188.823 86.8987C187.979 86.6806 187.114 86.536 186.251 86.4072C185.701 86.3248 185.319 86.0847 185.162 85.5479C184.982 84.9332 184.545 84.5089 184.123 84.067C183.982 83.9199 183.884 83.7005 184.085 83.5717C184.625 83.2228 185.191 82.9117 185.753 82.5974C185.848 82.5452 185.976 82.554 186.126 82.5276Z" fill="#FBA2B0"/>
<path d="M379.102 161.126C380.345 161.017 380.919 161.568 381.138 162.836C381.285 163.686 381.087 164.506 380.613 165.23C380.039 166.106 380.226 166.972 380.613 167.83C380.777 168.194 381.159 168.229 381.505 168.203C382.33 168.142 383.082 168.418 383.841 168.665C384.513 168.883 384.861 169.826 384.5 170.442C384.434 170.555 384.273 170.654 384.14 170.682C383.68 170.776 383.226 170.733 382.812 170.494C382.516 170.323 382.226 170.139 381.948 169.939C381.508 169.623 381.038 169.429 380.494 169.327C378.549 168.958 377.118 167.197 377.07 165.196C377.043 164.076 377.343 163.011 377.614 161.943C377.752 161.402 378.115 161.107 378.697 161.125C378.85 161.13 379.002 161.126 379.102 161.126Z" fill="#FBA2B0"/>
<path d="M90.3967 151.792C90.8788 151.881 91.3798 151.915 91.8386 152.073C92.8795 152.432 93.9343 152.783 94.9155 153.272C95.5805 153.604 96.1487 154.144 96.7251 154.632C97.0759 154.929 97.4367 155.171 97.849 155.383C98.7252 155.834 99.5606 156.365 100.402 156.881C100.686 157.056 100.691 157.332 100.459 157.546C99.8937 158.072 99.252 158.208 98.5844 157.798C97.9879 157.432 97.4272 157.325 96.7496 157.51C96.2493 157.647 96.0639 157.523 95.9074 157.008C95.7276 156.417 95.3718 156.051 94.8394 155.753C94.3146 155.46 93.818 155.088 93.3786 154.677C92.9072 154.236 92.3673 154.029 91.7557 153.925C91.1969 153.831 90.6324 153.75 90.0862 153.605C89.286 153.394 88.5223 153.386 87.7517 153.737C87.3048 153.941 86.8233 154.075 86.3481 154.208C86.2337 154.24 86.0124 154.179 85.9666 154.094C85.9119 153.991 85.949 153.787 86.0231 153.678C86.4216 153.101 86.9597 152.636 87.6065 152.419C88.5009 152.118 89.4143 151.818 90.3967 151.792Z" fill="#FBA2B0"/>
<path d="M200.706 99.423C201.009 99.4463 201.317 99.4406 201.614 99.4984C202.039 99.582 202.386 99.8014 202.593 100.208C202.801 100.617 202.767 100.913 202.444 101.239C202.365 101.319 202.274 101.394 202.177 101.451C201.763 101.689 201.653 102.066 201.642 102.512C201.636 102.774 201.601 103.046 201.519 103.294C201.345 103.824 201.064 104.212 200.419 104.286C199.776 104.359 199.186 104.638 198.642 105.015C198.401 105.182 198.099 105.303 197.808 105.352C196.875 105.514 196.112 104.608 196.55 103.783C196.941 103.046 197.124 102.316 197.087 101.502C197.075 101.224 197.162 100.912 197.467 100.878C198.166 100.802 198.635 100.334 199.134 99.9479C199.615 99.577 200.096 99.3463 200.706 99.423Z" fill="#FBA2B0"/>
<path d="M103.804 160.825C102.82 160.653 101.659 160.458 100.502 160.238C100.386 160.216 100.299 160.041 100.199 159.938C100.302 159.845 100.394 159.728 100.514 159.666C100.609 159.616 100.739 159.643 100.851 159.622C101.225 159.551 101.6 159.483 101.971 159.398C102.42 159.295 102.523 159.08 102.313 158.654C102.213 158.451 102.049 158.281 101.943 158.082C101.876 157.957 101.802 157.784 101.84 157.668C101.917 157.435 102.143 157.516 102.327 157.531C102.631 157.555 102.935 157.582 103.24 157.592C103.653 157.605 104.069 157.632 104.481 157.601C104.955 157.565 105.376 157.612 105.773 157.919C106.004 158.097 106.317 158.17 106.59 158.295C107.074 158.516 107.562 158.731 108.038 158.969C108.288 159.094 108.452 159.305 108.44 159.608C108.427 159.948 108.177 160.041 107.907 160.109C107.649 160.173 107.39 160.277 107.129 160.285C106.437 160.305 105.777 160.413 105.125 160.674C104.787 160.811 104.376 160.767 103.804 160.825Z" fill="#FBA2B0"/>
<path d="M85.9407 117.014C86.0494 116.903 86.2135 116.75 86.4303 116.56" stroke="#171717" stroke-width="0.314284" stroke-linecap="round" stroke-linejoin="round"/>
<path d="M87.4541 115.708C95.8637 108.983 134.868 82.9571 179.485 99.0623C214.41 111.669 238.284 144.678 241.495 182.757" stroke="#171717" stroke-width="0.314284" stroke-linecap="round" stroke-linejoin="round" stroke-dasharray="1.33 1.33"/>
<path d="M241.55 183.427C241.567 183.649 241.584 183.872 241.6 184.095" stroke="#171717" stroke-width="0.314284" stroke-linecap="round" stroke-linejoin="round"/>
<path d="M128.703 215.719C138.192 189.405 160.516 170.472 186.667 166.907C215.113 163.029 237.443 180.634 241.6 183.92" stroke="#171717" stroke-width="0.314284" stroke-miterlimit="10" stroke-linecap="round" stroke-linejoin="round" stroke-dasharray="1.34 1.34"/>
<path d="M57.207 148.409C56.2497 129.861 64.8856 115.67 74.7013 113.724C76.5487 113.357 80.0284 113.5 85.9407 117.014" stroke="#171717" stroke-width="0.314284" stroke-miterlimit="10" stroke-linecap="round" stroke-linejoin="round" stroke-dasharray="1.34 1.34"/>
<path d="M241.6 183.921C235.682 176.138 202.387 136.848 143.767 130.744C103.69 126.57 68.9091 141.894 57.207 148.409" stroke="#171717" stroke-width="0.314284" stroke-miterlimit="10" stroke-linecap="round" stroke-linejoin="round" stroke-dasharray="1.34 1.34"/>
<path d="M85.9407 117.014C109.298 107.325 121.106 127.793 124.78 144.105C129.104 163.306 128.703 174.167 128.181 216.089" stroke="#171717" stroke-width="0.314284" stroke-miterlimit="10" stroke-linecap="round" stroke-linejoin="round" stroke-dasharray="1.34 1.34"/>
<path d="M234.893 78.6468C244.827 51.2928 273.432 35.2523 300.732 40.2463C330.312 45.6577 350.84 75.0344 346.943 106.446" stroke="#171717" stroke-width="0.314284" stroke-miterlimit="10" stroke-linecap="round" stroke-linejoin="round" stroke-dasharray="1.34 1.34"/>
<path d="M354.917 166.557C348.487 135.241 318.393 114.415 288.727 121.009C260.962 127.181 237.436 154.358 241.6 183.92" stroke="#171717" stroke-width="0.314284" stroke-miterlimit="10" stroke-linecap="round" stroke-linejoin="round" stroke-dasharray="1.34 1.34"/>
<path d="M234.893 78.8217C260.302 60.3355 297.5 58.0111 323.469 73.4871C353.023 91.0989 365.169 131.233 354.917 165.921" stroke="#171717" stroke-width="0.314284" stroke-miterlimit="10" stroke-linecap="round" stroke-linejoin="round" stroke-dasharray="1.34 1.34"/>
<path d="M399.961 127.307C399.884 116.738 392.558 105.682 383.712 101.049C372.575 95.2161 355.87 94.7981 346.942 105.392" stroke="#171717" stroke-width="0.314284" stroke-miterlimit="10" stroke-linecap="round" stroke-linejoin="round" stroke-dasharray="1.34 1.34"/>
<path d="M354.917 166.557C350.813 150.077 360.399 134.105 372.647 127.978C383.501 122.549 397.623 126.374 399.961 127.307" stroke="#171717" stroke-width="0.314284" stroke-miterlimit="10" stroke-linecap="round" stroke-linejoin="round" stroke-dasharray="1.34 1.34"/>
<path d="M388.73 241.711C389.75 233.974 396.675 215.662 385.056 193.849C376.826 178.399 361.233 170.625 354.822 166.167" stroke="#171717" stroke-width="0.314284" stroke-miterlimit="10" stroke-linecap="round" stroke-linejoin="round" stroke-dasharray="1.34 1.34"/>
<path d="M414.947 199.745C410.817 196.735 404.927 199.443 402.1 203.034C393.454 214.015 391.634 233.4 389.252 241.711" stroke="#171717" stroke-width="0.314284" stroke-miterlimit="10" stroke-linecap="round" stroke-linejoin="round" stroke-dasharray="1.34 1.34"/>
<path d="M234.893 78.8217C240.16 89.166 249.814 109.094 251.747 132.618C253.666 155.973 245.074 172.874 241.6 183.921" stroke="#171717" stroke-width="0.314284" stroke-miterlimit="10" stroke-linecap="round" stroke-linejoin="round" stroke-dasharray="1.34 1.34"/>
<path d="M85.9407 117.014C90.4023 107.498 101.182 83.26 126.748 69.7244C176.649 43.3044 232.404 76.3853 234.88 77.9656" stroke="#171717" stroke-width="0.314284" stroke-miterlimit="10" stroke-linecap="round" stroke-linejoin="round" stroke-dasharray="1.34 1.34"/>
<path d="M334.57 75.3606C334.57 77.9696 335.432 80.3724 336.892 82.3382C340.282 86.9037 343.413 91.6442 345.332 96.9466L346.052 98.9361C346.412 99.9317 347.87 99.9317 348.23 98.9361L348.956 96.9306C350.811 91.8064 353.57 87.0415 357.049 82.7768C359.27 80.0538 360.304 76.3968 359.368 72.4846C358.281 67.9394 354.344 64.3171 349.596 63.4499C341.576 61.987 334.57 67.8845 334.57 75.3606ZM342.45 75.3606C342.45 72.8598 344.551 70.8323 347.142 70.8323C349.733 70.8323 351.834 72.8598 351.834 75.3606C351.834 77.8614 349.733 79.889 347.142 79.889C344.55 79.889 342.45 77.8614 342.45 75.3606Z" fill="#E01236"/>
<path d="M73.0854 84.5784C73.0854 87.2774 73.9479 89.7621 75.4076 91.7966C78.7979 96.5196 81.9283 101.424 83.8476 106.909L84.5674 108.968C84.9272 109.997 86.386 109.997 86.7459 108.968L87.4718 106.892C89.3263 101.591 92.0854 96.6621 95.5642 92.2504C97.7856 89.4334 98.8189 85.6503 97.8837 81.604C96.7962 76.902 92.8603 73.1548 88.111 72.2577C80.0903 70.7434 73.0854 76.8443 73.0854 84.5784ZM80.9651 84.5784C80.9651 81.9913 83.0657 79.8939 85.6566 79.8939C88.2476 79.8939 90.3482 81.9913 90.3482 84.5784C90.3482 87.1655 88.2476 89.2629 85.6566 89.2629C83.0657 89.2638 80.9651 87.1655 80.9651 84.5784Z" fill="#E01236"/>
<path d="M228.97 153.304C228.97 155.913 229.833 158.315 231.293 160.281C234.683 164.847 237.813 169.587 239.733 174.89L240.453 176.879C240.812 177.874 242.271 177.874 242.631 176.879L243.357 174.873C245.212 169.749 247.971 164.984 251.45 160.719C253.671 157.996 254.704 154.339 253.768 150.427C252.681 145.882 248.745 142.259 243.995 141.392C235.975 139.93 228.97 145.827 228.97 153.304ZM236.85 153.304C236.85 150.803 238.951 148.775 241.542 148.775C244.133 148.775 246.233 150.803 246.233 153.304C246.233 155.804 244.133 157.832 241.542 157.832C238.951 157.832 236.85 155.804 236.85 153.304Z" fill="#E01236"/>
<path d="M228.872 60.294C228.872 61.5889 229.285 62.7806 229.984 63.7562C231.607 66.0215 233.107 68.3736 234.026 71.0048L234.371 71.9923C234.543 72.4857 235.241 72.4857 235.414 71.9923L235.762 70.9967C236.65 68.4541 237.971 66.09 239.638 63.9737C240.702 62.6229 241.197 60.8082 240.748 58.8672C240.228 56.6119 238.342 54.8148 236.068 54.3842C232.227 53.6576 228.872 56.5842 228.872 60.294ZM232.646 60.294C232.646 59.0532 233.651 58.0469 234.892 58.0469C236.133 58.0469 237.139 59.0526 237.139 60.294C237.139 61.5348 236.133 62.5412 234.892 62.5412C233.652 62.5405 232.646 61.5348 232.646 60.294Z" fill="#3A1A53"/>
<path d="M122.16 197.314C122.16 198.608 122.573 199.801 123.272 200.776C124.896 203.042 126.395 205.394 127.314 208.025L127.66 209.013C127.832 209.506 128.53 209.506 128.703 209.013L129.051 208.017C129.939 205.474 131.26 203.11 132.926 200.994C133.99 199.643 134.485 197.828 134.037 195.887C133.517 193.632 131.631 191.835 129.357 191.404C125.515 190.678 122.16 193.604 122.16 197.314ZM125.934 197.314C125.934 196.073 126.94 195.067 128.181 195.067C129.422 195.067 130.428 196.073 130.428 197.314C130.428 198.555 129.423 199.561 128.181 199.561C126.94 199.561 125.934 198.556 125.934 197.314Z" fill="#3A1A53"/>
<path d="M408.926 181.483C408.926 182.777 409.339 183.969 410.038 184.945C411.661 187.21 413.161 189.562 414.08 192.193L414.425 193.181C414.597 193.674 415.296 193.674 415.469 193.181L415.816 192.185C416.704 189.643 418.026 187.279 419.692 185.162C420.756 183.811 421.251 181.997 420.803 180.056C420.282 177.8 418.397 176.003 416.122 175.573C412.281 174.847 408.926 177.773 408.926 181.483ZM412.7 181.483C412.7 180.242 413.705 179.235 414.947 179.235C416.188 179.235 417.194 180.241 417.194 181.483C417.194 182.723 416.188 183.73 414.947 183.73C413.705 183.73 412.7 182.723 412.7 181.483Z" fill="#3A1A53"/>
<path d="M382.709 223.307C382.709 224.602 383.122 225.793 383.821 226.769C385.445 229.034 386.944 231.386 387.863 234.017L388.208 235.005C388.381 235.498 389.079 235.498 389.252 235.005L389.599 234.009C390.488 231.467 391.809 229.103 393.475 226.986C394.539 225.636 395.034 223.821 394.586 221.88C394.065 219.625 392.18 217.827 389.905 217.397C386.064 216.671 382.709 219.597 382.709 223.307ZM386.483 223.307C386.483 222.066 387.489 221.06 388.73 221.06C389.971 221.06 390.977 222.065 390.977 223.307C390.977 224.547 389.971 225.554 388.73 225.554C387.489 225.554 386.483 224.547 386.483 223.307Z" fill="#E01236"/>
<path d="M348.896 148.11C348.896 149.405 349.309 150.597 350.008 151.572C351.632 153.838 353.132 156.19 354.051 158.821L354.396 159.808C354.568 160.302 355.266 160.302 355.439 159.808L355.787 158.813C356.675 156.27 357.996 153.906 359.663 151.79C360.727 150.439 361.221 148.624 360.773 146.683C360.253 144.428 358.367 142.631 356.093 142.2C352.251 141.474 348.896 144.4 348.896 148.11ZM352.67 148.11C352.67 146.869 353.676 145.863 354.918 145.863C356.158 145.863 357.165 146.869 357.165 148.11C357.165 149.351 356.159 150.357 354.918 150.357C353.676 150.357 352.67 149.351 352.67 148.11Z" fill="#3A1A53"/>
<path d="M393.418 108.903C393.418 110.197 393.831 111.39 394.53 112.365C396.154 114.631 397.654 116.983 398.573 119.614L398.918 120.601C399.09 121.095 399.788 121.095 399.961 120.601L400.309 119.606C401.197 117.063 402.518 114.699 404.185 112.583C405.249 111.232 405.743 109.417 405.295 107.476C404.775 105.221 402.889 103.424 400.615 102.993C396.774 102.267 393.418 105.193 393.418 108.903ZM397.192 108.903C397.192 107.662 398.198 106.656 399.44 106.656C400.68 106.656 401.687 107.662 401.687 108.903C401.687 110.144 400.681 111.15 399.44 111.15C398.198 111.15 397.192 110.144 397.192 108.903Z" fill="#3A1A53"/>
<path d="M51.1865 129.634C51.1865 130.928 51.5995 132.12 52.2985 133.096C53.9221 135.361 55.4218 137.713 56.3408 140.345L56.6859 141.332C56.8581 141.826 57.5564 141.826 57.7293 141.332L58.0769 140.336C58.9651 137.794 60.2863 135.43 61.9526 133.313C63.0168 131.963 63.5115 130.148 63.0633 128.207C62.5429 125.952 60.6572 124.155 58.383 123.724C54.5412 122.998 51.1865 125.924 51.1865 129.634ZM54.9604 129.634C54.9604 128.393 55.9662 127.387 57.2076 127.387C58.4484 127.387 59.4547 128.392 59.4547 129.634C59.4547 130.875 58.449 131.881 57.2076 131.881C55.9662 131.88 54.9604 130.875 54.9604 129.634Z" fill="#3A1A53"/>
<path d="M59.454 148.057C59.454 149.297 58.4483 150.304 57.2069 150.304C55.9654 150.304 54.9597 149.298 54.9597 148.057C54.9597 146.816 55.9654 145.809 57.2069 145.809C58.4483 145.809 59.454 146.816 59.454 148.057Z" fill="#171717"/>
<path d="M88.1876 117.014C88.1876 118.255 87.1819 119.261 85.9405 119.261C84.6997 119.261 83.6934 118.256 83.6934 117.014C83.6934 115.773 84.6991 114.767 85.9405 114.767C87.1813 114.768 88.1876 115.773 88.1876 117.014Z" fill="#171717"/>
<path d="M128.181 217.966C129.422 217.966 130.428 216.96 130.428 215.719C130.428 214.478 129.422 213.472 128.181 213.472C126.94 213.472 125.934 214.478 125.934 215.719C125.934 216.96 126.94 217.966 128.181 217.966Z" fill="#171717"/>
<path d="M241.6 186.168C242.841 186.168 243.847 185.162 243.847 183.921C243.847 182.68 242.841 181.674 241.6 181.674C240.359 181.674 239.353 182.68 239.353 183.921C239.353 185.162 240.359 186.168 241.6 186.168Z" fill="#171717"/>
<path d="M237.127 78.8217C237.127 80.0625 236.121 81.0688 234.88 81.0688C233.639 81.0688 232.633 80.0631 232.633 78.8217C232.633 77.5809 233.639 76.5746 234.88 76.5746C236.121 76.5746 237.127 77.5809 237.127 78.8217Z" fill="#171717"/>
<path d="M346.943 108.693C348.184 108.693 349.19 107.687 349.19 106.446C349.19 105.205 348.184 104.199 346.943 104.199C345.702 104.199 344.696 105.205 344.696 106.446C344.696 107.687 345.702 108.693 346.943 108.693Z" fill="#171717"/>
<path d="M354.823 168.804C356.064 168.804 357.07 167.798 357.07 166.557C357.07 165.316 356.064 164.31 354.823 164.31C353.582 164.31 352.575 165.316 352.575 166.557C352.575 167.798 353.582 168.804 354.823 168.804Z" fill="#171717"/>
<path d="M399.44 129.225C400.681 129.225 401.687 128.219 401.687 126.978C401.687 125.737 400.681 124.731 399.44 124.731C398.198 124.731 397.192 125.737 397.192 126.978C397.192 128.219 398.198 129.225 399.44 129.225Z" fill="#171717"/>
<path d="M386.832 240.509C387.496 239.46 388.884 239.149 389.933 239.813C390.981 240.477 391.292 241.865 390.628 242.914C389.965 243.962 388.576 244.273 387.528 243.61C386.479 242.945 386.168 241.557 386.832 240.509Z" fill="#171717"/>
<path d="M412.195 197.943C412.859 196.894 414.247 196.583 415.296 197.247C416.344 197.911 416.655 199.299 415.992 200.348C415.328 201.396 413.939 201.707 412.891 201.044C411.842 200.379 411.531 198.991 412.195 197.943Z" fill="#171717"/>
</svg>
