<svg width="28" height="28" viewBox="0 0 28 28" fill="none" xmlns="http://www.w3.org/2000/svg">
<path d="M22.9761 14.1909C22.9761 13.3471 23.0277 12.5071 23.0635 11.7493C23.1002 10.974 23.121 10.2777 23.0744 9.64167C22.9831 8.39369 22.6463 7.52192 21.7742 6.89758C21.6111 6.78084 21.3034 6.63588 20.8157 6.49314C20.3419 6.35446 19.7561 6.23429 19.0826 6.13676C17.7361 5.94179 16.1036 5.84643 14.4446 5.85179C12.7865 5.85715 11.1281 5.96305 9.73126 6.16175C8.29129 6.36659 7.26515 6.65267 6.769 6.94516C5.35541 7.77854 4.84916 9.17278 4.86765 10.9473C4.88644 12.7516 5.45587 14.7499 6.00348 16.4612C6.42881 17.7904 7.16413 18.7487 8.38148 19.4045C9.62278 20.0733 11.4407 20.4676 14.0989 20.4798L14.2261 20.4801L14.2515 20.4804C14.7834 20.4939 15.2105 20.9293 15.2105 21.4644C15.2105 21.9996 14.7834 22.435 14.2515 22.4485L14.2261 22.4488L14.0917 22.4485C11.2787 22.4358 9.09225 22.0237 7.44773 21.1377C5.73348 20.2141 4.69146 18.8208 4.12841 17.0613C3.58228 15.3546 2.92123 13.1009 2.89901 10.9678C2.87647 8.8048 3.51866 6.57597 5.76914 5.24921C6.62651 4.74375 7.99296 4.42043 9.45398 4.2126C10.9581 3.99864 12.7091 3.88863 14.4382 3.88304C16.1665 3.87745 17.899 3.97609 19.3646 4.1883C20.0971 4.29437 20.7792 4.43112 21.3687 4.60364C21.9443 4.7721 22.4954 4.99266 22.9202 5.29679C24.4543 6.39509 24.9242 7.94327 25.0379 9.49801C25.0939 10.2633 25.0668 11.0641 25.03 11.8423C24.9924 12.638 24.9449 13.4078 24.9449 14.1909C24.9449 14.7346 24.5041 15.1753 23.9605 15.1753C23.4168 15.1753 22.9761 14.7346 22.9761 14.1909Z" fill="#737373"/>
<path d="M12.8594 11.9761C12.8594 13.1842 11.88 14.1636 10.6719 14.1636C9.46375 14.1636 8.48438 13.1842 8.48438 11.9761C8.48438 10.768 9.46375 9.78857 10.6719 9.78857C11.88 9.78857 12.8594 10.768 12.8594 11.9761Z" fill="#737373"/>
<path d="M19.5312 11.9761C19.5312 13.1842 18.5519 14.1636 17.3438 14.1636C16.1356 14.1636 15.1562 13.1842 15.1562 11.9761C15.1562 10.768 16.1356 9.78857 17.3438 9.78857C18.5519 9.78857 19.5312 10.768 19.5312 11.9761Z" fill="#737373"/>
<path d="M21.1408 15.9069C21.2864 15.5376 21.8091 15.5376 21.9548 15.9069L23.0558 18.6986C23.1003 18.8113 23.1895 18.9006 23.3023 18.945L26.094 20.0461C26.4633 20.1917 26.4633 20.7144 26.094 20.86L23.3023 21.9611C23.1895 22.0055 23.1003 22.0948 23.0558 22.2075L21.9548 24.9992C21.8091 25.3686 21.2864 25.3686 21.1408 24.9992L20.0398 22.2075C19.9953 22.0948 19.906 22.0055 19.7933 21.9611L17.0016 20.86C16.6323 20.7144 16.6323 20.1917 17.0016 20.0461L19.7933 18.945C19.906 18.9006 19.9953 18.8113 20.0398 18.6986L21.1408 15.9069Z" fill="#737373"/>
</svg>
