<svg width="28" height="28" viewBox="0 0 28 28" fill="none" xmlns="http://www.w3.org/2000/svg">
<path d="M1.42188 19.7969V8.20312C1.42188 4.45794 4.45794 1.42188 8.20312 1.42188V3.39062L8.14091 3.391C5.51171 3.42431 3.39063 5.56603 3.39062 8.20312V19.7969C3.39062 22.4547 5.54525 24.6094 8.20312 24.6094H19.7969C22.434 24.6094 24.5757 22.4883 24.609 19.8591L24.6094 19.7969V8.20312C24.6094 5.56603 22.4883 3.42431 19.8591 3.391L19.7969 3.39062V1.42188C23.5421 1.42188 26.5781 4.45794 26.5781 8.20312V19.7969C26.5781 23.5421 23.5421 26.5781 19.7969 26.5781H8.20312C4.45794 26.5781 1.42188 23.5421 1.42188 19.7969ZM19.7969 1.42188V3.39062H8.20312V1.42188H19.7969Z" fill="#737373"/>
<path d="M19.3594 9.40625C19.3594 11.158 17.9393 12.5781 16.1875 12.5781C14.4357 12.5781 13.0156 11.158 13.0156 9.40625C13.0156 7.65447 14.4357 6.23438 16.1875 6.23438C17.9393 6.23438 19.3594 7.65447 19.3594 9.40625ZM14.724 9.40625C14.724 10.2145 15.3792 10.8698 16.1875 10.8698C16.9958 10.8698 17.651 10.2145 17.651 9.40625C17.651 8.59796 16.9958 7.94272 16.1875 7.94272C15.3792 7.94272 14.724 8.59796 14.724 9.40625Z" fill="#737373"/>
<path d="M11.375 8.4231C11.9187 8.42324 12.3593 8.86407 12.3591 9.40772C12.359 9.95138 11.9182 10.392 11.3745 10.3919L5.57763 10.3904C5.03397 10.3902 4.59336 9.94942 4.5935 9.40576C4.59364 8.86211 5.03447 8.4215 5.57813 8.42164L11.375 8.4231Z" fill="#737373"/>
<path d="M22.4219 8.42188C22.9655 8.42188 23.4062 8.86259 23.4062 9.40625C23.4062 9.94991 22.9655 10.3906 22.4219 10.3906H21C20.4563 10.3906 20.0156 9.94991 20.0156 9.40625C20.0156 8.86259 20.4563 8.42188 21 8.42188H22.4219Z" fill="#737373"/>
<path d="M14.9844 18.5938C14.9844 20.3455 13.5643 21.7656 11.8125 21.7656C10.0607 21.7656 8.64062 20.3455 8.64062 18.5938C8.64062 16.842 10.0607 15.4219 11.8125 15.4219C13.5643 15.4219 14.9844 16.842 14.9844 18.5938ZM10.349 18.5938C10.349 19.402 11.0042 20.0573 11.8125 20.0573C12.6208 20.0573 13.276 19.402 13.276 18.5938C13.276 17.7855 12.6208 17.1302 11.8125 17.1302C11.0042 17.1302 10.349 17.7855 10.349 18.5938Z" fill="#737373"/>
<path d="M22.4219 17.6106C22.9655 17.6107 23.4061 18.0516 23.406 18.5952C23.4059 19.1389 22.965 19.5795 22.4214 19.5793L16.6245 19.5779C16.0808 19.5777 15.6402 19.1369 15.6404 18.5933C15.6405 18.0496 16.0813 17.609 16.625 17.6091L22.4219 17.6106Z" fill="#737373"/>
<path d="M7 17.8281C7.54366 17.8281 7.98438 18.2688 7.98438 18.8125C7.98438 19.3562 7.54366 19.7969 7 19.7969H5.57812C5.03447 19.7969 4.59375 19.3562 4.59375 18.8125C4.59375 18.2688 5.03447 17.8281 5.57812 17.8281H7Z" fill="#737373"/>
</svg>
