<svg width="28" height="28" viewBox="0 0 28 28" fill="none" xmlns="http://www.w3.org/2000/svg">
<path d="M23.4062 3.5C25.2184 3.5 26.6875 4.96907 26.6875 6.78125V18.8125C26.6875 20.6247 25.2184 22.0937 23.4062 22.0938H16.9502L17.5996 23.4062H19.6035C20.1354 23.4197 20.5625 23.8555 20.5625 24.3906C20.5625 24.9258 20.1354 25.3615 19.6035 25.375H8.42188C7.87822 25.375 7.4375 24.9343 7.4375 24.3906C7.4375 23.847 7.87822 23.4062 8.42188 23.4062H10.4082L11.126 22.0938H4.59375C2.78156 22.0938 1.3125 20.6247 1.3125 18.8125V6.78125C1.3125 4.96907 2.78157 3.5 4.59375 3.5H23.4062ZM4.59375 5.46875C3.86888 5.46875 3.28125 6.05638 3.28125 6.78125V18.8125C3.28125 19.5259 3.85049 20.1069 4.55957 20.125H23.4404C24.1495 20.1069 24.7188 19.5259 24.7188 18.8125V6.78125C24.7188 6.05638 24.1311 5.46875 23.4062 5.46875H4.59375Z" fill="#737373"/>
<path d="M17.9375 17.7188C18.2999 17.7188 18.5938 18.0126 18.5938 18.375C18.5938 18.7374 18.2999 19.0312 17.9375 19.0312H10.0625C9.70006 19.0312 9.40625 18.7374 9.40625 18.375C9.40625 18.0126 9.70006 17.7188 10.0625 17.7188H17.9375Z" fill="#737373"/>
</svg>
