<svg width="28" height="28" viewBox="0 0 28 28" fill="none" xmlns="http://www.w3.org/2000/svg">
<path opacity="0.5" d="M26.2677 7.58522C25.4577 4.83504 23.1666 2.5411 20.42 1.72999C18.3315 1.12165 16.8885 1.17235 15.8886 1.92009C14.6861 2.81992 14.5469 4.44215 14.5469 5.59546V8.7512C14.5469 11.8689 15.9645 13.4531 18.7492 13.4531H22.3819C23.5211 13.4531 25.1539 13.3137 26.0526 12.1097C26.8247 11.1212 26.888 9.67637 26.2677 7.58522Z" fill="#737373"/>
<path d="M11.0078 5.57031C11.2759 5.53512 11.5633 5.62241 11.7656 5.80371L11.7754 5.81152C11.9895 5.99707 12.1122 6.27143 12.1123 6.55078V11.0908C12.1124 13.7368 14.2621 15.8856 16.9082 15.8857H21.4482C21.7279 15.8857 22.0028 16.0085 22.1885 16.2227L22.1963 16.2324C22.3557 16.4102 22.4425 16.6437 22.4375 16.8877L22.4297 16.9932C22.0759 19.7644 20.5517 22.3198 18.2559 23.9883L18.2539 23.9902C16.4941 25.2774 14.4299 25.9375 12.292 25.9375C11.6403 25.9375 10.9923 25.8781 10.3467 25.749L10.3379 25.748L9.95898 25.668C6.06535 24.776 2.99199 21.6033 2.24902 17.6719C1.71607 14.8535 2.33114 12.0463 4.00781 9.74414H4.00879C5.67751 7.44851 8.23304 5.92411 11.0049 5.57031H11.0078Z" stroke="#737373" stroke-width="1.5"/>
</svg>
