<svg width="28" height="28" viewBox="0 0 28 28" fill="none" xmlns="http://www.w3.org/2000/svg">
<path d="M13.9998 4.09814C6.2802 4.09814 0 10.3787 0 18.0983C0 19.1727 0.1225 20.2439 0.364602 21.2827C0.392437 21.4019 0.424375 21.5124 0.460031 21.6148C0.881891 22.9641 2.1525 23.9017 3.56984 23.9017H24.4257C25.7439 23.9017 26.9329 23.0931 27.4335 21.8958C27.4941 21.7766 27.5445 21.6443 27.583 21.4968C27.5978 21.4407 27.6207 21.3469 27.6551 21.1945C27.8836 20.184 28 19.1415 28 18.0983C28 10.3787 21.7194 4.09814 13.9998 4.09814ZM26.0183 20.8255C25.9622 21.0742 25.9441 21.134 25.94 21.134L25.9437 21.0836C25.748 21.759 25.129 22.2239 24.4257 22.2239H3.56984C2.86814 22.2239 2.25083 21.7615 2.05341 21.0881L2.06489 21.1655C2.06243 21.1655 2.04684 21.1094 1.9985 20.9021C1.78877 20.0014 1.67776 19.0629 1.67776 18.0983C1.67776 11.2926 7.19447 5.7759 13.9998 5.7759C20.8051 5.7759 26.3222 11.2926 26.3222 18.0983C26.3222 19.0355 26.217 19.9481 26.0183 20.8255Z" fill="#737373"/>
<path d="M14.6331 16.2534C14.4344 16.1854 14.2218 16.1465 14.0002 16.1465C12.9225 16.1465 12.0488 17.0202 12.0488 18.0983C12.0488 19.176 12.9225 20.0496 14.0002 20.0496C14.9866 20.0496 15.8001 19.3173 15.9311 18.367C15.9435 18.2785 15.9516 18.1896 15.9516 18.0983C15.9516 17.2422 15.3999 16.5163 14.6331 16.2534Z" fill="#737373"/>
<path d="M21.859 10.6522C21.6874 10.4667 21.3774 10.4626 21.134 10.6424L14.375 15.6192C14.5224 15.6417 14.6691 15.6765 14.8133 15.7261C15.6865 16.0259 16.312 16.7751 16.4689 17.6611L21.8168 11.3768C22.0139 11.1458 22.0319 10.8357 21.859 10.6522Z" fill="#737373"/>
</svg>
