<svg width="28" height="28" viewBox="0 0 28 28" fill="none" xmlns="http://www.w3.org/2000/svg">
<path d="M25.9375 14C25.9375 11.5816 25.9363 9.84297 25.7588 8.51953C25.5841 7.21744 25.2509 6.42984 24.6699 5.84766C24.0893 5.26573 23.3044 4.93277 22.0059 4.75781C20.6856 4.57994 18.9506 4.57813 16.5371 4.57813H11.4629C9.04934 4.57813 7.3144 4.57994 5.99414 4.75781C4.69565 4.93277 3.91078 5.26574 3.33008 5.84766C2.74915 6.42984 2.4159 7.21743 2.24121 8.51953C2.06372 9.84298 2.0625 11.5816 2.0625 14C2.0625 16.4184 2.06372 18.157 2.24121 19.4805C2.4159 20.7826 2.74917 21.5702 3.33008 22.1523C3.91078 22.7343 4.69567 23.0672 5.99414 23.2422C7.3144 23.4201 9.04933 23.4219 11.4629 23.4219H16.5371C18.9506 23.4219 20.6856 23.4201 22.0059 23.2422C23.3044 23.0672 24.0893 22.7343 24.6699 22.1523C25.2508 21.5702 25.5841 20.7826 25.7588 19.4805C25.9363 18.157 25.9375 16.4184 25.9375 14ZM27.4375 14C27.4375 16.3764 27.4392 18.2342 27.2451 19.6807C27.0482 21.1482 26.6377 22.3046 25.7324 23.2119C24.8267 24.1196 23.6715 24.5311 22.2061 24.7285C20.7624 24.923 18.9081 24.9219 16.5371 24.9219H11.4629C9.09186 24.9219 7.23763 24.923 5.79395 24.7285C4.32849 24.5311 3.17331 24.1196 2.26758 23.2119C1.3623 22.3046 0.951799 21.1482 0.754883 19.6807C0.560834 18.2342 0.5625 16.3764 0.5625 14C0.5625 11.6236 0.560834 9.76577 0.754883 8.31934C0.9518 6.85176 1.36232 5.69545 2.26758 4.78809C3.17331 3.88041 4.32849 3.46893 5.79395 3.27148C7.23763 3.07699 9.09186 3.07813 11.4629 3.07813H16.5371C18.9081 3.07813 20.7624 3.07699 22.2061 3.27148C23.6715 3.46893 24.8267 3.88039 25.7324 4.78809H25.7314C26.6369 5.69549 27.0482 6.85161 27.2451 8.31934C27.4392 9.76577 27.4375 11.6236 27.4375 14Z" fill="#737373"/>
<path d="M16.9516 9C16.426 9 16 9.42695 16 9.95361C16 10.4803 16.426 10.9072 16.9516 10.9072H23.2953C23.8208 10.9072 24.2469 10.4803 24.2469 9.95361C24.2469 9.42695 23.8208 9 23.2953 9H16.9516Z" fill="#737373"/>
<path d="M18.2203 12.8145C17.6948 12.8145 17.2688 13.2414 17.2688 13.7681C17.2688 14.2947 17.6948 14.7217 18.2203 14.7217H23.2953C23.8208 14.7217 24.2469 14.2947 24.2469 13.7681C24.2469 13.2414 23.8208 12.8145 23.2953 12.8145H18.2203Z" fill="#737373"/>
<path d="M19.4891 16.6289C18.9635 16.6289 18.5375 17.0559 18.5375 17.5825C18.5375 18.1092 18.9635 18.5361 19.4891 18.5361H23.2953C23.8208 18.5361 24.2469 18.1092 24.2469 17.5825C24.2469 17.0559 23.8208 16.6289 23.2953 16.6289H19.4891Z" fill="#737373"/>
<path d="M9.075 13.0859C10.4765 13.0859 11.6125 11.9475 11.6125 10.543C11.6125 9.13853 10.4765 8 9.075 8C7.67358 8 6.5375 9.13853 6.5375 10.543C6.5375 11.9475 7.67358 13.0859 9.075 13.0859Z" fill="#737373"/>
<path d="M14.15 18.1719C14.15 19.5764 14.15 20.7148 9.075 20.7148C4 20.7148 4 19.5764 4 18.1719C4 16.7674 6.27215 15.6289 9.075 15.6289C11.8778 15.6289 14.15 16.7674 14.15 18.1719Z" fill="#737373"/>
</svg>
