<svg width="28" height="28" viewBox="0 0 28 28" fill="none" xmlns="http://www.w3.org/2000/svg">
<path fill-rule="evenodd" clip-rule="evenodd" d="M11.4625 3.82812H16.5375C21.3222 3.82812 23.7147 3.82812 25.201 5.31776C26.6875 6.8074 26.6875 9.20493 26.6875 14C26.6875 18.795 26.6875 21.1927 25.201 22.6822C23.7147 24.1719 21.3222 24.1719 16.5375 24.1719H11.4625C6.67774 24.1719 4.28537 24.1719 2.79893 22.6822C1.3125 21.1927 1.3125 18.795 1.3125 14C1.3125 9.20493 1.3125 6.8074 2.79893 5.31776C4.28537 3.82812 6.67774 3.82812 11.4625 3.82812ZM15.5859 10.1855C15.5859 9.65889 16.012 9.23193 16.5375 9.23193H22.8812C23.4068 9.23193 23.8328 9.65889 23.8328 10.1855C23.8328 10.7122 23.4068 11.1392 22.8812 11.1392H16.5375C16.012 11.1392 15.5859 10.7122 15.5859 10.1855ZM16.8547 14C16.8547 13.4734 17.2807 13.0464 17.8062 13.0464H22.8812C23.4068 13.0464 23.8328 13.4734 23.8328 14C23.8328 14.5266 23.4068 14.9536 22.8812 14.9536H17.8062C17.2807 14.9536 16.8547 14.5266 16.8547 14ZM18.1234 17.8145C18.1234 17.2878 18.5495 16.8608 19.075 16.8608H22.8812C23.4068 16.8608 23.8328 17.2878 23.8328 17.8145C23.8328 18.3411 23.4068 18.7681 22.8812 18.7681H19.075C18.5495 18.7681 18.1234 18.3411 18.1234 17.8145ZM12.7312 10.1855C12.7312 11.59 11.5952 12.7285 10.1937 12.7285C8.79233 12.7285 7.65625 11.59 7.65625 10.1855C7.65625 8.7811 8.79233 7.64258 10.1937 7.64258C11.5952 7.64258 12.7312 8.7811 12.7312 10.1855ZM10.1937 20.3574C15.2687 20.3574 15.2687 19.2189 15.2687 17.8145C15.2687 16.41 12.9965 15.2715 10.1937 15.2715C7.3909 15.2715 5.11875 16.41 5.11875 17.8145C5.11875 19.2189 5.11875 20.3574 10.1937 20.3574Z" fill="#737373"/>
</svg>
