<svg width="28" height="28" viewBox="0 0 28 28" fill="none" xmlns="http://www.w3.org/2000/svg">
<path d="M16.4675 23.5156C16.4675 25.2644 15.0536 26.6875 13.3161 26.6875C11.5785 26.6875 10.1646 25.2644 10.1646 23.5156V22.9637C9.06474 22.5725 8.04682 21.9815 7.16336 21.2202L6.69064 21.4941C5.96265 21.9159 5.11281 22.0291 4.29868 21.806C3.48666 21.5861 2.80805 21.0595 2.38785 20.3247C1.5212 18.8086 2.04224 16.8663 3.54864 15.9941L4.02241 15.7192C3.91526 15.144 3.86168 14.5688 3.86168 14.0011C3.86168 13.4333 3.91526 12.8571 4.02241 12.283L3.54864 12.0091C2.04224 11.1369 1.5212 9.19355 2.38785 7.6774C2.807 6.94258 3.48561 6.4171 4.29868 6.19613C5.11071 5.97516 5.9616 6.08617 6.69064 6.50909L7.16336 6.78187C8.04682 6.02062 9.06474 5.42854 10.1646 5.0384V4.48649C10.1646 2.73773 11.5785 1.31461 13.3161 1.31461C15.0536 1.31461 16.4675 2.73773 16.4675 4.48649C16.4675 5.07011 15.9979 5.54378 15.417 5.54378C14.8361 5.54378 14.3665 5.07011 14.3665 4.48649C14.3665 3.90286 13.8949 3.4292 13.3161 3.4292C12.7372 3.4292 12.2656 3.90392 12.2656 4.48649V5.82079C12.2656 6.30292 11.941 6.72372 11.4777 6.84425C10.1783 7.18153 8.99751 7.86771 8.06362 8.82773C7.72852 9.17241 7.20433 9.24642 6.78939 9.00535L5.64331 8.34243C5.14222 8.05168 4.49828 8.22719 4.20939 8.73152C3.92051 9.2369 4.09489 9.88396 4.59702 10.1758L5.7452 10.8398C6.16014 11.0798 6.36079 11.5725 6.23473 12.0366C6.0551 12.6964 5.9637 13.3582 5.9637 14.0021C5.9637 14.646 6.0551 15.3079 6.23473 15.9676C6.36184 16.4318 6.16014 16.9245 5.7452 17.1645L4.59702 17.8285C4.09489 18.1192 3.92051 18.7663 4.20939 19.2717C4.49933 19.7781 5.14222 19.9515 5.64331 19.6618L6.78939 18.9989C7.20538 18.7578 7.72957 18.8329 8.06362 19.1765C8.99751 20.1365 10.1772 20.8227 11.4777 21.16C11.942 21.2805 12.2656 21.7013 12.2656 22.1834V23.5177C12.2656 24.1003 12.7372 24.575 13.3161 24.575C13.8949 24.575 14.3665 24.1003 14.3665 23.5177C14.3665 22.9352 14.8361 22.4604 15.417 22.4604C15.9979 22.4604 16.4675 22.9341 16.4675 23.5177V23.5156ZM13.3161 11.8854C13.8959 11.8854 14.3665 11.4117 14.3665 10.8281C14.3665 10.2445 13.8959 9.77083 13.3161 9.77083C10.9987 9.77083 9.11411 11.6676 9.11411 14C9.11411 16.3324 10.9987 18.2292 13.3161 18.2292C13.8959 18.2292 14.3665 17.7555 14.3665 17.1719C14.3665 16.5883 13.8959 16.1146 13.3161 16.1146C12.1574 16.1146 11.2151 15.1662 11.2151 14C11.2151 12.8338 12.1574 11.8854 13.3161 11.8854ZM21.7199 7.65625H16.4675C15.8866 7.65625 15.417 8.12992 15.417 8.71354C15.417 9.29717 15.8866 9.77083 16.4675 9.77083H21.7199C23.4574 9.77083 24.8714 8.34772 24.8714 6.59896V5.2488C25.4964 4.88297 25.9219 4.20842 25.9219 3.42708C25.9219 2.25878 24.9817 1.3125 23.8209 1.3125C22.6601 1.3125 21.7199 2.25878 21.7199 3.42708C21.7199 4.20736 22.1454 4.88192 22.7704 5.2488V6.59896C22.7704 7.18153 22.2998 7.65625 21.7199 7.65625ZM24.8714 22.7512V21.401C24.8714 19.6523 23.4574 18.2292 21.7199 18.2292H16.4675C15.8866 18.2292 15.417 18.7028 15.417 19.2865C15.417 19.8701 15.8866 20.3438 16.4675 20.3438H21.7199C22.2998 20.3438 22.7704 20.8185 22.7704 21.401V22.7512C22.1454 23.117 21.7199 23.7916 21.7199 24.5729C21.7199 25.7412 22.6601 26.6875 23.8209 26.6875C24.9817 26.6875 25.9219 25.7412 25.9219 24.5729C25.9219 23.7926 25.4964 23.1181 24.8714 22.7512ZM23.8209 11.8854C23.0456 11.8854 22.3754 12.3136 22.0109 12.9427H16.4675C15.8866 12.9427 15.417 13.4164 15.417 14C15.417 14.5836 15.8866 15.0573 16.4675 15.0573H22.0109C22.3744 15.6864 23.0446 16.1146 23.8209 16.1146C24.9817 16.1146 25.9219 15.1683 25.9219 14C25.9219 12.8317 24.9817 11.8854 23.8209 11.8854Z" fill="#737373"/>
<circle cx="23.7891" cy="3.44531" r="2.13281" fill="#737373"/>
<circle cx="23.7891" cy="13.9453" r="2.13281" fill="#737373"/>
<circle cx="23.7891" cy="24.5547" r="2.13281" fill="#737373"/>
</svg>
