<svg width="28" height="28" viewBox="0 0 28 28" fill="none" xmlns="http://www.w3.org/2000/svg">
<path d="M6.80273 21.2026L8.10177 26.0507C8.30676 26.8157 9.08781 27.2711 9.84635 27.0679C10.6049 26.8646 11.0536 26.0797 10.8486 25.3147L9.54959 20.4666L6.80273 21.2026Z" fill="#737373"/>
<path d="M2.38209 18.6504L1.24976 14.4245C0.937067 13.2575 1.61384 12.0623 2.76134 11.7548L6.91683 10.6413L9.1815 19.0932L6.06488 19.9283L5.02601 20.2066C3.8785 20.5141 2.69479 19.8174 2.38209 18.6504Z" fill="#737373"/>
<path d="M20.7229 11.4553L20.5328 10.746C20.2179 9.57065 19.0166 8.87139 17.8496 9.18408L19.1801 14.1495C20.3471 13.8369 21.0378 12.6306 20.7229 11.4553Z" fill="#737373"/>
<path d="M10.8337 19.3431L8.02453 8.8593L13.4406 2.89701C13.8217 2.47758 14.5137 2.65038 14.6614 3.20189L19.4101 20.9241C19.5579 21.4756 19.045 21.9713 18.5053 21.7985L10.8337 19.3431Z" fill="#737373"/>
<path fill-rule="evenodd" clip-rule="evenodd" d="M24.3707 6.29994C24.6675 6.56604 24.699 7.02464 24.4411 7.32414L22.757 9.27974C22.4991 9.57932 22.0494 9.6064 21.7526 9.3403C21.4558 9.07419 21.4244 8.61559 21.6823 8.31601L23.3663 6.36042C23.6242 6.06091 24.074 6.03382 24.3707 6.29994ZM22.2852 11.7891C22.1813 11.4015 22.4046 11.0049 22.7838 10.9033L25.5306 10.1673C25.9099 10.0657 26.3015 10.2975 26.4054 10.6851C26.5092 11.0727 26.286 11.4693 25.9067 11.5709L23.1599 12.3069C22.7806 12.4085 22.389 12.1767 22.2852 11.7891ZM23.0483 14.1761C23.1723 13.7972 23.5753 13.5958 23.9485 13.7262L26.3847 14.5778C26.7578 14.7083 26.9599 15.1212 26.8359 15.5001C26.712 15.8789 26.3089 16.0803 25.9358 15.9498L23.4996 15.0982C23.1265 14.9678 22.9244 14.5549 23.0483 14.1761Z" fill="#737373"/>
</svg>
