<svg width="28" height="28" viewBox="0 0 28 28" fill="none" xmlns="http://www.w3.org/2000/svg">
<path d="M13.1515 1.42425C13.6903 1.27993 14.2567 1.27538 14.7972 1.41069L14.8494 1.42425L22.6577 3.51573C24.1674 3.9201 25.1891 5.33706 25.0787 6.90747C24.9594 8.6025 24.7053 12.0035 24.4115 14.6391C23.7607 20.4777 19.7616 23.0144 16.0137 25.9678C14.8554 26.8805 13.2184 26.9222 12.0154 26.0372H12.0153C7.83324 22.9605 4.24013 20.4771 3.58936 14.6391C3.29556 12.0035 3.04144 8.6025 2.92222 6.90747C2.81177 5.33706 3.83351 3.9201 5.34316 3.51573L13.1515 1.42425ZM14.3401 3.32592C14.1176 3.26633 13.8833 3.26633 13.6608 3.32592L5.85254 5.41745C5.2481 5.57936 4.84221 6.14516 4.88611 6.76937C5.00523 8.46297 5.25704 11.8288 5.54599 14.421C6.08878 19.2903 8.90848 21.3074 13.182 24.4514C13.6565 24.8005 14.3046 24.7922 14.7731 24.4386L14.7952 24.4214C18.7324 21.319 21.8646 19.3067 22.4418 14.5342L22.4549 14.421C22.7258 11.9908 22.964 8.88069 23.0909 7.10593L23.1148 6.76937C23.158 6.15491 22.7654 5.59708 22.1765 5.42536L22.1483 5.41745L14.3401 3.32592Z" fill="#737373"/>
<path d="M18.1164 8.60082C18.5009 8.21639 19.1241 8.21639 19.5085 8.60082C19.8929 8.98524 19.8929 9.60847 19.5085 9.99289L13.7136 15.7878C13.2224 16.279 12.426 16.279 11.9348 15.7878L9.03832 12.8913C8.65389 12.5069 8.65389 11.8837 9.03832 11.4993C9.41673 11.1208 10.0266 11.1149 10.4122 11.4815L10.4304 11.4993L12.8241 13.893L18.1164 8.60082Z" fill="#737373"/>
</svg>
