<svg width="28" height="28" viewBox="0 0 28 28" fill="none" xmlns="http://www.w3.org/2000/svg">
<rect width="28" height="28" fill="white"/>
<path d="M3.28125 17.2812C3.28125 17.9948 3.85067 18.5754 4.55989 18.5933H23.4401C24.1493 18.5754 24.7188 17.9948 24.7188 17.2812V5.25C24.7188 4.52513 24.1311 3.9375 23.4062 3.9375V1.96875C25.2184 1.96875 26.6875 3.43782 26.6875 5.25V17.2812C26.6875 19.0934 25.2184 20.5625 23.4062 20.5625H4.59375C2.78156 20.5625 1.3125 19.0934 1.3125 17.2812V5.25C1.3125 3.43782 2.78157 1.96875 4.59375 1.96875V3.9375C3.86888 3.9375 3.28125 4.52513 3.28125 5.25V17.2812ZM23.4062 1.96875V3.9375H4.59375V1.96875H23.4062Z" fill="#737373"/>
<path d="M17.6075 9.8567C18.6673 10.4928 18.6673 12.0323 17.6075 12.6684L17.582 12.6834L13.2344 15.1935C12.1406 15.825 10.7734 15.0356 10.7734 13.7727L10.7734 8.75243C10.7734 7.48948 12.1406 6.70015 13.2344 7.33163L17.582 9.84175L17.6075 9.8567Z" fill="#737373"/>
<path d="M25.7031 23.0781C26.2468 23.0781 26.6875 23.5188 26.6875 24.0625C26.6875 24.6062 26.2468 25.0469 25.7031 25.0469H12.5781C12.0345 25.0469 11.5938 24.6062 11.5938 24.0625C11.5938 23.5188 12.0345 23.0781 12.5781 23.0781H25.7031Z" fill="#737373"/>
<path d="M7.875 22.0938C8.96231 22.0938 9.84375 22.9752 9.84375 24.0625C9.84375 25.1498 8.96231 26.0312 7.875 26.0312C7.1463 26.0312 6.51011 25.6353 6.1697 25.0469H2.29688C1.75322 25.0469 1.3125 24.6062 1.3125 24.0625C1.3125 23.5188 1.75322 23.0781 2.29688 23.0781H6.1697C6.51011 22.4897 7.1463 22.0938 7.875 22.0938Z" fill="#737373"/>
</svg>
