<svg width="457" height="320" viewBox="0 0 457 320" fill="none" xmlns="http://www.w3.org/2000/svg">
<path d="M228 310C310.843 310 378 242.843 378 160C378 77.1573 310.843 10 228 10C145.157 10 78 77.1573 78 160C78 242.843 145.157 310 228 310Z" fill="#F8E3E6"/>
<path d="M289.5 248.5L289.567 241.572L283.534 244.978L289.5 248.5ZM230.5 144L229.978 144.295L231.49 146.974L232.013 146.679L232.535 146.385L231.022 143.705L230.5 144ZM233.526 149.359L233.003 149.654L236.029 155.013L236.551 154.718L237.074 154.423L234.048 149.064L233.526 149.359ZM238.064 157.397L237.542 157.692L240.567 163.051L241.09 162.756L241.612 162.461L238.587 157.102L238.064 157.397ZM242.603 165.436L242.08 165.731L245.106 171.09L245.628 170.795L246.151 170.5L243.125 165.141L242.603 165.436ZM247.141 173.474L246.619 173.769L249.644 179.128L250.167 178.833L250.689 178.538L247.664 173.179L247.141 173.474ZM251.679 181.513L251.157 181.808L254.183 187.167L254.705 186.872L255.228 186.577L252.202 181.218L251.679 181.513ZM256.218 189.551L255.695 189.846L258.721 195.205L259.244 194.91L259.766 194.615L256.74 189.256L256.218 189.551ZM260.756 197.59L260.234 197.885L263.26 203.244L263.782 202.949L264.305 202.654L261.279 197.295L260.756 197.59ZM265.295 205.628L264.772 205.923L267.798 211.282L268.321 210.987L268.843 210.692L265.817 205.333L265.295 205.628ZM269.833 213.667L269.311 213.962L272.336 219.321L272.859 219.026L273.381 218.731L270.356 213.372L269.833 213.667ZM274.372 221.705L273.849 222L276.875 227.359L277.397 227.064L277.92 226.769L274.894 221.41L274.372 221.705ZM278.91 229.744L278.388 230.039L281.413 235.398L281.936 235.103L282.458 234.808L279.433 229.449L278.91 229.744ZM283.449 237.782L282.926 238.077L285.952 243.436L286.474 243.141L286.997 242.846L283.971 237.487L283.449 237.782Z" fill="#B90827"/>
<path d="M140 211.5L141.194 204.675L146.507 209.122L140 211.5ZM199 141L199.46 141.385L197.493 143.735L197.033 143.35L196.573 142.965L198.54 140.615L199 141ZM195.067 145.7L195.527 146.085L191.593 150.785L191.133 150.4L190.673 150.015L194.607 145.315L195.067 145.7ZM189.167 152.75L189.627 153.135L185.693 157.835L185.233 157.45L184.773 157.065L188.707 152.365L189.167 152.75ZM183.267 159.8L183.727 160.185L179.793 164.885L179.333 164.5L178.873 164.115L182.807 159.415L183.267 159.8ZM177.367 166.85L177.827 167.235L173.893 171.935L173.433 171.55L172.973 171.165L176.907 166.465L177.367 166.85ZM171.467 173.9L171.927 174.285L167.993 178.985L167.533 178.6L167.073 178.215L171.007 173.515L171.467 173.9ZM165.567 180.95L166.027 181.335L162.093 186.035L161.633 185.65L161.173 185.265L165.107 180.565L165.567 180.95ZM159.667 188L160.127 188.385L156.193 193.085L155.733 192.7L155.273 192.315L159.207 187.615L159.667 188ZM153.767 195.05L154.227 195.435L150.293 200.135L149.833 199.75L149.373 199.365L153.307 194.665L153.767 195.05ZM147.867 202.1L148.327 202.485L144.393 207.185L143.933 206.8L143.473 206.415L147.407 201.715L147.867 202.1Z" fill="#B90827"/>
<path d="M306 93.5L299.109 92.7794L301.931 99.1072L306 93.5ZM227.5 128.5L227.744 129.048L230.361 127.881L230.117 127.333L229.872 126.785L227.256 127.952L227.5 128.5ZM232.733 126.167L232.978 126.715L238.211 124.381L237.967 123.833L237.722 123.285L232.489 125.619L232.733 126.167ZM240.583 122.667L240.828 123.215L246.061 120.881L245.817 120.333L245.572 119.785L240.339 122.119L240.583 122.667ZM248.433 119.167L248.678 119.715L253.911 117.381L253.667 116.833L253.422 116.285L248.189 118.619L248.433 119.167ZM256.283 115.667L256.528 116.215L261.761 113.881L261.517 113.333L261.272 112.785L256.039 115.119L256.283 115.667ZM264.133 112.167L264.378 112.715L269.611 110.381L269.367 109.833L269.122 109.285L263.889 111.619L264.133 112.167ZM271.983 108.667L272.228 109.215L277.461 106.881L277.217 106.333L276.972 105.785L271.739 108.119L271.983 108.667ZM279.833 105.167L280.078 105.715L285.311 103.381L285.067 102.833L284.822 102.285L279.589 104.619L279.833 105.167ZM287.683 101.667L287.928 102.215L293.161 99.8813L292.917 99.3333L292.672 98.7853L287.439 101.119L287.683 101.667ZM295.533 98.1667L295.778 98.7147L301.011 96.3813L300.767 95.8333L300.522 95.2853L295.289 97.6187L295.533 98.1667Z" fill="#B90827"/>
<path d="M155 73.5L157.714 79.8745L161.877 74.337L155 73.5ZM159.926 77.2037L159.565 77.6833L164.491 81.387L164.852 80.9074L165.212 80.4278L160.287 76.7241L159.926 77.2037ZM167.315 82.7593L166.954 83.2388L171.88 86.9425L172.241 86.463L172.601 85.9834L167.675 82.2797L167.315 82.7593ZM174.704 88.3148L174.343 88.7944L179.269 92.4981L179.63 92.0185L179.99 91.539L175.064 87.8352L174.704 88.3148ZM182.093 93.8704L181.732 94.3499L186.658 98.0536L187.019 97.5741L187.379 97.0945L182.453 93.3908L182.093 93.8704ZM189.481 99.4259L189.121 99.9055L194.047 103.609L194.407 103.13L194.768 102.65L189.842 98.9464L189.481 99.4259ZM196.87 104.981L196.51 105.461L201.436 109.165L201.796 108.685L202.157 108.206L197.231 104.502L196.87 104.981ZM204.259 110.537L203.899 111.017L208.825 114.72L209.185 114.241L209.546 113.761L204.62 110.057L204.259 110.537ZM211.648 116.093L211.288 116.572L216.213 120.276L216.574 119.796L216.935 119.317L212.009 115.613L211.648 116.093ZM219.037 121.648L218.676 122.128L221.139 123.98L221.5 123.5L221.861 123.02L219.398 121.169L219.037 121.648Z" fill="#B90827"/>
<path d="M198.675 50C197.78 50.0174 196.762 50.0323 195.574 50.0323C193.11 50.0323 191.113 51.4471 191.113 53.1932V109.349C191.113 111.094 193.11 112.509 195.574 112.509C196.333 112.509 197.468 112.373 198.675 112.135V50Z" fill="#E93353"/>
<path d="M196.2 50.0304V112.485C196.899 112.436 197.766 112.315 198.675 112.135V50C197.943 50.0136 197.123 50.026 196.2 50.0304Z" fill="#FBA2B0"/>
<path d="M231.956 50C232.85 50.0174 233.865 50.0323 235.055 50.0323C237.52 50.0323 239.515 51.4471 239.515 53.1932V109.349C239.515 111.094 237.52 112.509 235.055 112.509C234.297 112.509 233.16 112.373 231.956 112.135V50Z" fill="#E93353"/>
<path d="M234.429 50.0304V112.485C233.733 112.436 232.865 112.315 231.956 112.135V50C232.687 50.0136 233.506 50.026 234.429 50.0304Z" fill="#FBA2B0"/>
<path d="M259.145 130.371V90.7901H216.631H174.117V130.371C174.117 130.371 171.919 144.082 186.578 148.589C186.578 148.589 196.109 151.42 195.375 165.084H216.63H237.888C237.154 151.42 246.685 148.589 246.685 148.589C261.342 144.082 259.145 130.371 259.145 130.371Z" fill="#B90827"/>
<path d="M241.182 152.676C237.4 153.589 233.624 154.553 229.694 154.734C224.771 154.963 219.727 154.495 215.061 152.834C206.201 149.682 199.211 143.02 195.764 134.234C192.204 125.155 191.464 114.504 192.665 104.882C193.26 100.109 194.373 95.1508 196.516 90.7901H174.118V130.371C174.118 130.371 171.919 144.082 186.578 148.589C186.578 148.589 196.11 151.42 195.375 165.084H237.888C237.567 159.086 239.222 155.177 241.182 152.676Z" fill="#B90827"/>
<path d="M206.191 165.084C206.138 164.796 206.026 164.509 206.036 164.215C206.191 158.775 205.54 154.835 201.423 150.898C194.964 144.716 184.44 138.759 181.791 129.806C179.321 121.448 179.074 111.97 180.12 103.366C180.629 99.1702 181.456 94.8065 183.027 90.7907H174.117V130.372C174.117 130.372 171.919 144.083 186.578 148.59C186.578 148.59 196.109 151.421 195.375 165.085L206.191 165.084Z" fill="#B90827"/>
<path d="M259.144 90.7901H174.117V99.5864H259.144V90.7901Z" fill="#90021A"/>
<path d="M253.28 99.5858C253.28 99.5858 253.303 99.8649 253.345 100.388C253.385 100.912 253.458 101.679 253.519 102.656C253.653 104.61 253.827 107.401 253.968 110.75C254.048 112.423 254.135 114.234 254.227 116.15C254.307 118.072 254.472 120.081 254.543 122.177C254.574 124.293 254.712 126.473 254.526 128.726C254.497 129.287 254.466 129.851 254.437 130.416L254.425 130.628L254.42 130.734L254.417 130.788L254.405 130.887L254.348 131.299C254.306 131.578 254.28 131.841 254.226 132.134C253.978 133.381 253.629 134.526 253.115 135.644C252.565 136.734 251.931 137.804 251.086 138.704C250.893 138.944 250.677 139.162 250.447 139.367L250.112 139.683L249.944 139.839L249.859 139.918L249.838 139.937L249.748 140.009L249.706 140.04L249.031 140.522C248.807 140.682 248.6 140.844 248.296 140.996C247.737 141.296 247.161 141.626 246.631 141.813L245.821 142.13L245.021 142.389C243.954 142.735 242.931 143.001 241.954 143.304C241.462 143.45 241.01 143.625 240.541 143.781C240.31 143.863 240.102 143.969 239.883 144.06L239.557 144.198L239.394 144.266L239.313 144.3L239.272 144.317L239.252 144.325C239.194 144.357 239.308 144.291 239.288 144.303C239.07 144.428 238.852 144.552 238.636 144.677L238.313 144.862C238.21 144.925 238.143 144.99 238.055 145.054C237.888 145.179 237.722 145.304 237.557 145.429C237.389 145.55 237.235 145.726 237.075 145.871C235.81 147.091 234.885 148.582 234.206 150.046C233.537 151.518 233.079 152.959 232.74 154.256C232.405 155.554 232.181 156.713 232.033 157.674C231.885 158.635 231.786 159.398 231.735 159.919C231.685 160.442 231.658 160.72 231.658 160.72C231.658 160.72 231.639 160.44 231.604 159.916C231.576 159.391 231.525 158.617 231.552 157.632C231.569 156.646 231.624 155.444 231.828 154.074C232.022 152.705 232.325 151.155 232.915 149.519C233.499 147.89 234.359 146.138 235.78 144.603C235.964 144.414 236.12 144.213 236.332 144.031C236.546 143.85 236.76 143.667 236.976 143.484C237.084 143.397 237.197 143.292 237.302 143.22L237.613 143.015C237.821 142.877 238.031 142.739 238.241 142.6L238.319 142.556L238.342 142.544L238.387 142.521L238.478 142.476L238.66 142.385L239.025 142.202C239.27 142.088 239.517 141.954 239.767 141.854C240.267 141.664 240.777 141.448 241.283 141.276C242.294 140.921 243.321 140.609 244.292 140.251L245.025 139.984L245.721 139.679C246.22 139.494 246.584 139.254 246.999 139.046C247.197 138.964 247.424 138.784 247.646 138.621L248.314 138.129L248.788 137.67C248.972 137.504 249.145 137.327 249.297 137.129C249.975 136.398 250.472 135.51 250.922 134.612C251.357 133.705 251.664 132.704 251.871 131.774C251.923 131.521 251.957 131.23 252.001 130.961L252.063 130.549L252.086 130.192C252.122 129.652 252.156 129.114 252.191 128.577C252.241 127.502 252.377 126.448 252.364 125.377C252.38 124.31 252.396 123.258 252.412 122.222C252.401 120.131 252.385 118.095 252.424 116.178C252.439 115.218 252.455 114.284 252.47 113.38C252.509 112.475 252.547 111.6 252.583 110.759C252.728 107.408 252.905 104.616 253.041 102.661C253.102 101.683 253.177 100.915 253.216 100.391C253.257 99.8656 253.28 99.5858 253.28 99.5858Z" fill="#FECAD2"/>
<path d="M201.424 111.131C201.424 114.471 198.716 117.178 195.375 117.178C192.035 117.178 189.328 114.471 189.328 111.131C189.328 107.791 192.035 105.083 195.375 105.083C198.716 105.084 201.424 107.791 201.424 111.131Z" fill="#FBA2B0"/>
<path d="M199.91 111.131C199.91 113.637 197.882 115.667 195.375 115.667C192.873 115.667 190.84 113.637 190.84 111.131C190.84 108.626 192.872 106.596 195.375 106.596C197.882 106.596 199.91 108.626 199.91 111.131Z" fill="white"/>
<path d="M198.17 110.628H195.879V108.337C195.879 108.058 195.654 107.833 195.375 107.833C195.098 107.833 194.872 108.058 194.872 108.337V110.628H192.581C192.302 110.628 192.077 110.853 192.077 111.131C192.077 111.41 192.302 111.636 192.581 111.636H194.872V113.925C194.872 114.204 195.097 114.429 195.375 114.429C195.654 114.429 195.879 114.204 195.879 113.925V111.636H198.17C198.448 111.636 198.675 111.41 198.675 111.131C198.675 110.853 198.448 110.628 198.17 110.628Z" fill="#FBA2B0"/>
<path d="M241.782 111.131C241.782 114.471 239.075 117.178 235.735 117.178C232.396 117.178 229.69 114.471 229.69 111.131C229.69 107.791 232.396 105.083 235.735 105.083C239.075 105.084 241.782 107.791 241.782 111.131Z" fill="#FBA2B0"/>
<path d="M240.271 111.131C240.271 113.637 238.242 115.667 235.735 115.667C233.232 115.667 231.2 113.637 231.2 111.131C231.2 108.626 233.231 106.596 235.735 106.596C238.241 106.596 240.271 108.626 240.271 111.131Z" fill="white"/>
<path d="M238.53 110.628H236.239V108.337C236.239 108.058 236.015 107.833 235.735 107.833C235.457 107.833 235.232 108.058 235.232 108.337V110.628H232.941C232.665 110.628 232.437 110.853 232.437 111.131C232.437 111.41 232.665 111.636 232.941 111.636H235.232V113.925C235.232 114.204 235.456 114.429 235.735 114.429C236.015 114.429 236.239 114.204 236.239 113.925V111.636H238.53C238.807 111.636 239.034 111.41 239.034 111.131C239.034 110.853 238.807 110.628 238.53 110.628Z" fill="#FBA2B0"/>
<path d="M237.96 165.085H195.375V177.729H237.96V165.085Z" fill="#E01236"/>
<path d="M237.96 165.085H195.375V167.558H237.96V165.085Z" fill="#FBA2B0"/>
<path d="M202.318 177.729L204.573 190.372H228.21L231.017 177.729H202.318Z" fill="#90021A"/>
<path d="M232.735 230.895C232.729 230.894 232.725 230.894 232.721 230.894C232.713 230.893 232.708 230.893 232.706 230.893C232.708 230.893 232.718 230.893 232.735 230.895ZM272.546 166.486C272.546 160.625 270.332 158.847 269.093 158.107C268.244 157.6 267.336 157.32 266.603 157.175C266.249 157.105 265.974 157.074 265.822 157.062C265.775 157.058 265.742 157.056 265.723 157.055C262.864 157.041 261.282 157.73 260.379 158.348C259.428 158.998 258.715 159.928 258.177 161.113C257.625 162.331 257.338 163.651 257.206 164.742C257.143 165.269 257.121 165.694 257.114 165.96C257.11 166.088 257.11 166.175 257.111 166.216L257.115 166.33V222.202C257.245 227.906 255.864 232.69 253.129 236.448C250.408 240.188 246.795 242.296 243.538 243.469C240.318 244.628 237.212 244.962 235.019 245.036C233.898 245.074 232.951 245.046 232.26 245.006C232.008 244.991 231.789 244.974 231.605 244.958C226.326 245.035 221.855 243.809 218.278 241.382C214.617 238.899 212.48 235.558 211.262 232.486C210.064 229.465 209.689 226.552 209.583 224.498C209.529 223.447 209.543 222.557 209.573 221.905C209.587 221.623 209.603 221.382 209.618 221.188V190.566H223.727V221.924L223.683 222.295C223.679 222.336 223.673 222.425 223.667 222.556C223.655 222.825 223.646 223.251 223.673 223.775C223.729 224.872 223.927 226.149 224.378 227.287C224.809 228.375 225.396 229.162 226.198 229.706C226.977 230.235 228.548 230.934 231.667 230.845L232.215 230.829L232.737 230.895C232.74 230.895 232.744 230.896 232.747 230.896C232.805 230.902 232.919 230.911 233.082 230.921C233.411 230.94 233.92 230.957 234.543 230.936C235.837 230.892 237.372 230.694 238.76 230.194C240.112 229.708 241.078 229.031 241.722 228.146C242.329 227.313 243.097 225.684 243.009 222.44L243.007 222.344V166.588C243.006 166.528 243.004 166.459 243.003 166.381C243.001 166.177 243.002 165.909 243.01 165.587C243.027 164.946 243.076 164.074 243.2 163.046C243.445 161.027 244.005 158.203 245.329 155.284C246.668 152.333 248.862 149.134 252.411 146.705C255.991 144.255 260.471 142.919 265.807 142.947L265.808 142.946H265.876C265.906 142.947 265.938 142.948 265.975 142.948C266.048 142.949 266.135 142.951 266.236 142.955C266.436 142.963 266.692 142.977 266.993 143.002C267.595 143.052 268.397 143.148 269.335 143.333C271.187 143.699 273.727 144.442 276.323 145.992C281.977 149.366 286.655 155.832 286.656 166.486V213.164H272.546V166.486Z" fill="#F15671"/>
<rect x="90" y="14" width="72" height="72" rx="36" fill="white"/>
<path d="M117.625 29.0388C118.125 27.7071 118.814 26.481 119.836 25.4875C123.924 21.4499 130.683 22.4646 133.457 27.538C135.543 31.3853 137.754 35.1481 139.902 38.9531C143.49 45.2737 147.12 51.5943 150.666 57.9361C153.649 63.242 150.416 69.9432 144.491 70.8521C140.862 71.4018 137.462 69.7106 135.585 66.4129C132.435 60.8533 129.264 55.2937 126.114 49.7552C126.052 49.6284 125.968 49.5227 125.885 49.417C125.551 49.1422 125.405 48.7406 125.197 48.3812C123.799 45.8868 122.36 43.4135 120.962 40.9402C120.065 39.3336 119.126 37.7482 118.229 36.1416C117.416 34.7041 117.041 33.1398 117.082 31.491C117.145 30.6454 117.249 29.7999 117.625 29.0388Z" fill="#3C8BD9"/>
<path d="M117.625 29.0388C117.437 29.7999 117.27 30.5609 117.228 31.3642C117.166 33.1398 117.604 34.7887 118.48 36.3319C120.774 40.3272 123.069 44.3436 125.343 48.3601C125.551 48.7194 125.718 49.0788 125.927 49.417C124.675 51.6155 123.424 53.7928 122.151 55.9913C120.399 59.0565 118.647 62.1428 116.874 65.208C116.79 65.208 116.769 65.1657 116.749 65.1023C116.728 64.9332 116.79 64.7852 116.832 64.6161C117.687 61.4452 116.978 58.6337 114.83 56.2238C113.515 54.7652 111.847 53.9408 109.928 53.666C107.424 53.3066 105.213 53.9619 103.232 55.5474C102.877 55.8222 102.648 56.2238 102.23 56.4352C102.147 56.4352 102.105 56.3929 102.084 56.3295C103.086 54.575 104.066 52.8204 105.067 51.0659C109.198 43.794 113.328 36.5221 117.479 29.2714C117.52 29.1868 117.583 29.1234 117.625 29.0388Z" fill="#FABC04"/>
<path d="M102.167 56.3929C102.563 56.0336 102.939 55.6531 103.356 55.3148C108.425 51.2561 116.038 54.1945 117.144 60.6208C117.415 62.1639 117.269 63.6437 116.81 65.1234C116.789 65.2503 116.769 65.3559 116.727 65.4828C116.539 65.821 116.372 66.1804 116.164 66.5186C114.307 69.6261 111.575 71.1692 107.987 70.9367C103.877 70.6407 100.644 67.5121 100.081 63.3689C99.8099 61.3606 100.206 59.4793 101.228 57.7458C101.437 57.3653 101.687 57.0271 101.917 56.6466C102.021 56.562 101.979 56.3929 102.167 56.3929Z" fill="#34A852"/>
<path d="M102.168 56.3929C102.084 56.4775 102.084 56.6255 101.938 56.6466C101.917 56.4986 102.001 56.4141 102.084 56.3084L102.168 56.3929Z" fill="#FABC04"/>
<path d="M116.727 65.4828C116.644 65.3348 116.727 65.2291 116.811 65.1234C116.832 65.1446 116.873 65.1868 116.894 65.208L116.727 65.4828Z" fill="#E1C025"/>
<rect x="307" y="42" width="72" height="72" rx="36" fill="white"/>
<path d="M320.295 84.5289C320.295 86.7543 320.784 88.4629 321.422 89.4965C322.259 90.8504 323.507 91.4239 324.78 91.4239C326.422 91.4239 327.924 91.0166 330.818 87.0137C333.137 83.8054 335.869 79.3019 337.707 76.4787L340.82 71.6956C342.983 68.3737 345.486 64.681 348.355 62.1779C350.698 60.135 353.226 59 355.769 59C360.04 59 364.107 61.4747 367.22 66.1159C370.627 71.199 372.281 77.6015 372.281 84.2087C372.281 88.1365 371.507 91.0226 370.19 93.3027C368.917 95.5078 366.436 97.7109 362.263 97.7109V91.4239C365.836 91.4239 366.728 88.1406 366.728 84.383C366.728 79.0283 365.479 73.0859 362.729 68.8399C360.777 65.8281 358.248 63.9878 355.465 63.9878C352.456 63.9878 350.034 66.2578 347.312 70.3052C345.865 72.4556 344.379 75.0762 342.711 78.0332L340.875 81.2861C337.186 87.8265 336.252 89.3161 334.407 91.7746C331.175 96.0794 328.414 97.7109 324.78 97.7109C320.469 97.7109 317.743 95.8443 316.055 93.0311C314.677 90.7389 314 87.7312 314 84.304L320.295 84.5289Z" fill="#0081FB"/>
<path d="M318.963 66.5598C321.849 62.1111 326.014 59 330.791 59C333.558 59 336.308 59.8188 339.18 62.1638C342.322 64.7276 345.67 68.9493 349.847 75.9071L351.345 78.4041C354.96 84.4276 357.018 87.5265 358.222 88.9878C359.77 90.8646 360.854 91.4239 362.263 91.4239C365.836 91.4239 366.728 88.1406 366.728 84.383L372.281 84.2087C372.281 88.1365 371.507 91.0226 370.189 93.3027C368.917 95.5078 366.436 97.7109 362.263 97.7109C359.669 97.7109 357.37 97.1475 354.829 94.7498C352.875 92.9095 350.591 89.6404 348.834 86.7016L343.607 77.9704C340.984 73.5885 338.578 70.3214 337.186 68.8419C335.688 67.2509 333.763 65.3295 330.69 65.3295C328.203 65.3295 326.091 67.0746 324.324 69.7438L318.963 66.5598Z" fill="url(#paint0_linear_2944_9153)"/>
<path d="M330.69 65.3295C328.203 65.3295 326.092 67.0746 324.324 69.7438C321.825 73.5156 320.295 79.1337 320.295 84.5289C320.295 86.7543 320.784 88.4629 321.422 89.4965L316.055 93.0311C314.677 90.7389 314 87.7312 314 84.304C314 78.0717 315.711 71.576 318.964 66.5598C321.85 62.1111 326.015 59 330.792 59L330.69 65.3295Z" fill="url(#paint1_linear_2944_9153)"/>
<rect x="73" y="198" width="72" height="72" rx="36" fill="white"/>
<path fill-rule="evenodd" clip-rule="evenodd" d="M110.461 224.508C109.489 224.621 108.748 225.411 108.68 226.407C108.65 226.836 108.659 226.865 109.631 229.368C111.842 235.062 112.378 236.433 112.468 236.626C112.686 237.093 112.993 237.533 113.377 237.927C113.671 238.23 113.865 238.392 114.194 238.612C114.77 238.997 115.057 239.104 117.302 239.769C119.488 240.417 120.683 240.848 121.713 241.359C123.046 242.022 123.977 242.775 124.566 243.669C124.988 244.311 125.362 245.461 125.525 246.619C125.588 247.072 125.589 248.073 125.525 248.482C125.388 249.37 125.114 250.114 124.694 250.737C124.471 251.068 124.549 251.013 124.873 250.609C125.791 249.467 126.726 247.515 127.204 245.744C127.781 243.602 127.86 241.301 127.43 239.123C126.592 234.883 123.917 231.223 120.15 229.164C119.913 229.034 119.011 228.561 117.789 227.925C117.603 227.829 117.35 227.697 117.227 227.632C117.103 227.567 116.85 227.434 116.665 227.338C116.479 227.241 115.945 226.963 115.478 226.719C115.011 226.476 114.488 226.203 114.316 226.113C113.793 225.84 113.442 225.656 113.18 225.519C111.968 224.885 111.456 224.628 111.31 224.584C111.156 224.537 110.767 224.477 110.669 224.485C110.648 224.487 110.555 224.497 110.461 224.508Z" fill="url(#paint2_radial_2944_9153)"/>
<path d="M113.049 245.711C112.982 245.751 112.888 245.809 112.84 245.839C112.791 245.87 112.685 245.937 112.602 245.988C112.3 246.176 111.495 246.676 110.804 247.106C110.35 247.389 110.282 247.431 109.705 247.792C109.499 247.921 109.28 248.057 109.218 248.095C109.156 248.132 108.892 248.296 108.631 248.459C108.37 248.622 107.915 248.906 107.62 249.089C107.325 249.272 106.796 249.601 106.446 249.819C106.096 250.038 105.635 250.325 105.422 250.456C105.209 250.588 105.013 250.715 104.985 250.739C104.944 250.774 103.051 251.958 102.101 252.542C101.379 252.985 100.544 253.282 99.6899 253.398C99.292 253.452 98.5392 253.453 98.1425 253.399C97.0668 253.252 96.0758 252.847 95.2272 252.208C94.8943 251.957 94.2675 251.326 94.0279 250.999C93.4633 250.23 93.098 249.405 92.9088 248.472C92.8653 248.257 92.8241 248.076 92.8174 248.069C92.7997 248.051 92.8316 248.375 92.8892 248.799C92.9492 249.241 93.0768 249.879 93.2143 250.425C94.2784 254.648 97.3063 258.083 101.405 259.718C102.586 260.188 103.777 260.484 105.073 260.63C105.56 260.685 106.938 260.707 107.446 260.668C109.777 260.49 111.806 259.798 113.888 258.47C114.074 258.352 114.422 258.13 114.663 257.978C114.903 257.825 115.206 257.631 115.337 257.546C115.467 257.462 115.625 257.362 115.686 257.325C115.748 257.287 115.872 257.209 115.961 257.15C116.051 257.092 116.433 256.848 116.81 256.609L118.321 255.646L118.839 255.316L118.858 255.304L118.915 255.267L118.942 255.25L119.324 255.007L120.644 254.166C122.325 253.1 122.827 252.726 123.608 251.954C123.933 251.632 124.424 251.083 124.449 251.013C124.454 250.999 124.541 250.863 124.643 250.711C125.056 250.094 125.332 249.338 125.468 248.447C125.532 248.034 125.531 247.026 125.468 246.57C125.345 245.688 125.065 244.687 124.764 244.05C124.27 243.006 123.218 242.057 121.707 241.292C121.289 241.081 120.858 240.888 120.81 240.891C120.787 240.892 119.381 241.759 117.684 242.818C115.988 243.877 114.516 244.796 114.413 244.861C114.31 244.925 114.133 245.034 114.019 245.103L113.049 245.711Z" fill="url(#paint3_radial_2944_9153)"/>
<path d="M92.8198 240.794L92.8271 248.155L92.9222 248.583C93.2196 249.919 93.7349 250.883 94.6306 251.778C95.052 252.199 95.3742 252.453 95.8307 252.723C96.7969 253.296 97.8367 253.579 98.9756 253.578C100.169 253.577 101.2 253.279 102.264 252.628C102.443 252.518 103.146 252.085 103.826 251.665L105.062 250.901V242.167V233.433L105.062 225.444C105.062 220.346 105.053 217.319 105.036 217.082C104.935 215.589 104.312 214.217 103.264 213.18C102.943 212.861 102.668 212.648 101.85 212.084C101.442 211.803 100.697 211.289 100.193 210.941C99.6891 210.593 98.859 210.02 98.3481 209.668C97.8373 209.315 97.1088 208.812 96.7292 208.55C95.9383 208.004 95.8764 207.966 95.6373 207.88C95.3263 207.769 94.9968 207.728 94.6835 207.762C93.7703 207.86 93.0393 208.521 92.8493 209.419C92.8197 209.558 92.8143 211.418 92.8139 221.509L92.8135 233.433H92.8125L92.8198 240.794Z" fill="url(#paint4_linear_2944_9153)"/>
<rect x="271" y="246" width="72" height="72" rx="36" fill="white"/>
<mask id="mask0_2944_9153" style="mask-type:luminance" maskUnits="userSpaceOnUse" x="279" y="256" width="28" height="27">
<path d="M306.608 256.955H279.536V282.927H306.608V256.955Z" fill="white"/>
</mask>
<g mask="url(#mask0_2944_9153)">
<mask id="mask1_2944_9153" style="mask-type:luminance" maskUnits="userSpaceOnUse" x="279" y="256" width="28" height="27">
<path d="M306.607 256.955H279.536V282.926H306.607V256.955Z" fill="white"/>
</mask>
<g mask="url(#mask1_2944_9153)">
<mask id="mask2_2944_9153" style="mask-type:luminance" maskUnits="userSpaceOnUse" x="279" y="256" width="28" height="27">
<path d="M306.608 256.955H279.536V282.927H306.608V256.955Z" fill="white"/>
</mask>
<g mask="url(#mask2_2944_9153)">
<mask id="mask3_2944_9153" style="mask-type:luminance" maskUnits="userSpaceOnUse" x="279" y="256" width="28" height="27">
<path d="M306.607 256.955H279.536V282.926H306.607V256.955Z" fill="white"/>
</mask>
<g mask="url(#mask3_2944_9153)">
<path fill-rule="evenodd" clip-rule="evenodd" d="M291.908 259.532C291.503 259.927 291.158 260.371 290.875 260.863L279.589 280.473H303.96L291.908 259.532Z" fill="#E10500"/>
</g>
</g>
</g>
<mask id="mask4_2944_9153" style="mask-type:luminance" maskUnits="userSpaceOnUse" x="279" y="256" width="28" height="27">
<path d="M306.607 256.955H279.536V282.926H306.607V256.955Z" fill="white"/>
</mask>
<g mask="url(#mask4_2944_9153)">
<mask id="mask5_2944_9153" style="mask-type:luminance" maskUnits="userSpaceOnUse" x="279" y="256" width="28" height="27">
<path d="M306.608 256.955H279.536V282.927H306.608V256.955Z" fill="white"/>
</mask>
<g mask="url(#mask5_2944_9153)">
<mask id="mask6_2944_9153" style="mask-type:luminance" maskUnits="userSpaceOnUse" x="279" y="256" width="28" height="27">
<path d="M306.607 256.955H279.536V282.926H306.607V256.955Z" fill="white"/>
</mask>
<g mask="url(#mask6_2944_9153)">
<path fill-rule="evenodd" clip-rule="evenodd" d="M291.908 259.532C291.503 259.927 291.158 260.371 290.875 260.863L279.589 280.473H303.96L291.908 259.532Z" fill="#E10500"/>
</g>
</g>
</g>
</g>
<path fill-rule="evenodd" clip-rule="evenodd" d="M318.733 257.75C318.184 257.597 317.625 257.519 317.053 257.519H296.107C295.532 257.519 294.967 257.6 294.428 257.75L306.58 278.607L318.733 257.75Z" fill="#F73232"/>
<path fill-rule="evenodd" clip-rule="evenodd" d="M279.535 283.373L290.846 303.234C291.134 303.736 291.483 304.187 291.881 304.58L303.96 283.373H279.535Z" fill="#FC5047"/>
<path fill-rule="evenodd" clip-rule="evenodd" d="M322.251 303.233L333.507 283.373H309.202L321.221 304.58C321.628 304.177 321.971 303.729 322.251 303.233Z" fill="#FF7061"/>
<path fill-rule="evenodd" clip-rule="evenodd" d="M294.428 305.898C294.967 306.05 295.531 306.129 296.107 306.129H317.055C317.63 306.129 318.194 306.05 318.733 305.898L306.582 285.041L294.428 305.898Z" fill="#FC8D7E"/>
<path fill-rule="evenodd" clip-rule="evenodd" d="M333.507 280.275L322.251 260.415C321.968 259.919 321.626 259.47 321.221 259.068L309.202 280.275L333.507 280.275Z" fill="#FC5047"/>
<defs>
<linearGradient id="paint0_linear_2944_9153" x1="326.363" y1="82.713" x2="366.493" y2="84.7397" gradientUnits="userSpaceOnUse">
<stop stop-color="#0064E1"/>
<stop offset="0.4" stop-color="#0064E1"/>
<stop offset="0.83" stop-color="#0073EE"/>
<stop offset="1" stop-color="#0082FB"/>
</linearGradient>
<linearGradient id="paint1_linear_2944_9153" x1="323.12" y1="87.1718" x2="323.12" y2="72.3765" gradientUnits="userSpaceOnUse">
<stop stop-color="#0082FB"/>
<stop offset="1" stop-color="#0064E0"/>
</linearGradient>
<radialGradient id="paint2_radial_2944_9153" cx="0" cy="0" r="1" gradientTransform="matrix(-17.8369 -20.6003 14.8118 -12.844 126.507 245.082)" gradientUnits="userSpaceOnUse">
<stop stop-color="#00CACC"/>
<stop offset="1" stop-color="#048FCE"/>
</radialGradient>
<radialGradient id="paint3_radial_2944_9153" cx="0" cy="0" r="1" gradientTransform="matrix(27.0714 -11.7028 19.3322 45.514 97.3558 255.035)" gradientUnits="userSpaceOnUse">
<stop stop-color="#00BBEC"/>
<stop offset="1" stop-color="#2756A9"/>
</radialGradient>
<linearGradient id="paint4_linear_2944_9153" x1="98.9375" y1="207.75" x2="98.9375" y2="253.578" gradientUnits="userSpaceOnUse">
<stop stop-color="#00BBEC"/>
<stop offset="1" stop-color="#2756A9"/>
</linearGradient>
</defs>
</svg>
