<svg width="456" height="320" viewBox="0 0 456 320" fill="none" xmlns="http://www.w3.org/2000/svg">
<path d="M222.308 315C307.912 315 377.308 245.604 377.308 160C377.308 74.3958 307.912 4.99998 222.308 4.99998C136.704 4.99998 67.3081 74.3958 67.3081 160C67.3081 245.604 136.704 315 222.308 315Z" fill="#F8E3E6"/>
<path d="M227.225 311.107L252.229 297.497C308.391 266.928 343.414 207.657 343.414 143.179V78.0836C343.414 73.016 339.441 68.8099 334.43 68.6723C275.34 67.0537 238.682 49.8117 226.616 43.1378C223.874 41.6207 220.541 41.6207 217.798 43.1378C205.732 49.8117 169.074 67.0531 109.984 68.6723C104.973 68.8099 101 73.016 101 78.0836V143.179C101 207.657 136.023 266.928 192.184 297.497L217.189 311.107C220.321 312.812 224.092 312.812 227.225 311.107Z" fill="white"/>
<path d="M331.429 85.7469V140.987C331.429 202.479 298.191 258.762 244.689 287.889L226.952 297.539C225.477 298.34 223.842 298.749 222.207 298.749C220.572 298.749 218.937 298.34 217.462 297.539L199.724 287.889C146.224 258.762 112.984 202.479 112.984 140.987V85.7469C112.984 83.1341 115.052 80.9939 117.657 80.8094C167.992 77.387 202.553 64.0495 220.042 55.5057C220.739 55.1612 221.469 54.993 222.206 54.993C222.944 54.993 223.673 55.1612 224.37 55.5057C241.859 64.0502 276.429 77.387 326.755 80.8094C329.361 80.9939 331.429 83.1341 331.429 85.7469Z" fill="#E01236"/>
<path d="M331.429 85.7469V140.987C331.429 202.479 298.19 258.762 244.689 287.889L226.951 297.539C225.476 298.34 223.841 298.749 222.207 298.749V54.993C222.944 54.993 223.673 55.1612 224.371 55.5057C241.86 64.0502 276.429 77.387 326.756 80.8094C329.361 80.9939 331.429 83.1341 331.429 85.7469Z" fill="#B90827"/>
<path d="M180.642 252.228L183.472 253.077C183.284 253.879 183.001 254.54 182.576 255.059C182.152 255.578 181.68 256.002 181.067 256.238C180.453 256.521 179.699 256.662 178.755 256.662C177.623 256.662 176.727 256.521 175.972 256.191C175.265 255.861 174.651 255.295 174.132 254.445C173.614 253.643 173.331 252.559 173.331 251.285C173.331 249.587 173.802 248.266 174.699 247.323C175.595 246.379 176.916 245.955 178.567 245.955C179.887 245.955 180.878 246.238 181.633 246.756C182.388 247.275 182.954 248.077 183.284 249.209L180.453 249.823C180.359 249.492 180.265 249.257 180.123 249.115C179.935 248.879 179.746 248.69 179.463 248.549C179.18 248.407 178.897 248.36 178.614 248.36C177.906 248.36 177.34 248.643 176.963 249.257C176.68 249.681 176.538 250.389 176.538 251.285C176.538 252.417 176.727 253.219 177.057 253.644C177.387 254.068 177.906 254.304 178.519 254.304C179.133 254.304 179.604 254.115 179.887 253.785C180.265 253.36 180.501 252.889 180.642 252.228Z" fill="white"/>
<path d="M184.604 251.285C184.604 249.587 185.076 248.266 186.02 247.322C186.963 246.379 188.284 245.907 189.982 245.907C191.727 245.907 193.048 246.379 193.992 247.275C194.935 248.219 195.407 249.492 195.407 251.19C195.407 252.417 195.218 253.407 194.794 254.162C194.369 254.917 193.803 255.53 193.001 255.955C192.246 256.379 191.256 256.615 190.124 256.615C188.944 256.615 188.001 256.426 187.199 256.049C186.444 255.672 185.831 255.106 185.312 254.257C184.793 253.407 184.604 252.511 184.604 251.285ZM187.812 251.285C187.812 252.323 188.001 253.077 188.378 253.549C188.756 254.021 189.274 254.257 189.982 254.257C190.69 254.257 191.209 254.021 191.586 253.596C191.963 253.124 192.152 252.323 192.152 251.19C192.152 250.2 191.963 249.492 191.539 249.068C191.161 248.596 190.595 248.407 189.935 248.407C189.274 248.407 188.756 248.643 188.378 249.115C188.001 249.492 187.812 250.247 187.812 251.285Z" fill="white"/>
<path d="M197.058 246.096H201.256L202.86 252.417L204.464 246.096H208.662V256.474H206.021V248.549L203.992 256.474H201.634L199.605 248.549V256.474H196.964V246.096H197.058Z" fill="white"/>
<path d="M210.738 246.096H216.068C217.247 246.096 218.097 246.379 218.663 246.945C219.229 247.511 219.512 248.266 219.512 249.304C219.512 250.341 219.182 251.19 218.568 251.756C217.955 252.37 216.964 252.653 215.691 252.653H213.945V256.521H210.738V246.096ZM213.945 250.53H214.747C215.361 250.53 215.785 250.436 216.068 250.2C216.304 249.964 216.446 249.728 216.446 249.398C216.446 249.068 216.351 248.785 216.115 248.549C215.88 248.313 215.502 248.219 214.889 248.219H213.993V250.53H213.945Z" fill="white"/>
<path d="M221.209 246.096H224.417V253.926H229.417V256.474H221.209V246.096Z" fill="white"/>
<path d="M231.021 246.096H234.229V256.474H231.021V246.096Z" fill="white"/>
<path d="M242.908 254.728H239.276L238.757 256.426H235.502L239.418 246.049H242.908L246.824 256.426H243.474L242.908 254.728ZM242.248 252.511L241.116 248.785L239.984 252.511H242.248Z" fill="white"/>
<path d="M247.814 246.096H250.786L254.701 251.851V246.096H257.72V256.474H254.701L250.833 250.766V256.474H247.814V246.096Z" fill="white"/>
<path d="M259.136 246.096H268.9V248.643H265.645V256.474H262.438V248.643H259.183V246.096H259.136Z" fill="white"/>
<path d="M173 206.613H188.425C191.491 206.613 193.944 207.038 195.784 207.84C197.671 208.689 199.227 209.868 200.407 211.378C201.633 212.934 202.529 214.727 203.048 216.755C203.614 218.784 203.897 220.953 203.897 223.265C203.897 226.85 203.473 229.633 202.671 231.614C201.869 233.595 200.737 235.246 199.275 236.614C197.812 237.935 196.256 238.831 194.605 239.303C192.34 239.916 190.265 240.199 188.425 240.199H173V206.613ZM183.378 214.208V232.558H185.925C188.095 232.558 189.652 232.322 190.548 231.85C191.444 231.378 192.199 230.529 192.718 229.35C193.237 228.171 193.52 226.189 193.52 223.501C193.52 219.916 192.954 217.51 191.774 216.189C190.595 214.868 188.708 214.208 185.972 214.208H183.378Z" fill="white"/>
<path d="M206.775 229.114L216.681 228.501C216.917 230.105 217.342 231.331 218.002 232.18C219.087 233.548 220.597 234.209 222.578 234.209C224.04 234.209 225.219 233.878 226.021 233.171C226.823 232.463 227.248 231.661 227.248 230.765C227.248 229.916 226.87 229.114 226.116 228.407C225.361 227.699 223.568 227.086 220.785 226.472C216.21 225.435 213.002 224.067 211.021 222.369C209.04 220.67 208.096 218.5 208.096 215.859C208.096 214.114 208.615 212.51 209.606 210.953C210.596 209.396 212.106 208.217 214.134 207.321C216.163 206.425 218.898 206 222.389 206C226.682 206 229.984 206.802 232.201 208.406C234.465 210.01 235.786 212.557 236.21 216.048L226.399 216.614C226.116 215.104 225.597 214.019 224.748 213.312C223.899 212.604 222.767 212.274 221.304 212.274C220.078 212.274 219.182 212.51 218.568 213.029C217.955 213.547 217.672 214.161 217.672 214.915C217.672 215.434 217.908 215.953 218.427 216.378C218.898 216.802 220.078 217.227 221.917 217.604C226.446 218.595 229.701 219.585 231.682 220.576C233.663 221.567 235.078 222.84 235.975 224.303C236.871 225.765 237.295 227.463 237.295 229.303C237.295 231.473 236.682 233.454 235.503 235.246C234.324 237.086 232.625 238.454 230.503 239.397C228.38 240.341 225.644 240.813 222.389 240.813C216.681 240.813 212.719 239.728 210.502 237.511C208.332 235.294 207.106 232.51 206.775 229.114Z" fill="white"/>
<path d="M239.937 229.114L249.843 228.501C250.078 230.105 250.503 231.331 251.163 232.18C252.248 233.548 253.758 234.209 255.739 234.209C257.201 234.209 258.381 233.878 259.183 233.171C259.984 232.463 260.409 231.661 260.409 230.765C260.409 229.916 260.032 229.114 259.277 228.407C258.522 227.699 256.73 227.086 253.946 226.472C249.371 225.435 246.163 224.067 244.182 222.369C242.248 220.67 241.257 218.5 241.257 215.859C241.257 214.114 241.776 212.51 242.767 210.953C243.757 209.396 245.267 208.217 247.295 207.321C249.324 206.425 252.06 206 255.55 206C259.843 206 263.145 206.802 265.362 208.406C267.626 210.01 268.947 212.557 269.372 216.048L259.56 216.614C259.277 215.104 258.758 214.019 257.909 213.312C257.06 212.604 255.928 212.274 254.465 212.274C253.239 212.274 252.343 212.51 251.729 213.029C251.116 213.547 250.833 214.161 250.833 214.915C250.833 215.434 251.069 215.953 251.588 216.378C252.06 216.802 253.239 217.227 255.079 217.604C259.607 218.595 262.862 219.585 264.843 220.576C266.824 221.567 268.239 222.84 269.136 224.303C270.032 225.765 270.457 227.463 270.457 229.303C270.457 231.473 269.843 233.454 268.664 235.246C267.485 237.086 265.787 238.454 263.664 239.397C261.541 240.341 258.805 240.813 255.55 240.813C249.843 240.813 245.88 239.728 243.663 237.511C241.446 235.294 240.22 232.51 239.937 229.114Z" fill="white"/>
<path d="M294.666 150.558L304.139 147.577L301.061 140.749C298.801 143.586 296.541 147.24 294.666 150.558ZM291.445 119.352L272.884 78L137 85.6934L174.649 188.4L247.111 165.56C242.495 158.925 240.813 151.039 246.15 147.192C252.112 142.865 261.104 147.865 266.826 154.934C272.355 145.702 287.886 124.208 291.445 119.352Z" fill="#F15671"/>
<path d="M268.651 107.884C274.325 107.884 278.941 103.556 278.941 98.1709C278.941 92.7855 274.325 88.458 268.651 88.458C262.977 88.458 258.361 92.7855 258.361 98.1709C258.361 103.508 262.977 107.884 268.651 107.884ZM260.236 112.067H277.065V156.064H260.236V112.067Z" fill="#FEFEFE"/>
<path d="M251.918 124.905C252.062 124.953 252.158 124.905 252.158 124.761V113.606C252.158 113.461 252.062 113.317 251.918 113.221C251.918 113.221 249.706 111.779 242.974 111.394C242.637 111.202 236.723 111.153 235.136 111.394C210.614 113.365 209.7 131.108 209.7 131.878V136.205C209.7 136.734 209.7 154.861 235.136 156.448C237.637 156.641 242.493 156.448 242.974 156.448C248.84 156.448 252.879 154.669 252.879 154.669C253.024 154.621 253.12 154.477 253.12 154.333V143.898C253.12 143.754 253.024 143.706 252.927 143.802C252.927 143.802 251.1 145.245 243.118 146.062C240.858 146.303 239.752 146.206 238.935 146.062C227.587 144.139 227.058 135.868 227.058 135.868C227.058 135.724 227.01 135.484 227.01 135.388V132.214C227.01 132.07 227.01 131.829 227.058 131.733C227.058 131.733 227.828 122.838 238.935 121.876H243.118C247.975 122.501 251.918 124.905 251.918 124.905Z" fill="#FEFEFE"/>
<path d="M162.963 155.919C162.963 156.064 163.059 156.16 163.203 156.16H179.6C179.744 156.16 179.84 156.064 179.84 155.919V143.129C179.84 142.985 179.936 142.889 180.081 142.889C180.081 142.889 206.286 144.764 206.286 127.213C206.286 113.317 189.842 111.827 184.456 112.067C184.36 112.067 163.203 112.067 163.203 112.067C163.059 112.067 162.963 112.163 162.963 112.308V155.919ZM179.552 133.128V121.636H183.591C183.591 121.636 189.409 121.876 189.89 125.867C189.986 126.156 189.986 128.127 189.89 128.223C189.12 132.887 184.072 133.128 184.072 133.128H179.552Z" fill="#FEFEFE"/>
<path d="M269.133 177.293C270.48 177.293 271.538 177.293 273.269 176.523C279.231 173.398 299.378 124.208 320.631 109.062C320.775 108.966 320.92 108.822 321.016 108.677C321.16 108.485 321.16 108.293 321.16 108.293C321.16 108.293 321.16 107.283 318.035 107.283C299.138 106.754 279.471 146.423 269.133 162.098C268.989 162.291 268.316 162.098 268.316 162.098C268.316 162.098 261.392 153.924 255.382 150.799C255.237 150.751 254.564 150.51 253.843 150.558C253.362 150.558 250.573 151.135 249.275 152.482C247.736 154.116 247.784 155.03 247.784 157.001C247.784 157.146 247.881 157.819 248.073 158.155C249.563 160.752 256.247 169.984 261.777 175.081C262.594 175.706 263.892 177.293 269.133 177.293Z" fill="#2BBC5D"/>
</svg>
