<svg width="456" height="320" viewBox="0 0 456 320" fill="none" xmlns="http://www.w3.org/2000/svg">
<path d="M228.463 310C311.306 310 378.463 242.843 378.463 160C378.463 77.1573 311.306 10 228.463 10C145.62 10 78.4629 77.1573 78.4629 160C78.4629 242.843 145.62 310 228.463 310Z" fill="#F8E3E6"/>
<g opacity="0.3">
<path d="M216.366 261.284C215.568 260.909 215.225 259.957 215.6 259.159C216.329 257.608 217.002 256.003 217.599 254.387C217.902 253.569 218.802 253.147 219.622 253.433C219.631 253.436 219.641 253.439 219.651 253.443C220.478 253.749 220.901 254.668 220.595 255.495C219.966 257.196 219.258 258.886 218.49 260.518C218.14 261.265 217.284 261.613 216.522 261.347C216.47 261.329 216.417 261.308 216.366 261.284ZM219.968 246.323C220.339 244.642 220.642 242.929 220.868 241.23C220.985 240.357 221.788 239.742 222.662 239.858C223.539 239.978 224.15 240.778 224.034 241.652C223.796 243.44 223.477 245.243 223.087 247.012C222.896 247.873 222.044 248.417 221.183 248.227C221.12 248.213 221.059 248.196 221 248.175C220.246 247.913 219.791 247.122 219.968 246.323ZM221.395 232.847C221.383 231.13 221.296 229.393 221.136 227.683C221.054 226.805 221.7 226.026 222.578 225.944C223.455 225.863 224.234 226.507 224.317 227.386C224.485 229.187 224.576 231.017 224.589 232.824C224.595 233.706 223.885 234.426 223.003 234.433C222.815 234.434 222.634 234.403 222.467 234.344C221.847 234.129 221.4 233.541 221.395 232.847ZM219.773 219.39C219.377 217.717 218.903 216.042 218.366 214.411C218.09 213.573 218.546 212.67 219.383 212.395C220.221 212.12 221.123 212.575 221.4 213.412C221.965 215.129 222.463 216.893 222.881 218.653C223.084 219.511 222.553 220.372 221.695 220.575C221.388 220.648 221.081 220.627 220.803 220.53C220.305 220.357 219.904 219.941 219.773 219.39ZM215.193 206.63C214.437 205.09 213.604 203.561 212.718 202.086C212.264 201.329 212.509 200.348 213.265 199.894C214.021 199.44 215.002 199.685 215.456 200.441C216.388 201.993 217.264 203.602 218.06 205.222C218.449 206.014 218.122 206.971 217.33 207.359C216.931 207.555 216.49 207.57 216.101 207.434C215.718 207.301 215.386 207.022 215.193 206.63ZM207.904 195.201C206.825 193.865 205.675 192.559 204.486 191.318C203.876 190.682 203.897 189.67 204.533 189.06C205.17 188.45 206.181 188.471 206.791 189.108C208.043 190.413 209.253 191.788 210.389 193.194C210.943 193.881 210.836 194.886 210.15 195.44C209.704 195.8 209.124 195.881 208.62 195.705C208.348 195.61 208.098 195.442 207.904 195.201ZM153.54 171.506C153.46 170.628 154.106 169.85 154.985 169.77C156.784 169.605 158.615 169.517 160.426 169.507C161.309 169.503 162.027 170.214 162.031 171.096C162.036 171.978 161.325 172.696 160.443 172.701C158.723 172.71 156.985 172.794 155.276 172.951C155.042 172.972 154.815 172.942 154.606 172.869C154.033 172.67 153.599 172.15 153.54 171.506ZM198.269 185.678C196.92 184.616 195.509 183.599 194.074 182.657C193.337 182.172 193.132 181.182 193.616 180.445C194.101 179.708 195.089 179.507 195.828 179.987C197.339 180.98 198.825 182.05 200.245 183.169C200.938 183.715 201.057 184.719 200.511 185.412C200.078 185.961 199.357 186.15 198.731 185.932C198.568 185.875 198.412 185.791 198.269 185.678ZM167.459 171.448C167.577 170.574 168.381 169.961 169.255 170.079C171.046 170.321 172.849 170.644 174.616 171.038C175.478 171.226 176.019 172.083 175.827 172.944C175.636 173.804 174.782 174.347 173.921 174.155C172.242 173.781 170.528 173.475 168.827 173.245C168.718 173.23 168.614 173.204 168.514 173.169C167.812 172.925 167.355 172.213 167.459 171.448ZM186.749 178.548C185.198 177.815 183.594 177.139 181.983 176.54C181.156 176.233 180.735 175.313 181.043 174.486C181.346 173.671 182.246 173.25 183.064 173.535C183.075 173.539 183.086 173.542 183.096 173.547C184.793 174.177 186.481 174.889 188.113 175.66C188.911 176.038 189.252 176.989 188.875 177.787C188.523 178.531 187.669 178.878 186.908 178.613C186.854 178.594 186.801 178.573 186.749 178.548Z" fill="#FBA2B0"/>
<path d="M143.577 174.899C143.874 175.002 144.205 175.02 144.531 174.928C145.324 174.706 146.134 174.498 146.941 174.307C147.799 174.105 148.331 173.244 148.128 172.386C147.926 171.528 147.065 170.995 146.207 171.199C145.359 171.399 144.506 171.619 143.671 171.852C142.822 172.089 142.326 172.971 142.563 173.82C142.709 174.344 143.1 174.733 143.577 174.899Z" fill="#FBA2B0"/>
</g>
<g opacity="0.3">
<path d="M105.527 205.275C106.255 205.529 107.079 205.224 107.457 204.524C107.847 203.799 108.259 203.07 108.681 202.358C109.131 201.599 108.881 200.619 108.122 200.169C107.36 199.718 106.384 199.97 105.934 200.728C105.489 201.479 105.055 202.246 104.644 203.009C104.226 203.786 104.517 204.754 105.293 205.173C105.369 205.214 105.448 205.248 105.527 205.275Z" fill="#FBA2B0"/>
<path d="M136.81 292.419C135.992 292.088 135.597 291.157 135.927 290.339C136.258 289.522 137.188 289.128 138.007 289.457C139.563 290.087 141.171 290.659 142.803 291.167C143.642 291.425 144.116 292.324 143.854 293.166C143.592 294.008 142.697 294.479 141.855 294.217C141.147 293.997 140.447 293.767 139.753 293.525C138.763 293.18 137.772 292.808 136.81 292.419ZM149.01 294.393C149.156 293.524 149.979 292.936 150.848 293.082C152.519 293.361 154.218 293.573 155.901 293.711C156.779 293.781 157.434 294.554 157.362 295.433C157.29 296.312 156.519 296.966 155.64 296.894C153.869 296.749 152.079 296.526 150.322 296.232C150.231 296.216 150.142 296.194 150.058 296.164C149.337 295.913 148.88 295.172 149.01 294.393ZM128.984 288.613C127.443 287.728 125.919 286.765 124.454 285.75C123.729 285.248 123.548 284.253 124.05 283.528C124.552 282.803 125.547 282.623 126.273 283.124C127.663 284.088 129.11 285.003 130.574 285.842C131.339 286.282 131.603 287.258 131.164 288.023C130.775 288.699 129.966 288.984 129.255 288.736C129.163 288.704 129.072 288.663 128.984 288.613ZM162.661 295.503C162.612 294.623 163.287 293.869 164.167 293.82C165.855 293.726 167.559 293.559 169.232 293.323C170.106 293.199 170.913 293.807 171.036 294.681C171.159 295.554 170.552 296.362 169.678 296.485C167.917 296.734 166.122 296.91 164.345 297.009C164.13 297.021 163.923 296.99 163.731 296.924C163.138 296.717 162.699 296.169 162.661 295.503ZM117.662 280.319C116.355 279.118 115.08 277.844 113.874 276.532C113.277 275.883 113.319 274.873 113.968 274.276C114.618 273.678 115.628 273.721 116.225 274.37C117.371 275.616 118.581 276.826 119.823 277.967C120.473 278.564 120.515 279.574 119.919 280.224C119.474 280.707 118.8 280.854 118.217 280.651C118.017 280.582 117.828 280.471 117.662 280.319ZM108.435 269.744C107.419 268.282 106.453 266.761 105.563 265.222C105.122 264.458 105.383 263.481 106.147 263.04C106.912 262.598 107.888 262.859 108.329 263.624C109.174 265.086 110.092 266.532 111.057 267.921C111.561 268.645 111.381 269.64 110.657 270.144C110.221 270.447 109.686 270.502 109.22 270.34C108.912 270.233 108.635 270.031 108.435 269.744ZM101.731 257.408C101.057 255.759 100.445 254.063 99.9123 252.368C99.6479 251.527 100.116 250.631 100.957 250.366C101.8 250.101 102.695 250.57 102.959 251.411C103.465 253.022 104.046 254.632 104.687 256.2C105.021 257.016 104.629 257.949 103.813 258.282C103.438 258.435 103.039 258.436 102.684 258.312C102.267 258.167 101.911 257.849 101.731 257.408ZM97.877 243.904C97.58 242.148 97.3546 240.358 97.2074 238.586C97.1343 237.707 97.7876 236.935 98.6668 236.862C99.5442 236.789 100.317 237.443 100.39 238.322C100.53 240.004 100.744 241.703 101.026 243.372C101.173 244.241 100.588 245.065 99.7181 245.212C99.4433 245.259 99.1735 245.232 98.9279 245.147C98.3957 244.961 97.9779 244.499 97.877 243.904ZM97.0847 229.876C97.1817 228.102 97.3561 226.308 97.603 224.545C97.7253 223.671 98.5326 223.062 99.4061 223.184C100.277 223.306 100.889 224.113 100.766 224.987C100.532 226.662 100.366 228.366 100.274 230.051C100.226 230.931 99.4724 231.606 98.5919 231.558C98.4386 231.549 98.2913 231.52 98.1533 231.472C97.4981 231.244 97.0449 230.603 97.0847 229.876ZM99.3894 216.031C99.7438 214.77 100.142 213.505 100.571 212.271C100.727 211.824 100.887 211.38 101.052 210.939C101.36 210.113 102.275 209.672 103.106 210.001C103.932 210.308 104.352 211.228 104.044 212.055C103.888 212.474 103.735 212.896 103.588 213.321C103.179 214.495 102.801 215.697 102.464 216.895C102.225 217.744 101.343 218.239 100.494 218C100.463 217.991 100.431 217.981 100.4 217.971C99.6091 217.695 99.1594 216.848 99.3894 216.031Z" fill="#FBA2B0"/>
<path d="M177.272 294.642C177.572 294.746 177.905 294.763 178.233 294.669C179.065 294.433 179.907 294.174 180.737 293.9C181.574 293.623 182.029 292.72 181.753 291.883C181.476 291.045 180.574 290.59 179.736 290.867C178.948 291.127 178.148 291.373 177.359 291.598C176.511 291.839 176.019 292.722 176.26 293.571C176.408 294.091 176.798 294.477 177.272 294.642Z" fill="#FBA2B0"/>
</g>
<path d="M190.611 270.733C190.882 270.566 191.018 270.246 190.949 269.935L188.973 261.068C191.986 258.08 194.543 254.591 196.498 250.687L205.533 249.8C205.85 249.769 206.112 249.54 206.186 249.23L208.714 238.631C208.788 238.321 208.657 237.999 208.389 237.828L200.727 232.958C200.745 228.592 200.038 224.324 198.698 220.298L204.463 213.278C204.665 213.031 204.689 212.684 204.522 212.413L198.815 203.13C198.648 202.859 198.328 202.724 198.017 202.793L189.15 204.768C186.163 201.756 182.673 199.199 178.769 197.244L177.882 188.209C177.851 187.892 177.622 187.63 177.312 187.556L166.713 185.027C166.403 184.954 166.081 185.084 165.91 185.353L161.04 193.015C156.674 192.997 152.406 193.704 148.38 195.044L141.36 189.278C141.114 189.076 140.766 189.053 140.495 189.22L131.213 194.927C130.942 195.093 130.806 195.414 130.875 195.724L132.85 204.592C129.838 207.579 127.281 211.069 125.326 214.972L116.291 215.86C115.974 215.891 115.712 216.12 115.638 216.429L113.11 227.029C113.036 227.338 113.167 227.661 113.435 227.832L121.097 232.702C121.079 237.068 121.786 241.336 123.126 245.361L117.361 252.382C117.158 252.628 117.135 252.975 117.302 253.247L123.009 262.529C123.175 262.8 123.496 262.936 123.807 262.867L132.674 260.891C135.661 263.904 139.151 266.461 143.054 268.416L143.942 277.451C143.973 277.767 144.202 278.03 144.512 278.104L155.111 280.632C155.421 280.706 155.743 280.575 155.914 280.306L160.784 272.645C165.15 272.662 169.418 271.955 173.443 270.616L180.464 276.381C180.71 276.583 181.057 276.607 181.329 276.44L190.611 270.733Z" fill="#FBA2B0"/>
<path d="M155.84 242.538C150.487 239.741 148.407 233.111 151.204 227.758C152.558 225.164 154.842 223.254 157.634 222.379C160.425 221.503 163.39 221.766 165.983 223.122C171.336 225.919 173.416 232.548 170.62 237.902C168.075 242.772 162.358 244.933 157.316 243.177C156.816 243.003 156.323 242.79 155.84 242.538ZM158.398 224.817C156.258 225.488 154.507 226.953 153.468 228.941C151.324 233.045 152.919 238.129 157.023 240.273C161.128 242.42 166.211 240.823 168.355 236.718C170.499 232.615 168.905 227.531 164.8 225.387C164.428 225.192 164.047 225.028 163.657 224.892C161.966 224.303 160.138 224.271 158.398 224.817Z" fill="white"/>
<path d="M151.902 258.043C152.768 258.345 153.654 258.604 154.558 258.82C154.843 258.888 155.129 258.951 155.415 259.01C156.829 259.3 158.263 259.476 159.696 259.537C159.716 259.538 159.735 259.539 159.755 259.54C159.81 259.542 159.866 259.544 159.921 259.545C160.029 259.549 160.137 259.552 160.245 259.555C160.529 259.561 160.773 259.381 160.862 259.127C160.884 259.065 160.896 258.999 160.898 258.93C160.905 258.577 160.625 258.286 160.273 258.278C158.458 258.238 156.635 258.002 154.855 257.577C146.012 255.469 139.333 248.99 136.558 240.977C135.015 236.52 134.68 231.589 135.853 226.671C136.059 225.808 136.306 224.962 136.594 224.136C138.531 218.578 142.289 213.893 147.371 210.769C153.208 207.18 160.094 206.079 166.759 207.669C180.525 210.954 189.043 224.816 185.761 238.575C185.559 239.424 185.315 240.259 185.029 241.077C183.794 244.623 181.796 247.859 179.169 250.546C179.101 250.615 179.052 250.696 179.022 250.782C178.943 251.008 178.996 251.27 179.179 251.449C179.432 251.695 179.835 251.692 180.082 251.438C182.841 248.617 184.938 245.22 186.235 241.498C186.535 240.639 186.792 239.763 187.004 238.872C190.45 224.426 181.497 209.871 167.056 206.426C160.058 204.757 152.83 205.913 146.702 209.681C141.366 212.96 137.421 217.879 135.388 223.714C135.086 224.581 134.826 225.469 134.61 226.374C132.941 233.372 134.097 240.601 137.864 246.729C141.145 252.065 146.065 256.01 151.902 258.043Z" fill="white"/>
<g opacity="0.3">
<path d="M328.711 52.7981C329.091 52.3184 329.129 51.6282 328.758 51.1023C328.065 50.1202 327.334 49.1454 326.583 48.2059C326.095 47.5953 325.205 47.4958 324.593 47.9838C323.979 48.4701 323.883 49.3627 324.371 49.9734C325.086 50.8687 325.784 51.7976 326.445 52.7347C326.895 53.3733 327.778 53.5256 328.418 53.0758C328.531 52.9953 328.629 52.9015 328.711 52.7981Z" fill="#FBA2B0"/>
<path d="M321.548 44.6219C321.002 45.1811 320.106 45.1929 319.546 44.6467C318.132 43.2696 316.632 41.9489 315.087 40.7222C314.761 40.4635 314.431 40.2077 314.097 39.9542C313.476 39.481 313.355 38.593 313.828 37.9705C314.298 37.3997 315.189 37.2276 315.812 37.7006C316.161 37.9662 316.507 38.234 316.848 38.5047C318.467 39.7905 320.04 41.1753 321.522 42.62C322.047 43.1308 322.09 43.9505 321.644 44.5124C321.614 44.5498 321.582 44.5859 321.548 44.6219ZM308.12 35.9597C306.053 34.7541 303.894 33.6655 301.701 32.7253C300.982 32.4167 300.65 31.5856 300.958 30.8664C301.266 30.152 302.098 29.8148 302.817 30.1234C305.115 31.1086 307.38 32.2496 309.546 33.5141C310.222 33.9082 310.45 34.7751 310.056 35.4511C310.022 35.51 309.982 35.5662 309.941 35.6187C309.51 36.1611 308.735 36.3185 308.12 35.9597ZM294.929 30.3093C292.634 29.6477 290.273 29.1238 287.911 28.7512C287.139 28.6294 286.611 27.9043 286.733 27.1326C286.856 26.3581 287.579 25.8321 288.352 25.9544C290.829 26.3446 293.306 26.8955 295.713 27.5882C296.464 27.8049 296.898 28.5894 296.682 29.3406C296.628 29.5234 296.542 29.6878 296.43 29.8285C296.084 30.2643 295.497 30.4724 294.929 30.3093ZM280.753 28.0726C278.362 27.9941 275.944 28.0633 273.569 28.2796C272.789 28.3499 272.101 27.7762 272.031 26.9976C271.961 26.2209 272.533 25.5308 273.312 25.4595C275.804 25.2333 278.338 25.1605 280.846 25.2427C281.628 25.2682 282.241 25.9234 282.215 26.7047C282.204 27.0195 282.092 27.3072 281.909 27.5368C281.64 27.8761 281.22 28.0879 280.753 28.0726ZM266.461 29.3644C264.123 29.8696 261.796 30.5242 259.541 31.3096C258.804 31.567 257.997 31.1768 257.739 30.4384C257.481 29.6999 257.87 28.8921 258.61 28.6359C260.973 27.8123 263.413 27.1266 265.862 26.5962C266.626 26.4317 267.38 26.9169 267.545 27.6806C267.638 28.1122 267.524 28.5406 267.27 28.861C267.073 29.1085 266.793 29.2921 266.461 29.3644ZM252.915 34.0867C250.773 35.1442 248.677 36.3453 246.685 37.6581C246.033 38.0883 245.154 37.9077 244.725 37.2551C244.295 36.6024 244.474 35.7272 245.128 35.2935C247.216 33.917 249.415 32.6568 251.662 31.5475C252.363 31.2022 253.212 31.4894 253.558 32.1901C253.808 32.6976 253.726 33.2827 253.397 33.698C253.271 33.8565 253.109 33.9911 252.915 34.0867ZM240.94 41.9751C239.129 43.521 237.391 45.2016 235.774 46.9711C235.246 47.5475 234.351 47.5878 233.774 47.0601C233.197 46.5333 233.165 45.6463 233.684 45.0593C235.38 43.2055 237.202 41.4433 239.102 39.8218C239.697 39.3145 240.591 39.385 241.098 39.9796C241.545 40.5025 241.543 41.2578 241.131 41.7775C241.075 41.8479 241.012 41.9143 240.94 41.9751ZM225.543 59.2439C224.855 58.8724 224.599 58.0142 224.971 57.326C225.999 55.4215 227.15 53.5407 228.386 51.7405C228.573 51.4658 228.763 51.1955 228.954 50.9255C229.386 50.2786 230.291 50.1391 230.929 50.5948C231.566 51.0485 231.714 51.9319 231.261 52.5694C231.08 52.8215 230.902 53.0766 230.724 53.3385C229.54 55.0613 228.442 56.8553 227.461 58.6712C227.421 58.7461 227.375 58.816 227.324 58.8799C226.905 59.4078 226.156 59.575 225.543 59.2439Z" fill="#FBA2B0"/>
</g>
<g opacity="0.3">
<path d="M326.139 125.038C324.58 126.95 322.89 128.783 321.118 130.489C320.554 131.03 319.658 131.013 319.116 130.449C318.573 129.885 318.601 128.99 319.156 128.447C320.846 126.822 322.457 125.073 323.945 123.248C324.438 122.642 325.331 122.552 325.936 123.046C326.537 123.536 326.631 124.418 326.151 125.023C326.147 125.028 326.143 125.033 326.139 125.038ZM328.517 119.459C327.857 119.041 327.66 118.166 328.078 117.506C329.335 115.518 330.484 113.434 331.493 111.312C331.829 110.611 332.674 110.305 333.38 110.642C334.087 110.978 334.386 111.821 334.051 112.528C332.993 114.753 331.788 116.937 330.47 119.019C330.443 119.063 330.413 119.104 330.381 119.144C329.938 119.703 329.135 119.849 328.517 119.459ZM315.467 135.292C313.491 136.771 311.408 138.143 309.276 139.368C308.598 139.758 307.732 139.524 307.343 138.846C306.953 138.168 307.187 137.306 307.864 136.913C309.899 135.745 311.885 134.436 313.771 133.026C314.397 132.557 315.285 132.685 315.752 133.31C316.146 133.836 316.119 134.547 315.729 135.038C315.655 135.131 315.567 135.217 315.467 135.292ZM335.029 106.542C334.287 106.296 333.886 105.494 334.133 104.752C334.875 102.521 335.487 100.222 335.952 97.9184C336.107 97.1532 336.854 96.6571 337.619 96.8102C338.385 96.9652 338.882 97.7116 338.727 98.4781C338.24 100.894 337.598 103.306 336.819 105.646C336.765 105.808 336.685 105.953 336.585 106.079C336.225 106.532 335.609 106.735 335.029 106.542ZM302.638 142.66C300.37 143.619 298.018 144.448 295.649 145.127C294.897 145.342 294.113 144.907 293.898 144.155C293.683 143.403 294.117 142.619 294.87 142.404C297.13 141.758 299.372 140.966 301.536 140.051C302.256 139.747 303.086 140.083 303.391 140.805C303.6 141.298 303.506 141.844 303.195 142.237C303.053 142.416 302.864 142.564 302.638 142.66ZM288.414 146.736C285.977 147.124 283.494 147.368 281.036 147.46C280.256 147.49 279.599 146.881 279.569 146.1C279.539 145.319 280.148 144.661 280.931 144.631C283.275 144.543 285.643 144.31 287.969 143.939C288.741 143.816 289.467 144.343 289.59 145.115C289.654 145.523 289.538 145.918 289.3 146.218C289.088 146.486 288.778 146.678 288.414 146.736ZM273.622 147.289C271.161 147.083 268.692 146.723 266.283 146.221C265.517 146.061 265.027 145.312 265.186 144.546C265.345 143.781 266.096 143.291 266.86 143.449C269.157 143.929 271.512 144.271 273.858 144.466C274.638 144.532 275.217 145.217 275.151 145.996C275.127 146.285 275.017 146.546 274.85 146.757C274.565 147.115 274.113 147.33 273.622 147.289Z" fill="#FBA2B0"/>
<path d="M339.452 91.8372C339.622 91.6233 339.731 91.3583 339.754 91.0655C339.846 89.8573 339.903 88.6411 339.923 87.4501C339.936 86.6687 339.314 86.0235 338.532 86.0099C337.752 85.9988 337.107 86.62 337.092 87.4016C337.073 88.5373 337.018 89.6978 336.931 90.8507C336.871 91.6305 337.456 92.3106 338.235 92.3697C338.721 92.4062 339.17 92.1929 339.452 91.8372Z" fill="#FBA2B0"/>
</g>
<path d="M322.161 71.1643C322.095 70.8655 321.848 70.6412 321.544 70.6056L312.879 69.5896C311.123 65.9127 308.769 62.4894 305.848 59.481L307.903 51.0077C307.976 50.7104 307.851 50.4004 307.594 50.2352L298.783 44.5877C298.526 44.4224 298.192 44.439 297.952 44.6284L291.111 50.034C287.158 48.6358 283.064 47.9255 278.99 47.8656L274.449 40.416C274.29 40.1548 273.983 40.0236 273.684 40.0888L263.46 42.3251C263.162 42.3903 262.937 42.6381 262.902 42.9419L261.886 51.607C258.209 53.3623 254.785 55.7167 251.777 58.6377L243.304 56.5821C243.007 56.51 242.696 56.6343 242.531 56.8919L236.884 65.7022C236.718 65.9598 236.735 66.2935 236.925 66.5335L242.33 73.3749C240.932 77.328 240.222 81.4218 240.162 85.4958L232.712 90.0366C232.451 90.1958 232.32 90.5032 232.385 90.8018L234.621 101.025C234.687 101.324 234.934 101.548 235.238 101.584L243.904 102.6C245.659 106.277 248.013 109.7 250.934 112.709L248.879 121.182C248.806 121.479 248.931 121.789 249.188 121.954L257.999 127.602C258.256 127.767 258.59 127.751 258.83 127.561L265.671 122.156C269.624 123.554 273.718 124.264 277.792 124.324L282.333 131.774C282.492 132.035 282.799 132.166 283.098 132.101L293.322 129.865C293.62 129.799 293.845 129.552 293.88 129.248L294.896 120.583C298.573 118.827 301.997 116.473 305.005 113.552L313.478 115.608C313.775 115.68 314.085 115.555 314.251 115.298L319.898 106.487C320.063 106.23 320.047 105.896 319.857 105.656L314.452 98.8149C315.85 94.8618 316.56 90.7679 316.62 86.694L324.07 82.1531C324.331 81.994 324.462 81.6864 324.397 81.3879L322.161 71.1643Z" fill="#FBA2B0"/>
<path d="M285.717 93.9038C283.631 95.8619 280.908 96.8894 278.049 96.7977C275.19 96.7069 272.538 95.5077 270.581 93.4211C266.542 89.1154 266.76 82.3372 271.065 78.2845C275.372 74.2457 282.162 74.463 286.2 78.7684C288.157 80.8543 289.185 83.5775 289.094 86.4362C289.019 88.7601 288.213 90.9476 286.793 92.7363C286.466 93.1472 286.107 93.5378 285.717 93.9038ZM272.645 91.4835C274.085 93.0185 276.036 93.9008 278.14 93.968C280.242 94.035 282.245 93.2788 283.78 91.8396C285.313 90.398 286.196 88.4491 286.264 86.3454C286.331 84.2433 285.574 82.2398 284.136 80.7058C281.164 77.5382 276.17 77.3785 273.002 80.349C272.716 80.6176 272.455 80.9018 272.218 81.2002C269.831 84.2076 269.943 88.6025 272.645 91.4835Z" fill="white"/>
<path d="M299.044 102.722C299.601 102.021 300.127 101.285 300.621 100.516C301.601 98.9878 302.427 97.3584 303.077 95.6686C303.105 95.5924 303.134 95.5164 303.163 95.4402C303.383 94.8509 303.186 94.208 302.719 93.836C302.605 93.7458 302.475 93.6717 302.332 93.6182C301.6 93.3442 300.787 93.719 300.511 94.4488C299.919 96.0322 299.154 97.5586 298.238 98.9865L298.237 98.987C298.187 99.0655 298.136 99.1437 298.085 99.2209C295.886 102.581 292.932 105.265 289.486 107.116C287.615 108.12 285.598 108.878 283.474 109.363C283.457 109.367 283.44 109.371 283.422 109.375C283.369 109.386 283.317 109.399 283.264 109.41C277.044 110.77 270.666 109.627 265.306 106.191C264.612 105.747 263.947 105.271 263.31 104.765C259.028 101.364 256.069 96.6325 254.884 91.2171C253.524 84.997 254.668 78.6201 258.104 73.2608C261.539 67.9056 266.858 64.1996 273.077 62.838C279.297 61.4778 285.675 62.6206 291.035 66.0568C291.717 66.4935 292.374 66.9642 293.004 67.4645C295.737 69.6347 297.963 72.3775 299.515 75.5053C299.611 75.698 299.744 75.8594 299.903 75.9843C300.319 76.3143 300.905 76.3961 301.412 76.144C302.112 75.7946 302.399 74.9477 302.051 74.2458C300.314 70.7461 297.823 67.6765 294.767 65.2488C294.061 64.6884 293.326 64.1622 292.563 63.6732C286.565 59.8285 279.431 58.55 272.471 60.0724C265.513 61.595 259.562 65.7296 255.72 71.7321C251.875 77.7289 250.596 84.8632 252.119 91.8226C253.444 97.8809 256.754 103.174 261.546 106.979C262.257 107.544 263.002 108.077 263.778 108.575C275.389 116.017 290.647 113.3 299.044 102.722Z" fill="white"/>
<path d="M86.3645 82.9133L84.1933 92.3859C83.466 95.5588 84.8323 98.844 87.5947 100.566L94.1423 104.647C95.913 105.751 97.0083 107.656 97.1195 109.74C97.3991 114.982 98.2827 120.118 99.7142 125.061C100.295 127.068 99.8887 129.23 98.5767 130.857L93.7284 136.869C91.6851 139.403 91.4742 142.954 93.2036 145.712L98.3662 153.946C100.096 156.704 103.384 158.061 106.556 157.325L114.079 155.579C116.115 155.106 118.238 155.682 119.792 157.08C123.618 160.521 127.856 163.553 132.453 166.088C134.281 167.096 135.518 168.911 135.741 170.986L136.563 178.658C136.91 181.895 139.272 184.555 142.445 185.282L151.917 187.453C155.09 188.18 158.375 186.814 160.097 184.052L164.179 177.504C165.282 175.734 167.188 174.639 169.271 174.527C174.513 174.247 179.649 173.364 184.592 171.932C186.6 171.351 188.762 171.758 190.389 173.07L196.4 177.918C198.934 179.962 202.486 180.173 205.244 178.443L213.477 173.28C216.235 171.551 217.592 168.262 216.856 165.091L215.111 157.568C214.638 155.532 215.214 153.408 216.611 151.855C220.053 148.028 223.085 143.79 225.62 139.193C226.627 137.366 228.443 136.128 230.517 135.906L238.189 135.084C241.426 134.737 244.086 132.375 244.813 129.202L246.985 119.729C247.712 116.556 246.346 113.271 243.584 111.549L237.036 107.468C235.265 106.364 234.17 104.459 234.059 102.375C233.779 97.1331 232.895 91.9972 231.464 87.0542C230.883 85.0469 231.29 82.8846 232.601 81.2578L237.45 75.246C239.493 72.712 239.704 69.1606 237.975 66.4027L232.812 58.1694C231.083 55.4115 227.794 54.0543 224.623 54.7903L217.099 56.5361C215.064 57.0084 212.94 56.4328 211.386 55.0352C207.56 51.5937 203.322 48.5616 198.725 46.0267C196.898 45.0191 195.659 43.2033 195.437 41.1287L194.615 33.457C194.268 30.2202 191.906 27.56 188.733 26.8328L179.26 24.6614C176.087 23.9341 172.803 25.2999 171.081 28.0625L166.999 34.6105C165.896 36.3813 163.99 37.4765 161.907 37.5878C156.665 37.8676 151.529 38.7509 146.586 40.1822C144.578 40.7636 142.416 40.3568 140.789 39.045L134.778 34.1969C132.244 32.1533 128.692 31.9425 125.934 33.6717L117.7 38.8347C114.943 40.5639 113.586 43.8525 114.322 47.0235L116.068 54.5471C116.54 56.5827 115.964 58.7064 114.567 60.2602C111.126 64.0863 108.094 68.3245 105.558 72.9214C104.551 74.7487 102.735 75.9868 100.661 76.2091L92.9889 77.0311C89.7522 77.3781 87.0919 79.7404 86.3645 82.9133ZM112.019 87.9311C122.03 58.345 154.129 42.4759 183.716 52.4869C213.302 62.4978 229.171 94.5976 219.16 124.184C209.149 153.77 177.049 169.639 147.463 159.628C117.876 149.617 102.008 117.517 112.019 87.9311Z" fill="#3A1A53"/>
<rect x="114.961" y="55.3203" width="101.393" height="101.393" rx="50.6966" fill="#FECAD2"/>
<path d="M191.524 106.567C191.524 104.135 191.673 101.714 191.776 99.5308C191.882 97.2967 191.942 95.2901 191.808 93.4572C191.544 89.8609 190.574 87.3487 188.061 85.5495C187.591 85.2131 186.704 84.7954 185.299 84.384C183.933 83.9844 182.245 83.6381 180.304 83.3571C176.424 82.7952 171.72 82.5204 166.939 82.5359C162.161 82.5513 157.382 82.8565 153.356 83.4291C149.207 84.0194 146.25 84.8438 144.82 85.6867C140.746 88.0882 139.287 92.106 139.341 97.2197C139.395 102.419 141.036 108.178 142.614 113.109C143.84 116.939 145.959 119.701 149.467 121.591C153.044 123.518 158.282 124.655 165.943 124.69L166.309 124.69L166.382 124.691C167.915 124.73 169.146 125.985 169.146 127.527C169.146 129.069 167.915 130.324 166.382 130.363L166.309 130.364L165.922 130.363C157.816 130.326 151.515 129.139 146.776 126.586C141.836 123.924 138.833 119.909 137.21 114.838C135.637 109.92 133.732 103.426 133.668 97.2788C133.603 91.0456 135.453 84.6228 141.939 80.7994C144.409 79.3428 148.347 78.4111 152.557 77.8122C156.892 77.1956 161.938 76.8786 166.92 76.8625C171.901 76.8464 176.893 77.1306 181.117 77.7422C183.228 78.0478 185.193 78.4419 186.892 78.939C188.551 79.4245 190.139 80.0601 191.363 80.9365C195.784 84.1015 197.138 88.5629 197.466 93.0433C197.627 95.2487 197.549 97.5563 197.443 99.7989C197.335 102.092 197.198 104.31 197.198 106.567C197.198 108.134 195.928 109.404 194.361 109.404C192.794 109.404 191.524 108.134 191.524 106.567Z" fill="#E01236"/>
<path d="M162.369 100.185C162.369 103.666 159.547 106.488 156.065 106.488C152.584 106.488 149.762 103.666 149.762 100.185C149.762 96.7032 152.584 93.8809 156.065 93.8809C159.547 93.8809 162.369 96.7032 162.369 100.185Z" fill="#E01236"/>
<path d="M181.596 100.185C181.596 103.666 178.774 106.488 175.292 106.488C171.811 106.488 168.989 103.666 168.989 100.185C168.989 96.7032 171.811 93.8809 175.292 93.8809C178.774 93.8809 181.596 96.7032 181.596 100.185Z" fill="#E01236"/>
<path d="M186.233 111.512C186.653 110.448 188.159 110.448 188.579 111.512L191.752 119.557C191.88 119.882 192.137 120.139 192.462 120.267L200.507 123.44C201.571 123.86 201.571 125.366 200.507 125.786L192.462 128.959C192.137 129.087 191.88 129.344 191.752 129.669L188.579 137.714C188.159 138.778 186.653 138.778 186.233 137.714L183.06 129.669C182.932 129.344 182.675 129.087 182.35 128.959L174.305 125.786C173.241 125.366 173.241 123.86 174.305 123.44L182.35 120.267C182.675 120.139 182.932 119.882 183.06 119.557L186.233 111.512Z" fill="#E01236"/>
<path d="M212.133 205.286L211.54 214.714C211.342 217.871 213.169 220.807 216.09 222.024L223.012 224.909C224.884 225.689 226.234 227.344 226.669 229.325C227.762 234.309 229.417 239.096 231.568 243.612C232.441 245.446 232.391 247.584 231.389 249.351L227.684 255.88C226.123 258.632 226.479 262.072 228.572 264.445L234.819 271.53C236.912 273.903 240.28 274.687 243.206 273.483L250.147 270.624C252.025 269.851 254.153 270.069 255.863 271.165C260.074 273.864 264.617 276.105 269.425 277.814C271.336 278.493 272.809 280.04 273.348 281.995L275.344 289.224C276.186 292.274 278.87 294.453 282.028 294.652L291.455 295.244C294.613 295.442 297.549 293.616 298.766 290.695L301.65 283.773C302.43 281.901 304.086 280.55 306.067 280.116C311.051 279.023 315.838 277.367 320.353 275.217C322.188 274.344 324.326 274.394 326.092 275.396L332.621 279.1C335.373 280.662 338.813 280.305 341.186 278.213L348.271 271.966C350.644 269.873 351.428 266.505 350.224 263.579L347.366 256.638C346.592 254.759 346.81 252.632 347.906 250.922C350.605 246.71 352.847 242.168 354.555 237.36C355.234 235.449 356.781 233.976 358.736 233.437L365.965 231.441C369.015 230.599 371.194 227.915 371.393 224.757L371.985 215.329C372.184 212.172 370.357 209.236 367.437 208.019L360.514 205.135C358.642 204.355 357.291 202.699 356.857 200.718C355.764 195.734 354.109 190.947 351.958 186.431C351.085 184.597 351.135 182.459 352.137 180.693L355.842 174.164C357.403 171.412 357.047 167.972 354.954 165.599L348.707 158.514C346.614 156.141 343.246 155.356 340.32 156.561L333.379 159.419C331.501 160.193 329.373 159.975 327.663 158.879C323.452 156.18 318.91 153.938 314.101 152.23C312.19 151.551 310.717 150.004 310.178 148.049L308.182 140.82C307.34 137.77 304.656 135.59 301.498 135.392L292.071 134.799C288.913 134.601 285.977 136.428 284.76 139.348L281.876 146.271C281.096 148.143 279.44 149.494 277.46 149.928C272.475 151.021 267.688 152.676 263.172 154.827C261.338 155.7 259.2 155.65 257.434 154.648L250.905 150.943C248.153 149.382 244.713 149.738 242.34 151.831L235.255 158.079C232.882 160.171 232.098 163.539 233.302 166.465L236.16 173.406C236.934 175.284 236.716 177.412 235.62 179.122C232.921 183.334 230.679 187.876 228.971 192.684C228.292 194.595 226.745 196.068 224.79 196.608L217.561 198.603C214.511 199.444 212.331 202.128 212.133 205.286ZM237.529 206.063C242.476 176.11 270.768 155.839 300.721 160.787C330.674 165.735 350.945 194.027 345.997 223.98C341.05 253.933 312.757 274.203 282.805 269.256C252.852 264.308 232.581 236.016 237.529 206.063Z" fill="#3A1A53"/>
<rect x="241" y="164" width="101.393" height="101.393" rx="50.6966" fill="#FECAD2"/>
<path d="M317.563 215.247C317.563 212.815 317.712 210.394 317.815 208.21C317.921 205.976 317.981 203.97 317.847 202.137C317.583 198.541 316.613 196.028 314.1 194.229C313.63 193.893 312.743 193.475 311.338 193.064C309.972 192.664 308.284 192.318 306.343 192.037C302.463 191.475 297.759 191.2 292.978 191.216C288.2 191.231 283.421 191.536 279.395 192.109C275.246 192.699 272.289 193.523 270.859 194.366C266.785 196.768 265.327 200.786 265.38 205.899C265.434 211.099 267.075 216.857 268.653 221.789C269.879 225.619 271.998 228.381 275.506 230.271C279.083 232.198 284.321 233.334 291.982 233.369L292.348 233.37L292.422 233.371C293.954 233.41 295.185 234.665 295.185 236.207C295.185 237.749 293.954 239.004 292.422 239.043L292.348 239.044L291.961 239.043C283.855 239.006 277.554 237.818 272.815 235.265C267.875 232.604 264.872 228.589 263.25 223.518C261.676 218.6 259.771 212.106 259.707 205.958C259.642 199.725 261.492 193.302 267.978 189.479C270.448 188.022 274.386 187.091 278.596 186.492C282.931 185.875 287.977 185.558 292.96 185.542C297.94 185.526 302.933 185.81 307.156 186.422C309.267 186.727 311.233 187.122 312.931 187.619C314.59 188.104 316.178 188.74 317.402 189.616C321.823 192.781 323.177 197.243 323.505 201.723C323.666 203.928 323.588 206.236 323.482 208.479C323.374 210.772 323.237 212.99 323.237 215.247C323.237 216.813 321.967 218.083 320.4 218.083C318.833 218.083 317.563 216.813 317.563 215.247Z" fill="#E01236"/>
<path d="M288.408 208.864C288.408 212.346 285.586 215.168 282.105 215.168C278.623 215.168 275.801 212.346 275.801 208.864C275.801 205.383 278.623 202.561 282.105 202.561C285.586 202.561 288.408 205.383 288.408 208.864Z" fill="#E01236"/>
<path d="M307.635 208.864C307.635 212.346 304.813 215.168 301.331 215.168C297.85 215.168 295.028 212.346 295.028 208.864C295.028 205.383 297.85 202.561 301.331 202.561C304.813 202.561 307.635 205.383 307.635 208.864Z" fill="#E01236"/>
<path d="M312.272 220.192C312.692 219.128 314.198 219.128 314.618 220.192L317.791 228.237C317.919 228.562 318.176 228.819 318.501 228.947L326.546 232.12C327.61 232.54 327.61 234.046 326.546 234.466L318.501 237.639C318.176 237.767 317.919 238.024 317.791 238.349L314.618 246.394C314.198 247.458 312.692 247.458 312.272 246.394L309.099 238.349C308.971 238.024 308.714 237.767 308.389 237.639L300.344 234.466C299.28 234.046 299.28 232.54 300.344 232.12L308.389 228.947C308.714 228.819 308.971 228.562 309.099 228.237L312.272 220.192Z" fill="#E01236"/>
<path d="M331.777 253.236H255.941C253.212 253.236 251 251.024 251 248.295V185.941C251 183.212 253.212 181 255.941 181H331.777C334.506 181 336.718 183.212 336.718 185.941V248.295C336.718 251.024 334.506 253.236 331.777 253.236Z" fill="#F0F0F0"/>
<path d="M336.718 192.984H251V185.941C251 183.212 253.212 181 255.941 181H331.777C334.506 181 336.718 183.212 336.718 185.941L336.718 192.984Z" fill="#3A1A53"/>
<path d="M328.521 202.153H259.274C258.179 202.153 257.291 201.265 257.291 200.169C257.291 199.074 258.179 198.186 259.274 198.186H328.521C329.617 198.186 330.505 199.074 330.505 200.169C330.505 201.265 329.617 202.153 328.521 202.153Z" fill="#CECECE"/>
<path d="M307.986 211.519H259.274C258.178 211.519 257.29 210.631 257.29 209.536C257.29 208.441 258.178 207.552 259.274 207.552H307.986C309.081 207.552 309.969 208.44 309.969 209.536C309.969 210.631 309.081 211.519 307.986 211.519Z" fill="#CECECE"/>
<path d="M313.141 220.886H259.274C258.178 220.886 257.29 219.998 257.29 218.902C257.29 217.807 258.178 216.919 259.274 216.919H313.14C314.236 216.919 315.124 217.807 315.124 218.902C315.124 219.998 314.236 220.886 313.141 220.886Z" fill="#CECECE"/>
<path d="M315.615 230.253H259.274C258.178 230.253 257.29 229.365 257.29 228.269C257.29 227.174 258.178 226.286 259.274 226.286H315.615C316.71 226.286 317.598 227.174 317.598 228.269C317.598 229.365 316.71 230.253 315.615 230.253Z" fill="#CECECE"/>
<path d="M315.615 239.619H259.274C258.178 239.619 257.29 238.731 257.29 237.636C257.29 236.54 258.178 235.652 259.274 235.652H315.615C316.71 235.652 317.598 236.54 317.598 237.636C317.598 238.731 316.71 239.619 315.615 239.619Z" fill="#CECECE"/>
<path d="M306.056 248.985H259.274C258.178 248.985 257.29 248.097 257.29 247.002C257.29 245.906 258.178 245.018 259.274 245.018H306.056C307.151 245.018 308.039 245.906 308.039 247.002C308.039 248.097 307.151 248.985 306.056 248.985Z" fill="#CECECE"/>
<path d="M257.29 188.663C258.236 188.663 259.003 187.896 259.003 186.95C259.003 186.004 258.236 185.237 257.29 185.237C256.344 185.237 255.577 186.004 255.577 186.95C255.577 187.896 256.344 188.663 257.29 188.663Z" fill="#ED4545"/>
<path d="M263.552 188.663C264.498 188.663 265.265 187.896 265.265 186.95C265.265 186.004 264.498 185.237 263.552 185.237C262.606 185.237 261.839 186.004 261.839 186.95C261.839 187.896 262.606 188.663 263.552 188.663Z" fill="#F4BF19"/>
<path d="M270.196 188.663C271.142 188.663 271.909 187.896 271.909 186.95C271.909 186.004 271.142 185.237 270.196 185.237C269.25 185.237 268.483 186.004 268.483 186.95C268.483 187.896 269.25 188.663 270.196 188.663Z" fill="#43DD51"/>
</svg>
